version 1
nodes
0 "ValveBiped.Bip01_Spine4" -1
1 "ValveBiped.Bip01_L_Clavicle" 0
2 "ValveBiped.Bip01_L_UpperArm" 1
3 "ValveBiped.Bip01_L_Forearm" 2
4 "ValveBiped.Bip01_L_Hand" 3
5 "ValveBiped.Bip01_L_Finger4" 4
6 "ValveBiped.Bip01_L_Finger41" 5
7 "ValveBiped.Bip01_L_Finger42" 6
8 "ValveBiped.Bip01_L_Finger3" 4
9 "ValveBiped.Bip01_L_Finger31" 8
10 "ValveBiped.Bip01_L_Finger32" 9
11 "ValveBiped.Bip01_L_Finger2" 4
12 "ValveBiped.Bip01_L_Finger21" 11
13 "ValveBiped.Bip01_L_Finger22" 12
14 "ValveBiped.Bip01_L_Finger1" 4
15 "ValveBiped.Bip01_L_Finger11" 14
16 "ValveBiped.Bip01_L_Finger12" 15
17 "ValveBiped.Bip01_L_Finger0" 4
18 "ValveBiped.Bip01_L_Finger01" 17
19 "ValveBiped.Bip01_L_Finger02" 18
20 "ValveBiped.Bip01_L_Ulna" 3
21 "ValveBiped.Bip01_L_Wrist" 3
22 "rig_l_upperarm" 1
23 "rig_l_forearm" 22
24 "rig_d_l_forearm" 23
25 "rig_d_l_upperarm" 22
26 "ValveBiped.Bip01_R_Clavicle" 0
27 "ValveBiped.Bip01_R_UpperArm" 26
28 "ValveBiped.Bip01_R_Forearm" 27
29 "ValveBiped.Bip01_R_Hand" 28
30 "ValveBiped.Bip01_R_Finger4" 29
31 "ValveBiped.Bip01_R_Finger41" 30
32 "ValveBiped.Bip01_R_Finger42" 31
33 "ValveBiped.Bip01_R_Finger3" 29
34 "ValveBiped.Bip01_R_Finger31" 33
35 "ValveBiped.Bip01_R_Finger32" 34
36 "ValveBiped.Bip01_R_Finger2" 29
37 "ValveBiped.Bip01_R_Finger21" 36
38 "ValveBiped.Bip01_R_Finger22" 37
39 "ValveBiped.Bip01_R_Finger1" 29
40 "ValveBiped.Bip01_R_Finger11" 39
41 "ValveBiped.Bip01_R_Finger12" 40
42 "ValveBiped.Bip01_R_Finger0" 29
43 "ValveBiped.Bip01_R_Finger01" 42
44 "ValveBiped.Bip01_R_Finger02" 43
45 "ValveBiped.Bip01_R_Ulna" 28
46 "ValveBiped.Bip01_R_Wrist" 28
47 "rig_r_upperarm" 26
48 "rig_r_forearm" 47
49 "rig_d_r_forearm" 48
50 "rig_d_r_upperarm" 47
51 "rig_r_hand" -1
52 "rig_d_r_hand" 51
53 "rig_d_r_wrist" 52
54 "rig_l_hand" -1
55 "rig_d_l_hand" 54
56 "rig_d_l_wrist" 54
57 "rig_l_pole" -1
58 "rig_r_pole" -1
59 "rig_l_clavicle" -1
60 "rig_d_l_clavicle" 59
61 "rig_r_clavicle" -1
62 "rig_d_r_clavicle" 61
63 "Camera" -1
64 "body" -1
65 "trigger" 64
66 "barrel" 64
67 "bulletdoor" 64
68 "pump" 64
69 "bolt" 68
70 "bullet2" 64
71 "bullet1" -1
end
skeleton
time 0
0  0.000006 0.000000 0.000000  -1.570800 -1.391899 -1.570792
1  -4.327822 -0.845730 -0.674796  -1.544956 -1.855077 -0.198630
2  6.027522 -0.000325 0.000193  -1.077969 -1.092223 -1.034963
3  11.692108 0.000644 -0.000740  -1.361396 -0.000016 -1.396426
4  11.479885 0.000601 -0.000694  1.243137 -0.641762 0.128734
5  3.859508 -0.142880 -1.192050  -0.550885 -0.255832 -1.866282
6  1.312589 0.000013 0.000009  -0.134281 -0.007565 -0.192402
7  0.729355 0.000054 0.000049  -0.007819 -0.009377 -0.049784
8  3.942141 0.046273 -0.431512  -0.484645 0.035664 -1.413041
9  1.539110 0.000083 0.000004  -0.033415 -0.056767 -0.605686
10  1.196331 0.000147 0.000030  0.006943 0.002367 -0.289526
11  3.883503 -0.047269 0.431381  -0.270346 0.409995 -0.746893
12  1.719572 -0.000023 0.000015  0.028923 -0.121328 -1.267494
13  1.209178 0.000092 0.000011  -0.006830 -0.001497 -0.302684
14  4.085221 -0.082715 1.151040  0.033977 0.537783 -0.030448
15  1.719448 -0.000011 0.000024  0.011889 -0.076325 -0.864457
16  1.099676 0.000049 0.000004  -0.070447 0.038185 -1.423970
17  0.971586 -1.283499 0.847609  -0.978328 -0.625347 -0.310208
18  1.789819 -0.000004 -0.000018  0.000998 -0.014468 0.721478
19  1.207015 -0.000012 -0.000044  0.001593 -0.000026 -0.111145
20  5.740637 0.000410 -0.000704  -0.109676 0.000003 0.000071
21  11.480985 0.000332 -0.000797  -0.048216 -0.111001 -0.006497
22  6.027525 -0.000329 0.000203  1.759115 -0.442716 1.687994
23  0.000002 11.692101 -0.000007  -0.967735 -0.419756 -0.770112
24  0.000002 0.000008 -0.000001  -0.492302 -0.000030 1.570739
25  -0.000000 -0.000011 -0.000000  0.868957 0.000002 1.570712
26  -4.967872 -9.778694 2.073871  1.473120 1.855075 -0.198639
27  6.027506 -0.000260 -0.000228  1.646195 0.656093 -0.406281
28  11.691991 0.000243 0.000854  0.564399 0.000074 -1.863466
29  11.479124 -0.000570 0.001339  -1.205878 0.547540 0.893047
30  3.859436 -0.132789 1.193063  0.385277 -0.029729 -1.748803
31  1.312559 0.000025 -0.000000  -0.013756 -0.031530 -0.953722
32  0.729344 0.000066 -0.000027  -0.198329 0.044732 -0.857780
33  3.942045 0.050109 0.430998  0.369881 -0.091819 -1.556998
34  1.539097 0.000013 -0.000000  -0.013288 -0.027151 -1.132777
35  1.196298 0.000075 -0.000005  0.000968 -0.002436 -0.994639
36  3.883410 -0.050502 -0.431086  0.299105 -0.220225 -1.386726
37  1.719565 -0.000076 -0.000003  -0.038529 0.030961 -1.462450
38  1.209198 0.000035 0.000011  -0.001756 -0.004187 -0.773865
39  3.806437 -0.112148 -1.295329  -0.028805 0.243340 -0.117787
40  1.719410 -0.000099 -0.000034  0.356276 -0.218063 -1.380320
41  1.099673 0.000026 0.000007  0.059920 -0.008679 -0.824866
42  0.889710 -0.317103 -1.125532  0.901376 0.231327 -0.743910
43  1.789779 -0.000009 -0.000042  0.027227 0.044051 -0.011391
44  1.206996 -0.000007 0.000006  -0.019167 -0.151093 1.385408
45  5.740572 0.000056 0.000724  0.113654 -0.000014 0.000021
46  11.480768 -0.000078 0.001017  0.030096 0.109127 0.142456
47  6.027514 -0.000272 -0.000237  -0.759932 -0.483175 -1.561396
48  -0.000002 11.691976 -0.000006  -1.243134 0.688383 0.927989
49  0.000004 -0.000002 -0.000000  2.836924 -0.000041 1.570856
50  -0.000007 -0.000016 0.000005  2.272644 -0.000030 1.570865
51  -3.824576 -3.342074 -5.194341  3.002374 0.002687 -1.679545
52  0.000000 0.000000 0.000000  0.008153 -0.000259 0.000009
53  0.000000 0.000000 0.000000  1.565115 0.043565 -0.106862
54  -0.823980 -15.126455 -4.756344  -0.977156 -0.115470 -1.927258
55  -0.000001 -0.000000 -0.000000  -0.000000 -0.000000 -0.000002
56  0.000030 0.000029 0.000001  -1.571902 -0.044449 -0.106509
57  8.694838 -16.141689 -16.416052  1.570796 -0.000000 0.000000
58  -16.922342 4.543208 -16.901630  1.570796 -0.000000 0.000000
59  -0.670483 1.601972 -4.109488  1.570796 -0.000000 0.000000
60  -0.004311 0.001230 -0.000371  0.006898 -0.005534 -0.284229
61  2.073871 10.506637 -3.148526  1.570796 -0.000000 0.000000
62  0.000000 0.000000 0.000000  -0.078727 -3.136056 0.284226
63  0.000000 0.000000 0.000000  1.570796 -0.000000 0.000000
64  -2.535900 -8.566546 -1.996421  1.549086 0.053723 0.014481
65  -0.219072 -1.337187 -0.135917  -0.000000 0.000000 0.000000
66  -0.219078 0.187971 19.478249  -0.000000 0.000000 0.000000
67  -0.245097 -1.134826 1.111317  -0.000000 0.000000 0.000000
68  -0.104047 -4.495923 7.879276  -0.000000 0.000000 0.000000
69  -0.198094 4.323282 -6.346650  -0.000000 0.000000 0.000000
70  -0.219828 -0.876292 4.877554  -0.000000 0.000000 0.000000
71  -2.655992 -13.953131 -1.696344  1.549086 0.053723 0.014481
time 1
0  0.000006 0.000000 0.000000  -1.570800 -1.391899 -1.570792
1  -4.327822 -0.845730 -0.674796  -1.544956 -1.855077 -0.198630
2  6.027522 -0.000325 0.000193  -1.068646 -1.106925 -1.057029
3  11.692109 0.000643 -0.000740  -1.361394 -0.000014 -1.357933
4  11.480120 0.000628 -0.000570  1.317707 -0.670291 0.112597
5  3.859510 -0.142879 -1.192050  -0.554168 -0.221760 -1.818535
6  1.312591 0.000012 0.000009  -0.130653 -0.004413 -0.242734
7  0.729356 0.000054 0.000049  -0.012661 -0.011896 -0.036797
8  3.942144 0.046273 -0.431512  -0.475249 0.058418 -1.376893
9  1.539111 0.000083 0.000006  -0.032032 -0.051847 -0.605552
10  1.196332 0.000146 0.000028  0.006291 0.002199 -0.309866
11  3.883506 -0.047268 0.431381  -0.255149 0.416184 -0.732745
12  1.719574 -0.000027 0.000016  0.020916 -0.109482 -1.226587
13  1.209178 0.000091 0.000013  -0.007265 -0.001295 -0.306027
14  4.065175 -0.087671 1.167162  0.041772 0.519119 -0.054000
15  1.719450 -0.000012 0.000021  0.008150 -0.070334 -0.802515
16  1.099675 0.000047 0.000006  -0.108419 0.051965 -1.293267
17  0.945216 -1.220635 0.895077  -1.023347 -0.618050 -0.325753
18  1.789819 -0.000005 -0.000018  0.003195 -0.000751 0.679630
19  1.207012 -0.000012 -0.000043  0.021039 -0.000034 -0.013040
20  5.740636 0.000410 -0.000704  -0.096021 0.000003 0.000071
21  11.481031 0.000337 -0.000770  -0.034467 -0.115450 -0.005492
22  6.027525 -0.000329 0.000203  1.748335 -0.430940 1.678796
23  0.000002 11.692099 -0.000007  -0.944557 -0.399455 -0.754491
24  0.000002 0.000009 -0.000001  -0.492302 -0.000030 1.570739
25  -0.000000 -0.000011 -0.000000  0.868957 0.000002 1.570712
26  -4.967872 -9.778694 2.073871  1.473120 1.855075 -0.198639
27  6.027507 -0.000260 -0.000228  1.652691 0.675876 -0.402543
28  11.691993 0.000242 0.000856  0.564399 0.000073 -1.848372
29  11.479255 -0.000507 0.001300  -1.185993 0.549646 0.912684
30  3.859435 -0.132789 1.193063  0.385277 -0.029729 -1.748803
31  1.312558 0.000026 -0.000000  -0.013756 -0.031530 -0.953722
32  0.729344 0.000066 -0.000026  -0.198329 0.044732 -0.857780
33  3.942045 0.050109 0.430997  0.369881 -0.091819 -1.556998
34  1.539097 0.000012 -0.000000  -0.013288 -0.027151 -1.132777
35  1.196300 0.000075 -0.000004  0.000968 -0.002436 -0.994639
36  3.883410 -0.050502 -0.431087  0.299105 -0.220225 -1.386726
37  1.719565 -0.000075 -0.000003  -0.038529 0.030961 -1.462450
38  1.209198 0.000036 0.000011  -0.001756 -0.004187 -0.773865
39  3.806437 -0.112148 -1.295329  -0.028805 0.243340 -0.117787
40  1.719412 -0.000100 -0.000033  0.356276 -0.218063 -1.380320
41  1.099673 0.000026 0.000007  0.059920 -0.008679 -0.824866
42  0.889709 -0.317102 -1.125533  0.901376 0.231327 -0.743911
43  1.789779 -0.000009 -0.000042  0.027227 0.044051 -0.011391
44  1.206996 -0.000007 0.000006  -0.019167 -0.151093 1.385408
45  5.740572 0.000056 0.000723  0.118812 -0.000014 0.000021
46  11.480795 -0.000065 0.001009  0.032596 0.111264 0.144877
47  6.027514 -0.000272 -0.000237  -0.777951 -0.470478 -1.553401
48  -0.000001 11.691975 -0.000006  -1.234197 0.679171 0.923891
49  0.000003 -0.000002 -0.000000  2.836925 -0.000041 1.570856
50  -0.000006 -0.000016 0.000005  2.272644 -0.000030 1.570865
51  -3.734316 -3.485768 -5.036815  -0.127487 3.131361 1.452958
52  -0.000000 -0.000000 -0.000000  0.008153 -0.000259 0.000009
53  -0.000000 0.000000 -0.000000  1.565115 0.043565 -0.106862
54  -0.836671 -15.419703 -4.699889  -0.925760 -0.094891 -1.879286
55  0.000000 -0.000000 0.000000  0.000000 -0.000000 -0.000002
56  0.000030 0.000029 0.000001  -1.571901 -0.044449 -0.106509
57  8.721073 -16.070824 -16.518265  1.570796 -0.000000 0.000000
58  -16.922342 4.543208 -16.901630  1.570796 -0.000000 0.000000
59  -0.670483 1.601972 -4.109488  1.570796 -0.000000 0.000000
60  -0.004311 0.001230 -0.000371  0.006898 -0.005534 -0.284229
61  2.073871 10.506637 -3.148526  1.570796 -0.000000 0.000000
62  0.000000 0.000000 0.000000  -0.078727 -3.136056 0.284226
63  0.000000 0.000000 0.000000  1.570341 -0.000276 0.000715
64  -2.533569 -8.741330 -1.855659  1.555137 0.041153 0.005602
65  -0.219071 -1.337187 -0.135917  0.000000 -0.000000 0.000000
66  -0.219077 0.187971 19.478251  0.000000 -0.000000 0.000000
67  -0.245097 -1.134826 1.111317  0.000000 -0.000000 0.000000
68  -0.104047 -4.495923 7.879276  0.000000 -0.000000 0.000000
69  -0.198095 4.323281 -6.346652  0.000000 -0.000000 0.000000
70  -0.219827 -0.876292 4.877553  0.000000 -0.000000 0.000000
71  -2.706570 -14.128316 -1.590655  1.555137 0.041153 0.005602
time 2
0  0.000006 0.000000 0.000000  -1.570800 -1.391899 -1.570792
1  -4.327822 -0.845730 -0.674796  -1.544956 -1.855077 -0.198630
2  6.027522 -0.000325 0.000192  -1.044273 -1.139975 -1.112625
3  11.692111 0.000643 -0.000738  -1.361389 -0.000009 -1.256083
4  11.479378 0.000560 -0.000893  1.561378 -0.741251 0.019067
5  3.859509 -0.142880 -1.192049  -0.555473 -0.121586 -1.679656
6  1.312590 0.000012 0.000008  -0.120524 0.005482 -0.385845
7  0.729355 0.000054 0.000051  -0.026484 -0.018658 -0.000124
8  3.942141 0.046272 -0.431512  -0.442234 0.121905 -1.271028
9  1.539111 0.000084 0.000006  -0.027912 -0.037932 -0.603901
10  1.196332 0.000146 0.000028  0.004472 0.001656 -0.367257
11  3.883503 -0.047270 0.431381  -0.209487 0.432653 -0.691637
12  1.719572 -0.000027 0.000016  0.000939 -0.074319 -1.106388
13  1.209179 0.000091 0.000012  -0.008495 -0.000712 -0.315442
14  4.008698 -0.101633 1.212572  0.067459 0.463781 -0.122560
15  1.719449 -0.000011 0.000022  -0.000420 -0.051987 -0.625380
16  1.099676 0.000047 0.000005  -0.210776 0.124410 -0.887339
17  0.876426 -1.045683 1.022468  -1.142255 -0.602453 -0.372440
18  1.789819 -0.000003 -0.000018  0.006068 0.035565 0.561560
19  1.207016 -0.000012 -0.000043  0.071956 -0.009317 0.248563
20  5.740637 0.000410 -0.000703  -0.055247 0.000003 0.000071
21  11.480883 0.000321 -0.000836  0.006536 -0.126772 -0.007380
22  6.027525 -0.000329 0.000203  1.723926 -0.404378 1.655081
23  0.000002 11.692099 -0.000007  -0.882488 -0.347407 -0.711362
24  0.000002 0.000008 -0.000001  -0.492302 -0.000031 1.570739
25  -0.000000 -0.000011 -0.000000  0.868957 0.000002 1.570712
26  -4.967872 -9.778694 2.073871  1.473120 1.855075 -0.198639
27  6.027507 -0.000261 -0.000227  1.667424 0.723517 -0.392877
28  11.691992 0.000243 0.000855  0.564399 0.000070 -1.807740
29  11.479615 -0.000329 0.001187  -1.137301 0.551467 0.955494
30  3.859435 -0.132789 1.193063  0.385277 -0.029729 -1.748803
31  1.312558 0.000025 -0.000001  -0.013756 -0.031530 -0.953722
32  0.729344 0.000066 -0.000027  -0.198329 0.044732 -0.857780
33  3.942044 0.050108 0.430998  0.369881 -0.091819 -1.556998
34  1.539097 0.000012 -0.000000  -0.013288 -0.027151 -1.132777
35  1.196299 0.000075 -0.000005  0.000968 -0.002436 -0.994639
36  3.883410 -0.050502 -0.431086  0.299105 -0.220225 -1.386726
37  1.719565 -0.000077 -0.000003  -0.038529 0.030961 -1.462450
38  1.209198 0.000035 0.000012  -0.001756 -0.004187 -0.773865
39  3.806437 -0.112148 -1.295329  -0.028805 0.243340 -0.117787
40  1.719411 -0.000099 -0.000034  0.356276 -0.218063 -1.380320
41  1.099673 0.000026 0.000007  0.059920 -0.008679 -0.824866
42  0.889709 -0.317103 -1.125532  0.901376 0.231327 -0.743911
43  1.789779 -0.000009 -0.000042  0.027227 0.044051 -0.011391
44  1.206996 -0.000007 0.000007  -0.019167 -0.151093 1.385408
45  5.740572 0.000056 0.000723  0.130777 -0.000014 0.000021
46  11.480867 -0.000029 0.000987  0.039147 0.115980 0.149882
47  6.027514 -0.000272 -0.000237  -0.821115 -0.440573 -1.534232
48  -0.000002 11.691975 -0.000005  -1.210218 0.654517 0.912488
49  0.000003 -0.000000 0.000000  2.836925 -0.000041 1.570856
50  -0.000006 -0.000015 0.000006  2.272644 -0.000030 1.570865
51  -3.517931 -3.858134 -4.677795  -0.097277 3.111393 1.433266
52  -0.000000 -0.000000 0.000000  0.008153 -0.000259 0.000009
53  -0.000000 -0.000000 0.000000  1.565115 0.043565 -0.106862
54  -0.803746 -16.187218 -4.664425  -0.772743 -0.058125 -1.731886
55  0.000000 -0.000001 -0.000000  0.000000 -0.000000 -0.000002
56  0.000031 0.000028 0.000001  -1.571902 -0.044449 -0.106509
57  8.800374 -15.856622 -16.827215  1.570796 -0.000000 0.000000
58  -16.922342 4.543208 -16.901630  1.570796 -0.000000 0.000000
59  -0.670483 1.601972 -4.109488  1.570796 -0.000000 0.000000
60  -0.004311 0.001230 -0.000371  0.006898 -0.005534 -0.284229
61  2.073871 10.506637 -3.148526  1.570796 -0.000000 0.000000
62  0.000000 0.000000 0.000000  -0.078727 -3.136056 0.284226
63  0.000000 0.000000 0.000000  1.569166 -0.000988 0.002288
64  -2.527240 -9.186324 -1.545479  1.571240 0.008721 -0.014299
65  -0.219071 -1.337187 -0.135917  0.000000 -0.000000 0.000000
66  -0.219078 0.187971 19.478249  0.000000 -0.000000 0.000000
67  -0.245097 -1.134826 1.111316  0.000000 -0.000000 0.000000
68  -0.104047 -4.495923 7.879275  0.000000 -0.000000 0.000000
69  -0.198094 4.323280 -6.346653  0.000000 -0.000000 0.000000
70  -0.219828 -0.876292 4.877553  0.000000 -0.000000 0.000000
71  -2.816700 -14.572096 -1.373956  1.571240 0.008721 -0.014299
time 3
0  0.000006 0.000000 0.000000  -1.570800 -1.391899 -1.570792
1  -4.327822 -0.845730 -0.674796  -1.544956 -1.855077 -0.198630
2  6.027523 -0.000326 0.000192  -1.018096 -1.171417 -1.177834
3  11.692112 0.000644 -0.000739  -1.361381 -0.000003 -1.120087
4  11.480669 0.000700 -0.000238  1.937579 -0.774020 -0.183803
5  3.859509 -0.142879 -1.192050  -0.537858 0.014203 -1.487928
6  1.312589 0.000012 0.000008  -0.107741 0.020353 -0.570621
7  0.729355 0.000053 0.000051  -0.044591 -0.026591 0.047127
8  3.942142 0.046273 -0.431512  -0.384111 0.200045 -1.124901
9  1.539112 0.000084 0.000005  -0.021953 -0.019923 -0.598368
10  1.196332 0.000146 0.000029  0.002184 0.000805 -0.441035
11  3.883503 -0.047269 0.431381  -0.143676 0.451312 -0.635931
12  1.719573 -0.000026 0.000015  -0.018133 -0.025816 -0.938950
13  1.209179 0.000089 0.000012  -0.010085 0.000084 -0.327532
14  3.936186 -0.119558 1.270878  0.109974 0.385904 -0.217022
15  1.719448 -0.000012 0.000021  -0.006488 -0.026262 -0.395724
16  1.099674 0.000050 0.000006  -0.289543 0.277619 -0.325617
17  0.808167 -0.842346 1.158564  -1.263284 -0.594337 -0.432286
18  1.789821 -0.000002 -0.000018  0.003819 0.072043 0.420453
19  1.207013 -0.000012 -0.000044  0.118753 -0.031442 0.509547
20  5.740637 0.000410 -0.000704  0.003978 0.000003 0.000070
21  11.481141 0.000348 -0.000705  0.063239 -0.135569 -0.017285
22  6.027525 -0.000329 0.000203  1.701323 -0.378622 1.622454
23  0.000001 11.692099 -0.000007  -0.797638 -0.282036 -0.649778
24  0.000002 0.000008 -0.000002  -0.492302 -0.000030 1.570739
25  -0.000001 -0.000011 -0.000000  0.868957 0.000002 1.570712
26  -4.967872 -9.778694 2.073871  1.473120 1.855075 -0.198639
27  6.027508 -0.000261 -0.000226  1.678894 0.779833 -0.382419
28  11.691992 0.000244 0.000854  0.564399 0.000065 -1.747107
29  11.480161 -0.000037 0.001003  -1.077378 0.547929 0.993311
30  3.859437 -0.132789 1.193063  0.385277 -0.029729 -1.748803
31  1.312559 0.000025 0.000000  -0.013756 -0.031530 -0.953722
32  0.729345 0.000066 -0.000027  -0.198329 0.044732 -0.857780
33  3.942046 0.050109 0.430997  0.369881 -0.091819 -1.556998
34  1.539097 0.000012 -0.000000  -0.013288 -0.027151 -1.132777
35  1.196299 0.000075 -0.000005  0.000968 -0.002436 -0.994639
36  3.883411 -0.050502 -0.431087  0.299105 -0.220225 -1.386726
37  1.719564 -0.000076 -0.000002  -0.038529 0.030961 -1.462450
38  1.209198 0.000035 0.000011  -0.001756 -0.004187 -0.773865
39  3.806438 -0.112148 -1.295329  -0.028805 0.243340 -0.117787
40  1.719412 -0.000099 -0.000034  0.356276 -0.218063 -1.380320
41  1.099673 0.000025 0.000007  0.059920 -0.008679 -0.824866
42  0.889710 -0.317103 -1.125533  0.901376 0.231327 -0.743911
43  1.789779 -0.000009 -0.000043  0.027227 0.044051 -0.011391
44  1.206996 -0.000006 0.000007  -0.019167 -0.151093 1.385408
45  5.740572 0.000056 0.000724  0.142886 -0.000014 0.000021
46  11.480977 0.000029 0.000950  0.048296 0.120735 0.153417
47  6.027514 -0.000272 -0.000237  -0.873248 -0.409173 -1.510113
48  -0.000003 11.691977 -0.000005  -1.174593 0.618144 0.894511
49  0.000003 -0.000002 0.000000  2.836925 -0.000041 1.570856
50  -0.000007 -0.000014 0.000005  2.272644 -0.000030 1.570865
51  -3.257247 -4.391182 -4.349286  -0.056137 3.082293 1.414169
52  -0.000000 0.000000 -0.000000  0.008153 -0.000259 0.000009
53  0.000000 0.000000 -0.000000  1.565115 0.043565 -0.106862
54  -0.594429 -17.194229 -4.881331  -0.560721 -0.055310 -1.533845
55  0.000001 -0.000000 -0.000000  0.000000 -0.000000 -0.000002
56  0.000032 0.000029 0.000001  -1.571902 -0.044449 -0.106509
57  8.932974 -15.498450 -17.343817  1.570796 -0.000000 0.000000
58  -16.922342 4.543208 -16.901630  1.570796 -0.000000 0.000000
59  -0.670483 1.601972 -4.109488  1.570796 -0.000000 0.000000
60  -0.004311 0.001230 -0.000371  0.006898 -0.005534 -0.284229
61  2.073871 10.506637 -3.148526  1.570796 -0.000000 0.000000
62  0.000000 0.000000 0.000000  -0.078727 -3.136056 0.284226
63  0.000000 0.000000 0.000000  1.567558 -0.001958 0.003863
64  -2.517913 -9.807840 -1.300402  1.595111 -0.035621 -0.035557
65  -0.219072 -1.337187 -0.135916  -0.000000 -0.000000 0.000000
66  -0.219078 0.187971 19.478249  -0.000000 -0.000000 0.000000
67  -0.245097 -1.134826 1.111316  -0.000000 -0.000000 0.000000
68  -0.104048 -4.495924 7.879275  -0.000000 -0.000000 0.000000
69  -0.198095 4.323280 -6.346653  -0.000000 -0.000000 0.000000
70  -0.219828 -0.876292 4.877554  -0.000000 -0.000000 0.000000
71  -2.924691 -15.188656 -1.267070  1.595111 -0.035621 -0.035557
time 4
0  0.000006 0.000000 0.000000  -1.570800 -1.391899 -1.570792
1  -4.327822 -0.845730 -0.674796  -1.544956 -1.855077 -0.198630
2  6.027523 -0.000326 0.000192  -1.021841 -1.187488 -1.220630
3  11.692113 0.000644 -0.000740  -1.361373 0.000002 -0.989264
4  11.480679 0.000704 -0.000207  2.250921 -0.715422 -0.358898
5  3.859507 -0.142879 -1.192049  -0.506078 0.129922 -1.310737
6  1.312590 0.000013 0.000009  -0.096085 0.033847 -0.713454
7  0.729355 0.000052 0.000049  -0.058937 -0.032169 0.084011
8  3.942144 0.046273 -0.431512  -0.319980 0.257216 -0.997128
9  1.539109 0.000083 0.000005  -0.015955 -0.005643 -0.587494
10  1.196332 0.000146 0.000029  0.000451 0.000028 -0.498436
11  3.883504 -0.047269 0.431382  -0.080502 0.463305 -0.588904
12  1.719571 -0.000028 0.000016  -0.026349 0.014068 -0.782305
13  1.209180 0.000092 0.000012  -0.011338 0.000815 -0.336950
14  3.879711 -0.133519 1.316288  0.157087 0.310893 -0.303880
15  1.719448 -0.000011 0.000022  -0.007035 -0.005551 -0.218755
16  1.099674 0.000048 0.000006  -0.284752 0.402102 0.098136
17  0.783130 -0.707830 1.228006  -1.314044 -0.599055 -0.478419
18  1.789820 -0.000002 -0.000018  -0.000383 0.085919 0.320241
19  1.207015 -0.000012 -0.000043  0.134533 -0.042736 0.607054
20  5.740638 0.000410 -0.000703  0.060515 0.000003 0.000071
21  11.481143 0.000347 -0.000700  0.112296 -0.133293 -0.029302
22  6.027525 -0.000329 0.000203  1.696980 -0.363003 1.577770
23  0.000002 11.692099 -0.000008  -0.713569 -0.224128 -0.586319
24  0.000001 0.000009 0.000000  -0.492302 -0.000030 1.570739
25  -0.000000 -0.000011 -0.000001  0.868957 0.000002 1.570712
26  -4.967872 -9.778694 2.073871  1.473120 1.855075 -0.198639
27  6.027508 -0.000261 -0.000226  1.684778 0.832880 -0.374014
28  11.691993 0.000242 0.000856  0.564398 0.000060 -1.672951
29  11.479041 -0.000527 0.001311  -1.022835 0.529707 1.009825
30  3.859436 -0.132789 1.193063  0.385277 -0.029729 -1.748803
31  1.312558 0.000027 -0.000001  -0.013756 -0.031530 -0.953722
32  0.729346 0.000065 -0.000026  -0.198329 0.044732 -0.857780
33  3.942045 0.050109 0.430997  0.369881 -0.091819 -1.556998
34  1.539096 0.000012 -0.000001  -0.013288 -0.027151 -1.132777
35  1.196301 0.000075 -0.000005  0.000968 -0.002436 -0.994639
36  3.883410 -0.050502 -0.431086  0.299105 -0.220225 -1.386726
37  1.719565 -0.000076 -0.000003  -0.038529 0.030961 -1.462450
38  1.209198 0.000035 0.000012  -0.001756 -0.004187 -0.773865
39  3.806437 -0.112148 -1.295329  -0.028805 0.243340 -0.117787
40  1.719412 -0.000099 -0.000034  0.356276 -0.218063 -1.380320
41  1.099673 0.000024 0.000006  0.059920 -0.008679 -0.824866
42  0.889709 -0.317102 -1.125532  0.901376 0.231327 -0.743911
43  1.789779 -0.000009 -0.000042  0.027227 0.044051 -0.011391
44  1.206996 -0.000007 0.000006  -0.019167 -0.151093 1.385408
45  5.740571 0.000056 0.000724  0.151171 -0.000014 0.000021
46  11.480751 -0.000069 0.001012  0.058943 0.122197 0.154157
47  6.027514 -0.000272 -0.000237  -0.923078 -0.382399 -1.486740
48  -0.000003 11.691975 -0.000005  -1.131138 0.574393 0.871032
49  0.000002 0.000000 0.000000  2.836925 -0.000041 1.570856
50  -0.000008 -0.000015 0.000006  2.272644 -0.000030 1.570865
51  -3.040408 -5.023486 -4.151900  -0.011695 3.046706 1.407010
52  -0.000000 0.000000 0.000000  0.008153 -0.000259 0.000009
53  -0.000000 0.000000 0.000000  1.565115 0.043565 -0.106862
54  -0.084745 -18.149075 -5.373119  -0.380546 -0.083351 -1.384042
55  -0.000001 0.000000 -0.000000  0.000000 -0.000000 -0.000002
56  0.000029 0.000029 0.000001  -1.571901 -0.044449 -0.106509
57  9.117994 -14.998683 -18.064646  1.570796 -0.000000 0.000000
58  -16.922342 4.543208 -16.901630  1.570796 -0.000000 0.000000
59  -0.670483 1.601972 -4.109488  1.570796 -0.000000 0.000000
60  -0.004311 0.001230 -0.000371  0.006898 -0.005534 -0.284229
61  2.073871 10.506637 -3.148526  1.570796 -0.000000 0.000000
62  0.000000 0.000000 0.000000  -0.078727 -3.136056 0.284226
63  0.000000 0.000000 0.000000  1.565805 -0.003015 0.004583
64  -2.506588 -10.530741 -1.224838  1.625258 -0.083831 -0.047940
65  -0.219072 -1.337187 -0.135916  0.000000 0.000000 -0.000000
66  -0.219078 0.187972 19.478252  0.000000 0.000000 -0.000000
67  -0.245097 -1.134826 1.111317  0.000000 0.000000 -0.000000
68  -0.104047 -4.495923 7.879278  0.000000 0.000000 -0.000000
69  -0.198094 4.323281 -6.346651  0.000000 0.000000 -0.000000
70  -0.219828 -0.876292 4.877555  0.000000 0.000000 -0.000000
71  -2.967666 -15.905482 -1.363886  1.625258 -0.083831 -0.047940
time 5
0  0.000006 0.000000 0.000000  -1.570800 -1.391899 -1.570792
1  -4.327822 -0.845730 -0.674796  -1.544956 -1.855077 -0.198630
2  6.027523 -0.000325 0.000192  -1.127356 -1.163025 -1.179645
3  11.692113 0.000645 -0.000740  -1.361369 0.000004 -0.933344
4  11.480180 0.000668 -0.000377  2.417383 -0.652323 -0.424000
5  3.859509 -0.142880 -1.192050  -0.486194 0.195122 -1.198000
6  1.312590 0.000012 0.000007  -0.085657 0.040083 -0.763553
7  0.729355 0.000054 0.000049  -0.064075 -0.034020 0.097117
8  3.942144 0.046272 -0.431512  -0.275778 0.279759 -0.933017
9  1.539109 0.000085 0.000005  -0.011409 -0.000118 -0.571802
10  1.196332 0.000145 0.000029  -0.000152 -0.000271 -0.518769
11  3.883506 -0.047270 0.431381  -0.038328 0.466297 -0.567555
12  1.719571 -0.000027 0.000015  -0.025812 0.029309 -0.676645
13  1.209180 0.000092 0.000012  -0.011798 0.001299 -0.340295
14  3.859664 -0.138476 1.332410  0.193857 0.254711 -0.359231
15  1.719447 -0.000011 0.000022  -0.006299 0.002202 -0.157147
16  1.099676 0.000049 0.000005  -0.269264 0.435753 0.235055
17  0.785106 -0.625719 1.252727  -1.317854 -0.610142 -0.516290
18  1.789820 -0.000003 -0.000018  -0.003261 0.083593 0.251098
19  1.207015 -0.000013 -0.000044  0.131167 -0.040691 0.593569
20  5.740637 0.000410 -0.000702  0.098227 0.000003 0.000071
21  11.481043 0.000338 -0.000733  0.142543 -0.127799 -0.033656
22  6.027525 -0.000329 0.000203  1.747269 -0.369639 1.503350
23  0.000001 11.692099 -0.000007  -0.676841 -0.201004 -0.557962
24  0.000002 0.000009 -0.000002  -0.492302 -0.000031 1.570739
25  -0.000001 -0.000011 -0.000001  0.868957 0.000002 1.570712
26  -4.967872 -9.778694 2.073871  1.473120 1.855075 -0.198639
27  6.027509 -0.000262 -0.000225  1.700013 0.868575 -0.362106
28  11.691992 0.000244 0.000854  0.564397 0.000054 -1.592398
29  11.479585 -0.000287 0.001159  -1.006886 0.451995 0.976741
30  3.859435 -0.132789 1.193062  0.385277 -0.029729 -1.748803
31  1.312559 0.000025 -0.000000  -0.013756 -0.031530 -0.953722
32  0.729346 0.000065 -0.000027  -0.198329 0.044732 -0.857780
33  3.942045 0.050108 0.430997  0.369881 -0.091819 -1.556998
34  1.539097 0.000011 -0.000001  -0.013288 -0.027151 -1.132777
35  1.196300 0.000074 -0.000005  0.000968 -0.002436 -0.994639
36  3.883411 -0.050502 -0.431087  0.299105 -0.220225 -1.386726
37  1.719565 -0.000075 -0.000003  -0.038529 0.030961 -1.462450
38  1.209197 0.000035 0.000011  -0.001756 -0.004187 -0.773865
39  3.806438 -0.112148 -1.295330  -0.028805 0.243340 -0.117787
40  1.719411 -0.000099 -0.000034  0.356276 -0.218063 -1.380320
41  1.099673 0.000025 0.000006  0.059920 -0.008679 -0.824866
42  0.889709 -0.317103 -1.125533  0.901376 0.231327 -0.743911
43  1.789779 -0.000009 -0.000042  0.027227 0.044051 -0.011391
44  1.206996 -0.000006 0.000006  -0.019167 -0.151093 1.385408
45  5.740571 0.000054 0.000723  0.151885 -0.000014 0.000021
46  11.480861 -0.000022 0.000981  0.071120 0.108806 0.151849
47  6.027514 -0.000272 -0.000237  -0.952659 -0.357612 -1.475589
48  -0.000003 11.691976 -0.000006  -1.083894 0.527874 0.843759
49  0.000003 -0.000001 0.000001  2.836925 -0.000041 1.570856
50  -0.000008 -0.000015 0.000004  2.272644 -0.000030 1.570865
51  -3.123799 -5.704919 -4.072827  0.028333 3.006853 1.451964
52  -0.000000 -0.000000 -0.000001  0.008153 -0.000259 0.000009
53  0.000000 -0.000000 -0.000000  1.565115 0.043565 -0.106862
54  0.994525 -18.710798 -6.023077  -0.285157 -0.085904 -1.293893
55  -0.000001 0.000000 0.000000  0.000000 -0.000000 -0.000002
56  0.000032 0.000029 0.000001  -1.571901 -0.044449 -0.106509
57  9.353142 -14.363515 -18.980770  1.570796 -0.000000 0.000000
58  -16.922342 4.543208 -16.901630  1.570796 -0.000000 0.000000
59  -0.670483 1.601972 -4.109488  1.570796 -0.000000 0.000000
60  -0.004311 0.001230 -0.000371  0.006898 -0.005534 -0.284229
61  2.073871 10.506637 -3.148526  1.570796 -0.000000 0.000000
62  0.000000 0.000000 0.000000  -0.078727 -3.136056 0.284226
63  0.000000 0.000000 0.000000  1.564199 -0.003989 0.004006
64  -2.494263 -11.285081 -1.307329  1.660620 -0.127796 -0.011310
65  -0.219072 -1.337187 -0.135915  -0.000000 -0.000000 0.000000
66  -0.219078 0.187972 19.478254  -0.000000 -0.000000 0.000000
67  -0.245097 -1.134826 1.111318  -0.000000 -0.000000 0.000000
68  -0.104048 -4.495923 7.879280  -0.000000 -0.000000 0.000000
69  -0.198094 4.323281 -6.346653  -0.000000 -0.000000 0.000000
70  -0.219828 -0.876292 4.877555  -0.000000 -0.000000 0.000000
71  -2.727526 -16.665781 -1.644120  1.660620 -0.127796 -0.011310
time 6
0  0.000006 0.000000 0.000000  -1.570800 -1.391899 -1.570792
1  -4.327822 -0.845730 -0.674796  -1.544956 -1.855077 -0.198630
2  6.027521 -0.000324 0.000193  -1.371828 -1.047009 -1.046303
3  11.692113 0.000644 -0.000740  -1.361376 0.000001 -1.037112
4  11.480440 0.000683 -0.000307  2.556650 -0.637617 -0.348854
5  3.859509 -0.142879 -1.192049  -0.478626 0.225857 -1.125550
6  1.312589 0.000011 0.000008  -0.074097 0.040503 -0.752190
7  0.729354 0.000055 0.000050  -0.061685 -0.033219 0.085284
8  3.942143 0.046273 -0.431512  -0.246707 0.277728 -0.906296
9  1.539112 0.000086 0.000006  -0.008070 0.000472 -0.546022
10  1.196331 0.000147 0.000028  -0.000147 -0.000261 -0.515701
11  3.883503 -0.047268 0.431382  -0.009912 0.450121 -0.562096
12  1.719572 -0.000027 0.000016  -0.022364 0.029618 -0.603383
13  1.209179 0.000091 0.000012  -0.011410 0.001665 -0.336001
14  3.859663 -0.138474 1.332410  0.222946 0.206946 -0.395248
15  1.719453 -0.000011 0.000022  -0.006000 0.002905 -0.164559
16  1.099673 0.000049 0.000005  -0.261237 0.413837 0.214510
17  0.787812 -0.551656 1.274062  -1.314694 -0.624181 -0.559595
18  1.789820 -0.000003 -0.000018  -0.005517 0.076393 0.184625
19  1.207013 -0.000013 -0.000043  0.121040 -0.034882 0.553262
20  5.740637 0.000411 -0.000703  0.138160 0.000003 0.000071
21  11.481095 0.000341 -0.000721  0.172417 -0.122852 -0.010809
22  6.027525 -0.000329 0.000203  1.915195 -0.402930 1.354277
23  0.000002 11.692098 -0.000007  -0.744613 -0.244706 -0.610002
24  0.000001 0.000008 -0.000001  -0.492302 -0.000031 1.570739
25  -0.000001 -0.000012 -0.000001  0.868957 0.000002 1.570712
26  -4.967872 -9.778694 2.073871  1.473120 1.855075 -0.198639
27  6.027509 -0.000262 -0.000224  1.709586 0.904042 -0.352505
28  11.691992 0.000242 0.000855  0.564395 0.000048 -1.507945
29  11.480223 0.000032 0.000957  -1.024368 0.323704 0.913778
30  3.859435 -0.132788 1.193063  0.385277 -0.029729 -1.748803
31  1.312559 0.000025 -0.000001  -0.013756 -0.031530 -0.953722
32  0.729345 0.000066 -0.000028  -0.198329 0.044732 -0.857780
33  3.942046 0.050109 0.430998  0.369881 -0.091819 -1.556998
34  1.539096 0.000013 -0.000001  -0.013288 -0.027151 -1.132777
35  1.196300 0.000074 -0.000005  0.000968 -0.002436 -0.994639
36  3.883410 -0.050502 -0.431086  0.299105 -0.220225 -1.386726
37  1.719565 -0.000076 -0.000003  -0.038529 0.030961 -1.462450
38  1.209199 0.000035 0.000012  -0.001756 -0.004187 -0.773865
39  3.806436 -0.112148 -1.295329  -0.028805 0.243340 -0.117787
40  1.719413 -0.000099 -0.000034  0.356276 -0.218063 -1.380320
41  1.099673 0.000026 0.000007  0.059920 -0.008679 -0.824866
42  0.889710 -0.317102 -1.125532  0.901376 0.231327 -0.743911
43  1.789779 -0.000010 -0.000042  0.027227 0.044051 -0.011391
44  1.206995 -0.000006 0.000007  -0.019167 -0.151093 1.385408
45  5.740573 0.000056 0.000725  0.145583 -0.000014 0.000021
46  11.480989 0.000043 0.000942  0.082401 0.082376 0.148135
47  6.027514 -0.000272 -0.000237  -0.983622 -0.336474 -1.462872
48  -0.000001 11.691975 -0.000007  -1.034115 0.480342 0.813272
49  0.000003 -0.000001 0.000001  2.836925 -0.000041 1.570856
50  -0.000006 -0.000015 0.000006  2.272644 -0.000030 1.570865
51  -3.194626 -6.393742 -4.073371  0.056117 2.964667 1.556777
52  -0.000000 -0.000000 -0.000000  0.008153 -0.000259 0.000009
53  -0.000000 0.000001 0.000000  1.565115 0.043565 -0.106862
54  3.157197 -18.440386 -6.734311  -0.191048 -0.043418 -1.266433
55  0.000002 0.000000 -0.000000  0.000000 -0.000000 -0.000002
56  0.000032 0.000029 0.000001  -1.571901 -0.044449 -0.106509
57  9.634426 -13.603724 -20.076641  1.570796 -0.000000 0.000000
58  -16.922342 4.543208 -16.901630  1.570796 -0.000000 0.000000
59  -0.670483 1.601972 -4.109488  1.570796 -0.000000 0.000000
60  -0.004311 0.001230 -0.000371  0.006898 -0.005534 -0.284229
61  2.073871 10.506637 -3.148526  1.570796 -0.000000 0.000000
62  0.000000 0.000000 0.000000  -0.078727 -3.136056 0.284226
63  0.000000 0.000000 0.000000  1.563027 -0.004705 0.002557
64  -2.083409 -11.993867 -1.506995  1.700178 -0.159423 0.083527
65  -0.219072 -1.337187 -0.135918  -0.000000 -0.000000 -0.000000
66  -0.219078 0.187971 19.478247  -0.000000 -0.000000 -0.000000
67  -0.245097 -1.134826 1.111315  -0.000000 -0.000000 -0.000000
68  -0.104048 -4.495924 7.879273  -0.000000 -0.000000 -0.000000
69  -0.198094 4.323281 -6.346653  -0.000000 -0.000000 -0.000000
70  -0.219828 -0.876292 4.877553  -0.000000 -0.000000 -0.000000
71  -1.763140 -17.352270 -2.059012  1.700178 -0.159423 0.083527
time 7
0  0.000006 0.000000 0.000000  -1.570800 -1.391899 -1.570792
1  -4.327822 -0.845730 -0.674796  -1.544956 -1.855077 -0.198630
2  6.027520 -0.000323 0.000194  -1.590415 -0.858353 -0.976505
3  11.692109 0.000643 -0.000739  -1.361389 -0.000009 -1.253638
4  11.479477 0.000571 -0.000839  2.674555 -0.678730 -0.044406
5  3.859508 -0.142879 -1.192049  -0.470890 0.239001 -1.057904
6  1.312590 0.000014 0.000008  -0.060007 0.038094 -0.718515
7  0.729355 0.000056 0.000048  -0.054599 -0.030659 0.049914
8  3.942143 0.046272 -0.431512  -0.219454 0.259079 -0.880534
9  1.539112 0.000085 0.000005  -0.005238 0.000827 -0.504407
10  1.196331 0.000146 0.000029  -0.000131 -0.000230 -0.506581
11  3.883503 -0.047270 0.431381  0.016063 0.403765 -0.559913
12  1.719575 -0.000027 0.000014  -0.018088 0.027794 -0.536423
13  1.209179 0.000095 0.000011  -0.010205 0.002069 -0.323178
14  3.859663 -0.138476 1.332410  0.252602 0.155499 -0.429550
15  1.719448 -0.000012 0.000022  -0.005301 0.003409 -0.185973
16  1.099673 0.000050 0.000006  -0.240642 0.362673 0.165919
17  0.791136 -0.487950 1.291385  -1.304489 -0.640205 -0.607020
18  1.789820 -0.000004 -0.000017  -0.006670 0.064833 0.123155
19  1.207016 -0.000012 -0.000043  0.104283 -0.026398 0.488195
20  5.740636 0.000410 -0.000703  0.206216 0.000003 0.000071
21  11.480906 0.000318 -0.000828  0.206842 -0.108359 0.057521
22  6.027525 -0.000329 0.000203  2.161436 -0.424894 1.145437
23  0.000003 11.692098 -0.000007  -0.880982 -0.346189 -0.710294
24  0.000003 0.000008 -0.000001  -0.492302 -0.000031 1.570739
25  -0.000001 -0.000012 -0.000001  0.868957 0.000002 1.570712
26  -4.967872 -9.778694 2.073871  1.473120 1.855075 -0.198639
27  6.027509 -0.000262 -0.000225  1.711120 0.936023 -0.347626
28  11.691993 0.000244 0.000856  0.564393 0.000042 -1.428971
29  11.479605 -0.000196 0.001101  -1.061999 0.189611 0.855563
30  3.859435 -0.132788 1.193063  0.385277 -0.029729 -1.748803
31  1.312559 0.000026 0.000000  -0.013756 -0.031530 -0.953722
32  0.729344 0.000066 -0.000026  -0.198329 0.044732 -0.857780
33  3.942045 0.050109 0.430997  0.369881 -0.091819 -1.556998
34  1.539097 0.000012 -0.000000  -0.013288 -0.027151 -1.132777
35  1.196301 0.000075 -0.000005  0.000968 -0.002436 -0.994639
36  3.883410 -0.050502 -0.431086  0.299105 -0.220225 -1.386726
37  1.719565 -0.000076 -0.000002  -0.038529 0.030961 -1.462450
38  1.209198 0.000035 0.000011  -0.001756 -0.004187 -0.773865
39  3.806437 -0.112147 -1.295329  -0.028805 0.243340 -0.117787
40  1.719412 -0.000099 -0.000034  0.356276 -0.218063 -1.380320
41  1.099673 0.000025 0.000007  0.059920 -0.008679 -0.824866
42  0.889709 -0.317102 -1.125532  0.901376 0.231327 -0.743911
43  1.789778 -0.000009 -0.000042  0.027227 0.044051 -0.011391
44  1.206996 -0.000007 0.000006  -0.019167 -0.151093 1.385408
45  5.740572 0.000056 0.000725  0.134327 -0.000014 0.000021
46  11.480865 -0.000003 0.000970  0.088407 0.052864 0.144976
47  6.027514 -0.000272 -0.000237  -1.013392 -0.321312 -1.449598
48  -0.000002 11.691975 -0.000006  -0.987171 0.437151 0.783066
49  0.000004 -0.000000 -0.000001  2.836925 -0.000041 1.570856
50  -0.000008 -0.000015 0.000005  2.272644 -0.000030 1.570865
51  -3.230945 -7.011598 -4.160378  0.063707 2.921905 1.672363
52  0.000000 0.000000 0.000000  0.008153 -0.000259 0.000009
53  -0.000000 0.000000 0.000000  1.565115 0.043565 -0.106862
54  5.705847 -17.112806 -7.476721  -0.018178 0.067873 -1.372148
55  -0.000001 0.000000 0.000000  0.000000 -0.000000 -0.000002
56  0.000028 0.000030 0.000001  -1.571901 -0.044449 -0.106509
57  9.955957 -12.735221 -21.329309  1.570796 -0.000000 0.000000
58  -16.922342 4.543208 -16.901630  1.570796 -0.000000 0.000000
59  -0.670483 1.601972 -4.109488  1.570796 -0.000000 0.000000
60  -0.004311 0.001230 -0.000371  0.006898 -0.005534 -0.284229
61  2.073871 10.506637 -3.148526  1.570796 -0.000000 0.000000
62  0.000000 0.000000 0.000000  -0.078727 -3.136056 0.284226
63  0.000000 0.000000 0.000000  1.562576 -0.004989 0.000668
64  -1.497015 -12.554906 -1.826344  1.742637 -0.170819 0.190637
65  -0.219071 -1.337187 -0.135916  -0.000000 0.000000 0.000000
66  -0.219077 0.187971 19.478251  -0.000000 0.000000 0.000000
67  -0.245097 -1.134826 1.111317  -0.000000 0.000000 0.000000
68  -0.104047 -4.495923 7.879277  -0.000000 0.000000 0.000000
69  -0.198094 4.323281 -6.346653  -0.000000 0.000000 0.000000
70  -0.219827 -0.876293 4.877553  -0.000000 0.000000 0.000000
71  -0.566751 -17.813227 -2.603789  1.742637 -0.170819 0.190637
time 8
0  0.000006 0.000000 0.000000  -1.570800 -1.391899 -1.570792
1  -4.327822 -0.845730 -0.674796  -1.544956 -1.855077 -0.198630
2  6.027519 -0.000322 0.000196  -1.722307 -0.626367 -0.989263
3  11.692107 0.000645 -0.000739  -1.361401 -0.000023 -1.504325
4  11.480426 0.000653 -0.000447  2.607851 -0.717139 0.498603
5  3.859509 -0.142879 -1.192050  -0.465183 0.235194 -0.998621
6  1.312588 0.000012 0.000008  -0.044418 0.032597 -0.665535
7  0.729354 0.000054 0.000050  -0.043609 -0.026111 -0.005878
8  3.942143 0.046274 -0.431512  -0.195853 0.225852 -0.857562
9  1.539109 0.000083 0.000005  -0.003019 0.000913 -0.449901
10  1.196332 0.000144 0.000030  -0.000105 -0.000182 -0.492234
11  3.883506 -0.047268 0.431380  0.038398 0.331210 -0.561832
12  1.719572 -0.000029 0.000014  -0.013422 0.024028 -0.478702
13  1.209180 0.000088 0.000012  -0.008287 0.002460 -0.302981
14  3.859663 -0.138475 1.332409  0.281446 0.102974 -0.460847
15  1.719449 -0.000011 0.000022  -0.004265 0.003731 -0.219497
16  1.099676 0.000049 0.000006  -0.205341 0.287315 0.092009
17  0.794809 -0.436594 1.304315  -1.288302 -0.656694 -0.655896
18  1.789819 -0.000002 -0.000018  -0.006505 0.050214 0.069326
19  1.207015 -0.000013 -0.000044  0.082145 -0.017177 0.404864
20  5.740637 0.000410 -0.000702  0.282225 0.000003 0.000071
21  11.481097 0.000337 -0.000748  0.219385 -0.073944 0.156481
22  6.027525 -0.000329 0.000203  2.437768 -0.437568 0.926727
23  0.000003 11.692098 -0.000006  -1.032030 -0.478357 -0.811880
24  0.000002 0.000008 -0.000002  -0.492302 -0.000030 1.570738
25  -0.000000 -0.000011 -0.000000  0.868957 0.000002 1.570712
26  -4.967872 -9.778694 2.073871  1.473120 1.855075 -0.198639
27  6.027509 -0.000262 -0.000225  1.711585 0.951609 -0.345419
28  11.691992 0.000245 0.000856  0.564391 0.000038 -1.373188
29  11.479906 -0.000065 0.001017  -1.170134 0.077678 0.814057
30  3.859435 -0.132789 1.193063  0.385277 -0.029729 -1.748803
31  1.312559 0.000026 0.000000  -0.013756 -0.031530 -0.953722
32  0.729345 0.000065 -0.000027  -0.198329 0.044732 -0.857780
33  3.942046 0.050109 0.430997  0.369881 -0.091819 -1.556998
34  1.539096 0.000012 -0.000000  -0.013288 -0.027151 -1.132777
35  1.196300 0.000075 -0.000004  0.000968 -0.002436 -0.994639
36  3.883410 -0.050502 -0.431086  0.299105 -0.220225 -1.386726
37  1.719565 -0.000078 -0.000002  -0.038529 0.030961 -1.462450
38  1.209195 0.000036 0.000011  -0.001756 -0.004187 -0.773865
39  3.806437 -0.112148 -1.295329  -0.028805 0.243340 -0.117787
40  1.719412 -0.000098 -0.000034  0.356276 -0.218063 -1.380320
41  1.099673 0.000026 0.000007  0.059920 -0.008679 -0.824866
42  0.889710 -0.317103 -1.125532  0.901376 0.231327 -0.743910
43  1.789778 -0.000010 -0.000042  0.027227 0.044051 -0.011391
44  1.206996 -0.000007 0.000007  -0.019167 -0.151093 1.385408
45  5.740571 0.000056 0.000724  0.108853 -0.000014 0.000021
46  11.480926 0.000023 0.000952  0.077313 0.022559 0.144221
47  6.027514 -0.000272 -0.000237  -1.027882 -0.313997 -1.443242
48  -0.000001 11.691977 -0.000005  -0.953708 0.407437 0.760764
49  0.000004 -0.000002 -0.000000  2.836925 -0.000041 1.570856
50  -0.000007 -0.000014 0.000006  2.272644 -0.000030 1.570865
51  -3.356957 -7.436888 -4.307881  -0.005803 2.886060 1.767274
52  -0.000000 0.000000 -0.000000  0.008153 -0.000259 0.000009
53  -0.000000 -0.000000 0.000000  1.565115 0.043565 -0.106862
54  7.654521 -14.910319 -8.676908  0.118638 0.274807 -1.624654
55  -0.000003 0.000001 0.000000  0.000000 -0.000000 -0.000002
56  0.000027 0.000030 0.000001  -1.571902 -0.044449 -0.106509
57  10.309895 -11.779185 -22.708231  1.570796 -0.000000 0.000000
58  -16.922342 4.543208 -16.901630  1.570796 -0.000000 0.000000
59  -0.670483 1.601972 -4.109488  1.570796 -0.000000 0.000000
60  -0.004311 0.001230 -0.000371  0.006898 -0.005534 -0.284229
61  2.073871 10.506637 -3.148526  1.570796 -0.000000 0.000000
62  0.000000 0.000000 0.000000  -0.078727 -3.136056 0.284226
63  0.000000 0.000000 0.000000  1.565001 -0.001502 -0.001240
64  -0.857402 -12.800094 -2.265646  1.785072 -0.106924 0.296040
65  -0.219072 -1.337187 -0.135917  -0.000000 -0.000000 0.000000
66  -0.219078 0.187972 19.478249  -0.000000 -0.000000 0.000000
67  -0.245097 -1.134826 1.111317  -0.000000 -0.000000 0.000000
68  -0.104047 -4.495924 7.879274  -0.000000 -0.000000 0.000000
69  -0.198094 4.323280 -6.346655  -0.000000 -0.000000 0.000000
70  -0.219827 -0.876293 4.877553  -0.000000 -0.000000 0.000000
71  0.585938 -17.903652 -3.260744  1.785071 -0.106924 0.296040
time 9
0  0.000006 0.000000 0.000000  -1.570800 -1.391899 -1.570792
1  -4.327822 -0.845730 -0.674796  -1.544956 -1.855077 -0.198630
2  6.027519 -0.000321 0.000199  -1.749096 -0.361038 -1.034425
3  11.692106 0.000644 -0.000740  -1.361408 -0.000035 -1.704103
4  11.478965 0.000481 -0.001260  2.505558 -0.577478 0.937337
5  3.859509 -0.142879 -1.192048  -0.462754 0.218228 -0.950932
6  1.312589 0.000010 0.000008  -0.029145 0.024514 -0.601054
7  0.729354 0.000053 0.000048  -0.030567 -0.019741 -0.073900
8  3.942143 0.046274 -0.431511  -0.177364 0.183453 -0.838944
9  1.539111 0.000083 0.000007  -0.001479 0.000772 -0.389129
10  1.196333 0.000148 0.000031  -0.000073 -0.000124 -0.474759
11  3.883504 -0.047268 0.431382  0.056436 0.242918 -0.567348
12  1.719574 -0.000027 0.000016  -0.008903 0.018987 -0.432854
13  1.209180 0.000094 0.000012  -0.005937 0.002775 -0.278370
14  3.859664 -0.138474 1.332411  0.307485 0.053463 -0.487519
15  1.719452 -0.000008 0.000021  -0.003032 0.003912 -0.260291
16  1.099675 0.000048 0.000005  -0.156000 0.199722 0.000734
17  0.798448 -0.398520 1.312953  -1.268631 -0.671870 -0.702281
18  1.789819 -0.000002 -0.000018  -0.005209 0.034565 0.025460
19  1.207016 -0.000010 -0.000043  0.057446 -0.009321 0.314563
20  5.740636 0.000409 -0.000705  0.308708 0.000003 0.000071
21  11.480804 0.000305 -0.000915  0.211989 -0.016586 0.223926
22  6.027525 -0.000329 0.000203  2.730497 -0.486740 0.737445
23  0.000001 11.692099 -0.000007  -1.149456 -0.592689 -0.881035
24  0.000000 0.000007 0.000001  -0.492302 -0.000031 1.570739
25  -0.000001 -0.000011 -0.000000  0.868957 0.000002 1.570712
26  -4.967872 -9.778694 2.073871  1.473120 1.855075 -0.198639
27  6.027509 -0.000262 -0.000225  1.716053 0.957370 -0.341969
28  11.691992 0.000246 0.000857  0.564390 0.000035 -1.331659
29  11.480162 0.000052 0.000942  -1.368523 -0.008558 0.782926
30  3.859435 -0.132789 1.193062  0.385277 -0.029729 -1.748803
31  1.312558 0.000026 0.000000  -0.013756 -0.031530 -0.953722
32  0.729346 0.000065 -0.000027  -0.198329 0.044732 -0.857780
33  3.942046 0.050108 0.430996  0.369881 -0.091819 -1.556998
34  1.539096 0.000012 -0.000000  -0.013288 -0.027151 -1.132777
35  1.196301 0.000074 -0.000005  0.000968 -0.002436 -0.994639
36  3.883411 -0.050502 -0.431086  0.299105 -0.220225 -1.386726
37  1.719565 -0.000076 -0.000003  -0.038529 0.030961 -1.462450
38  1.209197 0.000035 0.000012  -0.001756 -0.004187 -0.773865
39  3.806438 -0.112148 -1.295329  -0.028805 0.243340 -0.117787
40  1.719410 -0.000099 -0.000034  0.356276 -0.218063 -1.380320
41  1.099673 0.000026 0.000006  0.059920 -0.008679 -0.824866
42  0.889709 -0.317103 -1.125532  0.901376 0.231327 -0.743910
43  1.789778 -0.000009 -0.000042  0.027227 0.044051 -0.011391
44  1.206996 -0.000007 0.000006  -0.019168 -0.151093 1.385408
45  5.740573 0.000055 0.000724  0.064962 -0.000014 0.000021
46  11.480977 0.000046 0.000938  0.045652 -0.008718 0.143600
47  6.027514 -0.000272 -0.000237  -1.032040 -0.309079 -1.442162
48  -0.000001 11.691975 -0.000006  -0.928603 0.385768 0.743648
49  0.000003 -0.000001 -0.000000  2.836925 -0.000041 1.570856
50  -0.000007 -0.000016 0.000005  2.272644 -0.000030 1.570865
51  -3.568773 -7.744972 -4.451311  2.970061 0.280647 -1.305020
52  -0.000000 -0.000000 0.000001  0.008153 -0.000259 0.000009
53  -0.000000 0.000000 -0.000000  1.565115 0.043565 -0.106862
54  8.347582 -12.495337 -10.746213  0.105475 0.444254 -1.963966
55  -0.000000 -0.000001 -0.000000  0.000000 -0.000000 -0.000002
56  0.000029 0.000027 -0.000000  -1.571901 -0.044449 -0.106509
57  10.686610 -10.761622 -24.175894  1.570796 -0.000000 0.000000
58  -16.922342 4.543208 -16.901630  1.570796 -0.000000 0.000000
59  -0.670483 1.601972 -4.109488  1.570796 -0.000000 0.000000
60  -0.004311 0.001230 -0.000371  0.006898 -0.005534 -0.284229
61  2.073871 10.506637 -3.148526  1.570796 -0.000000 0.000000
62  0.000000 0.000000 0.000000  -0.078727 -3.136056 0.284226
63  0.000000 0.000000 0.000000  1.570324 0.004987 -0.002700
64  -0.183909 -12.751968 -2.821836  1.829193 0.048712 0.408048
65  -0.219072 -1.337187 -0.135918  -0.000000 0.000000 -0.000000
66  -0.219078 0.187972 19.478251  -0.000000 0.000000 -0.000000
67  -0.245097 -1.134826 1.111315  -0.000000 0.000000 -0.000000
68  -0.104048 -4.495924 7.879277  -0.000000 0.000000 -0.000000
69  -0.198093 4.323281 -6.346653  -0.000000 0.000000 -0.000000
70  -0.219828 -0.876292 4.877553  -0.000000 0.000000 -0.000000
71  1.650875 -17.683084 -4.020770  1.829193 0.048712 0.408048
time 10
0  0.000006 0.000000 0.000000  -1.570800 -1.391899 -1.570792
1  -4.327822 -0.845730 -0.674796  -1.544956 -1.855077 -0.198630
2  6.027518 -0.000320 0.000202  -1.625079 -0.135997 -1.014709
3  11.692106 0.000645 -0.000739  -1.361410 -0.000040 -1.767457
4  11.480209 0.000616 -0.000621  2.529657 -0.337951 0.923701
5  3.859508 -0.142879 -1.192050  -0.463316 0.194813 -0.916465
6  1.312590 0.000011 0.000007  -0.016211 0.015381 -0.536736
7  0.729356 0.000055 0.000050  -0.017989 -0.012501 -0.141826
8  3.942142 0.046273 -0.431512  -0.164500 0.140076 -0.825442
9  1.539109 0.000086 0.000003  -0.000576 0.000511 -0.331425
10  1.196332 0.000144 0.000027  -0.000040 -0.000067 -0.457283
11  3.883504 -0.047268 0.431380  0.070006 0.154776 -0.574683
12  1.719573 -0.000026 0.000013  -0.005046 0.013722 -0.400114
13  1.209179 0.000092 0.000011  -0.003579 0.002974 -0.253758
14  3.859662 -0.138475 1.332409  0.328633 0.011611 -0.508125
15  1.719448 -0.000011 0.000022  -0.001813 0.004005 -0.301095
16  1.099675 0.000048 0.000006  -0.099400 0.116803 -0.093697
17  0.801637 -0.373049 1.317947  -1.248979 -0.684239 -0.741862
18  1.789819 -0.000003 -0.000020  -0.003321 0.020167 -0.007180
19  1.207016 -0.000011 -0.000044  0.034048 -0.004065 0.230848
20  5.740636 0.000409 -0.000702  0.257953 0.000003 0.000070
21  11.481054 0.000333 -0.000785  0.202392 0.031156 0.206436
22  6.027525 -0.000329 0.000203  2.971736 -0.640606 0.658172
23  0.000003 11.692098 -0.000006  -1.186606 -0.630314 -0.900611
24  0.000002 0.000009 0.000001  -0.492302 -0.000031 1.570739
25  0.000000 -0.000012 -0.000000  0.868957 0.000002 1.570712
26  -4.967872 -9.778694 2.073871  1.473120 1.855075 -0.198639
27  6.027510 -0.000262 -0.000225  1.720294 0.978114 -0.336684
28  11.691991 0.000245 0.000855  0.564387 0.000032 -1.272671
29  11.480571 0.000245 0.000822  -1.610014 -0.075554 0.752258
30  3.859436 -0.132789 1.193063  0.385277 -0.029729 -1.748804
31  1.312559 0.000027 -0.000000  -0.013756 -0.031530 -0.953722
32  0.729346 0.000065 -0.000027  -0.198329 0.044732 -0.857780
33  3.942046 0.050108 0.430998  0.369881 -0.091819 -1.556998
34  1.539097 0.000013 -0.000001  -0.013288 -0.027151 -1.132777
35  1.196300 0.000075 -0.000006  0.000968 -0.002436 -0.994639
36  3.883411 -0.050502 -0.431086  0.299105 -0.220225 -1.386726
37  1.719565 -0.000076 -0.000003  -0.038529 0.030961 -1.462450
38  1.209198 0.000035 0.000012  -0.001756 -0.004187 -0.773865
39  3.806438 -0.112148 -1.295329  -0.028805 0.243340 -0.117787
40  1.719413 -0.000099 -0.000034  0.356276 -0.218063 -1.380320
41  1.099673 0.000023 0.000007  0.059920 -0.008679 -0.824866
42  0.889709 -0.317103 -1.125532  0.901376 0.231327 -0.743911
43  1.789779 -0.000007 -0.000043  0.027227 0.044051 -0.011391
44  1.206996 -0.000007 0.000006  -0.019167 -0.151093 1.385408
45  5.740571 0.000056 0.000725  0.011933 -0.000014 0.000021
46  11.481058 0.000085 0.000914  0.003270 -0.038215 0.139888
47  6.027514 -0.000272 -0.000237  -1.050260 -0.297511 -1.434929
48  -0.000003 11.691975 -0.000005  -0.892628 0.355688 0.718594
49  0.000004 -0.000001 -0.000000  2.836925 -0.000041 1.570856
50  -0.000007 -0.000016 0.000006  2.272644 -0.000030 1.570865
51  -3.675026 -8.161948 -4.546535  2.757351 0.299607 -1.253885
52  -0.000000 -0.000000 -0.000001  0.008153 -0.000259 0.000009
53  0.000001 -0.000000 0.000001  1.565115 0.043565 -0.106862
54  7.712769 -10.831656 -13.247141  0.009602 0.441534 -2.213946
55  -0.000000 0.000001 0.000000  0.000000 -0.000000 -0.000002
56  0.000029 0.000029 0.000002  -1.571901 -0.044449 -0.106509
57  11.075091 -9.712276 -25.689398  1.570796 -0.000000 0.000000
58  -16.922342 4.543208 -16.901630  1.570796 -0.000000 0.000000
59  -0.670483 1.601972 -4.109488  1.570796 -0.000000 0.000000
60  -0.004311 0.001230 -0.000371  0.006898 -0.005534 -0.284229
61  2.073871 10.506637 -3.148526  1.570796 -0.000000 0.000000
62  0.000000 0.000000 0.000000  -0.078727 -3.136056 0.284226
63  0.000000 0.000000 0.000000  1.575647 0.008488 -0.003261
64  0.516351 -12.688816 -3.487142  1.884147 0.246053 0.528359
65  -0.219072 -1.337187 -0.135916  0.000000 -0.000000 0.000000
66  -0.219079 0.187971 19.478252  0.000000 -0.000000 0.000000
67  -0.245097 -1.134826 1.111318  0.000000 -0.000000 0.000000
68  -0.104047 -4.495923 7.879276  0.000000 -0.000000 0.000000
69  -0.198095 4.323282 -6.346652  0.000000 -0.000000 0.000000
70  -0.219827 -0.876292 4.877555  0.000000 -0.000000 0.000000
71  2.633418 -17.450834 -4.887492  1.884147 0.246053 0.528359
time 11
0  0.000006 0.000000 0.000000  -1.570800 -1.391899 -1.570792
1  -4.327822 -0.845730 -0.674796  -1.544956 -1.855077 -0.198630
2  6.027518 -0.000321 0.000202  -1.371096 -0.077651 -0.918436
3  11.692106 0.000644 -0.000739  -1.361408 -0.000035 -1.694082
4  11.479033 0.000487 -0.001226  2.469111 -0.122810 0.582323
5  3.859510 -0.142880 -1.192050  -0.465402 0.172463 -0.894677
6  1.312590 0.000014 0.000009  -0.006952 0.007272 -0.484141
7  0.729355 0.000055 0.000049  -0.008071 -0.005944 -0.197398
8  3.942145 0.046273 -0.431512  -0.156716 0.104026 -0.816864
9  1.539110 0.000084 0.000004  -0.000156 0.000254 -0.285634
10  1.196332 0.000143 0.000030  -0.000013 -0.000020 -0.442936
11  3.883507 -0.047269 0.431380  0.079210 0.082685 -0.581593
12  1.719573 -0.000026 0.000015  -0.002207 0.009306 -0.379720
13  1.209179 0.000093 0.000012  -0.001641 0.003064 -0.233559
14  3.859664 -0.138475 1.332409  0.343517 -0.019027 -0.522021
15  1.719448 -0.000013 0.000023  -0.000815 0.004050 -0.334603
16  1.099675 0.000049 0.000005  -0.047576 0.053024 -0.174087
17  0.804052 -0.358094 1.320319  -1.232766 -0.693005 -0.771263
18  1.789820 -0.000003 -0.000017  -0.001491 0.008915 -0.028721
19  1.207016 -0.000013 -0.000044  0.015482 -0.001328 0.165261
20  5.740637 0.000410 -0.000702  0.189221 0.000003 0.000071
21  11.480822 0.000306 -0.000906  0.180149 0.042073 0.123708
22  6.027525 -0.000329 0.000203  3.016937 -0.897750 0.749978
23  0.000002 11.692097 -0.000006  -1.143585 -0.586794 -0.877831
24  0.000003 0.000009 -0.000001  -0.492302 -0.000031 1.570739
25  -0.000000 -0.000011 -0.000000  0.868957 0.000002 1.570712
26  -4.967872 -9.778694 2.073871  1.473120 1.855075 -0.198639
27  6.027510 -0.000263 -0.000224  1.713113 1.015908 -0.336673
28  11.691993 0.000245 0.000857  0.564384 0.000027 -1.200974
29  11.480112 0.000085 0.000923  -1.842904 -0.122595 0.725582
30  3.859437 -0.132788 1.193063  0.385277 -0.029729 -1.748803
31  1.312558 0.000027 0.000000  -0.013756 -0.031530 -0.953722
32  0.729344 0.000066 -0.000028  -0.198329 0.044732 -0.857780
33  3.942045 0.050109 0.430997  0.369881 -0.091819 -1.556998
34  1.539096 0.000011 -0.000001  -0.013288 -0.027151 -1.132777
35  1.196299 0.000074 -0.000006  0.000968 -0.002436 -0.994639
36  3.883411 -0.050502 -0.431086  0.299105 -0.220225 -1.386726
37  1.719565 -0.000076 -0.000003  -0.038529 0.030961 -1.462450
38  1.209198 0.000035 0.000012  -0.001756 -0.004187 -0.773865
39  3.806439 -0.112147 -1.295328  -0.028805 0.243340 -0.117787
40  1.719410 -0.000100 -0.000034  0.356276 -0.218063 -1.380320
41  1.099674 0.000025 0.000007  0.059920 -0.008679 -0.824866
42  0.889710 -0.317103 -1.125532  0.901376 0.231327 -0.743910
43  1.789779 -0.000008 -0.000043  0.027227 0.044051 -0.011391
44  1.206996 -0.000006 0.000006  -0.019167 -0.151093 1.385408
45  5.740571 0.000056 0.000724  -0.038531 -0.000014 0.000021
46  11.480967 0.000053 0.000934  -0.039422 -0.061870 0.134218
47  6.027514 -0.000272 -0.000237  -1.087115 -0.283485 -1.418329
48  -0.000002 11.691975 -0.000007  -0.848350 0.320296 0.686981
49  0.000004 -0.000002 -0.000000  2.836925 -0.000041 1.570856
50  -0.000007 -0.000015 0.000005  2.272644 -0.000030 1.570865
51  -3.534021 -8.643398 -4.634233  2.546398 0.318299 -1.215303
52  -0.000001 0.000000 0.000000  0.008153 -0.000259 0.000009
53  0.000001 0.000000 0.000001  1.565115 0.043565 -0.106862
54  6.291752 -10.319715 -15.426458  -0.094122 0.316559 -2.256581
55  0.000000 -0.000001 -0.000001  0.000000 -0.000000 -0.000002
56  0.000030 0.000029 0.000000  -1.571901 -0.044449 -0.106509
57  11.463573 -8.662930 -27.202902  1.570796 -0.000000 0.000000
58  -16.922342 4.543208 -16.901630  1.570796 -0.000000 0.000000
59  -0.670483 1.601972 -4.109488  1.570796 -0.000000 0.000000
60  -0.004311 0.001230 -0.000371  0.006898 -0.005534 -0.284229
61  2.073871 10.506637 -3.148526  1.570796 -0.000000 0.000000
62  0.000000 0.000000 0.000000  -0.078727 -3.136056 0.284226
63  0.000000 0.000000 0.000000  1.578074 0.006701 -0.002602
64  1.240433 -12.672977 -4.247488  1.957116 0.435820 0.655822
65  -0.219072 -1.337187 -0.135917  -0.000000 -0.000000 0.000000
66  -0.219077 0.187971 19.478249  -0.000000 -0.000000 0.000000
67  -0.245097 -1.134826 1.111315  -0.000000 -0.000000 0.000000
68  -0.104047 -4.495923 7.879274  -0.000000 -0.000000 0.000000
69  -0.198094 4.323281 -6.346653  -0.000000 -0.000000 0.000000
70  -0.219827 -0.876292 4.877553  -0.000000 -0.000000 0.000000
71  3.544457 -17.280800 -5.853482  1.957116 0.435820 0.655822
time 12
0  0.000006 0.000000 0.000000  -1.570800 -1.391899 -1.570792
1  -4.327822 -0.845730 -0.674796  -1.544956 -1.855077 -0.198630
2  6.027517 -0.000321 0.000202  -1.175104 -0.086357 -0.872344
3  11.692109 0.000643 -0.000740  -1.361405 -0.000030 -1.619151
4  11.479543 0.000542 -0.000968  2.345910 -0.013281 0.250301
5  3.859508 -0.142880 -1.192046  -0.467379 0.156996 -0.883468
6  1.312590 0.000011 0.000009  -0.001673 0.001886 -0.450862
7  0.729355 0.000050 0.000047  -0.001984 -0.001510 -0.232565
8  3.942143 0.046273 -0.431512  -0.152874 0.080967 -0.812399
9  1.539111 0.000085 0.000003  -0.000023 0.000080 -0.257218
10  1.196332 0.000145 0.000029  0.000005 0.000009 -0.433824
11  3.883505 -0.047269 0.431383  0.084338 0.037086 -0.586301
12  1.719573 -0.000028 0.000015  -0.000526 0.006472 -0.369417
13  1.209179 0.000091 0.000010  -0.000409 0.003089 -0.220733
14  3.859662 -0.138475 1.332409  0.351904 -0.037008 -0.529568
15  1.719449 -0.000012 0.000022  -0.000183 0.004067 -0.355890
16  1.099675 0.000048 0.000007  -0.012240 0.014896 -0.226559
17  0.805515 -0.350947 1.321134  -1.222366 -0.698056 -0.788825
18  1.789818 -0.000003 -0.000018  -0.000229 0.001933 -0.040385
19  1.207015 -0.000010 -0.000044  0.003902 -0.000245 0.124593
20  5.740637 0.000412 -0.000699  0.152070 0.000003 0.000071
21  11.480922 0.000316 -0.000851  0.155617 0.036633 0.050112
22  6.027525 -0.000329 0.000203  -0.187539 -2.051272 -2.276456
23  0.000001 11.692101 -0.000008  -1.099665 -0.543223 -0.852967
24  0.000002 0.000009 -0.000001  -0.492302 -0.000031 1.570739
25  -0.000001 -0.000011 -0.000001  0.868957 0.000002 1.570712
26  -4.967872 -9.778694 2.073871  1.473120 1.855075 -0.198639
27  6.027510 -0.000262 -0.000224  1.673051 1.024131 -0.362499
28  11.691991 0.000245 0.000856  0.564385 0.000027 -1.203601
29  11.480098 0.000078 0.000927  -2.007944 -0.141190 0.731907
30  3.859435 -0.132789 1.193062  0.385277 -0.029729 -1.748803
31  1.312559 0.000027 -0.000000  -0.013756 -0.031530 -0.953722
32  0.729344 0.000065 -0.000026  -0.198329 0.044732 -0.857780
33  3.942044 0.050108 0.430997  0.369881 -0.091819 -1.556998
34  1.539096 0.000012 -0.000001  -0.013288 -0.027151 -1.132777
35  1.196299 0.000075 -0.000005  0.000968 -0.002436 -0.994639
36  3.883410 -0.050503 -0.431086  0.299105 -0.220225 -1.386726
37  1.719565 -0.000076 -0.000003  -0.038529 0.030961 -1.462450
38  1.209200 0.000036 0.000012  -0.001756 -0.004187 -0.773865
39  3.806438 -0.112148 -1.295330  -0.028805 0.243340 -0.117787
40  1.719411 -0.000099 -0.000034  0.356276 -0.218063 -1.380320
41  1.099672 0.000027 0.000006  0.059920 -0.008679 -0.824866
42  0.889708 -0.317103 -1.125532  0.901376 0.231327 -0.743910
43  1.789779 -0.000009 -0.000043  0.027227 0.044051 -0.011391
44  1.206996 -0.000006 0.000006  -0.019167 -0.151093 1.385408
45  5.740572 0.000055 0.000724  -0.072283 -0.000014 0.000021
46  11.480964 0.000052 0.000935  -0.070212 -0.075733 0.134386
47  6.027514 -0.000272 -0.000237  -1.105269 -0.297790 -1.404813
48  -0.000002 11.691975 -0.000006  -0.849984 0.321569 0.688162
49  0.000004 -0.000001 -0.000001  2.836925 -0.000041 1.570856
50  -0.000007 -0.000016 0.000005  2.272644 -0.000030 1.570865
51  -3.140612 -8.619555 -4.846136  2.384419 0.342005 -1.178089
52  0.000000 -0.000000 -0.000001  0.008153 -0.000259 0.000009
53  -0.000000 -0.000000 -0.000000  1.565115 0.043565 -0.106862
54  5.079489 -9.875027 -16.957355  -0.196826 0.197467 -2.192924
55  -0.000000 0.000000 0.000001  0.000000 -0.000000 -0.000002
56  0.000029 0.000029 0.000003  -1.571901 -0.044449 -0.106509
57  11.840288 -7.645370 -28.670563  1.570796 -0.000000 0.000000
58  -16.922342 4.543208 -16.901630  1.570796 -0.000000 0.000000
59  -0.670483 1.601972 -4.109488  1.570796 -0.000000 0.000000
60  -0.004311 0.001230 -0.000371  0.006898 -0.005534 -0.284229
61  2.073871 10.506637 -3.148526  1.570796 -0.000000 0.000000
62  0.000000 0.000000 0.000000  -0.078727 -3.136056 0.284226
63  0.000000 0.000000 0.000000  1.575731 0.002759 -0.001178
64  1.987479 -12.201462 -5.080904  2.041984 0.571939 0.786744
65  -0.219072 -1.337187 -0.135917  -0.000000 -0.000000 0.000000
66  -0.219080 0.187971 19.478249  -0.000000 -0.000000 0.000000
67  -0.245098 -1.134826 1.111317  -0.000000 -0.000000 0.000000
68  -0.104049 -4.495922 7.879276  -0.000000 -0.000000 0.000000
69  -0.198094 4.323280 -6.346654  -0.000000 -0.000000 0.000000
70  -0.219828 -0.876292 4.877553  -0.000000 -0.000000 0.000000
71  4.439404 -16.653767 -6.893310  2.041984 0.571939 0.786744
time 13
0  0.000006 0.000000 0.000000  -1.570800 -1.391899 -1.570792
1  -4.327822 -0.845730 -0.674796  -1.544956 -1.855077 -0.198630
2  6.027517 -0.000322 0.000202  -1.083043 -0.034813 -0.844207
3  11.692107 0.000644 -0.000739  -1.361405 -0.000029 -1.608210
4  11.479624 0.000551 -0.000925  2.282469 0.033029 0.077372
5  3.859509 -0.142879 -1.192049  -0.468164 0.151540 -0.880272
6  1.312590 0.000011 0.000009  -0.000026 0.000045 -0.439738
7  0.729356 0.000053 0.000050  0.000017 0.000021 -0.244318
8  3.942143 0.046274 -0.431511  -0.151810 0.073212 -0.811101
9  1.539111 0.000083 0.000003  -0.000007 0.000021 -0.247841
10  1.196333 0.000145 0.000031  0.000011 0.000019 -0.430771
11  3.883504 -0.047268 0.431382  0.085898 0.021851 -0.587925
12  1.719573 -0.000026 0.000014  0.000015 0.005519 -0.366533
13  1.209179 0.000090 0.000012  0.000004 0.003092 -0.216437
14  3.859662 -0.138475 1.332410  0.354468 -0.042725 -0.531804
15  1.719449 -0.000013 0.000024  0.000029 0.004070 -0.363021
16  1.099675 0.000050 0.000007  0.000003 0.002579 -0.244381
17  0.805993 -0.349049 1.321254  -1.218848 -0.699660 -0.794498
18  1.789820 -0.000003 -0.000018  0.000209 -0.000390 -0.043881
19  1.207016 -0.000013 -0.000043  0.000046 0.000010 0.111077
20  5.740637 0.000410 -0.000703  0.140160 0.000003 0.000070
21  11.480938 0.000316 -0.000848  0.144458 0.034599 0.012870
22  6.027525 -0.000329 0.000203  -0.093127 -1.953501 -2.328607
23  0.000002 11.692100 -0.000007  -1.093243 -0.536940 -0.849206
24  0.000002 0.000009 -0.000001  -0.492302 -0.000030 1.570739
25  -0.000000 -0.000010 -0.000001  0.868957 0.000002 1.570712
26  -4.967872 -9.778694 2.073871  1.473120 1.855075 -0.198639
27  6.027510 -0.000262 -0.000225  1.595619 1.003193 -0.414526
28  11.691991 0.000245 0.000856  0.564387 0.000031 -1.260872
29  11.480659 0.000284 0.000795  -2.067455 -0.142552 0.753390
30  3.859435 -0.132789 1.193062  0.385277 -0.029729 -1.748803
31  1.312558 0.000025 -0.000001  -0.013756 -0.031530 -0.953722
32  0.729346 0.000066 -0.000028  -0.198329 0.044732 -0.857780
33  3.942044 0.050108 0.430997  0.369881 -0.091819 -1.556998
34  1.539096 0.000012 -0.000001  -0.013288 -0.027151 -1.132777
35  1.196300 0.000074 -0.000005  0.000968 -0.002436 -0.994639
36  3.883410 -0.050503 -0.431086  0.299105 -0.220225 -1.386726
37  1.719565 -0.000076 -0.000003  -0.038529 0.030961 -1.462450
38  1.209197 0.000036 0.000011  -0.001756 -0.004187 -0.773865
39  3.806437 -0.112149 -1.295329  -0.028805 0.243340 -0.117787
40  1.719413 -0.000099 -0.000033  0.356276 -0.218063 -1.380320
41  1.099673 0.000025 0.000006  0.059920 -0.008679 -0.824866
42  0.889710 -0.317103 -1.125532  0.901376 0.231327 -0.743911
43  1.789778 -0.000009 -0.000042  0.027227 0.044051 -0.011391
44  1.206996 -0.000007 0.000007  -0.019167 -0.151093 1.385408
45  5.740571 0.000056 0.000723  -0.082934 -0.000014 0.000021
46  11.481075 0.000093 0.000907  -0.081124 -0.080407 0.138258
47  6.027514 -0.000272 -0.000237  -1.109599 -0.343580 -1.389739
48  -0.000000 11.691975 -0.000006  -0.885385 0.349773 0.713479
49  0.000004 -0.000001 -0.000000  2.836925 -0.000041 1.570856
50  -0.000007 -0.000016 0.000005  2.272644 -0.000030 1.570865
51  -2.570870 -8.203724 -5.341682  2.317193 0.373535 -1.133884
52  0.000001 0.000000 0.000000  0.008153 -0.000259 0.000009
53  -0.000000 -0.000000 -0.000000  1.565115 0.043565 -0.106862
54  4.842778 -8.886370 -18.006584  -0.258038 0.160982 -2.136084
55  0.000000 0.000000 -0.000000  0.000000 -0.000000 -0.000002
56  0.000030 0.000029 0.000004  -1.571901 -0.044449 -0.106509
57  12.194226 -6.689332 -30.049486  1.570796 -0.000000 0.000000
58  -16.922342 4.543208 -16.901630  1.570796 -0.000000 0.000000
59  -0.670483 1.601972 -4.109488  1.570796 -0.000000 0.000000
60  -0.004311 0.001230 -0.000371  0.006898 -0.005534 -0.284229
61  2.073871 10.506637 -3.148526  1.570796 -0.000000 0.000000
62  0.000000 0.000000 0.000000  -0.078727 -3.136056 0.284226
63  0.000000 0.000000 0.000000  1.571368 -0.001179 0.000256
64  2.758052 -11.429754 -5.956353  2.107929 0.616370 0.891436
65  -0.219072 -1.337187 -0.135917  -0.000000 -0.000000 0.000000
66  -0.219078 0.187972 19.478249  -0.000000 -0.000000 0.000000
67  -0.245098 -1.134825 1.111318  -0.000000 -0.000000 0.000000
68  -0.104049 -4.495922 7.879276  -0.000000 -0.000000 0.000000
69  -0.198095 4.323281 -6.346653  -0.000000 -0.000000 0.000000
70  -0.219828 -0.876292 4.877554  -0.000000 -0.000000 0.000000
71  5.371319 -15.703770 -7.962193  2.107929 0.616370 0.891436
time 14
0  0.000006 0.000000 0.000000  -1.570800 -1.391899 -1.570792
1  -4.327822 -0.845730 -0.674796  -1.544956 -1.855077 -0.198630
2  6.027517 -0.000322 0.000203  -1.044229 0.059857 -0.804740
3  11.692106 0.000644 -0.000740  -1.361406 -0.000030 -1.625558
4  11.479500 0.000537 -0.000996  2.261676 0.062747 -0.008496
5  3.859509 -0.142880 -1.192050  -0.468164 0.151540 -0.880272
6  1.312590 0.000011 0.000009  -0.000026 0.000045 -0.439738
7  0.729355 0.000054 0.000049  0.000017 0.000021 -0.244318
8  3.942143 0.046272 -0.431512  -0.151810 0.073212 -0.811101
9  1.539111 0.000085 0.000004  -0.000007 0.000021 -0.247841
10  1.196332 0.000146 0.000029  0.000011 0.000019 -0.430771
11  3.883505 -0.047270 0.431384  0.085898 0.021851 -0.587925
12  1.719573 -0.000026 0.000017  0.000015 0.005519 -0.366533
13  1.209179 0.000091 0.000012  0.000004 0.003092 -0.216437
14  3.859663 -0.138476 1.332411  0.354468 -0.042725 -0.531804
15  1.719448 -0.000013 0.000023  0.000029 0.004070 -0.363021
16  1.099675 0.000050 0.000007  0.000003 0.002579 -0.244381
17  0.805993 -0.349051 1.321255  -1.218848 -0.699660 -0.794498
18  1.789820 -0.000005 -0.000019  0.000209 -0.000390 -0.043881
19  1.207016 -0.000013 -0.000045  0.000046 0.000010 0.111076
20  5.740637 0.000411 -0.000705  0.138047 0.000003 0.000071
21  11.480911 0.000312 -0.000864  0.141357 0.035582 -0.005782
22  6.027525 -0.000329 0.000203  0.176870 -1.918191 -2.542066
23  0.000002 11.692098 -0.000007  -1.103424 -0.546912 -0.855155
24  0.000003 0.000008 -0.000001  -0.492302 -0.000031 1.570739
25  -0.000000 -0.000011 -0.000000  0.868957 0.000002 1.570712
26  -4.967872 -9.778694 2.073871  1.473120 1.855075 -0.198639
27  6.027510 -0.000261 -0.000225  1.500461 0.974314 -0.474451
28  11.691994 0.000244 0.000856  0.564389 0.000035 -1.320116
29  11.480239 0.000088 0.000919  -2.061214 -0.145265 0.761035
30  3.859435 -0.132789 1.193063  0.385277 -0.029729 -1.748803
31  1.312558 0.000025 -0.000000  -0.013756 -0.031530 -0.953722
32  0.729347 0.000066 -0.000026  -0.198329 0.044732 -0.857780
33  3.942045 0.050108 0.430997  0.369881 -0.091819 -1.556998
34  1.539096 0.000011 -0.000000  -0.013288 -0.027151 -1.132777
35  1.196298 0.000074 -0.000005  0.000968 -0.002436 -0.994639
36  3.883411 -0.050503 -0.431086  0.299105 -0.220225 -1.386726
37  1.719565 -0.000077 -0.000003  -0.038529 0.030961 -1.462450
38  1.209198 0.000035 0.000012  -0.001756 -0.004187 -0.773865
39  3.806437 -0.112148 -1.295329  -0.028805 0.243340 -0.117787
40  1.719411 -0.000099 -0.000033  0.356276 -0.218063 -1.380320
41  1.099673 0.000025 0.000006  0.059920 -0.008679 -0.824866
42  0.889709 -0.317103 -1.125532  0.901376 0.231327 -0.743911
43  1.789779 -0.000009 -0.000043  0.027227 0.044051 -0.011391
44  1.206995 -0.000007 0.000006  -0.019167 -0.151093 1.385408
45  5.740573 0.000055 0.000723  -0.080493 -0.000014 0.000021
46  11.480992 0.000053 0.000933  -0.079515 -0.080813 0.139643
47  6.027514 -0.000272 -0.000237  -1.118091 -0.402783 -1.367052
48  -0.000002 11.691975 -0.000006  -0.921594 0.379816 0.738814
49  0.000003 -0.000001 -0.000001  2.836925 -0.000041 1.570856
50  -0.000007 -0.000016 0.000005  2.272644 -0.000030 1.570865
51  -1.940426 -7.705095 -6.061379  2.319439 0.405406 -1.076170
52  -0.000000 0.000000 0.000000  0.008153 -0.000259 0.000009
53  -0.000001 -0.000000 0.000000  1.565115 0.043565 -0.106862
54  5.331066 -7.595997 -18.826233  -0.284205 0.179828 -2.083661
55  0.000001 0.000001 0.000002  0.000000 -0.000000 -0.000002
56  0.000031 0.000030 0.000003  -1.571901 -0.044449 -0.106509
57  12.515758 -5.820827 -31.302156  1.570796 -0.000000 0.000000
58  -16.922342 4.543208 -16.901630  1.570796 -0.000000 0.000000
59  -0.670483 1.601972 -4.109488  1.570796 -0.000000 0.000000
60  -0.004311 0.001230 -0.000371  0.006898 -0.005534 -0.284229
61  2.073871 10.506637 -3.148526  1.570796 -0.000000 0.000000
62  0.000000 0.000000 0.000000  -0.078727 -3.136056 0.284226
63  0.000000 0.000000 0.000000  1.569017 -0.002967 0.000914
64  3.554004 -10.602926 -6.833591  2.141534 0.600255 0.967504
65  -0.219072 -1.337187 -0.135916  0.000000 -0.000000 0.000000
66  -0.219079 0.187972 19.478251  0.000000 -0.000000 0.000000
67  -0.245098 -1.134825 1.111317  0.000000 -0.000000 0.000000
68  -0.104047 -4.495923 7.879278  0.000000 -0.000000 0.000000
69  -0.198095 4.323280 -6.346652  0.000000 -0.000000 0.000000
70  -0.219829 -0.876292 4.877556  0.000000 -0.000000 0.000000
71  6.378244 -14.660987 -8.995899  2.141534 0.600255 0.967504
time 15
0  0.000006 0.000000 0.000000  -1.570800 -1.391899 -1.570792
1  -4.327822 -0.845730 -0.674796  -1.544956 -1.855077 -0.198630
2  6.027516 -0.000322 0.000204  -1.007954 0.141036 -0.764840
3  11.692107 0.000644 -0.000739  -1.361405 -0.000030 -1.623201
4  11.479514 0.000539 -0.000983  2.238192 0.083579 -0.116964
5  3.859509 -0.142880 -1.192050  -0.468164 0.151540 -0.880272
6  1.312590 0.000012 0.000007  -0.000026 0.000045 -0.439738
7  0.729355 0.000054 0.000048  0.000017 0.000021 -0.244318
8  3.942143 0.046273 -0.431512  -0.151810 0.073212 -0.811101
9  1.539111 0.000083 0.000003  -0.000007 0.000021 -0.247841
10  1.196332 0.000143 0.000028  0.000012 0.000019 -0.430771
11  3.883505 -0.047270 0.431380  0.085898 0.021851 -0.587925
12  1.719574 -0.000025 0.000017  0.000015 0.005519 -0.366533
13  1.209179 0.000093 0.000013  0.000004 0.003092 -0.216437
14  3.859663 -0.138477 1.332411  0.354468 -0.042725 -0.531804
15  1.719449 -0.000012 0.000020  0.000029 0.004070 -0.363021
16  1.099676 0.000049 0.000006  0.000003 0.002579 -0.244381
17  0.805994 -0.349050 1.321252  -1.218848 -0.699660 -0.794498
18  1.789819 -0.000002 -0.000019  0.000209 -0.000391 -0.043881
19  1.207016 -0.000012 -0.000044  0.000046 0.000010 0.111076
20  5.740637 0.000410 -0.000702  0.140259 0.000003 0.000070
21  11.480915 0.000314 -0.000857  0.138316 0.033922 -0.028317
22  6.027525 -0.000329 0.000203  -2.701084 -1.234648 0.387230
23  0.000002 11.692100 -0.000006  -1.102041 -0.545554 -0.854351
24  0.000003 0.000009 -0.000001  -0.492302 -0.000030 1.570739
25  -0.000000 -0.000011 -0.000001  0.868957 0.000002 1.570712
26  -4.967872 -9.778694 2.073871  1.473120 1.855075 -0.198639
27  6.027509 -0.000261 -0.000226  1.406596 0.957320 -0.530872
28  11.691991 0.000244 0.000856  0.564390 0.000036 -1.342045
29  11.480100 0.000023 0.000961  -2.064852 -0.178940 0.725891
30  3.859436 -0.132789 1.193063  0.385277 -0.029729 -1.748803
31  1.312557 0.000026 -0.000000  -0.013756 -0.031530 -0.953722
32  0.729343 0.000065 -0.000027  -0.198329 0.044732 -0.857780
33  3.942045 0.050109 0.430996  0.369881 -0.091819 -1.556998
34  1.539096 0.000012 -0.000000  -0.013288 -0.027151 -1.132777
35  1.196300 0.000073 -0.000006  0.000968 -0.002436 -0.994639
36  3.883411 -0.050502 -0.431087  0.299105 -0.220225 -1.386726
37  1.719565 -0.000077 -0.000003  -0.038529 0.030961 -1.462450
38  1.209197 0.000036 0.000012  -0.001756 -0.004187 -0.773865
39  3.806438 -0.112148 -1.295329  -0.028805 0.243340 -0.117787
40  1.719411 -0.000098 -0.000034  0.356276 -0.218063 -1.380320
41  1.099672 0.000026 0.000007  0.059920 -0.008679 -0.824866
42  0.889710 -0.317103 -1.125533  0.901376 0.231327 -0.743911
43  1.789779 -0.000009 -0.000042  0.027227 0.044051 -0.011391
44  1.206995 -0.000007 0.000005  -0.019167 -0.151093 1.385408
45  5.740573 0.000056 0.000724  -0.081391 -0.000014 0.000021
46  11.480965 0.000040 0.000942  -0.079019 -0.086157 0.131048
47  6.027514 -0.000272 -0.000237  -1.142857 -0.454062 -1.335953
48  -0.000001 11.691974 -0.000006  -0.934898 0.391150 0.747969
49  0.000004 -0.000001 -0.000000  2.836925 -0.000041 1.570856
50  -0.000007 -0.000016 0.000004  2.272644 -0.000030 1.570865
51  -1.347423 -7.407702 -6.849280  2.332738 0.421918 -0.983890
52  0.000000 -0.000000 -0.000000  0.008153 -0.000259 0.000009
53  0.000000 -0.000000 -0.000000  1.565115 0.043565 -0.106862
54  5.900526 -6.406383 -19.588688  -0.291865 0.198914 -1.998169
55  0.000000 -0.000000 0.000000  0.000000 -0.000000 -0.000002
56  0.000030 0.000028 0.000004  -1.571901 -0.044449 -0.106509
57  12.797043 -5.061037 -32.398026  1.570796 -0.000000 0.000000
58  -16.922342 4.543208 -16.901630  1.570796 -0.000000 0.000000
59  -0.670483 1.601972 -4.109488  1.570796 -0.000000 0.000000
60  -0.004311 0.001230 -0.000371  0.006898 -0.005534 -0.284229
61  2.073871 10.506637 -3.148526  1.570796 -0.000000 0.000000
62  0.000000 0.000000 0.000000  -0.078727 -3.136056 0.284226
63  0.000000 0.000000 0.000000  1.569295 -0.002504 0.000771
64  4.378695 -9.801273 -7.664691  2.152549 0.581890 1.060576
65  -0.219073 -1.337186 -0.135918  0.000000 -0.000000 -0.000000
66  -0.219080 0.187971 19.478251  0.000000 -0.000000 -0.000000
67  -0.245097 -1.134825 1.111315  0.000000 -0.000000 -0.000000
68  -0.104048 -4.495923 7.879275  0.000000 -0.000000 -0.000000
69  -0.198095 4.323280 -6.346651  0.000000 -0.000000 -0.000000
70  -0.219828 -0.876292 4.877553  0.000000 -0.000000 -0.000000
71  7.546920 -13.553731 -9.901020  2.152549 0.581890 1.060576
time 16
0  0.000006 0.000000 0.000000  -1.570800 -1.391899 -1.570792
1  -4.327822 -0.845730 -0.674796  -1.544956 -1.855077 -0.198630
2  6.027516 -0.000323 0.000205  -0.994120 0.208626 -0.737502
3  11.692105 0.000645 -0.000739  -1.361404 -0.000029 -1.600813
4  11.479677 0.000558 -0.000894  2.217720 0.101152 -0.223106
5  3.859509 -0.142880 -1.192047  -0.468164 0.151540 -0.880272
6  1.312590 0.000011 0.000008  -0.000026 0.000045 -0.439738
7  0.729355 0.000054 0.000050  0.000017 0.000021 -0.244318
8  3.942142 0.046273 -0.431509  -0.151810 0.073212 -0.811101
9  1.539111 0.000087 0.000005  -0.000007 0.000021 -0.247841
10  1.196332 0.000145 0.000028  0.000011 0.000019 -0.430771
11  3.883503 -0.047270 0.431385  0.085898 0.021851 -0.587925
12  1.719574 -0.000026 0.000016  0.000015 0.005519 -0.366533
13  1.209178 0.000091 0.000013  0.000004 0.003092 -0.216437
14  3.859661 -0.138476 1.332413  0.354468 -0.042725 -0.531804
15  1.719448 -0.000011 0.000025  0.000029 0.004070 -0.363021
16  1.099675 0.000049 0.000007  0.000003 0.002579 -0.244381
17  0.805993 -0.349051 1.321256  -1.218848 -0.699660 -0.794498
18  1.789819 -0.000004 -0.000019  0.000209 -0.000390 -0.043881
19  1.207016 -0.000013 -0.000043  0.000046 0.000010 0.111076
20  5.740637 0.000410 -0.000702  0.146733 0.000003 0.000071
21  11.480947 0.000316 -0.000841  0.136027 0.032062 -0.050156
22  6.027525 -0.000329 0.000203  -2.507743 -1.213390 0.230253
23  0.000002 11.692098 -0.000006  -1.088899 -0.532703 -0.846644
24  0.000002 0.000009 -0.000002  -0.492302 -0.000031 1.570739
25  -0.000000 -0.000011 -0.000001  0.868957 0.000002 1.570712
26  -4.967872 -9.778694 2.073871  1.473120 1.855075 -0.198639
27  6.027510 -0.000260 -0.000226  1.310478 0.957126 -0.590477
28  11.691992 0.000243 0.000854  0.564389 0.000035 -1.326378
29  11.480198 0.000070 0.000930  -2.076576 -0.232972 0.656079
30  3.859436 -0.132788 1.193062  0.385277 -0.029729 -1.748803
31  1.312559 0.000026 -0.000000  -0.013756 -0.031530 -0.953722
32  0.729346 0.000067 -0.000027  -0.198329 0.044732 -0.857780
33  3.942044 0.050108 0.430997  0.369881 -0.091819 -1.556998
34  1.539097 0.000012 -0.000000  -0.013288 -0.027151 -1.132777
35  1.196299 0.000073 -0.000005  0.000968 -0.002436 -0.994639
36  3.883410 -0.050503 -0.431086  0.299105 -0.220225 -1.386726
37  1.719564 -0.000075 -0.000002  -0.038529 0.030961 -1.462450
38  1.209197 0.000035 0.000011  -0.001756 -0.004187 -0.773865
39  3.806437 -0.112148 -1.295329  -0.028805 0.243340 -0.117786
40  1.719412 -0.000099 -0.000033  0.356276 -0.218063 -1.380320
41  1.099673 0.000025 0.000006  0.059920 -0.008679 -0.824866
42  0.889710 -0.317103 -1.125532  0.901376 0.231327 -0.743910
43  1.789779 -0.000010 -0.000043  0.027227 0.044051 -0.011391
44  1.206997 -0.000005 0.000006  -0.019167 -0.151093 1.385408
45  5.740572 0.000055 0.000724  -0.084495 -0.000014 0.000021
46  11.480985 0.000050 0.000936  -0.080163 -0.094560 0.114549
47  6.027514 -0.000272 -0.000237  -1.187952 -0.492147 -1.296398
48  -0.000003 11.691975 -0.000005  -0.925398 0.383041 0.741441
49  0.000004 -0.000001 -0.000000  2.836925 -0.000041 1.570856
50  -0.000007 -0.000015 0.000006  2.272644 -0.000030 1.570865
51  -0.721088 -7.320670 -7.647030  2.351511 0.420739 -0.869859
52  -0.000001 -0.000000 0.000001  0.008153 -0.000259 0.000009
53  0.000000 -0.000000 -0.000000  1.565115 0.043565 -0.106862
54  6.555776 -5.427613 -20.268106  -0.281637 0.212867 -1.889725
55  0.000000 -0.000000 0.000002  0.000000 -0.000000 -0.000002
56  0.000030 0.000028 0.000006  -1.571901 -0.044449 -0.106509
57  13.032189 -4.425870 -33.314148  1.570796 -0.000000 0.000000
58  -16.922342 4.543208 -16.901630  1.570796 -0.000000 0.000000
59  -0.670483 1.601972 -4.109488  1.570796 -0.000000 0.000000
60  -0.004311 0.001230 -0.000371  0.006898 -0.005534 -0.284229
61  2.073871 10.506637 -3.148526  1.570796 -0.000000 0.000000
62  0.000000 0.000000 0.000000  -0.078727 -3.136056 0.284226
63  0.000000 0.000000 0.000000  1.569907 -0.001484 0.000456
64  5.237637 -9.084971 -8.397586  2.142107 0.567123 1.161255
65  -0.219072 -1.337187 -0.135916  0.000000 -0.000000 0.000000
66  -0.219079 0.187973 19.478252  0.000000 -0.000000 0.000000
67  -0.245098 -1.134826 1.111318  0.000000 -0.000000 0.000000
68  -0.104048 -4.495924 7.879277  0.000000 -0.000000 0.000000
69  -0.198093 4.323281 -6.346654  0.000000 -0.000000 0.000000
70  -0.219828 -0.876292 4.877555  0.000000 -0.000000 0.000000
71  8.817254 -12.457416 -10.618561  2.142107 0.567123 1.161255
time 17
0  0.000006 0.000000 0.000000  -1.570800 -1.391899 -1.570792
1  -4.327822 -0.845730 -0.674796  -1.544956 -1.855077 -0.198630
2  6.027516 -0.000322 0.000206  -1.079278 0.284963 -0.760290
3  11.692107 0.000643 -0.000740  -1.361403 -0.000026 -1.560481
4  11.479977 0.000593 -0.000722  2.252652 0.187640 -0.188245
5  3.859508 -0.142881 -1.192048  -0.468164 0.151540 -0.880272
6  1.312590 0.000011 0.000010  -0.000026 0.000045 -0.439738
7  0.729355 0.000055 0.000049  0.000017 0.000021 -0.244318
8  3.942142 0.046272 -0.431512  -0.151810 0.073212 -0.811101
9  1.539110 0.000085 0.000004  -0.000007 0.000021 -0.247841
10  1.196332 0.000146 0.000029  0.000012 0.000019 -0.430771
11  3.883503 -0.047270 0.431382  0.085898 0.021851 -0.587925
12  1.719573 -0.000024 0.000014  0.000015 0.005519 -0.366533
13  1.209179 0.000090 0.000013  0.000004 0.003092 -0.216437
14  3.859661 -0.138475 1.332409  0.354468 -0.042725 -0.531804
15  1.719448 -0.000012 0.000023  0.000029 0.004070 -0.363021
16  1.099676 0.000050 0.000007  0.000003 0.002579 -0.244381
17  0.805993 -0.349051 1.321254  -1.218848 -0.699660 -0.794498
18  1.789820 -0.000005 -0.000018  0.000209 -0.000390 -0.043881
19  1.207016 -0.000014 -0.000044  0.000046 0.000010 0.111076
20  5.740637 0.000409 -0.000703  0.150223 0.000003 0.000071
21  11.481009 0.000323 -0.000806  0.143431 0.050349 -0.047577
22  6.027525 -0.000329 0.000203  -2.469865 -1.101968 0.193550
23  0.000002 11.692099 -0.000008  -1.065182 -0.509777 -0.832416
24  0.000002 0.000008 0.000000  -0.492302 -0.000031 1.570738
25  -0.000000 -0.000012 -0.000000  0.868957 0.000002 1.570712
26  -4.967872 -9.778694 2.073871  1.473120 1.855075 -0.198639
27  6.027510 -0.000260 -0.000227  1.206503 0.956773 -0.656363
28  11.691991 0.000244 0.000856  0.564390 0.000036 -1.330874
29  11.480171 0.000057 0.000940  -2.059067 -0.212474 0.616284
30  3.859436 -0.132788 1.193063  0.385277 -0.029729 -1.748803
31  1.312557 0.000024 -0.000000  -0.013756 -0.031530 -0.953722
32  0.729343 0.000066 -0.000027  -0.198329 0.044732 -0.857780
33  3.942046 0.050109 0.430998  0.369881 -0.091819 -1.556998
34  1.539097 0.000011 -0.000001  -0.013288 -0.027151 -1.132777
35  1.196300 0.000074 -0.000006  0.000968 -0.002436 -0.994639
36  3.883411 -0.050502 -0.431086  0.299105 -0.220225 -1.386726
37  1.719564 -0.000075 -0.000002  -0.038529 0.030961 -1.462450
38  1.209198 0.000037 0.000012  -0.001756 -0.004187 -0.773865
39  3.806437 -0.112149 -1.295329  -0.028805 0.243340 -0.117787
40  1.719412 -0.000099 -0.000033  0.356276 -0.218063 -1.380320
41  1.099672 0.000026 0.000006  0.059920 -0.008679 -0.824866
42  0.889709 -0.317102 -1.125532  0.901376 0.231327 -0.743910
43  1.789779 -0.000008 -0.000042  0.027227 0.044051 -0.011391
44  1.206996 -0.000008 0.000006  -0.019167 -0.151093 1.385408
45  5.740572 0.000056 0.000724  -0.082324 -0.000014 0.000021
46  11.480978 0.000048 0.000937  -0.079266 -0.088297 0.108071
47  6.027514 -0.000272 -0.000237  -1.242327 -0.528679 -1.250693
48  -0.000001 11.691975 -0.000005  -0.928127 0.385362 0.743321
49  0.000003 -0.000001 -0.000001  2.836925 -0.000041 1.570856
50  -0.000007 -0.000015 0.000006  2.272644 -0.000030 1.570865
51  0.104269 -7.008201 -8.319884  2.368139 0.413531 -0.823247
52  -0.000001 -0.000000 -0.000000  0.008153 -0.000259 0.000009
53  -0.000000 -0.000000 0.000000  1.565115 0.043565 -0.106862
54  7.501622 -4.763841 -20.812679  -0.267215 0.222071 -1.846738
55  -0.000001 0.000001 0.000001  0.000000 -0.000000 -0.000002
56  0.000030 0.000029 0.000003  -1.571901 -0.044449 -0.106509
57  13.217210 -3.926101 -34.034977  1.570796 -0.000000 0.000000
58  -16.922342 4.543208 -16.901630  1.570796 -0.000000 0.000000
59  -0.670483 1.601972 -4.109488  1.570796 -0.000000 0.000000
60  -0.004311 0.001230 -0.000371  0.006898 -0.005534 -0.284229
61  2.073871 10.506637 -3.148526  1.570796 -0.000000 0.000000
62  0.000000 0.000000 0.000000  -0.078727 -3.136056 0.284226
63  0.000000 0.000000 0.000000  1.570518 -0.000464 0.000142
64  6.139932 -8.530031 -8.981172  2.126589 0.556607 1.192862
65  -0.219073 -1.337187 -0.135917  0.000000 -0.000000 0.000000
66  -0.219080 0.187972 19.478251  0.000000 -0.000000 0.000000
67  -0.245098 -1.134826 1.111317  0.000000 -0.000000 0.000000
68  -0.104047 -4.495923 7.879274  0.000000 -0.000000 0.000000
69  -0.198096 4.323280 -6.346652  0.000000 -0.000000 0.000000
70  -0.219829 -0.876292 4.877553  0.000000 -0.000000 0.000000
71  9.886475 -11.746110 -11.158329  2.126589 0.556607 1.192862
time 18
0  0.000006 0.000000 0.000000  -1.570800 -1.391899 -1.570792
1  -4.327822 -0.845730 -0.674796  -1.544956 -1.855077 -0.198630
2  6.027517 -0.000322 0.000207  -1.313050 0.347196 -0.874177
3  11.692107 0.000644 -0.000738  -1.361401 -0.000022 -1.502861
4  11.480438 0.000655 -0.000444  2.386957 0.307472 0.006492
5  3.859510 -0.142879 -1.192050  -0.468164 0.151540 -0.880272
6  1.312590 0.000011 0.000008  -0.000026 0.000045 -0.439738
7  0.729355 0.000053 0.000049  0.000017 0.000021 -0.244318
8  3.942144 0.046273 -0.431512  -0.151810 0.073212 -0.811101
9  1.539110 0.000085 0.000005  -0.000007 0.000021 -0.247841
10  1.196332 0.000143 0.000032  0.000011 0.000019 -0.430771
11  3.883506 -0.047269 0.431381  0.085898 0.021851 -0.587925
12  1.719572 -0.000025 0.000015  0.000015 0.005519 -0.366533
13  1.209179 0.000088 0.000009  0.000004 0.003092 -0.216437
14  3.859663 -0.138475 1.332409  0.354468 -0.042725 -0.531804
15  1.719449 -0.000012 0.000020  0.000029 0.004070 -0.363021
16  1.099674 0.000049 0.000007  0.000003 0.002579 -0.244381
17  0.805994 -0.349049 1.321252  -1.218848 -0.699660 -0.794498
18  1.789819 -0.000001 -0.000018  0.000209 -0.000390 -0.043881
19  1.207016 -0.000012 -0.000043  0.000046 0.000010 0.111077
20  5.740637 0.000411 -0.000703  0.151466 0.000003 0.000071
21  11.481102 0.000336 -0.000753  0.164635 0.084076 -0.017828
22  6.027525 -0.000329 0.000203  -2.578915 -0.878933 0.244456
23  0.000002 11.692099 -0.000006  -1.031163 -0.477547 -0.811333
24  0.000004 0.000009 -0.000001  -0.492302 -0.000031 1.570738
25  -0.000001 -0.000011 -0.000001  0.868957 0.000002 1.570712
26  -4.967872 -9.778694 2.073871  1.473120 1.855075 -0.198639
27  6.027510 -0.000259 -0.000227  1.099420 0.974466 -0.733626
28  11.691992 0.000245 0.000855  0.564389 0.000034 -1.313590
29  11.480284 0.000106 0.000907  -2.040527 -0.164218 0.586254
30  3.859435 -0.132789 1.193062  0.385277 -0.029729 -1.748803
31  1.312559 0.000026 0.000000  -0.013756 -0.031530 -0.953722
32  0.729344 0.000067 -0.000027  -0.198329 0.044732 -0.857780
33  3.942045 0.050108 0.430998  0.369881 -0.091819 -1.556998
34  1.539099 0.000011 -0.000001  -0.013288 -0.027151 -1.132777
35  1.196301 0.000075 -0.000005  0.000968 -0.002436 -0.994639
36  3.883410 -0.050503 -0.431086  0.299105 -0.220225 -1.386726
37  1.719564 -0.000076 -0.000003  -0.038529 0.030961 -1.462450
38  1.209197 0.000036 0.000012  -0.001756 -0.004187 -0.773865
39  3.806436 -0.112148 -1.295330  -0.028805 0.243339 -0.117787
40  1.719413 -0.000098 -0.000034  0.356276 -0.218063 -1.380320
41  1.099674 0.000025 0.000006  0.059920 -0.008679 -0.824866
42  0.889708 -0.317103 -1.125532  0.901376 0.231327 -0.743911
43  1.789779 -0.000009 -0.000042  0.027227 0.044051 -0.011391
44  1.206995 -0.000006 0.000006  -0.019167 -0.151093 1.385408
45  5.740572 0.000054 0.000724  -0.080637 -0.000014 0.000021
46  11.481001 0.000057 0.000930  -0.079182 -0.077040 0.104691
47  6.027514 -0.000272 -0.000237  -1.313824 -0.544351 -1.203301
48  0.000000 11.691976 -0.000006  -0.917624 0.376464 0.736066
49  0.000004 -0.000002 0.000000  2.836925 -0.000041 1.570856
50  -0.000006 -0.000015 0.000005  2.272644 -0.000030 1.570865
51  1.045833 -6.802571 -8.800483  2.376442 0.401070 -0.812285
52  -0.000000 0.000000 0.000001  0.008153 -0.000259 0.000009
53  -0.000001 -0.000000 0.000000  1.565115 0.043565 -0.106862
54  8.601200 -4.549096 -21.196701  -0.252239 0.222098 -1.835766
55  -0.000001 -0.000000 0.000002  0.000000 -0.000000 -0.000002
56  0.000030 0.000029 0.000006  -1.571901 -0.044449 -0.106509
57  13.349810 -3.567931 -34.551582  1.570796 -0.000000 0.000000
58  -16.922342 4.543208 -16.901630  1.570796 -0.000000 0.000000
59  -0.670483 1.601972 -4.109488  1.570796 -0.000000 0.000000
60  -0.004311 0.001230 -0.000371  0.006898 -0.005534 -0.284229
61  2.073871 10.506637 -3.148526  1.570796 -0.000000 0.000000
62  0.000000 0.000000 0.000000  -0.078727 -3.136056 0.284226
63  0.000000 0.000000 0.000000  1.570796 -0.000000 0.000000
64  7.101677 -8.280397 -9.370807  2.109497 0.555004 1.191517
65  -0.219071 -1.337187 -0.135917  -0.000000 0.000000 -0.000000
66  -0.219077 0.187971 19.478252  -0.000000 0.000000 -0.000000
67  -0.245097 -1.134826 1.111316  -0.000000 0.000000 -0.000000
68  -0.104048 -4.495923 7.879277  -0.000000 0.000000 -0.000000
69  -0.198094 4.323280 -6.346652  -0.000000 0.000000 -0.000000
70  -0.219827 -0.876292 4.877553  -0.000000 0.000000 -0.000000
71  10.903021 -11.475832 -11.482381  2.109497 0.555004 1.191517
time 19
0  0.000006 0.000000 0.000000  -1.570800 -1.391899 -1.570792
1  -4.327822 -0.845730 -0.674796  -1.544956 -1.855077 -0.198630
2  6.027517 -0.000322 0.000207  -1.324400 0.349162 -0.882296
3  11.692110 0.000643 -0.000737  -1.361401 -0.000022 -1.502861
4  11.480437 0.000653 -0.000445  2.395839 0.309042 0.017037
5  3.859510 -0.142879 -1.192050  -0.468164 0.151540 -0.880272
6  1.312590 0.000011 0.000008  -0.000026 0.000045 -0.439738
7  0.729355 0.000053 0.000049  0.000017 0.000021 -0.244318
8  3.942144 0.046273 -0.431512  -0.151810 0.073212 -0.811101
9  1.539110 0.000085 0.000005  -0.000007 0.000021 -0.247841
10  1.196332 0.000143 0.000032  0.000011 0.000019 -0.430771
11  3.883506 -0.047269 0.431381  0.085898 0.021851 -0.587925
12  1.719572 -0.000025 0.000015  0.000015 0.005519 -0.366533
13  1.209179 0.000088 0.000009  0.000004 0.003092 -0.216437
14  3.859663 -0.138475 1.332409  0.354468 -0.042725 -0.531804
15  1.719449 -0.000012 0.000020  0.000029 0.004070 -0.363021
16  1.099674 0.000049 0.000007  0.000003 0.002579 -0.244381
17  0.805994 -0.349049 1.321252  -1.218848 -0.699660 -0.794498
18  1.789819 -0.000001 -0.000018  0.000209 -0.000390 -0.043881
19  1.207016 -0.000012 -0.000043  0.000046 0.000010 0.111077
20  5.740636 0.000410 -0.000705  0.152108 0.000003 0.000071
21  11.481102 0.000336 -0.000754  0.166021 0.085032 -0.016026
22  6.027525 -0.000329 0.000203  -2.583362 -0.868466 0.243620
23  0.000002 11.692099 -0.000006  -1.031163 -0.477547 -0.811333
24  0.000004 0.000009 -0.000001  -0.492302 -0.000031 1.570739
25  -0.000001 -0.000012 -0.000001  0.868957 0.000002 1.570712
26  -4.967872 -9.778694 2.073871  1.473120 1.855075 -0.198639
27  6.027510 -0.000259 -0.000227  1.099420 0.974466 -0.733626
28  11.691992 0.000245 0.000855  0.564389 0.000034 -1.313590
29  11.480284 0.000106 0.000907  -2.040527 -0.164218 0.586254
30  3.859435 -0.132789 1.193062  0.385277 -0.029729 -1.748803
31  1.312559 0.000026 0.000000  -0.013756 -0.031530 -0.953722
32  0.729344 0.000067 -0.000027  -0.198329 0.044732 -0.857780
33  3.942045 0.050108 0.430998  0.369881 -0.091819 -1.556998
34  1.539099 0.000011 -0.000001  -0.013288 -0.027151 -1.132777
35  1.196301 0.000075 -0.000005  0.000968 -0.002436 -0.994639
36  3.883410 -0.050503 -0.431086  0.299105 -0.220225 -1.386726
37  1.719564 -0.000076 -0.000003  -0.038529 0.030961 -1.462450
38  1.209197 0.000036 0.000012  -0.001756 -0.004187 -0.773865
39  3.806436 -0.112148 -1.295330  -0.028805 0.243339 -0.117787
40  1.719413 -0.000098 -0.000034  0.356276 -0.218063 -1.380320
41  1.099674 0.000025 0.000006  0.059920 -0.008679 -0.824866
42  0.889708 -0.317103 -1.125532  0.901376 0.231327 -0.743911
43  1.789779 -0.000009 -0.000042  0.027227 0.044051 -0.011391
44  1.206995 -0.000006 0.000006  -0.019167 -0.151093 1.385408
45  5.740572 0.000054 0.000724  -0.080637 -0.000014 0.000021
46  11.481001 0.000057 0.000930  -0.079182 -0.077040 0.104691
47  6.027514 -0.000272 -0.000237  -1.313824 -0.544351 -1.203301
48  0.000000 11.691976 -0.000006  -0.917624 0.376464 0.736066
49  0.000004 -0.000002 0.000000  2.836925 -0.000041 1.570856
50  -0.000006 -0.000015 0.000005  2.272644 -0.000030 1.570865
51  1.045833 -6.802571 -8.800483  2.376442 0.401070 -0.812285
52  -0.000000 0.000000 0.000001  0.008153 -0.000259 0.000009
53  -0.000001 -0.000000 0.000000  1.565115 0.043565 -0.106862
54  8.601200 -4.549096 -21.196701  -0.252239 0.222098 -1.835766
55  -0.000001 -0.000000 0.000002  0.000000 -0.000000 -0.000002
56  0.000030 0.000029 0.000006  -1.571901 -0.044449 -0.106509
57  13.429111 -3.353724 -34.860535  1.570796 -0.000000 0.000000
58  -16.922342 4.543208 -16.901630  1.570796 -0.000000 0.000000
59  -0.670483 1.601972 -4.109488  1.570796 -0.000000 0.000000
60  -0.004311 0.001230 -0.000371  0.006898 -0.005534 -0.284229
61  2.073871 10.506637 -3.148526  1.570796 -0.000000 0.000000
62  0.000000 0.000000 0.000000  -0.078727 -3.136056 0.284226
63  0.000000 0.000000 0.000000  1.570796 -0.000000 0.000000
64  7.101677 -8.280397 -9.370807  2.109497 0.555004 1.191517
65  -0.219071 -1.337187 -0.135917  -0.000000 0.000000 -0.000000
66  -0.219077 0.187971 19.478252  -0.000000 0.000000 -0.000000
67  -0.245097 -1.134826 1.111316  -0.000000 0.000000 -0.000000
68  -0.104048 -4.495923 7.879277  -0.000000 0.000000 -0.000000
69  -0.198094 4.323280 -6.346652  -0.000000 0.000000 -0.000000
70  -0.219827 -0.876292 4.877553  -0.000000 0.000000 -0.000000
71  10.903021 -11.475832 -11.482381  2.109497 0.555004 1.191517
time 20
0  0.000006 0.000000 0.000000  -1.570800 -1.391899 -1.570792
1  -4.327822 -0.845730 -0.674796  -1.544956 -1.855077 -0.198630
2  6.027517 -0.000322 0.000207  -1.327929 0.349755 -0.884822
3  11.692110 0.000644 -0.000739  -1.361401 -0.000023 -1.502861
4  11.480436 0.000655 -0.000442  2.398601 0.309511 0.020315
5  3.859510 -0.142879 -1.192050  -0.468164 0.151540 -0.880272
6  1.312590 0.000011 0.000008  -0.000026 0.000045 -0.439738
7  0.729355 0.000053 0.000049  0.000017 0.000021 -0.244318
8  3.942144 0.046273 -0.431512  -0.151810 0.073212 -0.811101
9  1.539110 0.000085 0.000005  -0.000007 0.000021 -0.247841
10  1.196332 0.000143 0.000032  0.000011 0.000019 -0.430771
11  3.883506 -0.047269 0.431381  0.085898 0.021851 -0.587925
12  1.719572 -0.000025 0.000015  0.000015 0.005519 -0.366533
13  1.209179 0.000088 0.000009  0.000004 0.003092 -0.216437
14  3.859663 -0.138475 1.332409  0.354468 -0.042725 -0.531804
15  1.719449 -0.000012 0.000020  0.000029 0.004070 -0.363021
16  1.099674 0.000049 0.000007  0.000003 0.002579 -0.244381
17  0.805994 -0.349049 1.321252  -1.218848 -0.699660 -0.794498
18  1.789819 -0.000001 -0.000018  0.000209 -0.000390 -0.043881
19  1.207016 -0.000012 -0.000043  0.000046 0.000010 0.111077
20  5.740637 0.000410 -0.000702  0.152309 0.000003 0.000070
21  11.481100 0.000336 -0.000753  0.166452 0.085328 -0.015466
22  6.027525 -0.000329 0.000203  -2.584734 -0.865217 0.243348
23  0.000002 11.692101 -0.000006  -1.031163 -0.477547 -0.811333
24  0.000003 0.000010 -0.000001  -0.492302 -0.000031 1.570739
25  -0.000001 -0.000012 -0.000000  0.868957 0.000002 1.570712
26  -4.967872 -9.778694 2.073871  1.473120 1.855075 -0.198639
27  6.027510 -0.000259 -0.000227  1.099420 0.974466 -0.733626
28  11.691992 0.000245 0.000855  0.564389 0.000034 -1.313590
29  11.480284 0.000106 0.000907  -2.040527 -0.164218 0.586254
30  3.859435 -0.132789 1.193062  0.385277 -0.029729 -1.748803
31  1.312559 0.000026 0.000000  -0.013756 -0.031530 -0.953722
32  0.729344 0.000067 -0.000027  -0.198329 0.044732 -0.857780
33  3.942045 0.050108 0.430998  0.369881 -0.091819 -1.556998
34  1.539099 0.000011 -0.000001  -0.013288 -0.027151 -1.132777
35  1.196301 0.000075 -0.000005  0.000968 -0.002436 -0.994639
36  3.883410 -0.050503 -0.431086  0.299105 -0.220225 -1.386726
37  1.719564 -0.000076 -0.000003  -0.038529 0.030961 -1.462450
38  1.209197 0.000036 0.000012  -0.001756 -0.004187 -0.773865
39  3.806436 -0.112148 -1.295330  -0.028805 0.243339 -0.117787
40  1.719413 -0.000098 -0.000034  0.356276 -0.218063 -1.380320
41  1.099674 0.000025 0.000006  0.059920 -0.008679 -0.824866
42  0.889708 -0.317103 -1.125532  0.901376 0.231327 -0.743911
43  1.789779 -0.000009 -0.000042  0.027227 0.044051 -0.011391
44  1.206995 -0.000006 0.000006  -0.019167 -0.151093 1.385408
45  5.740572 0.000054 0.000724  -0.080637 -0.000014 0.000021
46  11.481001 0.000057 0.000930  -0.079182 -0.077040 0.104691
47  6.027514 -0.000272 -0.000237  -1.313824 -0.544351 -1.203301
48  0.000000 11.691976 -0.000006  -0.917624 0.376464 0.736066
49  0.000004 -0.000002 0.000000  2.836925 -0.000041 1.570856
50  -0.000006 -0.000015 0.000005  2.272644 -0.000030 1.570865
51  1.045833 -6.802571 -8.800483  2.376442 0.401070 -0.812285
52  -0.000000 0.000000 0.000001  0.008153 -0.000259 0.000009
53  -0.000001 -0.000000 0.000000  1.565115 0.043565 -0.106862
54  8.601200 -4.549096 -21.196701  -0.252239 0.222098 -1.835766
55  -0.000001 -0.000000 0.000002  0.000000 -0.000000 -0.000002
56  0.000030 0.000029 0.000006  -1.571901 -0.044449 -0.106509
57  13.455346 -3.282862 -34.962746  1.570796 -0.000000 0.000000
58  -16.922342 4.543208 -16.901630  1.570796 -0.000000 0.000000
59  -0.670483 1.601972 -4.109488  1.570796 -0.000000 0.000000
60  -0.004311 0.001230 -0.000371  0.006898 -0.005534 -0.284229
61  2.073871 10.506637 -3.148526  1.570796 -0.000000 0.000000
62  0.000000 0.000000 0.000000  -0.078727 -3.136056 0.284226
63  0.000000 0.000000 0.000000  1.570796 -0.000000 0.000000
64  7.101677 -8.280397 -9.370807  2.109497 0.555004 1.191517
65  -0.219071 -1.337187 -0.135917  -0.000000 0.000000 -0.000000
66  -0.219077 0.187971 19.478252  -0.000000 0.000000 -0.000000
67  -0.245097 -1.134826 1.111316  -0.000000 0.000000 -0.000000
68  -0.104048 -4.495923 7.879277  -0.000000 0.000000 -0.000000
69  -0.198094 4.323280 -6.346652  -0.000000 0.000000 -0.000000
70  -0.219827 -0.876292 4.877553  -0.000000 0.000000 -0.000000
71  10.903021 -11.475832 -11.482381  2.109497 0.555004 1.191517
end
