version 1
nodes
0 "ValveBiped.Bip01_Spine4" -1
1 "ValveBiped.Bip01_L_Clavicle" 0
2 "ValveBiped.Bip01_L_UpperArm" 1
3 "ValveBiped.Bip01_L_Forearm" 2
4 "ValveBiped.Bip01_L_Hand" 3
5 "ValveBiped.Bip01_L_Finger4" 4
6 "ValveBiped.Bip01_L_Finger41" 5
7 "ValveBiped.Bip01_L_Finger42" 6
8 "ValveBiped.Bip01_L_Finger3" 4
9 "ValveBiped.Bip01_L_Finger31" 8
10 "ValveBiped.Bip01_L_Finger32" 9
11 "ValveBiped.Bip01_L_Finger2" 4
12 "ValveBiped.Bip01_L_Finger21" 11
13 "ValveBiped.Bip01_L_Finger22" 12
14 "ValveBiped.Bip01_L_Finger1" 4
15 "ValveBiped.Bip01_L_Finger11" 14
16 "ValveBiped.Bip01_L_Finger12" 15
17 "ValveBiped.Bip01_L_Finger0" 4
18 "ValveBiped.Bip01_L_Finger01" 17
19 "ValveBiped.Bip01_L_Finger02" 18
20 "ValveBiped.Bip01_L_Ulna" 3
21 "ValveBiped.Bip01_L_Wrist" 3
22 "rig_l_upperarm" 1
23 "rig_l_forearm" 22
24 "rig_d_l_forearm" 23
25 "rig_d_l_upperarm" 22
26 "ValveBiped.Bip01_R_Clavicle" 0
27 "ValveBiped.Bip01_R_UpperArm" 26
28 "ValveBiped.Bip01_R_Forearm" 27
29 "ValveBiped.Bip01_R_Hand" 28
30 "ValveBiped.Bip01_R_Finger4" 29
31 "ValveBiped.Bip01_R_Finger41" 30
32 "ValveBiped.Bip01_R_Finger42" 31
33 "ValveBiped.Bip01_R_Finger3" 29
34 "ValveBiped.Bip01_R_Finger31" 33
35 "ValveBiped.Bip01_R_Finger32" 34
36 "ValveBiped.Bip01_R_Finger2" 29
37 "ValveBiped.Bip01_R_Finger21" 36
38 "ValveBiped.Bip01_R_Finger22" 37
39 "ValveBiped.Bip01_R_Finger1" 29
40 "ValveBiped.Bip01_R_Finger11" 39
41 "ValveBiped.Bip01_R_Finger12" 40
42 "ValveBiped.Bip01_R_Finger0" 29
43 "ValveBiped.Bip01_R_Finger01" 42
44 "ValveBiped.Bip01_R_Finger02" 43
45 "ValveBiped.Bip01_R_Ulna" 28
46 "ValveBiped.Bip01_R_Wrist" 28
47 "rig_r_upperarm" 26
48 "rig_r_forearm" 47
49 "rig_d_r_forearm" 48
50 "rig_d_r_upperarm" 47
51 "rig_r_hand" -1
52 "rig_d_r_hand" 51
53 "rig_d_r_wrist" 52
54 "rig_l_hand" -1
55 "rig_d_l_hand" 54
56 "rig_d_l_wrist" 54
57 "rig_l_pole" -1
58 "rig_r_pole" -1
59 "rig_l_clavicle" -1
60 "rig_d_l_clavicle" 59
61 "rig_r_clavicle" -1
62 "rig_d_r_clavicle" 61
63 "Camera" -1
64 "body" -1
65 "trigger" 64
66 "barrel" 64
67 "bulletdoor" 64
68 "pump" 64
69 "bolt" 68
70 "tac" 68
71 "bullet2" 64
72 "catch" 64
73 "hookontop" 64
74 "bullet1" -1
end
skeleton
time 0
0  0.000006 0.000000 0.000000  -1.570800 -1.391899 -1.570792
1  -4.849906 3.337897 2.232070  -1.544956 -1.855077 -0.198630
2  6.027524 -0.000325 0.000192  -0.462017 -1.200729 -1.823814
3  11.692111 0.000644 -0.000740  -1.384570 -0.000003 -1.127810
4  11.480619 0.000700 -0.000248  1.522838 -0.948524 0.109134
5  3.859509 -0.142880 -1.192049  -0.507739 -0.034586 -1.573166
6  1.312590 0.000013 0.000007  -0.099219 -0.080836 -0.578266
7  0.729355 0.000054 0.000050  -0.083327 -0.106005 -0.262589
8  3.942142 0.046273 -0.431512  -0.423826 0.326055 -0.977403
9  1.539110 0.000084 0.000006  0.011526 -0.070624 -1.101829
10  1.196333 0.000144 0.000029  0.007038 -0.000117 -0.629733
11  3.883505 -0.047269 0.431381  -0.232037 0.533715 -0.537849
12  1.719573 -0.000026 0.000014  0.011709 -0.105542 -1.237432
13  1.209179 0.000095 0.000013  -0.006673 -0.001107 -0.502906
14  3.859663 -0.138476 1.332410  0.013813 0.511197 -0.350141
15  1.719446 -0.000013 0.000021  -0.022509 0.019639 -0.287088
16  1.099675 0.000046 0.000008  -0.286525 0.346051 -1.053593
17  0.770793 -0.901442 1.177686  -1.865794 -0.596008 -0.315192
18  1.789820 -0.000003 -0.000019  0.005558 0.090197 0.395774
19  1.207016 -0.000012 -0.000043  0.141886 -0.163086 0.233768
20  5.740637 0.000410 -0.000704  -0.069604 0.000003 0.000070
21  11.481129 0.000350 -0.000709  0.007781 -0.168414 0.005253
22  6.027524 -0.000329 0.000203  1.478908 -0.359072 1.574294
23  0.000001 11.692099 -0.000007  -0.802523 -0.285613 -0.653396
24  0.000003 0.000008 -0.000001  -0.515490 -0.000031 1.570739
25  -0.000000 -0.000011 -0.000001  0.868957 0.000002 1.570712
26  -6.617934 -9.178503 0.826812  1.473120 1.855075 -0.198639
27  6.027512 -0.000261 -0.000226  1.634294 0.882425 -0.653847
28  11.691992 0.000242 0.000855  0.141447 0.000056 -1.628682
29  11.479333 -0.000875 0.000957  -1.228905 0.285136 0.770684
30  3.859436 -0.132787 1.193062  0.466149 -0.051826 -1.783918
31  1.312559 0.000026 0.000000  -0.013965 -0.041044 -0.156447
32  0.729345 0.000066 -0.000028  -0.128320 -0.117290 -0.954857
33  3.942047 0.050109 0.430997  0.211501 -0.107596 -1.469120
34  1.539097 0.000011 -0.000001  0.040712 -0.054386 -1.030469
35  1.196299 0.000075 -0.000003  -0.249391 -0.043040 -0.795120
36  3.883411 -0.050501 -0.431087  0.186407 -0.271796 -1.212184
37  1.719564 -0.000080 -0.000003  0.020974 -0.107650 -1.483528
38  1.209197 0.000035 0.000011  -0.324719 0.069674 -0.493483
39  3.859586 -0.149111 -1.331323  -0.061899 -0.082056 -0.600517
40  1.719412 -0.000099 -0.000033  -0.011527 0.014001 -1.309313
41  1.099673 0.000024 0.000006  -0.007046 -0.008092 -0.789585
42  0.805979 -0.359853 -1.318338  0.991670 0.166767 -0.799535
43  1.789780 -0.000009 -0.000042  0.000057 -0.002451 0.133097
44  1.206997 -0.000007 0.000005  0.000372 -0.000070 1.058782
45  5.740574 0.000054 0.000723  0.142093 -0.000014 0.000021
46  11.480812 -0.000139 0.000941  0.051210 0.056383 0.130579
47  6.027514 -0.000273 -0.000238  -0.987010 -0.388281 -1.704338
48  -0.000003 11.691975 -0.000006  -1.105193 0.548692 0.856267
49  0.000003 -0.000001 -0.000000  2.413975 -0.000041 1.570856
50  -0.000008 -0.000015 0.000005  2.272644 -0.000030 1.570865
51  -4.029927 -5.683368 -5.838304  -0.129928 -2.969716 1.488992
52  0.000000 0.000000 -0.000000  0.008153 -0.000259 0.000009
53  0.000000 0.000001 0.000000  1.565115 0.043565 -0.106862
54  -0.953392 -19.567165 -3.852229  -0.893843 0.123214 -1.789358
55  0.000001 0.000000 -0.000000  0.000000 -0.000000 -0.000002
56  0.000030 0.000029 0.000001  -1.571901 -0.044449 -0.106509
57  7.202790 -19.259499 -17.055128  1.570796 -0.000000 0.000000
58  -15.417985 4.000748 -22.641926  1.570796 -0.000000 0.000000
59  2.236387 -2.421983 -5.367696  1.570796 -0.000000 0.000000
60  -0.004311 0.001230 -0.000371  0.006898 -0.005534 -0.284229
61  0.826810 10.209643 -4.879054  1.570796 -0.000000 0.000000
62  0.000000 0.000000 0.000000  -0.078727 -3.136056 0.284226
63  0.000000 0.000000 0.000000  1.570796 -0.000000 0.000000
64  -2.535900 -12.650944 -1.580516  1.549086 0.053723 0.014481
65  -0.109378 -1.951951 -1.519205  0.330971 0.000000 0.000000
66  -0.109379 0.057027 25.399252  -0.000000 0.000000 0.000000
67  -0.109378 -1.856732 0.287229  -0.000000 0.000000 0.000000
68  -0.104047 -4.495923 7.879278  -0.000000 0.000000 0.000000
69  -0.195264 4.332631 -6.347188  -0.000000 0.000000 0.000000
70  -1.290112 3.693284 8.579670  0.022713 -0.014049 -0.017451
71  -0.121470 -1.314581 7.402088  -0.000000 0.000000 0.000000
72  -1.107528 -1.063453 4.061647  -0.000000 0.000000 0.000000
73  0.003659 1.612363 10.733981  -0.000000 0.000000 0.000000
74  -2.641465 -17.879095 -2.764200  1.549086 0.053723 0.014481
time 1
0  0.000006 0.000000 0.000000  -1.570800 -1.391899 -1.570792
1  -4.849906 3.337897 2.232070  -1.544956 -1.855077 -0.198630
2  6.027524 -0.000325 0.000192  -0.388752 -1.197867 -1.867019
3  11.692110 0.000645 -0.000739  -1.384576 -0.000008 -1.235301
4  11.480041 0.000647 -0.000527  1.392256 -0.972392 0.143947
5  3.859509 -0.142880 -1.192050  -0.507739 -0.034586 -1.573166
6  1.312590 0.000012 0.000008  -0.099219 -0.080836 -0.578266
7  0.729355 0.000052 0.000050  -0.083327 -0.106005 -0.262589
8  3.942143 0.046273 -0.431511  -0.423826 0.326055 -0.977403
9  1.539111 0.000081 0.000006  0.011527 -0.070624 -1.101829
10  1.196332 0.000147 0.000029  0.007038 -0.000117 -0.629733
11  3.883507 -0.047269 0.431382  -0.232037 0.533715 -0.537849
12  1.719574 -0.000027 0.000016  0.011709 -0.105542 -1.237432
13  1.209179 0.000093 0.000010  -0.006673 -0.001106 -0.502906
14  3.859666 -0.138475 1.332410  0.013813 0.511197 -0.350141
15  1.719448 -0.000011 0.000025  -0.022509 0.019639 -0.287088
16  1.099675 0.000047 0.000006  -0.286525 0.346051 -1.053593
17  0.770795 -0.901442 1.177685  -1.865794 -0.596007 -0.315192
18  1.789818 -0.000003 -0.000018  0.005558 0.090197 0.395774
19  1.207015 -0.000012 -0.000043  0.141886 -0.163086 0.233767
20  5.740637 0.000410 -0.000703  -0.116118 0.000003 0.000071
21  11.481014 0.000339 -0.000761  -0.011392 -0.174708 -0.000624
22  6.027524 -0.000329 0.000203  1.450873 -0.354063 1.609146
23  0.000002 11.692098 -0.000008  -0.869675 -0.337100 -0.702244
24  0.000004 0.000008 0.000000  -0.515490 -0.000031 1.570739
25  0.000000 -0.000011 -0.000003  0.868957 0.000002 1.570712
26  -6.617934 -9.178503 0.826812  1.473120 1.855075 -0.198639
27  6.027511 -0.000261 -0.000227  1.634242 0.845334 -0.656071
28  11.691992 0.000243 0.000855  0.141449 0.000067 -1.778647
29  11.479870 -0.000629 0.000922  -1.334005 0.359366 0.858923
30  3.859436 -0.132787 1.193062  0.466149 -0.051826 -1.783918
31  1.312558 0.000026 -0.000001  -0.013965 -0.041044 -0.156447
32  0.729345 0.000065 -0.000027  -0.128320 -0.117290 -0.954857
33  3.942046 0.050109 0.430997  0.211501 -0.107596 -1.469120
34  1.539096 0.000010 0.000001  0.040712 -0.054386 -1.030469
35  1.196300 0.000075 -0.000004  -0.249391 -0.043040 -0.795120
36  3.883411 -0.050501 -0.431087  0.186407 -0.271796 -1.212184
37  1.719563 -0.000079 -0.000004  0.020974 -0.107650 -1.483528
38  1.209197 0.000036 0.000011  -0.324719 0.069674 -0.493483
39  3.859585 -0.149112 -1.331323  -0.061899 -0.082056 -0.600517
40  1.719413 -0.000099 -0.000034  -0.011527 0.014001 -1.309313
41  1.099673 0.000025 0.000007  -0.007046 -0.008093 -0.789585
42  0.805978 -0.359854 -1.318338  0.991670 0.166767 -0.799535
43  1.789779 -0.000009 -0.000042  0.000057 -0.002451 0.133097
44  1.206996 -0.000006 0.000005  0.000372 -0.000070 1.058782
45  5.740573 0.000055 0.000724  0.150093 -0.000014 0.000021
46  11.480918 -0.000089 0.000934  0.023957 0.064792 0.150104
47  6.027514 -0.000273 -0.000238  -0.951991 -0.406534 -1.720079
48  -0.000002 11.691973 -0.000004  -1.193106 0.637001 0.904003
49  0.000003 -0.000001 -0.000000  2.413975 -0.000041 1.570856
50  -0.000006 -0.000015 0.000006  2.272644 -0.000030 1.570865
51  -3.838406 -4.334173 -5.442721  -0.228811 -2.917418 1.441305
52  0.000000 0.000001 -0.000000  0.008153 -0.000259 0.000009
53  -0.000000 0.000000 0.000000  1.565115 0.043565 -0.106862
54  -1.479503 -18.311172 -3.151753  -0.982217 0.056972 -1.864481
55  -0.000000 0.000000 0.000000  0.000000 -0.000000 -0.000002
56  0.000030 0.000029 0.000002  -1.571902 -0.044449 -0.106509
57  7.202790 -19.259499 -17.055128  1.570796 -0.000000 0.000000
58  -15.417985 4.000748 -22.641926  1.570796 -0.000000 0.000000
59  2.236387 -2.421983 -5.367696  1.570796 -0.000000 0.000000
60  -0.004311 0.001230 -0.000371  0.006898 -0.005534 -0.284229
61  0.826810 10.209643 -4.879054  1.570796 -0.000000 0.000000
62  0.000000 0.000000 0.000000  -0.078727 -3.136056 0.284226
63  0.000000 0.000000 0.000000  1.570796 -0.006383 0.000000
64  -2.368046 -11.220454 -1.046678  1.504955 0.154753 -0.057280
65  -0.109378 -1.951952 -1.519204  0.330971 -0.000000 -0.000000
66  -0.114740 0.057027 22.715389  0.000000 -0.000000 -0.000000
67  -0.109378 -1.856732 0.287231  0.000000 -0.000000 -0.000000
68  -0.104047 -4.495923 7.879278  0.000000 -0.000000 -0.000000
69  -0.195264 4.332630 -9.795807  0.000000 -0.000000 0.087266
70  -1.290112 3.693283 8.579668  0.022713 -0.014049 -0.017451
71  -0.121470 -1.314581 7.402087  0.000000 -0.000000 -0.000000
72  -1.107528 -1.063453 4.061647  0.000000 -0.000000 -0.000000
73  0.003659 1.612363 10.733984  -0.000000 -0.000000 0.055281
74  -2.933522 -16.470253 -1.977099  1.504955 0.154753 -0.057280
time 2
0  0.000006 0.000000 0.000000  -1.570800 -1.391899 -1.570792
1  -4.849906 3.337897 2.232070  -1.544956 -1.855077 -0.198630
2  6.027524 -0.000326 0.000192  -0.400104 -1.210037 -1.887017
3  11.692109 0.000645 -0.000739  -1.384576 -0.000008 -1.229516
4  11.480064 0.000649 -0.000516  1.546543 -0.980840 0.093431
5  3.859509 -0.142879 -1.192049  -0.507739 -0.034586 -1.573166
6  1.312589 0.000014 0.000010  -0.099219 -0.080836 -0.578266
7  0.729354 0.000054 0.000052  -0.083327 -0.106005 -0.262589
8  3.942143 0.046273 -0.431512  -0.423826 0.326055 -0.977403
9  1.539111 0.000085 0.000003  0.011526 -0.070624 -1.101829
10  1.196332 0.000145 0.000029  0.007038 -0.000117 -0.629733
11  3.883505 -0.047269 0.431382  -0.232037 0.533715 -0.537849
12  1.719572 -0.000027 0.000014  0.011709 -0.105542 -1.237432
13  1.209180 0.000091 0.000011  -0.006673 -0.001107 -0.502906
14  3.859661 -0.138475 1.332410  0.013813 0.511197 -0.350141
15  1.719449 -0.000012 0.000023  -0.022509 0.019639 -0.287088
16  1.099677 0.000050 0.000005  -0.286525 0.346051 -1.053593
17  0.770793 -0.901442 1.177686  -1.865794 -0.596008 -0.315192
18  1.789819 -0.000003 -0.000018  0.005558 0.090197 0.395774
19  1.207013 -0.000011 -0.000044  0.141886 -0.163086 0.233767
20  5.740636 0.000410 -0.000704  -0.093447 0.000003 0.000071
21  11.481017 0.000339 -0.000762  0.011227 -0.174628 0.004307
22  6.027524 -0.000329 0.000203  1.459145 -0.343852 1.575724
23  0.000002 11.692099 -0.000008  -0.866100 -0.334251 -0.699688
24  0.000003 0.000009 -0.000000  -0.515490 -0.000030 1.570739
25  -0.000001 -0.000011 -0.000001  0.868957 0.000002 1.570712
26  -6.617934 -9.178503 0.826812  1.473120 1.855075 -0.198639
27  6.027511 -0.000261 -0.000227  1.608517 0.834924 -0.669322
28  11.691990 0.000243 0.000854  0.141449 0.000065 -1.744738
29  11.480177 -0.000433 0.000896  -1.263059 0.375811 0.770355
30  3.859436 -0.132787 1.193062  0.466149 -0.051826 -1.783918
31  1.312558 0.000024 -0.000000  -0.013965 -0.041044 -0.156447
32  0.729345 0.000064 -0.000027  -0.128320 -0.117290 -0.954857
33  3.942046 0.050109 0.430997  0.211501 -0.107596 -1.469120
34  1.539097 0.000009 -0.000000  0.040712 -0.054386 -1.030469
35  1.196299 0.000075 -0.000004  -0.249391 -0.043040 -0.795120
36  3.883412 -0.050501 -0.431087  0.186407 -0.271796 -1.212184
37  1.719563 -0.000078 -0.000004  0.020974 -0.107650 -1.483528
38  1.209197 0.000036 0.000011  -0.324719 0.069674 -0.493483
39  3.859585 -0.149112 -1.331323  -0.061899 -0.082056 -0.600517
40  1.719412 -0.000100 -0.000035  -0.011527 0.014001 -1.309313
41  1.099674 0.000023 0.000007  -0.007046 -0.008092 -0.789585
42  0.805979 -0.359854 -1.318338  0.991669 0.166767 -0.799535
43  1.789780 -0.000009 -0.000043  0.000057 -0.002451 0.133097
44  1.206996 -0.000006 0.000005  0.000372 -0.000070 1.058781
45  5.740573 0.000054 0.000725  0.148094 -0.000014 0.000021
46  11.480980 -0.000051 0.000929  0.038075 0.071225 0.128847
47  6.027514 -0.000273 -0.000238  -0.951358 -0.426603 -1.714427
48  -0.000000 11.691973 -0.000005  -1.173203 0.616733 0.893786
49  0.000004 -0.000000 -0.000001  2.413975 -0.000041 1.570856
50  -0.000005 -0.000015 0.000005  2.272644 -0.000030 1.570865
51  -3.822442 -4.665870 -5.902622  -0.144101 -2.881220 1.455716
52  -0.000000 0.000000 -0.000000  0.008153 -0.000259 0.000009
53  0.000001 -0.000000 0.000000  1.565115 0.043565 -0.106862
54  -1.190596 -18.431725 -2.781083  -0.895360 0.033656 -1.825794
55  0.000000 0.000000 0.000000  0.000000 -0.000000 -0.000002
56  0.000030 0.000029 0.000001  -1.571901 -0.044449 -0.106509
57  7.202790 -19.259499 -17.055128  1.570796 -0.000000 0.000000
58  -15.417985 4.000748 -22.641926  1.570796 -0.000000 0.000000
59  2.236387 -2.421983 -5.367696  1.570796 -0.000000 0.000000
60  -0.004311 0.001230 -0.000371  0.006898 -0.005534 -0.284229
61  0.826810 10.209643 -4.879054  1.570796 -0.000000 0.000000
62  0.000000 0.000000 0.000000  -0.078727 -3.136056 0.284226
63  0.000000 0.000000 0.000000  1.570796 -0.004099 0.000000
64  -2.473216 -11.291402 -1.087033  1.462057 0.075651 -0.027466
65  -0.109379 -1.951951 -1.519206  0.330971 0.000000 -0.000000
66  -0.114183 0.057027 24.057320  0.000000 0.000000 -0.000000
67  -0.109379 -1.856731 0.287230  0.000000 0.000000 -0.000000
68  -0.104048 -4.495923 7.879276  0.000000 0.000000 -0.000000
69  -0.195264 4.332630 -9.795804  0.000000 0.000000 -0.000000
70  -1.290112 3.693283 8.579669  0.022713 -0.014049 -0.017451
71  -0.121471 -1.314581 7.402086  0.000000 0.000000 -0.000000
72  -1.107529 -1.063453 4.061646  0.000000 0.000000 -0.000000
73  0.003658 1.612363 10.733979  0.000000 0.000000 0.157660
74  -2.791474 -16.594540 -1.809013  1.462057 0.075651 -0.027466
time 3
0  0.000006 0.000000 0.000000  -1.570800 -1.391899 -1.570792
1  -4.849906 3.337897 2.232070  -1.544956 -1.855077 -0.198630
2  6.027524 -0.000326 0.000192  -0.455575 -1.207831 -1.843998
3  11.692110 0.000643 -0.000740  -1.384576 -0.000008 -1.237692
4  11.480027 0.000646 -0.000530  1.639662 -1.019714 0.083668
5  3.859508 -0.142880 -1.192049  -0.507739 -0.034586 -1.573166
6  1.312589 0.000010 0.000007  -0.099219 -0.080836 -0.578266
7  0.729356 0.000053 0.000049  -0.083327 -0.106005 -0.262589
8  3.942144 0.046273 -0.431511  -0.423826 0.326055 -0.977403
9  1.539110 0.000082 0.000005  0.011526 -0.070624 -1.101829
10  1.196333 0.000145 0.000030  0.007038 -0.000117 -0.629733
11  3.883504 -0.047270 0.431381  -0.232037 0.533715 -0.537849
12  1.719573 -0.000027 0.000014  0.011709 -0.105542 -1.237432
13  1.209179 0.000088 0.000011  -0.006674 -0.001106 -0.502906
14  3.859661 -0.138476 1.332410  0.013813 0.511197 -0.350141
15  1.719449 -0.000013 0.000022  -0.022509 0.019639 -0.287088
16  1.099676 0.000049 0.000005  -0.286525 0.346051 -1.053593
17  0.770794 -0.901442 1.177686  -1.865794 -0.596008 -0.315192
18  1.789818 -0.000003 -0.000019  0.005558 0.090197 0.395774
19  1.207017 -0.000012 -0.000046  0.141886 -0.163086 0.233768
20  5.740637 0.000410 -0.000702  -0.076346 0.000003 0.000070
21  11.481010 0.000337 -0.000764  0.026595 -0.181471 0.011219
22  6.027524 -0.000329 0.000203  1.478472 -0.351616 1.560276
23  0.000002 11.692099 -0.000007  -0.871152 -0.338281 -0.703299
24  0.000003 0.000009 -0.000002  -0.515490 -0.000030 1.570739
25  -0.000002 -0.000011 -0.000001  0.868957 0.000002 1.570712
26  -6.617934 -9.178503 0.826812  1.473120 1.855075 -0.198639
27  6.027511 -0.000261 -0.000227  1.599727 0.838019 -0.673549
28  11.691991 0.000242 0.000854  0.141448 0.000063 -1.725182
29  11.480352 -0.000313 0.000877  -1.176200 0.357441 0.765051
30  3.859437 -0.132787 1.193062  0.466149 -0.051826 -1.783918
31  1.312558 0.000024 0.000000  -0.013965 -0.041043 -0.156447
32  0.729345 0.000066 -0.000027  -0.128320 -0.117290 -0.954857
33  3.942046 0.050109 0.430997  0.211501 -0.107596 -1.469120
34  1.539096 0.000010 0.000000  0.040712 -0.054386 -1.030469
35  1.196300 0.000076 -0.000005  -0.249391 -0.043040 -0.795121
36  3.883412 -0.050502 -0.431087  0.186407 -0.271796 -1.212184
37  1.719563 -0.000078 -0.000004  0.020974 -0.107650 -1.483528
38  1.209198 0.000035 0.000010  -0.324719 0.069674 -0.493483
39  3.859585 -0.149112 -1.331323  -0.061899 -0.082056 -0.600516
40  1.719411 -0.000100 -0.000035  -0.011527 0.014001 -1.309313
41  1.099674 0.000024 0.000006  -0.007046 -0.008092 -0.789585
42  0.805979 -0.359854 -1.318338  0.991669 0.166767 -0.799535
43  1.789780 -0.000009 -0.000042  0.000057 -0.002451 0.133097
44  1.206996 -0.000007 0.000006  0.000372 -0.000070 1.058782
45  5.740571 0.000055 0.000723  0.161408 -0.000014 0.000021
46  11.481014 -0.000027 0.000924  0.055711 0.073208 0.124465
47  6.027514 -0.000273 -0.000238  -0.957568 -0.430119 -1.709549
48  -0.000001 11.691973 -0.000006  -1.161739 0.605121 0.887736
49  0.000003 -0.000001 0.000000  2.413975 -0.000041 1.570856
50  -0.000006 -0.000016 0.000004  2.272644 -0.000030 1.570865
51  -3.786366 -4.841843 -6.028899  -0.064702 -2.901372 1.472012
52  -0.000000 0.000000 -0.000000  0.008153 -0.000259 0.000009
53  -0.000000 0.000000 0.000000  1.565115 0.043565 -0.106862
54  -0.908156 -18.545815 -2.852973  -0.821560 0.063487 -1.786236
55  0.000002 0.000000 -0.000000  0.000000 -0.000000 -0.000002
56  0.000033 0.000029 0.000001  -1.571901 -0.044449 -0.106509
57  7.202790 -19.259499 -17.055128  1.570796 -0.000000 0.000000
58  -15.417985 4.000748 -22.641926  1.570796 -0.000000 0.000000
59  2.236387 -2.421983 -5.367696  1.570796 -0.000000 0.000000
60  -0.004311 0.001230 -0.000371  0.006898 -0.005534 -0.284229
61  0.826810 10.209643 -4.879054  1.570796 -0.000000 0.000000
62  0.000000 0.000000 0.000000  -0.078727 -3.136056 0.284226
63  0.000000 0.000000 0.000000  1.570796 0.000143 0.000000
64  -2.578385 -11.478447 -1.191105  1.474605 -0.002872 0.008964
65  -0.109379 -1.951951 -1.519206  0.330971 -0.000000 -0.000000
66  -0.112853 0.057027 25.399252  0.000000 -0.000000 -0.000000
67  -0.109378 -1.856731 0.287229  0.000000 -0.000000 -0.000000
68  -0.104047 -4.495923 7.879276  0.000000 -0.000000 -0.000000
69  -0.195264 4.332630 -9.795806  0.000000 0.000000 -0.087266
70  -1.290112 3.693283 8.579669  0.022713 -0.014049 -0.017451
71  -0.121470 -1.314581 7.402087  0.000000 -0.000000 -0.000000
72  -1.107528 -1.063453 4.061646  0.000000 -0.000000 -0.000000
73  0.003659 1.612363 10.733981  0.000000 -0.000000 0.212479
74  -2.646015 -16.779530 -1.990962  1.474605 -0.002872 0.008964
time 4
0  0.000006 0.000000 0.000000  -1.570800 -1.391899 -1.570792
1  -4.849906 3.337897 2.232070  -1.544956 -1.855077 -0.198630
2  6.027524 -0.000325 0.000192  -0.460357 -1.200906 -1.825550
3  11.692109 0.000644 -0.000740  -1.384575 -0.000007 -1.214339
4  11.480135 0.000656 -0.000480  1.575729 -1.000546 0.106662
5  3.859509 -0.142880 -1.192049  -0.507739 -0.034586 -1.573166
6  1.312590 0.000012 0.000006  -0.099219 -0.080836 -0.578266
7  0.729354 0.000053 0.000050  -0.083327 -0.106005 -0.262589
8  3.942142 0.046272 -0.431512  -0.423826 0.326055 -0.977403
9  1.539111 0.000084 0.000005  0.011527 -0.070624 -1.101829
10  1.196332 0.000144 0.000031  0.007038 -0.000117 -0.629733
11  3.883507 -0.047269 0.431382  -0.232037 0.533715 -0.537849
12  1.719574 -0.000026 0.000015  0.011709 -0.105542 -1.237432
13  1.209179 0.000090 0.000012  -0.006673 -0.001107 -0.502906
14  3.859661 -0.138476 1.332410  0.013813 0.511197 -0.350141
15  1.719447 -0.000010 0.000025  -0.022509 0.019639 -0.287088
16  1.099676 0.000049 0.000006  -0.286525 0.346051 -1.053593
17  0.770793 -0.901442 1.177686  -1.865794 -0.596007 -0.315192
18  1.789820 -0.000003 -0.000018  0.005558 0.090197 0.395774
19  1.207016 -0.000012 -0.000043  0.141886 -0.163086 0.233767
20  5.740636 0.000410 -0.000701  -0.077830 0.000003 0.000071
21  11.481031 0.000341 -0.000751  0.017390 -0.178205 0.009315
22  6.027524 -0.000329 0.000203  1.478336 -0.358748 1.574307
23  0.000002 11.692099 -0.000007  -0.856699 -0.326817 -0.692941
24  0.000004 0.000009 -0.000000  -0.515490 -0.000031 1.570739
25  -0.000001 -0.000011 -0.000001  0.868957 0.000002 1.570712
26  -6.617934 -9.178503 0.826812  1.473120 1.855075 -0.198639
27  6.027511 -0.000261 -0.000227  1.607841 0.847035 -0.669230
28  11.691991 0.000242 0.000855  0.141448 0.000062 -1.712008
29  11.480476 -0.000229 0.000868  -1.197088 0.342528 0.787846
30  3.859436 -0.132787 1.193061  0.466149 -0.051826 -1.783918
31  1.312558 0.000026 0.000000  -0.013965 -0.041044 -0.156447
32  0.729345 0.000066 -0.000028  -0.128320 -0.117290 -0.954857
33  3.942046 0.050109 0.430996  0.211501 -0.107596 -1.469120
34  1.539096 0.000008 0.000000  0.040712 -0.054386 -1.030469
35  1.196299 0.000077 -0.000004  -0.249391 -0.043040 -0.795120
36  3.883412 -0.050501 -0.431087  0.186407 -0.271796 -1.212184
37  1.719563 -0.000079 -0.000004  0.020974 -0.107650 -1.483528
38  1.209197 0.000036 0.000011  -0.324719 0.069674 -0.493483
39  3.859586 -0.149111 -1.331324  -0.061899 -0.082056 -0.600517
40  1.719413 -0.000100 -0.000034  -0.011527 0.014001 -1.309313
41  1.099674 0.000024 0.000006  -0.007046 -0.008093 -0.789585
42  0.805979 -0.359854 -1.318339  0.991670 0.166767 -0.799535
43  1.789780 -0.000009 -0.000042  0.000057 -0.002451 0.133097
44  1.206996 -0.000006 0.000006  0.000372 -0.000070 1.058781
45  5.740571 0.000055 0.000724  0.157936 -0.000014 0.000021
46  11.481039 -0.000011 0.000924  0.052395 0.069649 0.130498
47  6.027514 -0.000273 -0.000238  -0.963082 -0.420887 -1.709010
48  -0.000001 11.691973 -0.000005  -1.154019 0.597331 0.883598
49  0.000002 -0.000001 0.000001  2.413975 -0.000041 1.570856
50  -0.000006 -0.000015 0.000006  2.272644 -0.000030 1.570865
51  -3.822757 -4.957581 -5.945792  -0.092824 -2.927818 1.469105
52  -0.000000 0.000000 -0.000000  0.008153 -0.000259 0.000009
53  -0.000000 0.000000 -0.000000  1.565115 0.043565 -0.106862
54  -0.999239 -18.773336 -3.239875  -0.852037 0.086432 -1.797756
55  0.000000 -0.000000 0.000000  0.000000 -0.000000 -0.000002
56  0.000030 0.000029 0.000001  -1.571902 -0.044449 -0.106509
57  7.202790 -19.259499 -17.055128  1.570796 -0.000000 0.000000
58  -15.417985 4.000748 -22.641926  1.570796 -0.000000 0.000000
59  2.236387 -2.421983 -5.367696  1.570796 -0.000000 0.000000
60  -0.004311 0.001230 -0.000371  0.006898 -0.005534 -0.284229
61  0.826810 10.209643 -4.879054  1.570796 -0.000000 0.000000
62  0.000000 0.000000 0.000000  -0.078727 -3.136056 0.284226
63  0.000000 0.000000 0.000000  1.570796 0.002427 0.000000
64  -2.560428 -11.742890 -1.333407  1.503769 0.021617 -0.000000
65  -0.109379 -1.951951 -1.519205  0.330971 -0.000000 0.000000
66  -0.111266 0.057027 24.948326  0.000000 -0.000000 0.000000
67  -0.109379 -1.856732 0.287230  0.000000 -0.000000 0.000000
68  -0.104048 -4.495923 7.879276  0.000000 -0.000000 0.000000
69  -0.195264 4.332631 -9.795808  0.000000 0.000000 -0.043633
70  -1.290112 3.693283 8.579668  0.022713 -0.014049 -0.017451
71  -0.121470 -1.314581 7.402089  0.000000 -0.000000 0.000000
72  -1.107529 -1.063453 4.061648  0.000000 -0.000000 0.000000
73  0.003659 1.612363 10.733984  -0.000000 -0.000000 0.198030
74  -2.698457 -17.017588 -2.284381  1.503769 0.021617 -0.000000
time 5
0  0.000006 0.000000 0.000000  -1.570800 -1.391899 -1.570792
1  -4.849906 3.337897 2.232070  -1.544956 -1.855077 -0.198630
2  6.027524 -0.000325 0.000192  -0.461282 -1.192757 -1.806698
3  11.692112 0.000643 -0.000738  -1.384574 -0.000006 -1.186762
4  11.480269 0.000670 -0.000413  1.487841 -0.974645 0.128266
5  3.859509 -0.142879 -1.192050  -0.507739 -0.034586 -1.573166
6  1.312589 0.000013 0.000008  -0.099219 -0.080836 -0.578266
7  0.729356 0.000053 0.000049  -0.083327 -0.106005 -0.262589
8  3.942144 0.046273 -0.431512  -0.423826 0.326055 -0.977403
9  1.539111 0.000083 0.000007  0.011527 -0.070624 -1.101829
10  1.196333 0.000143 0.000028  0.007038 -0.000117 -0.629733
11  3.883505 -0.047269 0.431381  -0.232037 0.533715 -0.537849
12  1.719575 -0.000026 0.000015  0.011709 -0.105542 -1.237432
13  1.209178 0.000092 0.000013  -0.006673 -0.001106 -0.502906
14  3.859664 -0.138475 1.332410  0.013813 0.511197 -0.350141
15  1.719451 -0.000013 0.000022  -0.022509 0.019639 -0.287088
16  1.099675 0.000048 0.000007  -0.286525 0.346051 -1.053593
17  0.770795 -0.901442 1.177685  -1.865794 -0.596008 -0.315192
18  1.789819 -0.000003 -0.000018  0.005558 0.090197 0.395774
19  1.207015 -0.000012 -0.000043  0.141886 -0.163086 0.233767
20  5.740636 0.000411 -0.000702  -0.084145 0.000003 0.000071
21  11.481059 0.000344 -0.000739  0.003695 -0.174009 0.005275
22  6.027524 -0.000329 0.000203  1.476460 -0.366714 1.592963
23  0.000001 11.692099 -0.000006  -0.839541 -0.313465 -0.680536
24  0.000004 0.000008 -0.000000  -0.515490 -0.000031 1.570739
25  -0.000001 -0.000011 -0.000000  0.868957 0.000002 1.570712
26  -6.617934 -9.178503 0.826812  1.473120 1.855075 -0.198639
27  6.027512 -0.000260 -0.000227  1.624420 0.857976 -0.660354
28  11.691990 0.000244 0.000854  0.141448 0.000061 -1.696683
29  11.480618 -0.000132 0.000853  -1.239983 0.317404 0.812633
30  3.859435 -0.132788 1.193061  0.466149 -0.051826 -1.783918
31  1.312558 0.000026 -0.000001  -0.013965 -0.041044 -0.156447
32  0.729346 0.000065 -0.000027  -0.128320 -0.117290 -0.954857
33  3.942046 0.050108 0.430996  0.211501 -0.107596 -1.469120
34  1.539097 0.000010 -0.000000  0.040712 -0.054386 -1.030469
35  1.196299 0.000075 -0.000005  -0.249391 -0.043040 -0.795120
36  3.883411 -0.050502 -0.431087  0.186407 -0.271796 -1.212184
37  1.719563 -0.000080 -0.000004  0.020974 -0.107650 -1.483528
38  1.209198 0.000036 0.000011  -0.324719 0.069674 -0.493483
39  3.859585 -0.149112 -1.331323  -0.064803 -0.082565 -0.583729
40  1.719413 -0.000099 -0.000034  -0.011329 0.012922 -1.278461
41  1.099673 0.000025 0.000006  -0.006862 -0.008092 -0.789437
42  0.805979 -0.359854 -1.318338  0.991670 0.166767 -0.799535
43  1.789780 -0.000010 -0.000042  0.000057 -0.002451 0.133097
44  1.206996 -0.000006 0.000005  0.000373 -0.000070 1.058782
45  5.740571 0.000054 0.000724  0.150346 -0.000014 0.000021
46  11.481067 0.000009 0.000920  0.045790 0.062654 0.138197
47  6.027514 -0.000273 -0.000238  -0.967438 -0.405959 -1.710867
48  -0.000002 11.691974 -0.000005  -1.145041 0.588302 0.878720
49  0.000003 -0.000001 -0.000000  2.413975 -0.000041 1.570856
50  -0.000008 -0.000015 0.000006  2.272644 -0.000030 1.570865
51  -3.920942 -5.092222 -5.800352  -0.142572 -2.957955 1.469432
52  0.000000 -0.000000 0.000001  0.008153 -0.000259 0.000009
53  -0.000000 -0.000000 -0.000000  1.565115 0.043565 -0.106862
54  -1.120021 -19.018507 -3.706831  -0.904619 0.109848 -1.812407
55  0.000000 -0.000000 0.000000  0.000000 -0.000000 -0.000002
56  0.000029 0.000029 0.000001  -1.571901 -0.044449 -0.106509
57  7.202790 -19.259499 -17.055128  1.570796 -0.000000 0.000000
58  -15.417985 4.000748 -22.641926  1.570796 -0.000000 0.000000
59  2.236387 -2.421983 -5.367696  1.570796 -0.000000 0.000000
60  -0.004311 0.001230 -0.000371  0.006898 -0.005534 -0.284229
61  0.826810 10.209643 -4.879054  1.570796 -0.000000 0.000000
62  0.000000 0.000000 0.000000  -0.078727 -3.136056 0.284226
63  0.000000 0.000000 0.000000  1.570796 0.001798 0.000000
64  -2.520921 -12.046032 -1.488454  1.538538 0.067226 -0.007952
65  -0.109379 -1.951952 -1.519206  0.165486 -0.000000 -0.000000
66  -0.109937 0.057027 25.173782  0.000000 -0.000000 -0.000000
67  -0.109378 -1.856732 0.287229  0.000000 -0.000000 -0.000000
68  -0.104047 -4.495924 7.879275  0.000000 -0.000000 -0.000000
69  -0.195264 4.332630 -9.795805  0.000000 -0.000000 -0.000000
70  -1.290112 3.693284 8.579668  0.022713 -0.014049 -0.017451
71  -0.121470 -1.314581 7.402088  0.000000 -0.000000 -0.000000
72  -1.107528 -1.063453 4.061646  0.000000 -0.000000 -0.000000
73  0.003659 1.612363 10.733982  -0.000000 0.000000 0.160674
74  -2.756093 -17.282682 -2.614516  1.538538 0.067226 -0.007952
time 6
0  0.000006 0.000000 0.000000  -1.570800 -1.391899 -1.570792
1  -4.849906 3.337897 2.232070  -1.544956 -1.855077 -0.198630
2  6.027524 -0.000325 0.000192  -0.473501 -1.186475 -1.784847
3  11.692111 0.000642 -0.000739  -1.384572 -0.000005 -1.164633
4  11.480396 0.000679 -0.000353  1.437135 -0.959462 0.140451
5  3.859510 -0.142880 -1.192049  -0.507739 -0.034586 -1.573166
6  1.312590 0.000013 0.000009  -0.099219 -0.080836 -0.578266
7  0.729355 0.000054 0.000051  -0.083327 -0.106005 -0.262589
8  3.942143 0.046273 -0.431512  -0.423826 0.326055 -0.977403
9  1.539109 0.000084 0.000004  0.011527 -0.070624 -1.101829
10  1.196333 0.000144 0.000030  0.007038 -0.000117 -0.629733
11  3.883508 -0.047269 0.431382  -0.232037 0.533715 -0.537849
12  1.719573 -0.000027 0.000014  0.011709 -0.105542 -1.237432
13  1.209180 0.000090 0.000012  -0.006673 -0.001106 -0.502906
14  3.859664 -0.138476 1.332410  0.013813 0.511197 -0.350141
15  1.719450 -0.000012 0.000023  -0.022509 0.019639 -0.287088
16  1.099673 0.000046 0.000005  -0.286525 0.346051 -1.053593
17  0.770796 -0.901442 1.177686  -1.865794 -0.596007 -0.315192
18  1.789815 -0.000004 -0.000019  0.005558 0.090197 0.395774
19  1.207014 -0.000012 -0.000043  0.141886 -0.163086 0.233767
20  5.740636 0.000410 -0.000703  -0.086363 0.000003 0.000071
21  11.481085 0.000345 -0.000728  -0.004381 -0.171614 0.003089
22  6.027524 -0.000329 0.000203  1.479503 -0.373929 1.602371
23  0.000002 11.692098 -0.000007  -0.825701 -0.302898 -0.670448
24  0.000002 0.000008 -0.000002  -0.515490 -0.000031 1.570739
25  -0.000001 -0.000011 -0.000001  0.868957 0.000002 1.570712
26  -6.617934 -9.178503 0.826812  1.473120 1.855075 -0.198639
27  6.027512 -0.000261 -0.000226  1.636840 0.869950 -0.653246
28  11.691990 0.000243 0.000856  0.141448 0.000060 -1.675397
29  11.479024 -0.001025 0.000979  -1.262437 0.291197 0.825964
30  3.859437 -0.132787 1.193062  0.466149 -0.051826 -1.783918
31  1.312558 0.000026 -0.000000  -0.013965 -0.041043 -0.156447
32  0.729345 0.000066 -0.000027  -0.128320 -0.117290 -0.954857
33  3.942046 0.050109 0.430997  0.211501 -0.107596 -1.469120
34  1.539097 0.000010 -0.000000  0.040712 -0.054386 -1.030469
35  1.196299 0.000075 -0.000004  -0.249391 -0.043040 -0.795120
36  3.883411 -0.050502 -0.431086  0.186407 -0.271796 -1.212184
37  1.719564 -0.000078 -0.000003  0.020974 -0.107650 -1.483528
38  1.209197 0.000035 0.000012  -0.324719 0.069674 -0.493483
39  3.859585 -0.149112 -1.331322  -0.073034 -0.083737 -0.536382
40  1.719412 -0.000100 -0.000035  -0.010951 0.009844 -1.191240
41  1.099674 0.000025 0.000007  -0.006346 -0.008089 -0.789022
42  0.805978 -0.359854 -1.318337  0.991670 0.166767 -0.799535
43  1.789779 -0.000009 -0.000042  0.000057 -0.002451 0.133097
44  1.206996 -0.000006 0.000006  0.000372 -0.000070 1.058782
45  5.740572 0.000055 0.000724  0.144958 -0.000014 0.000021
46  11.480748 -0.000169 0.000945  0.043374 0.056476 0.142648
47  6.027514 -0.000273 -0.000238  -0.974411 -0.393030 -1.710492
48  -0.000000 11.691973 -0.000005  -1.132572 0.575823 0.871832
49  0.000002 0.000001 -0.000000  2.413975 -0.000041 1.570856
50  -0.000005 -0.000016 0.000006  2.272644 -0.000030 1.570865
51  -3.994468 -5.274789 -5.701596  -0.170134 -2.984716 1.475630
52  0.000000 0.000000 0.000001  0.008153 -0.000259 0.000009
53  -0.000000 -0.000000 0.000001  1.565115 0.043565 -0.106862
54  -1.126957 -19.251078 -4.086014  -0.935578 0.132420 -1.814620
55  0.000000 0.000001 0.000000  0.000000 -0.000000 -0.000002
56  0.000032 0.000030 0.000001  -1.571902 -0.044449 -0.106509
57  7.202790 -19.259499 -17.055128  1.570796 -0.000000 0.000000
58  -15.417985 4.000748 -22.641926  1.570796 -0.000000 0.000000
59  2.236387 -2.421983 -5.367696  1.570796 -0.000000 0.000000
60  -0.004311 0.001230 -0.000371  0.006898 -0.005534 -0.284229
61  0.826810 10.209643 -4.879054  1.570796 -0.000000 0.000000
62  0.000000 0.000000 0.000000  -0.078727 -3.136056 0.284226
63  0.000000 0.000000 0.000000  1.570796 0.000629 0.000000
64  -2.481414 -12.349174 -1.630756  1.567777 0.091812 -0.004101
65  -0.109378 -1.951951 -1.519206  -0.000000 0.000000 0.000000
66  -0.109379 0.057027 25.399246  -0.000000 0.000000 0.000000
67  -0.109378 -1.856732 0.287229  -0.000000 0.000000 0.000000
68  -0.104047 -4.495923 7.879276  -0.000000 0.000000 0.000000
69  -0.195264 4.332630 -9.795802  -0.000000 0.000000 0.000000
70  -1.290112 3.693283 8.579670  0.022713 -0.014049 -0.017451
71  -0.121470 -1.314581 7.402088  -0.000000 0.000000 0.000000
72  -1.107528 -1.063453 4.061646  -0.000000 0.000000 0.000000
73  0.003659 1.612363 10.733980  0.000000 -0.000000 0.109417
74  -2.737893 -17.551056 -2.903735  1.567777 0.091812 -0.004101
time 7
0  0.000006 0.000000 0.000000  -1.570800 -1.391899 -1.570792
1  -4.849906 3.337897 2.232070  -1.544956 -1.855077 -0.198630
2  6.027524 -0.000325 0.000192  -0.481871 -1.185951 -1.778485
3  11.692111 0.000643 -0.000739  -1.384571 -0.000004 -1.142321
4  11.480528 0.000691 -0.000290  1.437242 -0.947929 0.142210
5  3.859508 -0.142880 -1.192049  -0.507739 -0.034586 -1.573166
6  1.312591 0.000012 0.000007  -0.099219 -0.080836 -0.578266
7  0.729354 0.000055 0.000050  -0.083327 -0.106005 -0.262589
8  3.942143 0.046273 -0.431512  -0.423826 0.326055 -0.977403
9  1.539111 0.000084 0.000004  0.011526 -0.070624 -1.101829
10  1.196332 0.000146 0.000027  0.007038 -0.000117 -0.629733
11  3.883502 -0.047269 0.431381  -0.232037 0.533715 -0.537849
12  1.719573 -0.000026 0.000015  0.011709 -0.105542 -1.237432
13  1.209180 0.000093 0.000011  -0.006673 -0.001106 -0.502906
14  3.859662 -0.138475 1.332410  0.013813 0.511197 -0.350141
15  1.719447 -0.000011 0.000022  -0.022509 0.019639 -0.287088
16  1.099676 0.000049 0.000003  -0.286525 0.346051 -1.053593
17  0.770794 -0.901442 1.177685  -1.865794 -0.596007 -0.315192
18  1.789819 -0.000004 -0.000018  0.005558 0.090197 0.395774
19  1.207013 -0.000011 -0.000042  0.141886 -0.163086 0.233768
20  5.740635 0.000410 -0.000705  -0.081237 0.000003 0.000071
21  11.481111 0.000348 -0.000716  -0.004530 -0.169334 0.003622
22  6.027524 -0.000329 0.000203  1.482645 -0.375188 1.599824
23  0.000002 11.692099 -0.000007  -0.811679 -0.292379 -0.660155
24  0.000004 0.000008 -0.000001  -0.515490 -0.000030 1.570739
25  -0.000001 -0.000011 -0.000001  0.868957 0.000002 1.570712
26  -6.617934 -9.178503 0.826812  1.473120 1.855075 -0.198639
27  6.027512 -0.000261 -0.000226  1.636616 0.880206 -0.652737
28  11.691992 0.000243 0.000855  0.141448 0.000058 -1.649639
29  11.479194 -0.000945 0.000967  -1.256941 0.280844 0.819793
30  3.859436 -0.132788 1.193061  0.466149 -0.051826 -1.783918
31  1.312558 0.000026 0.000000  -0.013965 -0.041044 -0.156447
32  0.729345 0.000066 -0.000028  -0.128320 -0.117290 -0.954857
33  3.942047 0.050109 0.430997  0.211501 -0.107596 -1.469120
34  1.539097 0.000009 0.000000  0.040712 -0.054386 -1.030469
35  1.196300 0.000075 -0.000004  -0.249391 -0.043040 -0.795120
36  3.883411 -0.050502 -0.431087  0.186407 -0.271796 -1.212184
37  1.719563 -0.000080 -0.000003  0.020974 -0.107650 -1.483528
38  1.209197 0.000036 0.000011  -0.324719 0.069674 -0.493483
39  3.859584 -0.149112 -1.331323  -0.083677 -0.084671 -0.475529
40  1.719411 -0.000100 -0.000035  -0.010860 0.005856 -1.078987
41  1.099674 0.000026 0.000007  -0.005683 -0.008087 -0.788489
42  0.805978 -0.359854 -1.318338  0.991670 0.166767 -0.799535
43  1.789779 -0.000009 -0.000042  0.000057 -0.002451 0.133097
44  1.206997 -0.000006 0.000005  0.000372 -0.000070 1.058782
45  5.740573 0.000055 0.000723  0.142483 -0.000014 0.000021
46  11.480784 -0.000153 0.000943  0.045329 0.054786 0.141545
47  6.027514 -0.000273 -0.000238  -0.984136 -0.388099 -1.706109
48  0.000000 11.691973 -0.000005  -1.117479 0.560819 0.863325
49  0.000003 -0.000001 0.000000  2.413975 -0.000041 1.570856
50  -0.000006 -0.000016 0.000005  2.272644 -0.000030 1.570865
51  -3.992047 -5.497362 -5.726110  -0.166504 -2.997334 1.479971
52  0.000000 -0.000000 -0.000000  0.008153 -0.000259 0.000009
53  -0.000000 0.000000 -0.000001  1.565115 0.043565 -0.106862
54  -1.063535 -19.478294 -4.267733  -0.933876 0.145429 -1.809499
55  0.000002 0.000000 0.000000  0.000000 -0.000000 -0.000002
56  0.000032 0.000030 0.000001  -1.571902 -0.044449 -0.106509
57  7.202790 -19.259499 -17.055128  1.570796 -0.000000 0.000000
58  -15.417985 4.000748 -22.641926  1.570796 -0.000000 0.000000
59  2.236387 -2.421983 -5.367696  1.570796 -0.000000 0.000000
60  -0.004311 0.001230 -0.000371  0.006898 -0.005534 -0.284229
61  0.826810 10.209643 -4.879054  1.570796 -0.000000 0.000000
62  0.000000 0.000000 0.000000  -0.078727 -3.136056 0.284226
63  0.000000 0.000000 0.000000  1.570796 -0.000000 0.000000
64  -2.463457 -12.613617 -1.734828  1.580061 0.087080 0.001881
65  -0.109379 -1.951951 -1.519202  -0.000000 -0.000000 -0.000000
66  -0.109379 0.057027 25.399256  -0.000000 -0.000000 -0.000000
67  -0.109379 -1.856732 0.287231  -0.000000 -0.000000 -0.000000
68  -0.104048 -4.495923 7.879278  -0.000000 -0.000000 -0.000000
69  -0.195264 4.332631 -9.795806  -0.000000 -0.000000 -0.000000
70  -1.290112 3.693284 8.579668  0.022713 -0.014049 -0.017451
71  -0.121470 -1.314581 7.402089  -0.000000 -0.000000 -0.000000
72  -1.107529 -1.063453 4.061649  -0.000000 -0.000000 -0.000000
73  0.003659 1.612363 10.733984  -0.000000 0.000000 0.053408
74  -2.688363 -17.800711 -3.072478  1.580061 0.087080 0.001881
time 8
0  0.000006 0.000000 0.000000  -1.570800 -1.391899 -1.570792
1  -4.849906 3.337897 2.232070  -1.544956 -1.855077 -0.198630
2  6.027524 -0.000325 0.000192  -0.480079 -1.189843 -1.788214
3  11.692110 0.000645 -0.000740  -1.384570 -0.000003 -1.121812
4  11.480660 0.000703 -0.000226  1.460435 -0.938079 0.133238
5  3.859510 -0.142879 -1.192049  -0.507739 -0.034586 -1.573166
6  1.312590 0.000012 0.000007  -0.099219 -0.080836 -0.578266
7  0.729356 0.000052 0.000048  -0.083327 -0.106005 -0.262589
8  3.942145 0.046273 -0.431512  -0.423826 0.326055 -0.977403
9  1.539111 0.000083 0.000004  0.011526 -0.070624 -1.101829
10  1.196335 0.000145 0.000032  0.007038 -0.000117 -0.629733
11  3.883507 -0.047269 0.431382  -0.232037 0.533715 -0.537849
12  1.719573 -0.000027 0.000016  0.011709 -0.105542 -1.237432
13  1.209179 0.000090 0.000013  -0.006673 -0.001106 -0.502906
14  3.859664 -0.138475 1.332410  0.013813 0.511197 -0.350141
15  1.719449 -0.000012 0.000023  -0.022509 0.019639 -0.287088
16  1.099675 0.000049 0.000005  -0.286525 0.346051 -1.053593
17  0.770798 -0.901442 1.177686  -1.865794 -0.596007 -0.315192
18  1.789819 -0.000004 -0.000019  0.005558 0.090197 0.395774
19  1.207018 -0.000012 -0.000044  0.141886 -0.163086 0.233767
20  5.740636 0.000410 -0.000704  -0.074694 0.000003 0.000071
21  11.481138 0.000351 -0.000702  -0.001428 -0.167072 0.004214
22  6.027524 -0.000329 0.000203  1.482929 -0.371248 1.591655
23  0.000001 11.692099 -0.000007  -0.798730 -0.282834 -0.650587
24  0.000003 0.000009 -0.000001  -0.515490 -0.000031 1.570739
25  -0.000001 -0.000011 -0.000001  0.868957 0.000002 1.570712
26  -6.617934 -9.178503 0.826812  1.473120 1.855075 -0.198639
27  6.027512 -0.000261 -0.000226  1.634648 0.886885 -0.653394
28  11.691992 0.000242 0.000855  0.141447 0.000056 -1.626309
29  11.479348 -0.000868 0.000958  -1.246894 0.276954 0.800172
30  3.859436 -0.132788 1.193061  0.466149 -0.051826 -1.783918
31  1.312558 0.000026 -0.000001  -0.013965 -0.041044 -0.156447
32  0.729344 0.000066 -0.000028  -0.128320 -0.117290 -0.954857
33  3.942046 0.050109 0.430997  0.211501 -0.107596 -1.469120
34  1.539097 0.000009 -0.000000  0.040712 -0.054386 -1.030469
35  1.196300 0.000076 -0.000004  -0.249391 -0.043040 -0.795121
36  3.883411 -0.050502 -0.431087  0.186407 -0.271796 -1.212184
37  1.719563 -0.000079 -0.000004  0.020974 -0.107650 -1.483528
38  1.209197 0.000036 0.000011  -0.324719 0.069674 -0.493483
39  3.859585 -0.149111 -1.331324  -0.091989 -0.084950 -0.428162
40  1.719411 -0.000100 -0.000035  -0.011099 0.002764 -0.991772
41  1.099674 0.000023 0.000007  -0.005167 -0.008085 -0.788073
42  0.805979 -0.359854 -1.318338  0.991670 0.166767 -0.799535
43  1.789779 -0.000010 -0.000042  0.000057 -0.002451 0.133097
44  1.206996 -0.000006 0.000005  0.000372 -0.000070 1.058782
45  5.740571 0.000055 0.000725  0.140142 -0.000014 0.000021
46  11.480813 -0.000138 0.000941  0.047883 0.054317 0.137395
47  6.027514 -0.000273 -0.000238  -0.991066 -0.385867 -1.702629
48  -0.000001 11.691974 -0.000006  -1.103800 0.547323 0.855460
49  0.000003 -0.000001 0.000000  2.413975 -0.000041 1.570856
50  -0.000007 -0.000016 0.000005  2.272644 -0.000030 1.570865
51  -3.999938 -5.699518 -5.793504  -0.155026 -2.996958 1.484593
52  0.000000 -0.000000 0.000001  0.008153 -0.000259 0.000009
53  -0.000000 0.000000 -0.000000  1.565115 0.043565 -0.106862
54  -1.000518 -19.659801 -4.282434  -0.922463 0.146713 -1.801563
55  -0.000000 0.000001 -0.000000  0.000000 -0.000000 -0.000002
56  0.000032 0.000030 0.000001  -1.571901 -0.044449 -0.106509
57  7.202790 -19.259499 -17.055128  1.570796 -0.000000 0.000000
58  -15.417985 4.000748 -22.641926  1.570796 -0.000000 0.000000
59  2.236387 -2.421983 -5.367696  1.570796 -0.000000 0.000000
60  -0.004311 0.001230 -0.000371  0.006898 -0.005534 -0.284229
61  0.826810 10.209643 -4.879054  1.570796 -0.000000 0.000000
62  0.000000 0.000000 0.000000  -0.078727 -3.136056 0.284226
63  0.000000 0.000000 0.000000  1.570796 -0.000000 0.000000
64  -2.471923 -12.800662 -1.775183  1.578622 0.075806 0.008039
65  -0.109379 -1.951951 -1.519206  -0.000000 -0.000000 0.000000
66  -0.109379 0.057027 25.399250  -0.000000 -0.000000 0.000000
67  -0.109379 -1.856731 0.287228  -0.000000 -0.000000 0.000000
68  -0.104047 -4.495923 7.879275  -0.000000 -0.000000 0.000000
69  -0.195264 4.332630 -9.795805  -0.000000 -0.000000 0.000000
70  -1.290112 3.693283 8.579669  0.022713 -0.014049 -0.017451
71  -0.121470 -1.314581 7.402084  -0.000000 -0.000000 0.000000
72  -1.107528 -1.063453 4.061645  -0.000000 -0.000000 0.000000
73  0.003659 1.612363 10.733979  -0.000000 -0.000000 0.001927
74  -2.649211 -17.990858 -3.107949  1.578622 0.075806 0.008039
time 9
0  0.000006 0.000000 0.000000  -1.570800 -1.391899 -1.570792
1  -4.849906 3.337897 2.232070  -1.544956 -1.855077 -0.198630
2  6.027524 -0.000325 0.000192  -0.480962 -1.192840 -1.794301
3  11.692110 0.000643 -0.000739  -1.384569 -0.000002 -1.114773
4  11.480706 0.000708 -0.000203  1.485424 -0.938782 0.125519
5  3.859505 -0.142880 -1.192049  -0.507739 -0.034586 -1.573166
6  1.312590 0.000014 0.000008  -0.099219 -0.080836 -0.578266
7  0.729355 0.000053 0.000049  -0.083327 -0.106005 -0.262589
8  3.942142 0.046273 -0.431512  -0.423826 0.326055 -0.977403
9  1.539111 0.000085 0.000005  0.011526 -0.070624 -1.101829
10  1.196332 0.000146 0.000028  0.007038 -0.000117 -0.629733
11  3.883502 -0.047269 0.431382  -0.232037 0.533715 -0.537849
12  1.719573 -0.000026 0.000014  0.011709 -0.105542 -1.237432
13  1.209180 0.000093 0.000011  -0.006673 -0.001106 -0.502906
14  3.859660 -0.138475 1.332410  0.013813 0.511197 -0.350141
15  1.719450 -0.000011 0.000024  -0.022509 0.019639 -0.287088
16  1.099676 0.000048 0.000004  -0.286525 0.346051 -1.053593
17  0.770792 -0.901442 1.177685  -1.865794 -0.596008 -0.315192
18  1.789819 -0.000004 -0.000018  0.005558 0.090197 0.395774
19  1.207016 -0.000011 -0.000043  0.141886 -0.163086 0.233767
20  5.740637 0.000411 -0.000704  -0.070062 0.000003 0.000070
21  11.481147 0.000351 -0.000698  0.002331 -0.166903 0.005013
22  6.027524 -0.000329 0.000203  1.484027 -0.368412 1.584350
23  0.000001 11.692097 -0.000007  -0.794272 -0.279585 -0.647280
24  0.000004 0.000009 -0.000001  -0.515490 -0.000031 1.570739
25  -0.000001 -0.000011 -0.000001  0.868957 0.000002 1.570712
26  -6.617934 -9.178503 0.826812  1.473120 1.855075 -0.198639
27  6.027512 -0.000261 -0.000226  1.633776 0.889430 -0.653718
28  11.691991 0.000243 0.000856  0.141447 0.000055 -1.615314
29  11.479424 -0.000826 0.000950  -1.234267 0.274167 0.787226
30  3.859436 -0.132788 1.193062  0.466149 -0.051826 -1.783918
31  1.312558 0.000025 -0.000000  -0.013965 -0.041043 -0.156447
32  0.729345 0.000065 -0.000026  -0.128320 -0.117290 -0.954857
33  3.942046 0.050109 0.430998  0.211501 -0.107596 -1.469120
34  1.539096 0.000010 0.000000  0.040712 -0.054386 -1.030469
35  1.196302 0.000075 -0.000004  -0.249391 -0.043040 -0.795121
36  3.883412 -0.050502 -0.431087  0.186407 -0.271796 -1.212184
37  1.719564 -0.000079 -0.000003  0.020974 -0.107650 -1.483528
38  1.209197 0.000035 0.000011  -0.324719 0.069674 -0.493483
39  3.859585 -0.149112 -1.331323  -0.094938 -0.084955 -0.411363
40  1.719412 -0.000100 -0.000034  -0.011248 0.001677 -0.960922
41  1.099673 0.000026 0.000007  -0.004984 -0.008084 -0.787926
42  0.805978 -0.359854 -1.318338  0.991670 0.166767 -0.799535
43  1.789780 -0.000009 -0.000043  0.000057 -0.002451 0.133097
44  1.206997 -0.000006 0.000006  0.000372 -0.000070 1.058782
45  5.740572 0.000055 0.000722  0.140457 -0.000014 0.000021
46  11.480829 -0.000129 0.000939  0.050705 0.054350 0.134435
47  6.027514 -0.000273 -0.000238  -0.993744 -0.385074 -1.701269
48  -0.000002 11.691973 -0.000006  -1.097350 0.540996 0.851701
49  0.000003 0.000000 0.000000  2.413975 -0.000041 1.570856
50  -0.000007 -0.000016 0.000005  2.272644 -0.000030 1.570865
51  -4.010176 -5.794665 -5.833364  -0.141125 -2.994487 1.488864
52  0.000000 0.000000 0.000000  0.008153 -0.000259 0.000009
53  -0.000001 0.000000 0.000000  1.565115 0.043565 -0.106862
54  -0.944025 -19.730242 -4.230908  -0.908347 0.146220 -1.793213
55  -0.000001 -0.000000 0.000000  0.000000 -0.000000 -0.000002
56  0.000029 0.000029 0.000001  -1.571901 -0.044449 -0.106509
57  7.202790 -19.259499 -17.055128  1.570796 -0.000000 0.000000
58  -15.417985 4.000748 -22.641926  1.570796 -0.000000 0.000000
59  2.236387 -2.421983 -5.367696  1.570796 -0.000000 0.000000
60  -0.004311 0.001230 -0.000371  0.006898 -0.005534 -0.284229
61  0.826810 10.209643 -4.879054  1.570796 -0.000000 0.000000
62  0.000000 0.000000 0.000000  -0.078727 -3.136056 0.284226
63  0.000000 0.000000 0.000000  1.570796 -0.000000 0.000000
64  -2.492113 -12.871611 -1.768844  1.574847 0.062350 0.014069
65  -0.109379 -1.951952 -1.519206  0.000000 -0.000000 -0.000000
66  -0.109379 0.057027 25.399256  0.000000 -0.000000 -0.000000
67  -0.109378 -1.856732 0.287229  0.000000 -0.000000 -0.000000
68  -0.104047 -4.495924 7.879276  0.000000 -0.000000 -0.000000
69  -0.195264 4.332630 -9.795804  0.000000 -0.000000 -0.000000
70  -1.290112 3.693282 8.579669  0.022713 -0.014049 -0.017451
71  -0.121470 -1.314581 7.402088  0.000000 -0.000000 -0.000000
72  -1.107528 -1.063453 4.061649  0.000000 -0.000000 -0.000000
73  0.003659 1.612363 10.733983  -0.000000 -0.000000 -0.035728
74  -2.618857 -18.067554 -3.084877  1.574847 0.062350 0.014069
time 10
0  0.000006 0.000000 0.000000  -1.570800 -1.391899 -1.570792
1  -4.849906 3.337897 2.232070  -1.544956 -1.855077 -0.198630
2  6.027524 -0.000325 0.000192  -0.484622 -1.193999 -1.794603
3  11.692110 0.000644 -0.000738  -1.384570 -0.000003 -1.118997
4  11.480680 0.000706 -0.000219  1.506439 -0.945492 0.118652
5  3.859507 -0.142880 -1.192050  -0.507739 -0.034586 -1.573166
6  1.312590 0.000012 0.000008  -0.099219 -0.080836 -0.578266
7  0.729356 0.000052 0.000045  -0.083327 -0.106005 -0.262589
8  3.942142 0.046273 -0.431512  -0.423826 0.326055 -0.977403
9  1.539110 0.000085 0.000002  0.011526 -0.070624 -1.101829
10  1.196333 0.000144 0.000032  0.007038 -0.000117 -0.629733
11  3.883504 -0.047269 0.431381  -0.232037 0.533715 -0.537849
12  1.719572 -0.000026 0.000015  0.011709 -0.105542 -1.237432
13  1.209178 0.000092 0.000013  -0.006673 -0.001106 -0.502906
14  3.859661 -0.138476 1.332410  0.013813 0.511197 -0.350141
15  1.719450 -0.000010 0.000024  -0.022509 0.019639 -0.287088
16  1.099676 0.000049 0.000004  -0.286525 0.346051 -1.053593
17  0.770793 -0.901442 1.177686  -1.865794 -0.596008 -0.315192
18  1.789820 -0.000003 -0.000018  0.005558 0.090197 0.395774
19  1.207016 -0.000012 -0.000044  0.141886 -0.163086 0.233768
20  5.740638 0.000410 -0.000705  -0.067817 0.000003 0.000071
21  11.481142 0.000351 -0.000703  0.005585 -0.167991 0.005553
22  6.027524 -0.000329 0.000203  1.485722 -0.367599 1.580036
23  0.000002 11.692097 -0.000008  -0.796948 -0.281533 -0.649266
24  0.000003 0.000009 -0.000002  -0.515490 -0.000031 1.570739
25  -0.000001 -0.000011 -0.000001  0.868957 0.000002 1.570712
26  -6.617934 -9.178503 0.826812  1.473120 1.855075 -0.198639
27  6.027512 -0.000261 -0.000226  1.632645 0.887096 -0.654463
28  11.691992 0.000243 0.000855  0.141447 0.000055 -1.615401
29  11.479425 -0.000825 0.000951  -1.223484 0.273706 0.779529
30  3.859436 -0.132788 1.193062  0.466149 -0.051826 -1.783918
31  1.312558 0.000026 -0.000000  -0.013965 -0.041044 -0.156447
32  0.729345 0.000065 -0.000028  -0.128320 -0.117290 -0.954857
33  3.942046 0.050109 0.430997  0.211501 -0.107596 -1.469120
34  1.539097 0.000009 -0.000001  0.040712 -0.054386 -1.030469
35  1.196298 0.000076 -0.000004  -0.249391 -0.043040 -0.795120
36  3.883412 -0.050502 -0.431087  0.186407 -0.271796 -1.212184
37  1.719564 -0.000077 -0.000003  0.020974 -0.107650 -1.483528
38  1.209197 0.000036 0.000012  -0.324719 0.069674 -0.493483
39  3.859584 -0.149112 -1.331323  -0.094938 -0.084955 -0.411363
40  1.719412 -0.000099 -0.000034  -0.011248 0.001677 -0.960922
41  1.099674 0.000026 0.000006  -0.004984 -0.008084 -0.787926
42  0.805979 -0.359854 -1.318338  0.991670 0.166767 -0.799535
43  1.789779 -0.000010 -0.000042  0.000057 -0.002451 0.133097
44  1.206996 -0.000005 0.000005  0.000372 -0.000070 1.058781
45  5.740572 0.000056 0.000724  0.141839 -0.000014 0.000021
46  11.480830 -0.000129 0.000940  0.052906 0.054800 0.132509
47  6.027514 -0.000273 -0.000238  -0.991946 -0.386858 -1.701814
48  -0.000003 11.691975 -0.000006  -1.097401 0.541046 0.851731
49  0.000005 -0.000001 0.000000  2.413975 -0.000041 1.570856
50  -0.000007 -0.000016 0.000005  2.272644 -0.000030 1.570865
51  -4.022294 -5.796286 -5.869778  -0.129258 -2.990283 1.491984
52  0.000000 0.000000 -0.000000  0.008153 -0.000259 0.000009
53  0.000000 -0.000000 0.000000  1.565115 0.043565 -0.106862
54  -0.906940 -19.708269 -4.160744  -0.896013 0.143679 -1.786546
55  0.000002 -0.000001 0.000000  0.000000 -0.000000 -0.000002
56  0.000033 0.000028 0.000001  -1.571902 -0.044449 -0.106509
57  7.202790 -19.259499 -17.055128  1.570796 -0.000000 0.000000
58  -15.417985 4.000748 -22.641926  1.570796 -0.000000 0.000000
59  2.236387 -2.421983 -5.367696  1.570796 -0.000000 0.000000
60  -0.004311 0.001230 -0.000371  0.006898 -0.005534 -0.284229
61  0.826810 10.209643 -4.879054  1.570796 -0.000000 0.000000
62  0.000000 0.000000 0.000000  -0.078727 -3.136056 0.284226
63  0.000000 0.000000 0.000000  1.570796 -0.000000 0.000000
64  -2.516211 -12.844846 -1.751830  1.569521 0.051075 0.018652
65  -0.109379 -1.951951 -1.519205  0.000000 0.000000 -0.000000
66  -0.109379 0.057027 25.399246  0.000000 0.000000 -0.000000
67  -0.109379 -1.856731 0.287230  0.000000 0.000000 -0.000000
68  -0.104048 -4.495923 7.879276  0.000000 0.000000 -0.000000
69  -0.195264 4.332629 -9.795806  0.000000 0.000000 -0.000000
70  -1.290112 3.693283 8.579664  0.022713 -0.014049 -0.017451
71  -0.121471 -1.314581 7.402087  0.000000 0.000000 -0.000000
72  -1.107529 -1.063453 4.061648  0.000000 0.000000 -0.000000
73  0.003659 1.612363 10.733979  0.000000 -0.000000 -0.050324
74  -2.602750 -18.047998 -3.042388  1.569521 0.051075 0.018652
time 11
0  0.000006 0.000000 0.000000  -1.570800 -1.391899 -1.570792
1  -4.849906 3.337897 2.232070  -1.544956 -1.855077 -0.198630
2  6.027524 -0.000325 0.000192  -0.484281 -1.194827 -1.796654
3  11.692111 0.000644 -0.000739  -1.384570 -0.000003 -1.125079
4  11.480638 0.000701 -0.000237  1.518770 -0.950508 0.113010
5  3.859508 -0.142879 -1.192050  -0.507739 -0.034586 -1.573166
6  1.312589 0.000011 0.000007  -0.099219 -0.080836 -0.578266
7  0.729353 0.000054 0.000051  -0.083327 -0.106005 -0.262589
8  3.942141 0.046273 -0.431512  -0.423826 0.326055 -0.977403
9  1.539111 0.000085 0.000007  0.011526 -0.070624 -1.101829
10  1.196333 0.000146 0.000030  0.007038 -0.000117 -0.629733
11  3.883505 -0.047269 0.431382  -0.232037 0.533715 -0.537849
12  1.719572 -0.000027 0.000016  0.011709 -0.105542 -1.237432
13  1.209179 0.000093 0.000013  -0.006673 -0.001106 -0.502906
14  3.859662 -0.138475 1.332410  0.013813 0.511197 -0.350141
15  1.719450 -0.000010 0.000024  -0.022509 0.019639 -0.287088
16  1.099676 0.000045 0.000004  -0.286525 0.346051 -1.053593
17  0.770794 -0.901442 1.177686  -1.865794 -0.596008 -0.315192
18  1.789821 -0.000003 -0.000018  0.005558 0.090197 0.395774
19  1.207018 -0.000012 -0.000043  0.141886 -0.163086 0.233767
20  5.740638 0.000411 -0.000702  -0.067530 0.000003 0.000070
21  11.481133 0.000350 -0.000705  0.007392 -0.168852 0.005578
22  6.027524 -0.000329 0.000203  1.485796 -0.366765 1.578275
23  0.000003 11.692099 -0.000008  -0.800797 -0.284346 -0.652118
24  0.000003 0.000009 -0.000001  -0.515490 -0.000030 1.570738
25  -0.000000 -0.000011 -0.000002  0.868957 0.000002 1.570712
26  -6.617934 -9.178503 0.826812  1.473120 1.855075 -0.198639
27  6.027512 -0.000261 -0.000226  1.632083 0.883280 -0.654982
28  11.691989 0.000243 0.000855  0.141447 0.000056 -1.619904
29  11.479395 -0.000843 0.000953  -1.219388 0.275459 0.774472
30  3.859436 -0.132787 1.193061  0.466149 -0.051826 -1.783918
31  1.312558 0.000026 0.000000  -0.013965 -0.041043 -0.156447
32  0.729345 0.000065 -0.000027  -0.128320 -0.117290 -0.954857
33  3.942046 0.050108 0.430996  0.211501 -0.107596 -1.469120
34  1.539097 0.000009 -0.000001  0.040712 -0.054386 -1.030469
35  1.196299 0.000076 -0.000004  -0.249391 -0.043040 -0.795121
36  3.883411 -0.050502 -0.431088  0.186407 -0.271796 -1.212184
37  1.719564 -0.000080 -0.000003  0.020974 -0.107650 -1.483528
38  1.209197 0.000036 0.000010  -0.324719 0.069674 -0.493483
39  3.859585 -0.149112 -1.331324  -0.094938 -0.084955 -0.411363
40  1.719411 -0.000099 -0.000034  -0.011248 0.001677 -0.960922
41  1.099673 0.000024 0.000006  -0.004984 -0.008084 -0.787926
42  0.805978 -0.359854 -1.318339  0.991670 0.166767 -0.799535
43  1.789779 -0.000009 -0.000042  0.000057 -0.002451 0.133097
44  1.206995 -0.000006 0.000006  0.000372 -0.000070 1.058782
45  5.740574 0.000055 0.000724  0.142555 -0.000014 0.000021
46  11.480825 -0.000133 0.000939  0.053640 0.055278 0.131289
47  6.027514 -0.000273 -0.000238  -0.988567 -0.389073 -1.703176
48  -0.000001 11.691974 -0.000005  -1.100043 0.543635 0.853274
49  0.000002 -0.000002 0.000000  2.413975 -0.000041 1.570856
50  -0.000006 -0.000015 0.000006  2.272644 -0.000030 1.570865
51  -4.036334 -5.760297 -5.894590  -0.123892 -2.984680 1.493141
52  0.000000 0.000000 0.000000  0.008153 -0.000259 0.000009
53  -0.000000 -0.000000 -0.000001  1.565115 0.043565 -0.106862
54  -0.901967 -19.655537 -4.086981  -0.889940 0.138847 -1.783711
55  -0.000001 0.000000 -0.000000  0.000000 -0.000000 -0.000002
56  0.000031 0.000030 0.000001  -1.571901 -0.044449 -0.106509
57  7.202790 -19.259499 -17.055128  1.570796 -0.000000 0.000000
58  -15.417985 4.000748 -22.641926  1.570796 -0.000000 0.000000
59  2.236387 -2.421983 -5.367696  1.570796 -0.000000 0.000000
60  -0.004311 0.001230 -0.000371  0.006898 -0.005534 -0.284229
61  0.826810 10.209643 -4.879054  1.570796 -0.000000 0.000000
62  0.000000 0.000000 0.000000  -0.078727 -3.136056 0.284226
63  0.000000 0.000000 0.000000  1.570796 -0.000000 0.000000
64  -2.536401 -12.781023 -1.727146  1.563420 0.046345 0.020335
65  -0.109378 -1.951951 -1.519205  0.000000 -0.000000 -0.000000
66  -0.109379 0.057027 25.399254  0.000000 -0.000000 -0.000000
67  -0.109378 -1.856732 0.287228  0.000000 -0.000000 -0.000000
68  -0.104048 -4.495923 7.879274  0.000000 -0.000000 -0.000000
69  -0.195264 4.332630 -9.795804  0.000000 -0.000000 -0.000000
70  -1.290112 3.693283 8.579671  0.022713 -0.014049 -0.017451
71  -0.121470 -1.314581 7.402088  0.000000 -0.000000 -0.000000
72  -1.107528 -1.063453 4.061647  0.000000 -0.000000 -0.000000
73  0.003659 1.612363 10.733981  0.000000 -0.000000 -0.034255
74  -2.606446 -17.991982 -2.986839  1.563420 0.046345 0.020335
time 12
0  0.000006 0.000000 0.000000  -1.570800 -1.391899 -1.570792
1  -4.849906 3.337897 2.232070  -1.544956 -1.855077 -0.198630
2  6.027524 -0.000325 0.000192  -0.481405 -1.195522 -1.799996
3  11.692110 0.000644 -0.000740  -1.384570 -0.000003 -1.131108
4  11.480598 0.000699 -0.000256  1.523262 -0.952953 0.108761
5  3.859510 -0.142879 -1.192049  -0.507739 -0.034586 -1.573166
6  1.312591 0.000014 0.000006  -0.099219 -0.080836 -0.578266
7  0.729355 0.000054 0.000051  -0.083327 -0.106005 -0.262589
8  3.942143 0.046273 -0.431512  -0.423826 0.326055 -0.977403
9  1.539111 0.000084 0.000005  0.011527 -0.070624 -1.101829
10  1.196334 0.000146 0.000026  0.007038 -0.000117 -0.629733
11  3.883507 -0.047269 0.431382  -0.232037 0.533715 -0.537849
12  1.719572 -0.000028 0.000018  0.011709 -0.105542 -1.237432
13  1.209180 0.000091 0.000013  -0.006673 -0.001106 -0.502906
14  3.859662 -0.138475 1.332410  0.013813 0.511197 -0.350141
15  1.719448 -0.000011 0.000023  -0.022509 0.019639 -0.287088
16  1.099675 0.000047 0.000007  -0.286525 0.346051 -1.053593
17  0.770795 -0.901442 1.177686  -1.865794 -0.596008 -0.315192
18  1.789818 -0.000003 -0.000020  0.005558 0.090197 0.395774
19  1.207017 -0.000012 -0.000044  0.141886 -0.163086 0.233768
20  5.740636 0.000411 -0.000705  -0.068645 0.000003 0.000071
21  11.481126 0.000350 -0.000711  0.007906 -0.169292 0.005184
22  6.027524 -0.000329 0.000203  1.484871 -0.365843 1.577941
23  0.000000 11.692099 -0.000008  -0.804606 -0.287145 -0.654936
24  0.000002 0.000008 -0.000001  -0.515490 -0.000031 1.570738
25  -0.000001 -0.000011 -0.000002  0.868957 0.000002 1.570712
26  -6.617934 -9.178503 0.826812  1.473120 1.855075 -0.198639
27  6.027512 -0.000261 -0.000226  1.632000 0.879447 -0.655243
28  11.691991 0.000243 0.000856  0.141447 0.000056 -1.626079
29  11.479351 -0.000865 0.000955  -1.221475 0.278449 0.771164
30  3.859436 -0.132787 1.193062  0.466149 -0.051826 -1.783918
31  1.312558 0.000026 -0.000000  -0.013965 -0.041044 -0.156447
32  0.729345 0.000065 -0.000028  -0.128320 -0.117290 -0.954857
33  3.942046 0.050109 0.430997  0.211501 -0.107596 -1.469120
34  1.539097 0.000008 0.000000  0.040712 -0.054386 -1.030469
35  1.196301 0.000076 -0.000005  -0.249391 -0.043040 -0.795120
36  3.883411 -0.050502 -0.431087  0.186407 -0.271796 -1.212184
37  1.719563 -0.000078 -0.000003  0.020974 -0.107650 -1.483528
38  1.209198 0.000035 0.000011  -0.324719 0.069674 -0.493483
39  3.859586 -0.149111 -1.331323  -0.094938 -0.084955 -0.411363
40  1.719411 -0.000100 -0.000035  -0.011248 0.001677 -0.960922
41  1.099673 0.000025 0.000006  -0.004984 -0.008084 -0.787926
42  0.805979 -0.359854 -1.318338  0.991670 0.166767 -0.799535
43  1.789779 -0.000009 -0.000042  0.000057 -0.002451 0.133097
44  1.206996 -0.000005 0.000005  0.000372 -0.000070 1.058782
45  5.740573 0.000054 0.000723  0.142403 -0.000014 0.000021
46  11.480815 -0.000138 0.000941  0.053090 0.055623 0.130612
47  6.027514 -0.000273 -0.000238  -0.985003 -0.391029 -1.704728
48  -0.000004 11.691974 -0.000006  -1.103666 0.547191 0.855382
49  0.000002 -0.000001 -0.000000  2.413975 -0.000041 1.570856
50  -0.000008 -0.000016 0.000005  2.272644 -0.000030 1.570865
51  -4.048182 -5.709408 -5.906342  -0.124615 -2.978485 1.493026
52  0.000000 -0.000000 0.000000  0.008153 -0.000259 0.000009
53  -0.000000 0.000000 -0.000000  1.565115 0.043565 -0.106862
54  -0.914804 -19.594057 -4.017455  -0.889810 0.132613 -1.783923
55  -0.000002 0.000000 -0.000000  0.000000 -0.000000 -0.000002
56  0.000028 0.000029 0.000001  -1.571901 -0.044449 -0.106509
57  7.202790 -19.259499 -17.055128  1.570796 -0.000000 0.000000
58  -15.417985 4.000748 -22.641926  1.570796 -0.000000 0.000000
59  2.236387 -2.421983 -5.367696  1.570796 -0.000000 0.000000
60  -0.004311 0.001230 -0.000371  0.006898 -0.005534 -0.284229
61  0.826810 10.209643 -4.879054  1.570796 -0.000000 0.000000
62  0.000000 0.000000 0.000000  -0.078727 -3.136056 0.284226
63  0.000000 0.000000 0.000000  1.570796 -0.000000 0.000000
64  -2.544868 -12.704848 -1.697795  1.557318 0.047660 0.019819
65  -0.109379 -1.951951 -1.519204  0.000000 -0.000000 -0.000000
66  -0.109379 0.057027 25.399250  0.000000 -0.000000 -0.000000
67  -0.109379 -1.856732 0.287230  0.000000 -0.000000 -0.000000
68  -0.104047 -4.495923 7.879274  0.000000 -0.000000 -0.000000
69  -0.195264 4.332630 -9.795806  0.000000 -0.000000 -0.000000
70  -1.290112 3.693283 8.579667  0.022713 -0.014049 -0.017451
71  -0.121470 -1.314581 7.402088  0.000000 -0.000000 -0.000000
72  -1.107528 -1.063453 4.061647  0.000000 -0.000000 -0.000000
73  0.003659 1.612363 10.733984  0.000000 0.000000 -0.004401
74  -2.617594 -17.923403 -2.925486  1.557318 0.047660 0.019819
time 13
0  0.000006 0.000000 0.000000  -1.570800 -1.391899 -1.570792
1  -4.849906 3.337897 2.232070  -1.544956 -1.855077 -0.198630
2  6.027524 -0.000325 0.000192  -0.478457 -1.196324 -1.803623
3  11.692110 0.000643 -0.000739  -1.384571 -0.000003 -1.135848
4  11.480568 0.000696 -0.000270  1.525409 -0.954118 0.105484
5  3.859510 -0.142880 -1.192050  -0.507739 -0.034586 -1.573166
6  1.312590 0.000013 0.000007  -0.099219 -0.080836 -0.578266
7  0.729354 0.000054 0.000050  -0.083327 -0.106005 -0.262589
8  3.942145 0.046273 -0.431512  -0.423826 0.326055 -0.977403
9  1.539111 0.000085 0.000004  0.011526 -0.070624 -1.101829
10  1.196333 0.000145 0.000029  0.007038 -0.000117 -0.629733
11  3.883507 -0.047269 0.431382  -0.232037 0.533715 -0.537849
12  1.719572 -0.000027 0.000018  0.011709 -0.105542 -1.237432
13  1.209180 0.000091 0.000015  -0.006673 -0.001106 -0.502906
14  3.859664 -0.138476 1.332410  0.013813 0.511197 -0.350141
15  1.719448 -0.000012 0.000024  -0.022509 0.019639 -0.287088
16  1.099675 0.000048 0.000007  -0.286525 0.346051 -1.053593
17  0.770796 -0.901442 1.177686  -1.865794 -0.596007 -0.315192
18  1.789817 -0.000003 -0.000019  0.005558 0.090197 0.395774
19  1.207015 -0.000012 -0.000044  0.141886 -0.163086 0.233767
20  5.740637 0.000410 -0.000703  -0.069875 0.000003 0.000071
21  11.481118 0.000349 -0.000711  0.008064 -0.169503 0.004770
22  6.027524 -0.000329 0.000203  1.483950 -0.364810 1.577386
23  0.000003 11.692097 -0.000007  -0.807598 -0.289354 -0.657146
24  0.000003 0.000008 -0.000001  -0.515490 -0.000030 1.570739
25  -0.000001 -0.000011 -0.000001  0.868957 0.000002 1.570712
26  -6.617934 -9.178503 0.826812  1.473120 1.855075 -0.198639
27  6.027512 -0.000261 -0.000226  1.632138 0.876791 -0.655321
28  11.691991 0.000243 0.000856  0.141447 0.000056 -1.631112
29  11.479317 -0.000884 0.000958  -1.225112 0.281163 0.768518
30  3.859436 -0.132788 1.193062  0.466149 -0.051826 -1.783918
31  1.312558 0.000026 -0.000000  -0.013965 -0.041044 -0.156447
32  0.729345 0.000065 -0.000027  -0.128320 -0.117290 -0.954857
33  3.942045 0.050109 0.430997  0.211501 -0.107596 -1.469120
34  1.539097 0.000010 -0.000000  0.040712 -0.054386 -1.030469
35  1.196299 0.000076 -0.000004  -0.249391 -0.043040 -0.795120
36  3.883411 -0.050502 -0.431087  0.186407 -0.271796 -1.212184
37  1.719563 -0.000080 -0.000003  0.020974 -0.107650 -1.483528
38  1.209197 0.000035 0.000011  -0.324719 0.069674 -0.493483
39  3.859585 -0.149111 -1.331323  -0.094938 -0.084955 -0.411363
40  1.719411 -0.000100 -0.000035  -0.011248 0.001677 -0.960922
41  1.099673 0.000025 0.000006  -0.004984 -0.008084 -0.787926
42  0.805978 -0.359854 -1.318338  0.991669 0.166767 -0.799535
43  1.789780 -0.000008 -0.000042  0.000057 -0.002451 0.133097
44  1.206997 -0.000006 0.000005  0.000372 -0.000070 1.058782
45  5.740573 0.000055 0.000723  0.141971 -0.000014 0.000021
46  11.480808 -0.000141 0.000941  0.052258 0.055832 0.130138
47  6.027514 -0.000273 -0.000238  -0.982463 -0.392274 -1.705881
48  -0.000001 11.691973 -0.000006  -1.106617 0.550094 0.857092
49  0.000002 -0.000002 -0.000000  2.413975 -0.000041 1.570856
50  -0.000007 -0.000016 0.000005  2.272644 -0.000030 1.570865
51  -4.055166 -5.667365 -5.908660  -0.127011 -2.972910 1.492806
52  -0.000000 0.000000 0.000000  0.008153 -0.000259 0.000009
53  -0.000000 0.000000 0.000000  1.565115 0.043565 -0.106862
54  -0.924985 -19.543615 -3.953917  -0.891411 0.126770 -1.784746
55  -0.000002 0.000000 -0.000001  0.000000 -0.000000 -0.000002
56  0.000028 0.000029 0.000001  -1.571902 -0.044449 -0.106509
57  7.202790 -19.259499 -17.055128  1.570796 -0.000000 0.000000
58  -15.417985 4.000748 -22.641926  1.570796 -0.000000 0.000000
59  2.236387 -2.421983 -5.367696  1.570796 -0.000000 0.000000
60  -0.004311 0.001230 -0.000371  0.006898 -0.005534 -0.284229
61  0.826810 10.209643 -4.879054  1.570796 -0.000000 0.000000
62  0.000000 0.000000 0.000000  -0.078727 -3.136056 0.284226
63  0.000000 0.000000 0.000000  1.570796 -0.000000 0.000000
64  -2.544371 -12.641026 -1.666782  1.551992 0.050553 0.018941
65  -0.109379 -1.951951 -1.519205  0.000000 -0.000000 -0.000000
66  -0.109379 0.057027 25.399258  0.000000 -0.000000 -0.000000
67  -0.109378 -1.856731 0.287229  0.000000 -0.000000 -0.000000
68  -0.104048 -4.495924 7.879276  0.000000 -0.000000 -0.000000
69  -0.195264 4.332630 -9.795807  0.000000 -0.000000 -0.000000
70  -1.290112 3.693283 8.579667  0.022713 -0.014049 -0.017451
71  -0.121470 -1.314581 7.402088  0.000000 -0.000000 -0.000000
72  -1.107528 -1.063453 4.061647  0.000000 -0.000000 -0.000000
73  0.003659 1.612363 10.733982  0.000000 -0.000000 0.011675
74  -2.623702 -17.866055 -2.866199  1.551992 0.050553 0.018941
time 14
0  0.000006 0.000000 0.000000  -1.570800 -1.391899 -1.570792
1  -4.849906 3.337897 2.232070  -1.544956 -1.855077 -0.198630
2  6.027524 -0.000325 0.000192  -0.473338 -1.197710 -1.809911
3  11.692110 0.000644 -0.000738  -1.384570 -0.000003 -1.136048
4  11.480567 0.000696 -0.000270  1.526227 -0.952833 0.103410
5  3.859509 -0.142879 -1.192049  -0.507739 -0.034586 -1.573166
6  1.312588 0.000012 0.000010  -0.099219 -0.080836 -0.578266
7  0.729354 0.000054 0.000051  -0.083327 -0.106005 -0.262589
8  3.942141 0.046273 -0.431512  -0.423826 0.326055 -0.977403
9  1.539111 0.000084 0.000004  0.011526 -0.070624 -1.101829
10  1.196334 0.000144 0.000030  0.007038 -0.000117 -0.629733
11  3.883504 -0.047269 0.431381  -0.232037 0.533715 -0.537849
12  1.719575 -0.000027 0.000015  0.011709 -0.105542 -1.237432
13  1.209179 0.000091 0.000010  -0.006674 -0.001106 -0.502906
14  3.859661 -0.138475 1.332410  0.013813 0.511197 -0.350141
15  1.719446 -0.000012 0.000021  -0.022509 0.019639 -0.287088
16  1.099676 0.000049 0.000005  -0.286525 0.346051 -1.053593
17  0.770795 -0.901442 1.177686  -1.865794 -0.596007 -0.315192
18  1.789818 -0.000003 -0.000018  0.005558 0.090197 0.395774
19  1.207017 -0.000012 -0.000042  0.141886 -0.163086 0.233767
20  5.740636 0.000410 -0.000703  -0.070477 0.000003 0.000071
21  11.481118 0.000349 -0.000712  0.008037 -0.169240 0.004476
22  6.027524 -0.000329 0.000203  1.482364 -0.363016 1.576428
23  0.000002 11.692099 -0.000008  -0.807725 -0.289447 -0.657239
24  0.000002 0.000009 0.000001  -0.515490 -0.000031 1.570738
25  -0.000001 -0.000011 -0.000001  0.868957 0.000002 1.570712
26  -6.617934 -9.178503 0.826812  1.473120 1.855075 -0.198639
27  6.027512 -0.000261 -0.000226  1.632838 0.876366 -0.654974
28  11.691991 0.000244 0.000856  0.141447 0.000057 -1.632506
29  11.479305 -0.000887 0.000958  -1.228720 0.282958 0.766003
30  3.859436 -0.132787 1.193063  0.466149 -0.051826 -1.783918
31  1.312558 0.000026 -0.000000  -0.013965 -0.041044 -0.156447
32  0.729345 0.000067 -0.000028  -0.128320 -0.117290 -0.954857
33  3.942046 0.050109 0.430998  0.211501 -0.107596 -1.469120
34  1.539097 0.000009 0.000000  0.040712 -0.054386 -1.030469
35  1.196300 0.000076 -0.000004  -0.249391 -0.043040 -0.795120
36  3.883411 -0.050502 -0.431086  0.186407 -0.271796 -1.212184
37  1.719563 -0.000079 -0.000003  0.020974 -0.107650 -1.483528
38  1.209198 0.000035 0.000011  -0.324719 0.069674 -0.493483
39  3.859584 -0.149112 -1.331323  -0.094938 -0.084955 -0.411363
40  1.719411 -0.000100 -0.000035  -0.011248 0.001677 -0.960922
41  1.099673 0.000025 0.000006  -0.004984 -0.008084 -0.787926
42  0.805978 -0.359854 -1.318338  0.991670 0.166767 -0.799535
43  1.789779 -0.000010 -0.000042  0.000057 -0.002451 0.133097
44  1.206996 -0.000006 0.000005  0.000372 -0.000070 1.058782
45  5.740572 0.000056 0.000724  0.141324 -0.000014 0.000021
46  11.480804 -0.000140 0.000941  0.051499 0.055874 0.129721
47  6.027514 -0.000273 -0.000238  -0.981823 -0.392097 -1.706317
48  -0.000001 11.691974 -0.000006  -1.107435 0.550899 0.857564
49  0.000002 -0.000001 0.000000  2.413975 -0.000041 1.570856
50  -0.000007 -0.000016 0.000006  2.272644 -0.000030 1.570865
51  -4.059866 -5.655520 -5.901299  -0.129565 -2.968885 1.492374
52  -0.000001 0.000000 0.000000  0.008153 -0.000259 0.000009
53  -0.000000 -0.000000 0.000001  1.565115 0.043565 -0.106862
54  -0.936109 -19.526934 -3.902439  -0.893373 0.122440 -1.785856
55  -0.000002 0.000000 -0.000001  0.000000 -0.000000 -0.000002
56  0.000029 0.000029 0.000001  -1.571901 -0.044449 -0.106509
57  7.202790 -19.259499 -17.055128  1.570796 -0.000000 0.000000
58  -15.417985 4.000748 -22.641926  1.570796 -0.000000 0.000000
59  2.236387 -2.421983 -5.367696  1.570796 -0.000000 0.000000
60  -0.004311 0.001230 -0.000371  0.006898 -0.005534 -0.284229
61  0.826810 10.209643 -4.879054  1.570796 -0.000000 0.000000
62  0.000000 0.000000 0.000000  -0.078727 -3.136056 0.284226
63  0.000000 0.000000 0.000000  1.570796 -0.000000 0.000000
64  -2.543090 -12.614262 -1.637111  1.548224 0.053447 0.017880
65  -0.109379 -1.951951 -1.519204  -0.000000 0.000000 0.000000
66  -0.109379 0.057027 25.399252  -0.000000 0.000000 0.000000
67  -0.109379 -1.856732 0.287230  -0.000000 0.000000 0.000000
68  -0.104047 -4.495924 7.879277  -0.000000 0.000000 0.000000
69  -0.195264 4.332630 -9.795810  -0.000000 0.000000 0.000000
70  -1.290112 3.693283 8.579667  0.022713 -0.014049 -0.017451
71  -0.121470 -1.314582 7.402089  -0.000000 0.000000 0.000000
72  -1.107528 -1.063453 4.061647  -0.000000 0.000000 0.000000
73  0.003659 1.612363 10.733985  0.000000 0.000000 0.004786
74  -2.630302 -17.843758 -2.816344  1.548224 0.053447 0.017880
time 15
0  0.000006 0.000000 0.000000  -1.570800 -1.391899 -1.570792
1  -4.849906 3.337897 2.232070  -1.544956 -1.855077 -0.198630
2  6.027524 -0.000325 0.000192  -0.468183 -1.199160 -1.816390
3  11.692111 0.000644 -0.000740  -1.384570 -0.000003 -1.133401
4  11.480584 0.000697 -0.000265  1.526150 -0.950823 0.103510
5  3.859508 -0.142880 -1.192049  -0.507739 -0.034586 -1.573166
6  1.312590 0.000011 0.000008  -0.099219 -0.080836 -0.578266
7  0.729355 0.000054 0.000051  -0.083327 -0.106005 -0.262589
8  3.942142 0.046273 -0.431512  -0.423826 0.326055 -0.977403
9  1.539111 0.000084 0.000005  0.011526 -0.070624 -1.101829
10  1.196333 0.000144 0.000030  0.007038 -0.000117 -0.629733
11  3.883502 -0.047269 0.431381  -0.232037 0.533715 -0.537849
12  1.719574 -0.000027 0.000015  0.011709 -0.105542 -1.237432
13  1.209180 0.000092 0.000013  -0.006673 -0.001106 -0.502906
14  3.859661 -0.138475 1.332410  0.013813 0.511197 -0.350141
15  1.719448 -0.000012 0.000022  -0.022509 0.019639 -0.287088
16  1.099675 0.000047 0.000006  -0.286525 0.346051 -1.053593
17  0.770793 -0.901442 1.177686  -1.865794 -0.596007 -0.315192
18  1.789820 -0.000003 -0.000017  0.005558 0.090197 0.395774
19  1.207017 -0.000012 -0.000041  0.141886 -0.163086 0.233767
20  5.740637 0.000409 -0.000705  -0.070388 0.000003 0.000070
21  11.481123 0.000349 -0.000711  0.007997 -0.168841 0.004504
22  6.027524 -0.000329 0.000203  1.480799 -0.361151 1.575305
23  0.000002 11.692100 -0.000007  -0.806054 -0.288213 -0.656006
24  0.000003 0.000008 0.000000  -0.515490 -0.000031 1.570739
25  -0.000001 -0.000011 -0.000001  0.868957 0.000002 1.570712
26  -6.617934 -9.178503 0.826812  1.473120 1.855075 -0.198639
27  6.027512 -0.000261 -0.000226  1.633644 0.877862 -0.654460
28  11.691989 0.000243 0.000855  0.141447 0.000056 -1.631389
29  11.479314 -0.000883 0.000958  -1.230394 0.283888 0.765339
30  3.859437 -0.132787 1.193062  0.466149 -0.051826 -1.783918
31  1.312558 0.000026 0.000001  -0.013965 -0.041043 -0.156447
32  0.729345 0.000066 -0.000027  -0.128320 -0.117290 -0.954857
33  3.942046 0.050109 0.430997  0.211501 -0.107596 -1.469120
34  1.539097 0.000010 0.000000  0.040712 -0.054386 -1.030469
35  1.196300 0.000075 -0.000004  -0.249391 -0.043040 -0.795121
36  3.883412 -0.050502 -0.431087  0.186407 -0.271796 -1.212184
37  1.719563 -0.000078 -0.000003  0.020974 -0.107650 -1.483528
38  1.209198 0.000035 0.000011  -0.324719 0.069674 -0.493483
39  3.859586 -0.149111 -1.331323  -0.094938 -0.084955 -0.411363
40  1.719413 -0.000099 -0.000034  -0.011248 0.001677 -0.960922
41  1.099674 0.000026 0.000006  -0.004984 -0.008084 -0.787926
42  0.805979 -0.359854 -1.318338  0.991670 0.166767 -0.799535
43  1.789779 -0.000009 -0.000042  0.000057 -0.002451 0.133097
44  1.206996 -0.000006 0.000005  0.000372 -0.000070 1.058782
45  5.740571 0.000055 0.000723  0.141076 -0.000014 0.000021
46  11.480806 -0.000141 0.000941  0.051130 0.055925 0.129624
47  6.027514 -0.000273 -0.000238  -0.982951 -0.390907 -1.705992
48  -0.000001 11.691973 -0.000007  -1.106780 0.550254 0.857185
49  0.000003 -0.000002 -0.000000  2.413975 -0.000041 1.570856
50  -0.000007 -0.000016 0.000005  2.272644 -0.000030 1.570865
51  -4.056984 -5.664081 -5.884110  -0.130755 -2.967337 1.491625
52  -0.000001 0.000000 0.000001  0.008153 -0.000259 0.000009
53  0.000000 0.000000 0.000000  1.565115 0.043565 -0.106862
54  -0.943872 -19.535559 -3.869150  -0.894330 0.120747 -1.786926
55  -0.000001 -0.000000 -0.000001  0.000000 -0.000000 -0.000002
56  0.000030 0.000028 0.000001  -1.571902 -0.044449 -0.106509
57  7.202790 -19.259499 -17.055128  1.570796 -0.000000 0.000000
58  -15.417985 4.000748 -22.641926  1.570796 -0.000000 0.000000
59  2.236387 -2.421983 -5.367696  1.570796 -0.000000 0.000000
60  -0.004311 0.001230 -0.000371  0.006898 -0.005534 -0.284229
61  0.826810 10.209643 -4.879054  1.570796 -0.000000 0.000000
62  0.000000 0.000000 0.000000  -0.078727 -3.136056 0.284226
63  0.000000 0.000000 0.000000  1.570796 -0.000000 0.000000
64  -2.541338 -12.618076 -1.611786  1.546794 0.054762 0.016848
65  -0.109379 -1.951951 -1.519205  -0.000000 -0.000000 0.000000
66  -0.109379 0.057027 25.399252  -0.000000 -0.000000 0.000000
67  -0.109379 -1.856732 0.287230  -0.000000 -0.000000 0.000000
68  -0.104048 -4.495923 7.879276  -0.000000 -0.000000 0.000000
69  -0.195264 4.332631 -9.795806  -0.000000 -0.000000 0.000000
70  -1.290112 3.693283 8.579669  0.022713 -0.014049 -0.017451
71  -0.121470 -1.314581 7.402087  -0.000000 -0.000000 0.000000
72  -1.107528 -1.063453 4.061647  -0.000000 -0.000000 0.000000
73  0.003659 1.612363 10.733984  0.000000 -0.000000 -0.008007
74  -2.635057 -17.849190 -2.783315  1.546794 0.054762 0.016848
time 16
0  0.000006 0.000000 0.000000  -1.570800 -1.391899 -1.570792
1  -4.849906 3.337897 2.232070  -1.544956 -1.855077 -0.198630
2  6.027524 -0.000325 0.000192  -0.465141 -1.200008 -1.820210
3  11.692111 0.000643 -0.000739  -1.384570 -0.000003 -1.131317
4  11.480597 0.000698 -0.000254  1.525299 -0.949975 0.105327
5  3.859506 -0.142880 -1.192050  -0.507739 -0.034586 -1.573166
6  1.312590 0.000012 0.000009  -0.099219 -0.080836 -0.578266
7  0.729355 0.000054 0.000049  -0.083327 -0.106005 -0.262589
8  3.942142 0.046273 -0.431512  -0.423826 0.326055 -0.977403
9  1.539111 0.000084 0.000007  0.011526 -0.070624 -1.101829
10  1.196332 0.000146 0.000027  0.007038 -0.000117 -0.629733
11  3.883504 -0.047269 0.431381  -0.232037 0.533715 -0.537849
12  1.719574 -0.000028 0.000015  0.011709 -0.105542 -1.237432
13  1.209179 0.000094 0.000013  -0.006673 -0.001106 -0.502906
14  3.859660 -0.138476 1.332409  0.013813 0.511197 -0.350141
15  1.719448 -0.000012 0.000023  -0.022509 0.019639 -0.287088
16  1.099678 0.000047 0.000005  -0.286525 0.346051 -1.053593
17  0.770793 -0.901442 1.177686  -1.865794 -0.596007 -0.315192
18  1.789818 -0.000003 -0.000020  0.005558 0.090197 0.395774
19  1.207013 -0.000011 -0.000044  0.141886 -0.163086 0.233768
20  5.740636 0.000411 -0.000702  -0.070143 0.000003 0.000071
21  11.481125 0.000349 -0.000707  0.007963 -0.168679 0.004766
22  6.027524 -0.000329 0.000203  1.479882 -0.360055 1.574642
23  0.000002 11.692100 -0.000007  -0.804739 -0.287243 -0.655034
24  0.000004 0.000008 -0.000001  -0.515490 -0.000031 1.570739
25  -0.000001 -0.000011 -0.000001  0.868957 0.000002 1.570712
26  -6.617934 -9.178503 0.826812  1.473120 1.855075 -0.198639
27  6.027512 -0.000261 -0.000226  1.634144 0.879634 -0.654090
28  11.691992 0.000244 0.000855  0.141447 0.000056 -1.630494
29  11.479319 -0.000879 0.000958  -1.230165 0.284400 0.767039
30  3.859436 -0.132787 1.193062  0.466149 -0.051826 -1.783918
31  1.312558 0.000025 -0.000000  -0.013965 -0.041044 -0.156447
32  0.729346 0.000066 -0.000027  -0.128320 -0.117290 -0.954857
33  3.942046 0.050109 0.430997  0.211501 -0.107596 -1.469120
34  1.539097 0.000011 0.000000  0.040712 -0.054386 -1.030469
35  1.196300 0.000075 -0.000004  -0.249391 -0.043040 -0.795120
36  3.883411 -0.050501 -0.431087  0.186407 -0.271796 -1.212184
37  1.719563 -0.000080 -0.000004  0.020974 -0.107650 -1.483528
38  1.209197 0.000035 0.000012  -0.324719 0.069674 -0.493483
39  3.859585 -0.149112 -1.331323  -0.094938 -0.084955 -0.411363
40  1.719411 -0.000099 -0.000034  -0.011248 0.001677 -0.960922
41  1.099673 0.000026 0.000006  -0.004984 -0.008084 -0.787926
42  0.805979 -0.359854 -1.318338  0.991670 0.166767 -0.799535
43  1.789779 -0.000009 -0.000042  0.000057 -0.002451 0.133097
44  1.206997 -0.000006 0.000005  0.000372 -0.000070 1.058782
45  5.740572 0.000056 0.000724  0.141422 -0.000014 0.000021
46  11.480807 -0.000138 0.000942  0.051101 0.056076 0.129934
47  6.027514 -0.000273 -0.000238  -0.984444 -0.389751 -1.705439
48  -0.000000 11.691975 -0.000005  -1.106255 0.549738 0.856882
49  0.000003 -0.000003 0.000001  2.413975 -0.000041 1.570856
50  -0.000006 -0.000015 0.000006  2.272644 -0.000030 1.570865
51  -4.048012 -5.670248 -5.863867  -0.130625 -2.967709 1.490683
52  -0.000000 -0.000000 0.000001  0.008153 -0.000259 0.000009
53  -0.000000 0.000000 -0.000000  1.565115 0.043565 -0.106862
54  -0.947971 -19.545305 -3.853419  -0.894254 0.121133 -1.787836
55  0.000001 -0.000000 -0.000001  0.000000 -0.000000 -0.000002
56  0.000032 0.000029 0.000001  -1.571901 -0.044449 -0.106509
57  7.202790 -19.259499 -17.055128  1.570796 -0.000000 0.000000
58  -15.417985 4.000748 -22.641926  1.570796 -0.000000 0.000000
59  2.236387 -2.421983 -5.367696  1.570796 -0.000000 0.000000
60  -0.004311 0.001230 -0.000371  0.006898 -0.005534 -0.284229
61  0.826810 10.209643 -4.879054  1.570796 -0.000000 0.000000
62  0.000000 0.000000 0.000000  -0.078727 -3.136056 0.284226
63  0.000000 0.000000 0.000000  1.570796 -0.000000 0.000000
64  -2.539430 -12.627173 -1.593813  1.547152 0.054600 0.015948
65  -0.109379 -1.951952 -1.519204  -0.000000 -0.000000 -0.000000
66  -0.109380 0.057027 25.399256  -0.000000 -0.000000 -0.000000
67  -0.109379 -1.856732 0.287230  -0.000000 -0.000000 -0.000000
68  -0.104048 -4.495923 7.879276  -0.000000 -0.000000 -0.000000
69  -0.195264 4.332630 -9.795805  -0.000000 -0.000000 -0.000000
70  -1.290112 3.693283 8.579669  0.022713 -0.014049 -0.017451
71  -0.121471 -1.314581 7.402087  -0.000000 -0.000000 -0.000000
72  -1.107529 -1.063453 4.061650  -0.000000 -0.000000 -0.000000
73  0.003659 1.612363 10.733984  -0.000000 -0.000000 -0.014896
74  -2.637776 -17.857777 -2.767242  1.547152 0.054600 0.015948
time 17
0  0.000006 0.000000 0.000000  -1.570800 -1.391899 -1.570792
1  -4.849906 3.337897 2.232070  -1.544956 -1.855077 -0.198630
2  6.027524 -0.000325 0.000192  -0.463245 -1.200482 -1.822477
3  11.692110 0.000643 -0.000740  -1.384570 -0.000003 -1.129528
4  11.480610 0.000699 -0.000251  1.524197 -0.949240 0.107158
5  3.859508 -0.142880 -1.192049  -0.507739 -0.034586 -1.573166
6  1.312589 0.000011 0.000007  -0.099219 -0.080836 -0.578266
7  0.729355 0.000054 0.000050  -0.083327 -0.106005 -0.262589
8  3.942143 0.046273 -0.431511  -0.423826 0.326055 -0.977403
9  1.539113 0.000084 0.000003  0.011526 -0.070624 -1.101829
10  1.196333 0.000144 0.000029  0.007038 -0.000117 -0.629733
11  3.883504 -0.047269 0.431381  -0.232037 0.533715 -0.537849
12  1.719573 -0.000028 0.000016  0.011709 -0.105542 -1.237432
13  1.209179 0.000091 0.000012  -0.006673 -0.001107 -0.502906
14  3.859662 -0.138476 1.332410  0.013813 0.511197 -0.350141
15  1.719448 -0.000011 0.000021  -0.022509 0.019639 -0.287088
16  1.099676 0.000049 0.000005  -0.286525 0.346051 -1.053593
17  0.770794 -0.901442 1.177686  -1.865794 -0.596008 -0.315192
18  1.789818 -0.000003 -0.000017  0.005558 0.090197 0.395774
19  1.207015 -0.000012 -0.000042  0.141886 -0.163086 0.233767
20  5.740637 0.000411 -0.000705  -0.069887 0.000003 0.000071
21  11.481127 0.000350 -0.000708  0.007889 -0.168543 0.005008
22  6.027524 -0.000329 0.000203  1.479300 -0.359424 1.574349
23  0.000003 11.692099 -0.000008  -0.803608 -0.286411 -0.654199
24  0.000004 0.000008 0.000000  -0.515490 -0.000030 1.570739
25  -0.000001 -0.000011 -0.000002  0.868957 0.000002 1.570712
26  -6.617934 -9.178503 0.826812  1.473120 1.855075 -0.198639
27  6.027512 -0.000261 -0.000226  1.634327 0.881088 -0.653907
28  11.691990 0.000243 0.000855  0.141447 0.000056 -1.629616
29  11.479325 -0.000878 0.000958  -1.229653 0.284792 0.768784
30  3.859437 -0.132788 1.193062  0.466149 -0.051826 -1.783918
31  1.312558 0.000025 0.000000  -0.013965 -0.041044 -0.156447
32  0.729345 0.000066 -0.000028  -0.128320 -0.117290 -0.954857
33  3.942047 0.050109 0.430997  0.211501 -0.107596 -1.469120
34  1.539096 0.000011 0.000000  0.040712 -0.054386 -1.030469
35  1.196300 0.000075 -0.000003  -0.249391 -0.043040 -0.795120
36  3.883412 -0.050502 -0.431087  0.186407 -0.271796 -1.212184
37  1.719563 -0.000080 -0.000004  0.020974 -0.107650 -1.483528
38  1.209197 0.000036 0.000011  -0.324719 0.069674 -0.493483
39  3.859586 -0.149112 -1.331324  -0.094938 -0.084955 -0.411363
40  1.719412 -0.000100 -0.000035  -0.011248 0.001677 -0.960922
41  1.099674 0.000027 0.000007  -0.004984 -0.008084 -0.787926
42  0.805979 -0.359854 -1.318338  0.991670 0.166767 -0.799535
43  1.789780 -0.000009 -0.000042  0.000057 -0.002451 0.133097
44  1.206996 -0.000006 0.000005  0.000372 -0.000070 1.058781
45  5.740573 0.000055 0.000724  0.141751 -0.000014 0.000021
46  11.480809 -0.000139 0.000942  0.051133 0.056224 0.130244
47  6.027514 -0.000273 -0.000238  -0.985745 -0.388928 -1.704903
48  -0.000002 11.691973 -0.000004  -1.105740 0.549231 0.856584
49  0.000002 -0.000001 -0.000000  2.413975 -0.000041 1.570856
50  -0.000007 -0.000015 0.000006  2.272644 -0.000030 1.570865
51  -4.039240 -5.676526 -5.849514  -0.130341 -2.968527 1.489837
52  -0.000000 0.000000 -0.000000  0.008153 -0.000259 0.000009
53  0.000000 -0.000000 -0.000000  1.565115 0.043565 -0.106862
54  -0.950954 -19.555639 -3.848996  -0.894086 0.121981 -1.788613
55  0.000000 -0.000000 0.000000  0.000000 -0.000000 -0.000002
56  0.000029 0.000029 0.000001  -1.571901 -0.044449 -0.106509
57  7.202790 -19.259499 -17.055128  1.570796 -0.000000 0.000000
58  -15.417985 4.000748 -22.641926  1.570796 -0.000000 0.000000
59  2.236387 -2.421983 -5.367696  1.570796 -0.000000 0.000000
60  -0.004311 0.001230 -0.000371  0.006898 -0.005534 -0.284229
61  0.826810 10.209643 -4.879054  1.570796 -0.000000 0.000000
62  0.000000 0.000000 0.000000  -0.078727 -3.136056 0.284226
63  0.000000 0.000000 0.000000  1.570796 -0.000000 0.000000
64  -2.537678 -12.638032 -1.584455  1.547940 0.054242 0.015194
65  -0.109379 -1.951951 -1.519204  -0.000000 -0.000000 -0.000000
66  -0.109379 0.057027 25.399256  -0.000000 -0.000000 -0.000000
67  -0.109378 -1.856731 0.287231  -0.000000 -0.000000 -0.000000
68  -0.104047 -4.495923 7.879277  -0.000000 -0.000000 -0.000000
69  -0.195264 4.332631 -9.795808  -0.000000 -0.000000 -0.000000
70  -1.290112 3.693284 8.579669  0.022713 -0.014049 -0.017451
71  -0.121470 -1.314581 7.402091  -0.000000 -0.000000 -0.000000
72  -1.107529 -1.063453 4.061650  -0.000000 -0.000000 -0.000000
73  0.003659 1.612363 10.733983  0.000000 -0.000000 -0.011034
74  -2.639787 -17.867622 -2.762063  1.547940 0.054242 0.015194
time 18
0  0.000006 0.000000 0.000000  -1.570800 -1.391899 -1.570792
1  -4.849906 3.337897 2.232070  -1.544956 -1.855077 -0.198630
2  6.027524 -0.000325 0.000192  -0.462284 -1.200685 -1.823546
3  11.692111 0.000643 -0.000738  -1.384570 -0.000003 -1.128279
4  11.480615 0.000700 -0.000249  1.523244 -0.948721 0.108569
5  3.859510 -0.142880 -1.192049  -0.507739 -0.034586 -1.573166
6  1.312589 0.000013 0.000009  -0.099219 -0.080836 -0.578266
7  0.729356 0.000054 0.000050  -0.083327 -0.106005 -0.262589
8  3.942144 0.046273 -0.431512  -0.423826 0.326055 -0.977403
9  1.539110 0.000086 0.000003  0.011526 -0.070624 -1.101829
10  1.196333 0.000146 0.000031  0.007038 -0.000117 -0.629733
11  3.883505 -0.047269 0.431381  -0.232037 0.533715 -0.537849
12  1.719574 -0.000027 0.000016  0.011709 -0.105542 -1.237432
13  1.209180 0.000094 0.000011  -0.006673 -0.001106 -0.502906
14  3.859664 -0.138476 1.332409  0.013813 0.511197 -0.350141
15  1.719447 -0.000012 0.000021  -0.022509 0.019639 -0.287088
16  1.099676 0.000047 0.000005  -0.286525 0.346051 -1.053593
17  0.770796 -0.901442 1.177686  -1.865794 -0.596007 -0.315192
18  1.789819 -0.000003 -0.000018  0.005558 0.090197 0.395774
19  1.207020 -0.000012 -0.000043  0.141886 -0.163086 0.233767
20  5.740636 0.000410 -0.000705  -0.069686 0.000003 0.000071
21  11.481128 0.000350 -0.000708  0.007815 -0.168449 0.005185
22  6.027524 -0.000329 0.000203  1.478995 -0.359138 1.574283
23  0.000002 11.692098 -0.000007  -0.802820 -0.285831 -0.653615
24  0.000004 0.000008 -0.000001  -0.515490 -0.000030 1.570739
25  -0.000000 -0.000011 -0.000001  0.868957 0.000002 1.570712
26  -6.617934 -9.178503 0.826812  1.473120 1.855075 -0.198639
27  6.027512 -0.000261 -0.000226  1.634327 0.882067 -0.653850
28  11.691991 0.000243 0.000855  0.141447 0.000056 -1.628948
29  11.479329 -0.000877 0.000957  -1.229139 0.285046 0.770138
30  3.859436 -0.132788 1.193062  0.466149 -0.051826 -1.783918
31  1.312558 0.000024 0.000000  -0.013965 -0.041044 -0.156447
32  0.729345 0.000066 -0.000027  -0.128320 -0.117290 -0.954857
33  3.942046 0.050109 0.430997  0.211501 -0.107596 -1.469120
34  1.539097 0.000008 -0.000001  0.040712 -0.054386 -1.030469
35  1.196300 0.000075 -0.000004  -0.249391 -0.043040 -0.795120
36  3.883411 -0.050502 -0.431087  0.186407 -0.271796 -1.212184
37  1.719563 -0.000079 -0.000004  0.020974 -0.107650 -1.483528
38  1.209197 0.000036 0.000011  -0.324719 0.069674 -0.493483
39  3.859585 -0.149111 -1.331323  -0.094938 -0.084955 -0.411363
40  1.719412 -0.000100 -0.000034  -0.011248 0.001677 -0.960922
41  1.099673 0.000026 0.000007  -0.004984 -0.008084 -0.787926
42  0.805978 -0.359854 -1.318338  0.991670 0.166767 -0.799535
43  1.789780 -0.000009 -0.000042  0.000057 -0.002451 0.133097
44  1.206997 -0.000006 0.000005  0.000372 -0.000070 1.058781
45  5.740572 0.000055 0.000724  0.141997 -0.000014 0.000021
46  11.480810 -0.000140 0.000941  0.051183 0.056338 0.130483
47  6.027514 -0.000273 -0.000238  -0.986663 -0.388441 -1.704498
48  -0.000001 11.691973 -0.000006  -1.105348 0.548845 0.856357
49  0.000003 -0.000002 0.000000  2.413975 -0.000041 1.570856
50  -0.000006 -0.000016 0.000005  2.272644 -0.000030 1.570865
51  -4.032575 -5.681405 -5.841069  -0.130057 -2.969344 1.489227
52  -0.000000 0.000000 -0.000000  0.008153 -0.000259 0.000009
53  -0.000000 0.000000 0.000001  1.565115 0.043565 -0.106862
54  -0.952776 -19.563829 -3.850480  -0.893919 0.122829 -1.789154
55  -0.000000 0.000000 0.000000  0.000000 -0.000000 -0.000002
56  0.000029 0.000029 0.000002  -1.571901 -0.044449 -0.106509
57  7.202790 -19.259499 -17.055128  1.570796 -0.000000 0.000000
58  -15.417985 4.000748 -22.641926  1.570796 -0.000000 0.000000
59  2.236387 -2.421983 -5.367696  1.570796 -0.000000 0.000000
60  -0.004311 0.001230 -0.000371  0.006898 -0.005534 -0.284229
61  0.826810 10.209643 -4.879054  1.570796 -0.000000 0.000000
62  0.000000 0.000000 0.000000  -0.078727 -3.136056 0.284226
63  0.000000 0.000000 0.000000  1.570796 -0.000000 0.000000
64  -2.536397 -12.647129 -1.581008  1.548728 0.053885 0.014675
65  -0.109378 -1.951952 -1.519206  0.000000 -0.000000 -0.000000
66  -0.109379 0.057027 25.399248  0.000000 -0.000000 -0.000000
67  -0.109378 -1.856732 0.287229  0.000000 -0.000000 -0.000000
68  -0.104047 -4.495924 7.879276  0.000000 -0.000000 -0.000000
69  -0.195264 4.332630 -9.795808  0.000000 -0.000000 -0.000000
70  -1.290112 3.693283 8.579666  0.022713 -0.014049 -0.017451
71  -0.121470 -1.314581 7.402087  0.000000 -0.000000 -0.000000
72  -1.107528 -1.063453 4.061646  0.000000 -0.000000 -0.000000
73  0.003659 1.612363 10.733980  0.000000 0.000000 -0.003862
74  -2.641037 -17.875727 -2.762794  1.548728 0.053885 0.014675
time 19
0  0.000006 0.000000 0.000000  -1.570800 -1.391899 -1.570792
1  -4.849906 3.337897 2.232070  -1.544956 -1.855077 -0.198630
2  6.027524 -0.000325 0.000192  -0.462017 -1.200729 -1.823814
3  11.692111 0.000644 -0.000740  -1.384570 -0.000003 -1.127810
4  11.480619 0.000700 -0.000248  1.522838 -0.948524 0.109134
5  3.859509 -0.142880 -1.192049  -0.507739 -0.034586 -1.573166
6  1.312590 0.000013 0.000007  -0.099219 -0.080836 -0.578266
7  0.729355 0.000054 0.000050  -0.083327 -0.106005 -0.262589
8  3.942142 0.046273 -0.431512  -0.423826 0.326055 -0.977403
9  1.539110 0.000084 0.000006  0.011526 -0.070624 -1.101829
10  1.196333 0.000144 0.000029  0.007038 -0.000117 -0.629733
11  3.883505 -0.047269 0.431381  -0.232037 0.533715 -0.537849
12  1.719573 -0.000026 0.000014  0.011709 -0.105542 -1.237432
13  1.209179 0.000095 0.000013  -0.006673 -0.001107 -0.502906
14  3.859663 -0.138476 1.332410  0.013813 0.511197 -0.350141
15  1.719446 -0.000013 0.000021  -0.022509 0.019639 -0.287088
16  1.099675 0.000046 0.000008  -0.286525 0.346051 -1.053593
17  0.770793 -0.901442 1.177686  -1.865794 -0.596008 -0.315192
18  1.789820 -0.000003 -0.000019  0.005558 0.090197 0.395774
19  1.207016 -0.000012 -0.000043  0.141886 -0.163086 0.233768
20  5.740637 0.000410 -0.000704  -0.069604 0.000003 0.000070
21  11.481129 0.000350 -0.000709  0.007781 -0.168414 0.005253
22  6.027524 -0.000329 0.000203  1.478908 -0.359072 1.574294
23  0.000001 11.692099 -0.000007  -0.802523 -0.285613 -0.653396
24  0.000003 0.000008 -0.000001  -0.515490 -0.000031 1.570739
25  -0.000000 -0.000011 -0.000001  0.868957 0.000002 1.570712
26  -6.617934 -9.178503 0.826812  1.473120 1.855075 -0.198639
27  6.027512 -0.000261 -0.000226  1.634294 0.882425 -0.653847
28  11.691992 0.000242 0.000855  0.141447 0.000056 -1.628682
29  11.479333 -0.000875 0.000957  -1.228905 0.285136 0.770684
30  3.859436 -0.132787 1.193062  0.466149 -0.051826 -1.783918
31  1.312559 0.000026 0.000000  -0.013965 -0.041044 -0.156447
32  0.729345 0.000066 -0.000028  -0.128320 -0.117290 -0.954857
33  3.942047 0.050109 0.430997  0.211501 -0.107596 -1.469120
34  1.539097 0.000011 -0.000001  0.040712 -0.054386 -1.030469
35  1.196299 0.000075 -0.000003  -0.249391 -0.043040 -0.795120
36  3.883411 -0.050501 -0.431087  0.186407 -0.271796 -1.212184
37  1.719564 -0.000080 -0.000003  0.020974 -0.107650 -1.483528
38  1.209197 0.000035 0.000011  -0.324719 0.069674 -0.493483
39  3.859586 -0.149111 -1.331323  -0.094938 -0.084955 -0.411363
40  1.719411 -0.000099 -0.000035  -0.011248 0.001677 -0.960922
41  1.099673 0.000025 0.000006  -0.004984 -0.008084 -0.787926
42  0.805979 -0.359853 -1.318338  0.991670 0.166767 -0.799535
43  1.789780 -0.000009 -0.000042  0.000057 -0.002451 0.133097
44  1.206997 -0.000007 0.000005  0.000372 -0.000070 1.058782
45  5.740574 0.000054 0.000723  0.142093 -0.000014 0.000021
46  11.480812 -0.000139 0.000941  0.051210 0.056383 0.130579
47  6.027514 -0.000273 -0.000238  -0.987010 -0.388281 -1.704338
48  -0.000003 11.691975 -0.000006  -1.105193 0.548692 0.856267
49  0.000003 -0.000001 -0.000000  2.413975 -0.000041 1.570856
50  -0.000008 -0.000015 0.000005  2.272644 -0.000030 1.570865
51  -4.029927 -5.683368 -5.838304  -0.129928 -2.969716 1.488992
52  0.000000 0.000000 -0.000000  0.008153 -0.000259 0.000009
53  0.000000 0.000001 0.000000  1.565115 0.043565 -0.106862
54  -0.953392 -19.567165 -3.852229  -0.893843 0.123214 -1.789358
55  0.000001 0.000000 -0.000000  0.000000 -0.000000 -0.000002
56  0.000030 0.000029 0.000001  -1.571901 -0.044449 -0.106509
57  7.202790 -19.259499 -17.055128  1.570796 -0.000000 0.000000
58  -15.417985 4.000748 -22.641926  1.570796 -0.000000 0.000000
59  2.236387 -2.421983 -5.367696  1.570796 -0.000000 0.000000
60  -0.004311 0.001230 -0.000371  0.006898 -0.005534 -0.284229
61  0.826810 10.209643 -4.879054  1.570796 -0.000000 0.000000
62  0.000000 0.000000 0.000000  -0.078727 -3.136056 0.284226
63  0.000000 0.000000 0.000000  1.570796 -0.000000 0.000000
64  -2.535900 -12.650944 -1.580516  1.549086 0.053723 0.014481
65  -0.109378 -1.951951 -1.519205  -0.000000 0.000000 0.000000
66  -0.109379 0.057027 25.399252  -0.000000 0.000000 0.000000
67  -0.109378 -1.856732 0.287229  -0.000000 0.000000 0.000000
68  -0.104047 -4.495923 7.879278  -0.000000 0.000000 0.000000
69  -0.195264 4.332631 -9.795807  -0.000000 0.000000 0.000000
70  -1.290112 3.693284 8.579670  0.022713 -0.014049 -0.017451
71  -0.121470 -1.314581 7.402088  -0.000000 0.000000 0.000000
72  -1.107528 -1.063453 4.061647  -0.000000 0.000000 0.000000
73  0.003659 1.612363 10.733981  -0.000000 0.000000 0.000000
74  -2.641465 -17.879095 -2.764200  1.549086 0.053723 0.014481
end
