version 1
nodes
0 "ValveBiped.Bip01_Spine4" -1
1 "ValveBiped.Bip01_L_Clavicle" 0
2 "ValveBiped.Bip01_L_UpperArm" 1
3 "ValveBiped.Bip01_L_Forearm" 2
4 "ValveBiped.Bip01_L_Hand" 3
5 "ValveBiped.Bip01_L_Finger4" 4
6 "ValveBiped.Bip01_L_Finger41" 5
7 "ValveBiped.Bip01_L_Finger42" 6
8 "ValveBiped.Bip01_L_Finger3" 4
9 "ValveBiped.Bip01_L_Finger31" 8
10 "ValveBiped.Bip01_L_Finger32" 9
11 "ValveBiped.Bip01_L_Finger2" 4
12 "ValveBiped.Bip01_L_Finger21" 11
13 "ValveBiped.Bip01_L_Finger22" 12
14 "ValveBiped.Bip01_L_Finger1" 4
15 "ValveBiped.Bip01_L_Finger11" 14
16 "ValveBiped.Bip01_L_Finger12" 15
17 "ValveBiped.Bip01_L_Finger0" 4
18 "ValveBiped.Bip01_L_Finger01" 17
19 "ValveBiped.Bip01_L_Finger02" 18
20 "ValveBiped.Bip01_L_Ulna" 3
21 "ValveBiped.Bip01_L_Wrist" 3
22 "rig_l_upperarm" 1
23 "rig_l_forearm" 22
24 "rig_d_l_forearm" 23
25 "rig_d_l_upperarm" 22
26 "ValveBiped.Bip01_R_Clavicle" 0
27 "ValveBiped.Bip01_R_UpperArm" 26
28 "ValveBiped.Bip01_R_Forearm" 27
29 "ValveBiped.Bip01_R_Hand" 28
30 "ValveBiped.Bip01_R_Finger4" 29
31 "ValveBiped.Bip01_R_Finger41" 30
32 "ValveBiped.Bip01_R_Finger42" 31
33 "ValveBiped.Bip01_R_Finger3" 29
34 "ValveBiped.Bip01_R_Finger31" 33
35 "ValveBiped.Bip01_R_Finger32" 34
36 "ValveBiped.Bip01_R_Finger2" 29
37 "ValveBiped.Bip01_R_Finger21" 36
38 "ValveBiped.Bip01_R_Finger22" 37
39 "ValveBiped.Bip01_R_Finger1" 29
40 "ValveBiped.Bip01_R_Finger11" 39
41 "ValveBiped.Bip01_R_Finger12" 40
42 "ValveBiped.Bip01_R_Finger0" 29
43 "ValveBiped.Bip01_R_Finger01" 42
44 "ValveBiped.Bip01_R_Finger02" 43
45 "ValveBiped.Bip01_R_Ulna" 28
46 "ValveBiped.Bip01_R_Wrist" 28
47 "rig_r_upperarm" 26
48 "rig_r_forearm" 47
49 "rig_d_r_forearm" 48
50 "rig_d_r_upperarm" 47
51 "rig_r_hand" -1
52 "rig_d_r_hand" 51
53 "rig_d_r_wrist" 52
54 "rig_l_hand" -1
55 "rig_d_l_hand" 54
56 "rig_d_l_wrist" 54
57 "rig_l_pole" -1
58 "rig_r_pole" -1
59 "rig_l_clavicle" -1
60 "rig_d_l_clavicle" 59
61 "rig_r_clavicle" -1
62 "rig_d_r_clavicle" 61
63 "Camera" -1
64 "body" -1
65 "trigger" 64
66 "barrel" 64
67 "bulletdoor" 64
68 "pump" 64
69 "bolt" 68
70 "tac" 68
71 "bullet2" 64
72 "catch" 64
73 "hookontop" 64
74 "bullet1" -1
end
skeleton
time 0
0  0.000006 0.000000 0.000000  -1.570800 -1.391899 -1.570792
1  -4.849906 3.337897 2.232070  -1.544956 -1.855077 -0.198630
2  6.027524 -0.000325 0.000192  -0.474085 -1.197492 -1.808951
3  11.692111 0.000645 -0.000740  -1.384571 -0.000003 -1.134792
4  11.480574 0.000696 -0.000270  1.530060 -0.968402 0.158196
5  3.859509 -0.142880 -1.192049  -0.507739 -0.034586 -1.573166
6  1.312590 0.000010 0.000007  -0.099219 -0.080836 -0.578266
7  0.729356 0.000052 0.000048  -0.083327 -0.106005 -0.262589
8  3.942142 0.046273 -0.431512  -0.423826 0.326055 -0.977403
9  1.539109 0.000084 0.000005  0.011526 -0.070624 -1.101829
10  1.196334 0.000145 0.000031  0.007038 -0.000117 -0.629733
11  3.883502 -0.047269 0.431381  -0.232037 0.533715 -0.537849
12  1.719572 -0.000026 0.000014  0.011709 -0.105542 -1.237432
13  1.209179 0.000093 0.000011  -0.006673 -0.001106 -0.502906
14  3.859660 -0.138476 1.332410  0.013813 0.511197 -0.350141
15  1.719451 -0.000009 0.000023  -0.022509 0.019639 -0.287088
16  1.099676 0.000047 0.000005  -0.286525 0.346051 -1.053593
17  0.770793 -0.901442 1.177686  -1.865794 -0.596007 -0.315192
18  1.789816 -0.000003 -0.000019  0.005558 0.090197 0.395774
19  1.207017 -0.000011 -0.000044  0.141886 -0.163086 0.233767
20  5.740636 0.000410 -0.000705  -0.060729 0.000003 0.000070
21  11.481119 0.000349 -0.000713  0.012828 -0.172215 0.014655
22  6.027524 -0.000329 0.000203  1.482590 -0.363294 1.576611
23  0.000002 11.692099 -0.000007  -0.806932 -0.288861 -0.656654
24  0.000003 0.000008 -0.000002  -0.515490 -0.000030 1.570739
25  -0.000001 -0.000011 -0.000000  0.868957 0.000002 1.570712
26  -6.617934 -9.178503 0.826812  1.473120 1.855075 -0.198639
27  6.027512 -0.000261 -0.000226  1.612618 0.894307 -0.664996
28  11.691992 0.000245 0.000855  0.141447 0.000057 -1.638830
29  11.479261 -0.000909 0.000963  -1.164663 0.310207 0.827988
30  3.859436 -0.132787 1.193061  0.466149 -0.051826 -1.783918
31  1.312558 0.000026 -0.000000  -0.013965 -0.041043 -0.156447
32  0.729346 0.000065 -0.000027  -0.128320 -0.117290 -0.954857
33  3.942046 0.050109 0.430997  0.211501 -0.107596 -1.469120
34  1.539096 0.000009 0.000000  0.040712 -0.054386 -1.030469
35  1.196301 0.000076 -0.000004  -0.249391 -0.043040 -0.795121
36  3.883411 -0.050501 -0.431087  0.186407 -0.271796 -1.212184
37  1.719565 -0.000080 -0.000003  0.020974 -0.107650 -1.483528
38  1.209197 0.000035 0.000012  -0.324719 0.069674 -0.493484
39  3.859584 -0.149111 -1.331323  -0.061899 -0.082056 -0.600516
40  1.719412 -0.000099 -0.000035  -0.011527 0.014001 -1.309313
41  1.099673 0.000025 0.000007  -0.007046 -0.008092 -0.789585
42  0.805979 -0.359854 -1.318338  0.991670 0.166767 -0.799535
43  1.789780 -0.000008 -0.000042  0.000057 -0.002451 0.133097
44  1.206997 -0.000006 0.000005  0.000372 -0.000070 1.058782
45  5.740570 0.000055 0.000724  0.161808 -0.000014 0.000021
46  11.480795 -0.000145 0.000943  0.059988 0.066882 0.138277
47  6.027514 -0.000273 -0.000238  -1.005589 -0.394031 -1.691582
48  -0.000000 11.691973 -0.000005  -1.111143 0.554555 0.859700
49  0.000003 0.000001 -0.000000  2.413975 -0.000041 1.570856
50  -0.000006 -0.000016 0.000006  2.272644 -0.000030 1.570865
51  -3.698235 -5.570189 -5.754230  -0.078012 -2.996716 1.465737
52  0.000001 -0.000000 0.000000  0.008153 -0.000259 0.000009
53  -0.000000 0.000000 0.000000  1.565115 0.043565 -0.106862
54  -0.933866 -19.540205 -3.919470  -0.846021 0.156601 -1.797751
55  0.000001 -0.000001 -0.000001  0.000000 -0.000000 -0.000002
56  0.000030 0.000028 0.000000  -1.571901 -0.044449 -0.106509
57  7.202790 -19.259499 -17.055128  1.570796 -0.000000 0.000000
58  -15.417985 4.000748 -22.641926  1.570796 -0.000000 0.000000
59  2.236387 -2.421983 -5.367696  1.570796 -0.000000 0.000000
60  -0.004311 0.001230 -0.000371  0.006898 -0.005534 -0.284229
61  0.826810 10.209643 -4.879054  1.570796 -0.000000 0.000000
62  0.000000 0.000000 0.000000  -0.078727 -3.136056 0.284226
63  -2.640272 -4.294271 -0.874409  1.570796 -0.000000 0.000000
64  -2.535900 -12.650944 -1.580516  1.570796 -0.000000 0.000000
65  -0.109379 -1.951951 -1.519205  0.330971 -0.000000 0.000000
66  -0.109379 0.057027 25.399250  0.000000 -0.000000 0.000000
67  -0.109379 -1.856732 0.287230  0.000000 -0.000000 0.000000
68  -0.104048 -4.495923 7.879276  0.000000 -0.000000 0.000000
69  -0.195264 4.332630 -6.347187  0.000000 -0.000000 0.000000
70  -1.290112 3.693283 8.579668  0.000000 -0.000000 0.000000
71  -0.121470 -1.314581 7.402088  0.000000 -0.000000 0.000000
72  -1.107528 -1.063453 4.061647  0.000000 -0.000000 0.000000
73  0.003659 1.612363 10.733982  0.000000 -0.000000 0.000000
74  -2.653341 -17.849916 -2.885395  1.570796 -0.000000 0.000000
time 1
0  0.000006 0.000000 0.000000  -1.570800 -1.391899 -1.570792
1  -4.849906 3.337897 2.232070  -1.544956 -1.855077 -0.198630
2  6.027524 -0.000325 0.000192  -0.415978 -1.182951 -1.813387
3  11.692109 0.000643 -0.000740  -1.384577 -0.000009 -1.251617
4  11.479561 0.000599 -0.000783  1.341308 -0.994139 0.169025
5  3.859511 -0.142879 -1.192049  -0.507739 -0.034586 -1.573166
6  1.312590 0.000015 0.000008  -0.099219 -0.080836 -0.578266
7  0.729355 0.000055 0.000049  -0.083327 -0.106005 -0.262589
8  3.942145 0.046273 -0.431511  -0.423826 0.326055 -0.977403
9  1.539111 0.000083 0.000006  0.011526 -0.070624 -1.101829
10  1.196331 0.000144 0.000028  0.007038 -0.000117 -0.629733
11  3.883506 -0.047269 0.431382  -0.232037 0.533715 -0.537849
12  1.719573 -0.000025 0.000013  0.011708 -0.105542 -1.237432
13  1.209179 0.000090 0.000011  -0.006673 -0.001106 -0.502906
14  3.859664 -0.138475 1.332410  0.013813 0.511197 -0.350141
15  1.719447 -0.000012 0.000024  -0.022509 0.019639 -0.287088
16  1.099675 0.000049 0.000006  -0.286525 0.346051 -1.053593
17  0.770797 -0.901442 1.177686  -1.865794 -0.596007 -0.315192
18  1.789820 -0.000003 -0.000017  0.005558 0.090197 0.395774
19  1.207013 -0.000012 -0.000044  0.141886 -0.163086 0.233767
20  5.740638 0.000410 -0.000701  -0.121805 0.000003 0.000071
21  11.480919 0.000330 -0.000811  -0.017475 -0.179781 -0.001353
22  6.027524 -0.000329 0.000203  1.456099 -0.371405 1.635644
23  0.000003 11.692100 -0.000006  -0.879738 -0.345183 -0.709412
24  0.000003 0.000009 -0.000002  -0.515490 -0.000031 1.570739
25  -0.000000 -0.000011 -0.000001  0.868957 0.000002 1.570712
26  -6.617934 -9.178503 0.826812  1.473120 1.855075 -0.198639
27  6.027511 -0.000261 -0.000227  1.645112 0.838538 -0.651099
28  11.691990 0.000242 0.000856  0.141449 0.000069 -1.796430
29  11.479713 -0.000728 0.000937  -1.325149 0.335043 0.906377
30  3.859437 -0.132787 1.193063  0.466149 -0.051826 -1.783918
31  1.312558 0.000026 0.000000  -0.013965 -0.041044 -0.156447
32  0.729345 0.000065 -0.000027  -0.128320 -0.117290 -0.954857
33  3.942047 0.050109 0.430997  0.211501 -0.107596 -1.469120
34  1.539097 0.000010 0.000000  0.040712 -0.054386 -1.030469
35  1.196301 0.000075 -0.000003  -0.249391 -0.043040 -0.795120
36  3.883412 -0.050502 -0.431087  0.186407 -0.271796 -1.212184
37  1.719564 -0.000078 -0.000003  0.020974 -0.107650 -1.483528
38  1.209197 0.000036 0.000012  -0.324719 0.069674 -0.493483
39  3.859586 -0.149112 -1.331322  -0.061899 -0.082056 -0.600516
40  1.719412 -0.000099 -0.000035  -0.011527 0.014001 -1.309313
41  1.099673 0.000025 0.000007  -0.007046 -0.008092 -0.789585
42  0.805979 -0.359854 -1.318338  0.991669 0.166767 -0.799535
43  1.789780 -0.000009 -0.000042  0.000057 -0.002451 0.133097
44  1.206996 -0.000007 0.000005  0.000372 -0.000070 1.058781
45  5.740572 0.000056 0.000724  0.158406 -0.000014 0.000021
46  11.480886 -0.000110 0.000937  0.026459 0.061557 0.159812
47  6.027514 -0.000273 -0.000238  -0.941724 -0.403446 -1.727260
48  -0.000002 11.691974 -0.000006  -1.203560 0.647694 0.909221
49  0.000002 -0.000001 0.000000  2.413975 -0.000041 1.570856
50  -0.000006 -0.000015 0.000005  2.272644 -0.000030 1.570865
51  -3.929533 -4.173110 -5.366663  -0.231975 -2.955085 1.441950
52  -0.000000 -0.000000 -0.000000  0.008153 -0.000259 0.000009
53  0.000000 0.000000 0.000001  1.565115 0.043565 -0.106862
54  -1.574241 -18.226698 -3.600673  -0.991481 0.093620 -1.865178
55  -0.000000 -0.000000 0.000000  0.000000 -0.000000 -0.000002
56  0.000031 0.000029 0.000001  -1.571901 -0.044449 -0.106509
57  7.202790 -19.259499 -17.055128  1.570796 -0.000000 0.000000
58  -15.417985 4.000748 -22.641926  1.570796 -0.000000 0.000000
59  2.236387 -2.421983 -5.367696  1.570796 -0.000000 0.000000
60  -0.004311 0.001230 -0.000371  0.006898 -0.005534 -0.284229
61  0.826810 10.209643 -4.879054  1.570796 -0.000000 0.000000
62  0.000000 0.000000 0.000000  -0.078727 -3.136056 0.284226
63  -2.640272 -4.294271 -0.874409  1.570796 -0.006383 0.000000
64  -2.466767 -11.220454 -1.231054  1.543207 0.155025 -0.051378
65  -0.109379 -1.951952 -1.519205  0.330971 -0.000000 -0.000000
66  -0.114740 0.057027 22.715389  -0.000000 -0.000000 -0.000000
67  -0.109379 -1.856732 0.287229  -0.000000 -0.000000 -0.000000
68  -0.104048 -4.495923 7.879277  -0.000000 -0.000000 -0.000000
69  -0.195264 4.332631 -9.795806  -0.000000 -0.000000 -0.000000
70  -1.290112 3.693284 8.579668  -0.000000 -0.000000 -0.000000
71  -0.104048 -1.287492 6.197657  -0.000000 -0.000000 -0.000000
72  -1.107529 -1.063453 4.061648  -0.000000 -0.000000 -0.000000
73  0.003659 1.612363 10.733984  -0.000000 -0.000000 0.055281
74  -3.030411 -16.431376 -2.359961  1.543207 0.155025 -0.051378
time 2
0  0.000006 0.000000 0.000000  -1.570800 -1.391899 -1.570792
1  -4.849906 3.337897 2.232070  -1.544956 -1.855077 -0.198630
2  6.027524 -0.000325 0.000192  -0.454443 -1.189804 -1.804581
3  11.692109 0.000644 -0.000739  -1.384578 -0.000009 -1.257164
4  11.479334 0.000577 -0.000904  1.476851 -1.015845 0.136317
5  3.859506 -0.142880 -1.192050  -0.507739 -0.034586 -1.573166
6  1.312590 0.000014 0.000008  -0.099219 -0.080836 -0.578266
7  0.729355 0.000054 0.000049  -0.083327 -0.106005 -0.262589
8  3.942143 0.046273 -0.431512  -0.423826 0.326055 -0.977403
9  1.539112 0.000084 0.000006  0.011526 -0.070624 -1.101829
10  1.196333 0.000148 0.000029  0.007038 -0.000117 -0.629733
11  3.883505 -0.047269 0.431382  -0.232037 0.533715 -0.537849
12  1.719573 -0.000027 0.000015  0.011709 -0.105542 -1.237432
13  1.209179 0.000090 0.000011  -0.006673 -0.001106 -0.502906
14  3.859661 -0.138476 1.332410  0.013813 0.511197 -0.350141
15  1.719448 -0.000012 0.000021  -0.022509 0.019639 -0.287088
16  1.099675 0.000048 0.000007  -0.286525 0.346051 -1.053593
17  0.770795 -0.901442 1.177685  -1.865794 -0.596007 -0.315192
18  1.789821 -0.000003 -0.000017  0.005558 0.090197 0.395774
19  1.207016 -0.000012 -0.000043  0.141886 -0.163086 0.233767
20  5.740637 0.000410 -0.000705  -0.101558 0.000003 0.000071
21  11.480872 0.000325 -0.000841  0.003354 -0.182331 0.005136
22  6.027524 -0.000329 0.000203  1.473018 -0.368910 1.602671
23  0.000002 11.692099 -0.000006  -0.883152 -0.347946 -0.711833
24  0.000003 0.000009 -0.000002  -0.515490 -0.000031 1.570738
25  -0.000000 -0.000011 0.000000  0.868957 0.000002 1.570712
26  -6.617934 -9.178503 0.826812  1.473120 1.855075 -0.198639
27  6.027511 -0.000261 -0.000227  1.620126 0.832442 -0.663743
28  11.691991 0.000243 0.000855  0.141449 0.000067 -1.771764
29  11.479934 -0.000591 0.000917  -1.248611 0.345350 0.847261
30  3.859437 -0.132788 1.193062  0.466149 -0.051826 -1.783918
31  1.312558 0.000024 0.000000  -0.013965 -0.041043 -0.156447
32  0.729345 0.000065 -0.000027  -0.128320 -0.117290 -0.954857
33  3.942047 0.050109 0.430997  0.211501 -0.107596 -1.469120
34  1.539097 0.000010 0.000000  0.040712 -0.054386 -1.030469
35  1.196299 0.000076 -0.000004  -0.249391 -0.043040 -0.795120
36  3.883412 -0.050502 -0.431087  0.186407 -0.271796 -1.212184
37  1.719562 -0.000079 -0.000004  0.020974 -0.107650 -1.483528
38  1.209196 0.000036 0.000011  -0.324719 0.069674 -0.493483
39  3.859586 -0.149112 -1.331323  -0.061899 -0.082056 -0.600517
40  1.719413 -0.000099 -0.000034  -0.011527 0.014001 -1.309313
41  1.099674 0.000024 0.000007  -0.007046 -0.008092 -0.789585
42  0.805979 -0.359854 -1.318338  0.991670 0.166767 -0.799535
43  1.789779 -0.000010 -0.000042  0.000057 -0.002451 0.133097
44  1.206996 -0.000006 0.000005  0.000372 -0.000070 1.058781
45  5.740575 0.000055 0.000723  0.161259 -0.000014 0.000021
46  11.480933 -0.000082 0.000933  0.041145 0.068011 0.144408
47  6.027514 -0.000273 -0.000238  -0.944742 -0.421065 -1.720164
48  -0.000001 11.691973 -0.000006  -1.189063 0.632873 0.901958
49  0.000002 -0.000001 0.000000  2.413975 -0.000041 1.570856
50  -0.000007 -0.000015 0.000005  2.272644 -0.000030 1.570865
51  -3.852984 -4.416018 -5.714242  -0.149370 -2.934886 1.456936
52  -0.000000 -0.000000 0.000000  0.008153 -0.000259 0.000009
53  -0.000000 -0.000000 -0.000000  1.565115 0.043565 -0.106862
54  -1.223987 -18.330126 -3.336133  -0.907995 0.086070 -1.826550
55  -0.000001 -0.000000 -0.000000  0.000000 -0.000000 -0.000002
56  0.000031 0.000029 0.000001  -1.571901 -0.044449 -0.106509
57  7.202790 -19.259499 -17.055128  1.570796 -0.000000 0.000000
58  -15.417985 4.000748 -22.641926  1.570796 -0.000000 0.000000
59  2.236387 -2.421983 -5.367696  1.570796 -0.000000 0.000000
60  -0.004311 0.001230 -0.000371  0.006898 -0.005534 -0.284229
61  0.826810 10.209643 -4.879054  1.570796 -0.000000 0.000000
62  0.000000 0.000000 0.000000  -0.078727 -3.136056 0.284226
63  -2.640272 -4.294271 -0.874409  1.570796 -0.004099 0.000000
64  -2.508559 -11.291402 -1.261195  1.516121 0.075986 -0.023370
65  -0.109379 -1.951951 -1.519206  0.330971 -0.000000 -0.000000
66  -0.114183 0.057027 24.057322  0.000000 -0.000000 -0.000000
67  -0.109378 -1.856732 0.287229  0.000000 -0.000000 -0.000000
68  -0.104048 -4.495924 7.879276  0.000000 -0.000000 -0.000000
69  -0.195264 4.332630 -9.684025  0.000000 -0.000000 -0.000000
70  -1.290112 3.693283 8.579669  0.000000 -0.000000 -0.000000
71  -0.106952 -1.316378 5.123046  0.000000 -0.000000 -0.000000
72  -1.107529 -1.063453 4.061647  0.000000 -0.000000 -0.000000
73  0.003659 1.612363 10.733982  -0.000000 -0.000000 0.157660
74  -2.705996 -14.827189 -2.289607  1.603388 0.075986 -0.023370
time 3
0  0.000006 0.000000 0.000000  -1.570800 -1.391899 -1.570792
1  -4.849906 3.337897 2.232070  -1.544956 -1.855077 -0.198630
2  6.027524 -0.000325 0.000192  -0.514144 -1.187340 -1.762700
3  11.692109 0.000643 -0.000739  -1.384578 -0.000009 -1.267030
4  11.480767 0.000709 -0.000201  1.571071 -1.053319 0.131251
5  3.859510 -0.142879 -1.192049  -0.507739 -0.034586 -1.573166
6  1.312589 0.000012 0.000008  -0.099219 -0.080836 -0.578266
7  0.729355 0.000055 0.000049  -0.083327 -0.106005 -0.262589
8  3.942143 0.046273 -0.431512  -0.423826 0.326055 -0.977403
9  1.539110 0.000083 0.000007  0.011526 -0.070624 -1.101829
10  1.196331 0.000144 0.000026  0.007038 -0.000117 -0.629733
11  3.883505 -0.047269 0.431381  -0.232037 0.533715 -0.537849
12  1.719573 -0.000026 0.000015  0.011709 -0.105542 -1.237432
13  1.209180 0.000092 0.000011  -0.006673 -0.001106 -0.502906
14  3.859664 -0.138475 1.332410  0.013813 0.511197 -0.350141
15  1.719450 -0.000012 0.000023  -0.022509 0.019639 -0.287088
16  1.099676 0.000048 0.000007  -0.286525 0.346051 -1.053593
17  0.770796 -0.901442 1.177686  -1.865794 -0.596007 -0.315192
18  1.789819 -0.000003 -0.000019  0.005558 0.090197 0.395774
19  1.207016 -0.000012 -0.000044  0.141886 -0.163086 0.233767
20  5.740636 0.000411 -0.000704  -0.083782 0.000003 0.000071
21  11.481157 0.000351 -0.000699  0.019316 -0.188676 0.012985
22  6.027524 -0.000329 0.000203  1.495661 -0.376464 1.580911
23  0.000002 11.692098 -0.000006  -0.889215 -0.352881 -0.716122
24  0.000003 0.000008 -0.000001  -0.515490 -0.000031 1.570739
25  -0.000001 -0.000011 -0.000000  0.868957 0.000002 1.570712
26  -6.617934 -9.178503 0.826812  1.473120 1.855075 -0.198639
27  6.027511 -0.000261 -0.000227  1.607104 0.838528 -0.669892
28  11.691988 0.000242 0.000855  0.141449 0.000065 -1.750546
29  11.480124 -0.000466 0.000900  -1.163530 0.331462 0.839299
30  3.859437 -0.132787 1.193062  0.466149 -0.051826 -1.783918
31  1.312558 0.000026 -0.000000  -0.013965 -0.041044 -0.156447
32  0.729345 0.000066 -0.000027  -0.128320 -0.117290 -0.954857
33  3.942046 0.050108 0.430997  0.211501 -0.107596 -1.469120
34  1.539096 0.000008 -0.000000  0.040712 -0.054386 -1.030469
35  1.196300 0.000076 -0.000005  -0.249391 -0.043040 -0.795120
36  3.883412 -0.050502 -0.431087  0.186407 -0.271796 -1.212184
37  1.719564 -0.000079 -0.000003  0.020974 -0.107650 -1.483528
38  1.209198 0.000036 0.000011  -0.324719 0.069674 -0.493483
39  3.859586 -0.149112 -1.331323  -0.061899 -0.082056 -0.600517
40  1.719412 -0.000099 -0.000034  -0.011527 0.014001 -1.309313
41  1.099673 0.000023 0.000007  -0.007046 -0.008093 -0.789585
42  0.805979 -0.359854 -1.318338  0.991670 0.166767 -0.799535
43  1.789780 -0.000009 -0.000042  0.000057 -0.002451 0.133097
44  1.206996 -0.000006 0.000005  0.000372 -0.000070 1.058782
45  5.740573 0.000055 0.000724  0.173913 -0.000014 0.000021
46  11.480969 -0.000058 0.000929  0.058188 0.071211 0.139560
47  6.027514 -0.000273 -0.000238  -0.955302 -0.425608 -1.712317
48  -0.000002 11.691971 -0.000006  -1.176610 0.620193 0.895561
49  0.000002 -0.000001 0.000000  2.413975 -0.000041 1.570856
50  -0.000006 -0.000016 0.000005  2.272644 -0.000030 1.570865
51  -3.760382 -4.605891 -5.834678  -0.070221 -2.951635 1.473191
52  -0.000000 0.000000 -0.000000  0.008153 -0.000259 0.000009
53  -0.000000 -0.000000 -0.000000  1.565115 0.043565 -0.106862
54  -0.880929 -18.452795 -3.356506  -0.832862 0.112769 -1.787231
55  -0.000002 -0.000000 0.000000  0.000000 -0.000000 -0.000002
56  0.000029 0.000029 0.000001  -1.571901 -0.044449 -0.106509
57  7.202790 -19.259499 -17.055128  1.570796 -0.000000 0.000000
58  -15.417985 4.000748 -22.641926  1.570796 -0.000000 0.000000
59  2.236387 -2.421983 -5.367696  1.570796 -0.000000 0.000000
60  -0.004311 0.001230 -0.000371  0.006898 -0.005534 -0.284229
61  0.826810 10.209643 -4.879054  1.570796 -0.000000 0.000000
62  0.000000 0.000000 0.000000  -0.078727 -3.136056 0.284226
63  -2.640272 -4.294271 -0.874409  1.570796 0.000143 0.000000
64  -2.550351 -11.478447 -1.338928  1.525157 -0.002882 0.008818
65  -0.109379 -1.951952 -1.519205  0.330971 0.000000 0.000000
66  -0.112853 0.057027 25.399256  -0.000000 0.000000 0.000000
67  -0.109379 -1.856732 0.287229  -0.000000 0.000000 0.000000
68  -0.104047 -4.495924 7.879277  -0.000000 0.000000 0.000000
69  -0.195264 4.332631 -9.709592  -0.000000 0.000000 0.000000
70  -1.290112 3.693283 8.579673  -0.000000 0.000000 0.000000
71  -0.109855 -1.345264 4.822541  -0.000000 0.000000 0.000000
72  -1.107529 -1.063453 4.061648  -0.000000 0.000000 0.000000
73  0.003659 1.612363 10.733982  0.000000 -0.000000 0.212479
74  -2.487107 -13.278072 -2.258254  1.699690 -0.002882 0.008818
time 4
0  0.000006 0.000000 0.000000  -1.570800 -1.391899 -1.570792
1  -4.849906 3.337897 2.232070  -1.544956 -1.855077 -0.198630
2  6.027524 -0.000325 0.000192  -0.501790 -1.184668 -1.764014
3  11.692110 0.000645 -0.000740  -1.384576 -0.000008 -1.236748
4  11.480034 0.000645 -0.000529  1.514937 -1.026550 0.149566
5  3.859509 -0.142880 -1.192049  -0.507739 -0.034586 -1.573166
6  1.312589 0.000010 0.000007  -0.099219 -0.080836 -0.578266
7  0.729355 0.000054 0.000049  -0.083327 -0.106005 -0.262589
8  3.942144 0.046273 -0.431512  -0.423827 0.326055 -0.977403
9  1.539110 0.000082 0.000004  0.011526 -0.070624 -1.101829
10  1.196331 0.000145 0.000028  0.007038 -0.000117 -0.629733
11  3.883504 -0.047269 0.431381  -0.232037 0.533715 -0.537849
12  1.719574 -0.000027 0.000013  0.011709 -0.105542 -1.237432
13  1.209180 0.000090 0.000013  -0.006673 -0.001106 -0.502906
14  3.859661 -0.138476 1.332409  0.013813 0.511197 -0.350141
15  1.719451 -0.000010 0.000023  -0.022509 0.019639 -0.287088
16  1.099673 0.000049 0.000008  -0.286525 0.346051 -1.053593
17  0.770794 -0.901442 1.177686  -1.865794 -0.596008 -0.315192
18  1.789818 -0.000003 -0.000018  0.005558 0.090197 0.395774
19  1.207019 -0.000012 -0.000042  0.141886 -0.163086 0.233768
20  5.740636 0.000410 -0.000702  -0.084113 0.000003 0.000070
21  11.481011 0.000339 -0.000762  0.010927 -0.183994 0.011026
22  6.027524 -0.000329 0.000203  1.490185 -0.378117 1.593064
23  0.000001 11.692100 -0.000006  -0.870569 -0.337815 -0.702883
24  0.000003 0.000007 -0.000000  -0.515490 -0.000031 1.570739
25  -0.000001 -0.000011 -0.000000  0.868957 0.000002 1.570712
26  -6.617934 -9.178503 0.826812  1.473120 1.855075 -0.198639
27  6.027511 -0.000261 -0.000227  1.614397 0.849025 -0.665858
28  11.691991 0.000244 0.000856  0.141449 0.000064 -1.732604
29  11.480286 -0.000359 0.000884  -1.186888 0.322552 0.852048
30  3.859435 -0.132788 1.193062  0.466149 -0.051826 -1.783918
31  1.312558 0.000025 -0.000000  -0.013965 -0.041044 -0.156447
32  0.729345 0.000065 -0.000027  -0.128320 -0.117290 -0.954857
33  3.942045 0.050109 0.430997  0.211501 -0.107596 -1.469120
34  1.539096 0.000010 0.000001  0.040712 -0.054386 -1.030469
35  1.196300 0.000076 -0.000004  -0.249391 -0.043040 -0.795121
36  3.883410 -0.050502 -0.431087  0.186407 -0.271796 -1.212184
37  1.719564 -0.000080 -0.000004  0.020974 -0.107650 -1.483528
38  1.209198 0.000036 0.000011  -0.324719 0.069674 -0.493483
39  3.859585 -0.149112 -1.331322  -0.061899 -0.082056 -0.600516
40  1.719412 -0.000099 -0.000035  -0.011527 0.014001 -1.309313
41  1.099673 0.000024 0.000006  -0.007046 -0.008093 -0.789585
42  0.805979 -0.359854 -1.318338  0.991670 0.166767 -0.799535
43  1.789779 -0.000010 -0.000042  0.000057 -0.002451 0.133097
44  1.206996 -0.000006 0.000005  0.000373 -0.000070 1.058782
45  5.740572 0.000056 0.000723  0.168741 -0.000014 0.000021
46  11.481001 -0.000035 0.000926  0.054292 0.068251 0.143474
47  6.027514 -0.000273 -0.000238  -0.962570 -0.416139 -1.710763
48  -0.000002 11.691974 -0.000005  -1.166089 0.609522 0.890046
49  0.000002 -0.000001 0.000000  2.413975 -0.000041 1.570856
50  -0.000006 -0.000016 0.000005  2.272644 -0.000030 1.570865
51  -3.791271 -4.764611 -5.764771  -0.097268 -2.970136 1.467607
52  0.000000 0.000000 0.000001  0.008153 -0.000259 0.000009
53  -0.000000 0.000000 0.000000  1.565115 0.043565 -0.106862
54  -1.000309 -18.689541 -3.649058  -0.861746 0.127865 -1.801144
55  0.000002 0.000000 -0.000000  0.000000 -0.000000 -0.000002
56  0.000031 0.000029 0.000001  -1.571901 -0.044449 -0.106509
57  7.202790 -19.259499 -17.055128  1.570796 -0.000000 0.000000
58  -15.417985 4.000748 -22.641926  1.570796 -0.000000 0.000000
59  2.236387 -2.421983 -5.367696  1.570796 -0.000000 0.000000
60  -0.004311 0.001230 -0.000371  0.006898 -0.005534 -0.284229
61  0.826810 10.209643 -4.879054  1.570796 -0.000000 0.000000
62  0.000000 0.000000 0.000000  -0.078727 -3.136056 0.284226
63  -2.640272 -4.294271 -0.874409  1.570796 0.002427 0.000000
64  -2.545056 -11.742890 -1.445215  1.546321 0.021659 -0.001428
65  -0.109379 -1.951951 -1.519207  0.330971 -0.000000 -0.000000
66  -0.111266 0.057027 24.948328  -0.000000 -0.000000 -0.000000
67  -0.109379 -1.856732 0.287229  -0.142540 -0.000000 -0.000000
68  -0.104048 -4.495923 7.879274  -0.000000 -0.000000 -0.000000
69  -0.195264 4.332630 -9.735162  -0.000000 -0.000000 -0.000000
70  -1.290112 3.693283 8.579671  -0.000000 -0.000000 -0.000000
71  -0.109855 -1.345264 4.822541  -0.000000 -0.000000 -0.000000
72  -1.107529 -1.063453 4.061646  -0.000000 -0.000000 -0.000000
73  0.003659 1.612363 10.733981  0.000000 0.000000 0.198030
74  -2.608509 -13.527018 -2.103444  1.553297 0.021659 -0.001428
time 5
0  0.000006 0.000000 0.000000  -1.570800 -1.391899 -1.570792
1  -4.849906 3.337897 2.232070  -1.544956 -1.855077 -0.198630
2  6.027524 -0.000325 0.000192  -0.482167 -1.181512 -1.768492
3  11.692111 0.000644 -0.000739  -1.384574 -0.000006 -1.200534
4  11.480204 0.000662 -0.000451  1.437759 -0.992192 0.163365
5  3.859508 -0.142880 -1.192050  -0.507739 -0.034586 -1.573166
6  1.312590 0.000012 0.000007  -0.099219 -0.080836 -0.578266
7  0.729354 0.000053 0.000051  -0.083327 -0.106005 -0.262589
8  3.942143 0.046273 -0.431512  -0.423826 0.326055 -0.977403
9  1.539110 0.000084 0.000006  0.011526 -0.070624 -1.101829
10  1.196334 0.000145 0.000028  0.007038 -0.000117 -0.629733
11  3.883502 -0.047270 0.431380  -0.232037 0.533715 -0.537849
12  1.719572 -0.000027 0.000016  0.011709 -0.105542 -1.237432
13  1.209180 0.000093 0.000013  -0.006673 -0.001106 -0.502906
14  3.859662 -0.138475 1.332409  0.013813 0.511197 -0.350141
15  1.719450 -0.000011 0.000020  -0.022509 0.019639 -0.287088
16  1.099675 0.000049 0.000005  -0.286525 0.346051 -1.053593
17  0.770794 -0.901442 1.177685  -1.865794 -0.596007 -0.315192
18  1.789820 -0.000004 -0.000018  0.005558 0.090197 0.395774
19  1.207015 -0.000012 -0.000045  0.141886 -0.163086 0.233767
20  5.740637 0.000411 -0.000706  -0.089118 0.000003 0.000070
21  11.481045 0.000343 -0.000749  -0.001773 -0.178175 0.006705
22  6.027524 -0.000329 0.000203  1.481642 -0.379530 1.609913
23  0.000002 11.692098 -0.000007  -0.848122 -0.320108 -0.686754
24  0.000004 0.000009 -0.000001  -0.515490 -0.000031 1.570739
25  -0.000001 -0.000012 -0.000001  0.868957 0.000002 1.570712
26  -6.617934 -9.178503 0.826812  1.473120 1.855075 -0.198639
27  6.027512 -0.000260 -0.000227  1.630948 0.860580 -0.656860
28  11.691989 0.000244 0.000855  0.141448 0.000062 -1.712033
29  11.480474 -0.000232 0.000865  -1.232792 0.303576 0.864058
30  3.859436 -0.132788 1.193061  0.466149 -0.051826 -1.783918
31  1.312558 0.000027 -0.000000  -0.013965 -0.041044 -0.156447
32  0.729345 0.000066 -0.000028  -0.128320 -0.117290 -0.954857
33  3.942047 0.050109 0.430997  0.211501 -0.107596 -1.469120
34  1.539097 0.000010 0.000000  0.040712 -0.054386 -1.030469
35  1.196299 0.000076 -0.000005  -0.249391 -0.043040 -0.795120
36  3.883411 -0.050502 -0.431087  0.186407 -0.271796 -1.212184
37  1.719564 -0.000080 -0.000003  0.020974 -0.107650 -1.483528
38  1.209197 0.000035 0.000012  -0.324719 0.069674 -0.493483
39  3.859586 -0.149111 -1.331323  -0.064803 -0.082565 -0.583729
40  1.719413 -0.000100 -0.000034  -0.011329 0.012922 -1.278461
41  1.099673 0.000026 0.000007  -0.006862 -0.008092 -0.789437
42  0.805979 -0.359853 -1.318338  0.991670 0.166767 -0.799535
43  1.789779 -0.000009 -0.000042  0.000057 -0.002451 0.133097
44  1.206996 -0.000007 0.000005  0.000372 -0.000070 1.058781
45  5.740572 0.000054 0.000724  0.159004 -0.000014 0.000021
46  11.481039 -0.000012 0.000923  0.047087 0.061722 0.148536
47  6.027514 -0.000273 -0.000238  -0.967604 -0.400967 -1.712253
48  -0.000002 11.691973 -0.000006  -1.154034 0.597346 0.883606
49  0.000004 -0.000001 0.000000  2.413975 -0.000041 1.570856
50  -0.000007 -0.000016 0.000005  2.272644 -0.000030 1.570865
51  -3.899292 -4.947311 -5.641523  -0.145756 -2.990789 1.465263
52  0.000000 0.000000 0.000000  0.008153 -0.000259 0.000009
53  0.000000 0.000000 0.000000  1.565115 0.043565 -0.106862
54  -1.164476 -18.948069 -4.007859  -0.912402 0.141915 -1.818082
55  -0.000001 -0.000000 -0.000000  0.000000 -0.000000 -0.000002
56  0.000028 0.000029 0.000000  -1.571901 -0.044449 -0.106509
57  7.202790 -19.259499 -17.055128  1.570796 -0.000000 0.000000
58  -15.417985 4.000748 -22.641926  1.570796 -0.000000 0.000000
59  2.236387 -2.421983 -5.367696  1.570796 -0.000000 0.000000
60  -0.004311 0.001230 -0.000371  0.006898 -0.005534 -0.284229
61  0.826810 10.209643 -4.879054  1.570796 -0.000000 0.000000
62  0.000000 0.000000 0.000000  -0.078727 -3.136056 0.284226
63  -2.640272 -4.294271 -0.874409  1.570796 0.001798 0.000000
64  -2.533409 -12.046032 -1.561021  1.571596 0.067261 -0.010429
65  -0.109379 -1.951951 -1.519205  0.165486 -0.000000 0.000000
66  -0.109937 0.057027 25.173784  0.000000 -0.000000 0.000000
67  -0.109379 -1.856731 0.287229  -0.285080 -0.000000 0.000000
68  -0.104048 -4.495923 7.879275  0.000000 -0.000000 0.000000
69  -0.195263 4.332629 -8.856797  0.000000 -0.000000 0.000000
70  -1.290112 3.693282 8.579667  0.000000 -0.000000 0.000000
71  -0.109855 -1.345263 4.822540  0.000000 -0.000000 0.000000
72  -1.107528 -1.063453 4.061646  0.000000 -0.000000 0.000000
73  0.003659 1.612363 10.733981  0.000000 -0.000000 0.160674
74  -2.715492 -14.785754 -1.998509  1.411012 0.067261 -0.010429
time 6
0  0.000006 0.000000 0.000000  -1.570800 -1.391899 -1.570792
1  -4.849906 3.337897 2.232070  -1.544956 -1.855077 -0.198630
2  6.027524 -0.000325 0.000192  -0.478365 -1.179269 -1.765568
3  11.692110 0.000644 -0.000740  -1.384573 -0.000005 -1.171285
4  11.480359 0.000677 -0.000373  1.397038 -0.971156 0.168044
5  3.859510 -0.142879 -1.192050  -0.507739 -0.034586 -1.573166
6  1.312590 0.000010 0.000009  -0.099219 -0.080836 -0.578266
7  0.729354 0.000052 0.000051  -0.083327 -0.106005 -0.262589
8  3.942142 0.046272 -0.431512  -0.423826 0.326055 -0.977403
9  1.539111 0.000085 0.000005  0.011526 -0.070624 -1.101829
10  1.196334 0.000147 0.000028  0.007038 -0.000117 -0.629733
11  3.883504 -0.047269 0.431381  -0.232037 0.533715 -0.537849
12  1.719572 -0.000026 0.000015  0.011709 -0.105542 -1.237432
13  1.209180 0.000093 0.000012  -0.006673 -0.001106 -0.502906
14  3.859663 -0.138476 1.332410  0.013813 0.511197 -0.350141
15  1.719449 -0.000010 0.000021  -0.022509 0.019639 -0.287088
16  1.099674 0.000047 0.000007  -0.286525 0.346051 -1.053593
17  0.770795 -0.901442 1.177686  -1.865794 -0.596008 -0.315192
18  1.789819 -0.000004 -0.000019  0.005558 0.090197 0.395774
19  1.207017 -0.000012 -0.000044  0.141886 -0.163086 0.233767
20  5.740638 0.000410 -0.000704  -0.090292 0.000003 0.000071
21  11.481079 0.000346 -0.000731  -0.008891 -0.174558 0.004210
22  6.027524 -0.000329 0.000203  1.479556 -0.381367 1.617127
23  0.000002 11.692100 -0.000007  -0.829868 -0.306060 -0.673493
24  0.000003 0.000009 -0.000001  -0.515490 -0.000031 1.570739
25  -0.000001 -0.000011 -0.000001  0.868957 0.000002 1.570712
26  -6.617934 -9.178503 0.826812  1.473120 1.855075 -0.198639
27  6.027512 -0.000261 -0.000226  1.644392 0.872374 -0.649120
28  11.691992 0.000243 0.000855  0.141448 0.000061 -1.686812
29  11.478841 -0.001141 0.000996  -1.257868 0.280827 0.866045
30  3.859436 -0.132788 1.193062  0.466149 -0.051826 -1.783918
31  1.312558 0.000026 0.000000  -0.013965 -0.041044 -0.156447
32  0.729345 0.000066 -0.000026  -0.128320 -0.117290 -0.954857
33  3.942046 0.050109 0.430997  0.211501 -0.107596 -1.469120
34  1.539096 0.000010 -0.000000  0.040712 -0.054386 -1.030469
35  1.196300 0.000075 -0.000005  -0.249391 -0.043040 -0.795121
36  3.883412 -0.050502 -0.431087  0.186407 -0.271796 -1.212184
37  1.719564 -0.000078 -0.000003  0.020974 -0.107650 -1.483528
38  1.209197 0.000035 0.000012  -0.324719 0.069674 -0.493483
39  3.859585 -0.149112 -1.331323  -0.073034 -0.083737 -0.536382
40  1.719413 -0.000100 -0.000034  -0.010951 0.009844 -1.191240
41  1.099673 0.000026 0.000006  -0.006346 -0.008089 -0.789022
42  0.805979 -0.359854 -1.318338  0.991670 0.166767 -0.799535
43  1.789780 -0.000008 -0.000042  0.000057 -0.002451 0.133097
44  1.206997 -0.000006 0.000006  0.000372 -0.000070 1.058781
45  5.740572 0.000054 0.000724  0.151682 -0.000014 0.000021
46  11.480712 -0.000193 0.000949  0.044254 0.055699 0.150735
47  6.027514 -0.000273 -0.000238  -0.974127 -0.387602 -1.712252
48  -0.000002 11.691974 -0.000006  -1.139259 0.582506 0.875542
49  0.000004 -0.000001 0.000000  2.413975 -0.000041 1.570856
50  -0.000007 -0.000015 0.000005  2.272644 -0.000030 1.570865
51  -3.994860 -5.167105 -5.560360  -0.172432 -3.009587 1.470448
52  0.000000 0.000000 0.000000  0.008153 -0.000259 0.000009
53  -0.000000 0.000000 0.000000  1.565115 0.043565 -0.106862
54  -1.204785 -19.194981 -4.294028  -0.941588 0.156677 -1.820999
55  0.000000 -0.000000 0.000000  0.000000 -0.000000 -0.000002
56  0.000030 0.000029 0.000002  -1.571901 -0.044449 -0.106509
57  7.202790 -19.259499 -17.055128  1.570796 -0.000000 0.000000
58  -15.417985 4.000748 -22.641926  1.570796 -0.000000 0.000000
59  2.236387 -2.421983 -5.367696  1.570796 -0.000000 0.000000
60  -0.004311 0.001230 -0.000371  0.006898 -0.005534 -0.284229
61  0.826810 10.209643 -4.879054  1.570796 -0.000000 0.000000
62  0.000000 0.000000 0.000000  -0.078727 -3.136056 0.284226
63  -2.640272 -4.294271 -0.874409  1.570796 0.000629 0.000000
64  -2.521761 -12.349174 -1.667309  1.592858 0.091790 -0.007315
65  -0.109379 -1.951951 -1.519205  -0.000000 0.000000 0.000000
66  -0.109379 0.057027 25.399250  -0.000000 0.000000 0.000000
67  -0.109379 -1.856732 0.287229  -0.285080 0.000000 0.000000
68  -0.104048 -4.495923 7.879276  -0.000000 0.000000 0.000000
69  -0.195264 4.332631 -7.225552  -0.000000 0.000000 0.000000
70  -1.290112 3.693284 8.579668  -0.000000 0.000000 0.000000
71  -0.109855 -1.345264 4.822541  -0.000000 0.000000 0.000000
72  -1.107529 -1.063453 4.061646  -0.000000 0.000000 0.000000
73  0.003659 1.612363 10.733981  -0.000000 0.000000 0.109417
74  -2.696075 -16.676035 -1.784598  1.535116 0.091790 -0.007315
time 7
0  0.000006 0.000000 0.000000  -1.570800 -1.391899 -1.570792
1  -4.849906 3.337897 2.232070  -1.544956 -1.855077 -0.198630
2  6.027524 -0.000325 0.000192  -0.478986 -1.181093 -1.769266
3  11.692109 0.000641 -0.000739  -1.384571 -0.000004 -1.145222
4  11.480511 0.000690 -0.000300  1.405168 -0.957750 0.169995
5  3.859507 -0.142880 -1.192050  -0.507739 -0.034586 -1.573166
6  1.312590 0.000011 0.000006  -0.099219 -0.080836 -0.578266
7  0.729354 0.000052 0.000049  -0.083327 -0.106005 -0.262589
8  3.942144 0.046272 -0.431511  -0.423826 0.326055 -0.977403
9  1.539110 0.000085 0.000005  0.011526 -0.070624 -1.101829
10  1.196333 0.000142 0.000029  0.007038 -0.000117 -0.629733
11  3.883502 -0.047270 0.431381  -0.232037 0.533715 -0.537849
12  1.719572 -0.000026 0.000013  0.011709 -0.105542 -1.237432
13  1.209179 0.000091 0.000012  -0.006673 -0.001106 -0.502906
14  3.859663 -0.138476 1.332410  0.013813 0.511197 -0.350141
15  1.719447 -0.000011 0.000024  -0.022509 0.019639 -0.287088
16  1.099675 0.000048 0.000004  -0.286525 0.346051 -1.053593
17  0.770792 -0.901443 1.177686  -1.865794 -0.596008 -0.315192
18  1.789818 -0.000003 -0.000018  0.005558 0.090197 0.395774
19  1.207018 -0.000011 -0.000042  0.141886 -0.163086 0.233768
20  5.740636 0.000411 -0.000705  -0.083488 0.000003 0.000070
21  11.481108 0.000348 -0.000718  -0.007772 -0.171815 0.005599
22  6.027524 -0.000329 0.000203  1.480272 -0.379651 1.612590
23  0.000003 11.692098 -0.000007  -0.813506 -0.293739 -0.661500
24  0.000004 0.000009 0.000000  -0.515490 -0.000030 1.570739
25  0.000000 -0.000011 -0.000001  0.868957 0.000002 1.570712
26  -6.617934 -9.178503 0.826812  1.473120 1.855075 -0.198639
27  6.027512 -0.000261 -0.000226  1.642043 0.883697 -0.649611
28  11.691992 0.000243 0.000857  0.141448 0.000059 -1.659751
29  11.479126 -0.000979 0.000973  -1.247115 0.275852 0.858193
30  3.859436 -0.132787 1.193061  0.466149 -0.051826 -1.783918
31  1.312558 0.000025 -0.000001  -0.013965 -0.041043 -0.156447
32  0.729345 0.000065 -0.000027  -0.128320 -0.117290 -0.954857
33  3.942046 0.050109 0.430996  0.211501 -0.107596 -1.469120
34  1.539096 0.000009 -0.000001  0.040712 -0.054386 -1.030469
35  1.196299 0.000076 -0.000005  -0.249391 -0.043040 -0.795121
36  3.883411 -0.050501 -0.431087  0.186407 -0.271796 -1.212184
37  1.719564 -0.000078 -0.000003  0.020974 -0.107650 -1.483528
38  1.209196 0.000035 0.000011  -0.324719 0.069674 -0.493483
39  3.859585 -0.149111 -1.331323  -0.083677 -0.084671 -0.475529
40  1.719412 -0.000100 -0.000034  -0.010860 0.005856 -1.078987
41  1.099673 0.000024 0.000007  -0.005683 -0.008087 -0.788489
42  0.805979 -0.359854 -1.318338  0.991669 0.166767 -0.799535
43  1.789779 -0.000009 -0.000041  0.000058 -0.002451 0.133097
44  1.206996 -0.000006 0.000006  0.000372 -0.000070 1.058782
45  5.740572 0.000055 0.000724  0.149938 -0.000014 0.000021
46  11.480769 -0.000160 0.000945  0.046810 0.055382 0.148921
47  6.027514 -0.000273 -0.000238  -0.985579 -0.383377 -1.706629
48  -0.000000 11.691973 -0.000006  -1.123405 0.566696 0.866687
49  0.000002 -0.000000 -0.000000  2.413975 -0.000041 1.570856
50  -0.000006 -0.000016 0.000006  2.272644 -0.000030 1.570865
51  -3.968215 -5.401304 -5.589904  -0.162943 -3.019369 1.471836
52  0.000000 0.000000 0.000000  0.008153 -0.000259 0.000009
53  -0.000000 0.000000 -0.000000  1.565115 0.043565 -0.106862
54  -1.154386 -19.432642 -4.418011  -0.933623 0.167744 -1.817122
55  0.000000 -0.000000 0.000000  0.000000 -0.000000 -0.000002
56  0.000031 0.000029 0.000001  -1.571901 -0.044449 -0.106509
57  7.202790 -19.259499 -17.055128  1.570796 -0.000000 0.000000
58  -15.417985 4.000748 -22.641926  1.570796 -0.000000 0.000000
59  2.236387 -2.421983 -5.367696  1.570796 -0.000000 0.000000
60  -0.004311 0.001230 -0.000371  0.006898 -0.005534 -0.284229
61  0.826810 10.209643 -4.879054  1.570796 -0.000000 0.000000
62  0.000000 0.000000 0.000000  -0.078727 -3.136056 0.284226
63  -2.640272 -4.294271 -0.874409  1.570796 -0.000000 0.000000
64  -2.516467 -12.613617 -1.745042  1.601745 0.081500 -0.003955
65  -0.109379 -1.951951 -1.519204  -0.000000 -0.000000 0.000000
66  -0.109379 0.057027 25.399248  -0.000000 -0.000000 0.000000
67  -0.109379 -1.856732 0.287231  -0.142540 -0.000000 0.000000
68  -0.104047 -4.495923 7.879276  -0.000000 -0.000000 0.000000
69  -0.195264 4.332630 -6.347187  -0.000000 -0.000000 0.000000
70  -1.290112 3.693283 8.579667  -0.000000 -0.000000 0.000000
71  -0.109856 -1.345263 4.822542  -0.000000 -0.000000 0.000000
72  -1.107529 -1.063453 4.061648  -0.000000 -0.000000 0.000000
73  0.003659 1.612363 10.733983  0.000000 0.000000 0.053408
74  -2.662415 -17.935783 -1.888479  1.601745 0.081500 -0.003955
time 8
0  0.000006 0.000000 0.000000  -1.570800 -1.391899 -1.570792
1  -4.849906 3.337897 2.232070  -1.544956 -1.855077 -0.198630
2  6.027524 -0.000325 0.000192  -0.478930 -1.185693 -1.779636
3  11.692110 0.000644 -0.000739  -1.384570 -0.000003 -1.125012
4  11.480639 0.000701 -0.000239  1.438804 -0.950339 0.167299
5  3.859507 -0.142879 -1.192050  -0.507739 -0.034586 -1.573166
6  1.312590 0.000010 0.000009  -0.099219 -0.080836 -0.578266
7  0.729354 0.000054 0.000052  -0.083327 -0.106005 -0.262589
8  3.942142 0.046274 -0.431513  -0.423826 0.326055 -0.977403
9  1.539110 0.000084 0.000004  0.011526 -0.070624 -1.101829
10  1.196332 0.000146 0.000030  0.007038 -0.000117 -0.629733
11  3.883502 -0.047269 0.431380  -0.232037 0.533715 -0.537849
12  1.719573 -0.000028 0.000014  0.011709 -0.105542 -1.237432
13  1.209179 0.000091 0.000011  -0.006673 -0.001106 -0.502906
14  3.859662 -0.138475 1.332409  0.013813 0.511197 -0.350141
15  1.719447 -0.000012 0.000023  -0.022509 0.019639 -0.287088
16  1.099677 0.000048 0.000003  -0.286525 0.346051 -1.053593
17  0.770794 -0.901442 1.177685  -1.865794 -0.596007 -0.315192
18  1.789817 -0.000004 -0.000018  0.005558 0.090197 0.395774
19  1.207016 -0.000012 -0.000045  0.141886 -0.163086 0.233767
20  5.740637 0.000410 -0.000704  -0.073993 0.000003 0.000071
21  11.481133 0.000350 -0.000706  -0.002456 -0.169889 0.008294
22  6.027524 -0.000329 0.000203  1.481426 -0.375178 1.601846
23  0.000001 11.692098 -0.000007  -0.800754 -0.284315 -0.652087
24  0.000002 0.000008 -0.000002  -0.515490 -0.000031 1.570739
25  -0.000001 -0.000012 -0.000001  0.868957 0.000002 1.570712
26  -6.617934 -9.178503 0.826812  1.473120 1.855075 -0.198639
27  6.027512 -0.000261 -0.000226  1.633423 0.892619 -0.653726
28  11.691991 0.000243 0.000855  0.141447 0.000057 -1.636701
29  11.479278 -0.000902 0.000961  -1.222222 0.280141 0.844208
30  3.859436 -0.132788 1.193062  0.466149 -0.051826 -1.783918
31  1.312558 0.000025 0.000000  -0.013965 -0.041044 -0.156447
32  0.729345 0.000065 -0.000027  -0.128320 -0.117290 -0.954857
33  3.942046 0.050109 0.430996  0.211501 -0.107596 -1.469120
34  1.539097 0.000011 -0.000000  0.040712 -0.054386 -1.030469
35  1.196300 0.000075 -0.000004  -0.249391 -0.043040 -0.795120
36  3.883411 -0.050502 -0.431087  0.186407 -0.271796 -1.212184
37  1.719564 -0.000080 -0.000003  0.020974 -0.107650 -1.483528
38  1.209197 0.000036 0.000011  -0.324719 0.069674 -0.493483
39  3.859585 -0.149112 -1.331323  -0.091989 -0.084950 -0.428162
40  1.719412 -0.000099 -0.000034  -0.011099 0.002764 -0.991772
41  1.099673 0.000025 0.000006  -0.005167 -0.008085 -0.788074
42  0.805979 -0.359854 -1.318339  0.991670 0.166767 -0.799535
43  1.789779 -0.000009 -0.000042  0.000057 -0.002451 0.133097
44  1.206996 -0.000006 0.000005  0.000372 -0.000070 1.058781
45  5.740572 0.000056 0.000724  0.150972 -0.000014 0.000021
46  11.480799 -0.000144 0.000942  0.051371 0.057651 0.145020
47  6.027514 -0.000273 -0.000238  -0.996842 -0.383671 -1.699841
48  -0.000001 11.691973 -0.000005  -1.109895 0.553324 0.858982
49  0.000003 -0.000001 -0.000000  2.413975 -0.000041 1.570856
50  -0.000007 -0.000016 0.000006  2.272644 -0.000030 1.570865
51  -3.896970 -5.598062 -5.664924  -0.138260 -3.020374 1.471821
52  -0.000000 0.000000 -0.000000  0.008153 -0.000259 0.000009
53  -0.000000 -0.000000 -0.000000  1.565115 0.043565 -0.106862
54  -1.071093 -19.619267 -4.404082  -0.909168 0.172250 -1.810002
55  0.000001 -0.000000 -0.000001  0.000000 -0.000000 -0.000002
56  0.000029 0.000029 0.000000  -1.571901 -0.044449 -0.106509
57  7.202790 -19.259499 -17.055128  1.570796 -0.000000 0.000000
58  -15.417985 4.000748 -22.641926  1.570796 -0.000000 0.000000
59  2.236387 -2.421983 -5.367696  1.570796 -0.000000 0.000000
60  -0.004311 0.001230 -0.000371  0.006898 -0.005534 -0.284229
61  0.826810 10.209643 -4.879054  1.570796 -0.000000 0.000000
62  0.000000 0.000000 0.000000  -0.078727 -3.136056 0.284226
63  -2.640272 -4.294271 -0.874409  1.570796 -0.000000 0.000000
64  -2.518403 -12.800662 -1.775183  1.600384 0.057018 -0.001067
65  -0.109378 -1.951951 -1.519206  -0.000000 -0.000000 -0.000000
66  -0.109379 0.057027 25.399252  -0.000000 -0.000000 -0.000000
67  -0.109378 -1.856732 0.287228  -0.000000 -0.000000 -0.000000
68  -0.104047 -4.495923 7.879276  -0.000000 -0.000000 -0.000000
69  -0.195264 4.332631 -6.533092  -0.000000 -0.000000 0.042872
70  -1.290112 3.693284 8.579667  -0.000000 -0.000000 -0.000000
71  -0.109855 -1.345263 4.822540  -0.000000 -0.000000 -0.000000
72  -1.107529 -1.063453 4.061647  -0.000000 -0.000000 -0.000000
73  0.003659 1.612363 10.733981  0.000000 -0.000000 0.001927
74  -2.645020 -18.123436 -1.914398  1.600384 0.057018 -0.001067
time 9
0  0.000006 0.000000 0.000000  -1.570800 -1.391899 -1.570792
1  -4.849906 3.337897 2.232070  -1.544956 -1.855077 -0.198630
2  6.027524 -0.000325 0.000192  -0.484524 -1.189091 -1.783808
3  11.692110 0.000644 -0.000739  -1.384570 -0.000003 -1.119381
4  11.480672 0.000706 -0.000220  1.476188 -0.954419 0.166931
5  3.859511 -0.142880 -1.192050  -0.507739 -0.034586 -1.573166
6  1.312590 0.000010 0.000008  -0.099219 -0.080836 -0.578266
7  0.729355 0.000055 0.000053  -0.083327 -0.106005 -0.262589
8  3.942142 0.046273 -0.431513  -0.423826 0.326055 -0.977403
9  1.539111 0.000085 0.000002  0.011527 -0.070624 -1.101829
10  1.196332 0.000143 0.000027  0.007038 -0.000117 -0.629733
11  3.883506 -0.047269 0.431380  -0.232037 0.533715 -0.537849
12  1.719573 -0.000026 0.000013  0.011709 -0.105542 -1.237432
13  1.209179 0.000090 0.000011  -0.006673 -0.001106 -0.502906
14  3.859664 -0.138475 1.332409  0.013813 0.511197 -0.350141
15  1.719447 -0.000012 0.000024  -0.022509 0.019639 -0.287088
16  1.099675 0.000048 0.000006  -0.286525 0.346051 -1.053593
17  0.770794 -0.901442 1.177685  -1.865794 -0.596007 -0.315192
18  1.789816 -0.000004 -0.000020  0.005558 0.090197 0.395774
19  1.207016 -0.000011 -0.000043  0.141886 -0.163086 0.233767
20  5.740638 0.000409 -0.000703  -0.065787 0.000003 0.000071
21  11.481139 0.000351 -0.000702  0.003981 -0.170184 0.011529
22  6.027524 -0.000329 0.000203  1.484467 -0.372366 1.591376
23  0.000003 11.692099 -0.000007  -0.797191 -0.281710 -0.649447
24  0.000003 0.000009 -0.000001  -0.515490 -0.000031 1.570739
25  -0.000000 -0.000011 -0.000001  0.868957 0.000002 1.570712
26  -6.617934 -9.178503 0.826812  1.473120 1.855075 -0.198639
27  6.027512 -0.000261 -0.000226  1.623930 0.897824 -0.658646
28  11.691993 0.000244 0.000856  0.141447 0.000056 -1.625911
29  11.479352 -0.000866 0.000955  -1.191736 0.286788 0.837841
30  3.859436 -0.132787 1.193062  0.466149 -0.051826 -1.783918
31  1.312559 0.000026 -0.000000  -0.013965 -0.041044 -0.156447
32  0.729345 0.000065 -0.000027  -0.128320 -0.117290 -0.954857
33  3.942046 0.050109 0.430997  0.211501 -0.107596 -1.469120
34  1.539097 0.000010 -0.000000  0.040712 -0.054386 -1.030469
35  1.196299 0.000075 -0.000004  -0.249391 -0.043040 -0.795120
36  3.883412 -0.050502 -0.431087  0.186407 -0.271796 -1.212184
37  1.719565 -0.000077 -0.000003  0.020974 -0.107650 -1.483528
38  1.209197 0.000036 0.000011  -0.324719 0.069674 -0.493483
39  3.859586 -0.149112 -1.331323  -0.094938 -0.084955 -0.411363
40  1.719413 -0.000099 -0.000035  -0.011248 0.001677 -0.960922
41  1.099673 0.000025 0.000006  -0.004984 -0.008084 -0.787926
42  0.805979 -0.359854 -1.318338  0.991670 0.166767 -0.799535
43  1.789779 -0.000010 -0.000042  0.000057 -0.002451 0.133097
44  1.206996 -0.000007 0.000005  0.000372 -0.000070 1.058781
45  5.740572 0.000054 0.000724  0.155364 -0.000014 0.000021
46  11.480816 -0.000138 0.000940  0.056636 0.060896 0.142287
47  6.027514 -0.000273 -0.000238  -1.004925 -0.386162 -1.694318
48  -0.000001 11.691974 -0.000005  -1.103567 0.547094 0.855325
49  0.000003 -0.000001 -0.000000  2.413975 -0.000041 1.570856
50  -0.000006 -0.000015 0.000006  2.272644 -0.000030 1.570865
51  -3.808117 -5.686356 -5.719736  -0.108622 -3.019853 1.471137
52  -0.000000 -0.000000 0.000000  0.008153 -0.000259 0.000009
53  0.000000 0.000000 0.000000  1.565115 0.043565 -0.106862
54  -0.980249 -19.694780 -4.328125  -0.879500 0.175719 -1.801958
55  -0.000001 -0.000000 0.000000  0.000000 -0.000000 -0.000002
56  0.000029 0.000029 0.000001  -1.571901 -0.044449 -0.106509
57  7.202790 -19.259499 -17.055128  1.570796 -0.000000 0.000000
58  -15.417985 4.000748 -22.641926  1.570796 -0.000000 0.000000
59  2.236387 -2.421983 -5.367696  1.570796 -0.000000 0.000000
60  -0.004311 0.001230 -0.000371  0.006898 -0.005534 -0.284229
61  0.826810 10.209643 -4.879054  1.570796 -0.000000 0.000000
62  0.000000 0.000000 0.000000  -0.078727 -3.136056 0.284226
63  -2.640272 -4.294271 -0.874409  1.570796 -0.000000 0.000000
64  -2.523242 -12.871611 -1.766357  1.596936 0.027795 0.001694
65  -0.109379 -1.951951 -1.519205  0.000000 0.000000 0.000000
66  -0.109379 0.057027 25.399256  0.000000 0.000000 0.000000
67  -0.109379 -1.856732 0.287231  0.000000 0.000000 0.000000
68  -0.104047 -4.495923 7.879276  0.000000 0.000000 0.000000
69  -0.195264 4.332631 -6.440138  0.000000 0.000000 0.007805
70  -1.290112 3.693283 8.579672  0.000000 0.000000 0.000000
71  -0.109855 -1.345264 4.822541  0.000000 0.000000 0.000000
72  -1.107528 -1.063453 4.061648  0.000000 0.000000 0.000000
73  0.003659 1.612363 10.733983  -0.000000 0.000000 -0.035728
74  -2.630530 -18.195177 -1.890701  1.596936 0.027795 0.001694
time 10
0  0.000006 0.000000 0.000000  -1.570800 -1.391899 -1.570792
1  -4.849906 3.337897 2.232070  -1.544956 -1.855077 -0.198630
2  6.027524 -0.000325 0.000192  -0.492116 -1.190864 -1.783116
3  11.692110 0.000644 -0.000738  -1.384570 -0.000003 -1.123971
4  11.480644 0.000704 -0.000234  1.507512 -0.963777 0.166584
5  3.859509 -0.142879 -1.192049  -0.507739 -0.034586 -1.573166
6  1.312589 0.000009 0.000007  -0.099219 -0.080836 -0.578266
7  0.729354 0.000054 0.000053  -0.083327 -0.106005 -0.262589
8  3.942143 0.046273 -0.431511  -0.423826 0.326055 -0.977403
9  1.539111 0.000086 0.000007  0.011527 -0.070624 -1.101829
10  1.196332 0.000142 0.000029  0.007038 -0.000117 -0.629733
11  3.883506 -0.047269 0.431382  -0.232037 0.533715 -0.537849
12  1.719573 -0.000028 0.000015  0.011709 -0.105542 -1.237432
13  1.209180 0.000090 0.000009  -0.006673 -0.001106 -0.502906
14  3.859662 -0.138475 1.332411  0.013813 0.511197 -0.350141
15  1.719448 -0.000011 0.000024  -0.022509 0.019639 -0.287088
16  1.099675 0.000049 0.000008  -0.286525 0.346051 -1.053593
17  0.770793 -0.901441 1.177686  -1.865794 -0.596007 -0.315192
18  1.789822 -0.000003 -0.000019  0.005558 0.090197 0.395774
19  1.207015 -0.000011 -0.000044  0.141886 -0.163086 0.233767
20  5.740637 0.000411 -0.000704  -0.060347 0.000003 0.000071
21  11.481133 0.000351 -0.000705  0.009499 -0.171601 0.014176
22  6.027524 -0.000329 0.000203  1.487850 -0.371281 1.583791
23  0.000003 11.692100 -0.000008  -0.800096 -0.283833 -0.651599
24  0.000002 0.000008 -0.000001  -0.515490 -0.000031 1.570739
25  -0.000000 -0.000011 -0.000002  0.868957 0.000002 1.570712
26  -6.617934 -9.178503 0.826812  1.473120 1.855075 -0.198639
27  6.027512 -0.000261 -0.000226  1.615746 0.898766 -0.663104
28  11.691990 0.000242 0.000856  0.141447 0.000056 -1.625152
29  11.479356 -0.000862 0.000954  -1.165940 0.293790 0.835953
30  3.859437 -0.132787 1.193061  0.466149 -0.051826 -1.783918
31  1.312558 0.000026 -0.000000  -0.013965 -0.041043 -0.156447
32  0.729345 0.000067 -0.000028  -0.128320 -0.117290 -0.954857
33  3.942047 0.050109 0.430997  0.211501 -0.107596 -1.469120
34  1.539097 0.000010 -0.000001  0.040712 -0.054386 -1.030469
35  1.196299 0.000076 -0.000003  -0.249391 -0.043040 -0.795120
36  3.883410 -0.050502 -0.431088  0.186407 -0.271796 -1.212184
37  1.719565 -0.000079 -0.000004  0.020974 -0.107650 -1.483528
38  1.209196 0.000036 0.000011  -0.324719 0.069674 -0.493483
39  3.859585 -0.149112 -1.331323  -0.094938 -0.084955 -0.411363
40  1.719412 -0.000100 -0.000034  -0.011248 0.001677 -0.960922
41  1.099674 0.000025 0.000007  -0.004984 -0.008084 -0.787926
42  0.805979 -0.359854 -1.318338  0.991669 0.166767 -0.799535
43  1.789780 -0.000008 -0.000042  0.000057 -0.002451 0.133097
44  1.206997 -0.000006 0.000005  0.000372 -0.000070 1.058781
45  5.740572 0.000056 0.000723  0.160226 -0.000014 0.000021
46  11.480816 -0.000136 0.000939  0.060899 0.063968 0.140574
47  6.027514 -0.000273 -0.000238  -1.008625 -0.390053 -1.690974
48  -0.000002 11.691973 -0.000007  -1.103122 0.546657 0.855066
49  0.000003 0.000001 -0.000000  2.413975 -0.000041 1.570856
50  -0.000007 -0.000016 0.000005  2.272644 -0.000030 1.570865
51  -3.733119 -5.689303 -5.760782  -0.083586 -3.017638 1.470350
52  0.000000 -0.000000 -0.000001  0.008153 -0.000259 0.000009
53  0.000000 0.000000 -0.000000  1.565115 0.043565 -0.106862
54  -0.909066 -19.684444 -4.234314  -0.854182 0.176688 -1.795239
55  -0.000000 0.000000 0.000000  0.000000 -0.000000 -0.000002
56  0.000028 0.000029 0.000001  -1.571901 -0.044449 -0.106509
57  7.202790 -19.259499 -17.055128  1.570796 -0.000000 0.000000
58  -15.417985 4.000748 -22.641926  1.570796 -0.000000 0.000000
59  2.236387 -2.421983 -5.367696  1.570796 -0.000000 0.000000
60  -0.004311 0.001230 -0.000371  0.006898 -0.005534 -0.284229
61  0.826810 10.209643 -4.879054  1.570796 -0.000000 0.000000
62  0.000000 0.000000 0.000000  -0.078727 -3.136056 0.284226
63  -2.640272 -4.294271 -0.874409  1.570796 -0.000000 0.000000
64  -2.529534 -12.853045 -1.743297  1.592181 0.003307 0.003901
65  -0.109379 -1.951951 -1.519206  0.000000 0.000000 0.000000
66  -0.109379 0.057027 25.399250  0.000000 0.000000 0.000000
67  -0.109379 -1.856731 0.287228  0.000000 0.000000 0.000000
68  -0.104048 -4.495924 7.879274  0.000000 0.000000 0.000000
69  -0.195264 4.332631 -6.347187  0.000000 0.000000 -0.027266
70  -1.290112 3.693283 8.579668  0.000000 0.000000 0.000000
71  -0.109856 -1.345264 4.822540  0.000000 0.000000 0.000000
72  -1.107529 -1.063453 4.061647  0.000000 0.000000 0.000000
73  0.003659 1.612363 10.733980  0.000000 0.000000 -0.050324
74  -2.621908 -18.177368 -1.845138  1.592181 0.003307 0.003901
time 11
0  0.000006 0.000000 0.000000  -1.570800 -1.391899 -1.570792
1  -4.849906 3.337897 2.232070  -1.544956 -1.855077 -0.198630
2  6.027524 -0.000325 0.000192  -0.493334 -1.192340 -1.785629
3  11.692111 0.000644 -0.000738  -1.384570 -0.000003 -1.128619
4  11.480615 0.000700 -0.000248  1.524011 -0.969212 0.164295
5  3.859508 -0.142880 -1.192050  -0.507739 -0.034587 -1.573166
6  1.312590 0.000010 0.000009  -0.099219 -0.080836 -0.578266
7  0.729355 0.000053 0.000051  -0.083327 -0.106005 -0.262589
8  3.942143 0.046273 -0.431512  -0.423826 0.326055 -0.977403
9  1.539109 0.000085 0.000002  0.011526 -0.070624 -1.101829
10  1.196332 0.000144 0.000030  0.007038 -0.000117 -0.629733
11  3.883505 -0.047269 0.431381  -0.232037 0.533715 -0.537849
12  1.719574 -0.000027 0.000015  0.011709 -0.105542 -1.237432
13  1.209179 0.000092 0.000013  -0.006673 -0.001107 -0.502906
14  3.859661 -0.138475 1.332410  0.013813 0.511197 -0.350141
15  1.719448 -0.000011 0.000022  -0.022509 0.019639 -0.287088
16  1.099674 0.000048 0.000006  -0.286525 0.346051 -1.053593
17  0.770794 -0.901442 1.177686  -1.865794 -0.596008 -0.315192
18  1.789819 -0.000004 -0.000019  0.005558 0.090197 0.395774
19  1.207015 -0.000012 -0.000044  0.141886 -0.163086 0.233767
20  5.740637 0.000410 -0.000704  -0.058407 0.000003 0.000071
21  11.481128 0.000350 -0.000707  0.012254 -0.172450 0.015202
22  6.027524 -0.000329 0.000203  1.488674 -0.369943 1.579848
23  0.000002 11.692100 -0.000007  -0.803034 -0.285989 -0.653774
24  0.000003 0.000009 -0.000001  -0.515490 -0.000030 1.570739
25  -0.000001 -0.000011 -0.000000  0.868957 0.000002 1.570712
26  -6.617934 -9.178503 0.826812  1.473120 1.855075 -0.198639
27  6.027512 -0.000261 -0.000226  1.612361 0.897764 -0.665005
28  11.691992 0.000245 0.000856  0.141447 0.000056 -1.627672
29  11.479340 -0.000871 0.000957  -1.155521 0.298372 0.833646
30  3.859435 -0.132788 1.193062  0.466149 -0.051826 -1.783918
31  1.312559 0.000027 -0.000000  -0.013965 -0.041044 -0.156447
32  0.729345 0.000065 -0.000027  -0.128320 -0.117290 -0.954857
33  3.942044 0.050109 0.430997  0.211501 -0.107596 -1.469120
34  1.539097 0.000009 0.000001  0.040712 -0.054386 -1.030469
35  1.196299 0.000075 -0.000004  -0.249391 -0.043040 -0.795120
36  3.883411 -0.050502 -0.431087  0.186407 -0.271796 -1.212184
37  1.719564 -0.000077 -0.000004  0.020974 -0.107650 -1.483528
38  1.209197 0.000036 0.000012  -0.324719 0.069674 -0.493483
39  3.859584 -0.149112 -1.331323  -0.094938 -0.084955 -0.411363
40  1.719412 -0.000099 -0.000034  -0.011248 0.001677 -0.960922
41  1.099674 0.000024 0.000007  -0.004984 -0.008084 -0.787926
42  0.805978 -0.359854 -1.318338  0.991670 0.166767 -0.799535
43  1.789780 -0.000009 -0.000042  0.000057 -0.002451 0.133097
44  1.206997 -0.000006 0.000005  0.000372 -0.000070 1.058782
45  5.740571 0.000055 0.000724  0.162393 -0.000014 0.000021
46  11.480811 -0.000138 0.000941  0.062511 0.065485 0.139494
47  6.027514 -0.000273 -0.000238  -1.008879 -0.392377 -1.690129
48  -0.000001 11.691972 -0.000006  -1.104600 0.548109 0.855924
49  0.000003 -0.000001 0.000000  2.413975 -0.000041 1.570856
50  -0.000006 -0.000016 0.000005  2.272644 -0.000030 1.570865
51  -3.704611 -5.666644 -5.778496  -0.072729 -3.013432 1.469937
52  0.000000 0.000001 -0.000001  0.008153 -0.000259 0.000009
53  -0.000001 0.000000 -0.000000  1.565115 0.043565 -0.106862
54  -0.883473 -19.650787 -4.149283  -0.842803 0.173827 -1.792302
55  0.000000 0.000001 -0.000000  0.000000 -0.000000 -0.000002
56  0.000030 0.000030 0.000001  -1.571901 -0.044449 -0.106509
57  7.202790 -19.259499 -17.055128  1.570796 -0.000000 0.000000
58  -15.417985 4.000748 -22.641926  1.570796 -0.000000 0.000000
59  2.236387 -2.421983 -5.367696  1.570796 -0.000000 0.000000
60  -0.004311 0.001230 -0.000371  0.006898 -0.005534 -0.284229
61  0.826810 10.209643 -4.879054  1.570796 -0.000000 0.000000
62  0.000000 0.000000 0.000000  -0.078727 -3.136056 0.284226
63  -2.640272 -4.294271 -0.874409  1.570796 -0.000000 0.000000
64  -2.535825 -12.807962 -1.711125  1.586869 -0.006964 0.004864
65  -0.109378 -1.951951 -1.519207  0.000000 -0.000000 -0.000000
66  -0.109379 0.057027 25.399248  0.000000 -0.000000 -0.000000
67  -0.109379 -1.856732 0.287228  0.000000 -0.000000 -0.000000
68  -0.104048 -4.495923 7.879272  0.000000 -0.000000 -0.000000
69  -0.195264 4.332630 -6.347186  -0.000000 -0.000000 -0.013627
70  -1.290112 3.693283 8.579666  0.000000 -0.000000 -0.000000
71  -0.109855 -1.345264 4.822538  0.000000 -0.000000 -0.000000
72  -1.107528 -1.063453 4.061646  0.000000 -0.000000 -0.000000
73  0.003659 1.612363 10.733979  0.000000 -0.000000 -0.034255
74  -2.622218 -18.132837 -1.785839  1.586869 -0.006964 0.004864
time 12
0  0.000006 0.000000 0.000000  -1.570800 -1.391899 -1.570792
1  -4.849906 3.337897 2.232070  -1.544956 -1.855077 -0.198630
2  6.027524 -0.000325 0.000192  -0.487996 -1.193600 -1.791679
3  11.692111 0.000643 -0.000738  -1.384570 -0.000003 -1.131550
4  11.480595 0.000698 -0.000257  1.525573 -0.969611 0.161364
5  3.859508 -0.142880 -1.192050  -0.507739 -0.034586 -1.573166
6  1.312590 0.000010 0.000008  -0.099219 -0.080836 -0.578266
7  0.729354 0.000055 0.000052  -0.083327 -0.106005 -0.262589
8  3.942143 0.046273 -0.431512  -0.423826 0.326055 -0.977403
9  1.539111 0.000084 0.000005  0.011527 -0.070624 -1.101829
10  1.196332 0.000146 0.000029  0.007038 -0.000117 -0.629733
11  3.883506 -0.047269 0.431382  -0.232037 0.533715 -0.537849
12  1.719572 -0.000027 0.000015  0.011709 -0.105542 -1.237432
13  1.209178 0.000093 0.000013  -0.006673 -0.001106 -0.502906
14  3.859663 -0.138476 1.332410  0.013813 0.511197 -0.350141
15  1.719449 -0.000012 0.000022  -0.022509 0.019639 -0.287088
16  1.099676 0.000049 0.000005  -0.286525 0.346051 -1.053593
17  0.770794 -0.901442 1.177686  -1.865794 -0.596007 -0.315192
18  1.789820 -0.000003 -0.000018  0.005558 0.090197 0.395774
19  1.207015 -0.000012 -0.000043  0.141886 -0.163086 0.233767
20  5.740636 0.000411 -0.000703  -0.059475 0.000003 0.000071
21  11.481126 0.000349 -0.000707  0.012320 -0.172512 0.014808
22  6.027524 -0.000329 0.000203  1.486920 -0.368273 1.579393
23  0.000002 11.692099 -0.000008  -0.804886 -0.287352 -0.655143
24  0.000004 0.000008 -0.000001  -0.515490 -0.000031 1.570739
25  -0.000001 -0.000011 -0.000002  0.868957 0.000002 1.570712
26  -6.617934 -9.178503 0.826812  1.473120 1.855075 -0.198639
27  6.027512 -0.000261 -0.000226  1.613054 0.895656 -0.664706
28  11.691992 0.000246 0.000856  0.141447 0.000057 -1.631977
29  11.479308 -0.000888 0.000959  -1.159223 0.301125 0.831237
30  3.859436 -0.132787 1.193062  0.466149 -0.051826 -1.783918
31  1.312558 0.000024 -0.000000  -0.013965 -0.041044 -0.156447
32  0.729345 0.000066 -0.000028  -0.128320 -0.117290 -0.954857
33  3.942047 0.050109 0.430997  0.211501 -0.107596 -1.469120
34  1.539097 0.000009 0.000000  0.040712 -0.054386 -1.030469
35  1.196300 0.000075 -0.000004  -0.249391 -0.043040 -0.795120
36  3.883413 -0.050502 -0.431086  0.186407 -0.271796 -1.212184
37  1.719564 -0.000080 -0.000004  0.020974 -0.107650 -1.483528
38  1.209196 0.000036 0.000011  -0.324719 0.069674 -0.493483
39  3.859585 -0.149112 -1.331323  -0.094938 -0.084955 -0.411363
40  1.719412 -0.000099 -0.000034  -0.011248 0.001677 -0.960922
41  1.099674 0.000026 0.000006  -0.004984 -0.008084 -0.787926
42  0.805979 -0.359854 -1.318338  0.991670 0.166767 -0.799535
43  1.789780 -0.000008 -0.000042  0.000057 -0.002451 0.133097
44  1.206996 -0.000006 0.000005  0.000373 -0.000070 1.058781
45  5.740571 0.000056 0.000724  0.161991 -0.000014 0.000021
46  11.480805 -0.000142 0.000941  0.061657 0.065667 0.139061
47  6.027514 -0.000273 -0.000238  -1.006685 -0.393099 -1.691211
48  -0.000000 11.691972 -0.000005  -1.107125 0.550594 0.857385
49  0.000003 -0.000000 0.000000  2.413975 -0.000041 1.570856
50  -0.000006 -0.000017 0.000005  2.272644 -0.000030 1.570865
51  -3.714258 -5.630776 -5.775546  -0.075074 -3.008044 1.469281
52  0.000000 -0.000000 -0.000000  0.008153 -0.000259 0.000009
53  0.000001 0.000000 0.000001  1.565115 0.043565 -0.106862
54  -0.901826 -19.609118 -4.082716  -0.844486 0.168198 -1.793551
55  0.000001 0.000000 0.000001  0.000000 -0.000000 -0.000002
56  0.000031 0.000029 0.000002  -1.571901 -0.044449 -0.106509
57  7.202790 -19.259499 -17.055128  1.570796 -0.000000 0.000000
58  -15.417985 4.000748 -22.641926  1.570796 -0.000000 0.000000
59  2.236387 -2.421983 -5.367696  1.570796 -0.000000 0.000000
60  -0.004311 0.001230 -0.000371  0.006898 -0.005534 -0.284229
61  0.826810 10.209643 -4.879054  1.570796 -0.000000 0.000000
62  0.000000 0.000000 0.000000  -0.078727 -3.136056 0.284226
63  -2.640272 -4.294271 -0.874409  1.570796 -0.000000 0.000000
64  -2.540665 -12.752289 -1.674967  1.581755 -0.004084 0.003930
65  -0.109379 -1.951951 -1.519204  -0.000000 0.000000 -0.000000
66  -0.109379 0.057027 25.399254  -0.000000 0.000000 -0.000000
67  -0.109379 -1.856732 0.287231  -0.000000 0.000000 -0.000000
68  -0.104048 -4.495923 7.879276  -0.000000 0.000000 -0.000000
69  -0.195264 4.332630 -6.347187  -0.000000 0.000000 -0.000000
70  -1.290112 3.693283 8.579670  -0.000000 0.000000 -0.000000
71  -0.109855 -1.345264 4.822541  -0.000000 0.000000 -0.000000
72  -1.107529 -1.063453 4.061648  -0.000000 0.000000 -0.000000
73  0.003659 1.612363 10.733983  0.000000 0.000000 -0.004401
74  -2.632355 -18.077391 -1.722132  1.581755 -0.004084 0.003930
time 13
0  0.000006 0.000000 0.000000  -1.570800 -1.391899 -1.570792
1  -4.849906 3.337897 2.232070  -1.544956 -1.855077 -0.198630
2  6.027524 -0.000325 0.000192  -0.480569 -1.194741 -1.798805
3  11.692110 0.000643 -0.000739  -1.384570 -0.000003 -1.133090
4  11.480585 0.000695 -0.000261  1.521668 -0.967997 0.159680
5  3.859509 -0.142879 -1.192048  -0.507739 -0.034586 -1.573166
6  1.312590 0.000013 0.000008  -0.099219 -0.080836 -0.578266
7  0.729354 0.000053 0.000047  -0.083327 -0.106005 -0.262589
8  3.942140 0.046273 -0.431511  -0.423826 0.326055 -0.977403
9  1.539110 0.000085 0.000007  0.011526 -0.070624 -1.101829
10  1.196333 0.000144 0.000029  0.007038 -0.000117 -0.629733
11  3.883505 -0.047269 0.431383  -0.232037 0.533715 -0.537849
12  1.719573 -0.000027 0.000017  0.011709 -0.105542 -1.237432
13  1.209179 0.000092 0.000013  -0.006673 -0.001106 -0.502906
14  3.859659 -0.138475 1.332410  0.013813 0.511197 -0.350141
15  1.719448 -0.000010 0.000021  -0.022509 0.019639 -0.287088
16  1.099677 0.000052 0.000006  -0.286525 0.346051 -1.053593
17  0.770794 -0.901442 1.177687  -1.865794 -0.596008 -0.315192
18  1.789819 -0.000003 -0.000017  0.005558 0.090197 0.395774
19  1.207016 -0.000012 -0.000044  0.141886 -0.163086 0.233767
20  5.740636 0.000410 -0.000702  -0.061245 0.000003 0.000071
21  11.481123 0.000348 -0.000708  0.011504 -0.172249 0.014162
22  6.027524 -0.000329 0.000203  1.484355 -0.366530 1.580094
23  0.000002 11.692099 -0.000007  -0.805858 -0.288068 -0.655861
24  0.000003 0.000008 0.000000  -0.515490 -0.000031 1.570739
25  -0.000001 -0.000012 -0.000001  0.868957 0.000002 1.570712
26  -6.617934 -9.178503 0.826812  1.473120 1.855075 -0.198639
27  6.027512 -0.000261 -0.000226  1.614548 0.893976 -0.663955
28  11.691990 0.000243 0.000856  0.141447 0.000057 -1.636228
29  11.479280 -0.000901 0.000961  -1.166425 0.303733 0.830126
30  3.859437 -0.132788 1.193062  0.466149 -0.051826 -1.783918
31  1.312558 0.000026 -0.000000  -0.013965 -0.041043 -0.156447
32  0.729346 0.000066 -0.000026  -0.128320 -0.117290 -0.954857
33  3.942046 0.050109 0.430996  0.211501 -0.107596 -1.469120
34  1.539097 0.000008 0.000000  0.040712 -0.054386 -1.030469
35  1.196300 0.000076 -0.000005  -0.249391 -0.043040 -0.795121
36  3.883412 -0.050502 -0.431087  0.186407 -0.271796 -1.212184
37  1.719564 -0.000081 -0.000004  0.020974 -0.107650 -1.483528
38  1.209196 0.000036 0.000011  -0.324719 0.069674 -0.493483
39  3.859585 -0.149112 -1.331324  -0.094938 -0.084955 -0.411363
40  1.719411 -0.000099 -0.000035  -0.011248 0.001677 -0.960922
41  1.099673 0.000026 0.000007  -0.004984 -0.008084 -0.787926
42  0.805980 -0.359854 -1.318339  0.991670 0.166767 -0.799535
43  1.789779 -0.000010 -0.000042  0.000057 -0.002451 0.133097
44  1.206997 -0.000006 0.000005  0.000373 -0.000070 1.058781
45  5.740571 0.000056 0.000723  0.161056 -0.000014 0.000021
46  11.480800 -0.000144 0.000941  0.060135 0.065617 0.139040
47  6.027514 -0.000273 -0.000238  -1.004606 -0.393168 -1.692423
48  -0.000002 11.691974 -0.000006  -1.109617 0.553050 0.858823
49  0.000003 -0.000001 0.000000  2.413975 -0.000041 1.570856
50  -0.000007 -0.000015 0.000005  2.272644 -0.000030 1.570865
51  -3.726934 -5.595027 -5.762692  -0.080996 -3.003256 1.467938
52  0.000000 0.000000 -0.000000  0.008153 -0.000259 0.000009
53  0.000001 -0.000000 -0.000000  1.565115 0.043565 -0.106862
54  -0.933663 -19.572247 -4.029386  -0.849799 0.162731 -1.796572
55  -0.000000 0.000000 0.000000  0.000000 -0.000000 -0.000002
56  0.000029 0.000030 0.000001  -1.571901 -0.044449 -0.106509
57  7.202790 -19.259499 -17.055128  1.570796 -0.000000 0.000000
58  -15.417985 4.000748 -22.641926  1.570796 -0.000000 0.000000
59  2.236387 -2.421983 -5.367696  1.570796 -0.000000 0.000000
60  -0.004311 0.001230 -0.000371  0.006898 -0.005534 -0.284229
61  0.826810 10.209643 -4.879054  1.570796 -0.000000 0.000000
62  0.000000 0.000000 0.000000  -0.078727 -3.136056 0.284226
63  -2.640272 -4.294271 -0.874409  1.570796 -0.000000 0.000000
64  -2.542601 -12.701947 -1.639946  1.577609 0.002253 0.001788
65  -0.109378 -1.951951 -1.519205  -0.000000 0.000000 0.000000
66  -0.109379 0.057027 25.399254  -0.000000 0.000000 0.000000
67  -0.109379 -1.856732 0.287230  -0.000000 0.000000 0.000000
68  -0.104048 -4.495923 7.879277  -0.000000 0.000000 0.000000
69  -0.195264 4.332631 -6.347188  -0.000000 0.000000 0.000000
70  -1.290112 3.693283 8.579670  -0.000000 0.000000 0.000000
71  -0.109855 -1.345263 4.822541  -0.000000 0.000000 0.000000
72  -1.107528 -1.063453 4.061650  -0.000000 0.000000 0.000000
73  0.003659 1.612363 10.733984  -0.000000 0.000000 0.011675
74  -2.645945 -18.026989 -1.664321  1.577609 0.002253 0.001788
time 14
0  0.000006 0.000000 0.000000  -1.570800 -1.391899 -1.570792
1  -4.849906 3.337897 2.232070  -1.544956 -1.855077 -0.198630
2  6.027524 -0.000325 0.000192  -0.473189 -1.195867 -1.805924
3  11.692110 0.000643 -0.000739  -1.384570 -0.000003 -1.132592
4  11.480590 0.000699 -0.000261  1.516752 -0.965244 0.158762
5  3.859507 -0.142880 -1.192050  -0.507739 -0.034586 -1.573166
6  1.312590 0.000014 0.000008  -0.099219 -0.080836 -0.578266
7  0.729355 0.000054 0.000048  -0.083327 -0.106005 -0.262589
8  3.942143 0.046273 -0.431512  -0.423826 0.326055 -0.977403
9  1.539111 0.000086 0.000004  0.011527 -0.070624 -1.101829
10  1.196332 0.000143 0.000027  0.007038 -0.000117 -0.629733
11  3.883505 -0.047269 0.431381  -0.232037 0.533715 -0.537849
12  1.719573 -0.000027 0.000017  0.011709 -0.105542 -1.237432
13  1.209179 0.000092 0.000012  -0.006673 -0.001106 -0.502906
14  3.859663 -0.138476 1.332410  0.013813 0.511197 -0.350141
15  1.719449 -0.000011 0.000021  -0.022509 0.019639 -0.287088
16  1.099675 0.000048 0.000004  -0.286525 0.346051 -1.053593
17  0.770793 -0.901443 1.177686  -1.865794 -0.596008 -0.315192
18  1.789816 -0.000004 -0.000019  0.005558 0.090197 0.395774
19  1.207018 -0.000012 -0.000044  0.141886 -0.163086 0.233767
20  5.740637 0.000411 -0.000703  -0.062709 0.000003 0.000070
21  11.481124 0.000350 -0.000709  0.010546 -0.171771 0.013578
22  6.027524 -0.000329 0.000203  1.481829 -0.364791 1.580744
23  0.000001 11.692098 -0.000008  -0.805544 -0.287836 -0.655629
24  0.000005 0.000009 -0.000001  -0.515490 -0.000030 1.570739
25  -0.000001 -0.000011 -0.000002  0.868957 0.000002 1.570712
26  -6.617934 -9.178503 0.826812  1.473120 1.855075 -0.198639
27  6.027512 -0.000261 -0.000226  1.616128 0.893397 -0.663117
28  11.691990 0.000243 0.000856  0.141448 0.000057 -1.638553
29  11.479264 -0.000910 0.000961  -1.173521 0.305634 0.829344
30  3.859437 -0.132788 1.193061  0.466149 -0.051826 -1.783918
31  1.312558 0.000026 -0.000000  -0.013965 -0.041044 -0.156447
32  0.729345 0.000064 -0.000027  -0.128320 -0.117290 -0.954857
33  3.942047 0.050110 0.430996  0.211501 -0.107596 -1.469120
34  1.539097 0.000010 -0.000000  0.040712 -0.054386 -1.030469
35  1.196300 0.000076 -0.000004  -0.249391 -0.043040 -0.795121
36  3.883412 -0.050501 -0.431087  0.186407 -0.271796 -1.212184
37  1.719564 -0.000079 -0.000004  0.020974 -0.107650 -1.483528
38  1.209197 0.000036 0.000011  -0.324719 0.069674 -0.493483
39  3.859586 -0.149112 -1.331323  -0.094938 -0.084955 -0.411363
40  1.719411 -0.000099 -0.000035  -0.011248 0.001677 -0.960922
41  1.099674 0.000027 0.000007  -0.004984 -0.008084 -0.787926
42  0.805979 -0.359854 -1.318338  0.991669 0.166767 -0.799535
43  1.789779 -0.000009 -0.000042  0.000057 -0.002451 0.133097
44  1.206996 -0.000006 0.000005  0.000373 -0.000070 1.058781
45  5.740571 0.000054 0.000723  0.160003 -0.000014 0.000021
46  11.480797 -0.000147 0.000941  0.058684 0.065453 0.139110
47  6.027514 -0.000273 -0.000238  -1.003516 -0.392618 -1.693234
48  -0.000000 11.691973 -0.000006  -1.110981 0.554395 0.859607
49  0.000002 -0.000001 0.000000  2.413975 -0.000041 1.570856
50  -0.000006 -0.000015 0.000004  2.272644 -0.000030 1.570865
51  -3.737198 -5.575232 -5.746811  -0.087060 -2.999742 1.466616
52  0.000000 0.000000 -0.000001  0.008153 -0.000259 0.000009
53  0.000001 0.000000 0.000000  1.565115 0.043565 -0.106862
54  -0.963182 -19.553471 -3.990961  -0.855395 0.158503 -1.799635
55  -0.000002 0.000000 -0.000000  0.000000 -0.000000 -0.000002
56  0.000030 0.000029 0.000001  -1.571901 -0.044449 -0.106509
57  7.202790 -19.259499 -17.055128  1.570796 -0.000000 0.000000
58  -15.417985 4.000748 -22.641926  1.570796 -0.000000 0.000000
59  2.236387 -2.421983 -5.367696  1.570796 -0.000000 0.000000
60  -0.004311 0.001230 -0.000371  0.006898 -0.005534 -0.284229
61  0.826810 10.209643 -4.879054  1.570796 -0.000000 0.000000
62  0.000000 0.000000 0.000000  -0.078727 -3.136056 0.284226
63  -2.640272 -4.294271 -0.874409  1.570796 -0.000000 0.000000
64  -2.542105 -12.672861 -1.611186  1.574739 0.008591 -0.000396
65  -0.109379 -1.951951 -1.519207  0.000000 -0.000000 -0.000000
66  -0.109379 0.057027 25.399254  0.000000 -0.000000 -0.000000
67  -0.109378 -1.856732 0.287229  0.000000 -0.000000 -0.000000
68  -0.104048 -4.495923 7.879274  0.000000 -0.000000 -0.000000
69  -0.195264 4.332630 -6.347189  0.000000 -0.000000 -0.000000
70  -1.290112 3.693283 8.579666  0.000000 -0.000000 -0.000000
71  -0.109856 -1.345264 4.822539  0.000000 -0.000000 -0.000000
72  -1.107528 -1.063453 4.061646  0.000000 -0.000000 -0.000000
73  0.003659 1.612363 10.733980  0.000000 -0.000000 0.004786
74  -2.657099 -17.997711 -1.619562  1.574739 0.008591 -0.000396
time 15
0  0.000006 0.000000 0.000000  -1.570800 -1.391899 -1.570792
1  -4.849906 3.337897 2.232070  -1.544956 -1.855077 -0.198630
2  6.027524 -0.000325 0.000192  -0.468936 -1.196759 -1.810592
3  11.692110 0.000643 -0.000740  -1.384570 -0.000003 -1.131656
4  11.480597 0.000697 -0.000256  1.515472 -0.963435 0.157843
5  3.859507 -0.142879 -1.192050  -0.507739 -0.034586 -1.573166
6  1.312590 0.000011 0.000007  -0.099219 -0.080836 -0.578266
7  0.729355 0.000054 0.000052  -0.083327 -0.106005 -0.262589
8  3.942142 0.046273 -0.431512  -0.423826 0.326055 -0.977403
9  1.539111 0.000084 0.000007  0.011526 -0.070624 -1.101829
10  1.196333 0.000146 0.000029  0.007038 -0.000117 -0.629733
11  3.883505 -0.047269 0.431382  -0.232037 0.533715 -0.537849
12  1.719573 -0.000025 0.000016  0.011709 -0.105542 -1.237432
13  1.209179 0.000092 0.000010  -0.006673 -0.001106 -0.502906
14  3.859662 -0.138475 1.332410  0.013813 0.511197 -0.350141
15  1.719450 -0.000009 0.000024  -0.022509 0.019639 -0.287088
16  1.099676 0.000047 0.000004  -0.286525 0.346051 -1.053593
17  0.770794 -0.901442 1.177686  -1.865794 -0.596008 -0.315192
18  1.789820 -0.000003 -0.000018  0.005558 0.090197 0.395774
19  1.207016 -0.000012 -0.000044  0.141886 -0.163086 0.233767
20  5.740637 0.000410 -0.000702  -0.063211 0.000003 0.000071
21  11.481126 0.000349 -0.000706  0.010224 -0.171430 0.013315
22  6.027524 -0.000329 0.000203  1.480448 -0.363545 1.580526
23  0.000002 11.692099 -0.000006  -0.804953 -0.287401 -0.655192
24  0.000004 0.000008 -0.000002  -0.515490 -0.000031 1.570739
25  -0.000000 -0.000011 -0.000001  0.868957 0.000002 1.570712
26  -6.617934 -9.178503 0.826812  1.473120 1.855075 -0.198639
27  6.027512 -0.000261 -0.000226  1.616798 0.893437 -0.662750
28  11.691992 0.000242 0.000856  0.141447 0.000057 -1.639004
29  11.479263 -0.000911 0.000963  -1.176882 0.306798 0.828106
30  3.859436 -0.132787 1.193061  0.466149 -0.051826 -1.783918
31  1.312558 0.000024 -0.000001  -0.013965 -0.041043 -0.156447
32  0.729345 0.000064 -0.000027  -0.128320 -0.117290 -0.954857
33  3.942047 0.050109 0.430997  0.211501 -0.107596 -1.469120
34  1.539096 0.000010 0.000000  0.040712 -0.054386 -1.030469
35  1.196300 0.000076 -0.000004  -0.249391 -0.043040 -0.795120
36  3.883412 -0.050502 -0.431087  0.186407 -0.271796 -1.212184
37  1.719564 -0.000079 -0.000004  0.020974 -0.107650 -1.483528
38  1.209197 0.000036 0.000011  -0.324719 0.069674 -0.493483
39  3.859586 -0.149112 -1.331324  -0.094938 -0.084955 -0.411363
40  1.719413 -0.000099 -0.000035  -0.011248 0.001677 -0.960922
41  1.099673 0.000023 0.000007  -0.004984 -0.008084 -0.787926
42  0.805980 -0.359854 -1.318339  0.991670 0.166767 -0.799535
43  1.789779 -0.000009 -0.000043  0.000057 -0.002451 0.133097
44  1.206995 -0.000006 0.000005  0.000372 -0.000070 1.058782
45  5.740572 0.000054 0.000724  0.159388 -0.000014 0.000021
46  11.480796 -0.000147 0.000942  0.057995 0.065401 0.138962
47  6.027514 -0.000273 -0.000238  -1.003320 -0.392237 -1.693464
48  -0.000001 11.691974 -0.000007  -1.111245 0.554655 0.859759
49  0.000003 -0.000000 0.000000  2.413975 -0.000041 1.570856
50  -0.000008 -0.000015 0.000005  2.272644 -0.000030 1.570865
51  -3.740851 -5.571303 -5.739617  -0.089753 -2.997531 1.466007
52  -0.000000 0.000000 0.000000  0.008153 -0.000259 0.000009
53  0.000001 0.000000 -0.000001  1.565115 0.043565 -0.106862
54  -0.975621 -19.548903 -3.964892  -0.857795 0.155976 -1.801004
55  -0.000000 0.000000 0.000000  0.000000 -0.000000 -0.000002
56  0.000031 0.000029 0.000001  -1.571901 -0.044449 -0.106509
57  7.202790 -19.259499 -17.055128  1.570796 -0.000000 0.000000
58  -15.417985 4.000748 -22.641926  1.570796 -0.000000 0.000000
59  2.236387 -2.421983 -5.367696  1.570796 -0.000000 0.000000
60  -0.004311 0.001230 -0.000371  0.006898 -0.005534 -0.284229
61  0.826810 10.209643 -4.879054  1.570796 -0.000000 0.000000
62  0.000000 0.000000 0.000000  -0.078727 -3.136056 0.284226
63  -2.640272 -4.294271 -0.874409  1.570796 -0.000000 0.000000
64  -2.540864 -12.662166 -1.593813  1.572815 0.011471 -0.001408
65  -0.109379 -1.951952 -1.519205  -0.000000 0.000000 0.000000
66  -0.109379 0.057027 25.399254  -0.000000 0.000000 0.000000
67  -0.109379 -1.856732 0.287231  -0.000000 0.000000 0.000000
68  -0.104048 -4.495924 7.879276  -0.000000 0.000000 0.000000
69  -0.195264 4.332630 -6.347188  -0.000000 0.000000 0.000000
70  -1.290112 3.693283 8.579668  -0.000000 0.000000 0.000000
71  -0.109855 -1.345264 4.822542  -0.000000 0.000000 0.000000
72  -1.107528 -1.063453 4.061648  -0.000000 0.000000 0.000000
73  0.003659 1.612363 10.733983  0.000000 0.000000 -0.008007
74  -2.661151 -17.986906 -1.591619  1.572815 0.011471 -0.001408
time 16
0  0.000006 0.000000 0.000000  -1.570800 -1.391899 -1.570792
1  -4.849906 3.337897 2.232070  -1.544956 -1.855077 -0.198630
2  6.027524 -0.000325 0.000192  -0.469176 -1.197164 -1.811339
3  11.692112 0.000644 -0.000739  -1.384570 -0.000003 -1.132299
4  11.480589 0.000698 -0.000259  1.518778 -0.964171 0.157355
5  3.859511 -0.142879 -1.192050  -0.507739 -0.034586 -1.573166
6  1.312589 0.000011 0.000007  -0.099219 -0.080836 -0.578266
7  0.729355 0.000054 0.000046  -0.083327 -0.106005 -0.262589
8  3.942147 0.046273 -0.431512  -0.423826 0.326055 -0.977403
9  1.539111 0.000085 0.000005  0.011527 -0.070624 -1.101829
10  1.196332 0.000145 0.000028  0.007038 -0.000117 -0.629733
11  3.883507 -0.047269 0.431381  -0.232037 0.533715 -0.537849
12  1.719572 -0.000028 0.000017  0.011709 -0.105542 -1.237432
13  1.209179 0.000092 0.000012  -0.006673 -0.001106 -0.502906
14  3.859664 -0.138475 1.332409  0.013813 0.511197 -0.350141
15  1.719447 -0.000012 0.000022  -0.022509 0.019639 -0.287088
16  1.099675 0.000050 0.000003  -0.286525 0.346051 -1.053593
17  0.770797 -0.901442 1.177685  -1.865794 -0.596007 -0.315192
18  1.789818 -0.000003 -0.000019  0.005558 0.090197 0.395774
19  1.207015 -0.000012 -0.000044  0.141886 -0.163086 0.233768
20  5.740637 0.000410 -0.000704  -0.062794 0.000003 0.000071
21  11.481123 0.000349 -0.000710  0.010766 -0.171531 0.013519
22  6.027524 -0.000329 0.000203  1.480646 -0.363174 1.579484
23  0.000002 11.692098 -0.000008  -0.805359 -0.287700 -0.655492
24  0.000003 0.000009 -0.000002  -0.515490 -0.000031 1.570739
25  -0.000001 -0.000011 -0.000001  0.868957 0.000002 1.570712
26  -6.617934 -9.178503 0.826812  1.473120 1.855075 -0.198639
27  6.027512 -0.000261 -0.000226  1.616047 0.893519 -0.663156
28  11.691991 0.000244 0.000856  0.141447 0.000057 -1.639113
29  11.479261 -0.000911 0.000962  -1.175100 0.307801 0.827382
30  3.859436 -0.132788 1.193062  0.466149 -0.051826 -1.783918
31  1.312559 0.000025 -0.000000  -0.013965 -0.041043 -0.156447
32  0.729345 0.000064 -0.000027  -0.128320 -0.117290 -0.954857
33  3.942046 0.050109 0.430997  0.211501 -0.107596 -1.469120
34  1.539097 0.000010 -0.000000  0.040712 -0.054386 -1.030469
35  1.196300 0.000076 -0.000004  -0.249391 -0.043040 -0.795120
36  3.883411 -0.050502 -0.431087  0.186407 -0.271796 -1.212184
37  1.719563 -0.000079 -0.000004  0.020974 -0.107650 -1.483528
38  1.209196 0.000036 0.000011  -0.324719 0.069674 -0.493483
39  3.859585 -0.149112 -1.331323  -0.094938 -0.084955 -0.411363
40  1.719411 -0.000099 -0.000034  -0.011248 0.001677 -0.960922
41  1.099673 0.000026 0.000006  -0.004984 -0.008084 -0.787926
42  0.805979 -0.359854 -1.318338  0.991670 0.166767 -0.799535
43  1.789780 -0.000009 -0.000042  0.000057 -0.002451 0.133097
44  1.206996 -0.000007 0.000005  0.000373 -0.000070 1.058781
45  5.740572 0.000056 0.000724  0.159714 -0.000014 0.000021
46  11.480796 -0.000146 0.000942  0.058262 0.065692 0.138703
47  6.027514 -0.000273 -0.000238  -1.003657 -0.392599 -1.693156
48  -0.000002 11.691975 -0.000007  -1.111309 0.554719 0.859796
49  0.000003 -0.000001 0.000000  2.413975 -0.000041 1.570856
50  -0.000008 -0.000015 0.000005  2.272644 -0.000030 1.570865
51  -3.733371 -5.569934 -5.742362  -0.087830 -2.996555 1.465951
52  0.000000 -0.000000 -0.000000  0.008153 -0.000259 0.000009
53  -0.000000 -0.000000 -0.000000  1.565115 0.043565 -0.106862
54  -0.968248 -19.544836 -3.946342  -0.855760 0.155246 -1.800467
55  -0.000001 0.000000 -0.000000  0.000000 -0.000000 -0.000002
56  0.000029 0.000029 0.000001  -1.571902 -0.044449 -0.106509
57  7.202790 -19.259499 -17.055128  1.570796 -0.000000 0.000000
58  -15.417985 4.000748 -22.641926  1.570796 -0.000000 0.000000
59  2.236387 -2.421983 -5.367696  1.570796 -0.000000 0.000000
60  -0.004311 0.001230 -0.000371  0.006898 -0.005534 -0.284229
61  0.826810 10.209643 -4.879054  1.570796 -0.000000 0.000000
62  0.000000 0.000000 0.000000  -0.078727 -3.136056 0.284226
63  -2.640272 -4.294271 -0.874409  1.570796 -0.000000 0.000000
64  -2.539251 -12.655678 -1.586126  1.571648 0.009679 -0.001199
65  -0.109378 -1.951951 -1.519206  -0.000000 0.000000 0.000000
66  -0.109379 0.057027 25.399252  -0.000000 0.000000 0.000000
67  -0.109379 -1.856731 0.287229  -0.000000 0.000000 0.000000
68  -0.104047 -4.495923 7.879277  -0.000000 0.000000 0.000000
69  -0.195264 4.332630 -6.347188  -0.000000 0.000000 0.000000
70  -1.290112 3.693284 8.579667  -0.000000 0.000000 0.000000
71  -0.109855 -1.345264 4.822539  -0.000000 0.000000 0.000000
72  -1.107528 -1.063453 4.061646  -0.000000 0.000000 0.000000
73  0.003659 1.612363 10.733980  -0.000000 0.000000 -0.014896
74  -2.658370 -17.980438 -1.577919  1.571648 0.009679 -0.001199
time 17
0  0.000006 0.000000 0.000000  -1.570800 -1.391899 -1.570792
1  -4.849906 3.337897 2.232070  -1.544956 -1.855077 -0.198630
2  6.027524 -0.000325 0.000192  -0.471014 -1.197383 -1.810658
3  11.692110 0.000643 -0.000739  -1.384570 -0.000003 -1.133362
4  11.480583 0.000698 -0.000264  1.523674 -0.965882 0.157541
5  3.859509 -0.142880 -1.192048  -0.507739 -0.034586 -1.573166
6  1.312591 0.000014 0.000009  -0.099219 -0.080836 -0.578266
7  0.729356 0.000054 0.000052  -0.083327 -0.106005 -0.262589
8  3.942142 0.046273 -0.431511  -0.423826 0.326055 -0.977403
9  1.539111 0.000084 0.000005  0.011527 -0.070624 -1.101829
10  1.196333 0.000145 0.000028  0.007038 -0.000117 -0.629733
11  3.883505 -0.047269 0.431382  -0.232037 0.533715 -0.537849
12  1.719574 -0.000026 0.000015  0.011709 -0.105542 -1.237432
13  1.209179 0.000092 0.000012  -0.006673 -0.001106 -0.502906
14  3.859663 -0.138476 1.332411  0.013813 0.511197 -0.350141
15  1.719450 -0.000011 0.000022  -0.022509 0.019639 -0.287088
16  1.099676 0.000048 0.000008  -0.286525 0.346051 -1.053593
17  0.770794 -0.901442 1.177687  -1.865794 -0.596008 -0.315192
18  1.789820 -0.000004 -0.000018  0.005558 0.090197 0.395774
19  1.207013 -0.000012 -0.000044  0.141886 -0.163086 0.233767
20  5.740638 0.000410 -0.000703  -0.061944 0.000003 0.000071
21  11.481122 0.000350 -0.000712  0.011646 -0.171804 0.013980
22  6.027524 -0.000329 0.000203  1.481399 -0.363126 1.578187
23  0.000002 11.692099 -0.000008  -0.806030 -0.288195 -0.655988
24  0.000005 0.000009 -0.000000  -0.515490 -0.000031 1.570739
25  -0.000001 -0.000011 -0.000002  0.868957 0.000002 1.570712
26  -6.617934 -9.178503 0.826812  1.473120 1.855075 -0.198639
27  6.027512 -0.000261 -0.000226  1.614620 0.893822 -0.663922
28  11.691991 0.000243 0.000856  0.141447 0.000057 -1.639039
29  11.479263 -0.000910 0.000962  -1.170887 0.308922 0.827416
30  3.859436 -0.132788 1.193062  0.466149 -0.051826 -1.783918
31  1.312558 0.000026 0.000000  -0.013965 -0.041044 -0.156447
32  0.729345 0.000064 -0.000027  -0.128320 -0.117290 -0.954857
33  3.942047 0.050109 0.430997  0.211501 -0.107596 -1.469120
34  1.539096 0.000010 -0.000000  0.040712 -0.054386 -1.030469
35  1.196300 0.000076 -0.000003  -0.249391 -0.043040 -0.795120
36  3.883413 -0.050502 -0.431087  0.186407 -0.271796 -1.212184
37  1.719564 -0.000078 -0.000003  0.020974 -0.107650 -1.483528
38  1.209198 0.000035 0.000011  -0.324719 0.069674 -0.493483
39  3.859585 -0.149112 -1.331323  -0.094938 -0.084955 -0.411363
40  1.719412 -0.000100 -0.000035  -0.011248 0.001677 -0.960922
41  1.099674 0.000025 0.000007  -0.004984 -0.008084 -0.787926
42  0.805979 -0.359854 -1.318338  0.991670 0.166767 -0.799535
43  1.789779 -0.000008 -0.000042  0.000057 -0.002451 0.133097
44  1.206996 -0.000005 0.000005  0.000372 -0.000070 1.058782
45  5.740571 0.000055 0.000724  0.160551 -0.000014 0.000021
46  11.480796 -0.000146 0.000942  0.058952 0.066194 0.138484
47  6.027514 -0.000273 -0.000238  -1.004437 -0.393209 -1.692511
48  -0.000000 11.691973 -0.000006  -1.111265 0.554676 0.859770
49  0.000002 0.000001 0.000001  2.413975 -0.000041 1.570856
50  -0.000006 -0.000015 0.000005  2.272644 -0.000030 1.570865
51  -3.718824 -5.569695 -5.747370  -0.083804 -2.996368 1.465859
52  0.000000 0.000000 0.000000  0.008153 -0.000259 0.000009
53  -0.000000 -0.000000 0.000000  1.565115 0.043565 -0.106862
54  -0.953975 -19.542150 -3.932021  -0.851735 0.155554 -1.799354
55  0.000000 0.000000 0.000001  0.000000 -0.000000 -0.000002
56  0.000030 0.000029 0.000001  -1.571902 -0.044449 -0.106509
57  7.202790 -19.259499 -17.055128  1.570796 -0.000000 0.000000
58  -15.417985 4.000748 -22.641926  1.570796 -0.000000 0.000000
59  2.236387 -2.421983 -5.367696  1.570796 -0.000000 0.000000
60  -0.004311 0.001230 -0.000371  0.006898 -0.005534 -0.284229
61  0.826810 10.209643 -4.879054  1.570796 -0.000000 0.000000
62  0.000000 0.000000 0.000000  -0.078727 -3.136056 0.284226
63  -2.640272 -4.294271 -0.874409  1.570796 -0.000000 0.000000
64  -2.537637 -12.652347 -1.582178  1.571049 0.005736 -0.000714
65  -0.109378 -1.951951 -1.519205  0.000000 0.000000 -0.000000
66  -0.109379 0.057027 25.399252  0.000000 0.000000 -0.000000
67  -0.109378 -1.856732 0.287230  0.000000 0.000000 -0.000000
68  -0.104047 -4.495923 7.879276  0.000000 0.000000 -0.000000
69  -0.195263 4.332631 -6.347186  0.000000 0.000000 -0.000000
70  -1.290112 3.693284 8.579667  0.000000 0.000000 -0.000000
71  -0.109855 -1.345264 4.822541  0.000000 0.000000 -0.000000
72  -1.107528 -1.063453 4.061647  0.000000 0.000000 -0.000000
73  0.003659 1.612363 10.733982  0.000000 -0.000000 -0.011034
74  -2.654187 -17.977160 -1.571225  1.571049 0.005736 -0.000714
time 18
0  0.000006 0.000000 0.000000  -1.570800 -1.391899 -1.570792
1  -4.849906 3.337897 2.232070  -1.544956 -1.855077 -0.198630
2  6.027524 -0.000325 0.000192  -0.473096 -1.197474 -1.809538
3  11.692111 0.000643 -0.000739  -1.384570 -0.000003 -1.134354
4  11.480579 0.000696 -0.000266  1.528120 -0.967611 0.157963
5  3.859507 -0.142880 -1.192049  -0.507739 -0.034586 -1.573166
6  1.312590 0.000012 0.000005  -0.099219 -0.080836 -0.578266
7  0.729357 0.000053 0.000050  -0.083327 -0.106005 -0.262589
8  3.942142 0.046272 -0.431511  -0.423826 0.326055 -0.977403
9  1.539111 0.000087 0.000007  0.011527 -0.070624 -1.101829
10  1.196333 0.000145 0.000030  0.007038 -0.000117 -0.629733
11  3.883503 -0.047269 0.431381  -0.232037 0.533715 -0.537849
12  1.719574 -0.000027 0.000016  0.011709 -0.105542 -1.237432
13  1.209180 0.000093 0.000013  -0.006673 -0.001107 -0.502906
14  3.859661 -0.138476 1.332410  0.013813 0.511197 -0.350141
15  1.719450 -0.000010 0.000024  -0.022509 0.019639 -0.287088
16  1.099673 0.000047 0.000002  -0.286525 0.346051 -1.053593
17  0.770793 -0.901443 1.177686  -1.865794 -0.596008 -0.315192
18  1.789818 -0.000004 -0.000018  0.005558 0.090197 0.395774
19  1.207013 -0.000012 -0.000044  0.141886 -0.163086 0.233767
20  5.740637 0.000410 -0.000703  -0.061108 0.000003 0.000070
21  11.481122 0.000349 -0.000710  0.012466 -0.172085 0.014444
22  6.027524 -0.000329 0.000203  1.482211 -0.363224 1.577080
23  0.000002 11.692097 -0.000007  -0.806656 -0.288657 -0.656450
24  0.000002 0.000008 -0.000002  -0.515490 -0.000031 1.570738
25  -0.000000 -0.000012 -0.000001  0.868957 0.000002 1.570712
26  -6.617934 -9.178503 0.826812  1.473120 1.855075 -0.198639
27  6.027512 -0.000261 -0.000226  1.613238 0.894152 -0.664663
28  11.691991 0.000243 0.000855  0.141447 0.000057 -1.638903
29  11.479263 -0.000909 0.000962  -1.166615 0.309832 0.827769
30  3.859436 -0.132787 1.193063  0.466149 -0.051826 -1.783918
31  1.312558 0.000024 -0.000000  -0.013965 -0.041044 -0.156447
32  0.729345 0.000066 -0.000027  -0.128320 -0.117290 -0.954857
33  3.942046 0.050109 0.430998  0.211501 -0.107596 -1.469120
34  1.539096 0.000010 -0.000000  0.040712 -0.054386 -1.030469
35  1.196300 0.000075 -0.000003  -0.249391 -0.043040 -0.795121
36  3.883411 -0.050502 -0.431087  0.186407 -0.271796 -1.212184
37  1.719564 -0.000078 -0.000004  0.020974 -0.107650 -1.483528
38  1.209197 0.000035 0.000012  -0.324719 0.069674 -0.493483
39  3.859585 -0.149112 -1.331323  -0.094938 -0.084955 -0.411363
40  1.719413 -0.000099 -0.000035  -0.011248 0.001677 -0.960922
41  1.099673 0.000025 0.000007  -0.004984 -0.008084 -0.787926
42  0.805978 -0.359854 -1.318338  0.991670 0.166767 -0.799535
43  1.789779 -0.000009 -0.000042  0.000057 -0.002451 0.133097
44  1.206996 -0.000007 0.000005  0.000372 -0.000070 1.058782
45  5.740571 0.000056 0.000724  0.161412 -0.000014 0.000021
46  11.480797 -0.000146 0.000942  0.059662 0.066670 0.138334
47  6.027514 -0.000273 -0.000238  -1.005227 -0.393779 -1.691872
48  -0.000002 11.691974 -0.000005  -1.111186 0.554597 0.859725
49  0.000003 -0.000000 0.000000  2.413975 -0.000041 1.570856
50  -0.000007 -0.000015 0.000005  2.272644 -0.000030 1.570865
51  -3.704628 -5.569972 -5.752125  -0.079817 -2.996560 1.465774
52  -0.000000 0.000000 -0.000001  0.008153 -0.000259 0.000009
53  -0.000001 0.000000 0.000000  1.565115 0.043565 -0.106862
54  -0.940098 -19.540665 -3.922763  -0.847796 0.156228 -1.798251
55  -0.000002 -0.000001 0.000000  0.000000 -0.000000 -0.000002
56  0.000030 0.000028 0.000001  -1.571901 -0.044449 -0.106509
57  7.202790 -19.259499 -17.055128  1.570796 -0.000000 0.000000
58  -15.417985 4.000748 -22.641926  1.570796 -0.000000 0.000000
59  2.236387 -2.421983 -5.367696  1.570796 -0.000000 0.000000
60  -0.004311 0.001230 -0.000371  0.006898 -0.005534 -0.284229
61  0.826810 10.209643 -4.879054  1.570796 -0.000000 0.000000
62  0.000000 0.000000 0.000000  -0.078727 -3.136056 0.284226
63  -2.640272 -4.294271 -0.874409  1.570796 -0.000000 0.000000
64  -2.536397 -12.651119 -1.580724  1.570828 0.001792 -0.000224
65  -0.109379 -1.951951 -1.519206  -0.000000 -0.000000 -0.000000
66  -0.109379 0.057027 25.399250  -0.000000 -0.000000 -0.000000
67  -0.109379 -1.856732 0.287228  -0.000000 -0.000000 -0.000000
68  -0.104048 -4.495923 7.879277  -0.000000 -0.000000 -0.000000
69  -0.195264 4.332630 -6.347189  -0.000000 -0.000000 -0.000000
70  -1.290112 3.693283 8.579668  -0.000000 -0.000000 -0.000000
71  -0.109855 -1.345264 4.822540  -0.000000 -0.000000 -0.000000
72  -1.107528 -1.063453 4.061646  -0.000000 -0.000000 -0.000000
73  0.003658 1.612363 10.733981  0.000000 0.000000 -0.003862
74  -2.650373 -17.975986 -1.569039  1.570828 0.001792 -0.000224
time 19
0  0.000006 0.000000 0.000000  -1.570800 -1.391899 -1.570792
1  -4.849906 3.337897 2.232070  -1.544956 -1.855077 -0.198630
2  6.027524 -0.000325 0.000192  -0.474085 -1.197492 -1.808951
3  11.692111 0.000643 -0.000740  -1.384570 -0.000003 -1.134792
4  11.480574 0.000697 -0.000269  1.530060 -0.968402 0.158196
5  3.859509 -0.142880 -1.192049  -0.507739 -0.034586 -1.573166
6  1.312590 0.000010 0.000007  -0.099219 -0.080836 -0.578266
7  0.729356 0.000052 0.000048  -0.083327 -0.106005 -0.262589
8  3.942142 0.046273 -0.431511  -0.423826 0.326055 -0.977403
9  1.539109 0.000084 0.000005  0.011526 -0.070624 -1.101829
10  1.196334 0.000145 0.000031  0.007038 -0.000117 -0.629733
11  3.883502 -0.047269 0.431382  -0.232037 0.533715 -0.537849
12  1.719572 -0.000026 0.000014  0.011709 -0.105542 -1.237432
13  1.209179 0.000093 0.000011  -0.006673 -0.001106 -0.502906
14  3.859660 -0.138476 1.332410  0.013813 0.511197 -0.350141
15  1.719451 -0.000009 0.000023  -0.022509 0.019639 -0.287088
16  1.099676 0.000047 0.000005  -0.286525 0.346051 -1.053593
17  0.770793 -0.901442 1.177686  -1.865794 -0.596007 -0.315192
18  1.789816 -0.000003 -0.000019  0.005558 0.090197 0.395774
19  1.207017 -0.000011 -0.000044  0.141886 -0.163086 0.233767
20  5.740636 0.000411 -0.000704  -0.060730 0.000003 0.000071
21  11.481119 0.000349 -0.000711  0.012828 -0.172215 0.014655
22  6.027524 -0.000329 0.000203  1.482590 -0.363294 1.576611
23  0.000002 11.692099 -0.000007  -0.806932 -0.288861 -0.656654
24  0.000003 0.000008 -0.000001  -0.515490 -0.000030 1.570739
25  -0.000001 -0.000011 -0.000000  0.868957 0.000002 1.570712
26  -6.617934 -9.178503 0.826812  1.473120 1.855075 -0.198639
27  6.027512 -0.000261 -0.000226  1.612618 0.894307 -0.664996
28  11.691992 0.000245 0.000855  0.141447 0.000057 -1.638830
29  11.479261 -0.000909 0.000963  -1.164663 0.310207 0.827988
30  3.859436 -0.132787 1.193061  0.466149 -0.051826 -1.783918
31  1.312558 0.000026 -0.000000  -0.013965 -0.041043 -0.156447
32  0.729346 0.000065 -0.000027  -0.128320 -0.117290 -0.954857
33  3.942046 0.050109 0.430997  0.211501 -0.107596 -1.469120
34  1.539096 0.000009 0.000000  0.040712 -0.054386 -1.030469
35  1.196301 0.000076 -0.000004  -0.249391 -0.043040 -0.795121
36  3.883411 -0.050501 -0.431087  0.186407 -0.271796 -1.212184
37  1.719565 -0.000080 -0.000003  0.020974 -0.107650 -1.483528
38  1.209197 0.000035 0.000012  -0.324719 0.069674 -0.493484
39  3.859584 -0.149111 -1.331323  -0.094938 -0.084955 -0.411363
40  1.719412 -0.000099 -0.000034  -0.011248 0.001677 -0.960922
41  1.099673 0.000025 0.000007  -0.004984 -0.008084 -0.787926
42  0.805979 -0.359854 -1.318338  0.991670 0.166767 -0.799535
43  1.789780 -0.000008 -0.000042  0.000057 -0.002451 0.133097
44  1.206997 -0.000006 0.000005  0.000372 -0.000070 1.058782
45  5.740570 0.000055 0.000724  0.161808 -0.000014 0.000021
46  11.480795 -0.000145 0.000943  0.059988 0.066882 0.138277
47  6.027514 -0.000273 -0.000238  -1.005589 -0.394031 -1.691582
48  -0.000000 11.691973 -0.000005  -1.111143 0.554555 0.859700
49  0.000003 0.000001 -0.000000  2.413975 -0.000041 1.570856
50  -0.000006 -0.000016 0.000006  2.272644 -0.000030 1.570865
51  -3.698235 -5.570189 -5.754230  -0.078012 -2.996716 1.465737
52  0.000001 -0.000000 0.000000  0.008153 -0.000259 0.000009
53  -0.000000 0.000000 0.000000  1.565115 0.043565 -0.106862
54  -0.933866 -19.540205 -3.919470  -0.846021 0.156601 -1.797751
55  0.000001 -0.000001 -0.000000  0.000000 -0.000000 -0.000002
56  0.000030 0.000028 0.000001  -1.571901 -0.044449 -0.106509
57  7.202790 -19.259499 -17.055128  1.570796 -0.000000 0.000000
58  -15.417985 4.000748 -22.641926  1.570796 -0.000000 0.000000
59  2.236387 -2.421983 -5.367696  1.570796 -0.000000 0.000000
60  -0.004311 0.001230 -0.000371  0.006898 -0.005534 -0.284229
61  0.826810 10.209643 -4.879054  1.570796 -0.000000 0.000000
62  0.000000 0.000000 0.000000  -0.078727 -3.136056 0.284226
63  -2.640272 -4.294271 -0.874409  1.570796 -0.000000 0.000000
64  -2.535900 -12.650944 -1.580516  1.570796 -0.000000 -0.000000
65  -0.109379 -1.951951 -1.519205  0.000000 -0.000000 0.000000
66  -0.109379 0.057027 25.399250  0.000000 -0.000000 0.000000
67  -0.109379 -1.856732 0.287230  0.000000 -0.000000 0.000000
68  -0.104047 -4.495923 7.879276  0.000000 -0.000000 0.000000
69  -0.195264 4.332630 -6.347187  0.000000 -0.000000 0.000000
70  -1.290112 3.693283 8.579668  0.000000 -0.000000 0.000000
71  -0.109855 -1.345264 4.822540  0.000000 -0.000000 0.000000
72  -1.107528 -1.063453 4.061647  0.000000 -0.000000 0.000000
73  0.003659 1.612363 10.733982  0.000000 -0.000000 0.000000
74  -2.648707 -17.975836 -1.568866  1.570796 -0.000000 -0.000000
end
