version 1
nodes
0 "ValveBiped.Bip01_Spine4" -1
1 "ValveBiped.Bip01_L_Clavicle" 0
2 "ValveBiped.Bip01_L_UpperArm" 1
3 "ValveBiped.Bip01_L_Forearm" 2
4 "ValveBiped.Bip01_L_Hand" 3
5 "ValveBiped.Bip01_L_Finger4" 4
6 "ValveBiped.Bip01_L_Finger41" 5
7 "ValveBiped.Bip01_L_Finger42" 6
8 "ValveBiped.Bip01_L_Finger3" 4
9 "ValveBiped.Bip01_L_Finger31" 8
10 "ValveBiped.Bip01_L_Finger32" 9
11 "ValveBiped.Bip01_L_Finger2" 4
12 "ValveBiped.Bip01_L_Finger21" 11
13 "ValveBiped.Bip01_L_Finger22" 12
14 "ValveBiped.Bip01_L_Finger1" 4
15 "ValveBiped.Bip01_L_Finger11" 14
16 "ValveBiped.Bip01_L_Finger12" 15
17 "ValveBiped.Bip01_L_Finger0" 4
18 "ValveBiped.Bip01_L_Finger01" 17
19 "ValveBiped.Bip01_L_Finger02" 18
20 "ValveBiped.Bip01_L_Ulna" 3
21 "ValveBiped.Bip01_L_Wrist" 3
22 "rig_l_upperarm" 1
23 "rig_l_forearm" 22
24 "rig_d_l_forearm" 23
25 "rig_d_l_upperarm" 22
26 "ValveBiped.Bip01_R_Clavicle" 0
27 "ValveBiped.Bip01_R_UpperArm" 26
28 "ValveBiped.Bip01_R_Forearm" 27
29 "ValveBiped.Bip01_R_Hand" 28
30 "ValveBiped.Bip01_R_Finger4" 29
31 "ValveBiped.Bip01_R_Finger41" 30
32 "ValveBiped.Bip01_R_Finger42" 31
33 "ValveBiped.Bip01_R_Finger3" 29
34 "ValveBiped.Bip01_R_Finger31" 33
35 "ValveBiped.Bip01_R_Finger32" 34
36 "ValveBiped.Bip01_R_Finger2" 29
37 "ValveBiped.Bip01_R_Finger21" 36
38 "ValveBiped.Bip01_R_Finger22" 37
39 "ValveBiped.Bip01_R_Finger1" 29
40 "ValveBiped.Bip01_R_Finger11" 39
41 "ValveBiped.Bip01_R_Finger12" 40
42 "ValveBiped.Bip01_R_Finger0" 29
43 "ValveBiped.Bip01_R_Finger01" 42
44 "ValveBiped.Bip01_R_Finger02" 43
45 "ValveBiped.Bip01_R_Ulna" 28
46 "ValveBiped.Bip01_R_Wrist" 28
47 "rig_r_upperarm" 26
48 "rig_r_forearm" 47
49 "rig_d_r_forearm" 48
50 "rig_d_r_upperarm" 47
51 "rig_r_hand" -1
52 "rig_d_r_hand" 51
53 "rig_d_r_wrist" 52
54 "rig_l_hand" -1
55 "rig_d_l_hand" 54
56 "rig_d_l_wrist" 54
57 "rig_l_pole" -1
58 "rig_r_pole" -1
59 "rig_l_clavicle" -1
60 "rig_d_l_clavicle" 59
61 "rig_r_clavicle" -1
62 "rig_d_r_clavicle" 61
63 "Camera" -1
64 "body" -1
65 "trigger" 64
66 "barrel" 64
67 "bulletdoor" 64
68 "pump" 64
69 "bolt" 68
70 "tac" 68
71 "bullet2" 64
72 "catch" 64
73 "hookontop" 64
74 "bullet1" -1
end
skeleton
time 0
0  0.000006 0.000000 0.000000  -1.570800 -1.391899 -1.570792
1  -4.849906 3.337897 2.232070  -1.544956 -1.855077 -0.198630
2  6.027524 -0.000325 0.000192  -0.462017 -1.200729 -1.823814
3  11.692111 0.000644 -0.000740  -1.384570 -0.000003 -1.127810
4  11.480619 0.000700 -0.000248  1.522838 -0.948524 0.109134
5  3.859509 -0.142880 -1.192049  -0.507739 -0.034586 -1.573166
6  1.312590 0.000013 0.000007  -0.099219 -0.080836 -0.578266
7  0.729355 0.000054 0.000050  -0.083327 -0.106005 -0.262589
8  3.942142 0.046273 -0.431512  -0.423826 0.326055 -0.977403
9  1.539110 0.000084 0.000006  0.011526 -0.070624 -1.101829
10  1.196333 0.000144 0.000029  0.007038 -0.000117 -0.629733
11  3.883505 -0.047269 0.431381  -0.232037 0.533715 -0.537849
12  1.719573 -0.000026 0.000014  0.011709 -0.105542 -1.237432
13  1.209179 0.000095 0.000013  -0.006673 -0.001107 -0.502906
14  3.859663 -0.138476 1.332410  0.013813 0.511197 -0.350141
15  1.719446 -0.000013 0.000021  -0.022509 0.019639 -0.287088
16  1.099675 0.000046 0.000008  -0.286525 0.346051 -1.053593
17  0.770793 -0.901442 1.177686  -1.865794 -0.596008 -0.315192
18  1.789820 -0.000003 -0.000019  0.005558 0.090197 0.395774
19  1.207016 -0.000012 -0.000043  0.141886 -0.163086 0.233768
20  5.740637 0.000410 -0.000704  -0.069604 0.000003 0.000070
21  11.481129 0.000350 -0.000709  0.007781 -0.168414 0.005253
22  6.027524 -0.000329 0.000203  1.478908 -0.359072 1.574294
23  0.000001 11.692099 -0.000007  -0.802523 -0.285613 -0.653396
24  0.000003 0.000008 -0.000001  -0.515490 -0.000031 1.570739
25  -0.000000 -0.000011 -0.000001  0.868957 0.000002 1.570712
26  -6.617934 -9.178503 0.826812  1.473120 1.855075 -0.198639
27  6.027512 -0.000261 -0.000226  1.634294 0.882425 -0.653847
28  11.691992 0.000242 0.000855  0.141447 0.000056 -1.628682
29  11.479333 -0.000875 0.000957  -1.228905 0.285136 0.770684
30  3.859436 -0.132787 1.193062  0.466149 -0.051826 -1.783918
31  1.312559 0.000026 0.000000  -0.013965 -0.041044 -0.156447
32  0.729345 0.000066 -0.000028  -0.128320 -0.117290 -0.954857
33  3.942047 0.050109 0.430997  0.211501 -0.107596 -1.469120
34  1.539097 0.000011 -0.000001  0.040712 -0.054386 -1.030469
35  1.196299 0.000075 -0.000003  -0.249391 -0.043040 -0.795120
36  3.883411 -0.050501 -0.431087  0.186407 -0.271796 -1.212184
37  1.719564 -0.000080 -0.000003  0.020974 -0.107650 -1.483528
38  1.209197 0.000035 0.000011  -0.324719 0.069674 -0.493483
39  3.859586 -0.149111 -1.331323  -0.094938 -0.084955 -0.411363
40  1.719411 -0.000099 -0.000035  -0.011248 0.001677 -0.960922
41  1.099673 0.000025 0.000006  -0.004984 -0.008084 -0.787926
42  0.805979 -0.359853 -1.318338  0.991670 0.166767 -0.799535
43  1.789780 -0.000009 -0.000042  0.000057 -0.002451 0.133097
44  1.206997 -0.000007 0.000005  0.000372 -0.000070 1.058782
45  5.740574 0.000054 0.000723  0.142093 -0.000014 0.000021
46  11.480812 -0.000139 0.000941  0.051210 0.056383 0.130579
47  6.027514 -0.000273 -0.000238  -0.987010 -0.388281 -1.704338
48  -0.000003 11.691975 -0.000006  -1.105193 0.548692 0.856267
49  0.000003 -0.000001 -0.000000  2.413975 -0.000041 1.570856
50  -0.000008 -0.000015 0.000005  2.272644 -0.000030 1.570865
51  -4.029927 -5.683368 -5.838304  -0.129928 -2.969716 1.488992
52  0.000000 0.000000 -0.000000  0.008153 -0.000259 0.000009
53  0.000000 0.000001 0.000000  1.565115 0.043565 -0.106862
54  -0.953392 -19.567165 -3.852229  -0.893843 0.123214 -1.789358
55  0.000001 0.000000 -0.000000  0.000000 -0.000000 -0.000002
56  0.000030 0.000029 0.000001  -1.571901 -0.044449 -0.106509
57  7.202790 -19.259499 -17.055128  1.570796 -0.000000 0.000000
58  -15.417985 4.000748 -22.641926  1.570796 -0.000000 0.000000
59  2.236387 -2.421983 -5.367696  1.570796 -0.000000 0.000000
60  -0.004311 0.001230 -0.000371  0.006898 -0.005534 -0.284229
61  0.826810 10.209643 -4.879054  1.570796 -0.000000 0.000000
62  0.000000 0.000000 0.000000  -0.078727 -3.136056 0.284226
63  0.000000 0.000000 0.000000  1.570796 -0.000000 0.000000
64  -2.535900 -12.650944 -1.580516  1.549086 0.053723 0.014481
65  -0.109378 -1.951951 -1.519205  -0.000000 0.000000 0.000000
66  -0.109379 0.057027 25.399252  -0.000000 0.000000 0.000000
67  -0.109378 -1.856732 0.287229  -0.000000 0.000000 0.000000
68  -0.104047 -4.495923 7.879278  -0.000000 0.000000 0.000000
69  -0.195264 4.332631 -9.735163  -0.000000 0.000000 0.000000
70  -1.290112 3.693284 8.579670  0.022713 -0.014049 -0.017451
71  -0.121470 -1.314581 7.402088  -0.000000 0.000000 0.000000
72  -1.107528 -1.063453 4.061647  -0.000000 0.000000 0.000000
73  0.003659 1.612363 10.733981  -0.000000 0.000000 0.000000
74  -2.641465 -17.879095 -2.764200  1.549086 0.053723 0.014481
time 1
0  0.000006 0.000000 0.000000  -1.570800 -1.391899 -1.570792
1  -4.849906 3.337897 2.232070  -1.544956 -1.855077 -0.198630
2  6.027524 -0.000325 0.000192  -0.476723 -1.203754 -1.820941
3  11.692109 0.000643 -0.000739  -1.384570 -0.000003 -1.126266
4  11.480632 0.000701 -0.000237  1.574935 -0.962223 0.125326
5  3.859507 -0.142880 -1.192050  -0.507739 -0.034586 -1.573166
6  1.312589 0.000011 0.000007  -0.099219 -0.080836 -0.578266
7  0.729355 0.000055 0.000048  -0.083327 -0.106005 -0.262589
8  3.942142 0.046273 -0.431512  -0.423826 0.326055 -0.977403
9  1.539112 0.000084 0.000004  0.011526 -0.070624 -1.101829
10  1.196332 0.000145 0.000029  0.007038 -0.000117 -0.629733
11  3.883504 -0.047269 0.431381  -0.232037 0.533715 -0.537849
12  1.719573 -0.000026 0.000016  0.011709 -0.105542 -1.237432
13  1.209180 0.000095 0.000014  -0.006673 -0.001106 -0.502906
14  3.859661 -0.138476 1.332410  0.013813 0.511197 -0.350141
15  1.719449 -0.000011 0.000024  -0.022509 0.019639 -0.287088
16  1.099674 0.000047 0.000005  -0.286525 0.346051 -1.053593
17  0.770792 -0.901442 1.177686  -1.865794 -0.596008 -0.315192
18  1.789821 -0.000002 -0.000018  0.005558 0.090197 0.395774
19  1.207014 -0.000011 -0.000044  0.141886 -0.163086 0.233767
20  5.740637 0.000411 -0.000703  -0.055965 0.000003 0.000071
21  11.481132 0.000350 -0.000705  0.018001 -0.170493 0.012814
22  6.027524 -0.000329 0.000203  1.485186 -0.357443 1.561247
23  0.000001 11.692099 -0.000007  -0.801547 -0.284896 -0.652673
24  0.000004 0.000009 -0.000002  -0.515490 -0.000031 1.570739
25  -0.000001 -0.000011 -0.000001  0.868957 0.000002 1.570712
26  -6.617934 -9.178503 0.826812  1.473120 1.855075 -0.198639
27  6.027512 -0.000261 -0.000226  1.613057 0.893684 -0.664780
28  11.691990 0.000243 0.000854  0.141447 0.000056 -1.619455
29  11.479394 -0.000841 0.000953  -1.166826 0.303859 0.783613
30  3.859436 -0.132788 1.193062  0.466149 -0.051826 -1.783918
31  1.312558 0.000026 0.000000  -0.013965 -0.041044 -0.156447
32  0.729345 0.000066 -0.000028  -0.128320 -0.117290 -0.954857
33  3.942047 0.050109 0.430997  0.211501 -0.107596 -1.469120
34  1.539097 0.000010 -0.000000  0.040712 -0.054386 -1.030469
35  1.196299 0.000076 -0.000003  -0.249391 -0.043040 -0.795121
36  3.883411 -0.050502 -0.431087  0.186407 -0.271796 -1.212184
37  1.719563 -0.000079 -0.000003  0.020974 -0.107650 -1.483528
38  1.209197 0.000035 0.000011  -0.324719 0.069674 -0.493483
39  3.859584 -0.149112 -1.331323  -0.094938 -0.084955 -0.411363
40  1.719411 -0.000100 -0.000034  -0.011248 0.001677 -0.960922
41  1.099673 0.000024 0.000007  -0.004984 -0.008084 -0.787926
42  0.805979 -0.359854 -1.318339  0.991670 0.166767 -0.799535
43  1.789779 -0.000010 -0.000042  0.000057 -0.002451 0.133097
44  1.206996 -0.000006 0.000006  0.000372 -0.000070 1.058782
45  5.740571 0.000055 0.000724  0.155073 -0.000014 0.000021
46  11.480823 -0.000133 0.000940  0.061112 0.064316 0.129893
47  6.027514 -0.000273 -0.000238  -1.004857 -0.394118 -1.691990
48  -0.000002 11.691974 -0.000005  -1.099780 0.543377 0.853121
49  0.000003 -0.000001 -0.000000  2.413975 -0.000041 1.570856
50  -0.000007 -0.000016 0.000005  2.272644 -0.000030 1.570865
51  -3.778333 -5.746310 -5.877304  -0.072913 -2.978242 1.479934
52  0.000000 0.000000 -0.000000  0.008153 -0.000259 0.000009
53  -0.000000 -0.000000 -0.000000  1.565115 0.043565 -0.106862
54  -0.811616 -19.636190 -3.770366  -0.838710 0.138870 -1.781695
55  -0.000001 0.000000 0.000000  0.000000 -0.000000 -0.000002
56  0.000030 0.000029 0.000001  -1.571901 -0.044449 -0.106509
57  7.202790 -19.259499 -17.055128  1.570796 -0.000000 0.000000
58  -15.417985 4.000748 -22.641926  1.570796 -0.000000 0.000000
59  2.236387 -2.421983 -5.367696  1.570796 -0.000000 0.000000
60  -0.004311 0.001230 -0.000371  0.006898 -0.005534 -0.284229
61  0.826810 10.209643 -4.879054  1.570796 -0.000000 0.000000
62  0.000000 0.000000 0.000000  -0.078727 -3.136056 0.284226
63  0.000000 0.000000 0.000000  1.570796 -0.000000 0.000000
64  -2.524271 -12.728878 -1.566962  1.551895 -0.003066 0.015009
65  -0.109379 -1.951952 -1.519204  0.000000 0.000000 0.000000
66  -0.109379 0.057027 25.399248  0.000000 0.000000 0.000000
67  -0.109379 -1.856732 0.287230  0.000000 0.000000 0.000000
68  -0.104048 -4.495924 7.879276  0.000000 0.000000 0.000000
69  -0.195264 4.332631 -9.735165  0.000000 0.000000 0.000000
70  -1.290112 3.693284 8.579664  0.022713 -0.014049 -0.017451
71  -0.121471 -1.314581 7.402087  0.000000 0.000000 0.000000
72  -1.107529 -1.063453 4.061646  0.000000 0.000000 0.000000
73  0.003659 1.612363 10.733981  0.000000 -0.000000 0.022729
74  -2.559617 -17.952703 -2.773699  1.551895 -0.003066 0.015009
time 2
0  0.000006 0.000000 0.000000  -1.570800 -1.391899 -1.570792
1  -4.849906 3.337897 2.232070  -1.544956 -1.855077 -0.198630
2  6.027524 -0.000325 0.000192  -0.485016 -1.208843 -1.826527
3  11.692111 0.000645 -0.000740  -1.384569 -0.000003 -1.115373
4  11.480702 0.000708 -0.000205  1.626776 -0.971591 0.142523
5  3.859509 -0.142879 -1.192048  -0.507739 -0.034586 -1.573166
6  1.312590 0.000013 0.000008  -0.099219 -0.080836 -0.578266
7  0.729356 0.000053 0.000049  -0.083327 -0.106005 -0.262589
8  3.942142 0.046273 -0.431512  -0.423826 0.326055 -0.977403
9  1.539111 0.000085 0.000006  0.011527 -0.070624 -1.101829
10  1.196331 0.000146 0.000028  0.007038 -0.000117 -0.629733
11  3.883505 -0.047269 0.431381  -0.232037 0.533715 -0.537849
12  1.719572 -0.000026 0.000014  0.011709 -0.105542 -1.237432
13  1.209180 0.000092 0.000013  -0.006673 -0.001106 -0.502906
14  3.859661 -0.138475 1.332410  0.013813 0.511197 -0.350141
15  1.719449 -0.000012 0.000024  -0.022509 0.019639 -0.287088
16  1.099676 0.000049 0.000006  -0.286525 0.346051 -1.053593
17  0.770794 -0.901441 1.177686  -1.865794 -0.596007 -0.315192
18  1.789818 -0.000003 -0.000019  0.005558 0.090197 0.395774
19  1.207014 -0.000011 -0.000045  0.141886 -0.163086 0.233767
20  5.740637 0.000410 -0.000701  -0.040803 0.000003 0.000071
21  11.481145 0.000351 -0.000697  0.028138 -0.171565 0.020645
22  6.027524 -0.000329 0.000203  1.489520 -0.353186 1.546406
23  0.000002 11.692099 -0.000007  -0.794652 -0.279861 -0.647562
24  0.000003 0.000008 -0.000001  -0.515490 -0.000031 1.570739
25  -0.000001 -0.000012 -0.000001  0.868957 0.000002 1.570712
26  -6.617934 -9.178503 0.826812  1.473120 1.855075 -0.198639
27  6.027512 -0.000261 -0.000227  1.592804 0.910936 -0.675479
28  11.691991 0.000245 0.000856  0.141447 0.000054 -1.602691
29  11.479511 -0.000779 0.000942  -1.104165 0.320344 0.798128
30  3.859436 -0.132788 1.193061  0.466149 -0.051826 -1.783918
31  1.312558 0.000027 -0.000000  -0.013965 -0.041044 -0.156447
32  0.729344 0.000067 -0.000027  -0.128320 -0.117290 -0.954857
33  3.942046 0.050109 0.430997  0.211501 -0.107596 -1.469120
34  1.539096 0.000008 0.000001  0.040712 -0.054386 -1.030469
35  1.196300 0.000076 -0.000004  -0.249391 -0.043040 -0.795121
36  3.883412 -0.050502 -0.431087  0.186407 -0.271796 -1.212184
37  1.719563 -0.000079 -0.000003  0.020974 -0.107650 -1.483528
38  1.209197 0.000036 0.000011  -0.324719 0.069674 -0.493483
39  3.859585 -0.149112 -1.331323  -0.094938 -0.084955 -0.411363
40  1.719411 -0.000100 -0.000035  -0.011248 0.001677 -0.960922
41  1.099673 0.000024 0.000007  -0.004984 -0.008084 -0.787926
42  0.805979 -0.359854 -1.318338  0.991670 0.166767 -0.799535
43  1.789780 -0.000009 -0.000042  0.000057 -0.002451 0.133097
44  1.206996 -0.000006 0.000005  0.000372 -0.000070 1.058781
45  5.740572 0.000054 0.000723  0.167823 -0.000014 0.000021
46  11.480847 -0.000122 0.000938  0.071110 0.071992 0.129327
47  6.027514 -0.000273 -0.000238  -1.027910 -0.395676 -1.677924
48  0.000001 11.691973 -0.000006  -1.089940 0.533756 0.847344
49  0.000002 -0.000001 0.000000  2.413975 -0.000041 1.570856
50  -0.000006 -0.000015 0.000004  2.272644 -0.000030 1.570865
51  -3.509013 -5.864829 -5.874485  -0.016324 -2.989594 1.470679
52  0.000000 0.000000 -0.000000  0.008153 -0.000259 0.000009
53  -0.000000 -0.000000 0.000000  1.565115 0.043565 -0.106862
54  -0.669235 -19.768599 -3.685808  -0.783838 0.156374 -1.773989
55  0.000002 -0.000000 -0.000000  0.000000 -0.000000 -0.000002
56  0.000033 0.000029 0.000001  -1.571902 -0.044449 -0.106509
57  7.202790 -19.259499 -17.055128  1.570796 -0.000000 0.000000
58  -15.417985 4.000748 -22.641926  1.570796 -0.000000 0.000000
59  2.236387 -2.421983 -5.367696  1.570796 -0.000000 0.000000
60  -0.004311 0.001230 -0.000371  0.006898 -0.005534 -0.284229
61  0.826810 10.209643 -4.879054  1.570796 -0.000000 0.000000
62  0.000000 0.000000 0.000000  -0.078727 -3.136056 0.284226
63  0.000000 0.000000 0.000000  1.570796 -0.000000 0.000000
64  -2.502675 -12.873612 -1.541791  1.557028 -0.059862 0.014480
65  -0.109379 -1.951951 -1.519204  -0.000000 0.000000 -0.000000
66  -0.109379 0.057027 25.399254  -0.000000 0.000000 -0.000000
67  -0.109378 -1.856732 0.287230  -0.000000 0.000000 -0.000000
68  -0.104047 -4.495923 7.879277  -0.000000 0.000000 -0.000000
69  -0.195264 4.332631 -9.735166  -0.000000 0.000000 -0.000000
70  -1.290112 3.693284 8.579664  0.022713 -0.014049 -0.017451
71  -0.121470 -1.314581 7.402087  -0.000000 0.000000 -0.000000
72  -1.107528 -1.063453 4.061650  -0.000000 0.000000 -0.000000
73  0.003659 1.612363 10.733982  -0.000000 -0.000000 0.066142
74  -2.470590 -18.090139 -2.779784  1.557028 -0.059862 0.014480
time 3
0  0.000006 0.000000 0.000000  -1.570800 -1.391899 -1.570792
1  -4.849906 3.337897 2.232070  -1.544956 -1.855077 -0.198630
2  6.027524 -0.000326 0.000192  -0.475423 -1.210298 -1.835844
3  11.692112 0.000644 -0.000739  -1.384569 -0.000002 -1.103651
4  11.480782 0.000716 -0.000170  1.610617 -0.961288 0.142422
5  3.859508 -0.142880 -1.192049  -0.507739 -0.034586 -1.573166
6  1.312590 0.000014 0.000008  -0.099219 -0.080836 -0.578266
7  0.729355 0.000053 0.000050  -0.083327 -0.106005 -0.262589
8  3.942142 0.046273 -0.431511  -0.423826 0.326055 -0.977403
9  1.539111 0.000085 0.000004  0.011526 -0.070624 -1.101829
10  1.196333 0.000146 0.000030  0.007038 -0.000117 -0.629733
11  3.883503 -0.047269 0.431382  -0.232037 0.533715 -0.537849
12  1.719572 -0.000026 0.000016  0.011709 -0.105542 -1.237432
13  1.209179 0.000093 0.000011  -0.006673 -0.001106 -0.502906
14  3.859663 -0.138475 1.332411  0.013813 0.511197 -0.350141
15  1.719447 -0.000012 0.000023  -0.022509 0.019639 -0.287088
16  1.099676 0.000046 0.000007  -0.286525 0.346051 -1.053593
17  0.770791 -0.901442 1.177686  -1.865794 -0.596008 -0.315192
18  1.789817 -0.000003 -0.000020  0.005558 0.090197 0.395774
19  1.207016 -0.000012 -0.000044  0.141886 -0.163086 0.233767
20  5.740637 0.000410 -0.000704  -0.042551 0.000003 0.000071
21  11.481162 0.000352 -0.000692  0.025236 -0.169738 0.019175
22  6.027524 -0.000329 0.000203  1.486372 -0.350978 1.547148
23  0.000003 11.692099 -0.000007  -0.787214 -0.274481 -0.642030
24  0.000002 0.000007 -0.000002  -0.515490 -0.000031 1.570739
25  -0.000001 -0.000011 -0.000001  0.868957 0.000002 1.570712
26  -6.617934 -9.178503 0.826812  1.473120 1.855075 -0.198639
27  6.027512 -0.000261 -0.000227  1.599567 0.915097 -0.671577
28  11.691989 0.000244 0.000856  0.141447 0.000054 -1.595046
29  11.479566 -0.000751 0.000939  -1.120423 0.314061 0.795182
30  3.859436 -0.132787 1.193061  0.466149 -0.051826 -1.783918
31  1.312558 0.000025 -0.000000  -0.013965 -0.041043 -0.156447
32  0.729345 0.000065 -0.000027  -0.128320 -0.117290 -0.954857
33  3.942047 0.050109 0.430996  0.211501 -0.107596 -1.469120
34  1.539097 0.000009 0.000001  0.040712 -0.054386 -1.030469
35  1.196299 0.000076 -0.000004  -0.249391 -0.043040 -0.795120
36  3.883412 -0.050502 -0.431087  0.186407 -0.271796 -1.212184
37  1.719564 -0.000079 -0.000003  0.020974 -0.107650 -1.483528
38  1.209198 0.000035 0.000012  -0.324719 0.069674 -0.493483
39  3.859586 -0.149111 -1.331324  -0.094938 -0.084955 -0.411363
40  1.719411 -0.000100 -0.000034  -0.011248 0.001677 -0.960922
41  1.099673 0.000025 0.000007  -0.004984 -0.008084 -0.787926
42  0.805979 -0.359854 -1.318339  0.991670 0.166767 -0.799535
43  1.789780 -0.000009 -0.000043  0.000057 -0.002451 0.133097
44  1.206997 -0.000006 0.000005  0.000372 -0.000070 1.058782
45  5.740574 0.000055 0.000724  0.164049 -0.000014 0.000021
46  11.480858 -0.000115 0.000938  0.068670 0.069646 0.129749
47  6.027514 -0.000273 -0.000238  -1.029311 -0.389955 -1.678838
48  -0.000002 11.691973 -0.000007  -1.085450 0.529386 0.844685
49  0.000003 0.000000 -0.000000  2.413975 -0.000041 1.570856
50  -0.000007 -0.000015 0.000004  2.272644 -0.000030 1.570865
51  -3.555607 -5.930721 -5.827390  -0.031603 -2.990679 1.472103
52  -0.000000 -0.000000 0.000000  0.008153 -0.000259 0.000009
53  -0.000000 0.000000 -0.000000  1.565115 0.043565 -0.106862
54  -0.696003 -19.842539 -3.717103  -0.799158 0.155864 -1.777251
55  -0.000001 0.000000 -0.000000  0.000000 -0.000000 -0.000002
56  0.000030 0.000029 0.000001  -1.571901 -0.044449 -0.106509
57  7.202790 -19.259499 -17.055128  1.570796 -0.000000 0.000000
58  -15.417985 4.000748 -22.641926  1.570796 -0.000000 0.000000
59  2.236387 -2.421983 -5.367696  1.570796 -0.000000 0.000000
60  -0.004311 0.001230 -0.000371  0.006898 -0.005534 -0.284229
61  0.826810 10.209643 -4.879054  1.570796 -0.000000 0.000000
62  0.000000 0.000000 0.000000  -0.078727 -3.136056 0.284226
63  0.000000 0.000000 0.000000  1.570796 -0.000000 0.000000
64  -2.491045 -12.951546 -1.528237  1.559819 -0.044978 0.013454
65  -0.109379 -1.951951 -1.519204  0.000000 0.000000 -0.000000
66  -0.109379 0.057027 25.399252  0.000000 0.000000 -0.000000
67  -0.109378 -1.856732 0.287231  0.000000 0.000000 -0.000000
68  -0.104048 -4.495924 7.879276  0.000000 0.000000 -0.000000
69  -0.195264 4.332630 -9.735163  0.000000 0.000000 -0.000000
70  -1.290112 3.693283 8.579669  0.022713 -0.014049 -0.017451
71  -0.121470 -1.314581 7.402088  0.000000 0.000000 -0.000000
72  -1.107529 -1.063453 4.061650  0.000000 0.000000 -0.000000
73  0.003659 1.612363 10.733984  -0.000000 0.000000 0.090178
74  -2.482128 -18.164883 -2.779986  1.559819 -0.044978 0.013454
time 4
0  0.000006 0.000000 0.000000  -1.570800 -1.391899 -1.570792
1  -4.849906 3.337897 2.232070  -1.544956 -1.855077 -0.198630
2  6.027524 -0.000325 0.000192  -0.474136 -1.205864 -1.827149
3  11.692111 0.000643 -0.000739  -1.384569 -0.000002 -1.113609
4  11.480715 0.000709 -0.000200  1.574394 -0.958334 0.134514
5  3.859510 -0.142880 -1.192049  -0.507739 -0.034586 -1.573166
6  1.312590 0.000013 0.000006  -0.099219 -0.080836 -0.578266
7  0.729354 0.000054 0.000049  -0.083327 -0.106005 -0.262589
8  3.942142 0.046273 -0.431512  -0.423826 0.326055 -0.977403
9  1.539110 0.000085 0.000007  0.011527 -0.070624 -1.101829
10  1.196333 0.000143 0.000030  0.007038 -0.000117 -0.629733
11  3.883505 -0.047270 0.431381  -0.232037 0.533715 -0.537849
12  1.719573 -0.000026 0.000015  0.011709 -0.105542 -1.237432
13  1.209179 0.000090 0.000010  -0.006673 -0.001106 -0.502906
14  3.859664 -0.138476 1.332410  0.013813 0.511197 -0.350141
15  1.719449 -0.000012 0.000023  -0.022509 0.019639 -0.287088
16  1.099675 0.000048 0.000003  -0.286525 0.346051 -1.053593
17  0.770795 -0.901443 1.177686  -1.865794 -0.596008 -0.315192
18  1.789820 -0.000003 -0.000018  0.005558 0.090197 0.395774
19  1.207015 -0.000012 -0.000044  0.141886 -0.163086 0.233767
20  5.740638 0.000410 -0.000703  -0.052687 0.000003 0.000071
21  11.481151 0.000351 -0.000697  0.018487 -0.169685 0.014460
22  6.027524 -0.000329 0.000203  1.484766 -0.355173 1.557601
23  0.000002 11.692098 -0.000008  -0.793534 -0.279049 -0.646732
24  0.000003 0.000008 -0.000001  -0.515490 -0.000031 1.570739
25  -0.000000 -0.000012 -0.000002  0.868957 0.000002 1.570712
26  -6.617934 -9.178503 0.826812  1.473120 1.855075 -0.198639
27  6.027512 -0.000261 -0.000227  1.612891 0.904047 -0.664472
28  11.691991 0.000243 0.000856  0.141447 0.000055 -1.608122
29  11.479474 -0.000801 0.000946  -1.158973 0.302384 0.790974
30  3.859436 -0.132788 1.193062  0.466149 -0.051826 -1.783918
31  1.312558 0.000025 -0.000000  -0.013965 -0.041044 -0.156447
32  0.729345 0.000065 -0.000027  -0.128320 -0.117290 -0.954857
33  3.942046 0.050109 0.430997  0.211501 -0.107596 -1.469120
34  1.539097 0.000009 -0.000000  0.040712 -0.054386 -1.030469
35  1.196301 0.000075 -0.000005  -0.249391 -0.043040 -0.795121
36  3.883412 -0.050502 -0.431086  0.186407 -0.271796 -1.212184
37  1.719564 -0.000079 -0.000004  0.020974 -0.107650 -1.483528
38  1.209198 0.000036 0.000011  -0.324719 0.069674 -0.493483
39  3.859586 -0.149112 -1.331323  -0.094938 -0.084955 -0.411363
40  1.719413 -0.000100 -0.000034  -0.011248 0.001677 -0.960922
41  1.099674 0.000026 0.000006  -0.004984 -0.008084 -0.787926
42  0.805979 -0.359854 -1.318338  0.991669 0.166767 -0.799535
43  1.789780 -0.000009 -0.000043  0.000057 -0.002451 0.133097
44  1.206996 -0.000006 0.000005  0.000372 -0.000070 1.058781
45  5.740572 0.000055 0.000724  0.156904 -0.000014 0.000021
46  11.480839 -0.000124 0.000939  0.062522 0.064771 0.131072
47  6.027514 -0.000273 -0.000238  -1.014500 -0.388830 -1.687872
48  -0.000001 11.691973 -0.000006  -1.093128 0.536867 0.849224
49  0.000004 0.000000 -0.000000  2.413975 -0.000041 1.570856
50  -0.000007 -0.000015 0.000004  2.272644 -0.000030 1.570865
51  -3.722547 -5.834446 -5.813154  -0.067240 -2.986207 1.477929
52  0.000000 0.000000 -0.000000  0.008153 -0.000259 0.000009
53  0.000001 -0.000000 0.000001  1.565115 0.043565 -0.106862
54  -0.784210 -19.742903 -3.790676  -0.834048 0.147444 -1.782135
55  -0.000000 0.000000 0.000001  0.000000 -0.000000 -0.000002
56  0.000031 0.000029 0.000002  -1.571901 -0.044449 -0.106509
57  7.202790 -19.259499 -17.055128  1.570796 -0.000000 0.000000
58  -15.417985 4.000748 -22.641926  1.570796 -0.000000 0.000000
59  2.236387 -2.421983 -5.367696  1.570796 -0.000000 0.000000
60  -0.004311 0.001230 -0.000371  0.006898 -0.005534 -0.284229
61  0.826810 10.209643 -4.879054  1.570796 -0.000000 0.000000
62  0.000000 0.000000 0.000000  -0.078727 -3.136056 0.284226
63  0.000000 0.000000 0.000000  1.570796 -0.000000 0.000000
64  -2.503271 -12.850185 -1.546922  1.559220 -0.009481 0.013858
65  -0.109379 -1.951952 -1.519206  0.000000 -0.000000 -0.000000
66  -0.109379 0.057027 25.399250  0.000000 -0.000000 -0.000000
67  -0.109379 -1.856732 0.287230  0.000000 -0.000000 -0.000000
68  -0.104048 -4.495924 7.879277  0.000000 -0.000000 -0.000000
69  -0.195264 4.332632 -9.735162  0.000000 -0.000000 -0.000000
70  -1.290112 3.693284 8.579668  0.022713 -0.014049 -0.017451
71  -0.121470 -1.314581 7.402088  0.000000 -0.000000 -0.000000
72  -1.107528 -1.063453 4.061648  0.000000 -0.000000 -0.000000
73  0.003659 1.612363 10.733981  -0.000000 0.000000 0.066755
74  -2.536647 -18.064878 -2.792586  1.559220 -0.009481 0.013858
time 5
0  0.000006 0.000000 0.000000  -1.570800 -1.391899 -1.570792
1  -4.849906 3.337897 2.232070  -1.544956 -1.855077 -0.198630
2  6.027524 -0.000325 0.000192  -0.476741 -1.198610 -1.809725
3  11.692112 0.000645 -0.000740  -1.384570 -0.000003 -1.134090
4  11.480578 0.000697 -0.000263  1.531743 -0.960497 0.122349
5  3.859506 -0.142879 -1.192050  -0.507739 -0.034586 -1.573166
6  1.312590 0.000013 0.000009  -0.099219 -0.080836 -0.578266
7  0.729356 0.000052 0.000049  -0.083327 -0.106005 -0.262589
8  3.942142 0.046273 -0.431512  -0.423826 0.326055 -0.977403
9  1.539110 0.000086 0.000004  0.011526 -0.070624 -1.101829
10  1.196333 0.000144 0.000030  0.007038 -0.000117 -0.629733
11  3.883503 -0.047269 0.431381  -0.232037 0.533715 -0.537849
12  1.719574 -0.000028 0.000015  0.011709 -0.105542 -1.237432
13  1.209179 0.000092 0.000012  -0.006673 -0.001106 -0.502906
14  3.859659 -0.138475 1.332410  0.013813 0.511197 -0.350141
15  1.719449 -0.000011 0.000023  -0.022509 0.019639 -0.287088
16  1.099674 0.000048 0.000004  -0.286525 0.346051 -1.053593
17  0.770792 -0.901442 1.177686  -1.865794 -0.596008 -0.315192
18  1.789822 -0.000003 -0.000019  0.005558 0.090197 0.395774
19  1.207014 -0.000012 -0.000044  0.141886 -0.163086 0.233767
20  5.740636 0.000410 -0.000703  -0.066238 0.000003 0.000070
21  11.481120 0.000349 -0.000709  0.010431 -0.170683 0.008361
22  6.027524 -0.000329 0.000203  1.483882 -0.362440 1.572905
23  0.000001 11.692099 -0.000007  -0.806489 -0.288534 -0.656327
24  0.000002 0.000008 -0.000002  -0.515490 -0.000031 1.570738
25  -0.000001 -0.000011 -0.000001  0.868957 0.000002 1.570712
26  -6.617934 -9.178503 0.826812  1.473120 1.855075 -0.198639
27  6.027512 -0.000261 -0.000226  1.628423 0.885998 -0.656802
28  11.691991 0.000245 0.000855  0.141447 0.000056 -1.630987
29  11.479318 -0.000882 0.000958  -1.204662 0.287788 0.787578
30  3.859435 -0.132787 1.193062  0.466149 -0.051826 -1.783918
31  1.312559 0.000024 -0.000001  -0.013965 -0.041044 -0.156447
32  0.729346 0.000065 -0.000027  -0.128320 -0.117290 -0.954857
33  3.942047 0.050109 0.430996  0.211501 -0.107596 -1.469120
34  1.539096 0.000009 -0.000000  0.040712 -0.054386 -1.030469
35  1.196301 0.000076 -0.000004  -0.249391 -0.043040 -0.795121
36  3.883412 -0.050502 -0.431087  0.186407 -0.271796 -1.212184
37  1.719563 -0.000078 -0.000004  0.020974 -0.107650 -1.483528
38  1.209198 0.000035 0.000012  -0.324719 0.069674 -0.493483
39  3.859585 -0.149112 -1.331324  -0.094938 -0.084955 -0.411363
40  1.719411 -0.000100 -0.000034  -0.011248 0.001677 -0.960922
41  1.099673 0.000025 0.000006  -0.004984 -0.008084 -0.787926
42  0.805979 -0.359854 -1.318338  0.991670 0.166767 -0.799535
43  1.789780 -0.000009 -0.000043  0.000057 -0.002451 0.133097
44  1.206996 -0.000005 0.000006  0.000373 -0.000070 1.058782
45  5.740572 0.000055 0.000723  0.148867 -0.000014 0.000021
46  11.480808 -0.000141 0.000941  0.055201 0.058898 0.132853
47  6.027514 -0.000273 -0.000238  -0.992365 -0.389718 -1.700722
48  -0.000001 11.691974 -0.000005  -1.106544 0.550022 0.857049
49  0.000002 0.000000 -0.000001  2.413975 -0.000041 1.570856
50  -0.000007 -0.000016 0.000005  2.272644 -0.000030 1.570865
51  -3.937732 -5.657053 -5.813933  -0.109750 -2.980274 1.485844
52  0.000000 0.000000 0.000000  0.008153 -0.000259 0.000009
53  0.000000 -0.000000 -0.000000  1.565115 0.043565 -0.106862
54  -0.898959 -19.557587 -3.887680  -0.875378 0.136334 -1.786770
55  -0.000001 0.000001 0.000000  0.000000 -0.000000 -0.000002
56  0.000029 0.000030 0.000001  -1.571902 -0.044449 -0.106509
57  7.202790 -19.259499 -17.055128  1.570796 -0.000000 0.000000
58  -15.417985 4.000748 -22.641926  1.570796 -0.000000 0.000000
59  2.236387 -2.421983 -5.367696  1.570796 -0.000000 0.000000
60  -0.004311 0.001230 -0.000371  0.006898 -0.005534 -0.284229
61  0.826810 10.209643 -4.879054  1.570796 -0.000000 0.000000
62  0.000000 0.000000 0.000000  -0.078727 -3.136056 0.284226
63  0.000000 0.000000 0.000000  1.570796 -0.000000 0.000000
64  -2.530166 -12.661943 -1.588028  1.557651 0.032886 0.015050
65  -0.109378 -1.951951 -1.519206  0.000000 0.000000 0.000000
66  -0.109379 0.057027 25.399254  0.000000 0.000000 0.000000
67  -0.109378 -1.856732 0.287230  0.000000 0.000000 0.000000
68  -0.104047 -4.495923 7.879278  0.000000 0.000000 0.000000
69  -0.195264 4.332631 -9.735163  0.000000 0.000000 0.000000
70  -1.290112 3.693284 8.579668  0.022713 -0.014049 -0.017451
71  -0.121470 -1.314581 7.402089  0.000000 0.000000 0.000000
72  -1.107528 -1.063453 4.061648  0.000000 0.000000 0.000000
73  0.003659 1.612363 10.733981  -0.000000 0.000000 0.015168
74  -2.609686 -17.879408 -2.819924  1.557651 0.032886 0.015050
time 6
0  0.000006 0.000000 0.000000  -1.570800 -1.391899 -1.570792
1  -4.849906 3.337897 2.232070  -1.544956 -1.855077 -0.198630
2  6.027524 -0.000325 0.000192  -0.471923 -1.194503 -1.803730
3  11.692110 0.000647 -0.000738  -1.384571 -0.000004 -1.142291
4  11.480530 0.000690 -0.000285  1.499593 -0.956677 0.108774
5  3.859510 -0.142881 -1.192049  -0.507739 -0.034586 -1.573166
6  1.312590 0.000011 0.000008  -0.099219 -0.080836 -0.578266
7  0.729356 0.000055 0.000050  -0.083327 -0.106005 -0.262589
8  3.942143 0.046272 -0.431512  -0.423826 0.326055 -0.977403
9  1.539110 0.000084 0.000004  0.011526 -0.070624 -1.101829
10  1.196333 0.000144 0.000031  0.007038 -0.000117 -0.629733
11  3.883505 -0.047270 0.431382  -0.232037 0.533715 -0.537849
12  1.719574 -0.000026 0.000014  0.011709 -0.105542 -1.237432
13  1.209180 0.000091 0.000012  -0.006673 -0.001107 -0.502906
14  3.859665 -0.138476 1.332411  0.013813 0.511197 -0.350141
15  1.719447 -0.000012 0.000024  -0.022509 0.019639 -0.287088
16  1.099676 0.000047 0.000007  -0.286525 0.346051 -1.053593
17  0.770795 -0.901443 1.177686  -1.865794 -0.596007 -0.315192
18  1.789817 -0.000003 -0.000017  0.005558 0.090197 0.395774
19  1.207015 -0.000013 -0.000045  0.141886 -0.163086 0.233767
20  5.740636 0.000410 -0.000701  -0.076049 0.000003 0.000071
21  11.481112 0.000347 -0.000714  0.003947 -0.170288 0.003014
22  6.027524 -0.000329 0.000203  1.480991 -0.366000 1.584415
23  0.000001 11.692098 -0.000007  -0.811660 -0.292365 -0.660141
24  0.000003 0.000008 -0.000001  -0.515490 -0.000030 1.570739
25  -0.000001 -0.000011 -0.000002  0.868957 0.000002 1.570712
26  -6.617934 -9.178503 0.826812  1.473120 1.855075 -0.198639
27  6.027512 -0.000261 -0.000226  1.641622 0.873595 -0.650498
28  11.691990 0.000242 0.000856  0.141447 0.000057 -1.642696
29  11.479239 -0.000924 0.000964  -1.243374 0.274661 0.779338
30  3.859437 -0.132787 1.193062  0.466149 -0.051826 -1.783918
31  1.312558 0.000027 -0.000000  -0.013965 -0.041044 -0.156447
32  0.729345 0.000066 -0.000028  -0.128320 -0.117290 -0.954857
33  3.942047 0.050110 0.430997  0.211501 -0.107596 -1.469120
34  1.539097 0.000009 0.000000  0.040712 -0.054386 -1.030469
35  1.196300 0.000076 -0.000004  -0.249391 -0.043040 -0.795121
36  3.883412 -0.050501 -0.431086  0.186407 -0.271796 -1.212184
37  1.719563 -0.000081 -0.000003  0.020974 -0.107650 -1.483528
38  1.209198 0.000035 0.000011  -0.324719 0.069674 -0.493483
39  3.859586 -0.149111 -1.331323  -0.094938 -0.084955 -0.411363
40  1.719412 -0.000100 -0.000034  -0.011248 0.001677 -0.960922
41  1.099673 0.000024 0.000007  -0.004984 -0.008084 -0.787926
42  0.805979 -0.359853 -1.318337  0.991670 0.166767 -0.799535
43  1.789779 -0.000009 -0.000042  0.000057 -0.002451 0.133097
44  1.206997 -0.000006 0.000005  0.000372 -0.000070 1.058781
45  5.740573 0.000054 0.000724  0.140792 -0.000014 0.000021
46  11.480793 -0.000150 0.000942  0.049111 0.053655 0.133210
47  6.027514 -0.000273 -0.000238  -0.976216 -0.388562 -1.710717
48  -0.000002 11.691973 -0.000006  -1.113409 0.556793 0.861000
49  0.000002 -0.000000 0.000000  2.413975 -0.000041 1.570856
50  -0.000007 -0.000016 0.000006  2.272644 -0.000030 1.570865
51  -4.122486 -5.568865 -5.821185  -0.145349 -2.974704 1.492890
52  0.000000 -0.000001 0.000001  0.008153 -0.000259 0.000009
53  0.000001 0.000000 0.000000  1.565115 0.043565 -0.106862
54  -0.999589 -19.460514 -3.966735  -0.909711 0.126047 -1.790032
55  -0.000002 0.000000 0.000000  0.000000 -0.000000 -0.000002
56  0.000029 0.000029 0.000001  -1.571901 -0.044449 -0.106509
57  7.202790 -19.259499 -17.055128  1.570796 -0.000000 0.000000
58  -15.417985 4.000748 -22.641926  1.570796 -0.000000 0.000000
59  2.236387 -2.421983 -5.367696  1.570796 -0.000000 0.000000
60  -0.004311 0.001230 -0.000371  0.006898 -0.005534 -0.284229
61  0.826810 10.209643 -4.879054  1.570796 -0.000000 0.000000
62  0.000000 0.000000 0.000000  -0.078727 -3.136056 0.284226
63  0.000000 0.000000 0.000000  1.570796 -0.000000 0.000000
64  -2.557061 -12.560583 -1.629134  1.555508 0.068380 0.016171
65  -0.109378 -1.951951 -1.519205  -0.000000 0.000000 -0.000000
66  -0.109379 0.057027 25.399256  -0.000000 0.000000 -0.000000
67  -0.109378 -1.856732 0.287230  -0.000000 0.000000 -0.000000
68  -0.104047 -4.495923 7.879276  -0.000000 0.000000 -0.000000
69  -0.195264 4.332630 -9.735163  -0.000000 0.000000 -0.000000
70  -1.290112 3.693283 8.579669  0.022713 -0.014049 -0.017451
71  -0.121470 -1.314581 7.402087  -0.000000 0.000000 -0.000000
72  -1.107528 -1.063453 4.061648  -0.000000 0.000000 -0.000000
73  0.003659 1.612363 10.733981  -0.000000 0.000000 -0.036438
74  -2.673534 -17.781462 -2.843492  1.555508 0.068380 0.016171
time 7
0  0.000006 0.000000 0.000000  -1.570800 -1.391899 -1.570792
1  -4.849906 3.337897 2.232070  -1.544956 -1.855077 -0.198630
2  6.027524 -0.000325 0.000192  -0.463789 -1.194800 -1.809526
3  11.692110 0.000642 -0.000738  -1.384571 -0.000003 -1.137021
4  11.480561 0.000696 -0.000273  1.489429 -0.948937 0.100700
5  3.859508 -0.142880 -1.192049  -0.507739 -0.034586 -1.573166
6  1.312589 0.000012 0.000009  -0.099219 -0.080836 -0.578266
7  0.729355 0.000056 0.000052  -0.083327 -0.106005 -0.262589
8  3.942142 0.046272 -0.431512  -0.423826 0.326055 -0.977403
9  1.539110 0.000085 0.000008  0.011526 -0.070624 -1.101829
10  1.196332 0.000147 0.000032  0.007038 -0.000117 -0.629733
11  3.883504 -0.047270 0.431381  -0.232037 0.533715 -0.537849
12  1.719574 -0.000027 0.000016  0.011709 -0.105542 -1.237432
13  1.209179 0.000094 0.000011  -0.006673 -0.001106 -0.502906
14  3.859663 -0.138476 1.332410  0.013813 0.511197 -0.350141
15  1.719448 -0.000013 0.000022  -0.022509 0.019639 -0.287088
16  1.099677 0.000049 0.000008  -0.286525 0.346051 -1.053593
17  0.770795 -0.901442 1.177685  -1.865794 -0.596007 -0.315192
18  1.789820 -0.000003 -0.000017  0.005558 0.090197 0.395774
19  1.207016 -0.000012 -0.000044  0.141886 -0.163086 0.233767
20  5.740637 0.000410 -0.000703  -0.078575 0.000003 0.000071
21  11.481119 0.000348 -0.000711  0.001509 -0.168843 0.000713
22  6.027524 -0.000329 0.000203  1.477971 -0.364971 1.587263
23  0.000001 11.692098 -0.000006  -0.808338 -0.289901 -0.657692
24  0.000004 0.000009 -0.000002  -0.515490 -0.000031 1.570739
25  -0.000002 -0.000011 0.000000  0.868957 0.000002 1.570712
26  -6.617934 -9.178503 0.826812  1.473120 1.855075 -0.198639
27  6.027512 -0.000261 -0.000226  1.647005 0.871186 -0.647826
28  11.691990 0.000242 0.000855  0.141448 0.000057 -1.640219
29  11.479255 -0.000915 0.000963  -1.260177 0.269405 0.769972
30  3.859436 -0.132787 1.193061  0.466149 -0.051826 -1.783918
31  1.312558 0.000025 -0.000001  -0.013965 -0.041044 -0.156447
32  0.729345 0.000066 -0.000027  -0.128320 -0.117290 -0.954857
33  3.942047 0.050109 0.430996  0.211501 -0.107596 -1.469120
34  1.539096 0.000010 0.000000  0.040712 -0.054386 -1.030469
35  1.196300 0.000076 -0.000004  -0.249391 -0.043040 -0.795121
36  3.883412 -0.050502 -0.431087  0.186407 -0.271796 -1.212184
37  1.719563 -0.000079 -0.000003  0.020974 -0.107650 -1.483528
38  1.209198 0.000035 0.000012  -0.324719 0.069674 -0.493483
39  3.859586 -0.149112 -1.331324  -0.094938 -0.084955 -0.411363
40  1.719412 -0.000100 -0.000035  -0.011248 0.001677 -0.960922
41  1.099674 0.000026 0.000006  -0.004984 -0.008084 -0.787926
42  0.805979 -0.359854 -1.318339  0.991670 0.166767 -0.799535
43  1.789780 -0.000009 -0.000042  0.000057 -0.002451 0.133097
44  1.206996 -0.000006 0.000005  0.000372 -0.000070 1.058782
45  5.740572 0.000056 0.000725  0.136074 -0.000014 0.000021
46  11.480795 -0.000147 0.000942  0.046522 0.051347 0.132170
47  6.027514 -0.000273 -0.000238  -0.972125 -0.386708 -1.713714
48  -0.000003 11.691974 -0.000006  -1.111958 0.555359 0.860168
49  0.000003 -0.000000 0.000000  2.413975 -0.000041 1.570856
50  -0.000008 -0.000015 0.000005  2.272644 -0.000030 1.570865
51  -4.200690 -5.594474 -5.833858  -0.160165 -2.971043 1.495922
52  0.000000 0.000000 0.000001  0.008153 -0.000259 0.000009
53  0.000001 -0.000000 -0.000001  1.565115 0.043565 -0.106862
54  -1.042794 -19.479731 -3.990805  -0.923750 0.120336 -1.791213
55  0.000001 0.000001 -0.000001  0.000000 -0.000000 -0.000002
56  0.000030 0.000030 0.000001  -1.571902 -0.044449 -0.106509
57  7.202790 -19.259499 -17.055128  1.570796 -0.000000 0.000000
58  -15.417985 4.000748 -22.641926  1.570796 -0.000000 0.000000
59  2.236387 -2.421983 -5.367696  1.570796 -0.000000 0.000000
60  -0.004311 0.001230 -0.000371  0.006898 -0.005534 -0.284229
61  0.826810 10.209643 -4.879054  1.570796 -0.000000 0.000000
62  0.000000 0.000000 0.000000  -0.078727 -3.136056 0.284226
63  0.000000 0.000000 0.000000  1.570796 -0.000000 0.000000
64  -2.569286 -12.574702 -1.647818  1.553209 0.083262 0.016542
65  -0.109379 -1.951951 -1.519204  0.000000 -0.000000 -0.000000
66  -0.109379 0.057027 25.399252  0.000000 -0.000000 -0.000000
67  -0.109379 -1.856732 0.287231  0.000000 -0.000000 -0.000000
68  -0.104048 -4.495923 7.879279  0.000000 -0.000000 -0.000000
69  -0.195264 4.332630 -9.735167  0.000000 -0.000000 -0.000000
70  -1.290112 3.693283 8.579664  0.022713 -0.014049 -0.017451
71  -0.121470 -1.314581 7.402090  0.000000 -0.000000 -0.000000
72  -1.107529 -1.063453 4.061647  0.000000 -0.000000 -0.000000
73  0.003659 1.612363 10.733984  -0.000000 0.000000 -0.059883
74  -2.700830 -17.798710 -2.847093  1.553209 0.083262 0.016542
time 8
0  0.000006 0.000000 0.000000  -1.570800 -1.391899 -1.570792
1  -4.849906 3.337897 2.232070  -1.544956 -1.855077 -0.198630
2  6.027524 -0.000325 0.000192  -0.461699 -1.196923 -1.815586
3  11.692110 0.000644 -0.000738  -1.384570 -0.000003 -1.132600
4  11.480590 0.000698 -0.000257  1.499572 -0.947056 0.101873
5  3.859507 -0.142880 -1.192049  -0.507739 -0.034586 -1.573166
6  1.312590 0.000015 0.000009  -0.099219 -0.080836 -0.578266
7  0.729355 0.000053 0.000051  -0.083327 -0.106005 -0.262589
8  3.942141 0.046273 -0.431512  -0.423826 0.326055 -0.977403
9  1.539111 0.000087 0.000006  0.011526 -0.070624 -1.101829
10  1.196332 0.000145 0.000029  0.007038 -0.000117 -0.629733
11  3.883503 -0.047269 0.431381  -0.232037 0.533715 -0.537849
12  1.719573 -0.000027 0.000015  0.011709 -0.105542 -1.237432
13  1.209180 0.000093 0.000012  -0.006673 -0.001107 -0.502906
14  3.859660 -0.138475 1.332409  0.013813 0.511197 -0.350141
15  1.719448 -0.000011 0.000022  -0.022509 0.019639 -0.287088
16  1.099676 0.000048 0.000005  -0.286525 0.346051 -1.053593
17  0.770792 -0.901442 1.177686  -1.865794 -0.596008 -0.315192
18  1.789818 -0.000003 -0.000018  0.005558 0.090197 0.395774
19  1.207015 -0.000012 -0.000043  0.141886 -0.163086 0.233767
20  5.740637 0.000410 -0.000702  -0.075836 0.000003 0.000071
21  11.481123 0.000349 -0.000708  0.003285 -0.168368 0.001857
22  6.027524 -0.000329 0.000203  1.477755 -0.362724 1.583225
23  0.000001 11.692099 -0.000008  -0.805549 -0.287840 -0.655632
24  0.000002 0.000008 -0.000001  -0.515490 -0.000031 1.570739
25  -0.000001 -0.000011 -0.000002  0.868957 0.000002 1.570712
26  -6.617934 -9.178503 0.826812  1.473120 1.855075 -0.198639
27  6.027512 -0.000261 -0.000226  1.643405 0.874522 -0.649494
28  11.691992 0.000244 0.000856  0.141447 0.000057 -1.635482
29  11.479289 -0.000898 0.000962  -1.252321 0.274065 0.767857
30  3.859437 -0.132787 1.193061  0.466149 -0.051826 -1.783918
31  1.312558 0.000025 -0.000000  -0.013965 -0.041043 -0.156447
32  0.729345 0.000067 -0.000027  -0.128320 -0.117290 -0.954857
33  3.942047 0.050109 0.430997  0.211501 -0.107596 -1.469120
34  1.539097 0.000010 -0.000001  0.040712 -0.054386 -1.030469
35  1.196300 0.000075 -0.000005  -0.249391 -0.043040 -0.795120
36  3.883412 -0.050502 -0.431087  0.186407 -0.271796 -1.212184
37  1.719564 -0.000079 -0.000004  0.020974 -0.107650 -1.483528
38  1.209197 0.000036 0.000011  -0.324719 0.069674 -0.493483
39  3.859586 -0.149112 -1.331323  -0.094938 -0.084955 -0.411363
40  1.719411 -0.000100 -0.000035  -0.011248 0.001677 -0.960922
41  1.099674 0.000025 0.000007  -0.004984 -0.008084 -0.787926
42  0.805980 -0.359854 -1.318339  0.991670 0.166767 -0.799535
43  1.789780 -0.000009 -0.000042  0.000057 -0.002451 0.133097
44  1.206997 -0.000006 0.000005  0.000372 -0.000070 1.058781
45  5.740572 0.000055 0.000723  0.137207 -0.000014 0.000021
46  11.480803 -0.000144 0.000942  0.047693 0.052697 0.131303
47  6.027514 -0.000273 -0.000238  -0.976487 -0.387110 -1.710978
48  -0.000002 11.691974 -0.000005  -1.109180 0.552619 0.858571
49  0.000003 -0.000002 0.000000  2.413975 -0.000041 1.570856
50  -0.000007 -0.000016 0.000006  2.272644 -0.000030 1.570865
51  -4.156462 -5.632893 -5.842301  -0.152232 -2.969699 1.494101
52  -0.000001 0.000000 0.000000  0.008153 -0.000259 0.000009
53  0.000001 0.000000 -0.000000  1.565115 0.043565 -0.106862
54  -1.019451 -19.516010 -3.948212  -0.915764 0.120131 -1.790724
55  0.000002 0.000000 0.000000  0.000000 -0.000000 -0.000002
56  0.000031 0.000029 0.000001  -1.571902 -0.044449 -0.106509
57  7.202790 -19.259499 -17.055128  1.570796 -0.000000 0.000000
58  -15.417985 4.000748 -22.641926  1.570796 -0.000000 0.000000
59  2.236387 -2.421983 -5.367696  1.570796 -0.000000 0.000000
60  -0.004311 0.001230 -0.000371  0.006898 -0.005534 -0.284229
61  0.826810 10.209643 -4.879054  1.570796 -0.000000 0.000000
62  0.000000 0.000000 0.000000  -0.078727 -3.136056 0.284226
63  0.000000 0.000000 0.000000  1.570796 -0.000000 0.000000
64  -2.560631 -12.605763 -1.630369  1.551146 0.075602 0.015909
65  -0.109379 -1.951951 -1.519205  0.000000 0.000000 0.000000
66  -0.109379 0.057027 25.399254  0.000000 0.000000 0.000000
67  -0.109379 -1.856731 0.287230  0.000000 0.000000 0.000000
68  -0.104048 -4.495924 7.879278  0.000000 0.000000 0.000000
69  -0.195264 4.332630 -9.735163  0.000000 0.000000 0.000000
70  -1.290112 3.693283 8.579668  0.022713 -0.014049 -0.017451
71  -0.121470 -1.314581 7.402090  0.000000 0.000000 0.000000
72  -1.107529 -1.063453 4.061650  0.000000 0.000000 0.000000
73  0.003659 1.612363 10.733984  -0.000000 0.000000 -0.044364
74  -2.685434 -17.832020 -2.820535  1.551146 0.075602 0.015909
time 9
0  0.000006 0.000000 0.000000  -1.570800 -1.391899 -1.570792
1  -4.849906 3.337897 2.232070  -1.544956 -1.855077 -0.198630
2  6.027524 -0.000325 0.000192  -0.461705 -1.199476 -1.821246
3  11.692108 0.000643 -0.000738  -1.384570 -0.000003 -1.129199
4  11.480611 0.000700 -0.000249  1.514900 -0.947742 0.106465
5  3.859506 -0.142880 -1.192050  -0.507739 -0.034586 -1.573166
6  1.312590 0.000013 0.000007  -0.099219 -0.080836 -0.578266
7  0.729354 0.000055 0.000050  -0.083327 -0.106005 -0.262589
8  3.942142 0.046273 -0.431512  -0.423826 0.326055 -0.977403
9  1.539111 0.000085 0.000006  0.011526 -0.070624 -1.101829
10  1.196331 0.000144 0.000029  0.007038 -0.000117 -0.629733
11  3.883504 -0.047269 0.431382  -0.232037 0.533715 -0.537849
12  1.719575 -0.000026 0.000016  0.011709 -0.105542 -1.237432
13  1.209179 0.000092 0.000012  -0.006673 -0.001106 -0.502906
14  3.859660 -0.138475 1.332410  0.013813 0.511197 -0.350141
15  1.719447 -0.000013 0.000023  -0.022509 0.019639 -0.287088
16  1.099674 0.000050 0.000006  -0.286525 0.346051 -1.053593
17  0.770794 -0.901442 1.177686  -1.865794 -0.596008 -0.315192
18  1.789817 -0.000003 -0.000019  0.005558 0.090197 0.395774
19  1.207013 -0.000012 -0.000043  0.141886 -0.163086 0.233767
20  5.740637 0.000411 -0.000703  -0.071729 0.000003 0.000070
21  11.481127 0.000350 -0.000707  0.006229 -0.168345 0.004061
22  6.027524 -0.000329 0.000203  1.478451 -0.360255 1.577314
23  0.000002 11.692098 -0.000008  -0.803401 -0.286258 -0.654045
24  0.000003 0.000008 -0.000002  -0.515490 -0.000030 1.570739
25  -0.000001 -0.000011 -0.000002  0.868957 0.000002 1.570712
26  -6.617934 -9.178503 0.826812  1.473120 1.855075 -0.198639
27  6.027512 -0.000261 -0.000226  1.637439 0.879707 -0.652329
28  11.691990 0.000241 0.000856  0.141447 0.000056 -1.630816
29  11.479316 -0.000882 0.000959  -1.237144 0.281363 0.769340
30  3.859436 -0.132788 1.193062  0.466149 -0.051826 -1.783918
31  1.312558 0.000025 0.000001  -0.013965 -0.041043 -0.156447
32  0.729345 0.000065 -0.000029  -0.128320 -0.117290 -0.954857
33  3.942045 0.050109 0.430997  0.211501 -0.107596 -1.469120
34  1.539097 0.000009 0.000000  0.040712 -0.054386 -1.030469
35  1.196299 0.000076 -0.000004  -0.249391 -0.043040 -0.795121
36  3.883412 -0.050501 -0.431087  0.186407 -0.271796 -1.212184
37  1.719563 -0.000080 -0.000004  0.020974 -0.107650 -1.483528
38  1.209197 0.000036 0.000011  -0.324719 0.069674 -0.493483
39  3.859585 -0.149111 -1.331323  -0.094938 -0.084955 -0.411363
40  1.719412 -0.000100 -0.000035  -0.011248 0.001677 -0.960922
41  1.099673 0.000025 0.000007  -0.004984 -0.008084 -0.787926
42  0.805979 -0.359854 -1.318338  0.991670 0.166767 -0.799535
43  1.789779 -0.000010 -0.000042  0.000057 -0.002451 0.133097
44  1.206996 -0.000007 0.000006  0.000372 -0.000070 1.058782
45  5.740571 0.000055 0.000724  0.140322 -0.000014 0.000021
46  11.480806 -0.000140 0.000942  0.049973 0.055101 0.130767
47  6.027514 -0.000273 -0.000238  -0.983389 -0.387890 -1.706617
48  -0.000004 11.691975 -0.000006  -1.106444 0.549924 0.856991
49  0.000003 -0.000002 -0.000000  2.413975 -0.000041 1.570856
50  -0.000008 -0.000015 0.000006  2.272644 -0.000030 1.570865
51  -4.074279 -5.667977 -5.840968  -0.137719 -2.969553 1.490772
52  -0.000000 0.000000 0.000000  0.008153 -0.000259 0.000009
53  -0.000000 -0.000000 0.000000  1.565115 0.043565 -0.106862
54  -0.976426 -19.551296 -3.884923  -0.901482 0.121998 -1.789845
55  -0.000003 0.000000 0.000000  0.000000 -0.000000 -0.000002
56  0.000028 0.000029 0.000001  -1.571901 -0.044449 -0.106509
57  7.202790 -19.259499 -17.055128  1.570796 -0.000000 0.000000
58  -15.417985 4.000748 -22.641926  1.570796 -0.000000 0.000000
59  2.236387 -2.421983 -5.367696  1.570796 -0.000000 0.000000
60  -0.004311 0.001230 -0.000371  0.006898 -0.005534 -0.284229
61  0.826810 10.209643 -4.879054  1.570796 -0.000000 0.000000
62  0.000000 0.000000 0.000000  -0.078727 -3.136056 0.284226
63  0.000000 0.000000 0.000000  1.570796 -0.000000 0.000000
64  -2.544556 -12.636826 -1.597965  1.549658 0.061380 0.014962
65  -0.109379 -1.951951 -1.519205  -0.000000 -0.000000 -0.000000
66  -0.109379 0.057027 25.399254  -0.000000 -0.000000 -0.000000
67  -0.109379 -1.856732 0.287229  -0.000000 -0.000000 -0.000000
68  -0.104048 -4.495923 7.879275  -0.000000 -0.000000 -0.000000
69  -0.195264 4.332629 -9.735164  -0.000000 -0.000000 -0.000000
70  -1.290112 3.693282 8.579666  0.022713 -0.014049 -0.017451
71  -0.121471 -1.314581 7.402089  -0.000000 -0.000000 -0.000000
72  -1.107529 -1.063453 4.061648  -0.000000 -0.000000 -0.000000
73  0.003659 1.612363 10.733982  -0.000000 0.000000 -0.015530
74  -2.656861 -17.864481 -2.783212  1.549658 0.061380 0.014962
time 10
0  0.000006 0.000000 0.000000  -1.570800 -1.391899 -1.570792
1  -4.849906 3.337897 2.232070  -1.544956 -1.855077 -0.198630
2  6.027524 -0.000325 0.000192  -0.462017 -1.200729 -1.823814
3  11.692111 0.000644 -0.000740  -1.384570 -0.000003 -1.127810
4  11.480619 0.000700 -0.000248  1.522838 -0.948524 0.109134
5  3.859509 -0.142880 -1.192049  -0.507739 -0.034586 -1.573166
6  1.312590 0.000013 0.000007  -0.099219 -0.080836 -0.578266
7  0.729355 0.000054 0.000050  -0.083327 -0.106005 -0.262589
8  3.942142 0.046273 -0.431512  -0.423826 0.326055 -0.977403
9  1.539110 0.000084 0.000006  0.011526 -0.070624 -1.101829
10  1.196333 0.000144 0.000029  0.007038 -0.000117 -0.629733
11  3.883505 -0.047269 0.431381  -0.232037 0.533715 -0.537849
12  1.719573 -0.000026 0.000014  0.011709 -0.105542 -1.237432
13  1.209179 0.000095 0.000013  -0.006673 -0.001107 -0.502906
14  3.859663 -0.138476 1.332410  0.013813 0.511197 -0.350141
15  1.719446 -0.000013 0.000021  -0.022509 0.019639 -0.287088
16  1.099675 0.000046 0.000008  -0.286525 0.346051 -1.053593
17  0.770793 -0.901442 1.177686  -1.865794 -0.596008 -0.315192
18  1.789820 -0.000003 -0.000019  0.005558 0.090197 0.395774
19  1.207016 -0.000012 -0.000043  0.141886 -0.163086 0.233768
20  5.740637 0.000410 -0.000704  -0.069604 0.000003 0.000070
21  11.481129 0.000350 -0.000709  0.007781 -0.168414 0.005253
22  6.027524 -0.000329 0.000203  1.478908 -0.359072 1.574294
23  0.000001 11.692099 -0.000007  -0.802523 -0.285613 -0.653396
24  0.000003 0.000008 -0.000001  -0.515490 -0.000031 1.570739
25  -0.000000 -0.000011 -0.000001  0.868957 0.000002 1.570712
26  -6.617934 -9.178503 0.826812  1.473120 1.855075 -0.198639
27  6.027512 -0.000261 -0.000226  1.634294 0.882425 -0.653847
28  11.691992 0.000242 0.000855  0.141447 0.000056 -1.628682
29  11.479333 -0.000875 0.000957  -1.228905 0.285136 0.770684
30  3.859436 -0.132787 1.193062  0.466149 -0.051826 -1.783918
31  1.312559 0.000026 0.000000  -0.013965 -0.041044 -0.156447
32  0.729345 0.000066 -0.000028  -0.128320 -0.117290 -0.954857
33  3.942047 0.050109 0.430997  0.211501 -0.107596 -1.469120
34  1.539097 0.000011 -0.000001  0.040712 -0.054386 -1.030469
35  1.196299 0.000075 -0.000003  -0.249391 -0.043040 -0.795120
36  3.883411 -0.050501 -0.431087  0.186407 -0.271796 -1.212184
37  1.719564 -0.000080 -0.000003  0.020974 -0.107650 -1.483528
38  1.209197 0.000035 0.000011  -0.324719 0.069674 -0.493483
39  3.859586 -0.149111 -1.331323  -0.094938 -0.084955 -0.411363
40  1.719411 -0.000099 -0.000035  -0.011248 0.001677 -0.960922
41  1.099673 0.000025 0.000006  -0.004984 -0.008084 -0.787926
42  0.805979 -0.359853 -1.318338  0.991670 0.166767 -0.799535
43  1.789780 -0.000009 -0.000042  0.000057 -0.002451 0.133097
44  1.206997 -0.000007 0.000005  0.000372 -0.000070 1.058782
45  5.740574 0.000054 0.000723  0.142093 -0.000014 0.000021
46  11.480812 -0.000139 0.000941  0.051210 0.056383 0.130579
47  6.027514 -0.000273 -0.000238  -0.987010 -0.388281 -1.704338
48  -0.000003 11.691975 -0.000006  -1.105193 0.548692 0.856267
49  0.000003 -0.000001 -0.000000  2.413975 -0.000041 1.570856
50  -0.000008 -0.000015 0.000005  2.272644 -0.000030 1.570865
51  -4.029927 -5.683368 -5.838304  -0.129928 -2.969716 1.488992
52  0.000000 0.000000 -0.000000  0.008153 -0.000259 0.000009
53  0.000000 0.000001 0.000000  1.565115 0.043565 -0.106862
54  -0.953392 -19.567165 -3.852229  -0.893843 0.123214 -1.789358
55  0.000001 0.000000 -0.000000  0.000000 -0.000000 -0.000002
56  0.000030 0.000029 0.000001  -1.571901 -0.044449 -0.106509
57  7.202790 -19.259499 -17.055128  1.570796 -0.000000 0.000000
58  -15.417985 4.000748 -22.641926  1.570796 -0.000000 0.000000
59  2.236387 -2.421983 -5.367696  1.570796 -0.000000 0.000000
60  -0.004311 0.001230 -0.000371  0.006898 -0.005534 -0.284229
61  0.826810 10.209643 -4.879054  1.570796 -0.000000 0.000000
62  0.000000 0.000000 0.000000  -0.078727 -3.136056 0.284226
63  0.000000 0.000000 0.000000  1.570796 -0.000000 0.000000
64  -2.535900 -12.650944 -1.580516  1.549086 0.053723 0.014481
65  -0.109378 -1.951951 -1.519205  -0.000000 0.000000 0.000000
66  -0.109379 0.057027 25.399252  -0.000000 0.000000 0.000000
67  -0.109378 -1.856732 0.287229  -0.000000 0.000000 0.000000
68  -0.104047 -4.495923 7.879278  -0.000000 0.000000 0.000000
69  -0.195264 4.332631 -9.735163  -0.000000 0.000000 0.000000
70  -1.290112 3.693284 8.579670  0.022713 -0.014049 -0.017451
71  -0.121470 -1.314581 7.402088  -0.000000 0.000000 0.000000
72  -1.107528 -1.063453 4.061647  -0.000000 0.000000 0.000000
73  0.003659 1.612363 10.733981  -0.000000 0.000000 0.000000
74  -2.641465 -17.879095 -2.764200  1.549086 0.053723 0.014481
end
