version 1
nodes
0 "ValveBiped.Bip01_Spine4" -1
1 "ValveBiped.Bip01_L_Clavicle" 0
2 "ValveBiped.Bip01_L_UpperArm" 1
3 "ValveBiped.Bip01_L_Forearm" 2
4 "ValveBiped.Bip01_L_Hand" 3
5 "ValveBiped.Bip01_L_Finger4" 4
6 "ValveBiped.Bip01_L_Finger41" 5
7 "ValveBiped.Bip01_L_Finger42" 6
8 "ValveBiped.Bip01_L_Finger3" 4
9 "ValveBiped.Bip01_L_Finger31" 8
10 "ValveBiped.Bip01_L_Finger32" 9
11 "ValveBiped.Bip01_L_Finger2" 4
12 "ValveBiped.Bip01_L_Finger21" 11
13 "ValveBiped.Bip01_L_Finger22" 12
14 "ValveBiped.Bip01_L_Finger1" 4
15 "ValveBiped.Bip01_L_Finger11" 14
16 "ValveBiped.Bip01_L_Finger12" 15
17 "ValveBiped.Bip01_L_Finger0" 4
18 "ValveBiped.Bip01_L_Finger01" 17
19 "ValveBiped.Bip01_L_Finger02" 18
20 "ValveBiped.Bip01_L_Ulna" 3
21 "ValveBiped.Bip01_L_Wrist" 3
22 "rig_l_upperarm" 1
23 "rig_l_forearm" 22
24 "rig_d_l_forearm" 23
25 "rig_d_l_upperarm" 22
26 "ValveBiped.Bip01_R_Clavicle" 0
27 "ValveBiped.Bip01_R_UpperArm" 26
28 "ValveBiped.Bip01_R_Forearm" 27
29 "ValveBiped.Bip01_R_Hand" 28
30 "ValveBiped.Bip01_R_Finger4" 29
31 "ValveBiped.Bip01_R_Finger41" 30
32 "ValveBiped.Bip01_R_Finger42" 31
33 "ValveBiped.Bip01_R_Finger3" 29
34 "ValveBiped.Bip01_R_Finger31" 33
35 "ValveBiped.Bip01_R_Finger32" 34
36 "ValveBiped.Bip01_R_Finger2" 29
37 "ValveBiped.Bip01_R_Finger21" 36
38 "ValveBiped.Bip01_R_Finger22" 37
39 "ValveBiped.Bip01_R_Finger1" 29
40 "ValveBiped.Bip01_R_Finger11" 39
41 "ValveBiped.Bip01_R_Finger12" 40
42 "ValveBiped.Bip01_R_Finger0" 29
43 "ValveBiped.Bip01_R_Finger01" 42
44 "ValveBiped.Bip01_R_Finger02" 43
45 "ValveBiped.Bip01_R_Ulna" 28
46 "ValveBiped.Bip01_R_Wrist" 28
47 "rig_r_upperarm" 26
48 "rig_r_forearm" 47
49 "rig_d_r_forearm" 48
50 "rig_d_r_upperarm" 47
51 "rig_r_hand" -1
52 "rig_d_r_hand" 51
53 "rig_d_r_wrist" 52
54 "rig_l_hand" -1
55 "rig_d_l_hand" 54
56 "rig_d_l_wrist" 54
57 "rig_l_pole" -1
58 "rig_r_pole" -1
59 "rig_l_clavicle" -1
60 "rig_d_l_clavicle" 59
61 "rig_r_clavicle" -1
62 "rig_d_r_clavicle" 61
63 "Camera" -1
64 "body" -1
65 "trigger" 64
66 "barrel" 64
67 "bulletdoor" 64
68 "pump" 64
69 "bolt" 68
70 "tac" 68
71 "bullet2" 64
72 "catch" 64
73 "hookontop" 64
74 "bullet1" -1
end
skeleton
time 0
0  0.000006 0.000000 0.000000  -1.570800 -1.391899 -1.570792
1  2.033349 1.000767 1.937657  -1.544960 -1.855077 -0.198626
2  6.027515 -0.000326 0.000204  -1.583281 0.045956 -0.585171
3  11.692120 0.000528 -0.000741  -0.000018 -0.000000 -0.056697
4  11.481219 0.000216 -0.000752  1.576890 -0.106581 0.041970
5  3.859509 -0.142883 -1.192049  -0.468164 0.151540 -0.880272
6  1.312589 0.000013 0.000007  -0.000026 0.000045 -0.439738
7  0.729353 0.000051 0.000049  0.000017 0.000021 -0.244318
8  3.942146 0.046269 -0.431512  -0.151810 0.073212 -0.811101
9  1.539109 0.000083 0.000005  -0.000007 0.000021 -0.247841
10  1.196331 0.000143 0.000029  0.000012 0.000019 -0.430771
11  3.883508 -0.047272 0.431381  0.085898 0.021851 -0.587925
12  1.719575 -0.000028 0.000015  0.000015 0.005519 -0.366533
13  1.209179 0.000091 0.000012  0.000004 0.003092 -0.216437
14  3.859662 -0.138478 1.332410  0.354468 -0.042725 -0.531804
15  1.719453 -0.000009 0.000021  0.000029 0.004070 -0.363021
16  1.099675 0.000047 0.000006  0.000003 0.002579 -0.244381
17  0.805995 -0.349054 1.321254  -1.222687 -0.679194 -0.788886
18  1.789818 -0.000004 -0.000018  0.000012 -0.000024 0.228522
19  1.207011 -0.000013 -0.000045  0.000002 -0.000008 0.362858
20  5.740637 0.000410 -0.000702  0.003119 0.000003 0.000071
21  11.481257 0.000262 -0.000831  0.004951 0.000185 -0.001480
22  6.027524 -0.000330 0.000203  0.059584 -2.453119 -2.193916
23  0.000001 11.692101 -0.000006  -0.043310 -0.000838 -0.036607
24  0.000003 0.000009 0.000001  0.868996 -0.000031 1.570739
25  -0.000000 -0.000012 -0.000001  0.868957 0.000002 1.570712
26  2.033355 1.000772 -1.937609  1.473131 1.855076 -0.198627
27  6.027508 -0.000258 -0.000237  1.639678 -0.005938 -0.586605
28  11.691988 0.000145 0.000867  -0.000046 -0.000001 -0.056062
29  11.481175 0.000050 0.000829  -1.565092 0.106516 0.042004
30  3.859437 -0.132786 1.193062  0.466291 -0.158048 -0.878829
31  1.312561 0.000025 -0.000001  0.000011 -0.000044 -0.439710
32  0.729343 0.000065 -0.000028  -0.000023 -0.000019 -0.244285
33  3.942049 0.050108 0.430997  0.150090 -0.079180 -0.810199
34  1.539095 0.000009 -0.000000  0.000010 -0.000008 -0.247820
35  1.196298 0.000074 -0.000003  -0.000007 -0.000009 -0.430783
36  3.883413 -0.050504 -0.431087  -0.085915 -0.026391 -0.587671
37  1.719565 -0.000079 -0.000003  -0.000006 -0.007962 -0.366483
38  1.209196 0.000035 0.000011  0.000002 -0.004460 -0.216413
39  3.859587 -0.149112 -1.331323  -0.354446 0.038580 -0.531963
40  1.719414 -0.000101 -0.000035  -0.000028 -0.006585 -0.363032
41  1.099673 0.000024 0.000006  0.000004 -0.004187 -0.244346
42  0.805980 -0.359856 -1.318338  1.221444 0.673631 -0.793566
43  1.789782 -0.000009 -0.000044  -0.000028 0.000031 0.228552
44  1.206996 -0.000006 0.000005  -0.000017 0.000020 0.362911
45  5.740572 0.000055 0.000723  0.002082 -0.000014 0.000021
46  11.481179 0.000045 0.000935  -0.000025 -0.000087 -0.001749
47  6.027515 -0.000273 -0.000237  0.007374 -0.632955 -2.161837
48  -0.000000 11.691975 -0.000006  -0.042810 0.000798 0.036188
49  0.000003 -0.000003 -0.000000  2.272569 -0.000041 1.570856
50  -0.000007 -0.000015 0.000005  2.272644 -0.000030 1.570865
51  -22.676567 -0.984331 -17.554111  -1.605366 2.379717 -0.041994
52  0.000001 0.000002 -0.000000  0.008153 -0.000259 0.000009
53  -0.000000 -0.000001 0.000000  1.565115 0.043565 -0.106862
54  22.676517 -0.984221 -17.554199  1.605712 0.761853 0.042358
55  0.000001 -0.000003 -0.000000  0.000000 -0.000000 -0.000002
56  0.000032 0.000027 0.000001  -1.571901 -0.044449 -0.106509
57  15.265023 8.339654 -8.787539  1.570796 -0.000000 0.000000
58  -15.265000 8.339654 -8.787539  1.570796 -0.000000 0.000000
59  1.941978 -1.346989 1.821586  1.570796 -0.000000 0.000000
60  -0.004311 0.001230 -0.000371  0.006898 -0.005534 -0.284229
61  -1.937603 -1.346625 1.822824  1.570796 -0.000000 0.000000
62  0.000000 0.000000 0.000000  -0.078727 -3.136056 0.284226
63  0.000000 0.000000 0.000000  1.570796 -0.000000 0.000000
64  -3.258810 -12.631968 -3.682181  1.570796 -0.000000 0.000000
65  -0.109379 -1.951951 -1.519205  0.000000 -0.000000 0.000000
66  -0.109379 0.057027 25.399252  0.000000 -0.000000 0.000000
67  -0.109379 -1.856732 0.287230  0.000000 -0.000000 0.000000
68  -0.104048 -4.495923 7.879276  0.000000 -0.000000 0.000000
69  -0.195264 4.332630 -6.347187  0.000000 -0.000000 0.000000
70  -1.290112 3.693283 8.579668  0.000000 -0.000000 0.000000
71  -0.104049 -1.582848 2.554636  0.000000 -0.000000 0.000000
72  -1.107528 -1.063453 4.061647  0.000000 -0.000000 0.000000
73  0.003659 1.612363 10.733982  0.000000 -0.000000 0.000000
74  -3.362859 -12.987121 -5.265029  1.570796 -0.000000 0.000000
end
triangles
lowpoly_metal
0  -2.949517 -14.145503 -4.977070  -0.000087 -0.999999 -0.001623  0.049683 0.585822 1 74 1.000000
0  -2.957124 -14.144744 -5.444912  0.000086 -0.999999 -0.001627  0.050206 0.585933 1 74 1.000000
0  -2.949517 -14.144736 -5.449199  0.000088 -0.999999 -0.001627  0.050206 0.585953 1 74 1.000000
lowpoly_plastic
0  -2.957124 -14.139522 -5.444904  0.470634 0.285920 -0.834717  0.089708 0.407095 1 74 1.000000
0  -3.368469 -14.147228 -5.679449  0.470633 0.285664 -0.834806  0.087769 0.406036 1 74 1.000000
0  -3.368469 -14.139144 -5.676682  0.470633 0.285661 -0.834807  0.089720 0.406036 1 74 1.000000
lowpoly_plastic
0  -3.779814 -14.140273 -4.981348  -1.000000 -0.000126 -0.000000  0.091994 0.408881 1 74 1.000000
0  -3.779814 -14.147602 -5.447671  -1.000000 -0.000012 -0.000000  0.091465 0.406929 1 74 1.000000
0  -3.779814 -14.148354 -4.984116  -1.000000 -0.000127 -0.000000  0.091994 0.406929 1 74 1.000000
lowpoly_plastic
0  -3.368469 -14.140647 -4.749570  0.470621 -0.285781 0.834772  0.085631 0.408260 1 74 1.000000
0  -2.957124 -14.148354 -4.984116  0.470538 -0.285937 0.834766  0.087570 0.409319 1 74 1.000000
0  -2.957124 -14.140273 -4.981348  0.470537 -0.285939 0.834766  0.085620 0.409319 1 74 1.000000
lowpoly_metal
0  -3.243663 -11.751247 -5.282334  0.000007 0.999999 0.001625  0.203712 0.284742 1 74 1.000000
0  -3.368469 -11.751589 -5.071363  0.000009 0.999999 0.001626  0.203953 0.284421 1 74 1.000000
0  -3.243663 -11.751476 -5.141687  0.000015 0.999999 0.001630  0.203872 0.284742 1 74 1.000000
lowpoly_plastic
0  -3.368469 -14.188271 -4.878197  -0.490889 0.001406 -0.871221  0.056830 0.550273 1 74 1.000000
0  -3.068751 -14.125896 -5.046977  -0.490907 0.001404 -0.871211  0.056910 0.551045 1 74 1.000000
0  -3.068751 -14.188000 -5.047077  -0.490909 0.001403 -0.871210  0.056839 0.551045 1 74 1.000000
lowpoly_metal
0  -3.229580 -11.743013 -5.133737  -1.000000 -0.000008 0.000000  0.201972 0.279613 1 74 1.000000
0  -3.229580 -11.803301 -5.290354  -1.000000 0.000003 0.000000  0.201903 0.279792 1 74 1.000000
0  -3.229580 -11.803555 -5.133835  -1.000000 -0.000013 0.000000  0.201903 0.279613 1 74 1.000000
lowpoly_metal
0  -3.368469 -11.803200 -5.352743  0.490896 0.001422 -0.871217  0.198025 0.283213 1 74 1.000000
0  -3.243663 -11.751247 -5.282334  0.490894 0.001420 -0.871218  0.198081 0.283534 1 74 1.000000
0  -3.243663 -11.803312 -5.282419  0.490893 0.001419 -0.871218  0.198022 0.283534 1 74 1.000000
lowpoly_metal
0  -3.820695 -11.816996 -5.466930  -0.490898 0.001417 -0.871216  0.049390 0.583729 1 74 1.000000
0  -3.368469 -11.742060 -5.721622  -0.490897 0.001416 -0.871216  0.049488 0.584893 1 74 1.000000
0  -3.368469 -11.816584 -5.721743  -0.490897 0.001415 -0.871216  0.049403 0.584893 1 74 1.000000
lowpoly_metal
0  -3.787421 -14.144736 -5.449199  -1.000000 0.000000 0.000000  0.049099 0.587512 1 74 1.000000
0  -3.787421 -11.817791 -4.976054  -1.000000 0.000000 0.000000  0.049639 0.588230 1 74 1.000000
0  -3.787421 -11.817026 -5.448182  -1.000000 0.000000 0.000000  0.049099 0.588230 1 74 1.000000
lowpoly_metal
0  -3.368469 -14.144355 -5.685263  -0.490899 0.000381 -0.871216  0.053795 0.584808 1 74 1.000000
0  -3.787421 -11.817026 -5.448182  -0.490900 0.000380 -0.871216  0.054500 0.583729 1 74 1.000000
0  -3.368469 -11.816645 -5.684247  -0.490900 0.000380 -0.871216  0.054511 0.584808 1 74 1.000000
lowpoly_plastic
0  -2.957124 -14.140273 -4.981348  1.000000 0.000001 0.000000  0.090682 0.404600 1 74 1.000000
0  -2.957124 -14.147602 -5.447671  1.000000 0.000099 0.000000  0.091211 0.402648 1 74 1.000000
0  -2.957124 -14.139522 -5.444904  1.000000 0.000101 0.000000  0.091211 0.404600 1 74 1.000000
lowpoly_metal
0  -3.507359 -11.742758 -5.290256  0.490897 -0.001414 0.871216  0.198081 0.282891 1 74 1.000000
0  -3.368469 -11.803173 -5.368613  0.490898 -0.001412 0.871216  0.198016 0.282534 1 74 1.000000
0  -3.368469 -11.742632 -5.368515  0.490899 -0.001411 0.871216  0.198085 0.282534 1 74 1.000000
lowpoly_metal
0  -3.368469 -11.751133 -5.352658  -0.000006 0.999999 0.001620  0.203632 0.284421 1 74 1.000000
0  -3.493276 -11.751476 -5.141687  -0.000009 0.999999 0.001621  0.203872 0.284100 1 74 1.000000
0  -3.368469 -11.751589 -5.071363  -0.000011 0.999999 0.001623  0.203953 0.284421 1 74 1.000000
lowpoly_metal
0  -2.916244 -11.817822 -4.957305  1.000000 -0.000000 0.000000  0.053688 0.587966 1 74 1.000000
0  -2.916244 -11.742474 -5.466809  1.000000 -0.000001 0.000000  0.053602 0.588548 1 74 1.000000
0  -2.916244 -11.743298 -4.957184  1.000000 0.000000 0.000000  0.053602 0.587966 1 74 1.000000
lowpoly_plastic
0  -3.368469 -14.187176 -5.553718  -0.490891 -0.001406 0.871220  0.056980 0.550273 1 74 1.000000
0  -3.068751 -14.125347 -5.384737  -0.490892 -0.001404 0.871219  0.056918 0.551045 1 74 1.000000
0  -3.368469 -14.125076 -5.553618  -0.490890 -0.001406 0.871220  0.056910 0.550273 1 74 1.000000
lowpoly_metal
0  -3.368469 -11.742632 -5.368515  -0.490895 -0.001410 0.871217  0.198085 0.282534 1 74 1.000000
0  -3.229580 -11.803301 -5.290354  -0.490900 -0.001414 0.871215  0.198012 0.282176 1 74 1.000000
0  -3.229580 -11.742758 -5.290256  -0.490902 -0.001416 0.871214  0.198081 0.282176 1 74 1.000000
lowpoly_plastic
0  -3.368469 -14.126171 -4.878097  -0.000005 -0.999999 -0.001623  0.063387 0.554036 1 74 1.000000
0  -3.668187 -14.125347 -5.384737  -0.000007 -0.999999 -0.001624  0.064136 0.553427 1 74 1.000000
0  -3.368469 -14.125076 -5.553618  -0.000010 -0.999999 -0.001625  0.064136 0.554223 1 74 1.000000
lowpoly_metal
0  -2.949517 -11.817026 -5.448182  0.490900 0.000381 -0.871216  0.054500 0.585887 1 74 1.000000
0  -3.368469 -14.144355 -5.685263  0.490899 0.000381 -0.871216  0.053795 0.584808 1 74 1.000000
0  -3.368469 -11.816645 -5.684247  0.490901 0.000381 -0.871215  0.054511 0.584808 1 74 1.000000
lowpoly_metal
0  -3.368469 -11.743139 -5.055479  -0.490898 0.001413 -0.871216  0.200834 0.282405 1 74 1.000000
0  -3.229580 -11.803555 -5.133835  -0.490895 0.001411 -0.871218  0.200769 0.282763 1 74 1.000000
0  -3.368469 -11.803680 -5.055577  -0.490899 0.001414 -0.871215  0.200765 0.282405 1 74 1.000000
lowpoly_metal
0  -3.787421 -14.145503 -4.977070  0.000087 -0.999999 -0.001623  0.050206 0.583729 1 74 1.000000
0  -3.779814 -14.144744 -5.444912  -0.000086 -0.999999 -0.001626  0.050720 0.583878 1 74 1.000000
0  -3.779814 -14.145495 -4.981356  0.000090 -0.999999 -0.001623  0.050206 0.583749 1 74 1.000000
lowpoly_plastic
0  -2.957124 -14.147602 -5.447671  0.759662 -0.650317 -0.001051  0.090671 0.407135 1 74 1.000000
0  -2.991151 -14.188068 -5.003354  0.759645 -0.650337 -0.001054  0.091176 0.407222 1 74 1.000000
0  -2.991151 -14.187382 -5.428564  0.759664 -0.650315 -0.001050  0.090691 0.407222 1 74 1.000000
lowpoly_plastic
0  -3.779814 -14.140273 -4.981348  -0.470711 -0.286113 0.834608  0.085620 0.407201 1 74 1.000000
0  -3.368469 -14.148731 -4.752338  -0.470531 -0.285737 0.834838  0.087581 0.408260 1 74 1.000000
0  -3.368469 -14.140647 -4.749570  -0.470529 -0.285733 0.834841  0.085631 0.408260 1 74 1.000000
lowpoly_plastic
0  -3.368469 -14.187176 -5.553718  0.490891 -0.001406 0.871220  0.056980 0.550273 1 74 1.000000
0  -3.668187 -14.125347 -5.384737  0.490892 -0.001404 0.871219  0.056918 0.549501 1 74 1.000000
0  -3.668187 -14.187450 -5.384838  0.490892 -0.001404 0.871219  0.056989 0.549501 1 74 1.000000
lowpoly_plastic
0  -3.368469 -14.187035 -5.641168  0.000018 -0.999999 -0.001590  0.090448 0.408194 1 74 1.000000
0  -3.668187 -14.187450 -5.384838  0.000018 -0.999999 -0.001590  0.090741 0.408965 1 74 1.000000
0  -3.745787 -14.187382 -5.428564  0.000018 -0.999999 -0.001590  0.090691 0.409165 1 74 1.000000
lowpoly_plastic
0  -3.368469 -14.147228 -5.679449  0.375771 -0.642340 -0.667978  0.087769 0.406036 1 74 1.000000
0  -2.991151 -14.187382 -5.428564  0.375771 -0.642340 -0.667978  0.087712 0.407008 1 74 1.000000
0  -3.368469 -14.187035 -5.641168  0.375771 -0.642340 -0.667978  0.087722 0.406036 1 74 1.000000
lowpoly_plastic
0  -3.368469 -14.148731 -4.752338  -0.375797 -0.644495 0.665885  0.091465 0.408194 1 74 1.000000
0  -3.745787 -14.188068 -5.003354  -0.375797 -0.644495 0.665885  0.091176 0.409165 1 74 1.000000
0  -3.368469 -14.188416 -4.790747  -0.375797 -0.644495 0.665885  0.091419 0.408194 1 74 1.000000
lowpoly_plastic
0  -3.368469 -14.147228 -5.679449  -0.375804 -0.642320 -0.667980  0.087769 0.406036 1 74 1.000000
0  -3.745787 -14.187382 -5.428564  -0.375804 -0.642320 -0.667980  0.087712 0.405065 1 74 1.000000
0  -3.779814 -14.147602 -5.447671  -0.375804 -0.642320 -0.667980  0.087758 0.404977 1 74 1.000000
lowpoly_plastic
0  -3.368469 -14.148731 -4.752338  0.375789 -0.644516 0.665869  0.091465 0.408194 1 74 1.000000
0  -2.991151 -14.188068 -5.003354  0.375789 -0.644516 0.665869  0.091176 0.407222 1 74 1.000000
0  -2.957124 -14.148354 -4.984116  0.375789 -0.644516 0.665869  0.091200 0.407135 1 74 1.000000
lowpoly_metal
0  -3.368469 -14.145885 -4.741006  0.490899 -0.000381 0.871216  0.048892 0.587037 1 74 1.000000
0  -2.949517 -11.817791 -4.976054  0.490900 -0.000381 0.871216  0.048163 0.588116 1 74 1.000000
0  -3.368469 -11.818174 -4.739989  0.490900 -0.000381 0.871216  0.048175 0.587037 1 74 1.000000
lowpoly_metal
0  -3.820695 -11.743299 -4.957184  -0.000002 0.999999 0.001623  0.050747 0.583729 1 74 1.000000
0  -3.507359 -11.742758 -5.290256  -0.000001 0.999999 0.001624  0.051127 0.582922 1 74 1.000000
0  -3.820695 -11.742474 -5.466809  -0.000006 0.999999 0.001618  0.051329 0.583729 1 74 1.000000
lowpoly_plastic
0  -3.368469 -14.188416 -4.790747  0.000018 -0.999999 -0.001604  0.091419 0.408194 1 74 1.000000
0  -3.068751 -14.188000 -5.047077  0.000018 -0.999999 -0.001604  0.091126 0.407422 1 74 1.000000
0  -2.991151 -14.188068 -5.003354  0.000018 -0.999999 -0.001604  0.091176 0.407222 1 74 1.000000
lowpoly_plastic
0  -3.368469 -14.187035 -5.641168  -0.000007 -0.999999 -0.001637  0.090448 0.408194 1 74 1.000000
0  -3.068751 -14.187450 -5.384838  -0.000007 -0.999999 -0.001637  0.090741 0.407422 1 74 1.000000
0  -3.368469 -14.187176 -5.553718  -0.000007 -0.999999 -0.001637  0.090548 0.408194 1 74 1.000000
lowpoly_plastic
0  -3.368469 -14.188416 -4.790747  0.000030 -0.999999 -0.001674  0.091419 0.408194 1 74 1.000000
0  -3.668187 -14.188000 -5.047077  0.000030 -0.999999 -0.001674  0.091126 0.408965 1 74 1.000000
0  -3.368469 -14.188271 -4.878197  0.000030 -0.999999 -0.001674  0.091319 0.408194 1 74 1.000000
lowpoly_metal
0  -2.916244 -11.742474 -5.466809  0.000001 0.999999 0.001621  0.051329 0.581400 1 74 1.000000
0  -3.229580 -11.743013 -5.133737  0.000002 0.999999 0.001622  0.050948 0.582207 1 74 1.000000
0  -2.916244 -11.743298 -4.957184  -0.000004 0.999999 0.001615  0.050747 0.581400 1 74 1.000000
lowpoly_metal
0  -3.368469 -11.743139 -5.055479  0.490898 0.001415 -0.871216  0.200834 0.282405 1 74 1.000000
0  -3.507359 -11.803555 -5.133835  0.490895 0.001415 -0.871218  0.200769 0.282048 1 74 1.000000
0  -3.507359 -11.743013 -5.133737  0.490894 0.001416 -0.871218  0.200838 0.282048 1 74 1.000000
lowpoly_metal
0  -3.368469 -11.818235 -4.702492  0.490896 -0.001406 0.871217  0.049585 0.584893 1 74 1.000000
0  -2.916244 -11.743298 -4.957184  0.490897 -0.001417 0.871216  0.049488 0.586058 1 74 1.000000
0  -3.368469 -11.743711 -4.702372  0.490896 -0.001405 0.871217  0.049500 0.584893 1 74 1.000000
lowpoly_metal
0  -3.243663 -11.803312 -5.282419  1.000000 -0.000000 0.000000  0.202299 0.279774 1 74 1.000000
0  -3.243663 -11.751476 -5.141687  1.000000 -0.000001 0.000000  0.202240 0.279613 1 74 1.000000
0  -3.243663 -11.803541 -5.141771  1.000000 -0.000001 0.000000  0.202299 0.279613 1 74 1.000000
lowpoly_metal
0  -3.368469 -11.818235 -4.702492  -0.490897 -0.001403 0.871217  0.049585 0.584893 1 74 1.000000
0  -3.820695 -11.743299 -4.957184  -0.490898 -0.001415 0.871216  0.049488 0.583729 1 74 1.000000
0  -3.820695 -11.817822 -4.957305  -0.490899 -0.001417 0.871216  0.049573 0.583729 1 74 1.000000
lowpoly_plastic
0  -3.068751 -14.187450 -5.384838  -1.000000 -0.000000 0.000000  0.056753 0.553526 1 74 1.000000
0  -3.068751 -14.125896 -5.046977  -1.000000 -0.000003 0.000000  0.056824 0.553140 1 74 1.000000
0  -3.068751 -14.125347 -5.384737  -1.000000 0.000000 0.000000  0.056824 0.553526 1 74 1.000000
lowpoly_metal
0  -3.368469 -11.803656 -5.071448  0.490905 -0.001418 0.871212  0.198148 0.283160 1 74 1.000000
0  -3.243663 -11.751476 -5.141687  0.490892 -0.001406 0.871219  0.198211 0.282839 1 74 1.000000
0  -3.368469 -11.751589 -5.071363  0.490910 -0.001422 0.871209  0.198207 0.283160 1 74 1.000000
lowpoly_metal
0  -3.368469 -11.803656 -5.071448  -0.490898 -0.001415 0.871216  0.198148 0.283160 1 74 1.000000
0  -3.493276 -11.751476 -5.141687  -0.490900 -0.001406 0.871215  0.198211 0.283481 1 74 1.000000
0  -3.493276 -11.803541 -5.141771  -0.490901 -0.001403 0.871214  0.198151 0.283481 1 74 1.000000
lowpoly_metal
0  -3.493276 -11.803541 -5.141771  -1.000000 -0.000006 0.000000  0.202180 0.279613 1 74 1.000000
0  -3.493276 -11.751247 -5.282334  -1.000000 -0.000001 0.000000  0.202240 0.279774 1 74 1.000000
0  -3.493276 -11.803312 -5.282419  -1.000000 0.000001 0.000000  0.202180 0.279774 1 74 1.000000
lowpoly_plastic
0  -3.779814 -14.147602 -5.447671  -0.759668 -0.650311 -0.001051  0.090671 0.409253 1 74 1.000000
0  -3.745787 -14.188068 -5.003354  -0.759650 -0.650331 -0.001054  0.091176 0.409165 1 74 1.000000
0  -3.779814 -14.148354 -4.984116  -0.759649 -0.650332 -0.001054  0.091200 0.409253 1 74 1.000000
lowpoly_plastic
0  -3.368469 -14.139144 -5.676682  -0.470636 0.285671 -0.834802  0.089720 0.406036 1 74 1.000000
0  -3.779814 -14.147602 -5.447671  -0.470632 0.285866 -0.834737  0.087758 0.404977 1 74 1.000000
0  -3.779814 -14.139522 -5.444904  -0.470632 0.285868 -0.834737  0.089708 0.404977 1 74 1.000000
lowpoly_plastic
0  -3.668187 -14.188000 -5.047077  0.490892 0.001406 -0.871219  0.056839 0.549501 1 74 1.000000
0  -3.368469 -14.126171 -4.878097  0.490903 0.001406 -0.871213  0.056901 0.550273 1 74 1.000000
0  -3.368469 -14.188271 -4.878197  0.490905 0.001406 -0.871212  0.056830 0.550273 1 74 1.000000
lowpoly_metal
0  -3.787421 -11.817791 -4.976054  0.000001 -0.999999 -0.001631  0.052471 0.583643 1 74 1.000000
0  -3.368469 -11.818235 -4.702492  0.000001 -0.999999 -0.001631  0.052783 0.582565 1 74 1.000000
0  -3.820695 -11.817822 -4.957305  0.000001 -0.999999 -0.001631  0.052492 0.583729 1 74 1.000000
lowpoly_metal
0  -2.949517 -14.145503 -4.977070  1.000000 0.000000 0.000000  0.053063 0.587966 1 74 1.000000
0  -2.949517 -11.817026 -5.448182  1.000000 0.000000 0.000000  0.053602 0.588683 1 74 1.000000
0  -2.949517 -11.817791 -4.976054  1.000000 0.000000 0.000000  0.053063 0.588683 1 74 1.000000
lowpoly_metal
0  -3.507359 -11.803301 -5.290354  -0.000098 0.999999 0.001625  0.198586 0.282890 1 74 1.000000
0  -3.493276 -11.803541 -5.141771  -0.000038 0.999999 0.001623  0.198430 0.282814 1 74 1.000000
0  -3.493276 -11.803312 -5.282419  -0.000104 0.999999 0.001625  0.198586 0.282853 1 74 1.000000
lowpoly_metal
0  -3.787421 -11.817026 -5.448182  -0.000007 -0.999999 -0.001578  0.051932 0.583643 1 74 1.000000
0  -3.368469 -11.816584 -5.721743  -0.000007 -0.999999 -0.001578  0.051620 0.582565 1 74 1.000000
0  -3.368469 -11.816645 -5.684247  -0.000007 -0.999999 -0.001578  0.051662 0.582565 1 74 1.000000
lowpoly_metal
0  -2.949517 -11.817791 -4.976054  -0.000002 -0.999999 -0.001639  0.052471 0.581486 1 74 1.000000
0  -3.368469 -11.818235 -4.702492  -0.000002 -0.999999 -0.001639  0.052783 0.582565 1 74 1.000000
0  -3.368469 -11.818174 -4.739989  -0.000002 -0.999999 -0.001639  0.052740 0.582565 1 74 1.000000
lowpoly_metal
0  -2.949517 -11.817791 -4.976054  -0.000004 -0.999999 -0.001620  0.052471 0.581486 1 74 1.000000
0  -2.916244 -11.816996 -5.466930  0.000004 -0.999999 -0.001620  0.051910 0.581400 1 74 1.000000
0  -2.916244 -11.817822 -4.957305  -0.000004 -0.999999 -0.001620  0.052492 0.581400 1 74 1.000000
lowpoly_metal
0  -2.949517 -11.817026 -5.448182  0.000003 -0.999999 -0.001631  0.051932 0.581486 1 74 1.000000
0  -3.368469 -11.816584 -5.721743  0.000003 -0.999999 -0.001631  0.051620 0.582565 1 74 1.000000
0  -2.916244 -11.816996 -5.466930  0.000003 -0.999999 -0.001631  0.051910 0.581400 1 74 1.000000
lowpoly_metal
0  -3.368469 -11.743711 -4.702372  0.000007 0.999999 0.001624  0.050456 0.582565 1 74 1.000000
0  -3.229580 -11.743013 -5.133737  0.000007 0.999999 0.001624  0.050948 0.582207 1 74 1.000000
0  -3.368469 -11.743139 -5.055479  0.000007 0.999999 0.001624  0.050859 0.582565 1 74 1.000000
lowpoly_plastic
0  -3.668187 -14.187450 -5.384838  1.000000 -0.000000 0.000000  0.056824 0.553912 1 74 1.000000
0  -3.668187 -14.125896 -5.046977  1.000000 -0.000003 0.000000  0.056753 0.553526 1 74 1.000000
0  -3.668187 -14.188000 -5.047077  1.000000 -0.000003 0.000000  0.056824 0.553526 1 74 1.000000
lowpoly_metal
0  -3.368469 -11.816584 -5.721743  0.490897 0.001417 -0.871216  0.049403 0.584893 1 74 1.000000
0  -2.916244 -11.742474 -5.466809  0.490898 0.001415 -0.871216  0.049475 0.586058 1 74 1.000000
0  -2.916244 -11.816996 -5.466930  0.490899 0.001415 -0.871216  0.049390 0.586058 1 74 1.000000
lowpoly_metal
0  -3.820695 -11.817822 -4.957305  -1.000000 0.000000 0.000000  0.051655 0.587893 1 74 1.000000
0  -3.820695 -11.742474 -5.466809  -1.000000 0.000001 0.000000  0.051740 0.588476 1 74 1.000000
0  -3.820695 -11.816996 -5.466930  -1.000000 0.000001 0.000000  0.051655 0.588476 1 74 1.000000
lowpoly_metal
0  -3.368469 -14.144355 -5.685263  0.000094 -0.999998 -0.001893  0.050729 0.584972 1 74 1.000000
0  -2.957124 -14.144744 -5.444912  0.000094 -0.999998 -0.001893  0.050206 0.585933 1 74 1.000000
0  -3.368469 -14.144370 -5.676691  0.000094 -0.999998 -0.001893  0.050720 0.584969 1 74 1.000000
lowpoly_metal
0  -3.368469 -14.145885 -4.741006  -0.000166 -0.999999 -0.001352  0.049683 0.584710 1 74 1.000000
0  -3.779814 -14.145495 -4.981356  -0.000166 -0.999999 -0.001352  0.050206 0.583749 1 74 1.000000
0  -3.368469 -14.145873 -4.749579  -0.000166 -0.999999 -0.001352  0.049693 0.584713 1 74 1.000000
lowpoly_metal
0  -3.787421 -11.817791 -4.976054  0.000004 -0.999999 -0.001620  0.052471 0.583643 1 74 1.000000
0  -3.820695 -11.816996 -5.466930  -0.000004 -0.999999 -0.001620  0.051910 0.583729 1 74 1.000000
0  -3.787421 -11.817026 -5.448182  -0.000004 -0.999999 -0.001620  0.051932 0.583643 1 74 1.000000
lowpoly_metal
0  -3.368469 -14.144355 -5.685263  -0.000046 -0.999999 -0.001601  0.050729 0.584972 1 74 1.000000
0  -3.779814 -14.144744 -5.444912  -0.000046 -0.999999 -0.001601  0.050720 0.583878 1 74 1.000000
0  -3.787421 -14.144736 -5.449199  -0.000046 -0.999999 -0.001601  0.050729 0.583860 1 74 1.000000
lowpoly_metal
0  -3.368469 -14.145885 -4.741006  -0.000046 -0.999998 -0.001838  0.049683 0.584710 1 74 1.000000
0  -2.957124 -14.145495 -4.981356  -0.000046 -0.999998 -0.001838  0.049693 0.585804 1 74 1.000000
0  -2.949517 -14.145503 -4.977070  -0.000046 -0.999998 -0.001838  0.049683 0.585822 1 74 1.000000
lowpoly_metal
0  -3.493276 -11.803312 -5.282419  -0.490904 0.001422 -0.871212  0.198022 0.282891 1 74 1.000000
0  -3.368469 -11.751133 -5.352658  -0.490900 0.001420 -0.871215  0.198085 0.283213 1 74 1.000000
0  -3.368469 -11.803200 -5.352743  -0.490898 0.001419 -0.871216  0.198025 0.283213 1 74 1.000000
lowpoly_metal
0  -3.368469 -11.742060 -5.721622  0.000004 0.999999 0.001621  0.051620 0.582565 1 74 1.000000
0  -3.229580 -11.742758 -5.290256  0.000004 0.999999 0.001621  0.051127 0.582207 1 74 1.000000
0  -2.916244 -11.742474 -5.466809  0.000004 0.999999 0.001621  0.051329 0.581400 1 74 1.000000
lowpoly_metal
0  -3.368469 -11.743711 -4.702372  -0.000001 0.999999 0.001618  0.050456 0.582565 1 74 1.000000
0  -3.507359 -11.743013 -5.133737  -0.000001 0.999999 0.001618  0.050948 0.582922 1 74 1.000000
0  -3.820695 -11.743299 -4.957184  -0.000001 0.999999 0.001618  0.050747 0.583729 1 74 1.000000
lowpoly_metal
0  -3.368469 -11.742060 -5.721622  0.000007 0.999999 0.001619  0.051620 0.582565 1 74 1.000000
0  -3.507359 -11.742758 -5.290256  0.000007 0.999999 0.001619  0.051127 0.582922 1 74 1.000000
0  -3.368469 -11.742632 -5.368515  0.000007 0.999999 0.001619  0.051216 0.582565 1 74 1.000000
lowpoly_metal
0  -3.368469 -11.803173 -5.368613  0.000046 0.999999 0.001685  0.198759 0.282565 1 74 1.000000
0  -3.493276 -11.803312 -5.282419  0.000046 0.999999 0.001685  0.198586 0.282853 1 74 1.000000
0  -3.368469 -11.803200 -5.352743  0.000046 0.999999 0.001685  0.198741 0.282560 1 74 1.000000
lowpoly_metal
0  -3.507359 -11.743013 -5.133737  1.000000 0.000007 0.000000  0.201972 0.279613 1 74 1.000000
0  -3.507359 -11.803301 -5.290354  1.000000 -0.000005 0.000000  0.202042 0.279792 1 74 1.000000
0  -3.507359 -11.742758 -5.290256  1.000000 -0.000011 0.000000  0.201972 0.279792 1 74 1.000000
lowpoly_plastic
0  -2.991151 -14.188068 -5.003354  0.000021 -0.999999 -0.001625  0.091176 0.407222 1 74 1.000000
0  -3.068751 -14.187450 -5.384838  -0.000020 -0.999999 -0.001613  0.090741 0.407422 1 74 1.000000
0  -2.991151 -14.187382 -5.428564  -0.000025 -0.999999 -0.001611  0.090691 0.407222 1 74 1.000000
lowpoly_metal
0  -3.368469 -11.803680 -5.055577  -0.000037 0.999999 0.001565  0.198412 0.282478 1 74 1.000000
0  -3.243663 -11.803541 -5.141771  -0.000037 0.999999 0.001565  0.198586 0.282190 1 74 1.000000
0  -3.368469 -11.803656 -5.071448  -0.000037 0.999999 0.001565  0.198430 0.282482 1 74 1.000000
lowpoly_metal
0  -3.229580 -11.803555 -5.133835  0.000037 0.999999 0.001625  0.198586 0.282153 1 74 1.000000
0  -3.243663 -11.803312 -5.282419  0.000098 0.999999 0.001622  0.198741 0.282229 1 74 1.000000
0  -3.243663 -11.803541 -5.141771  0.000031 0.999999 0.001625  0.198586 0.282190 1 74 1.000000
lowpoly_metal
0  -3.368469 -11.803173 -5.368613  0.000054 0.999999 0.001582  0.198759 0.282565 1 74 1.000000
0  -3.243663 -11.803312 -5.282419  0.000054 0.999999 0.001582  0.198741 0.282229 1 74 1.000000
0  -3.229580 -11.803301 -5.290354  0.000054 0.999999 0.001582  0.198759 0.282196 1 74 1.000000
lowpoly_metal
0  -3.368469 -11.803680 -5.055577  -0.000021 0.999999 0.001717  0.198412 0.282478 1 74 1.000000
0  -3.493276 -11.803541 -5.141771  -0.000021 0.999999 0.001717  0.198430 0.282814 1 74 1.000000
0  -3.507359 -11.803555 -5.133835  -0.000021 0.999999 0.001717  0.198412 0.282847 1 74 1.000000
lowpoly_plastic
0  -3.068751 -14.125896 -5.046977  0.000006 -0.999999 -0.001623  0.063387 0.554831 1 74 1.000000
0  -3.368469 -14.125076 -5.553618  0.000008 -0.999999 -0.001625  0.064136 0.554223 1 74 1.000000
0  -3.068751 -14.125347 -5.384737  0.000013 -0.999999 -0.001630  0.063762 0.554925 1 74 1.000000
lowpoly_plastic
0  -3.368469 -14.187035 -5.641168  0.000007 -0.999999 -0.001637  0.090448 0.408194 1 74 1.000000
0  -3.368469 -14.187176 -5.553718  0.000007 -0.999999 -0.001637  0.090548 0.408194 1 74 1.000000
0  -3.668187 -14.187450 -5.384838  0.000007 -0.999999 -0.001637  0.090741 0.408965 1 74 1.000000
lowpoly_plastic
0  -3.368469 -14.147228 -5.679449  0.375804 -0.642317 -0.667982  0.087769 0.406036 1 74 1.000000
0  -2.957124 -14.147602 -5.447671  0.375804 -0.642317 -0.667982  0.087758 0.407095 1 74 1.000000
0  -2.991151 -14.187382 -5.428564  0.375804 -0.642317 -0.667982  0.087712 0.407008 1 74 1.000000
lowpoly_plastic
0  -3.368469 -14.148731 -4.752338  -0.375782 -0.644495 0.665893  0.091465 0.408194 1 74 1.000000
0  -3.779814 -14.148354 -4.984116  -0.375782 -0.644495 0.665893  0.091200 0.409253 1 74 1.000000
0  -3.745787 -14.188068 -5.003354  -0.375782 -0.644495 0.665893  0.091176 0.409165 1 74 1.000000
lowpoly_plastic
0  -3.368469 -14.147228 -5.679449  -0.375770 -0.642344 -0.667976  0.087769 0.406036 1 74 1.000000
0  -3.368469 -14.187035 -5.641168  -0.375770 -0.642344 -0.667976  0.087722 0.406036 1 74 1.000000
0  -3.745787 -14.187382 -5.428564  -0.375770 -0.642344 -0.667976  0.087712 0.405065 1 74 1.000000
lowpoly_plastic
0  -3.368469 -14.148731 -4.752338  0.375798 -0.644492 0.665888  0.091465 0.408194 1 74 1.000000
0  -3.368469 -14.188416 -4.790747  0.375798 -0.644492 0.665888  0.091419 0.408194 1 74 1.000000
0  -2.991151 -14.188068 -5.003354  0.375798 -0.644492 0.665888  0.091176 0.407222 1 74 1.000000
lowpoly_plastic
0  -3.368469 -14.188416 -4.790747  -0.000030 -0.999999 -0.001674  0.091419 0.408194 1 74 1.000000
0  -3.368469 -14.188271 -4.878197  -0.000030 -0.999999 -0.001674  0.091319 0.408194 1 74 1.000000
0  -3.068751 -14.188000 -5.047077  -0.000030 -0.999999 -0.001674  0.091126 0.407422 1 74 1.000000
lowpoly_plastic
0  -3.368469 -14.187035 -5.641168  -0.000018 -0.999999 -0.001590  0.090448 0.408194 1 74 1.000000
0  -2.991151 -14.187382 -5.428564  -0.000018 -0.999999 -0.001590  0.090691 0.407222 1 74 1.000000
0  -3.068751 -14.187450 -5.384838  -0.000018 -0.999999 -0.001590  0.090741 0.407422 1 74 1.000000
lowpoly_plastic
0  -3.368469 -14.188416 -4.790747  -0.000018 -0.999999 -0.001604  0.091419 0.408194 1 74 1.000000
0  -3.745787 -14.188068 -5.003354  -0.000018 -0.999999 -0.001604  0.091176 0.409165 1 74 1.000000
0  -3.668187 -14.188000 -5.047077  -0.000018 -0.999999 -0.001604  0.091126 0.408965 1 74 1.000000
lowpoly_plastic
0  -3.745787 -14.187382 -5.428564  0.000021 -0.999999 -0.001619  0.090691 0.409165 1 74 1.000000
0  -3.668187 -14.188000 -5.047077  -0.000020 -0.999999 -0.001619  0.091126 0.408965 1 74 1.000000
0  -3.745787 -14.188068 -5.003354  -0.000025 -0.999999 -0.001619  0.091176 0.409165 1 74 1.000000
lowpoly_metal
0  -3.787421 -11.817791 -4.976054  0.000002 -0.999999 -0.001639  0.052471 0.583643 1 74 1.000000
0  -3.368469 -11.818174 -4.739989  0.000002 -0.999999 -0.001639  0.052740 0.582565 1 74 1.000000
0  -3.368469 -11.818235 -4.702492  0.000002 -0.999999 -0.001639  0.052783 0.582565 1 74 1.000000
lowpoly_metal
0  -3.787421 -11.817026 -5.448182  -0.000003 -0.999999 -0.001631  0.051932 0.583643 1 74 1.000000
0  -3.820695 -11.816996 -5.466930  -0.000003 -0.999999 -0.001631  0.051910 0.583729 1 74 1.000000
0  -3.368469 -11.816584 -5.721743  -0.000003 -0.999999 -0.001631  0.051620 0.582565 1 74 1.000000
lowpoly_metal
0  -2.949517 -11.817791 -4.976054  -0.000001 -0.999999 -0.001631  0.052471 0.581486 1 74 1.000000
0  -2.916244 -11.817822 -4.957305  -0.000001 -0.999999 -0.001631  0.052492 0.581400 1 74 1.000000
0  -3.368469 -11.818235 -4.702492  -0.000001 -0.999999 -0.001631  0.052783 0.582565 1 74 1.000000
lowpoly_metal
0  -2.949517 -11.817026 -5.448182  0.000007 -0.999999 -0.001578  0.051932 0.581486 1 74 1.000000
0  -3.368469 -11.816645 -5.684247  0.000007 -0.999999 -0.001578  0.051662 0.582565 1 74 1.000000
0  -3.368469 -11.816584 -5.721743  0.000007 -0.999999 -0.001578  0.051620 0.582565 1 74 1.000000
lowpoly_metal
0  -3.368469 -11.743711 -4.702372  -0.000004 0.999999 0.001615  0.050456 0.582565 1 74 1.000000
0  -2.916244 -11.743298 -4.957184  -0.000004 0.999999 0.001615  0.050747 0.581400 1 74 1.000000
0  -3.229580 -11.743013 -5.133737  -0.000004 0.999999 0.001615  0.050948 0.582207 1 74 1.000000
lowpoly_metal
0  -3.368469 -14.144355 -5.685263  0.000046 -0.999999 -0.001601  0.050729 0.584972 1 74 1.000000
0  -2.949517 -14.144736 -5.449199  0.000046 -0.999999 -0.001601  0.050206 0.585953 1 74 1.000000
0  -2.957124 -14.144744 -5.444912  0.000046 -0.999999 -0.001601  0.050206 0.585933 1 74 1.000000
lowpoly_metal
0  -3.368469 -14.145885 -4.741006  0.000046 -0.999999 -0.001552  0.049683 0.584710 1 74 1.000000
0  -3.787421 -14.145503 -4.977070  0.000046 -0.999999 -0.001552  0.050206 0.583729 1 74 1.000000
0  -3.779814 -14.145495 -4.981356  0.000046 -0.999999 -0.001552  0.050206 0.583749 1 74 1.000000
lowpoly_metal
0  -3.368469 -14.144355 -5.685263  -0.000094 -0.999998 -0.001893  0.050729 0.584972 1 74 1.000000
0  -3.368469 -14.144370 -5.676691  -0.000094 -0.999998 -0.001893  0.050720 0.584969 1 74 1.000000
0  -3.779814 -14.144744 -5.444912  -0.000094 -0.999998 -0.001893  0.050720 0.583878 1 74 1.000000
lowpoly_metal
0  -3.368469 -14.145885 -4.741006  0.000166 -0.999999 -0.001352  0.049683 0.584710 1 74 1.000000
0  -3.368469 -14.145873 -4.749579  0.000166 -0.999999 -0.001352  0.049693 0.584713 1 74 1.000000
0  -2.957124 -14.145495 -4.981356  0.000166 -0.999999 -0.001352  0.049693 0.585804 1 74 1.000000
lowpoly_metal
0  -3.368469 -11.742060 -5.721622  -0.000007 0.999999 0.001624  0.051620 0.582565 1 74 1.000000
0  -3.368469 -11.742632 -5.368515  -0.000007 0.999999 0.001624  0.051216 0.582565 1 74 1.000000
0  -3.229580 -11.742758 -5.290256  -0.000007 0.999999 0.001624  0.051127 0.582207 1 74 1.000000
lowpoly_metal
0  -3.368469 -11.743711 -4.702372  -0.000007 0.999999 0.001619  0.050456 0.582565 1 74 1.000000
0  -3.368469 -11.743139 -5.055479  -0.000007 0.999999 0.001619  0.050859 0.582565 1 74 1.000000
0  -3.507359 -11.743013 -5.133737  -0.000007 0.999999 0.001619  0.050948 0.582922 1 74 1.000000
lowpoly_metal
0  -3.368469 -11.742060 -5.721622  -0.000004 0.999999 0.001618  0.051620 0.582565 1 74 1.000000
0  -3.820695 -11.742474 -5.466809  -0.000004 0.999999 0.001618  0.051329 0.583729 1 74 1.000000
0  -3.507359 -11.742758 -5.290256  -0.000004 0.999999 0.001618  0.051127 0.582922 1 74 1.000000
lowpoly_metal
0  -3.368469 -11.803173 -5.368613  -0.000054 0.999999 0.001582  0.198759 0.282565 1 74 1.000000
0  -3.507359 -11.803301 -5.290354  -0.000054 0.999999 0.001582  0.198586 0.282890 1 74 1.000000
0  -3.493276 -11.803312 -5.282419  -0.000054 0.999999 0.001582  0.198586 0.282853 1 74 1.000000
lowpoly_metal
0  -3.368469 -11.803680 -5.055577  0.000021 0.999999 0.001609  0.198412 0.282478 1 74 1.000000
0  -3.229580 -11.803555 -5.133835  0.000021 0.999999 0.001609  0.198586 0.282153 1 74 1.000000
0  -3.243663 -11.803541 -5.141771  0.000021 0.999999 0.001609  0.198586 0.282190 1 74 1.000000
lowpoly_metal
0  -3.368469 -11.803173 -5.368613  -0.000046 0.999999 0.001685  0.198759 0.282565 1 74 1.000000
0  -3.368469 -11.803200 -5.352743  -0.000046 0.999999 0.001685  0.198741 0.282560 1 74 1.000000
0  -3.243663 -11.803312 -5.282419  -0.000046 0.999999 0.001685  0.198741 0.282229 1 74 1.000000
lowpoly_metal
0  -3.368469 -11.803680 -5.055577  0.000037 0.999999 0.001565  0.198412 0.282478 1 74 1.000000
0  -3.368469 -11.803656 -5.071448  0.000037 0.999999 0.001565  0.198430 0.282482 1 74 1.000000
0  -3.493276 -11.803541 -5.141771  0.000037 0.999999 0.001565  0.198430 0.282814 1 74 1.000000
lowpoly_metal
0  -3.787421 -14.145503 -4.977070  -0.490900 -0.000381 0.871216  0.048880 0.585958 1 74 1.000000
0  -3.368469 -11.818174 -4.739989  -0.490900 -0.000381 0.871216  0.048175 0.587037 1 74 1.000000
0  -3.787421 -11.817791 -4.976054  -0.490900 -0.000381 0.871216  0.048163 0.585958 1 74 1.000000
lowpoly_metal
0  -2.949517 -16.684540 -4.995163  -0.000087 -0.999999 -0.001623  0.049683 0.585822 1 71 1.000000
0  -2.957124 -16.683781 -5.463005  0.000087 -0.999999 -0.001627  0.050206 0.585933 1 71 1.000000
0  -2.949517 -16.683773 -5.467292  0.000088 -0.999999 -0.001627  0.050206 0.585953 1 71 1.000000
lowpoly_plastic
0  -2.957124 -16.678558 -5.462996  0.470592 0.285928 -0.834738  0.089708 0.407095 1 71 1.000000
0  -3.368469 -16.686264 -5.697541  0.470656 0.285713 -0.834776  0.087769 0.406036 1 71 1.000000
0  -3.368469 -16.678181 -5.694775  0.470657 0.285710 -0.834776  0.089720 0.406036 1 71 1.000000
lowpoly_plastic
0  -3.779814 -16.679310 -4.999440  -1.000000 -0.000126 -0.000000  0.091994 0.408881 1 71 1.000000
0  -3.779814 -16.686638 -5.465764  -1.000000 -0.000012 -0.000000  0.091465 0.406929 1 71 1.000000
0  -3.779814 -16.687389 -5.002209  -1.000000 -0.000127 -0.000000  0.091994 0.406929 1 71 1.000000
lowpoly_plastic
0  -3.368469 -16.679684 -4.767663  0.470672 -0.285845 0.834722  0.085631 0.408260 1 71 1.000000
0  -2.957124 -16.687389 -5.002209  0.470614 -0.286017 0.834695  0.087570 0.409319 1 71 1.000000
0  -2.957124 -16.679310 -4.999440  0.470614 -0.286019 0.834695  0.085620 0.409319 1 71 1.000000
lowpoly_metal
0  -3.243663 -14.290283 -5.300426  0.000007 0.999999 0.001620  0.203712 0.284742 1 71 1.000000
0  -3.368469 -14.290625 -5.089456  0.000009 0.999999 0.001623  0.203953 0.284421 1 71 1.000000
0  -3.243663 -14.290512 -5.159780  0.000015 0.999999 0.001630  0.203872 0.284742 1 71 1.000000
lowpoly_plastic
0  -3.368469 -16.727306 -4.896290  -0.490904 0.001406 -0.871212  0.056830 0.550273 1 71 1.000000
0  -3.068751 -16.664932 -5.065069  -0.490892 0.001404 -0.871219  0.056910 0.551045 1 71 1.000000
0  -3.068751 -16.727036 -5.065169  -0.490890 0.001403 -0.871220  0.056839 0.551045 1 71 1.000000
lowpoly_metal
0  -3.229580 -14.282049 -5.151830  -1.000000 -0.000008 0.000000  0.201972 0.279613 1 71 1.000000
0  -3.229580 -14.342337 -5.308447  -1.000000 0.000003 0.000000  0.201903 0.279792 1 71 1.000000
0  -3.229580 -14.342590 -5.151928  -1.000000 -0.000013 0.000000  0.201903 0.279613 1 71 1.000000
lowpoly_metal
0  -3.368469 -14.342236 -5.370835  0.490906 0.001422 -0.871211  0.198025 0.283213 1 71 1.000000
0  -3.243663 -14.290283 -5.300426  0.490901 0.001420 -0.871214  0.198081 0.283534 1 71 1.000000
0  -3.243663 -14.342348 -5.300511  0.490900 0.001419 -0.871215  0.198022 0.283534 1 71 1.000000
lowpoly_metal
0  -3.820695 -14.356031 -5.485023  -0.490898 0.001417 -0.871216  0.049390 0.583729 1 71 1.000000
0  -3.368469 -14.281096 -5.739715  -0.490897 0.001416 -0.871216  0.049488 0.584893 1 71 1.000000
0  -3.368469 -14.355619 -5.739836  -0.490897 0.001415 -0.871216  0.049403 0.584893 1 71 1.000000
lowpoly_metal
0  -3.787421 -16.683773 -5.467292  -1.000000 0.000000 0.000000  0.049099 0.587512 1 71 1.000000
0  -3.787421 -14.356827 -4.994146  -1.000000 0.000000 0.000000  0.049639 0.588230 1 71 1.000000
0  -3.787421 -14.356062 -5.466274  -1.000000 0.000000 0.000000  0.049099 0.588230 1 71 1.000000
lowpoly_metal
0  -3.368469 -16.683392 -5.703356  -0.490898 0.000381 -0.871217  0.053795 0.584808 1 71 1.000000
0  -3.787421 -14.356062 -5.466274  -0.490899 0.000380 -0.871216  0.054500 0.583729 1 71 1.000000
0  -3.368469 -14.355680 -5.702339  -0.490899 0.000380 -0.871216  0.054511 0.584808 1 71 1.000000
lowpoly_plastic
0  -2.957124 -16.679310 -4.999440  1.000000 0.000001 0.000000  0.090682 0.404600 1 71 1.000000
0  -2.957124 -16.686638 -5.465764  1.000000 0.000099 0.000000  0.091211 0.402648 1 71 1.000000
0  -2.957124 -16.678558 -5.462996  1.000000 0.000101 0.000000  0.091211 0.404600 1 71 1.000000
lowpoly_metal
0  -3.507359 -14.281794 -5.308349  0.490898 -0.001414 0.871216  0.198081 0.282891 1 71 1.000000
0  -3.368469 -14.342209 -5.386705  0.490895 -0.001412 0.871217  0.198016 0.282534 1 71 1.000000
0  -3.368469 -14.281668 -5.386607  0.490894 -0.001411 0.871218  0.198085 0.282534 1 71 1.000000
lowpoly_metal
0  -3.368469 -14.290169 -5.370750  -0.000006 0.999999 0.001626  0.203632 0.284421 1 71 1.000000
0  -3.493276 -14.290512 -5.159780  -0.000009 0.999999 0.001625  0.203872 0.284100 1 71 1.000000
0  -3.368469 -14.290625 -5.089456  -0.000011 0.999999 0.001623  0.203953 0.284421 1 71 1.000000
lowpoly_metal
0  -2.916244 -14.356857 -4.975398  1.000000 -0.000000 0.000000  0.053688 0.587966 1 71 1.000000
0  -2.916244 -14.281509 -5.484901  1.000000 -0.000001 0.000000  0.053602 0.588548 1 71 1.000000
0  -2.916244 -14.282333 -4.975277  1.000000 0.000000 0.000000  0.053602 0.587966 1 71 1.000000
lowpoly_plastic
0  -3.368469 -16.726212 -5.571811  -0.490892 -0.001406 0.871219  0.056980 0.550273 1 71 1.000000
0  -3.068751 -16.664383 -5.402830  -0.490911 -0.001404 0.871209  0.056918 0.551045 1 71 1.000000
0  -3.368469 -16.664112 -5.571711  -0.490889 -0.001406 0.871221  0.056910 0.550273 1 71 1.000000
lowpoly_metal
0  -3.368469 -14.281668 -5.386607  -0.490896 -0.001410 0.871217  0.198085 0.282534 1 71 1.000000
0  -3.229580 -14.342337 -5.308447  -0.490897 -0.001414 0.871216  0.198012 0.282176 1 71 1.000000
0  -3.229580 -14.281794 -5.308349  -0.490897 -0.001416 0.871216  0.198081 0.282176 1 71 1.000000
lowpoly_plastic
0  -3.368469 -16.665207 -4.896190  -0.000005 -0.999999 -0.001625  0.063387 0.554036 1 71 1.000000
0  -3.668187 -16.664383 -5.402830  -0.000007 -0.999999 -0.001623  0.064136 0.553427 1 71 1.000000
0  -3.368469 -16.664112 -5.571711  -0.000010 -0.999999 -0.001620  0.064136 0.554223 1 71 1.000000
lowpoly_metal
0  -2.949517 -14.356062 -5.466274  0.490899 0.000381 -0.871216  0.054500 0.585887 1 71 1.000000
0  -3.368469 -16.683392 -5.703356  0.490898 0.000381 -0.871217  0.053795 0.584808 1 71 1.000000
0  -3.368469 -14.355680 -5.702339  0.490899 0.000381 -0.871216  0.054511 0.584808 1 71 1.000000
lowpoly_metal
0  -3.368469 -14.282175 -5.073571  -0.490896 0.001413 -0.871217  0.200834 0.282405 1 71 1.000000
0  -3.229580 -14.342590 -5.151928  -0.490894 0.001411 -0.871218  0.200769 0.282763 1 71 1.000000
0  -3.368469 -14.342716 -5.073669  -0.490896 0.001414 -0.871217  0.200765 0.282405 1 71 1.000000
lowpoly_metal
0  -3.787421 -16.684540 -4.995163  0.000087 -0.999999 -0.001623  0.050206 0.583729 1 71 1.000000
0  -3.779814 -16.683781 -5.463005  -0.000087 -0.999999 -0.001626  0.050720 0.583878 1 71 1.000000
0  -3.779814 -16.684532 -4.999449  0.000090 -0.999999 -0.001623  0.050206 0.583749 1 71 1.000000
lowpoly_plastic
0  -2.957124 -16.686638 -5.465764  0.759663 -0.650316 -0.001050  0.090671 0.407135 1 71 1.000000
0  -2.991151 -16.727104 -5.021446  0.759645 -0.650337 -0.001052  0.091176 0.407222 1 71 1.000000
0  -2.991151 -16.726418 -5.446656  0.759665 -0.650314 -0.001050  0.090691 0.407222 1 71 1.000000
lowpoly_plastic
0  -3.779814 -16.679310 -4.999440  -0.470576 -0.286065 0.834701  0.085620 0.407201 1 71 1.000000
0  -3.368469 -16.687767 -4.770431  -0.470606 -0.285815 0.834769  0.087581 0.408260 1 71 1.000000
0  -3.368469 -16.679684 -4.767663  -0.470607 -0.285813 0.834770  0.085631 0.408260 1 71 1.000000
lowpoly_plastic
0  -3.368469 -16.726212 -5.571811  0.490892 -0.001406 0.871219  0.056980 0.550273 1 71 1.000000
0  -3.668187 -16.664383 -5.402830  0.490911 -0.001404 0.871209  0.056918 0.549501 1 71 1.000000
0  -3.668187 -16.726486 -5.402930  0.490913 -0.001404 0.871207  0.056989 0.549501 1 71 1.000000
lowpoly_plastic
0  -3.368469 -16.726070 -5.659261  0.000018 -0.999999 -0.001619  0.090448 0.408194 1 71 1.000000
0  -3.668187 -16.726486 -5.402930  0.000018 -0.999999 -0.001619  0.090741 0.408965 1 71 1.000000
0  -3.745787 -16.726418 -5.446656  0.000018 -0.999999 -0.001619  0.090691 0.409165 1 71 1.000000
lowpoly_plastic
0  -3.368469 -16.686264 -5.697541  0.375782 -0.642358 -0.667954  0.087769 0.406036 1 71 1.000000
0  -2.991151 -16.726418 -5.446656  0.375782 -0.642358 -0.667954  0.087712 0.407008 1 71 1.000000
0  -3.368469 -16.726070 -5.659261  0.375782 -0.642358 -0.667954  0.087722 0.406036 1 71 1.000000
lowpoly_plastic
0  -3.368469 -16.687767 -4.770431  -0.375787 -0.644476 0.665909  0.091465 0.408194 1 71 1.000000
0  -3.745787 -16.727104 -5.021446  -0.375787 -0.644476 0.665909  0.091176 0.409165 1 71 1.000000
0  -3.368469 -16.727451 -4.808840  -0.375787 -0.644476 0.665909  0.091419 0.408194 1 71 1.000000
lowpoly_plastic
0  -3.368469 -16.686264 -5.697541  -0.375802 -0.642319 -0.667981  0.087769 0.406036 1 71 1.000000
0  -3.745787 -16.726418 -5.446656  -0.375802 -0.642319 -0.667981  0.087712 0.405065 1 71 1.000000
0  -3.779814 -16.686638 -5.465764  -0.375802 -0.642319 -0.667981  0.087758 0.404977 1 71 1.000000
lowpoly_plastic
0  -3.368469 -16.687767 -4.770431  0.375785 -0.644511 0.665876  0.091465 0.408194 1 71 1.000000
0  -2.991151 -16.727104 -5.021446  0.375785 -0.644511 0.665876  0.091176 0.407222 1 71 1.000000
0  -2.957124 -16.687389 -5.002209  0.375785 -0.644511 0.665876  0.091200 0.407135 1 71 1.000000
lowpoly_metal
0  -3.368469 -16.684921 -4.759099  0.490899 -0.000381 0.871216  0.048892 0.587037 1 71 1.000000
0  -2.949517 -14.356827 -4.994146  0.490900 -0.000381 0.871216  0.048163 0.588116 1 71 1.000000
0  -3.368469 -14.357210 -4.758081  0.490900 -0.000381 0.871216  0.048175 0.587037 1 71 1.000000
lowpoly_metal
0  -3.820695 -14.282335 -4.975277  -0.000002 0.999999 0.001623  0.050747 0.583729 1 71 1.000000
0  -3.507359 -14.281794 -5.308349  -0.000001 0.999999 0.001624  0.051127 0.582922 1 71 1.000000
0  -3.820695 -14.281509 -5.484901  -0.000006 0.999999 0.001618  0.051329 0.583729 1 71 1.000000
lowpoly_plastic
0  -3.368469 -16.727451 -4.808840  0.000018 -0.999999 -0.001633  0.091419 0.408194 1 71 1.000000
0  -3.068751 -16.727036 -5.065169  0.000018 -0.999999 -0.001633  0.091126 0.407422 1 71 1.000000
0  -2.991151 -16.727104 -5.021446  0.000018 -0.999999 -0.001633  0.091176 0.407222 1 71 1.000000
lowpoly_plastic
0  -3.368469 -16.726070 -5.659261  -0.000007 -0.999999 -0.001601  0.090448 0.408194 1 71 1.000000
0  -3.068751 -16.726486 -5.402930  -0.000007 -0.999999 -0.001601  0.090741 0.407422 1 71 1.000000
0  -3.368469 -16.726212 -5.571811  -0.000007 -0.999999 -0.001601  0.090548 0.408194 1 71 1.000000
lowpoly_plastic
0  -3.368469 -16.727451 -4.808840  0.000030 -0.999999 -0.001637  0.091419 0.408194 1 71 1.000000
0  -3.668187 -16.727036 -5.065169  0.000030 -0.999999 -0.001637  0.091126 0.408965 1 71 1.000000
0  -3.368469 -16.727306 -4.896290  0.000030 -0.999999 -0.001637  0.091319 0.408194 1 71 1.000000
lowpoly_metal
0  -2.916244 -14.281509 -5.484901  0.000001 0.999999 0.001623  0.051329 0.581400 1 71 1.000000
0  -3.229580 -14.282049 -5.151830  0.000002 0.999999 0.001624  0.050948 0.582207 1 71 1.000000
0  -2.916244 -14.282333 -4.975277  -0.000004 0.999999 0.001618  0.050747 0.581400 1 71 1.000000
lowpoly_metal
0  -3.368469 -14.282175 -5.073571  0.490896 0.001415 -0.871217  0.200834 0.282405 1 71 1.000000
0  -3.507359 -14.342590 -5.151928  0.490894 0.001415 -0.871218  0.200769 0.282048 1 71 1.000000
0  -3.507359 -14.282049 -5.151830  0.490894 0.001416 -0.871218  0.200838 0.282048 1 71 1.000000
lowpoly_metal
0  -3.368469 -14.357271 -4.720585  0.490896 -0.001406 0.871217  0.049585 0.584893 1 71 1.000000
0  -2.916244 -14.282333 -4.975277  0.490897 -0.001417 0.871216  0.049488 0.586058 1 71 1.000000
0  -3.368469 -14.282747 -4.720465  0.490896 -0.001405 0.871217  0.049500 0.584893 1 71 1.000000
lowpoly_metal
0  -3.243663 -14.342348 -5.300511  1.000000 -0.000000 0.000000  0.202299 0.279774 1 71 1.000000
0  -3.243663 -14.290512 -5.159780  1.000000 -0.000001 0.000000  0.202240 0.279613 1 71 1.000000
0  -3.243663 -14.342577 -5.159863  1.000000 -0.000001 0.000000  0.202299 0.279613 1 71 1.000000
lowpoly_metal
0  -3.368469 -14.357271 -4.720585  -0.490896 -0.001403 0.871217  0.049585 0.584893 1 71 1.000000
0  -3.820695 -14.282335 -4.975277  -0.490897 -0.001415 0.871216  0.049488 0.583729 1 71 1.000000
0  -3.820695 -14.356857 -4.975398  -0.490897 -0.001417 0.871216  0.049573 0.583729 1 71 1.000000
lowpoly_plastic
0  -3.068751 -16.726486 -5.402930  -1.000000 -0.000000 0.000000  0.056753 0.553526 1 71 1.000000
0  -3.068751 -16.664932 -5.065069  -1.000000 -0.000003 0.000000  0.056824 0.553140 1 71 1.000000
0  -3.068751 -16.664383 -5.402830  -1.000000 0.000000 0.000000  0.056824 0.553526 1 71 1.000000
lowpoly_metal
0  -3.368469 -14.342691 -5.089540  0.490893 -0.001418 0.871219  0.198148 0.283160 1 71 1.000000
0  -3.243663 -14.290512 -5.159780  0.490889 -0.001406 0.871221  0.198211 0.282839 1 71 1.000000
0  -3.368469 -14.290625 -5.089456  0.490895 -0.001422 0.871218  0.198207 0.283160 1 71 1.000000
lowpoly_metal
0  -3.368469 -14.342691 -5.089540  -0.490904 -0.001415 0.871213  0.198148 0.283160 1 71 1.000000
0  -3.493276 -14.290512 -5.159780  -0.490892 -0.001406 0.871219  0.198211 0.283481 1 71 1.000000
0  -3.493276 -14.342577 -5.159863  -0.490887 -0.001403 0.871222  0.198151 0.283481 1 71 1.000000
lowpoly_metal
0  -3.493276 -14.342577 -5.159863  -1.000000 -0.000006 0.000000  0.202180 0.279613 1 71 1.000000
0  -3.493276 -14.290283 -5.300426  -1.000000 -0.000001 0.000000  0.202240 0.279774 1 71 1.000000
0  -3.493276 -14.342348 -5.300511  -1.000000 0.000001 0.000000  0.202180 0.279774 1 71 1.000000
lowpoly_plastic
0  -3.779814 -16.686638 -5.465764  -0.759668 -0.650310 -0.001050  0.090671 0.409253 1 71 1.000000
0  -3.745787 -16.727104 -5.021446  -0.759650 -0.650331 -0.001052  0.091176 0.409165 1 71 1.000000
0  -3.779814 -16.687389 -5.002209  -0.759649 -0.650332 -0.001052  0.091200 0.409253 1 71 1.000000
lowpoly_plastic
0  -3.368469 -16.678181 -5.694775  -0.470592 0.285679 -0.834824  0.089720 0.406036 1 71 1.000000
0  -3.779814 -16.686638 -5.465764  -0.470631 0.285900 -0.834726  0.087758 0.404977 1 71 1.000000
0  -3.779814 -16.678558 -5.462996  -0.470631 0.285902 -0.834725  0.089708 0.404977 1 71 1.000000
lowpoly_plastic
0  -3.668187 -16.727036 -5.065169  0.490907 0.001406 -0.871211  0.056839 0.549501 1 71 1.000000
0  -3.368469 -16.665207 -4.896190  0.490889 0.001406 -0.871221  0.056901 0.550273 1 71 1.000000
0  -3.368469 -16.727306 -4.896290  0.490886 0.001406 -0.871223  0.056830 0.550273 1 71 1.000000
lowpoly_metal
0  -3.787421 -14.356827 -4.994146  0.000001 -0.999999 -0.001687  0.052471 0.583643 1 71 1.000000
0  -3.368469 -14.357271 -4.720585  0.000001 -0.999999 -0.001687  0.052783 0.582565 1 71 1.000000
0  -3.820695 -14.356857 -4.975398  0.000001 -0.999999 -0.001687  0.052492 0.583729 1 71 1.000000
lowpoly_metal
0  -2.949517 -16.684540 -4.995163  1.000000 0.000000 0.000000  0.053063 0.587966 1 71 1.000000
0  -2.949517 -14.356062 -5.466274  1.000000 0.000000 0.000000  0.053602 0.588683 1 71 1.000000
0  -2.949517 -14.356827 -4.994146  1.000000 0.000000 0.000000  0.053063 0.588683 1 71 1.000000
lowpoly_metal
0  -3.507359 -14.342337 -5.308447  -0.000098 0.999999 0.001625  0.198586 0.282890 1 71 1.000000
0  -3.493276 -14.342577 -5.159863  -0.000038 0.999999 0.001623  0.198430 0.282814 1 71 1.000000
0  -3.493276 -14.342348 -5.300511  -0.000104 0.999999 0.001625  0.198586 0.282853 1 71 1.000000
lowpoly_metal
0  -3.787421 -14.356062 -5.466274  -0.000007 -0.999999 -0.001639  0.051932 0.583643 1 71 1.000000
0  -3.368469 -14.355619 -5.739836  -0.000007 -0.999999 -0.001639  0.051620 0.582565 1 71 1.000000
0  -3.368469 -14.355680 -5.702339  -0.000007 -0.999999 -0.001639  0.051662 0.582565 1 71 1.000000
lowpoly_metal
0  -2.949517 -14.356827 -4.994146  -0.000002 -0.999999 -0.001639  0.052471 0.581486 1 71 1.000000
0  -3.368469 -14.357271 -4.720585  -0.000002 -0.999999 -0.001639  0.052783 0.582565 1 71 1.000000
0  -3.368469 -14.357210 -4.758081  -0.000002 -0.999999 -0.001639  0.052740 0.582565 1 71 1.000000
lowpoly_metal
0  -2.949517 -14.356827 -4.994146  -0.000004 -0.999999 -0.001620  0.052471 0.581486 1 71 1.000000
0  -2.916244 -14.356031 -5.485023  0.000004 -0.999999 -0.001620  0.051910 0.581400 1 71 1.000000
0  -2.916244 -14.356857 -4.975398  -0.000004 -0.999999 -0.001620  0.052492 0.581400 1 71 1.000000
lowpoly_metal
0  -2.949517 -14.356062 -5.466274  0.000003 -0.999999 -0.001631  0.051932 0.581486 1 71 1.000000
0  -3.368469 -14.355619 -5.739836  0.000003 -0.999999 -0.001631  0.051620 0.582565 1 71 1.000000
0  -2.916244 -14.356031 -5.485023  0.000003 -0.999999 -0.001631  0.051910 0.581400 1 71 1.000000
lowpoly_metal
0  -3.368469 -14.282747 -4.720465  0.000007 0.999999 0.001619  0.050456 0.582565 1 71 1.000000
0  -3.229580 -14.282049 -5.151830  0.000007 0.999999 0.001619  0.050948 0.582207 1 71 1.000000
0  -3.368469 -14.282175 -5.073571  0.000007 0.999999 0.001619  0.050859 0.582565 1 71 1.000000
lowpoly_plastic
0  -3.668187 -16.726486 -5.402930  1.000000 -0.000000 0.000000  0.056824 0.553912 1 71 1.000000
0  -3.668187 -16.664932 -5.065069  1.000000 -0.000003 0.000000  0.056753 0.553526 1 71 1.000000
0  -3.668187 -16.727036 -5.065169  1.000000 -0.000003 0.000000  0.056824 0.553526 1 71 1.000000
lowpoly_metal
0  -3.368469 -14.355619 -5.739836  0.490898 0.001417 -0.871216  0.049403 0.584893 1 71 1.000000
0  -2.916244 -14.281509 -5.484901  0.490897 0.001415 -0.871216  0.049475 0.586058 1 71 1.000000
0  -2.916244 -14.356031 -5.485023  0.490897 0.001415 -0.871216  0.049390 0.586058 1 71 1.000000
lowpoly_metal
0  -3.820695 -14.356857 -4.975398  -1.000000 0.000000 0.000000  0.051655 0.587893 1 71 1.000000
0  -3.820695 -14.281509 -5.484901  -1.000000 0.000001 0.000000  0.051740 0.588476 1 71 1.000000
0  -3.820695 -14.356031 -5.485023  -1.000000 0.000001 0.000000  0.051655 0.588476 1 71 1.000000
lowpoly_metal
0  -3.368469 -16.683392 -5.703356  0.000094 -0.999998 -0.001893  0.050729 0.584972 1 71 1.000000
0  -2.957124 -16.683781 -5.463005  0.000094 -0.999998 -0.001893  0.050206 0.585933 1 71 1.000000
0  -3.368469 -16.683407 -5.694783  0.000094 -0.999998 -0.001893  0.050720 0.584969 1 71 1.000000
lowpoly_metal
0  -3.368469 -16.684921 -4.759099  -0.000166 -0.999999 -0.001352  0.049683 0.584710 1 71 1.000000
0  -3.779814 -16.684532 -4.999449  -0.000166 -0.999999 -0.001352  0.050206 0.583749 1 71 1.000000
0  -3.368469 -16.684910 -4.767672  -0.000166 -0.999999 -0.001352  0.049693 0.584713 1 71 1.000000
lowpoly_metal
0  -3.787421 -14.356827 -4.994146  0.000004 -0.999999 -0.001620  0.052471 0.583643 1 71 1.000000
0  -3.820695 -14.356031 -5.485023  -0.000004 -0.999999 -0.001620  0.051910 0.583729 1 71 1.000000
0  -3.787421 -14.356062 -5.466274  -0.000004 -0.999999 -0.001620  0.051932 0.583643 1 71 1.000000
lowpoly_metal
0  -3.368469 -16.683392 -5.703356  -0.000046 -0.999999 -0.001668  0.050729 0.584972 1 71 1.000000
0  -3.779814 -16.683781 -5.463005  -0.000046 -0.999999 -0.001668  0.050720 0.583878 1 71 1.000000
0  -3.787421 -16.683773 -5.467292  -0.000046 -0.999999 -0.001668  0.050729 0.583860 1 71 1.000000
lowpoly_metal
0  -3.368469 -16.684921 -4.759099  -0.000046 -0.999998 -0.001842  0.049683 0.584710 1 71 1.000000
0  -2.957124 -16.684532 -4.999449  -0.000046 -0.999998 -0.001842  0.049693 0.585804 1 71 1.000000
0  -2.949517 -16.684540 -4.995163  -0.000046 -0.999998 -0.001842  0.049683 0.585822 1 71 1.000000
lowpoly_metal
0  -3.493276 -14.342348 -5.300511  -0.490899 0.001422 -0.871215  0.198022 0.282891 1 71 1.000000
0  -3.368469 -14.290169 -5.370750  -0.490908 0.001420 -0.871210  0.198085 0.283213 1 71 1.000000
0  -3.368469 -14.342236 -5.370835  -0.490912 0.001419 -0.871208  0.198025 0.283213 1 71 1.000000
lowpoly_metal
0  -3.368469 -14.281096 -5.739715  0.000004 0.999999 0.001618  0.051620 0.582565 1 71 1.000000
0  -3.229580 -14.281794 -5.308349  0.000004 0.999999 0.001618  0.051127 0.582207 1 71 1.000000
0  -2.916244 -14.281509 -5.484901  0.000004 0.999999 0.001618  0.051329 0.581400 1 71 1.000000
lowpoly_metal
0  -3.368469 -14.282747 -4.720465  -0.000001 0.999999 0.001618  0.050456 0.582565 1 71 1.000000
0  -3.507359 -14.282049 -5.151830  -0.000001 0.999999 0.001618  0.050948 0.582922 1 71 1.000000
0  -3.820695 -14.282335 -4.975277  -0.000001 0.999999 0.001618  0.050747 0.583729 1 71 1.000000
lowpoly_metal
0  -3.368469 -14.281096 -5.739715  0.000007 0.999999 0.001624  0.051620 0.582565 1 71 1.000000
0  -3.507359 -14.281794 -5.308349  0.000007 0.999999 0.001624  0.051127 0.582922 1 71 1.000000
0  -3.368469 -14.281668 -5.386607  0.000007 0.999999 0.001624  0.051216 0.582565 1 71 1.000000
lowpoly_metal
0  -3.368469 -14.342209 -5.386705  0.000046 0.999999 0.001685  0.198759 0.282565 1 71 1.000000
0  -3.493276 -14.342348 -5.300511  0.000046 0.999999 0.001685  0.198586 0.282853 1 71 1.000000
0  -3.368469 -14.342236 -5.370835  0.000046 0.999999 0.001685  0.198741 0.282560 1 71 1.000000
lowpoly_metal
0  -3.507359 -14.282049 -5.151830  1.000000 0.000007 0.000000  0.201972 0.279613 1 71 1.000000
0  -3.507359 -14.342337 -5.308447  1.000000 -0.000005 0.000000  0.202042 0.279792 1 71 1.000000
0  -3.507359 -14.281794 -5.308349  1.000000 -0.000011 0.000000  0.201972 0.279792 1 71 1.000000
lowpoly_plastic
0  -2.991151 -16.727104 -5.021446  0.000021 -0.999999 -0.001619  0.091176 0.407222 1 71 1.000000
0  -3.068751 -16.726486 -5.402930  -0.000020 -0.999999 -0.001619  0.090741 0.407422 1 71 1.000000
0  -2.991151 -16.726418 -5.446656  -0.000025 -0.999999 -0.001619  0.090691 0.407222 1 71 1.000000
lowpoly_metal
0  -3.368469 -14.342716 -5.073669  -0.000037 0.999999 0.001565  0.198412 0.282478 1 71 1.000000
0  -3.243663 -14.342577 -5.159863  -0.000037 0.999999 0.001565  0.198586 0.282190 1 71 1.000000
0  -3.368469 -14.342691 -5.089540  -0.000037 0.999999 0.001565  0.198430 0.282482 1 71 1.000000
lowpoly_metal
0  -3.229580 -14.342590 -5.151928  0.000037 0.999999 0.001625  0.198586 0.282153 1 71 1.000000
0  -3.243663 -14.342348 -5.300511  0.000097 0.999999 0.001622  0.198741 0.282229 1 71 1.000000
0  -3.243663 -14.342577 -5.159863  0.000031 0.999999 0.001625  0.198586 0.282190 1 71 1.000000
lowpoly_metal
0  -3.368469 -14.342209 -5.386705  0.000054 0.999999 0.001555  0.198759 0.282565 1 71 1.000000
0  -3.243663 -14.342348 -5.300511  0.000054 0.999999 0.001555  0.198741 0.282229 1 71 1.000000
0  -3.229580 -14.342337 -5.308447  0.000054 0.999999 0.001555  0.198759 0.282196 1 71 1.000000
lowpoly_metal
0  -3.368469 -14.342716 -5.073669  -0.000021 0.999999 0.001636  0.198412 0.282478 1 71 1.000000
0  -3.493276 -14.342577 -5.159863  -0.000021 0.999999 0.001636  0.198430 0.282814 1 71 1.000000
0  -3.507359 -14.342590 -5.151928  -0.000021 0.999999 0.001636  0.198412 0.282847 1 71 1.000000
lowpoly_plastic
0  -3.068751 -16.664932 -5.065069  0.000006 -0.999999 -0.001623  0.063387 0.554831 1 71 1.000000
0  -3.368469 -16.664112 -5.571711  0.000008 -0.999999 -0.001625  0.064136 0.554223 1 71 1.000000
0  -3.068751 -16.664383 -5.402830  0.000013 -0.999999 -0.001630  0.063762 0.554925 1 71 1.000000
lowpoly_plastic
0  -3.368469 -16.726070 -5.659261  0.000007 -0.999999 -0.001601  0.090448 0.408194 1 71 1.000000
0  -3.368469 -16.726212 -5.571811  0.000007 -0.999999 -0.001601  0.090548 0.408194 1 71 1.000000
0  -3.668187 -16.726486 -5.402930  0.000007 -0.999999 -0.001601  0.090741 0.408965 1 71 1.000000
lowpoly_plastic
0  -3.368469 -16.686264 -5.697541  0.375800 -0.642311 -0.667991  0.087769 0.406036 1 71 1.000000
0  -2.957124 -16.686638 -5.465764  0.375800 -0.642311 -0.667991  0.087758 0.407095 1 71 1.000000
0  -2.991151 -16.726418 -5.446656  0.375800 -0.642311 -0.667991  0.087712 0.407008 1 71 1.000000
lowpoly_plastic
0  -3.368469 -16.687767 -4.770431  -0.375791 -0.644512 0.665872  0.091465 0.408194 1 71 1.000000
0  -3.779814 -16.687389 -5.002209  -0.375791 -0.644512 0.665872  0.091200 0.409253 1 71 1.000000
0  -3.745787 -16.727104 -5.021446  -0.375791 -0.644512 0.665872  0.091176 0.409165 1 71 1.000000
lowpoly_plastic
0  -3.368469 -16.686264 -5.697541  -0.375781 -0.642362 -0.667952  0.087769 0.406036 1 71 1.000000
0  -3.368469 -16.726070 -5.659261  -0.375781 -0.642362 -0.667952  0.087722 0.406036 1 71 1.000000
0  -3.745787 -16.726418 -5.446656  -0.375781 -0.642362 -0.667952  0.087712 0.405065 1 71 1.000000
lowpoly_plastic
0  -3.368469 -16.687767 -4.770431  0.375799 -0.644491 0.665888  0.091465 0.408194 1 71 1.000000
0  -3.368469 -16.727451 -4.808840  0.375799 -0.644491 0.665888  0.091419 0.408194 1 71 1.000000
0  -2.991151 -16.727104 -5.021446  0.375799 -0.644491 0.665888  0.091176 0.407222 1 71 1.000000
lowpoly_plastic
0  -3.368469 -16.727451 -4.808840  -0.000030 -0.999999 -0.001637  0.091419 0.408194 1 71 1.000000
0  -3.368469 -16.727306 -4.896290  -0.000030 -0.999999 -0.001637  0.091319 0.408194 1 71 1.000000
0  -3.068751 -16.727036 -5.065169  -0.000030 -0.999999 -0.001637  0.091126 0.407422 1 71 1.000000
lowpoly_plastic
0  -3.368469 -16.726070 -5.659261  -0.000018 -0.999999 -0.001619  0.090448 0.408194 1 71 1.000000
0  -2.991151 -16.726418 -5.446656  -0.000018 -0.999999 -0.001619  0.090691 0.407222 1 71 1.000000
0  -3.068751 -16.726486 -5.402930  -0.000018 -0.999999 -0.001619  0.090741 0.407422 1 71 1.000000
lowpoly_plastic
0  -3.368469 -16.727451 -4.808840  -0.000018 -0.999999 -0.001633  0.091419 0.408194 1 71 1.000000
0  -3.745787 -16.727104 -5.021446  -0.000018 -0.999999 -0.001633  0.091176 0.409165 1 71 1.000000
0  -3.668187 -16.727036 -5.065169  -0.000018 -0.999999 -0.001633  0.091126 0.408965 1 71 1.000000
lowpoly_plastic
0  -3.745787 -16.726418 -5.446656  0.000021 -0.999999 -0.001625  0.090691 0.409165 1 71 1.000000
0  -3.668187 -16.727036 -5.065169  -0.000020 -0.999999 -0.001613  0.091126 0.408965 1 71 1.000000
0  -3.745787 -16.727104 -5.021446  -0.000025 -0.999999 -0.001611  0.091176 0.409165 1 71 1.000000
lowpoly_metal
0  -3.787421 -14.356827 -4.994146  0.000002 -0.999999 -0.001578  0.052471 0.583643 1 71 1.000000
0  -3.368469 -14.357210 -4.758081  0.000002 -0.999999 -0.001578  0.052740 0.582565 1 71 1.000000
0  -3.368469 -14.357271 -4.720585  0.000002 -0.999999 -0.001578  0.052783 0.582565 1 71 1.000000
lowpoly_metal
0  -3.787421 -14.356062 -5.466274  -0.000003 -0.999999 -0.001631  0.051932 0.583643 1 71 1.000000
0  -3.820695 -14.356031 -5.485023  -0.000003 -0.999999 -0.001631  0.051910 0.583729 1 71 1.000000
0  -3.368469 -14.355619 -5.739836  -0.000003 -0.999999 -0.001631  0.051620 0.582565 1 71 1.000000
lowpoly_metal
0  -2.949517 -14.356827 -4.994146  -0.000001 -0.999999 -0.001631  0.052471 0.581486 1 71 1.000000
0  -2.916244 -14.356857 -4.975398  -0.000001 -0.999999 -0.001631  0.052492 0.581400 1 71 1.000000
0  -3.368469 -14.357271 -4.720585  -0.000001 -0.999999 -0.001631  0.052783 0.582565 1 71 1.000000
lowpoly_metal
0  -2.949517 -14.356062 -5.466274  0.000007 -0.999999 -0.001639  0.051932 0.581486 1 71 1.000000
0  -3.368469 -14.355680 -5.702339  0.000007 -0.999999 -0.001639  0.051662 0.582565 1 71 1.000000
0  -3.368469 -14.355619 -5.739836  0.000007 -0.999999 -0.001639  0.051620 0.582565 1 71 1.000000
lowpoly_metal
0  -3.368469 -14.282747 -4.720465  -0.000004 0.999999 0.001613  0.050456 0.582565 1 71 1.000000
0  -2.916244 -14.282333 -4.975277  -0.000004 0.999999 0.001613  0.050747 0.581400 1 71 1.000000
0  -3.229580 -14.282049 -5.151830  -0.000004 0.999999 0.001613  0.050948 0.582207 1 71 1.000000
lowpoly_metal
0  -3.368469 -16.683392 -5.703356  0.000046 -0.999999 -0.001668  0.050729 0.584972 1 71 1.000000
0  -2.949517 -16.683773 -5.467292  0.000046 -0.999999 -0.001668  0.050206 0.585953 1 71 1.000000
0  -2.957124 -16.683781 -5.463005  0.000046 -0.999999 -0.001668  0.050206 0.585933 1 71 1.000000
lowpoly_metal
0  -3.368469 -16.684921 -4.759099  0.000046 -0.999999 -0.001485  0.049683 0.584710 1 71 1.000000
0  -3.787421 -16.684540 -4.995163  0.000046 -0.999999 -0.001485  0.050206 0.583729 1 71 1.000000
0  -3.779814 -16.684532 -4.999449  0.000046 -0.999999 -0.001485  0.050206 0.583749 1 71 1.000000
lowpoly_metal
0  -3.368469 -16.683392 -5.703356  -0.000094 -0.999998 -0.001893  0.050729 0.584972 1 71 1.000000
0  -3.368469 -16.683407 -5.694783  -0.000094 -0.999998 -0.001893  0.050720 0.584969 1 71 1.000000
0  -3.779814 -16.683781 -5.463005  -0.000094 -0.999998 -0.001893  0.050720 0.583878 1 71 1.000000
lowpoly_metal
0  -3.368469 -16.684921 -4.759099  0.000166 -0.999999 -0.001352  0.049683 0.584710 1 71 1.000000
0  -3.368469 -16.684910 -4.767672  0.000166 -0.999999 -0.001352  0.049693 0.584713 1 71 1.000000
0  -2.957124 -16.684532 -4.999449  0.000166 -0.999999 -0.001352  0.049693 0.585804 1 71 1.000000
lowpoly_metal
0  -3.368469 -14.281096 -5.739715  -0.000007 0.999999 0.001619  0.051620 0.582565 1 71 1.000000
0  -3.368469 -14.281668 -5.386607  -0.000007 0.999999 0.001619  0.051216 0.582565 1 71 1.000000
0  -3.229580 -14.281794 -5.308349  -0.000007 0.999999 0.001619  0.051127 0.582207 1 71 1.000000
lowpoly_metal
0  -3.368469 -14.282747 -4.720465  -0.000007 0.999999 0.001619  0.050456 0.582565 1 71 1.000000
0  -3.368469 -14.282175 -5.073571  -0.000007 0.999999 0.001619  0.050859 0.582565 1 71 1.000000
0  -3.507359 -14.282049 -5.151830  -0.000007 0.999999 0.001619  0.050948 0.582922 1 71 1.000000
lowpoly_metal
0  -3.368469 -14.281096 -5.739715  -0.000004 0.999999 0.001618  0.051620 0.582565 1 71 1.000000
0  -3.820695 -14.281509 -5.484901  -0.000004 0.999999 0.001618  0.051329 0.583729 1 71 1.000000
0  -3.507359 -14.281794 -5.308349  -0.000004 0.999999 0.001618  0.051127 0.582922 1 71 1.000000
lowpoly_metal
0  -3.368469 -14.342209 -5.386705  -0.000054 0.999999 0.001447  0.198759 0.282565 1 71 1.000000
0  -3.507359 -14.342337 -5.308447  -0.000054 0.999999 0.001447  0.198586 0.282890 1 71 1.000000
0  -3.493276 -14.342348 -5.300511  -0.000054 0.999999 0.001447  0.198586 0.282853 1 71 1.000000
lowpoly_metal
0  -3.368469 -14.342716 -5.073669  0.000021 0.999999 0.001636  0.198412 0.282478 1 71 1.000000
0  -3.229580 -14.342590 -5.151928  0.000021 0.999999 0.001636  0.198586 0.282153 1 71 1.000000
0  -3.243663 -14.342577 -5.159863  0.000021 0.999999 0.001636  0.198586 0.282190 1 71 1.000000
lowpoly_metal
0  -3.368469 -14.342209 -5.386705  -0.000046 0.999999 0.001685  0.198759 0.282565 1 71 1.000000
0  -3.368469 -14.342236 -5.370835  -0.000046 0.999999 0.001685  0.198741 0.282560 1 71 1.000000
0  -3.243663 -14.342348 -5.300511  -0.000046 0.999999 0.001685  0.198741 0.282229 1 71 1.000000
lowpoly_metal
0  -3.368469 -14.342716 -5.073669  0.000037 0.999999 0.001565  0.198412 0.282478 1 71 1.000000
0  -3.368469 -14.342691 -5.089540  0.000037 0.999999 0.001565  0.198430 0.282482 1 71 1.000000
0  -3.493276 -14.342577 -5.159863  0.000037 0.999999 0.001565  0.198430 0.282814 1 71 1.000000
lowpoly_metal
0  -3.787421 -16.684540 -4.995163  -0.490900 -0.000381 0.871216  0.048880 0.585958 1 71 1.000000
0  -3.368469 -14.357210 -4.758081  -0.490900 -0.000381 0.871216  0.048175 0.587037 1 71 1.000000
0  -3.787421 -14.356827 -4.994146  -0.490900 -0.000381 0.871216  0.048163 0.585958 1 71 1.000000
lowpoly_metal
0  -2.949517 -14.145503 -4.977070  -0.000087 -0.999999 -0.001623  0.049683 0.585822 1 74 1.000000
0  -2.957124 -14.145495 -4.981356  -0.000090 -0.999999 -0.001623  0.049693 0.585804 1 74 1.000000
0  -2.957124 -14.144744 -5.444912  0.000086 -0.999999 -0.001627  0.050206 0.585933 1 74 1.000000
lowpoly_plastic
0  -2.957124 -14.139522 -5.444904  0.470634 0.285920 -0.834717  0.089708 0.407095 1 74 1.000000
0  -2.957124 -14.147602 -5.447671  0.470634 0.285923 -0.834716  0.087758 0.407095 1 74 1.000000
0  -3.368469 -14.147228 -5.679449  0.470633 0.285664 -0.834806  0.087769 0.406036 1 74 1.000000
lowpoly_plastic
0  -3.779814 -14.140273 -4.981348  -1.000000 -0.000126 -0.000000  0.091994 0.408881 1 74 1.000000
0  -3.779814 -14.139522 -5.444904  -1.000000 -0.000010 -0.000000  0.091465 0.408881 1 74 1.000000
0  -3.779814 -14.147602 -5.447671  -1.000000 -0.000012 -0.000000  0.091465 0.406929 1 74 1.000000
lowpoly_plastic
0  -3.368469 -14.140647 -4.749570  0.470621 -0.285781 0.834772  0.085631 0.408260 1 74 1.000000
0  -3.368469 -14.148731 -4.752338  0.470623 -0.285779 0.834772  0.087581 0.408260 1 74 1.000000
0  -2.957124 -14.148354 -4.984116  0.470538 -0.285937 0.834766  0.087570 0.409319 1 74 1.000000
lowpoly_metal
0  -3.243663 -11.751247 -5.282334  0.000007 0.999999 0.001625  0.203712 0.284742 1 74 1.000000
0  -3.368469 -11.751133 -5.352658  0.000004 0.999999 0.001623  0.203632 0.284421 1 74 1.000000
0  -3.368469 -11.751589 -5.071363  0.000009 0.999999 0.001626  0.203953 0.284421 1 74 1.000000
lowpoly_plastic
0  -3.368469 -14.188271 -4.878197  -0.490889 0.001406 -0.871221  0.056830 0.550273 1 74 1.000000
0  -3.368469 -14.126171 -4.878097  -0.490886 0.001406 -0.871222  0.056901 0.550273 1 74 1.000000
0  -3.068751 -14.125896 -5.046977  -0.490907 0.001404 -0.871211  0.056910 0.551045 1 74 1.000000
lowpoly_metal
0  -3.229580 -11.743013 -5.133737  -1.000000 -0.000008 0.000000  0.201972 0.279613 1 74 1.000000
0  -3.229580 -11.742758 -5.290256  -1.000000 0.000008 0.000000  0.201972 0.279792 1 74 1.000000
0  -3.229580 -11.803301 -5.290354  -1.000000 0.000003 0.000000  0.201903 0.279792 1 74 1.000000
lowpoly_metal
0  -3.368469 -11.803200 -5.352743  0.490896 0.001422 -0.871217  0.198025 0.283213 1 74 1.000000
0  -3.368469 -11.751133 -5.352658  0.490897 0.001422 -0.871216  0.198085 0.283213 1 74 1.000000
0  -3.243663 -11.751247 -5.282334  0.490894 0.001420 -0.871218  0.198081 0.283534 1 74 1.000000
lowpoly_metal
0  -3.820695 -11.816996 -5.466930  -0.490898 0.001417 -0.871216  0.049390 0.583729 1 74 1.000000
0  -3.820695 -11.742474 -5.466809  -0.490898 0.001418 -0.871216  0.049475 0.583729 1 74 1.000000
0  -3.368469 -11.742060 -5.721622  -0.490897 0.001416 -0.871216  0.049488 0.584893 1 74 1.000000
lowpoly_metal
0  -3.787421 -14.144736 -5.449199  -1.000000 0.000000 0.000000  0.049099 0.587512 1 74 1.000000
0  -3.787421 -14.145503 -4.977070  -1.000000 0.000000 0.000000  0.049639 0.587512 1 74 1.000000
0  -3.787421 -11.817791 -4.976054  -1.000000 0.000000 0.000000  0.049639 0.588230 1 74 1.000000
lowpoly_metal
0  -3.368469 -14.144355 -5.685263  -0.490899 0.000381 -0.871216  0.053795 0.584808 1 74 1.000000
0  -3.787421 -14.144736 -5.449199  -0.490899 0.000381 -0.871216  0.053783 0.583729 1 74 1.000000
0  -3.787421 -11.817026 -5.448182  -0.490900 0.000380 -0.871216  0.054500 0.583729 1 74 1.000000
lowpoly_plastic
0  -2.957124 -14.140273 -4.981348  1.000000 0.000001 0.000000  0.090682 0.404600 1 74 1.000000
0  -2.957124 -14.148354 -4.984116  1.000000 0.000000 0.000000  0.090682 0.402648 1 74 1.000000
0  -2.957124 -14.147602 -5.447671  1.000000 0.000099 0.000000  0.091211 0.402648 1 74 1.000000
lowpoly_metal
0  -3.507359 -11.742758 -5.290256  0.490897 -0.001414 0.871216  0.198081 0.282891 1 74 1.000000
0  -3.507359 -11.803301 -5.290354  0.490897 -0.001414 0.871217  0.198012 0.282891 1 74 1.000000
0  -3.368469 -11.803173 -5.368613  0.490898 -0.001412 0.871216  0.198016 0.282534 1 74 1.000000
lowpoly_metal
0  -3.368469 -11.751133 -5.352658  -0.000006 0.999999 0.001620  0.203632 0.284421 1 74 1.000000
0  -3.493276 -11.751247 -5.282334  0.000000 0.999999 0.001616  0.203712 0.284100 1 74 1.000000
0  -3.493276 -11.751476 -5.141687  -0.000009 0.999999 0.001621  0.203872 0.284100 1 74 1.000000
lowpoly_metal
0  -2.916244 -11.817822 -4.957305  1.000000 -0.000000 0.000000  0.053688 0.587966 1 74 1.000000
0  -2.916244 -11.816996 -5.466930  1.000000 -0.000001 0.000000  0.053688 0.588548 1 74 1.000000
0  -2.916244 -11.742474 -5.466809  1.000000 -0.000001 0.000000  0.053602 0.588548 1 74 1.000000
lowpoly_plastic
0  -3.368469 -14.187176 -5.553718  -0.490891 -0.001406 0.871220  0.056980 0.550273 1 74 1.000000
0  -3.068751 -14.187450 -5.384838  -0.490892 -0.001403 0.871219  0.056989 0.551045 1 74 1.000000
0  -3.068751 -14.125347 -5.384737  -0.490892 -0.001404 0.871219  0.056918 0.551045 1 74 1.000000
lowpoly_metal
0  -3.368469 -11.742632 -5.368515  -0.490895 -0.001410 0.871217  0.198085 0.282534 1 74 1.000000
0  -3.368469 -11.803173 -5.368613  -0.490893 -0.001408 0.871219  0.198016 0.282534 1 74 1.000000
0  -3.229580 -11.803301 -5.290354  -0.490900 -0.001414 0.871215  0.198012 0.282176 1 74 1.000000
lowpoly_plastic
0  -3.368469 -14.126171 -4.878097  -0.000005 -0.999999 -0.001623  0.063387 0.554036 1 74 1.000000
0  -3.668187 -14.125896 -5.046977  -0.000000 -0.999999 -0.001620  0.063762 0.553334 1 74 1.000000
0  -3.668187 -14.125347 -5.384737  -0.000007 -0.999999 -0.001624  0.064136 0.553427 1 74 1.000000
lowpoly_metal
0  -2.949517 -11.817026 -5.448182  0.490900 0.000381 -0.871216  0.054500 0.585887 1 74 1.000000
0  -2.949517 -14.144736 -5.449199  0.490899 0.000381 -0.871217  0.053783 0.585887 1 74 1.000000
0  -3.368469 -14.144355 -5.685263  0.490899 0.000381 -0.871216  0.053795 0.584808 1 74 1.000000
lowpoly_metal
0  -3.368469 -11.743139 -5.055479  -0.490898 0.001413 -0.871216  0.200834 0.282405 1 74 1.000000
0  -3.229580 -11.743013 -5.133737  -0.490894 0.001410 -0.871218  0.200838 0.282763 1 74 1.000000
0  -3.229580 -11.803555 -5.133835  -0.490895 0.001411 -0.871218  0.200769 0.282763 1 74 1.000000
lowpoly_metal
0  -3.787421 -14.145503 -4.977070  0.000087 -0.999999 -0.001623  0.050206 0.583729 1 74 1.000000
0  -3.787421 -14.144736 -5.449199  -0.000088 -0.999999 -0.001626  0.050729 0.583860 1 74 1.000000
0  -3.779814 -14.144744 -5.444912  -0.000086 -0.999999 -0.001626  0.050720 0.583878 1 74 1.000000
lowpoly_plastic
0  -2.957124 -14.147602 -5.447671  0.759662 -0.650317 -0.001051  0.090671 0.407135 1 74 1.000000
0  -2.957124 -14.148354 -4.984116  0.759644 -0.650339 -0.001054  0.091200 0.407135 1 74 1.000000
0  -2.991151 -14.188068 -5.003354  0.759645 -0.650337 -0.001054  0.091176 0.407222 1 74 1.000000
lowpoly_plastic
0  -3.779814 -14.140273 -4.981348  -0.470711 -0.286113 0.834608  0.085620 0.407201 1 74 1.000000
0  -3.779814 -14.148354 -4.984116  -0.470713 -0.286117 0.834606  0.087570 0.407201 1 74 1.000000
0  -3.368469 -14.148731 -4.752338  -0.470531 -0.285737 0.834838  0.087581 0.408260 1 74 1.000000
lowpoly_plastic
0  -3.368469 -14.187176 -5.553718  0.490891 -0.001406 0.871220  0.056980 0.550273 1 74 1.000000
0  -3.368469 -14.125076 -5.553618  0.490890 -0.001406 0.871220  0.056910 0.550273 1 74 1.000000
0  -3.668187 -14.125347 -5.384737  0.490892 -0.001404 0.871219  0.056918 0.549501 1 74 1.000000
lowpoly_metal
0  -3.368469 -14.145885 -4.741006  0.490899 -0.000381 0.871216  0.048892 0.587037 1 74 1.000000
0  -2.949517 -14.145503 -4.977070  0.490899 -0.000381 0.871217  0.048880 0.588116 1 74 1.000000
0  -2.949517 -11.817791 -4.976054  0.490900 -0.000381 0.871216  0.048163 0.588116 1 74 1.000000
lowpoly_metal
0  -3.820695 -11.743299 -4.957184  -0.000002 0.999999 0.001623  0.050747 0.583729 1 74 1.000000
0  -3.507359 -11.743013 -5.133737  0.000007 0.999999 0.001633  0.050948 0.582922 1 74 1.000000
0  -3.507359 -11.742758 -5.290256  -0.000001 0.999999 0.001624  0.051127 0.582922 1 74 1.000000
lowpoly_metal
0  -2.916244 -11.742474 -5.466809  0.000001 0.999999 0.001621  0.051329 0.581400 1 74 1.000000
0  -3.229580 -11.742758 -5.290256  0.000013 0.999999 0.001633  0.051127 0.582207 1 74 1.000000
0  -3.229580 -11.743013 -5.133737  0.000002 0.999999 0.001622  0.050948 0.582207 1 74 1.000000
lowpoly_metal
0  -3.368469 -11.743139 -5.055479  0.490898 0.001415 -0.871216  0.200834 0.282405 1 74 1.000000
0  -3.368469 -11.803680 -5.055577  0.490899 0.001414 -0.871215  0.200765 0.282405 1 74 1.000000
0  -3.507359 -11.803555 -5.133835  0.490895 0.001415 -0.871218  0.200769 0.282048 1 74 1.000000
lowpoly_metal
0  -3.368469 -11.818235 -4.702492  0.490896 -0.001406 0.871217  0.049585 0.584893 1 74 1.000000
0  -2.916244 -11.817822 -4.957305  0.490897 -0.001418 0.871216  0.049573 0.586058 1 74 1.000000
0  -2.916244 -11.743298 -4.957184  0.490897 -0.001417 0.871216  0.049488 0.586058 1 74 1.000000
lowpoly_metal
0  -3.243663 -11.803312 -5.282419  1.000000 -0.000000 0.000000  0.202299 0.279774 1 74 1.000000
0  -3.243663 -11.751247 -5.282334  1.000000 0.000000 0.000000  0.202240 0.279774 1 74 1.000000
0  -3.243663 -11.751476 -5.141687  1.000000 -0.000001 0.000000  0.202240 0.279613 1 74 1.000000
lowpoly_metal
0  -3.368469 -11.818235 -4.702492  -0.490897 -0.001403 0.871217  0.049585 0.584893 1 74 1.000000
0  -3.368469 -11.743711 -4.702372  -0.490896 -0.001402 0.871217  0.049500 0.584893 1 74 1.000000
0  -3.820695 -11.743299 -4.957184  -0.490898 -0.001415 0.871216  0.049488 0.583729 1 74 1.000000
lowpoly_plastic
0  -3.068751 -14.187450 -5.384838  -1.000000 -0.000000 0.000000  0.056753 0.553526 1 74 1.000000
0  -3.068751 -14.188000 -5.047077  -1.000000 -0.000003 0.000000  0.056753 0.553140 1 74 1.000000
0  -3.068751 -14.125896 -5.046977  -1.000000 -0.000003 0.000000  0.056824 0.553140 1 74 1.000000
lowpoly_metal
0  -3.368469 -11.803656 -5.071448  0.490905 -0.001418 0.871212  0.198148 0.283160 1 74 1.000000
0  -3.243663 -11.803541 -5.141771  0.490887 -0.001401 0.871222  0.198151 0.282839 1 74 1.000000
0  -3.243663 -11.751476 -5.141687  0.490892 -0.001406 0.871219  0.198211 0.282839 1 74 1.000000
lowpoly_metal
0  -3.368469 -11.803656 -5.071448  -0.490898 -0.001415 0.871216  0.198148 0.283160 1 74 1.000000
0  -3.368469 -11.751589 -5.071363  -0.490897 -0.001418 0.871217  0.198207 0.283160 1 74 1.000000
0  -3.493276 -11.751476 -5.141687  -0.490900 -0.001406 0.871215  0.198211 0.283481 1 74 1.000000
lowpoly_metal
0  -3.493276 -11.803541 -5.141771  -1.000000 -0.000006 0.000000  0.202180 0.279613 1 74 1.000000
0  -3.493276 -11.751476 -5.141687  -1.000000 -0.000008 0.000000  0.202240 0.279613 1 74 1.000000
0  -3.493276 -11.751247 -5.282334  -1.000000 -0.000001 0.000000  0.202240 0.279774 1 74 1.000000
lowpoly_plastic
0  -3.779814 -14.147602 -5.447671  -0.759668 -0.650311 -0.001051  0.090671 0.409253 1 74 1.000000
0  -3.745787 -14.187382 -5.428564  -0.759670 -0.650308 -0.001050  0.090691 0.409165 1 74 1.000000
0  -3.745787 -14.188068 -5.003354  -0.759650 -0.650331 -0.001054  0.091176 0.409165 1 74 1.000000
lowpoly_plastic
0  -3.368469 -14.139144 -5.676682  -0.470636 0.285671 -0.834802  0.089720 0.406036 1 74 1.000000
0  -3.368469 -14.147228 -5.679449  -0.470636 0.285669 -0.834803  0.087769 0.406036 1 74 1.000000
0  -3.779814 -14.147602 -5.447671  -0.470632 0.285866 -0.834737  0.087758 0.404977 1 74 1.000000
lowpoly_plastic
0  -3.668187 -14.188000 -5.047077  0.490892 0.001406 -0.871219  0.056839 0.549501 1 74 1.000000
0  -3.668187 -14.125896 -5.046977  0.490891 0.001406 -0.871220  0.056910 0.549501 1 74 1.000000
0  -3.368469 -14.126171 -4.878097  0.490903 0.001406 -0.871213  0.056901 0.550273 1 74 1.000000
lowpoly_metal
0  -2.949517 -14.145503 -4.977070  1.000000 0.000000 0.000000  0.053063 0.587966 1 74 1.000000
0  -2.949517 -14.144736 -5.449199  1.000000 0.000000 0.000001  0.053602 0.587966 1 74 1.000000
0  -2.949517 -11.817026 -5.448182  1.000000 0.000000 0.000000  0.053602 0.588683 1 74 1.000000
lowpoly_metal
0  -3.507359 -11.803301 -5.290354  -0.000098 0.999999 0.001625  0.198586 0.282890 1 74 1.000000
0  -3.507359 -11.803555 -5.133835  -0.000035 0.999999 0.001622  0.198412 0.282847 1 74 1.000000
0  -3.493276 -11.803541 -5.141771  -0.000038 0.999999 0.001623  0.198430 0.282814 1 74 1.000000
lowpoly_metal
0  -2.949517 -11.817791 -4.976054  -0.000004 -0.999999 -0.001620  0.052471 0.581486 1 74 1.000000
0  -2.949517 -11.817026 -5.448182  0.000004 -0.999999 -0.001620  0.051932 0.581486 1 74 1.000000
0  -2.916244 -11.816996 -5.466930  0.000004 -0.999999 -0.001620  0.051910 0.581400 1 74 1.000000
lowpoly_plastic
0  -3.668187 -14.187450 -5.384838  1.000000 -0.000000 0.000000  0.056824 0.553912 1 74 1.000000
0  -3.668187 -14.125347 -5.384737  1.000000 0.000000 0.000000  0.056753 0.553912 1 74 1.000000
0  -3.668187 -14.125896 -5.046977  1.000000 -0.000003 0.000000  0.056753 0.553526 1 74 1.000000
lowpoly_metal
0  -3.368469 -11.816584 -5.721743  0.490897 0.001417 -0.871216  0.049403 0.584893 1 74 1.000000
0  -3.368469 -11.742060 -5.721622  0.490897 0.001418 -0.871217  0.049488 0.584893 1 74 1.000000
0  -2.916244 -11.742474 -5.466809  0.490898 0.001415 -0.871216  0.049475 0.586058 1 74 1.000000
lowpoly_metal
0  -3.820695 -11.817822 -4.957305  -1.000000 0.000000 0.000000  0.051655 0.587893 1 74 1.000000
0  -3.820695 -11.743299 -4.957184  -1.000000 0.000000 0.000000  0.051740 0.587893 1 74 1.000000
0  -3.820695 -11.742474 -5.466809  -1.000000 0.000001 0.000000  0.051740 0.588476 1 74 1.000000
lowpoly_metal
0  -3.787421 -11.817791 -4.976054  0.000004 -0.999999 -0.001620  0.052471 0.583643 1 74 1.000000
0  -3.820695 -11.817822 -4.957305  0.000004 -0.999999 -0.001620  0.052492 0.583729 1 74 1.000000
0  -3.820695 -11.816996 -5.466930  -0.000004 -0.999999 -0.001620  0.051910 0.583729 1 74 1.000000
lowpoly_metal
0  -3.493276 -11.803312 -5.282419  -0.490904 0.001422 -0.871212  0.198022 0.282891 1 74 1.000000
0  -3.493276 -11.751247 -5.282334  -0.490906 0.001423 -0.871211  0.198081 0.282891 1 74 1.000000
0  -3.368469 -11.751133 -5.352658  -0.490900 0.001420 -0.871215  0.198085 0.283213 1 74 1.000000
lowpoly_metal
0  -3.507359 -11.743013 -5.133737  1.000000 0.000007 0.000000  0.201972 0.279613 1 74 1.000000
0  -3.507359 -11.803555 -5.133835  1.000000 0.000013 0.000000  0.202042 0.279613 1 74 1.000000
0  -3.507359 -11.803301 -5.290354  1.000000 -0.000005 0.000000  0.202042 0.279792 1 74 1.000000
lowpoly_plastic
0  -2.991151 -14.188068 -5.003354  0.000021 -0.999999 -0.001625  0.091176 0.407222 1 74 1.000000
0  -3.068751 -14.188000 -5.047077  0.000031 -0.999999 -0.001628  0.091126 0.407422 1 74 1.000000
0  -3.068751 -14.187450 -5.384838  -0.000020 -0.999999 -0.001613  0.090741 0.407422 1 74 1.000000
lowpoly_metal
0  -3.229580 -11.803555 -5.133835  0.000037 0.999999 0.001625  0.198586 0.282153 1 74 1.000000
0  -3.229580 -11.803301 -5.290354  0.000101 0.999999 0.001622  0.198759 0.282196 1 74 1.000000
0  -3.243663 -11.803312 -5.282419  0.000098 0.999999 0.001622  0.198741 0.282229 1 74 1.000000
lowpoly_plastic
0  -3.068751 -14.125896 -5.046977  0.000006 -0.999999 -0.001623  0.063387 0.554831 1 74 1.000000
0  -3.368469 -14.126171 -4.878097  0.000003 -0.999999 -0.001620  0.063387 0.554036 1 74 1.000000
0  -3.368469 -14.125076 -5.553618  0.000008 -0.999999 -0.001625  0.064136 0.554223 1 74 1.000000
lowpoly_plastic
0  -3.745787 -14.187382 -5.428564  0.000021 -0.999999 -0.001619  0.090691 0.409165 1 74 1.000000
0  -3.668187 -14.187450 -5.384838  0.000032 -0.999999 -0.001619  0.090741 0.408965 1 74 1.000000
0  -3.668187 -14.188000 -5.047077  -0.000020 -0.999999 -0.001619  0.091126 0.408965 1 74 1.000000
lowpoly_metal
0  -3.787421 -14.145503 -4.977070  -0.490900 -0.000381 0.871216  0.048880 0.585958 1 74 1.000000
0  -3.368469 -14.145885 -4.741006  -0.490899 -0.000381 0.871216  0.048892 0.587037 1 74 1.000000
0  -3.368469 -11.818174 -4.739989  -0.490900 -0.000381 0.871216  0.048175 0.587037 1 74 1.000000
lowpoly_metal
0  -2.949517 -16.684540 -4.995163  -0.000087 -0.999999 -0.001623  0.049683 0.585822 1 71 1.000000
0  -2.957124 -16.684532 -4.999449  -0.000090 -0.999999 -0.001623  0.049693 0.585804 1 71 1.000000
0  -2.957124 -16.683781 -5.463005  0.000087 -0.999999 -0.001627  0.050206 0.585933 1 71 1.000000
lowpoly_plastic
0  -2.957124 -16.678558 -5.462996  0.470592 0.285928 -0.834738  0.089708 0.407095 1 71 1.000000
0  -2.957124 -16.686638 -5.465764  0.470592 0.285931 -0.834738  0.087758 0.407095 1 71 1.000000
0  -3.368469 -16.686264 -5.697541  0.470656 0.285713 -0.834776  0.087769 0.406036 1 71 1.000000
lowpoly_plastic
0  -3.779814 -16.679310 -4.999440  -1.000000 -0.000126 -0.000000  0.091994 0.408881 1 71 1.000000
0  -3.779814 -16.678558 -5.462996  -1.000000 -0.000010 -0.000000  0.091465 0.408881 1 71 1.000000
0  -3.779814 -16.686638 -5.465764  -1.000000 -0.000012 -0.000000  0.091465 0.406929 1 71 1.000000
lowpoly_plastic
0  -3.368469 -16.679684 -4.767663  0.470672 -0.285845 0.834722  0.085631 0.408260 1 71 1.000000
0  -3.368469 -16.687767 -4.770431  0.470673 -0.285843 0.834722  0.087581 0.408260 1 71 1.000000
0  -2.957124 -16.687389 -5.002209  0.470614 -0.286017 0.834695  0.087570 0.409319 1 71 1.000000
lowpoly_metal
0  -3.243663 -14.290283 -5.300426  0.000007 0.999999 0.001620  0.203712 0.284742 1 71 1.000000
0  -3.368469 -14.290169 -5.370750  0.000004 0.999999 0.001616  0.203632 0.284421 1 71 1.000000
0  -3.368469 -14.290625 -5.089456  0.000009 0.999999 0.001623  0.203953 0.284421 1 71 1.000000
lowpoly_plastic
0  -3.368469 -16.727306 -4.896290  -0.490904 0.001406 -0.871212  0.056830 0.550273 1 71 1.000000
0  -3.368469 -16.665207 -4.896190  -0.490906 0.001406 -0.871211  0.056901 0.550273 1 71 1.000000
0  -3.068751 -16.664932 -5.065069  -0.490892 0.001404 -0.871219  0.056910 0.551045 1 71 1.000000
lowpoly_metal
0  -3.229580 -14.282049 -5.151830  -1.000000 -0.000008 0.000000  0.201972 0.279613 1 71 1.000000
0  -3.229580 -14.281794 -5.308349  -1.000000 0.000008 0.000000  0.201972 0.279792 1 71 1.000000
0  -3.229580 -14.342337 -5.308447  -1.000000 0.000003 0.000000  0.201903 0.279792 1 71 1.000000
lowpoly_metal
0  -3.368469 -14.342236 -5.370835  0.490906 0.001422 -0.871211  0.198025 0.283213 1 71 1.000000
0  -3.368469 -14.290169 -5.370750  0.490908 0.001422 -0.871210  0.198085 0.283213 1 71 1.000000
0  -3.243663 -14.290283 -5.300426  0.490901 0.001420 -0.871214  0.198081 0.283534 1 71 1.000000
lowpoly_metal
0  -3.820695 -14.356031 -5.485023  -0.490898 0.001417 -0.871216  0.049390 0.583729 1 71 1.000000
0  -3.820695 -14.281509 -5.484901  -0.490898 0.001418 -0.871216  0.049475 0.583729 1 71 1.000000
0  -3.368469 -14.281096 -5.739715  -0.490897 0.001416 -0.871216  0.049488 0.584893 1 71 1.000000
lowpoly_metal
0  -3.787421 -16.683773 -5.467292  -1.000000 0.000000 0.000000  0.049099 0.587512 1 71 1.000000
0  -3.787421 -16.684540 -4.995163  -1.000000 0.000000 0.000000  0.049639 0.587512 1 71 1.000000
0  -3.787421 -14.356827 -4.994146  -1.000000 0.000000 0.000000  0.049639 0.588230 1 71 1.000000
lowpoly_metal
0  -3.368469 -16.683392 -5.703356  -0.490898 0.000381 -0.871217  0.053795 0.584808 1 71 1.000000
0  -3.787421 -16.683773 -5.467292  -0.490898 0.000381 -0.871217  0.053783 0.583729 1 71 1.000000
0  -3.787421 -14.356062 -5.466274  -0.490899 0.000380 -0.871216  0.054500 0.583729 1 71 1.000000
lowpoly_plastic
0  -2.957124 -16.679310 -4.999440  1.000000 0.000001 0.000000  0.090682 0.404600 1 71 1.000000
0  -2.957124 -16.687389 -5.002209  1.000000 0.000000 0.000000  0.090682 0.402648 1 71 1.000000
0  -2.957124 -16.686638 -5.465764  1.000000 0.000099 0.000000  0.091211 0.402648 1 71 1.000000
lowpoly_metal
0  -3.507359 -14.281794 -5.308349  0.490898 -0.001414 0.871216  0.198081 0.282891 1 71 1.000000
0  -3.507359 -14.342337 -5.308447  0.490899 -0.001414 0.871215  0.198012 0.282891 1 71 1.000000
0  -3.368469 -14.342209 -5.386705  0.490895 -0.001412 0.871217  0.198016 0.282534 1 71 1.000000
lowpoly_metal
0  -3.368469 -14.290169 -5.370750  -0.000006 0.999999 0.001626  0.203632 0.284421 1 71 1.000000
0  -3.493276 -14.290283 -5.300426  0.000000 0.999999 0.001630  0.203712 0.284100 1 71 1.000000
0  -3.493276 -14.290512 -5.159780  -0.000009 0.999999 0.001625  0.203872 0.284100 1 71 1.000000
lowpoly_metal
0  -2.916244 -14.356857 -4.975398  1.000000 -0.000000 0.000000  0.053688 0.587966 1 71 1.000000
0  -2.916244 -14.356031 -5.485023  1.000000 -0.000001 0.000000  0.053688 0.588548 1 71 1.000000
0  -2.916244 -14.281509 -5.484901  1.000000 -0.000001 0.000000  0.053602 0.588548 1 71 1.000000
lowpoly_plastic
0  -3.368469 -16.726212 -5.571811  -0.490892 -0.001406 0.871219  0.056980 0.550273 1 71 1.000000
0  -3.068751 -16.726486 -5.402930  -0.490913 -0.001403 0.871207  0.056989 0.551045 1 71 1.000000
0  -3.068751 -16.664383 -5.402830  -0.490911 -0.001404 0.871209  0.056918 0.551045 1 71 1.000000
lowpoly_metal
0  -3.368469 -14.281668 -5.386607  -0.490896 -0.001410 0.871217  0.198085 0.282534 1 71 1.000000
0  -3.368469 -14.342209 -5.386705  -0.490896 -0.001408 0.871217  0.198016 0.282534 1 71 1.000000
0  -3.229580 -14.342337 -5.308447  -0.490897 -0.001414 0.871216  0.198012 0.282176 1 71 1.000000
lowpoly_plastic
0  -3.368469 -16.665207 -4.896190  -0.000005 -0.999999 -0.001625  0.063387 0.554036 1 71 1.000000
0  -3.668187 -16.664932 -5.065069  -0.000000 -0.999999 -0.001630  0.063762 0.553334 1 71 1.000000
0  -3.668187 -16.664383 -5.402830  -0.000007 -0.999999 -0.001623  0.064136 0.553427 1 71 1.000000
lowpoly_metal
0  -2.949517 -14.356062 -5.466274  0.490899 0.000381 -0.871216  0.054500 0.585887 1 71 1.000000
0  -2.949517 -16.683773 -5.467292  0.490898 0.000381 -0.871217  0.053783 0.585887 1 71 1.000000
0  -3.368469 -16.683392 -5.703356  0.490898 0.000381 -0.871217  0.053795 0.584808 1 71 1.000000
lowpoly_metal
0  -3.368469 -14.282175 -5.073571  -0.490896 0.001413 -0.871217  0.200834 0.282405 1 71 1.000000
0  -3.229580 -14.282049 -5.151830  -0.490894 0.001410 -0.871218  0.200838 0.282763 1 71 1.000000
0  -3.229580 -14.342590 -5.151928  -0.490894 0.001411 -0.871218  0.200769 0.282763 1 71 1.000000
lowpoly_metal
0  -3.787421 -16.684540 -4.995163  0.000087 -0.999999 -0.001623  0.050206 0.583729 1 71 1.000000
0  -3.787421 -16.683773 -5.467292  -0.000088 -0.999999 -0.001626  0.050729 0.583860 1 71 1.000000
0  -3.779814 -16.683781 -5.463005  -0.000087 -0.999999 -0.001626  0.050720 0.583878 1 71 1.000000
lowpoly_plastic
0  -2.957124 -16.686638 -5.465764  0.759663 -0.650316 -0.001050  0.090671 0.407135 1 71 1.000000
0  -2.957124 -16.687389 -5.002209  0.759644 -0.650339 -0.001052  0.091200 0.407135 1 71 1.000000
0  -2.991151 -16.727104 -5.021446  0.759645 -0.650337 -0.001052  0.091176 0.407222 1 71 1.000000
lowpoly_plastic
0  -3.779814 -16.679310 -4.999440  -0.470576 -0.286065 0.834701  0.085620 0.407201 1 71 1.000000
0  -3.779814 -16.687389 -5.002209  -0.470575 -0.286067 0.834700  0.087570 0.407201 1 71 1.000000
0  -3.368469 -16.687767 -4.770431  -0.470606 -0.285815 0.834769  0.087581 0.408260 1 71 1.000000
lowpoly_plastic
0  -3.368469 -16.726212 -5.571811  0.490892 -0.001406 0.871219  0.056980 0.550273 1 71 1.000000
0  -3.368469 -16.664112 -5.571711  0.490889 -0.001406 0.871221  0.056910 0.550273 1 71 1.000000
0  -3.668187 -16.664383 -5.402830  0.490911 -0.001404 0.871209  0.056918 0.549501 1 71 1.000000
lowpoly_metal
0  -3.368469 -16.684921 -4.759099  0.490899 -0.000381 0.871216  0.048892 0.587037 1 71 1.000000
0  -2.949517 -16.684540 -4.995163  0.490899 -0.000381 0.871217  0.048880 0.588116 1 71 1.000000
0  -2.949517 -14.356827 -4.994146  0.490900 -0.000381 0.871216  0.048163 0.588116 1 71 1.000000
lowpoly_metal
0  -3.820695 -14.282335 -4.975277  -0.000002 0.999999 0.001623  0.050747 0.583729 1 71 1.000000
0  -3.507359 -14.282049 -5.151830  0.000007 0.999999 0.001633  0.050948 0.582922 1 71 1.000000
0  -3.507359 -14.281794 -5.308349  -0.000001 0.999999 0.001624  0.051127 0.582922 1 71 1.000000
lowpoly_metal
0  -2.916244 -14.281509 -5.484901  0.000001 0.999999 0.001623  0.051329 0.581400 1 71 1.000000
0  -3.229580 -14.281794 -5.308349  0.000013 0.999999 0.001633  0.051127 0.582207 1 71 1.000000
0  -3.229580 -14.282049 -5.151830  0.000002 0.999999 0.001624  0.050948 0.582207 1 71 1.000000
lowpoly_metal
0  -3.368469 -14.282175 -5.073571  0.490896 0.001415 -0.871217  0.200834 0.282405 1 71 1.000000
0  -3.368469 -14.342716 -5.073669  0.490896 0.001414 -0.871217  0.200765 0.282405 1 71 1.000000
0  -3.507359 -14.342590 -5.151928  0.490894 0.001415 -0.871218  0.200769 0.282048 1 71 1.000000
lowpoly_metal
0  -3.368469 -14.357271 -4.720585  0.490896 -0.001406 0.871217  0.049585 0.584893 1 71 1.000000
0  -2.916244 -14.356857 -4.975398  0.490897 -0.001418 0.871216  0.049573 0.586058 1 71 1.000000
0  -2.916244 -14.282333 -4.975277  0.490897 -0.001417 0.871216  0.049488 0.586058 1 71 1.000000
lowpoly_metal
0  -3.243663 -14.342348 -5.300511  1.000000 -0.000000 0.000000  0.202299 0.279774 1 71 1.000000
0  -3.243663 -14.290283 -5.300426  1.000000 0.000000 0.000000  0.202240 0.279774 1 71 1.000000
0  -3.243663 -14.290512 -5.159780  1.000000 -0.000001 0.000000  0.202240 0.279613 1 71 1.000000
lowpoly_metal
0  -3.368469 -14.357271 -4.720585  -0.490896 -0.001403 0.871217  0.049585 0.584893 1 71 1.000000
0  -3.368469 -14.282747 -4.720465  -0.490896 -0.001402 0.871217  0.049500 0.584893 1 71 1.000000
0  -3.820695 -14.282335 -4.975277  -0.490897 -0.001415 0.871216  0.049488 0.583729 1 71 1.000000
lowpoly_plastic
0  -3.068751 -16.726486 -5.402930  -1.000000 -0.000000 0.000000  0.056753 0.553526 1 71 1.000000
0  -3.068751 -16.727036 -5.065169  -1.000000 -0.000003 0.000000  0.056753 0.553140 1 71 1.000000
0  -3.068751 -16.664932 -5.065069  -1.000000 -0.000003 0.000000  0.056824 0.553140 1 71 1.000000
lowpoly_metal
0  -3.368469 -14.342691 -5.089540  0.490893 -0.001418 0.871219  0.198148 0.283160 1 71 1.000000
0  -3.243663 -14.342577 -5.159863  0.490887 -0.001401 0.871222  0.198151 0.282839 1 71 1.000000
0  -3.243663 -14.290512 -5.159780  0.490889 -0.001406 0.871221  0.198211 0.282839 1 71 1.000000
lowpoly_metal
0  -3.368469 -14.342691 -5.089540  -0.490904 -0.001415 0.871213  0.198148 0.283160 1 71 1.000000
0  -3.368469 -14.290625 -5.089456  -0.490908 -0.001418 0.871210  0.198207 0.283160 1 71 1.000000
0  -3.493276 -14.290512 -5.159780  -0.490892 -0.001406 0.871219  0.198211 0.283481 1 71 1.000000
lowpoly_metal
0  -3.493276 -14.342577 -5.159863  -1.000000 -0.000006 0.000000  0.202180 0.279613 1 71 1.000000
0  -3.493276 -14.290512 -5.159780  -1.000000 -0.000008 0.000000  0.202240 0.279613 1 71 1.000000
0  -3.493276 -14.290283 -5.300426  -1.000000 -0.000001 0.000000  0.202240 0.279774 1 71 1.000000
lowpoly_plastic
0  -3.779814 -16.686638 -5.465764  -0.759668 -0.650310 -0.001050  0.090671 0.409253 1 71 1.000000
0  -3.745787 -16.726418 -5.446656  -0.759670 -0.650308 -0.001050  0.090691 0.409165 1 71 1.000000
0  -3.745787 -16.727104 -5.021446  -0.759650 -0.650331 -0.001052  0.091176 0.409165 1 71 1.000000
lowpoly_plastic
0  -3.368469 -16.678181 -5.694775  -0.470592 0.285679 -0.834824  0.089720 0.406036 1 71 1.000000
0  -3.368469 -16.686264 -5.697541  -0.470591 0.285677 -0.834825  0.087769 0.406036 1 71 1.000000
0  -3.779814 -16.686638 -5.465764  -0.470631 0.285900 -0.834726  0.087758 0.404977 1 71 1.000000
lowpoly_plastic
0  -3.668187 -16.727036 -5.065169  0.490907 0.001406 -0.871211  0.056839 0.549501 1 71 1.000000
0  -3.668187 -16.664932 -5.065069  0.490910 0.001406 -0.871209  0.056910 0.549501 1 71 1.000000
0  -3.368469 -16.665207 -4.896190  0.490889 0.001406 -0.871221  0.056901 0.550273 1 71 1.000000
lowpoly_metal
0  -2.949517 -16.684540 -4.995163  1.000000 0.000000 0.000000  0.053063 0.587966 1 71 1.000000
0  -2.949517 -16.683773 -5.467292  1.000000 0.000000 0.000001  0.053602 0.587966 1 71 1.000000
0  -2.949517 -14.356062 -5.466274  1.000000 0.000000 0.000000  0.053602 0.588683 1 71 1.000000
lowpoly_metal
0  -3.507359 -14.342337 -5.308447  -0.000098 0.999999 0.001625  0.198586 0.282890 1 71 1.000000
0  -3.507359 -14.342590 -5.151928  -0.000035 0.999999 0.001622  0.198412 0.282847 1 71 1.000000
0  -3.493276 -14.342577 -5.159863  -0.000038 0.999999 0.001623  0.198430 0.282814 1 71 1.000000
lowpoly_metal
0  -2.949517 -14.356827 -4.994146  -0.000004 -0.999999 -0.001620  0.052471 0.581486 1 71 1.000000
0  -2.949517 -14.356062 -5.466274  0.000004 -0.999999 -0.001620  0.051932 0.581486 1 71 1.000000
0  -2.916244 -14.356031 -5.485023  0.000004 -0.999999 -0.001620  0.051910 0.581400 1 71 1.000000
lowpoly_plastic
0  -3.668187 -16.726486 -5.402930  1.000000 -0.000000 0.000000  0.056824 0.553912 1 71 1.000000
0  -3.668187 -16.664383 -5.402830  1.000000 0.000000 0.000000  0.056753 0.553912 1 71 1.000000
0  -3.668187 -16.664932 -5.065069  1.000000 -0.000003 0.000000  0.056753 0.553526 1 71 1.000000
lowpoly_metal
0  -3.368469 -14.355619 -5.739836  0.490898 0.001417 -0.871216  0.049403 0.584893 1 71 1.000000
0  -3.368469 -14.281096 -5.739715  0.490898 0.001418 -0.871216  0.049488 0.584893 1 71 1.000000
0  -2.916244 -14.281509 -5.484901  0.490897 0.001415 -0.871216  0.049475 0.586058 1 71 1.000000
lowpoly_metal
0  -3.820695 -14.356857 -4.975398  -1.000000 0.000000 0.000000  0.051655 0.587893 1 71 1.000000
0  -3.820695 -14.282335 -4.975277  -1.000000 0.000000 0.000000  0.051740 0.587893 1 71 1.000000
0  -3.820695 -14.281509 -5.484901  -1.000000 0.000001 0.000000  0.051740 0.588476 1 71 1.000000
lowpoly_metal
0  -3.787421 -14.356827 -4.994146  0.000004 -0.999999 -0.001620  0.052471 0.583643 1 71 1.000000
0  -3.820695 -14.356857 -4.975398  0.000004 -0.999999 -0.001620  0.052492 0.583729 1 71 1.000000
0  -3.820695 -14.356031 -5.485023  -0.000004 -0.999999 -0.001620  0.051910 0.583729 1 71 1.000000
lowpoly_metal
0  -3.493276 -14.342348 -5.300511  -0.490899 0.001422 -0.871215  0.198022 0.282891 1 71 1.000000
0  -3.493276 -14.290283 -5.300426  -0.490896 0.001422 -0.871217  0.198081 0.282891 1 71 1.000000
0  -3.368469 -14.290169 -5.370750  -0.490908 0.001420 -0.871210  0.198085 0.283213 1 71 1.000000
lowpoly_metal
0  -3.507359 -14.282049 -5.151830  1.000000 0.000007 0.000000  0.201972 0.279613 1 71 1.000000
0  -3.507359 -14.342590 -5.151928  1.000000 0.000013 0.000000  0.202042 0.279613 1 71 1.000000
0  -3.507359 -14.342337 -5.308447  1.000000 -0.000005 0.000000  0.202042 0.279792 1 71 1.000000
lowpoly_plastic
0  -2.991151 -16.727104 -5.021446  0.000021 -0.999999 -0.001619  0.091176 0.407222 1 71 1.000000
0  -3.068751 -16.727036 -5.065169  0.000031 -0.999999 -0.001619  0.091126 0.407422 1 71 1.000000
0  -3.068751 -16.726486 -5.402930  -0.000020 -0.999999 -0.001619  0.090741 0.407422 1 71 1.000000
lowpoly_metal
0  -3.229580 -14.342590 -5.151928  0.000037 0.999999 0.001625  0.198586 0.282153 1 71 1.000000
0  -3.229580 -14.342337 -5.308447  0.000101 0.999999 0.001622  0.198759 0.282196 1 71 1.000000
0  -3.243663 -14.342348 -5.300511  0.000097 0.999999 0.001622  0.198741 0.282229 1 71 1.000000
lowpoly_plastic
0  -3.068751 -16.664932 -5.065069  0.000006 -0.999999 -0.001623  0.063387 0.554831 1 71 1.000000
0  -3.368469 -16.665207 -4.896190  0.000003 -0.999999 -0.001620  0.063387 0.554036 1 71 1.000000
0  -3.368469 -16.664112 -5.571711  0.000008 -0.999999 -0.001625  0.064136 0.554223 1 71 1.000000
lowpoly_plastic
0  -3.745787 -16.726418 -5.446656  0.000021 -0.999999 -0.001625  0.090691 0.409165 1 71 1.000000
0  -3.668187 -16.726486 -5.402930  0.000032 -0.999999 -0.001628  0.090741 0.408965 1 71 1.000000
0  -3.668187 -16.727036 -5.065169  -0.000020 -0.999999 -0.001613  0.091126 0.408965 1 71 1.000000
lowpoly_metal
0  -3.787421 -16.684540 -4.995163  -0.490900 -0.000381 0.871216  0.048880 0.585958 1 71 1.000000
0  -3.368469 -16.684921 -4.759099  -0.490899 -0.000381 0.871216  0.048892 0.587037 1 71 1.000000
0  -3.368469 -14.357210 -4.758081  -0.490900 -0.000381 0.871216  0.048175 0.587037 1 71 1.000000
end
