version 1
nodes
0 "ValveBiped.Bip01_Spine4" -1
1 "ValveBiped.Bip01_L_Clavicle" 0
2 "ValveBiped.Bip01_L_UpperArm" 1
3 "ValveBiped.Bip01_L_Forearm" 2
4 "ValveBiped.Bip01_L_Hand" 3
5 "ValveBiped.Bip01_L_Finger4" 4
6 "ValveBiped.Bip01_L_Finger41" 5
7 "ValveBiped.Bip01_L_Finger42" 6
8 "ValveBiped.Bip01_L_Finger3" 4
9 "ValveBiped.Bip01_L_Finger31" 8
10 "ValveBiped.Bip01_L_Finger32" 9
11 "ValveBiped.Bip01_L_Finger2" 4
12 "ValveBiped.Bip01_L_Finger21" 11
13 "ValveBiped.Bip01_L_Finger22" 12
14 "ValveBiped.Bip01_L_Finger1" 4
15 "ValveBiped.Bip01_L_Finger11" 14
16 "ValveBiped.Bip01_L_Finger12" 15
17 "ValveBiped.Bip01_L_Finger0" 4
18 "ValveBiped.Bip01_L_Finger01" 17
19 "ValveBiped.Bip01_L_Finger02" 18
20 "ValveBiped.Bip01_L_Ulna" 3
21 "ValveBiped.Bip01_L_Wrist" 3
22 "rig_l_upperarm" 1
23 "rig_l_forearm" 22
24 "rig_d_l_forearm" 23
25 "rig_d_l_upperarm" 22
26 "ValveBiped.Bip01_R_Clavicle" 0
27 "ValveBiped.Bip01_R_UpperArm" 26
28 "ValveBiped.Bip01_R_Forearm" 27
29 "ValveBiped.Bip01_R_Hand" 28
30 "ValveBiped.Bip01_R_Finger4" 29
31 "ValveBiped.Bip01_R_Finger41" 30
32 "ValveBiped.Bip01_R_Finger42" 31
33 "ValveBiped.Bip01_R_Finger3" 29
34 "ValveBiped.Bip01_R_Finger31" 33
35 "ValveBiped.Bip01_R_Finger32" 34
36 "ValveBiped.Bip01_R_Finger2" 29
37 "ValveBiped.Bip01_R_Finger21" 36
38 "ValveBiped.Bip01_R_Finger22" 37
39 "ValveBiped.Bip01_R_Finger1" 29
40 "ValveBiped.Bip01_R_Finger11" 39
41 "ValveBiped.Bip01_R_Finger12" 40
42 "ValveBiped.Bip01_R_Finger0" 29
43 "ValveBiped.Bip01_R_Finger01" 42
44 "ValveBiped.Bip01_R_Finger02" 43
45 "ValveBiped.Bip01_R_Ulna" 28
46 "ValveBiped.Bip01_R_Wrist" 28
47 "rig_r_upperarm" 26
48 "rig_r_forearm" 47
49 "rig_d_r_forearm" 48
50 "rig_d_r_upperarm" 47
51 "rig_r_hand" -1
52 "rig_d_r_hand" 51
53 "rig_d_r_wrist" 52
54 "rig_l_hand" -1
55 "rig_d_l_hand" 54
56 "rig_d_l_wrist" 54
57 "rig_l_pole" -1
58 "rig_r_pole" -1
59 "rig_l_clavicle" -1
60 "rig_d_l_clavicle" 59
61 "rig_r_clavicle" -1
62 "rig_d_r_clavicle" 61
63 "Camera" -1
64 "body" -1
65 "trigger" 64
66 "barrel" 64
67 "bulletdoor" 64
68 "pump" 64
69 "bolt" 68
70 "tac" 68
71 "bullet2" 64
72 "catch" 64
73 "hookontop" 64
74 "bullet1" -1
end
skeleton
time 0
0  0.000006 0.000000 0.000000  -1.570800 -1.391899 -1.570792
1  2.033349 1.000767 1.937657  -1.544956 -1.855077 -0.198630
2  6.027514 -0.000325 0.000203  -1.578134 0.019585 -0.589035
3  11.692119 0.000651 -0.000739  -0.000006 -0.000000 -0.007115
4  11.999127 0.001590 -0.000766  1.595761 -0.165077 0.023306
5  3.859509 -0.142880 -1.192049  -0.468164 0.151540 -0.880272
6  1.312589 0.000013 0.000008  -0.000026 0.000045 -0.439738
7  0.729353 0.000057 0.000050  0.000017 0.000021 -0.244318
8  3.942147 0.046273 -0.431512  -0.151810 0.073212 -0.811101
9  1.539113 0.000082 0.000005  -0.000007 0.000021 -0.247841
10  1.196333 0.000144 0.000029  0.000011 0.000019 -0.430771
11  3.883508 -0.047271 0.431381  0.085898 0.021851 -0.587925
12  1.719573 -0.000027 0.000015  0.000015 0.005519 -0.366533
13  1.209179 0.000092 0.000012  0.000004 0.003092 -0.216437
14  3.859665 -0.138476 1.332410  0.354468 -0.042725 -0.531804
15  1.719447 -0.000013 0.000021  0.000029 0.004070 -0.363021
16  1.099675 0.000050 0.000006  0.000003 0.002579 -0.244381
17  0.805995 -0.349051 1.321254  -1.222687 -0.679194 -0.788886
18  1.789824 -0.000000 -0.000020  0.000012 -0.000024 0.228522
19  1.207013 -0.000009 -0.000043  0.000002 -0.000008 0.362858
20  5.740632 0.000410 -0.000703  0.003178 0.000003 0.000071
21  11.584835 0.000527 -0.000812  0.009109 -0.011370 -0.004794
22  6.027524 -0.000330 0.000203  0.025560 -2.447253 -2.176251
23  -0.000000 11.692099 -0.000007  -0.005466 -0.000058 -0.004620
24  0.000005 0.000008 -0.000000  0.868996 -0.000031 1.570738
25  -0.000001 -0.000011 -0.000001  0.868957 0.000002 1.570712
26  2.033355 1.000772 -1.937609  1.473120 1.855075 -0.198639
27  6.027509 -0.000258 -0.000243  1.392296 -0.308158 -0.716045
28  11.691988 0.000245 0.000856  -0.000051 -0.000000 -0.007106
29  15.731141 0.011821 0.001120  -1.322590 0.229004 -0.243062
30  3.859436 -0.132788 1.193061  0.466291 -0.158048 -0.878829
31  1.312555 0.000029 -0.000000  0.000011 -0.000044 -0.439710
32  0.729342 0.000063 -0.000027  -0.000023 -0.000019 -0.244285
33  3.942044 0.050108 0.430997  0.150090 -0.079180 -0.810199
34  1.539097 0.000009 -0.000001  0.000010 -0.000008 -0.247820
35  1.196300 0.000072 -0.000004  -0.000007 -0.000009 -0.430783
36  3.883408 -0.050500 -0.431087  -0.085915 -0.026391 -0.587671
37  1.719566 -0.000079 -0.000003  -0.000006 -0.007962 -0.366483
38  1.209195 0.000035 0.000010  0.000002 -0.004460 -0.216413
39  3.859584 -0.149111 -1.331324  -0.354446 0.038580 -0.531962
40  1.719412 -0.000100 -0.000035  -0.000028 -0.006585 -0.363032
41  1.099674 0.000024 0.000006  0.000004 -0.004187 -0.244346
42  0.805979 -0.359854 -1.318339  1.221444 0.673631 -0.793566
43  1.789779 -0.000009 -0.000042  -0.000028 0.000031 0.228552
44  1.206998 -0.000003 0.000006  -0.000017 0.000020 0.362911
45  5.740571 0.000055 0.000724  0.133437 -0.000014 0.000021
46  12.331173 0.002399 0.000973  0.049549 0.021152 -0.066099
47  6.027514 -0.000273 -0.000237  0.463503 -0.825111 -2.638807
48  -0.000001 11.691972 -0.000005  -0.005438 0.000036 0.004597
49  0.000004 -0.000000 0.000000  2.272569 -0.000041 1.570856
50  -0.000007 -0.000015 0.000005  2.272644 -0.000030 1.570865
51  -22.082058 8.060896 -21.238316  -1.641353 2.327627 -0.082580
52  -0.000001 0.000001 -0.000000  0.008153 -0.000259 0.000009
53  -0.000002 0.000001 -0.000001  1.565115 0.043565 -0.106862
54  22.941027 -1.017549 -18.021313  1.632296 0.707372 0.045120
55  0.000001 0.000000 0.000000  0.000000 -0.000000 -0.000002
56  0.000032 0.000030 0.000001  -1.571901 -0.044449 -0.106509
57  15.265023 8.339654 -8.787539  1.570796 -0.000000 0.000000
58  -15.265000 8.339654 -8.787539  1.570796 -0.000000 0.000000
59  1.941978 -1.346989 1.821586  1.570796 -0.000000 0.000000
60  -0.004311 0.001230 -0.000371  0.006898 -0.005534 -0.284229
61  -1.937603 -1.346625 1.822824  1.570796 -0.000000 0.000000
62  0.000000 0.000000 0.000000  -0.078727 -3.136056 0.284226
63  0.000000 0.000000 0.000000  1.570796 -0.000000 0.000000
64  -3.258810 -12.631968 -3.682181  1.570796 -0.000000 0.000000
65  -0.109379 -1.951951 -1.519205  0.000000 -0.000000 0.000000
66  -0.109379 0.057027 25.399252  0.000000 -0.000000 0.000000
67  -0.109379 -1.856732 0.287230  0.000000 -0.000000 0.000000
68  -0.104048 -4.495923 7.879276  0.000000 -0.000000 0.000000
69  -0.195264 4.332630 -6.347187  0.000000 -0.000000 0.000000
70  -1.290112 3.693283 8.579668  0.000000 -0.000000 0.000000
71  -0.104049 -1.582848 2.554636  0.000000 -0.000000 0.000000
72  -1.107528 -1.063453 4.061647  0.000000 -0.000000 0.000000
73  0.003659 1.612363 10.733982  0.000000 -0.000000 0.000000
74  -3.362859 -12.987121 -5.265029  1.570796 -0.000000 0.000000
end
triangles
lowpoly_plastic
0  -3.925622 4.160902 -6.925927  -0.723041 0.690805 0.000000  0.005204 0.735637 1 64 1.000000
0  -3.816530 4.275084 -8.420763  -0.723060 0.690785 -0.000003  0.005204 0.735637 1 64 1.000000
0  -3.925619 4.160897 -8.666185  -0.723061 0.690784 -0.000003  0.005204 0.735637 1 64 1.000000
lowpoly_plastic
0  -4.081302 4.160903 -6.350734  -0.678861 0.734267 0.000000  0.005204 0.735637 1 64 1.000000
0  -3.957801 4.275083 -4.572223  -0.678858 0.734269 0.000000  0.005204 0.735637 1 64 1.000000
0  -3.957802 4.275083 -6.319631  -0.678861 0.734267 0.000000  0.005204 0.735637 1 64 1.000000
lowpoly_plastic
0  -3.816530 4.275084 -6.841582  0.000009 1.000000 0.000002  0.004465 0.740067 1 64 1.000000
0  -3.373438 4.275080 -8.420763  0.000001 1.000000 0.000001  0.004465 0.740067 1 64 1.000000
0  -3.816530 4.275084 -8.420763  0.000009 1.000000 0.000000  0.004465 0.740067 1 64 1.000000
lowpoly_plastic
0  -3.957802 4.275083 -6.319631  0.000004 1.000000 -0.000001  0.004465 0.740067 1 64 1.000000
0  -3.373441 4.275085 -4.202478  -0.000001 1.000000 0.000002  0.004465 0.740067 1 64 1.000000
0  -3.373438 4.275080 -6.841582  0.000003 1.000000 0.000000  0.004465 0.740067 1 64 1.000000
lowpoly_plastic
0  -4.081302 4.160903 -6.350734  -0.644412 0.744521 -0.174419  0.005204 0.735637 1 64 1.000000
0  -3.816530 4.275084 -6.841582  -0.644411 0.744522 -0.174415  0.005204 0.735637 1 64 1.000000
0  -3.925622 4.160902 -6.925927  -0.644411 0.744523 -0.174415  0.005204 0.735637 1 64 1.000000
lowpoly_plastic
0  -4.081301 4.160902 -4.425089  -0.424331 0.852466 0.305360  0.005204 0.735637 1 64 1.000000
0  -3.769661 4.275079 -4.310775  -0.424330 0.852469 0.305355  0.005204 0.735637 1 64 1.000000
0  -3.957801 4.275083 -4.572223  -0.424332 0.852463 0.305368  0.005204 0.735637 1 64 1.000000
lowpoly_plastic
0  -3.373439 4.160900 -8.666185  -0.000002 0.906676 -0.421827  0.005204 0.735637 1 64 1.000000
0  -3.816530 4.275084 -8.420763  -0.000002 0.906672 -0.421837  0.005204 0.735637 1 64 1.000000
0  -3.373438 4.275080 -8.420763  -0.000000 0.906679 -0.421822  0.005204 0.735637 1 64 1.000000
lowpoly_plastic
0  -3.373438 4.160899 -4.017630  -0.117972 0.860963 0.494798  0.005204 0.735637 1 64 1.000000
0  -3.769661 4.275079 -4.310775  -0.117972 0.860963 0.494798  0.005204 0.735637 1 64 1.000000
0  -3.873976 4.160899 -4.136971  -0.117972 0.860963 0.494798  0.005204 0.735637 1 64 1.000000
lowpoly_plastic
0  -2.930349 4.275084 -8.420765  0.723044 0.690802 0.000003  0.005204 0.735637 1 64 1.000000
0  -2.821261 4.160899 -6.925927  0.723042 0.690804 0.000003  0.005204 0.735637 1 64 1.000000
0  -2.821258 4.160902 -8.666185  0.723044 0.690802 0.000003  0.005204 0.735637 1 64 1.000000
lowpoly_plastic
0  -2.665581 4.160899 -6.350732  0.678867 0.734262 -0.000000  0.005204 0.735637 1 64 1.000000
0  -2.789079 4.275080 -4.572223  0.678866 0.734262 -0.000000  0.005204 0.735637 1 64 1.000000
0  -2.665581 4.160899 -4.425089  0.678866 0.734262 0.000000  0.005204 0.735637 1 64 1.000000
lowpoly_plastic
0  -2.930352 4.275081 -6.841582  -0.000003 1.000000 0.000001  0.004465 0.740067 1 64 1.000000
0  -3.373438 4.275080 -8.420763  0.000001 1.000000 0.000001  0.004465 0.740067 1 64 1.000000
0  -3.373438 4.275080 -6.841582  0.000003 1.000000 0.000000  0.004465 0.740067 1 64 1.000000
lowpoly_plastic
0  -3.373441 4.275085 -4.202478  -0.000001 1.000000 0.000002  0.004465 0.740067 1 64 1.000000
0  -2.789079 4.275080 -4.572223  0.000008 1.000000 -0.000002  0.004465 0.740067 1 64 1.000000
0  -2.789080 4.275081 -6.319629  0.000001 1.000000 -0.000001  0.004465 0.740067 1 64 1.000000
lowpoly_plastic
0  -2.930352 4.275081 -6.841582  0.644413 0.744521 -0.174417  0.005204 0.735637 1 64 1.000000
0  -2.665581 4.160899 -6.350732  0.644417 0.744516 -0.174417  0.005204 0.735637 1 64 1.000000
0  -2.821261 4.160899 -6.925927  0.644411 0.744522 -0.174416  0.005204 0.735637 1 64 1.000000
lowpoly_plastic
0  -2.665581 4.160899 -4.425089  0.424350 0.852458 0.305356  0.005204 0.735637 1 64 1.000000
0  -2.977220 4.275084 -4.310775  0.424350 0.852458 0.305356  0.005204 0.735637 1 64 1.000000
0  -2.872909 4.160900 -4.136971  0.424350 0.852458 0.305357  0.005204 0.735637 1 64 1.000000
lowpoly_plastic
0  -3.373439 4.160900 -8.666185  -0.000002 0.906676 -0.421827  0.005204 0.735637 1 64 1.000000
0  -2.930349 4.275084 -8.420765  -0.000004 0.906675 -0.421829  0.005204 0.735637 1 64 1.000000
0  -2.821258 4.160902 -8.666185  -0.000002 0.906674 -0.421832  0.005204 0.735637 1 64 1.000000
lowpoly_plastic
0  -2.977220 4.275084 -4.310775  0.117975 0.860954 0.494813  0.005204 0.735637 1 64 1.000000
0  -3.373438 4.160899 -4.017630  0.117975 0.860954 0.494813  0.005204 0.735637 1 64 1.000000
0  -2.872909 4.160900 -4.136971  0.117975 0.860954 0.494813  0.005204 0.735637 1 64 1.000000
lowpoly_metal
0  -4.137819 3.516782 -4.388704  -0.000026 1.000000 0.000000  0.028340 0.414408 1 64 1.000000
0  -3.998354 3.516785 -5.060252  -0.000006 1.000000 0.000000  0.028340 0.414408 1 64 1.000000
0  -4.137819 3.516782 -5.060252  -0.000026 1.000000 0.000000  0.028340 0.414408 1 64 1.000000
lowpoly_metal
0  -3.998350 2.572961 -4.388705  1.000000 -0.000001 -0.000000  0.028340 0.414408 1 64 1.000000
0  -3.998357 -7.712343 -5.060254  1.000000 0.000001 -0.000000  0.028340 0.414408 1 64 1.000000
0  -3.998350 2.572961 -5.060253  1.000000 -0.000001 -0.000000  0.028340 0.414408 1 64 1.000000
lowpoly_metal
0  -4.137823 -7.712345 -5.060254  -1.000000 0.000003 0.000000  0.028340 0.414408 1 64 1.000000
0  -4.137825 -7.974186 -4.454328  -1.000000 -0.000004 0.000000  0.028340 0.414408 1 64 1.000000
0  -4.137823 -7.712345 -4.388703  -1.000000 0.000003 0.000000  0.028340 0.414408 1 64 1.000000
lowpoly_metal
0  -4.137819 2.572964 -4.388704  -1.000000 0.000000 0.000000  0.028340 0.414408 1 64 1.000000
0  -4.137819 3.516782 -5.060252  -1.000000 0.000000 0.000000  0.028340 0.414408 1 64 1.000000
0  -4.137819 2.572964 -5.060252  -1.000000 0.000000 0.000000  0.028340 0.414408 1 64 1.000000
lowpoly_metal
0  -3.998357 -7.712343 -5.060254  -0.000005 0.000000 -1.000000  0.028340 0.414408 1 64 1.000000
0  -4.137819 2.572964 -5.060252  -0.000007 0.000000 -1.000000  0.028340 0.414408 1 64 1.000000
0  -3.998350 2.572961 -5.060253  -0.000007 0.000000 -1.000000  0.028340 0.414408 1 64 1.000000
lowpoly_metal
0  -3.998354 3.516785 -4.388704  0.000001 -0.000000 1.000000  0.028340 0.414408 1 64 1.000000
0  -4.137819 2.572964 -4.388704  0.000007 -0.000000 1.000000  0.028340 0.414408 1 64 1.000000
0  -3.998350 2.572961 -4.388705  0.000007 -0.000000 1.000000  0.028340 0.414408 1 64 1.000000
lowpoly_metal
0  -4.137825 -7.974186 -4.454328  -1.000000 -0.000004 0.000000  0.028340 0.414408 1 64 1.000000
0  -4.137822 -8.074902 -4.874091  -1.000000 -0.000030 0.000000  0.028340 0.414408 1 64 1.000000
0  -4.137822 -8.074902 -4.574867  -1.000000 -0.000032 0.000002  0.028340 0.414408 1 64 1.000000
lowpoly_metal
0  -4.137823 -7.712345 -5.060254  -0.000002 -0.243111 -0.969998  0.028340 0.414408 1 64 1.000000
0  -3.998356 -7.974189 -4.994627  -0.000005 -0.243114 -0.969998  0.028340 0.414408 1 64 1.000000
0  -4.137825 -7.974186 -4.994627  -0.000007 -0.243116 -0.969997  0.028340 0.414408 1 64 1.000000
lowpoly_metal
0  -3.998357 -7.712343 -4.388703  0.000005 -0.243111 0.969998  0.028340 0.414408 1 64 1.000000
0  -4.137825 -7.974186 -4.454328  0.000003 -0.243110 0.969999  0.028340 0.414408 1 64 1.000000
0  -3.998356 -7.974190 -4.454329  0.000002 -0.243109 0.969999  0.028340 0.414408 1 64 1.000000
lowpoly_metal
0  -3.998357 -7.712343 -4.388703  1.000000 0.000002 -0.000000  0.028340 0.414408 1 64 1.000000
0  -3.998356 -7.974189 -4.994627  1.000000 0.000001 -0.000000  0.028340 0.414408 1 64 1.000000
0  -3.998357 -7.712343 -5.060254  1.000000 0.000001 -0.000000  0.028340 0.414408 1 64 1.000000
lowpoly_metal
0  -3.998357 -8.074898 -4.574867  0.000027 -1.000000 0.000003  0.028340 0.414408 1 64 1.000000
0  -4.137822 -8.074902 -4.874091  0.000027 -1.000000 0.000001  0.028340 0.414408 1 64 1.000000
0  -3.998357 -8.074898 -4.874090  0.000027 -1.000000 0.000000  0.028340 0.414408 1 64 1.000000
lowpoly_metal
0  -4.137825 -7.974186 -4.994627  -0.000000 -0.767391 -0.641179  0.028340 0.414408 1 64 1.000000
0  -3.998357 -8.074898 -4.874090  0.000003 -0.767389 -0.641182  0.028340 0.414408 1 64 1.000000
0  -4.137822 -8.074902 -4.874091  0.000025 -0.767376 -0.641198  0.028340 0.414408 1 64 1.000000
lowpoly_metal
0  -4.137825 -7.974186 -4.454328  0.000002 -0.767397 0.641172  0.028340 0.414408 1 64 1.000000
0  -3.998357 -8.074898 -4.574867  0.000005 -0.767395 0.641174  0.028340 0.414408 1 64 1.000000
0  -3.998356 -7.974190 -4.454329  -0.000014 -0.767406 0.641161  0.028340 0.414408 1 64 1.000000
lowpoly_metal
0  -3.998356 -7.974190 -4.454329  1.000000 0.000001 -0.000001  0.028340 0.414408 1 64 1.000000
0  -3.998357 -8.074898 -4.874090  1.000000 -0.000009 -0.000000  0.028340 0.414408 1 64 1.000000
0  -3.998356 -7.974189 -4.994627  1.000000 0.000001 -0.000000  0.028340 0.414408 1 64 1.000000
lowpoly_metal
0  -3.998350 2.572961 -4.388705  0.000007 -0.000000 1.000000  0.028340 0.414408 1 64 1.000000
0  -4.137823 -7.712345 -4.388703  0.000001 0.000000 1.000000  0.028340 0.414408 1 64 1.000000
0  -3.998357 -7.712343 -4.388703  0.000001 0.000000 1.000000  0.028340 0.414408 1 64 1.000000
lowpoly_metal
0  -3.998350 2.572961 -5.060253  -0.000007 0.000000 -1.000000  0.028340 0.414408 1 64 1.000000
0  -4.137819 3.516782 -5.060252  -0.000001 0.000001 -1.000000  0.028340 0.414408 1 64 1.000000
0  -3.998354 3.516785 -5.060252  -0.000000 0.000001 -1.000000  0.028340 0.414408 1 64 1.000000
lowpoly_metal
0  -4.137823 -7.712345 -4.388703  -1.000000 0.000003 0.000000  0.028340 0.414408 1 64 1.000000
0  -4.137819 2.572964 -5.060252  -1.000000 0.000000 0.000000  0.028340 0.414408 1 64 1.000000
0  -4.137823 -7.712345 -5.060254  -1.000000 0.000003 0.000000  0.028340 0.414408 1 64 1.000000
lowpoly_metal
0  -3.998354 3.516785 -5.060252  0.468131 0.000002 -0.883659  0.028340 0.414408 1 64 1.000000
0  -3.815363 2.572962 -4.963311  0.468135 0.000003 -0.883657  0.028340 0.414408 1 64 1.000000
0  -3.998350 2.572961 -5.060253  0.468136 0.000003 -0.883656  0.028340 0.414408 1 64 1.000000
lowpoly_metal
0  -3.815362 2.572962 -4.485646  -0.000011 -1.000000 0.000000  0.028340 0.414408 1 64 1.000000
0  -3.705315 2.572958 -4.963311  -0.000030 -1.000000 0.000000  0.028340 0.414408 1 64 1.000000
0  -3.705314 2.572958 -4.485646  -0.000030 -1.000000 0.000000  0.028340 0.414408 1 64 1.000000
lowpoly_metal
0  -3.998350 2.572961 -4.388705  0.000004 -1.000000 0.000000  0.028340 0.414408 1 64 1.000000
0  -3.815363 2.572962 -4.963311  -0.000011 -1.000000 0.000000  0.028340 0.414408 1 64 1.000000
0  -3.815362 2.572962 -4.485646  -0.000011 -1.000000 0.000000  0.028340 0.414408 1 64 1.000000
lowpoly_metal
0  -3.998350 2.572961 -4.388705  0.468132 -0.000000 0.883659  0.028340 0.414408 1 64 1.000000
0  -3.815363 3.516781 -4.485645  0.468129 0.000001 0.883660  0.028340 0.414408 1 64 1.000000
0  -3.998354 3.516785 -4.388704  0.468128 0.000001 0.883661  0.028340 0.414408 1 64 1.000000
lowpoly_metal
0  -3.998354 3.516785 -5.060252  -0.000006 1.000000 0.000000  0.028340 0.414408 1 64 1.000000
0  -3.815363 3.516781 -4.485645  0.000007 1.000000 0.000000  0.028340 0.414408 1 64 1.000000
0  -3.815364 3.516781 -4.963310  0.000007 1.000000 0.000000  0.028340 0.414408 1 64 1.000000
lowpoly_metal
0  -3.705318 3.516783 -4.485645  0.000001 -0.000001 1.000000  0.028340 0.414408 1 64 1.000000
0  -3.542743 2.677959 -4.485646  0.000002 -0.000001 1.000000  0.028340 0.414408 1 64 1.000000
0  -3.542740 3.621779 -4.485645  0.000000 -0.000001 1.000000  0.028340 0.414408 1 64 1.000000
lowpoly_metal
0  -3.815364 3.516781 -4.963310  -0.000000 0.000001 -1.000000  0.028340 0.414408 1 64 1.000000
0  -3.705315 2.572958 -4.963311  -0.000002 0.000001 -1.000000  0.028340 0.414408 1 64 1.000000
0  -3.815363 2.572962 -4.963311  -0.000002 0.000001 -1.000000  0.028340 0.414408 1 64 1.000000
lowpoly_metal
0  -3.815362 2.572962 -4.485646  0.000000 -0.000001 1.000000  0.028340 0.414408 1 64 1.000000
0  -3.705318 3.516783 -4.485645  0.000001 -0.000001 1.000000  0.028340 0.414408 1 64 1.000000
0  -3.815363 3.516781 -4.485645  0.000003 -0.000001 1.000000  0.028340 0.414408 1 64 1.000000
lowpoly_metal
0  -3.815363 3.516781 -4.485645  0.000007 1.000000 0.000000  0.028340 0.414408 1 64 1.000000
0  -3.705319 3.516783 -4.963310  -0.000015 1.000000 0.000000  0.028340 0.414408 1 64 1.000000
0  -3.815364 3.516781 -4.963310  0.000007 1.000000 0.000000  0.028340 0.414408 1 64 1.000000
lowpoly_metal
0  -3.542740 3.621779 -4.485645  1.000000 -0.000004 -0.000000  0.028340 0.414408 1 64 1.000000
0  -3.542744 2.677959 -4.963311  1.000000 -0.000004 -0.000000  0.028340 0.414408 1 64 1.000000
0  -3.542740 3.621779 -4.963310  1.000000 -0.000004 -0.000000  0.028340 0.414408 1 64 1.000000
lowpoly_metal
0  -3.705318 3.516783 -4.485645  -0.542516 0.840045 0.000000  0.028340 0.414408 1 64 1.000000
0  -3.542740 3.621779 -4.963310  -0.542517 0.840045 0.000000  0.028340 0.414408 1 64 1.000000
0  -3.705319 3.516783 -4.963310  -0.542517 0.840045 0.000000  0.028340 0.414408 1 64 1.000000
lowpoly_metal
0  -3.705315 2.572958 -4.963311  0.542551 -0.840023 -0.000000  0.028340 0.414408 1 64 1.000000
0  -3.542743 2.677959 -4.485646  0.542551 -0.840023 -0.000000  0.028340 0.414408 1 64 1.000000
0  -3.705314 2.572958 -4.485646  0.542551 -0.840023 0.000000  0.028340 0.414408 1 64 1.000000
lowpoly_metal
0  -3.705319 3.516783 -4.963310  -0.000000 0.000001 -1.000000  0.028340 0.414408 1 64 1.000000
0  -3.542744 2.677959 -4.963311  -0.000002 0.000001 -1.000000  0.028340 0.414408 1 64 1.000000
0  -3.705315 2.572958 -4.963311  -0.000002 0.000001 -1.000000  0.028340 0.414408 1 64 1.000000
lowpoly_metal
0  -2.748528 3.516781 -5.060253  0.000004 1.000000 -0.000000  0.028340 0.414408 1 64 1.000000
0  -2.609065 3.516781 -4.388703  -0.000003 1.000000 0.000000  0.028340 0.414408 1 64 1.000000
0  -2.609065 3.516781 -5.060253  -0.000003 1.000000 0.000000  0.028340 0.414408 1 64 1.000000
lowpoly_metal
0  -2.748531 -7.712346 -5.060253  -1.000000 0.000002 0.000000  0.028340 0.414408 1 64 1.000000
0  -2.748527 2.572962 -4.388703  -1.000000 0.000000 0.000000  0.028340 0.414408 1 64 1.000000
0  -2.748527 2.572962 -5.060253  -1.000000 0.000000 0.000000  0.028340 0.414408 1 64 1.000000
lowpoly_metal
0  -2.609066 -7.974187 -4.454329  1.000000 0.000011 -0.000002  0.028340 0.414408 1 64 1.000000
0  -2.609068 -7.712346 -5.060253  1.000000 0.000002 0.000000  0.028340 0.414408 1 64 1.000000
0  -2.609068 -7.712346 -4.388704  1.000000 0.000002 -0.000000  0.028340 0.414408 1 64 1.000000
lowpoly_metal
0  -2.609066 2.572963 -5.060253  1.000000 -0.000001 -0.000000  0.028340 0.414408 1 64 1.000000
0  -2.609065 3.516781 -4.388703  1.000000 -0.000001 -0.000000  0.028340 0.414408 1 64 1.000000
0  -2.609065 2.572963 -4.388703  1.000000 -0.000000 -0.000000  0.028340 0.414408 1 64 1.000000
lowpoly_metal
0  -2.609066 2.572963 -5.060253  0.000001 0.000000 -1.000000  0.028340 0.414408 1 64 1.000000
0  -2.748531 -7.712346 -5.060253  0.000000 0.000000 -1.000000  0.028340 0.414408 1 64 1.000000
0  -2.748527 2.572962 -5.060253  0.000001 0.000000 -1.000000  0.028340 0.414408 1 64 1.000000
lowpoly_metal
0  -2.609065 2.572963 -4.388703  -0.000004 0.000001 1.000000  0.028340 0.414408 1 64 1.000000
0  -2.748528 3.516781 -4.388705  -0.000010 0.000000 1.000000  0.028340 0.414408 1 64 1.000000
0  -2.748527 2.572962 -4.388703  -0.000003 0.000001 1.000000  0.028340 0.414408 1 64 1.000000
lowpoly_metal
0  -2.609066 -7.974187 -4.454329  1.000000 0.000011 -0.000002  0.028340 0.414408 1 64 1.000000
0  -2.609067 -8.074903 -4.874090  1.000000 -0.000001 -0.000001  0.028340 0.414408 1 64 1.000000
0  -2.609066 -7.974186 -4.994627  1.000000 0.000002 0.000000  0.028340 0.414408 1 64 1.000000
lowpoly_metal
0  -2.609066 -7.974186 -4.994627  0.000000 -0.243110 -0.969999  0.028340 0.414408 1 64 1.000000
0  -2.748531 -7.712346 -5.060253  0.000000 -0.243110 -0.969999  0.028340 0.414408 1 64 1.000000
0  -2.609068 -7.712346 -5.060253  0.000000 -0.243111 -0.969999  0.028340 0.414408 1 64 1.000000
lowpoly_metal
0  -2.748532 -7.974189 -4.454329  0.000000 -0.243110 0.969999  0.028340 0.414408 1 64 1.000000
0  -2.609068 -7.712346 -4.388704  0.000000 -0.243109 0.969999  0.028340 0.414408 1 64 1.000000
0  -2.748531 -7.712346 -4.388704  0.000000 -0.243109 0.969999  0.028340 0.414408 1 64 1.000000
lowpoly_metal
0  -2.748532 -7.974188 -4.994627  -1.000000 0.000006 0.000000  0.028340 0.414408 1 64 1.000000
0  -2.748531 -7.712346 -4.388704  -1.000000 0.000003 0.000000  0.028340 0.414408 1 64 1.000000
0  -2.748531 -7.712346 -5.060253  -1.000000 0.000002 0.000000  0.028340 0.414408 1 64 1.000000
lowpoly_metal
0  -2.609067 -8.074903 -4.874090  -0.000037 -1.000000 0.000001  0.028340 0.414408 1 64 1.000000
0  -2.748533 -8.074897 -4.574867  -0.000031 -1.000000 0.000004  0.028340 0.414408 1 64 1.000000
0  -2.748533 -8.074897 -4.874090  -0.000041 -1.000000 -0.000001  0.028340 0.414408 1 64 1.000000
lowpoly_metal
0  -2.609067 -8.074903 -4.874090  -0.000011 -0.767395 -0.641175  0.028340 0.414408 1 64 1.000000
0  -2.748532 -7.974188 -4.994627  -0.000008 -0.767393 -0.641177  0.028340 0.414408 1 64 1.000000
0  -2.609066 -7.974186 -4.994627  0.000010 -0.767382 -0.641190  0.028340 0.414408 1 64 1.000000
lowpoly_metal
0  -2.748533 -8.074897 -4.574867  -0.000007 -0.767397 0.641172  0.028340 0.414408 1 64 1.000000
0  -2.609066 -7.974187 -4.454329  -0.000004 -0.767399 0.641170  0.028340 0.414408 1 64 1.000000
0  -2.748532 -7.974189 -4.454329  0.000011 -0.767409 0.641158  0.028340 0.414408 1 64 1.000000
lowpoly_metal
0  -2.748533 -8.074897 -4.874090  -1.000000 0.000008 0.000000  0.028340 0.414408 1 64 1.000000
0  -2.748532 -7.974189 -4.454329  -1.000000 0.000007 0.000001  0.028340 0.414408 1 64 1.000000
0  -2.748532 -7.974188 -4.994627  -1.000000 0.000006 0.000000  0.028340 0.414408 1 64 1.000000
lowpoly_metal
0  -2.609068 -7.712346 -4.388704  0.000000 -0.000000 1.000000  0.028340 0.414408 1 64 1.000000
0  -2.748527 2.572962 -4.388703  -0.000003 0.000001 1.000000  0.028340 0.414408 1 64 1.000000
0  -2.748531 -7.712346 -4.388704  0.000000 -0.000000 1.000000  0.028340 0.414408 1 64 1.000000
lowpoly_metal
0  -2.609065 3.516781 -5.060253  0.000000 0.000000 -1.000000  0.028340 0.414408 1 64 1.000000
0  -2.748527 2.572962 -5.060253  0.000001 0.000000 -1.000000  0.028340 0.414408 1 64 1.000000
0  -2.748528 3.516781 -5.060253  0.000000 0.000000 -1.000000  0.028340 0.414408 1 64 1.000000
lowpoly_metal
0  -2.609066 2.572963 -5.060253  1.000000 -0.000001 -0.000000  0.028340 0.414408 1 64 1.000000
0  -2.609068 -7.712346 -4.388704  1.000000 0.000002 -0.000000  0.028340 0.414408 1 64 1.000000
0  -2.609068 -7.712346 -5.060253  1.000000 0.000002 0.000000  0.028340 0.414408 1 64 1.000000
lowpoly_metal
0  -2.931520 2.572965 -4.963311  -0.468128 -0.000001 -0.883661  0.028340 0.414408 1 64 1.000000
0  -2.748528 3.516781 -5.060253  -0.468126 -0.000000 -0.883662  0.028340 0.414408 1 64 1.000000
0  -2.748527 2.572962 -5.060253  -0.468128 -0.000001 -0.883660  0.028340 0.414408 1 64 1.000000
lowpoly_metal
0  -3.041566 2.572962 -4.485646  0.000022 -1.000000 -0.000001  0.028340 0.414408 1 64 1.000000
0  -2.931520 2.572965 -4.963311  0.000001 -1.000000 0.000000  0.028340 0.414408 1 64 1.000000
0  -2.931520 2.572965 -4.485646  0.000001 -1.000000 -0.000000  0.028340 0.414408 1 64 1.000000
lowpoly_metal
0  -2.931520 2.572965 -4.485646  0.000001 -1.000000 -0.000000  0.028340 0.414408 1 64 1.000000
0  -2.748527 2.572962 -5.060253  -0.000016 -1.000000 0.000000  0.028340 0.414408 1 64 1.000000
0  -2.748527 2.572962 -4.388703  -0.000016 -1.000000 -0.000000  0.028340 0.414408 1 64 1.000000
lowpoly_metal
0  -2.931521 3.516783 -4.485646  -0.468122 0.000001 0.883664  0.028340 0.414408 1 64 1.000000
0  -2.748527 2.572962 -4.388703  -0.468126 -0.000000 0.883662  0.028340 0.414408 1 64 1.000000
0  -2.748528 3.516781 -4.388705  -0.468121 0.000001 0.883664  0.028340 0.414408 1 64 1.000000
lowpoly_metal
0  -2.748528 3.516781 -5.060253  0.000004 1.000000 -0.000000  0.028340 0.414408 1 64 1.000000
0  -2.931521 3.516783 -4.485646  0.000002 1.000000 -0.000000  0.028340 0.414408 1 64 1.000000
0  -2.748528 3.516781 -4.388705  0.000004 1.000000 0.000000  0.028340 0.414408 1 64 1.000000
lowpoly_metal
0  -3.041566 3.516782 -4.485646  0.000003 -0.000001 1.000000  0.028340 0.414408 1 64 1.000000
0  -3.204140 2.677956 -4.485646  0.000003 -0.000000 1.000000  0.028340 0.414408 1 64 1.000000
0  -3.041566 2.572962 -4.485646  -0.000002 0.000000 1.000000  0.028340 0.414408 1 64 1.000000
lowpoly_metal
0  -3.041566 2.572962 -4.963311  0.000000 0.000000 -1.000000  0.028340 0.414408 1 64 1.000000
0  -2.931521 3.516783 -4.963311  0.000003 0.000000 -1.000000  0.028340 0.414408 1 64 1.000000
0  -2.931520 2.572965 -4.963311  0.000000 0.000000 -1.000000  0.028340 0.414408 1 64 1.000000
lowpoly_metal
0  -3.041566 3.516782 -4.485646  0.000003 -0.000001 1.000000  0.028340 0.414408 1 64 1.000000
0  -2.931520 2.572965 -4.485646  -0.000005 0.000000 1.000000  0.028340 0.414408 1 64 1.000000
0  -2.931521 3.516783 -4.485646  0.000000 0.000000 1.000000  0.028340 0.414408 1 64 1.000000
lowpoly_metal
0  -2.931521 3.516783 -4.963311  0.000002 1.000000 -0.000000  0.028340 0.414408 1 64 1.000000
0  -3.041566 3.516782 -4.485646  -0.000015 1.000000 -0.000000  0.028340 0.414408 1 64 1.000000
0  -2.931521 3.516783 -4.485646  0.000002 1.000000 -0.000000  0.028340 0.414408 1 64 1.000000
lowpoly_metal
0  -3.204140 2.677956 -4.963311  -1.000000 0.000002 0.000000  0.028340 0.414408 1 64 1.000000
0  -3.204138 3.621777 -4.485645  -1.000000 0.000001 0.000000  0.028340 0.414408 1 64 1.000000
0  -3.204138 3.621777 -4.963310  -1.000000 0.000001 0.000000  0.028340 0.414408 1 64 1.000000
lowpoly_metal
0  -3.204138 3.621777 -4.963310  0.542527 0.840038 -0.000001  0.028340 0.414408 1 64 1.000000
0  -3.041566 3.516782 -4.485646  0.542526 0.840039 0.000001  0.028340 0.414408 1 64 1.000000
0  -3.041566 3.516782 -4.963311  0.542527 0.840038 -0.000001  0.028340 0.414408 1 64 1.000000
lowpoly_metal
0  -3.204140 2.677956 -4.485646  -0.542520 -0.840043 0.000000  0.028340 0.414408 1 64 1.000000
0  -3.041566 2.572962 -4.963311  -0.542520 -0.840043 0.000000  0.028340 0.414408 1 64 1.000000
0  -3.041566 2.572962 -4.485646  -0.542520 -0.840043 0.000000  0.028340 0.414408 1 64 1.000000
lowpoly_metal
0  -3.204140 2.677956 -4.963311  -0.000001 0.000000 -1.000000  0.028340 0.414408 1 64 1.000000
0  -3.041566 3.516782 -4.963311  -0.000003 0.000001 -1.000000  0.028340 0.414408 1 64 1.000000
0  -3.041566 2.572962 -4.963311  0.000000 0.000000 -1.000000  0.028340 0.414408 1 64 1.000000
lowpoly_plastic
0  -3.598490 3.632562 -5.082624  0.000001 1.000000 0.000000  0.005518 0.736972 1 64 1.000000
0  -3.148389 3.632562 -5.816548  0.000001 1.000000 0.000000  0.005518 0.736972 1 64 1.000000
0  -3.598490 3.632562 -5.816548  0.000001 1.000000 0.000000  0.005518 0.736972 1 64 1.000000
lowpoly_plastic
0  -3.148389 3.632561 -5.082624  1.000000 -0.000002 -0.000000  0.005518 0.736972 1 64 1.000000
0  -3.148390 2.898641 -5.816549  1.000000 -0.000002 -0.000001  0.005518 0.736972 1 64 1.000000
0  -3.148389 3.632562 -5.816548  1.000000 -0.000002 -0.000001  0.005518 0.736972 1 64 1.000000
lowpoly_plastic
0  -3.148390 2.898641 -5.082625  -0.000003 -1.000000 -0.000000  0.005518 0.736972 1 64 1.000000
0  -3.598488 2.898643 -5.816549  -0.000003 -1.000000 -0.000001  0.005518 0.736972 1 64 1.000000
0  -3.148390 2.898641 -5.816549  -0.000003 -1.000000 -0.000001  0.005518 0.736972 1 64 1.000000
lowpoly_plastic
0  -3.598488 2.898642 -5.082625  -1.000000 -0.000003 0.000000  0.005518 0.736972 1 64 1.000000
0  -3.598490 3.632562 -5.816548  -1.000000 -0.000002 -0.000000  0.005518 0.736972 1 64 1.000000
0  -3.598488 2.898643 -5.816549  -1.000000 -0.000003 -0.000000  0.005518 0.736972 1 64 1.000000
lowpoly_plastic
0  -3.148389 3.632562 -5.816548  1.000000 -0.000002 -0.000001  0.005518 0.736972 1 64 1.000000
0  -3.148391 3.551240 -6.819614  1.000000 -0.000021 -0.000001  0.005518 0.736972 1 64 1.000000
0  -3.148389 3.632562 -6.819614  1.000000 -0.000029 -0.000000  0.005518 0.736972 1 64 1.000000
lowpoly_plastic
0  -3.148390 2.898641 -5.082625  0.000001 -0.000001 1.000000  0.005518 0.736972 1 64 1.000000
0  -3.598490 3.632562 -5.082624  0.000001 -0.000001 1.000000  0.005518 0.736972 1 64 1.000000
0  -3.598488 2.898642 -5.082625  0.000001 -0.000001 1.000000  0.005518 0.736972 1 64 1.000000
lowpoly_plastic
0  -3.148391 3.551240 -6.819614  0.000001 0.000000 -1.000000  0.005518 0.736972 1 64 1.000000
0  -3.598487 3.632564 -6.819614  0.000003 0.000000 -1.000000  0.005518 0.736972 1 64 1.000000
0  -3.148389 3.632562 -6.819614  0.000001 0.000000 -1.000000  0.005518 0.736972 1 64 1.000000
lowpoly_plastic
0  -3.598490 3.632562 -5.816548  0.000001 1.000000 0.000000  0.005518 0.736972 1 64 1.000000
0  -3.148389 3.632562 -6.819614  0.000004 1.000000 0.000002  0.005518 0.736972 1 64 1.000000
0  -3.598487 3.632564 -6.819614  0.000005 1.000000 0.000002  0.005518 0.736972 1 64 1.000000
lowpoly_plastic
0  -3.598488 2.898643 -5.816549  -0.000003 -0.838212 -0.545344  0.005518 0.736972 1 64 1.000000
0  -3.148391 3.551240 -6.819614  -0.000000 -0.838213 -0.545344  0.005518 0.736972 1 64 1.000000
0  -3.148390 2.898641 -5.816549  -0.000004 -0.838212 -0.545345  0.005518 0.736972 1 64 1.000000
lowpoly_plastic
0  -3.598490 3.632562 -5.816548  -1.000000 -0.000002 -0.000000  0.005518 0.736972 1 64 1.000000
0  -3.598489 3.551239 -6.819614  -1.000000 0.000015 -0.000002  0.005518 0.736972 1 64 1.000000
0  -3.598488 2.898643 -5.816549  -1.000000 -0.000003 -0.000000  0.005518 0.736972 1 64 1.000000
lowpoly_plastic
0  -3.925622 4.160902 -6.925927  -1.000000 0.000004 -0.000001  0.005204 0.735637 1 64 1.000000
0  -3.925622 3.798945 -8.666185  -1.000000 0.000007 -0.000001  0.005204 0.735637 1 64 1.000000
0  -3.925625 3.460559 -6.925927  -1.000000 0.000004 -0.000001  0.005204 0.735637 1 64 1.000000
lowpoly_plastic
0  -3.373440 3.460555 -4.017630  -0.000000 -1.000000 0.000000  0.005204 0.735637 1 64 1.000000
0  -4.081302 3.460560 -6.350732  -0.000007 -1.000000 0.000000  0.005204 0.735637 1 64 1.000000
0  -3.373441 3.460555 -6.925927  -0.000001 -1.000000 -0.000000  0.005204 0.735637 1 64 1.000000
lowpoly_plastic
0  -3.373443 3.798947 -8.666185  -0.000000 0.000000 -1.000000  0.005204 0.735637 1 64 1.000000
0  -3.925619 4.160897 -8.666185  0.000001 0.000000 -1.000000  0.005204 0.735637 1 64 1.000000
0  -3.373439 4.160900 -8.666185  -0.000001 0.000000 -1.000000  0.005204 0.735637 1 64 1.000000
lowpoly_plastic
0  -3.925625 3.460559 -6.925927  -0.000005 -0.981615 -0.190873  0.005204 0.735637 1 64 1.000000
0  -3.373443 3.798947 -8.666185  0.000003 -0.981615 -0.190872  0.005204 0.735637 1 64 1.000000
0  -3.373441 3.460555 -6.925927  -0.000001 -0.981614 -0.190874  0.005204 0.735637 1 64 1.000000
lowpoly_plastic
0  -4.081305 3.460558 -4.425089  -1.000000 0.000003 -0.000000  0.005204 0.735637 1 64 1.000000
0  -4.081302 4.160903 -6.350734  -1.000000 0.000001 -0.000001  0.005204 0.735637 1 64 1.000000
0  -4.081302 3.460560 -6.350732  -1.000000 0.000000 -0.000001  0.005204 0.735637 1 64 1.000000
lowpoly_plastic
0  -3.373438 4.160899 -4.017630  -0.231924 0.000000 0.972734  0.005204 0.735637 1 64 1.000000
0  -3.873976 3.460559 -4.136971  -0.231925 0.000000 0.972734  0.005204 0.735637 1 64 1.000000
0  -3.373440 3.460555 -4.017630  -0.231926 0.000001 0.972734  0.005204 0.735637 1 64 1.000000
lowpoly_plastic
0  -3.873976 4.160899 -4.136971  -0.811693 0.000002 0.584084  0.005204 0.735637 1 64 1.000000
0  -4.081305 3.460558 -4.425089  -0.811691 0.000001 0.584087  0.005204 0.735637 1 64 1.000000
0  -3.873976 3.460559 -4.136971  -0.811690 0.000000 0.584089  0.005204 0.735637 1 64 1.000000
lowpoly_plastic
0  -3.925625 3.460559 -6.925927  -0.965270 0.000001 -0.261254  0.005204 0.735637 1 64 1.000000
0  -4.081302 4.160903 -6.350734  -0.965270 0.000002 -0.261254  0.005204 0.735637 1 64 1.000000
0  -3.925622 4.160902 -6.925927  -0.965269 0.000003 -0.261257  0.005204 0.735637 1 64 1.000000
lowpoly_plastic
0  -2.821262 3.798949 -8.666185  1.000000 -0.000008 0.000001  0.005204 0.735637 1 64 1.000000
0  -2.821261 4.160899 -6.925927  1.000000 -0.000000 -0.000000  0.005204 0.735637 1 64 1.000000
0  -2.821261 3.460558 -6.925928  1.000000 0.000001 -0.000000  0.005204 0.735637 1 64 1.000000
lowpoly_plastic
0  -3.373441 3.460555 -6.925927  -0.000001 -1.000000 -0.000000  0.005204 0.735637 1 64 1.000000
0  -2.665582 3.460559 -6.350733  0.000005 -1.000000 -0.000001  0.005204 0.735637 1 64 1.000000
0  -3.373440 3.460555 -4.017630  -0.000000 -1.000000 0.000000  0.005204 0.735637 1 64 1.000000
lowpoly_plastic
0  -2.821258 4.160902 -8.666185  0.000000 0.000000 -1.000000  0.005204 0.735637 1 64 1.000000
0  -3.373443 3.798947 -8.666185  -0.000000 0.000000 -1.000000  0.005204 0.735637 1 64 1.000000
0  -3.373439 4.160900 -8.666185  -0.000001 0.000000 -1.000000  0.005204 0.735637 1 64 1.000000
lowpoly_plastic
0  -3.373443 3.798947 -8.666185  0.000003 -0.981615 -0.190872  0.005204 0.735637 1 64 1.000000
0  -2.821261 3.460558 -6.925928  0.000004 -0.981615 -0.190874  0.005204 0.735637 1 64 1.000000
0  -3.373441 3.460555 -6.925927  -0.000001 -0.981614 -0.190874  0.005204 0.735637 1 64 1.000000
lowpoly_plastic
0  -2.665582 3.460559 -6.350733  1.000000 -0.000001 -0.000000  0.005204 0.735637 1 64 1.000000
0  -2.665581 4.160899 -4.425089  1.000000 -0.000001 -0.000000  0.005204 0.735637 1 64 1.000000
0  -2.665581 3.460558 -4.425090  1.000000 -0.000001 -0.000000  0.005204 0.735637 1 64 1.000000
lowpoly_plastic
0  -2.872909 3.460557 -4.136972  0.231929 -0.000001 0.972733  0.005204 0.735637 1 64 1.000000
0  -3.373438 4.160899 -4.017630  0.231928 -0.000001 0.972733  0.005204 0.735637 1 64 1.000000
0  -3.373440 3.460555 -4.017630  0.231929 -0.000001 0.972733  0.005204 0.735637 1 64 1.000000
lowpoly_plastic
0  -2.665581 3.460558 -4.425090  0.811691 -0.000001 0.584088  0.005204 0.735637 1 64 1.000000
0  -2.872909 4.160900 -4.136971  0.811691 -0.000002 0.584087  0.005204 0.735637 1 64 1.000000
0  -2.872909 3.460557 -4.136972  0.811691 -0.000001 0.584088  0.005204 0.735637 1 64 1.000000
lowpoly_plastic
0  -2.821261 3.460558 -6.925928  0.965269 -0.000000 -0.261256  0.005204 0.735637 1 64 1.000000
0  -2.665581 4.160899 -6.350732  0.965269 -0.000000 -0.261256  0.005204 0.735637 1 64 1.000000
0  -2.665582 3.460559 -6.350733  0.965270 -0.000001 -0.261255  0.005204 0.735637 1 64 1.000000
lowpoly_plastic
0  -2.688376 3.522336 -4.748602  0.923878 0.000002 0.382687  0.005518 0.736972 1 64 1.000000
0  -2.889026 2.616276 -4.264191  0.923878 0.000002 0.382686  0.005518 0.736972 1 64 1.000000
0  -2.688375 2.616273 -4.748602  0.923878 0.000002 0.382686  0.005518 0.736972 1 64 1.000000
lowpoly_plastic
0  -2.889029 3.522331 -4.264189  0.382686 -0.000001 0.923879  0.005518 0.736972 1 64 1.000000
0  -3.373441 2.616273 -4.063538  0.382686 -0.000001 0.923878  0.005518 0.736972 1 64 1.000000
0  -2.889026 2.616276 -4.264191  0.382687 -0.000001 0.923878  0.005518 0.736972 1 64 1.000000
lowpoly_plastic
0  -3.373443 3.522336 -4.063537  -0.382688 -0.000002 0.923878  0.005518 0.736972 1 64 1.000000
0  -3.857854 2.616269 -4.264191  -0.382688 -0.000002 0.923878  0.005518 0.736972 1 64 1.000000
0  -3.373441 2.616273 -4.063538  -0.382688 -0.000002 0.923878  0.005518 0.736972 1 64 1.000000
lowpoly_plastic
0  -3.857856 3.522332 -4.264190  -0.923879 -0.000002 0.382684  0.005518 0.736972 1 64 1.000000
0  -4.058505 2.616273 -4.748604  -0.923879 -0.000002 0.382684  0.005518 0.736972 1 64 1.000000
0  -3.857854 2.616269 -4.264191  -0.923879 -0.000003 0.382685  0.005518 0.736972 1 64 1.000000
lowpoly_plastic
0  -4.058507 3.522335 -4.748603  -0.923880 -0.000002 -0.382683  0.005518 0.736972 1 64 1.000000
0  -3.857854 2.616270 -5.233018  -0.923880 -0.000002 -0.382683  0.005518 0.736972 1 64 1.000000
0  -4.058505 2.616273 -4.748604  -0.923880 -0.000002 -0.382684  0.005518 0.736972 1 64 1.000000
lowpoly_plastic
0  -3.857856 3.522332 -5.233017  -0.382685 0.000000 -0.923879  0.005518 0.736972 1 64 1.000000
0  -3.373441 2.616274 -5.433670  -0.382684 0.000000 -0.923879  0.005518 0.736972 1 64 1.000000
0  -3.857854 2.616270 -5.233018  -0.382683 0.000000 -0.923880  0.005518 0.736972 1 64 1.000000
lowpoly_plastic
0  -3.373443 3.522336 -5.433669  -0.000000 1.000000 -0.000004  0.005518 0.736972 1 64 1.000000
0  -4.058507 3.522335 -4.748603  -0.000006 1.000000 0.000001  0.005518 0.736972 1 64 1.000000
0  -3.373443 3.522336 -4.063537  -0.000000 1.000000 0.000005  0.005518 0.736972 1 64 1.000000
lowpoly_plastic
0  -3.373443 3.522336 -5.433669  0.382683 0.000001 -0.923880  0.005518 0.736972 1 64 1.000000
0  -2.889026 2.616277 -5.233018  0.382683 0.000002 -0.923880  0.005518 0.736972 1 64 1.000000
0  -3.373441 2.616274 -5.433670  0.382683 0.000002 -0.923880  0.005518 0.736972 1 64 1.000000
lowpoly_plastic
0  -2.889029 3.522331 -5.233018  0.923879 0.000002 -0.382684  0.005518 0.736972 1 64 1.000000
0  -2.688375 2.616273 -4.748602  0.923879 0.000002 -0.382684  0.005518 0.736972 1 64 1.000000
0  -2.889026 2.616277 -5.233018  0.923879 0.000003 -0.382684  0.005518 0.736972 1 64 1.000000
lowpoly_plastic
0  -3.373441 2.616273 -4.063538  0.000005 -1.000000 -0.000007  0.005518 0.736972 1 64 1.000000
0  -3.105242 2.616277 -4.480402  -0.000008 -1.000000 0.000007  0.005518 0.736972 1 64 1.000000
0  -2.889026 2.616276 -4.264191  -0.000001 -1.000000 0.000003  0.005518 0.736972 1 64 1.000000
lowpoly_plastic
0  -3.373441 2.616273 -4.369310  0.382681 0.000003 -0.923880  0.005518 0.736972 1 64 1.000000
0  -3.641643 2.874765 -4.480402  0.382681 0.000002 -0.923880  0.005518 0.736972 1 64 1.000000
0  -3.373444 2.874768 -4.369310  0.382682 0.000005 -0.923880  0.005518 0.736972 1 64 1.000000
lowpoly_plastic
0  -3.857854 2.616270 -5.233018  0.000019 -1.000000 0.000015  0.005518 0.736972 1 64 1.000000
0  -3.752734 2.616276 -4.748602  0.000015 -1.000000 0.000006  0.005518 0.736972 1 64 1.000000
0  -4.058505 2.616273 -4.748604  0.000014 -1.000000 0.000002  0.005518 0.736972 1 64 1.000000
lowpoly_plastic
0  -2.889026 2.616277 -5.233018  -0.000001 -1.000000 -0.000005  0.005518 0.736972 1 64 1.000000
0  -2.994146 2.616270 -4.748602  0.000001 -1.000000 -0.000000  0.005518 0.736972 1 64 1.000000
0  -3.105242 2.616277 -5.016805  -0.000008 -1.000000 -0.000008  0.005518 0.736972 1 64 1.000000
lowpoly_plastic
0  -2.889026 2.616276 -4.264191  -0.000001 -1.000000 0.000003  0.005518 0.736972 1 64 1.000000
0  -2.994146 2.616270 -4.748602  0.000001 -1.000000 -0.000000  0.005518 0.736972 1 64 1.000000
0  -2.688375 2.616273 -4.748602  0.000012 -1.000000 -0.000000  0.005518 0.736972 1 64 1.000000
lowpoly_plastic
0  -3.373441 2.616273 -4.063538  0.000005 -1.000000 -0.000007  0.005518 0.736972 1 64 1.000000
0  -3.641643 2.616278 -4.480402  0.000013 -1.000000 -0.000013  0.005518 0.736972 1 64 1.000000
0  -3.373441 2.616273 -4.369310  -0.000001 -1.000000 0.000000  0.005518 0.736972 1 64 1.000000
lowpoly_plastic
0  -3.373441 2.616274 -5.433670  0.000005 -1.000000 0.000006  0.005518 0.736972 1 64 1.000000
0  -3.641643 2.616278 -5.016805  0.000019 -1.000000 0.000011  0.005518 0.736972 1 64 1.000000
0  -3.857854 2.616270 -5.233018  0.000019 -1.000000 0.000015  0.005518 0.736972 1 64 1.000000
lowpoly_plastic
0  -4.058505 2.616273 -4.748604  0.000014 -1.000000 0.000002  0.005518 0.736972 1 64 1.000000
0  -3.641643 2.616278 -4.480402  0.000013 -1.000000 -0.000013  0.005518 0.736972 1 64 1.000000
0  -3.857854 2.616269 -4.264191  0.000020 -1.000000 -0.000019  0.005518 0.736972 1 64 1.000000
lowpoly_plastic
0  -3.373441 2.616274 -5.433670  0.000005 -1.000000 0.000006  0.005518 0.736972 1 64 1.000000
0  -3.105242 2.616277 -5.016805  -0.000008 -1.000000 -0.000008  0.005518 0.736972 1 64 1.000000
0  -3.373441 2.616274 -5.127898  -0.000001 -1.000000 -0.000001  0.005518 0.736972 1 64 1.000000
lowpoly_plastic
0  -3.641643 2.874765 -4.480402  0.000008 -1.000000 0.000002  0.005518 0.736972 1 64 1.000000
0  -3.373444 2.874768 -5.127898  0.000001 -1.000000 -0.000004  0.005518 0.736972 1 64 1.000000
0  -3.105238 2.874766 -5.016805  -0.000002 -1.000000 -0.000002  0.005518 0.736972 1 64 1.000000
lowpoly_plastic
0  -3.105242 2.616277 -4.480402  -0.923878 0.000006 -0.382686  0.005518 0.736972 1 64 1.000000
0  -2.994147 2.874766 -4.748602  -0.923878 0.000005 -0.382687  0.005518 0.736972 1 64 1.000000
0  -2.994146 2.616270 -4.748602  -0.923876 -0.000003 -0.382693  0.005518 0.736972 1 64 1.000000
lowpoly_plastic
0  -2.994146 2.616270 -4.748602  -0.923879 0.000005 0.382684  0.005518 0.736972 1 64 1.000000
0  -3.105238 2.874766 -5.016805  -0.923879 0.000006 0.382685  0.005518 0.736972 1 64 1.000000
0  -3.105242 2.616277 -5.016805  -0.923876 0.000013 0.382691  0.005518 0.736972 1 64 1.000000
lowpoly_plastic
0  -3.373441 2.616274 -5.127898  0.382685 0.000003 0.923879  0.005518 0.736972 1 64 1.000000
0  -3.641643 2.874765 -5.016805  0.382685 0.000002 0.923879  0.005518 0.736972 1 64 1.000000
0  -3.641643 2.616278 -5.016805  0.382684 0.000000 0.923879  0.005518 0.736972 1 64 1.000000
lowpoly_plastic
0  -3.641643 2.616278 -4.480402  0.923882 -0.000002 -0.382677  0.005518 0.736972 1 64 1.000000
0  -3.752733 2.874763 -4.748604  0.923882 -0.000002 -0.382678  0.005518 0.736972 1 64 1.000000
0  -3.641643 2.874765 -4.480402  0.923882 0.000000 -0.382677  0.005518 0.736972 1 64 1.000000
lowpoly_plastic
0  -3.105242 2.616277 -4.480402  -0.382679 0.000001 -0.923881  0.005518 0.736972 1 64 1.000000
0  -3.373444 2.874768 -4.369310  -0.382680 0.000000 -0.923881  0.005518 0.736972 1 64 1.000000
0  -3.105238 2.874766 -4.480402  -0.382675 0.000006 -0.923883  0.005518 0.736972 1 64 1.000000
lowpoly_plastic
0  -3.105242 2.616277 -5.016805  -0.382681 0.000001 0.923880  0.005518 0.736972 1 64 1.000000
0  -3.373444 2.874768 -5.127898  -0.382682 0.000000 0.923880  0.005518 0.736972 1 64 1.000000
0  -3.373441 2.616274 -5.127898  -0.382686 -0.000004 0.923879  0.005518 0.736972 1 64 1.000000
lowpoly_plastic
0  -3.641643 2.616278 -5.016805  0.923882 0.000001 0.382677  0.005518 0.736972 1 64 1.000000
0  -3.752733 2.874763 -4.748604  0.923882 0.000001 0.382677  0.005518 0.736972 1 64 1.000000
0  -3.752734 2.616276 -4.748602  0.923882 0.000002 0.382677  0.005518 0.736972 1 64 1.000000
lowpoly_plastic
0  -3.925622 4.160902 -6.925927  -0.723041 0.690805 0.000000  0.005204 0.735637 1 64 1.000000
0  -3.816530 4.275084 -6.841582  -0.723040 0.690806 0.000000  0.005204 0.735637 1 64 1.000000
0  -3.816530 4.275084 -8.420763  -0.723060 0.690785 -0.000003  0.005204 0.735637 1 64 1.000000
lowpoly_plastic
0  -4.081302 4.160903 -6.350734  -0.678861 0.734267 0.000000  0.005204 0.735637 1 64 1.000000
0  -4.081301 4.160902 -4.425089  -0.678858 0.734269 0.000000  0.005204 0.735637 1 64 1.000000
0  -3.957801 4.275083 -4.572223  -0.678858 0.734269 0.000000  0.005204 0.735637 1 64 1.000000
lowpoly_plastic
0  -3.816530 4.275084 -6.841582  0.000009 1.000000 0.000002  0.004465 0.740067 1 64 1.000000
0  -3.373438 4.275080 -6.841582  0.000003 1.000000 0.000000  0.004465 0.740067 1 64 1.000000
0  -3.373438 4.275080 -8.420763  0.000001 1.000000 0.000001  0.004465 0.740067 1 64 1.000000
lowpoly_plastic
0  -3.373438 4.275080 -6.841582  0.000003 1.000000 0.000000  0.004465 0.740067 1 64 1.000000
0  -3.816530 4.275084 -6.841582  0.000009 1.000000 0.000002  0.004465 0.740067 1 64 1.000000
0  -3.957802 4.275083 -6.319631  0.000004 1.000000 -0.000001  0.004465 0.740067 1 64 1.000000
lowpoly_plastic
0  -3.957802 4.275083 -6.319631  0.000004 1.000000 -0.000001  0.004465 0.740067 1 64 1.000000
0  -3.957801 4.275083 -4.572223  -0.000008 1.000000 0.000006  0.004465 0.740067 1 64 1.000000
0  -3.373441 4.275085 -4.202478  -0.000001 1.000000 0.000002  0.004465 0.740067 1 64 1.000000
lowpoly_plastic
0  -3.957801 4.275083 -4.572223  -0.000008 1.000000 0.000006  0.004465 0.740067 1 64 1.000000
0  -3.769661 4.275079 -4.310775  -0.000026 1.000000 0.000034  0.004465 0.740067 1 64 1.000000
0  -3.373441 4.275085 -4.202478  -0.000001 1.000000 0.000002  0.004465 0.740067 1 64 1.000000
lowpoly_plastic
0  -4.081302 4.160903 -6.350734  -0.644412 0.744521 -0.174419  0.005204 0.735637 1 64 1.000000
0  -3.957802 4.275083 -6.319631  -0.644412 0.744521 -0.174420  0.005204 0.735637 1 64 1.000000
0  -3.816530 4.275084 -6.841582  -0.644411 0.744522 -0.174415  0.005204 0.735637 1 64 1.000000
lowpoly_plastic
0  -4.081301 4.160902 -4.425089  -0.424331 0.852466 0.305360  0.005204 0.735637 1 64 1.000000
0  -3.873976 4.160899 -4.136971  -0.424328 0.852472 0.305348  0.005204 0.735637 1 64 1.000000
0  -3.769661 4.275079 -4.310775  -0.424330 0.852469 0.305355  0.005204 0.735637 1 64 1.000000
lowpoly_plastic
0  -3.373439 4.160900 -8.666185  -0.000002 0.906676 -0.421827  0.005204 0.735637 1 64 1.000000
0  -3.925619 4.160897 -8.666185  -0.000006 0.906669 -0.421843  0.005204 0.735637 1 64 1.000000
0  -3.816530 4.275084 -8.420763  -0.000002 0.906672 -0.421837  0.005204 0.735637 1 64 1.000000
lowpoly_plastic
0  -3.373438 4.160899 -4.017630  -0.142201 0.842120 0.520205  0.005204 0.735637 1 64 1.000000
0  -3.373441 4.275085 -4.202478  -0.142201 0.842120 0.520205  0.005204 0.735637 1 64 1.000000
0  -3.769661 4.275079 -4.310775  -0.142201 0.842120 0.520205  0.005204 0.735637 1 64 1.000000
lowpoly_plastic
0  -2.930349 4.275084 -8.420765  0.723044 0.690802 0.000003  0.005204 0.735637 1 64 1.000000
0  -2.930352 4.275081 -6.841582  0.723041 0.690805 0.000003  0.005204 0.735637 1 64 1.000000
0  -2.821261 4.160899 -6.925927  0.723042 0.690804 0.000003  0.005204 0.735637 1 64 1.000000
lowpoly_plastic
0  -2.665581 4.160899 -6.350732  0.678867 0.734262 -0.000000  0.005204 0.735637 1 64 1.000000
0  -2.789080 4.275081 -6.319629  0.678867 0.734262 -0.000000  0.005204 0.735637 1 64 1.000000
0  -2.789079 4.275080 -4.572223  0.678866 0.734262 -0.000000  0.005204 0.735637 1 64 1.000000
lowpoly_plastic
0  -2.930352 4.275081 -6.841582  -0.000003 1.000000 0.000001  0.004465 0.740067 1 64 1.000000
0  -2.930349 4.275084 -8.420765  -0.000008 1.000000 0.000001  0.004465 0.740067 1 64 1.000000
0  -3.373438 4.275080 -8.420763  0.000001 1.000000 0.000001  0.004465 0.740067 1 64 1.000000
lowpoly_plastic
0  -2.789080 4.275081 -6.319629  0.000001 1.000000 -0.000001  0.004465 0.740067 1 64 1.000000
0  -2.930352 4.275081 -6.841582  -0.000003 1.000000 0.000001  0.004465 0.740067 1 64 1.000000
0  -3.373438 4.275080 -6.841582  0.000003 1.000000 0.000000  0.004465 0.740067 1 64 1.000000
lowpoly_plastic
0  -2.789080 4.275081 -6.319629  0.000001 1.000000 -0.000001  0.004465 0.740067 1 64 1.000000
0  -3.373438 4.275080 -6.841582  0.000003 1.000000 0.000000  0.004465 0.740067 1 64 1.000000
0  -3.373441 4.275085 -4.202478  -0.000001 1.000000 0.000002  0.004465 0.740067 1 64 1.000000
lowpoly_plastic
0  -2.977220 4.275084 -4.310775  0.000002 1.000000 -0.000011  0.004465 0.740067 1 64 1.000000
0  -2.789079 4.275080 -4.572223  0.000008 1.000000 -0.000002  0.004465 0.740067 1 64 1.000000
0  -3.373441 4.275085 -4.202478  -0.000001 1.000000 0.000002  0.004465 0.740067 1 64 1.000000
lowpoly_plastic
0  -2.930352 4.275081 -6.841582  0.644413 0.744521 -0.174417  0.005204 0.735637 1 64 1.000000
0  -2.789080 4.275081 -6.319629  0.644419 0.744515 -0.174418  0.005204 0.735637 1 64 1.000000
0  -2.665581 4.160899 -6.350732  0.644417 0.744516 -0.174417  0.005204 0.735637 1 64 1.000000
lowpoly_plastic
0  -2.665581 4.160899 -4.425089  0.424350 0.852458 0.305356  0.005204 0.735637 1 64 1.000000
0  -2.789079 4.275080 -4.572223  0.424351 0.852458 0.305356  0.005204 0.735637 1 64 1.000000
0  -2.977220 4.275084 -4.310775  0.424350 0.852458 0.305356  0.005204 0.735637 1 64 1.000000
lowpoly_plastic
0  -3.373439 4.160900 -8.666185  -0.000002 0.906676 -0.421827  0.005204 0.735637 1 64 1.000000
0  -3.373438 4.275080 -8.420763  -0.000000 0.906679 -0.421822  0.005204 0.735637 1 64 1.000000
0  -2.930349 4.275084 -8.420765  -0.000004 0.906675 -0.421829  0.005204 0.735637 1 64 1.000000
lowpoly_plastic
0  -2.977220 4.275084 -4.310775  0.142189 0.842120 0.520207  0.005204 0.735637 1 64 1.000000
0  -3.373441 4.275085 -4.202478  0.142189 0.842120 0.520207  0.005204 0.735637 1 64 1.000000
0  -3.373438 4.160899 -4.017630  0.142189 0.842120 0.520207  0.005204 0.735637 1 64 1.000000
lowpoly_metal
0  -4.137819 3.516782 -4.388704  -0.000026 1.000000 0.000000  0.028340 0.414408 1 64 1.000000
0  -3.998354 3.516785 -4.388704  -0.000006 1.000000 0.000000  0.028340 0.414408 1 64 1.000000
0  -3.998354 3.516785 -5.060252  -0.000006 1.000000 0.000000  0.028340 0.414408 1 64 1.000000
lowpoly_metal
0  -3.998350 2.572961 -4.388705  1.000000 -0.000001 -0.000000  0.028340 0.414408 1 64 1.000000
0  -3.998357 -7.712343 -4.388703  1.000000 0.000002 -0.000000  0.028340 0.414408 1 64 1.000000
0  -3.998357 -7.712343 -5.060254  1.000000 0.000001 -0.000000  0.028340 0.414408 1 64 1.000000
lowpoly_metal
0  -4.137823 -7.712345 -5.060254  -1.000000 0.000003 0.000000  0.028340 0.414408 1 64 1.000000
0  -4.137825 -7.974186 -4.994627  -1.000000 -0.000003 0.000000  0.028340 0.414408 1 64 1.000000
0  -4.137825 -7.974186 -4.454328  -1.000000 -0.000004 0.000000  0.028340 0.414408 1 64 1.000000
lowpoly_metal
0  -4.137819 2.572964 -4.388704  -1.000000 0.000000 0.000000  0.028340 0.414408 1 64 1.000000
0  -4.137819 3.516782 -4.388704  -1.000000 0.000000 0.000000  0.028340 0.414408 1 64 1.000000
0  -4.137819 3.516782 -5.060252  -1.000000 0.000000 0.000000  0.028340 0.414408 1 64 1.000000
lowpoly_metal
0  -3.998357 -7.712343 -5.060254  -0.000005 0.000000 -1.000000  0.028340 0.414408 1 64 1.000000
0  -4.137823 -7.712345 -5.060254  -0.000005 0.000000 -1.000000  0.028340 0.414408 1 64 1.000000
0  -4.137819 2.572964 -5.060252  -0.000007 0.000000 -1.000000  0.028340 0.414408 1 64 1.000000
lowpoly_metal
0  -3.998354 3.516785 -4.388704  0.000001 -0.000000 1.000000  0.028340 0.414408 1 64 1.000000
0  -4.137819 3.516782 -4.388704  0.000000 0.000000 1.000000  0.028340 0.414408 1 64 1.000000
0  -4.137819 2.572964 -4.388704  0.000007 -0.000000 1.000000  0.028340 0.414408 1 64 1.000000
lowpoly_metal
0  -4.137825 -7.974186 -4.454328  -1.000000 -0.000004 0.000000  0.028340 0.414408 1 64 1.000000
0  -4.137825 -7.974186 -4.994627  -1.000000 -0.000003 0.000000  0.028340 0.414408 1 64 1.000000
0  -4.137822 -8.074902 -4.874091  -1.000000 -0.000030 0.000000  0.028340 0.414408 1 64 1.000000
lowpoly_metal
0  -4.137823 -7.712345 -5.060254  -0.000002 -0.243111 -0.969998  0.028340 0.414408 1 64 1.000000
0  -3.998357 -7.712343 -5.060254  0.000000 -0.243109 -0.969999  0.028340 0.414408 1 64 1.000000
0  -3.998356 -7.974189 -4.994627  -0.000005 -0.243114 -0.969998  0.028340 0.414408 1 64 1.000000
lowpoly_metal
0  -3.998357 -7.712343 -4.388703  0.000005 -0.243111 0.969998  0.028340 0.414408 1 64 1.000000
0  -4.137823 -7.712345 -4.388703  0.000006 -0.243112 0.969998  0.028340 0.414408 1 64 1.000000
0  -4.137825 -7.974186 -4.454328  0.000003 -0.243110 0.969999  0.028340 0.414408 1 64 1.000000
lowpoly_metal
0  -3.998357 -7.712343 -4.388703  1.000000 0.000002 -0.000000  0.028340 0.414408 1 64 1.000000
0  -3.998356 -7.974190 -4.454329  1.000000 0.000001 -0.000001  0.028340 0.414408 1 64 1.000000
0  -3.998356 -7.974189 -4.994627  1.000000 0.000001 -0.000000  0.028340 0.414408 1 64 1.000000
lowpoly_metal
0  -3.998357 -8.074898 -4.574867  0.000027 -1.000000 0.000003  0.028340 0.414408 1 64 1.000000
0  -4.137822 -8.074902 -4.574867  0.000027 -1.000000 0.000004  0.028340 0.414408 1 64 1.000000
0  -4.137822 -8.074902 -4.874091  0.000027 -1.000000 0.000001  0.028340 0.414408 1 64 1.000000
lowpoly_metal
0  -4.137825 -7.974186 -4.994627  -0.000000 -0.767391 -0.641179  0.028340 0.414408 1 64 1.000000
0  -3.998356 -7.974189 -4.994627  -0.000022 -0.767405 -0.641163  0.028340 0.414408 1 64 1.000000
0  -3.998357 -8.074898 -4.874090  0.000003 -0.767389 -0.641182  0.028340 0.414408 1 64 1.000000
lowpoly_metal
0  -4.137825 -7.974186 -4.454328  0.000002 -0.767397 0.641172  0.028340 0.414408 1 64 1.000000
0  -4.137822 -8.074902 -4.574867  0.000021 -0.767386 0.641185  0.028340 0.414408 1 64 1.000000
0  -3.998357 -8.074898 -4.574867  0.000005 -0.767395 0.641174  0.028340 0.414408 1 64 1.000000
lowpoly_metal
0  -3.998356 -7.974190 -4.454329  1.000000 0.000001 -0.000001  0.028340 0.414408 1 64 1.000000
0  -3.998357 -8.074898 -4.574867  1.000000 -0.000016 -0.000001  0.028340 0.414408 1 64 1.000000
0  -3.998357 -8.074898 -4.874090  1.000000 -0.000009 -0.000000  0.028340 0.414408 1 64 1.000000
lowpoly_metal
0  -3.998350 2.572961 -4.388705  0.000007 -0.000000 1.000000  0.028340 0.414408 1 64 1.000000
0  -4.137819 2.572964 -4.388704  0.000007 -0.000000 1.000000  0.028340 0.414408 1 64 1.000000
0  -4.137823 -7.712345 -4.388703  0.000001 0.000000 1.000000  0.028340 0.414408 1 64 1.000000
lowpoly_metal
0  -3.998350 2.572961 -5.060253  -0.000007 0.000000 -1.000000  0.028340 0.414408 1 64 1.000000
0  -4.137819 2.572964 -5.060252  -0.000007 0.000000 -1.000000  0.028340 0.414408 1 64 1.000000
0  -4.137819 3.516782 -5.060252  -0.000001 0.000001 -1.000000  0.028340 0.414408 1 64 1.000000
lowpoly_metal
0  -4.137823 -7.712345 -4.388703  -1.000000 0.000003 0.000000  0.028340 0.414408 1 64 1.000000
0  -4.137819 2.572964 -4.388704  -1.000000 0.000000 0.000000  0.028340 0.414408 1 64 1.000000
0  -4.137819 2.572964 -5.060252  -1.000000 0.000000 0.000000  0.028340 0.414408 1 64 1.000000
lowpoly_metal
0  -3.998354 3.516785 -5.060252  0.468131 0.000002 -0.883659  0.028340 0.414408 1 64 1.000000
0  -3.815364 3.516781 -4.963310  0.468130 0.000001 -0.883659  0.028340 0.414408 1 64 1.000000
0  -3.815363 2.572962 -4.963311  0.468135 0.000003 -0.883657  0.028340 0.414408 1 64 1.000000
lowpoly_metal
0  -3.815362 2.572962 -4.485646  -0.000011 -1.000000 0.000000  0.028340 0.414408 1 64 1.000000
0  -3.815363 2.572962 -4.963311  -0.000011 -1.000000 0.000000  0.028340 0.414408 1 64 1.000000
0  -3.705315 2.572958 -4.963311  -0.000030 -1.000000 0.000000  0.028340 0.414408 1 64 1.000000
lowpoly_metal
0  -3.998350 2.572961 -4.388705  0.000004 -1.000000 0.000000  0.028340 0.414408 1 64 1.000000
0  -3.998350 2.572961 -5.060253  0.000004 -1.000000 0.000000  0.028340 0.414408 1 64 1.000000
0  -3.815363 2.572962 -4.963311  -0.000011 -1.000000 0.000000  0.028340 0.414408 1 64 1.000000
lowpoly_metal
0  -3.998350 2.572961 -4.388705  0.468132 -0.000000 0.883659  0.028340 0.414408 1 64 1.000000
0  -3.815362 2.572962 -4.485646  0.468133 -0.000000 0.883658  0.028340 0.414408 1 64 1.000000
0  -3.815363 3.516781 -4.485645  0.468129 0.000001 0.883660  0.028340 0.414408 1 64 1.000000
lowpoly_metal
0  -3.998354 3.516785 -5.060252  -0.000006 1.000000 0.000000  0.028340 0.414408 1 64 1.000000
0  -3.998354 3.516785 -4.388704  -0.000006 1.000000 0.000000  0.028340 0.414408 1 64 1.000000
0  -3.815363 3.516781 -4.485645  0.000007 1.000000 0.000000  0.028340 0.414408 1 64 1.000000
lowpoly_metal
0  -3.705318 3.516783 -4.485645  0.000001 -0.000001 1.000000  0.028340 0.414408 1 64 1.000000
0  -3.705314 2.572958 -4.485646  0.000001 -0.000001 1.000000  0.028340 0.414408 1 64 1.000000
0  -3.542743 2.677959 -4.485646  0.000002 -0.000001 1.000000  0.028340 0.414408 1 64 1.000000
lowpoly_metal
0  -3.815364 3.516781 -4.963310  -0.000000 0.000001 -1.000000  0.028340 0.414408 1 64 1.000000
0  -3.705319 3.516783 -4.963310  -0.000000 0.000001 -1.000000  0.028340 0.414408 1 64 1.000000
0  -3.705315 2.572958 -4.963311  -0.000002 0.000001 -1.000000  0.028340 0.414408 1 64 1.000000
lowpoly_metal
0  -3.815362 2.572962 -4.485646  0.000000 -0.000001 1.000000  0.028340 0.414408 1 64 1.000000
0  -3.705314 2.572958 -4.485646  0.000001 -0.000001 1.000000  0.028340 0.414408 1 64 1.000000
0  -3.705318 3.516783 -4.485645  0.000001 -0.000001 1.000000  0.028340 0.414408 1 64 1.000000
lowpoly_metal
0  -3.815363 3.516781 -4.485645  0.000007 1.000000 0.000000  0.028340 0.414408 1 64 1.000000
0  -3.705318 3.516783 -4.485645  -0.000015 1.000000 0.000000  0.028340 0.414408 1 64 1.000000
0  -3.705319 3.516783 -4.963310  -0.000015 1.000000 0.000000  0.028340 0.414408 1 64 1.000000
lowpoly_metal
0  -3.542740 3.621779 -4.485645  1.000000 -0.000004 -0.000000  0.028340 0.414408 1 64 1.000000
0  -3.542743 2.677959 -4.485646  1.000000 -0.000004 -0.000000  0.028340 0.414408 1 64 1.000000
0  -3.542744 2.677959 -4.963311  1.000000 -0.000004 -0.000000  0.028340 0.414408 1 64 1.000000
lowpoly_metal
0  -3.705318 3.516783 -4.485645  -0.542516 0.840045 0.000000  0.028340 0.414408 1 64 1.000000
0  -3.542740 3.621779 -4.485645  -0.542516 0.840045 0.000001  0.028340 0.414408 1 64 1.000000
0  -3.542740 3.621779 -4.963310  -0.542517 0.840045 0.000000  0.028340 0.414408 1 64 1.000000
lowpoly_metal
0  -3.705315 2.572958 -4.963311  0.542551 -0.840023 -0.000000  0.028340 0.414408 1 64 1.000000
0  -3.542744 2.677959 -4.963311  0.542551 -0.840023 -0.000000  0.028340 0.414408 1 64 1.000000
0  -3.542743 2.677959 -4.485646  0.542551 -0.840023 -0.000000  0.028340 0.414408 1 64 1.000000
lowpoly_metal
0  -3.705319 3.516783 -4.963310  -0.000000 0.000001 -1.000000  0.028340 0.414408 1 64 1.000000
0  -3.542740 3.621779 -4.963310  0.000000 0.000001 -1.000000  0.028340 0.414408 1 64 1.000000
0  -3.542744 2.677959 -4.963311  -0.000002 0.000001 -1.000000  0.028340 0.414408 1 64 1.000000
lowpoly_metal
0  -2.748528 3.516781 -5.060253  0.000004 1.000000 -0.000000  0.028340 0.414408 1 64 1.000000
0  -2.748528 3.516781 -4.388705  0.000004 1.000000 0.000000  0.028340 0.414408 1 64 1.000000
0  -2.609065 3.516781 -4.388703  -0.000003 1.000000 0.000000  0.028340 0.414408 1 64 1.000000
lowpoly_metal
0  -2.748531 -7.712346 -5.060253  -1.000000 0.000002 0.000000  0.028340 0.414408 1 64 1.000000
0  -2.748531 -7.712346 -4.388704  -1.000000 0.000003 0.000000  0.028340 0.414408 1 64 1.000000
0  -2.748527 2.572962 -4.388703  -1.000000 0.000000 0.000000  0.028340 0.414408 1 64 1.000000
lowpoly_metal
0  -2.609066 -7.974187 -4.454329  1.000000 0.000011 -0.000002  0.028340 0.414408 1 64 1.000000
0  -2.609066 -7.974186 -4.994627  1.000000 0.000002 0.000000  0.028340 0.414408 1 64 1.000000
0  -2.609068 -7.712346 -5.060253  1.000000 0.000002 0.000000  0.028340 0.414408 1 64 1.000000
lowpoly_metal
0  -2.609066 2.572963 -5.060253  1.000000 -0.000001 -0.000000  0.028340 0.414408 1 64 1.000000
0  -2.609065 3.516781 -5.060253  1.000000 -0.000001 0.000000  0.028340 0.414408 1 64 1.000000
0  -2.609065 3.516781 -4.388703  1.000000 -0.000001 -0.000000  0.028340 0.414408 1 64 1.000000
lowpoly_metal
0  -2.609066 2.572963 -5.060253  0.000001 0.000000 -1.000000  0.028340 0.414408 1 64 1.000000
0  -2.609068 -7.712346 -5.060253  0.000000 0.000000 -1.000000  0.028340 0.414408 1 64 1.000000
0  -2.748531 -7.712346 -5.060253  0.000000 0.000000 -1.000000  0.028340 0.414408 1 64 1.000000
lowpoly_metal
0  -2.609065 2.572963 -4.388703  -0.000004 0.000001 1.000000  0.028340 0.414408 1 64 1.000000
0  -2.609065 3.516781 -4.388703  -0.000010 0.000000 1.000000  0.028340 0.414408 1 64 1.000000
0  -2.748528 3.516781 -4.388705  -0.000010 0.000000 1.000000  0.028340 0.414408 1 64 1.000000
lowpoly_metal
0  -2.609066 -7.974187 -4.454329  1.000000 0.000011 -0.000002  0.028340 0.414408 1 64 1.000000
0  -2.609064 -8.074901 -4.574867  1.000000 0.000040 -0.000010  0.028340 0.414408 1 64 1.000000
0  -2.609067 -8.074903 -4.874090  1.000000 -0.000001 -0.000001  0.028340 0.414408 1 64 1.000000
lowpoly_metal
0  -2.609066 -7.974186 -4.994627  0.000000 -0.243110 -0.969999  0.028340 0.414408 1 64 1.000000
0  -2.748532 -7.974188 -4.994627  0.000000 -0.243109 -0.969999  0.028340 0.414408 1 64 1.000000
0  -2.748531 -7.712346 -5.060253  0.000000 -0.243110 -0.969999  0.028340 0.414408 1 64 1.000000
lowpoly_metal
0  -2.748532 -7.974189 -4.454329  0.000000 -0.243110 0.969999  0.028340 0.414408 1 64 1.000000
0  -2.609066 -7.974187 -4.454329  0.000000 -0.243111 0.969999  0.028340 0.414408 1 64 1.000000
0  -2.609068 -7.712346 -4.388704  0.000000 -0.243109 0.969999  0.028340 0.414408 1 64 1.000000
lowpoly_metal
0  -2.748532 -7.974188 -4.994627  -1.000000 0.000006 0.000000  0.028340 0.414408 1 64 1.000000
0  -2.748532 -7.974189 -4.454329  -1.000000 0.000007 0.000001  0.028340 0.414408 1 64 1.000000
0  -2.748531 -7.712346 -4.388704  -1.000000 0.000003 0.000000  0.028340 0.414408 1 64 1.000000
lowpoly_metal
0  -2.609067 -8.074903 -4.874090  -0.000037 -1.000000 0.000001  0.028340 0.414408 1 64 1.000000
0  -2.609064 -8.074901 -4.574867  -0.000027 -1.000000 0.000006  0.028340 0.414408 1 64 1.000000
0  -2.748533 -8.074897 -4.574867  -0.000031 -1.000000 0.000004  0.028340 0.414408 1 64 1.000000
lowpoly_metal
0  -2.609067 -8.074903 -4.874090  -0.000011 -0.767395 -0.641175  0.028340 0.414408 1 64 1.000000
0  -2.748533 -8.074897 -4.874090  -0.000030 -0.767406 -0.641162  0.028340 0.414408 1 64 1.000000
0  -2.748532 -7.974188 -4.994627  -0.000008 -0.767393 -0.641177  0.028340 0.414408 1 64 1.000000
lowpoly_metal
0  -2.748533 -8.074897 -4.574867  -0.000007 -0.767397 0.641172  0.028340 0.414408 1 64 1.000000
0  -2.609064 -8.074901 -4.574867  -0.000022 -0.767387 0.641184  0.028340 0.414408 1 64 1.000000
0  -2.609066 -7.974187 -4.454329  -0.000004 -0.767399 0.641170  0.028340 0.414408 1 64 1.000000
lowpoly_metal
0  -2.748533 -8.074897 -4.874090  -1.000000 0.000008 0.000000  0.028340 0.414408 1 64 1.000000
0  -2.748533 -8.074897 -4.574867  -1.000000 0.000006 0.000001  0.028340 0.414408 1 64 1.000000
0  -2.748532 -7.974189 -4.454329  -1.000000 0.000007 0.000001  0.028340 0.414408 1 64 1.000000
lowpoly_metal
0  -2.609068 -7.712346 -4.388704  0.000000 -0.000000 1.000000  0.028340 0.414408 1 64 1.000000
0  -2.609065 2.572963 -4.388703  -0.000004 0.000001 1.000000  0.028340 0.414408 1 64 1.000000
0  -2.748527 2.572962 -4.388703  -0.000003 0.000001 1.000000  0.028340 0.414408 1 64 1.000000
lowpoly_metal
0  -2.609065 3.516781 -5.060253  0.000000 0.000000 -1.000000  0.028340 0.414408 1 64 1.000000
0  -2.609066 2.572963 -5.060253  0.000001 0.000000 -1.000000  0.028340 0.414408 1 64 1.000000
0  -2.748527 2.572962 -5.060253  0.000001 0.000000 -1.000000  0.028340 0.414408 1 64 1.000000
lowpoly_metal
0  -2.609066 2.572963 -5.060253  1.000000 -0.000001 -0.000000  0.028340 0.414408 1 64 1.000000
0  -2.609065 2.572963 -4.388703  1.000000 -0.000000 -0.000000  0.028340 0.414408 1 64 1.000000
0  -2.609068 -7.712346 -4.388704  1.000000 0.000002 -0.000000  0.028340 0.414408 1 64 1.000000
lowpoly_metal
0  -2.931520 2.572965 -4.963311  -0.468128 -0.000001 -0.883661  0.028340 0.414408 1 64 1.000000
0  -2.931521 3.516783 -4.963311  -0.468126 -0.000000 -0.883662  0.028340 0.414408 1 64 1.000000
0  -2.748528 3.516781 -5.060253  -0.468126 -0.000000 -0.883662  0.028340 0.414408 1 64 1.000000
lowpoly_metal
0  -3.041566 2.572962 -4.485646  0.000022 -1.000000 -0.000001  0.028340 0.414408 1 64 1.000000
0  -3.041566 2.572962 -4.963311  0.000022 -1.000000 0.000000  0.028340 0.414408 1 64 1.000000
0  -2.931520 2.572965 -4.963311  0.000001 -1.000000 0.000000  0.028340 0.414408 1 64 1.000000
lowpoly_metal
0  -2.931520 2.572965 -4.485646  0.000001 -1.000000 -0.000000  0.028340 0.414408 1 64 1.000000
0  -2.931520 2.572965 -4.963311  0.000001 -1.000000 0.000000  0.028340 0.414408 1 64 1.000000
0  -2.748527 2.572962 -5.060253  -0.000016 -1.000000 0.000000  0.028340 0.414408 1 64 1.000000
lowpoly_metal
0  -2.931521 3.516783 -4.485646  -0.468122 0.000001 0.883664  0.028340 0.414408 1 64 1.000000
0  -2.931520 2.572965 -4.485646  -0.468127 -0.000001 0.883661  0.028340 0.414408 1 64 1.000000
0  -2.748527 2.572962 -4.388703  -0.468126 -0.000000 0.883662  0.028340 0.414408 1 64 1.000000
lowpoly_metal
0  -2.748528 3.516781 -5.060253  0.000004 1.000000 -0.000000  0.028340 0.414408 1 64 1.000000
0  -2.931521 3.516783 -4.963311  0.000002 1.000000 -0.000000  0.028340 0.414408 1 64 1.000000
0  -2.931521 3.516783 -4.485646  0.000002 1.000000 -0.000000  0.028340 0.414408 1 64 1.000000
lowpoly_metal
0  -3.041566 3.516782 -4.485646  0.000003 -0.000001 1.000000  0.028340 0.414408 1 64 1.000000
0  -3.204138 3.621777 -4.485645  0.000006 -0.000001 1.000000  0.028340 0.414408 1 64 1.000000
0  -3.204140 2.677956 -4.485646  0.000003 -0.000000 1.000000  0.028340 0.414408 1 64 1.000000
lowpoly_metal
0  -3.041566 2.572962 -4.963311  0.000000 0.000000 -1.000000  0.028340 0.414408 1 64 1.000000
0  -3.041566 3.516782 -4.963311  -0.000003 0.000001 -1.000000  0.028340 0.414408 1 64 1.000000
0  -2.931521 3.516783 -4.963311  0.000003 0.000000 -1.000000  0.028340 0.414408 1 64 1.000000
lowpoly_metal
0  -3.041566 3.516782 -4.485646  0.000003 -0.000001 1.000000  0.028340 0.414408 1 64 1.000000
0  -3.041566 2.572962 -4.485646  -0.000002 0.000000 1.000000  0.028340 0.414408 1 64 1.000000
0  -2.931520 2.572965 -4.485646  -0.000005 0.000000 1.000000  0.028340 0.414408 1 64 1.000000
lowpoly_metal
0  -2.931521 3.516783 -4.963311  0.000002 1.000000 -0.000000  0.028340 0.414408 1 64 1.000000
0  -3.041566 3.516782 -4.963311  -0.000015 1.000000 -0.000000  0.028340 0.414408 1 64 1.000000
0  -3.041566 3.516782 -4.485646  -0.000015 1.000000 -0.000000  0.028340 0.414408 1 64 1.000000
lowpoly_metal
0  -3.204140 2.677956 -4.963311  -1.000000 0.000002 0.000000  0.028340 0.414408 1 64 1.000000
0  -3.204140 2.677956 -4.485646  -1.000000 0.000002 0.000000  0.028340 0.414408 1 64 1.000000
0  -3.204138 3.621777 -4.485645  -1.000000 0.000001 0.000000  0.028340 0.414408 1 64 1.000000
lowpoly_metal
0  -3.204138 3.621777 -4.963310  0.542527 0.840038 -0.000001  0.028340 0.414408 1 64 1.000000
0  -3.204138 3.621777 -4.485645  0.542526 0.840039 0.000001  0.028340 0.414408 1 64 1.000000
0  -3.041566 3.516782 -4.485646  0.542526 0.840039 0.000001  0.028340 0.414408 1 64 1.000000
lowpoly_metal
0  -3.204140 2.677956 -4.485646  -0.542520 -0.840043 0.000000  0.028340 0.414408 1 64 1.000000
0  -3.204140 2.677956 -4.963311  -0.542521 -0.840042 0.000000  0.028340 0.414408 1 64 1.000000
0  -3.041566 2.572962 -4.963311  -0.542520 -0.840043 0.000000  0.028340 0.414408 1 64 1.000000
lowpoly_metal
0  -3.204140 2.677956 -4.963311  -0.000001 0.000000 -1.000000  0.028340 0.414408 1 64 1.000000
0  -3.204138 3.621777 -4.963310  -0.000008 0.000001 -1.000000  0.028340 0.414408 1 64 1.000000
0  -3.041566 3.516782 -4.963311  -0.000003 0.000001 -1.000000  0.028340 0.414408 1 64 1.000000
lowpoly_plastic
0  -3.598490 3.632562 -5.082624  0.000001 1.000000 0.000000  0.005518 0.736972 1 64 1.000000
0  -3.148389 3.632561 -5.082624  0.000001 1.000000 0.000000  0.005518 0.736972 1 64 1.000000
0  -3.148389 3.632562 -5.816548  0.000001 1.000000 0.000000  0.005518 0.736972 1 64 1.000000
lowpoly_plastic
0  -3.148389 3.632561 -5.082624  1.000000 -0.000002 -0.000000  0.005518 0.736972 1 64 1.000000
0  -3.148390 2.898641 -5.082625  1.000000 -0.000002 0.000000  0.005518 0.736972 1 64 1.000000
0  -3.148390 2.898641 -5.816549  1.000000 -0.000002 -0.000001  0.005518 0.736972 1 64 1.000000
lowpoly_plastic
0  -3.148390 2.898641 -5.082625  -0.000003 -1.000000 -0.000000  0.005518 0.736972 1 64 1.000000
0  -3.598488 2.898642 -5.082625  -0.000003 -1.000000 -0.000000  0.005518 0.736972 1 64 1.000000
0  -3.598488 2.898643 -5.816549  -0.000003 -1.000000 -0.000001  0.005518 0.736972 1 64 1.000000
lowpoly_plastic
0  -3.598488 2.898642 -5.082625  -1.000000 -0.000003 0.000000  0.005518 0.736972 1 64 1.000000
0  -3.598490 3.632562 -5.082624  -1.000000 -0.000003 0.000000  0.005518 0.736972 1 64 1.000000
0  -3.598490 3.632562 -5.816548  -1.000000 -0.000002 -0.000000  0.005518 0.736972 1 64 1.000000
lowpoly_plastic
0  -3.148389 3.632562 -5.816548  1.000000 -0.000002 -0.000001  0.005518 0.736972 1 64 1.000000
0  -3.148390 2.898641 -5.816549  1.000000 -0.000002 -0.000001  0.005518 0.736972 1 64 1.000000
0  -3.148391 3.551240 -6.819614  1.000000 -0.000021 -0.000001  0.005518 0.736972 1 64 1.000000
lowpoly_plastic
0  -3.148390 2.898641 -5.082625  0.000001 -0.000001 1.000000  0.005518 0.736972 1 64 1.000000
0  -3.148389 3.632561 -5.082624  0.000000 -0.000001 1.000000  0.005518 0.736972 1 64 1.000000
0  -3.598490 3.632562 -5.082624  0.000001 -0.000001 1.000000  0.005518 0.736972 1 64 1.000000
lowpoly_plastic
0  -3.148391 3.551240 -6.819614  0.000001 0.000000 -1.000000  0.005518 0.736972 1 64 1.000000
0  -3.598489 3.551239 -6.819614  0.000003 0.000000 -1.000000  0.005518 0.736972 1 64 1.000000
0  -3.598487 3.632564 -6.819614  0.000003 0.000000 -1.000000  0.005518 0.736972 1 64 1.000000
lowpoly_plastic
0  -3.598490 3.632562 -5.816548  0.000001 1.000000 0.000000  0.005518 0.736972 1 64 1.000000
0  -3.148389 3.632562 -5.816548  0.000001 1.000000 0.000000  0.005518 0.736972 1 64 1.000000
0  -3.148389 3.632562 -6.819614  0.000004 1.000000 0.000002  0.005518 0.736972 1 64 1.000000
lowpoly_plastic
0  -3.598488 2.898643 -5.816549  -0.000003 -0.838212 -0.545344  0.005518 0.736972 1 64 1.000000
0  -3.598489 3.551239 -6.819614  0.000001 -0.838213 -0.545343  0.005518 0.736972 1 64 1.000000
0  -3.148391 3.551240 -6.819614  -0.000000 -0.838213 -0.545344  0.005518 0.736972 1 64 1.000000
lowpoly_plastic
0  -3.598490 3.632562 -5.816548  -1.000000 -0.000002 -0.000000  0.005518 0.736972 1 64 1.000000
0  -3.598487 3.632564 -6.819614  -1.000000 0.000023 -0.000003  0.005518 0.736972 1 64 1.000000
0  -3.598489 3.551239 -6.819614  -1.000000 0.000015 -0.000002  0.005518 0.736972 1 64 1.000000
lowpoly_plastic
0  -3.925622 4.160902 -6.925927  -1.000000 0.000004 -0.000001  0.005204 0.735637 1 64 1.000000
0  -3.925619 4.160897 -8.666185  -1.000000 0.000008 -0.000002  0.005204 0.735637 1 64 1.000000
0  -3.925622 3.798945 -8.666185  -1.000000 0.000007 -0.000001  0.005204 0.735637 1 64 1.000000
lowpoly_plastic
0  -3.373440 3.460555 -4.017630  -0.000000 -1.000000 0.000000  0.005204 0.735637 1 64 1.000000
0  -3.873976 3.460559 -4.136971  -0.000010 -1.000000 0.000008  0.005204 0.735637 1 64 1.000000
0  -4.081305 3.460558 -4.425089  -0.000005 -1.000000 0.000000  0.005204 0.735637 1 64 1.000000
lowpoly_plastic
0  -4.081305 3.460558 -4.425089  -0.000005 -1.000000 0.000000  0.005204 0.735637 1 64 1.000000
0  -4.081302 3.460560 -6.350732  -0.000007 -1.000000 0.000000  0.005204 0.735637 1 64 1.000000
0  -3.373440 3.460555 -4.017630  -0.000000 -1.000000 0.000000  0.005204 0.735637 1 64 1.000000
lowpoly_plastic
0  -3.925625 3.460559 -6.925927  -0.000007 -1.000000 0.000002  0.005204 0.735637 1 64 1.000000
0  -3.373441 3.460555 -6.925927  -0.000001 -1.000000 -0.000000  0.005204 0.735637 1 64 1.000000
0  -4.081302 3.460560 -6.350732  -0.000007 -1.000000 0.000000  0.005204 0.735637 1 64 1.000000
lowpoly_plastic
0  -3.373443 3.798947 -8.666185  -0.000000 0.000000 -1.000000  0.005204 0.735637 1 64 1.000000
0  -3.925622 3.798945 -8.666185  0.000002 0.000000 -1.000000  0.005204 0.735637 1 64 1.000000
0  -3.925619 4.160897 -8.666185  0.000001 0.000000 -1.000000  0.005204 0.735637 1 64 1.000000
lowpoly_plastic
0  -3.925625 3.460559 -6.925927  -0.000005 -0.981615 -0.190873  0.005204 0.735637 1 64 1.000000
0  -3.925622 3.798945 -8.666185  0.000005 -0.981615 -0.190871  0.005204 0.735637 1 64 1.000000
0  -3.373443 3.798947 -8.666185  0.000003 -0.981615 -0.190872  0.005204 0.735637 1 64 1.000000
lowpoly_plastic
0  -4.081305 3.460558 -4.425089  -1.000000 0.000003 -0.000000  0.005204 0.735637 1 64 1.000000
0  -4.081301 4.160902 -4.425089  -1.000000 0.000004 0.000000  0.005204 0.735637 1 64 1.000000
0  -4.081302 4.160903 -6.350734  -1.000000 0.000001 -0.000001  0.005204 0.735637 1 64 1.000000
lowpoly_plastic
0  -3.373438 4.160899 -4.017630  -0.231924 0.000000 0.972734  0.005204 0.735637 1 64 1.000000
0  -3.873976 4.160899 -4.136971  -0.231924 -0.000000 0.972734  0.005204 0.735637 1 64 1.000000
0  -3.873976 3.460559 -4.136971  -0.231925 0.000000 0.972734  0.005204 0.735637 1 64 1.000000
lowpoly_plastic
0  -3.873976 4.160899 -4.136971  -0.811693 0.000002 0.584084  0.005204 0.735637 1 64 1.000000
0  -4.081301 4.160902 -4.425089  -0.811695 0.000003 0.584082  0.005204 0.735637 1 64 1.000000
0  -4.081305 3.460558 -4.425089  -0.811691 0.000001 0.584087  0.005204 0.735637 1 64 1.000000
lowpoly_plastic
0  -3.925625 3.460559 -6.925927  -0.965270 0.000001 -0.261254  0.005204 0.735637 1 64 1.000000
0  -4.081302 3.460560 -6.350732  -0.965271 -0.000001 -0.261251  0.005204 0.735637 1 64 1.000000
0  -4.081302 4.160903 -6.350734  -0.965270 0.000002 -0.261254  0.005204 0.735637 1 64 1.000000
lowpoly_plastic
0  -2.821262 3.798949 -8.666185  1.000000 -0.000008 0.000001  0.005204 0.735637 1 64 1.000000
0  -2.821258 4.160902 -8.666185  1.000000 -0.000011 0.000002  0.005204 0.735637 1 64 1.000000
0  -2.821261 4.160899 -6.925927  1.000000 -0.000000 -0.000000  0.005204 0.735637 1 64 1.000000
lowpoly_plastic
0  -3.373441 3.460555 -6.925927  -0.000001 -1.000000 -0.000000  0.005204 0.735637 1 64 1.000000
0  -2.821261 3.460558 -6.925928  0.000006 -1.000000 -0.000002  0.005204 0.735637 1 64 1.000000
0  -2.665582 3.460559 -6.350733  0.000005 -1.000000 -0.000001  0.005204 0.735637 1 64 1.000000
lowpoly_plastic
0  -2.665582 3.460559 -6.350733  0.000005 -1.000000 -0.000001  0.005204 0.735637 1 64 1.000000
0  -2.665581 3.460558 -4.425090  0.000005 -1.000000 -0.000000  0.005204 0.735637 1 64 1.000000
0  -3.373440 3.460555 -4.017630  -0.000000 -1.000000 0.000000  0.005204 0.735637 1 64 1.000000
lowpoly_plastic
0  -2.665581 3.460558 -4.425090  0.000005 -1.000000 -0.000000  0.005204 0.735637 1 64 1.000000
0  -2.872909 3.460557 -4.136972  0.000005 -1.000000 0.000000  0.005204 0.735637 1 64 1.000000
0  -3.373440 3.460555 -4.017630  -0.000000 -1.000000 0.000000  0.005204 0.735637 1 64 1.000000
lowpoly_plastic
0  -2.821258 4.160902 -8.666185  0.000000 0.000000 -1.000000  0.005204 0.735637 1 64 1.000000
0  -2.821262 3.798949 -8.666185  0.000000 0.000000 -1.000000  0.005204 0.735637 1 64 1.000000
0  -3.373443 3.798947 -8.666185  -0.000000 0.000000 -1.000000  0.005204 0.735637 1 64 1.000000
lowpoly_plastic
0  -3.373443 3.798947 -8.666185  0.000003 -0.981615 -0.190872  0.005204 0.735637 1 64 1.000000
0  -2.821262 3.798949 -8.666185  0.000002 -0.981615 -0.190873  0.005204 0.735637 1 64 1.000000
0  -2.821261 3.460558 -6.925928  0.000004 -0.981615 -0.190874  0.005204 0.735637 1 64 1.000000
lowpoly_plastic
0  -2.665582 3.460559 -6.350733  1.000000 -0.000001 -0.000000  0.005204 0.735637 1 64 1.000000
0  -2.665581 4.160899 -6.350732  1.000000 -0.000001 -0.000000  0.005204 0.735637 1 64 1.000000
0  -2.665581 4.160899 -4.425089  1.000000 -0.000001 -0.000000  0.005204 0.735637 1 64 1.000000
lowpoly_plastic
0  -2.872909 3.460557 -4.136972  0.231929 -0.000001 0.972733  0.005204 0.735637 1 64 1.000000
0  -2.872909 4.160900 -4.136971  0.231928 -0.000001 0.972733  0.005204 0.735637 1 64 1.000000
0  -3.373438 4.160899 -4.017630  0.231928 -0.000001 0.972733  0.005204 0.735637 1 64 1.000000
lowpoly_plastic
0  -2.665581 3.460558 -4.425090  0.811691 -0.000001 0.584088  0.005204 0.735637 1 64 1.000000
0  -2.665581 4.160899 -4.425089  0.811691 -0.000002 0.584087  0.005204 0.735637 1 64 1.000000
0  -2.872909 4.160900 -4.136971  0.811691 -0.000002 0.584087  0.005204 0.735637 1 64 1.000000
lowpoly_plastic
0  -2.821261 3.460558 -6.925928  0.965269 -0.000000 -0.261256  0.005204 0.735637 1 64 1.000000
0  -2.821261 4.160899 -6.925927  0.965269 0.000001 -0.261257  0.005204 0.735637 1 64 1.000000
0  -2.665581 4.160899 -6.350732  0.965269 -0.000000 -0.261256  0.005204 0.735637 1 64 1.000000
lowpoly_plastic
0  -2.688376 3.522336 -4.748602  0.923878 0.000002 0.382687  0.005518 0.736972 1 64 1.000000
0  -2.889029 3.522331 -4.264189  0.923878 0.000002 0.382687  0.005518 0.736972 1 64 1.000000
0  -2.889026 2.616276 -4.264191  0.923878 0.000002 0.382686  0.005518 0.736972 1 64 1.000000
lowpoly_plastic
0  -2.889029 3.522331 -4.264189  0.382686 -0.000001 0.923879  0.005518 0.736972 1 64 1.000000
0  -3.373443 3.522336 -4.063537  0.382685 -0.000000 0.923879  0.005518 0.736972 1 64 1.000000
0  -3.373441 2.616273 -4.063538  0.382686 -0.000001 0.923878  0.005518 0.736972 1 64 1.000000
lowpoly_plastic
0  -3.373443 3.522336 -4.063537  -0.382688 -0.000002 0.923878  0.005518 0.736972 1 64 1.000000
0  -3.857856 3.522332 -4.264190  -0.382688 -0.000002 0.923878  0.005518 0.736972 1 64 1.000000
0  -3.857854 2.616269 -4.264191  -0.382688 -0.000002 0.923878  0.005518 0.736972 1 64 1.000000
lowpoly_plastic
0  -3.857856 3.522332 -4.264190  -0.923879 -0.000002 0.382684  0.005518 0.736972 1 64 1.000000
0  -4.058507 3.522335 -4.748603  -0.923879 -0.000002 0.382684  0.005518 0.736972 1 64 1.000000
0  -4.058505 2.616273 -4.748604  -0.923879 -0.000002 0.382684  0.005518 0.736972 1 64 1.000000
lowpoly_plastic
0  -4.058507 3.522335 -4.748603  -0.923880 -0.000002 -0.382683  0.005518 0.736972 1 64 1.000000
0  -3.857856 3.522332 -5.233017  -0.923880 -0.000002 -0.382683  0.005518 0.736972 1 64 1.000000
0  -3.857854 2.616270 -5.233018  -0.923880 -0.000002 -0.382683  0.005518 0.736972 1 64 1.000000
lowpoly_plastic
0  -3.857856 3.522332 -5.233017  -0.382685 0.000000 -0.923879  0.005518 0.736972 1 64 1.000000
0  -3.373443 3.522336 -5.433669  -0.382685 0.000000 -0.923879  0.005518 0.736972 1 64 1.000000
0  -3.373441 2.616274 -5.433670  -0.382684 0.000000 -0.923879  0.005518 0.736972 1 64 1.000000
lowpoly_plastic
0  -3.373443 3.522336 -4.063537  -0.000000 1.000000 0.000005  0.005518 0.736972 1 64 1.000000
0  -2.889029 3.522331 -4.264189  0.000016 1.000000 0.000016  0.005518 0.736972 1 64 1.000000
0  -2.688376 3.522336 -4.748602  0.000006 1.000000 0.000000  0.005518 0.736972 1 64 1.000000
lowpoly_plastic
0  -2.688376 3.522336 -4.748602  0.000006 1.000000 0.000000  0.005518 0.736972 1 64 1.000000
0  -2.889029 3.522331 -5.233018  0.000016 1.000000 -0.000016  0.005518 0.736972 1 64 1.000000
0  -3.373443 3.522336 -5.433669  -0.000000 1.000000 -0.000004  0.005518 0.736972 1 64 1.000000
lowpoly_plastic
0  -3.373443 3.522336 -5.433669  -0.000000 1.000000 -0.000004  0.005518 0.736972 1 64 1.000000
0  -3.857856 3.522332 -5.233017  -0.000014 1.000000 -0.000011  0.005518 0.736972 1 64 1.000000
0  -4.058507 3.522335 -4.748603  -0.000006 1.000000 0.000001  0.005518 0.736972 1 64 1.000000
lowpoly_plastic
0  -4.058507 3.522335 -4.748603  -0.000006 1.000000 0.000001  0.005518 0.736972 1 64 1.000000
0  -3.857856 3.522332 -4.264190  -0.000013 1.000000 0.000012  0.005518 0.736972 1 64 1.000000
0  -3.373443 3.522336 -4.063537  -0.000000 1.000000 0.000005  0.005518 0.736972 1 64 1.000000
lowpoly_plastic
0  -3.373443 3.522336 -4.063537  -0.000000 1.000000 0.000005  0.005518 0.736972 1 64 1.000000
0  -2.688376 3.522336 -4.748602  0.000006 1.000000 0.000000  0.005518 0.736972 1 64 1.000000
0  -3.373443 3.522336 -5.433669  -0.000000 1.000000 -0.000004  0.005518 0.736972 1 64 1.000000
lowpoly_plastic
0  -3.373443 3.522336 -5.433669  0.382683 0.000001 -0.923880  0.005518 0.736972 1 64 1.000000
0  -2.889029 3.522331 -5.233018  0.382683 0.000001 -0.923880  0.005518 0.736972 1 64 1.000000
0  -2.889026 2.616277 -5.233018  0.382683 0.000002 -0.923880  0.005518 0.736972 1 64 1.000000
lowpoly_plastic
0  -2.889029 3.522331 -5.233018  0.923879 0.000002 -0.382684  0.005518 0.736972 1 64 1.000000
0  -2.688376 3.522336 -4.748602  0.923879 0.000002 -0.382684  0.005518 0.736972 1 64 1.000000
0  -2.688375 2.616273 -4.748602  0.923879 0.000002 -0.382684  0.005518 0.736972 1 64 1.000000
lowpoly_plastic
0  -3.373441 2.616273 -4.063538  0.000005 -1.000000 -0.000007  0.005518 0.736972 1 64 1.000000
0  -3.373441 2.616273 -4.369310  -0.000001 -1.000000 0.000000  0.005518 0.736972 1 64 1.000000
0  -3.105242 2.616277 -4.480402  -0.000008 -1.000000 0.000007  0.005518 0.736972 1 64 1.000000
lowpoly_plastic
0  -3.373441 2.616273 -4.369310  0.382681 0.000003 -0.923880  0.005518 0.736972 1 64 1.000000
0  -3.641643 2.616278 -4.480402  0.382681 0.000000 -0.923881  0.005518 0.736972 1 64 1.000000
0  -3.641643 2.874765 -4.480402  0.382681 0.000002 -0.923880  0.005518 0.736972 1 64 1.000000
lowpoly_plastic
0  -3.857854 2.616270 -5.233018  0.000019 -1.000000 0.000015  0.005518 0.736972 1 64 1.000000
0  -3.641643 2.616278 -5.016805  0.000019 -1.000000 0.000011  0.005518 0.736972 1 64 1.000000
0  -3.752734 2.616276 -4.748602  0.000015 -1.000000 0.000006  0.005518 0.736972 1 64 1.000000
lowpoly_plastic
0  -2.889026 2.616277 -5.233018  -0.000001 -1.000000 -0.000005  0.005518 0.736972 1 64 1.000000
0  -2.688375 2.616273 -4.748602  0.000012 -1.000000 -0.000000  0.005518 0.736972 1 64 1.000000
0  -2.994146 2.616270 -4.748602  0.000001 -1.000000 -0.000000  0.005518 0.736972 1 64 1.000000
lowpoly_plastic
0  -2.889026 2.616276 -4.264191  -0.000001 -1.000000 0.000003  0.005518 0.736972 1 64 1.000000
0  -3.105242 2.616277 -4.480402  -0.000008 -1.000000 0.000007  0.005518 0.736972 1 64 1.000000
0  -2.994146 2.616270 -4.748602  0.000001 -1.000000 -0.000000  0.005518 0.736972 1 64 1.000000
lowpoly_plastic
0  -3.373441 2.616273 -4.063538  0.000005 -1.000000 -0.000007  0.005518 0.736972 1 64 1.000000
0  -3.857854 2.616269 -4.264191  0.000020 -1.000000 -0.000019  0.005518 0.736972 1 64 1.000000
0  -3.641643 2.616278 -4.480402  0.000013 -1.000000 -0.000013  0.005518 0.736972 1 64 1.000000
lowpoly_plastic
0  -3.373441 2.616274 -5.433670  0.000005 -1.000000 0.000006  0.005518 0.736972 1 64 1.000000
0  -3.373441 2.616274 -5.127898  -0.000001 -1.000000 -0.000001  0.005518 0.736972 1 64 1.000000
0  -3.641643 2.616278 -5.016805  0.000019 -1.000000 0.000011  0.005518 0.736972 1 64 1.000000
lowpoly_plastic
0  -4.058505 2.616273 -4.748604  0.000014 -1.000000 0.000002  0.005518 0.736972 1 64 1.000000
0  -3.752734 2.616276 -4.748602  0.000015 -1.000000 0.000006  0.005518 0.736972 1 64 1.000000
0  -3.641643 2.616278 -4.480402  0.000013 -1.000000 -0.000013  0.005518 0.736972 1 64 1.000000
lowpoly_plastic
0  -3.373441 2.616274 -5.433670  0.000005 -1.000000 0.000006  0.005518 0.736972 1 64 1.000000
0  -2.889026 2.616277 -5.233018  -0.000001 -1.000000 -0.000005  0.005518 0.736972 1 64 1.000000
0  -3.105242 2.616277 -5.016805  -0.000008 -1.000000 -0.000008  0.005518 0.736972 1 64 1.000000
lowpoly_plastic
0  -3.105238 2.874766 -5.016805  -0.000002 -1.000000 -0.000002  0.005518 0.736972 1 64 1.000000
0  -2.994147 2.874766 -4.748602  -0.000002 -1.000000 0.000000  0.005518 0.736972 1 64 1.000000
0  -3.105238 2.874766 -4.480402  -0.000005 -1.000000 0.000000  0.005518 0.736972 1 64 1.000000
lowpoly_plastic
0  -3.105238 2.874766 -4.480402  -0.000005 -1.000000 0.000000  0.005518 0.736972 1 64 1.000000
0  -3.373444 2.874768 -4.369310  0.000004 -1.000000 0.000004  0.005518 0.736972 1 64 1.000000
0  -3.105238 2.874766 -5.016805  -0.000002 -1.000000 -0.000002  0.005518 0.736972 1 64 1.000000
lowpoly_plastic
0  -3.641643 2.874765 -4.480402  0.000008 -1.000000 0.000002  0.005518 0.736972 1 64 1.000000
0  -3.752733 2.874763 -4.748604  0.000015 -1.000000 0.000000  0.005518 0.736972 1 64 1.000000
0  -3.641643 2.874765 -5.016805  0.000012 -1.000000 -0.000001  0.005518 0.736972 1 64 1.000000
lowpoly_plastic
0  -3.641643 2.874765 -5.016805  0.000012 -1.000000 -0.000001  0.005518 0.736972 1 64 1.000000
0  -3.373444 2.874768 -5.127898  0.000001 -1.000000 -0.000004  0.005518 0.736972 1 64 1.000000
0  -3.641643 2.874765 -4.480402  0.000008 -1.000000 0.000002  0.005518 0.736972 1 64 1.000000
lowpoly_plastic
0  -3.105238 2.874766 -5.016805  -0.000002 -1.000000 -0.000002  0.005518 0.736972 1 64 1.000000
0  -3.373444 2.874768 -4.369310  0.000004 -1.000000 0.000004  0.005518 0.736972 1 64 1.000000
0  -3.641643 2.874765 -4.480402  0.000008 -1.000000 0.000002  0.005518 0.736972 1 64 1.000000
lowpoly_plastic
0  -3.105242 2.616277 -4.480402  -0.923878 0.000006 -0.382686  0.005518 0.736972 1 64 1.000000
0  -3.105238 2.874766 -4.480402  -0.923881 0.000014 -0.382680  0.005518 0.736972 1 64 1.000000
0  -2.994147 2.874766 -4.748602  -0.923878 0.000005 -0.382687  0.005518 0.736972 1 64 1.000000
lowpoly_plastic
0  -2.994146 2.616270 -4.748602  -0.923879 0.000005 0.382684  0.005518 0.736972 1 64 1.000000
0  -2.994147 2.874766 -4.748602  -0.923882 -0.000002 0.382678  0.005518 0.736972 1 64 1.000000
0  -3.105238 2.874766 -5.016805  -0.923879 0.000006 0.382685  0.005518 0.736972 1 64 1.000000
lowpoly_plastic
0  -3.373441 2.616274 -5.127898  0.382685 0.000003 0.923879  0.005518 0.736972 1 64 1.000000
0  -3.373444 2.874768 -5.127898  0.382686 0.000005 0.923878  0.005518 0.736972 1 64 1.000000
0  -3.641643 2.874765 -5.016805  0.382685 0.000002 0.923879  0.005518 0.736972 1 64 1.000000
lowpoly_plastic
0  -3.641643 2.616278 -4.480402  0.923882 -0.000002 -0.382677  0.005518 0.736972 1 64 1.000000
0  -3.752734 2.616276 -4.748602  0.923882 -0.000003 -0.382679  0.005518 0.736972 1 64 1.000000
0  -3.752733 2.874763 -4.748604  0.923882 -0.000002 -0.382678  0.005518 0.736972 1 64 1.000000
lowpoly_plastic
0  -3.105242 2.616277 -4.480402  -0.382679 0.000001 -0.923881  0.005518 0.736972 1 64 1.000000
0  -3.373441 2.616273 -4.369310  -0.382683 -0.000005 -0.923880  0.005518 0.736972 1 64 1.000000
0  -3.373444 2.874768 -4.369310  -0.382680 0.000000 -0.923881  0.005518 0.736972 1 64 1.000000
lowpoly_plastic
0  -3.105242 2.616277 -5.016805  -0.382681 0.000001 0.923880  0.005518 0.736972 1 64 1.000000
0  -3.105238 2.874766 -5.016805  -0.382677 0.000006 0.923882  0.005518 0.736972 1 64 1.000000
0  -3.373444 2.874768 -5.127898  -0.382682 0.000000 0.923880  0.005518 0.736972 1 64 1.000000
lowpoly_plastic
0  -3.641643 2.616278 -5.016805  0.923882 0.000001 0.382677  0.005518 0.736972 1 64 1.000000
0  -3.641643 2.874765 -5.016805  0.923882 0.000000 0.382678  0.005518 0.736972 1 64 1.000000
0  -3.752733 2.874763 -4.748604  0.923882 0.000001 0.382677  0.005518 0.736972 1 64 1.000000
end
