version 1
nodes
0 "ValveBiped.Bip01_Spine4" -1
1 "ValveBiped.Bip01_L_Clavicle" 0
2 "ValveBiped.Bip01_L_UpperArm" 1
3 "ValveBiped.Bip01_L_Forearm" 2
4 "ValveBiped.Bip01_L_Hand" 3
5 "ValveBiped.Bip01_L_Finger4" 4
6 "ValveBiped.Bip01_L_Finger41" 5
7 "ValveBiped.Bip01_L_Finger42" 6
8 "ValveBiped.Bip01_L_Finger3" 4
9 "ValveBiped.Bip01_L_Finger31" 8
10 "ValveBiped.Bip01_L_Finger32" 9
11 "ValveBiped.Bip01_L_Finger2" 4
12 "ValveBiped.Bip01_L_Finger21" 11
13 "ValveBiped.Bip01_L_Finger22" 12
14 "ValveBiped.Bip01_L_Finger1" 4
15 "ValveBiped.Bip01_L_Finger11" 14
16 "ValveBiped.Bip01_L_Finger12" 15
17 "ValveBiped.Bip01_L_Finger0" 4
18 "ValveBiped.Bip01_L_Finger01" 17
19 "ValveBiped.Bip01_L_Finger02" 18
20 "ValveBiped.Bip01_L_Ulna" 3
21 "ValveBiped.Bip01_L_Wrist" 3
22 "rig_l_upperarm" 1
23 "rig_l_forearm" 22
24 "rig_d_l_forearm" 23
25 "rig_d_l_upperarm" 22
26 "ValveBiped.Bip01_R_Clavicle" 0
27 "ValveBiped.Bip01_R_UpperArm" 26
28 "ValveBiped.Bip01_R_Forearm" 27
29 "ValveBiped.Bip01_R_Hand" 28
30 "ValveBiped.Bip01_R_Finger4" 29
31 "ValveBiped.Bip01_R_Finger41" 30
32 "ValveBiped.Bip01_R_Finger42" 31
33 "ValveBiped.Bip01_R_Finger3" 29
34 "ValveBiped.Bip01_R_Finger31" 33
35 "ValveBiped.Bip01_R_Finger32" 34
36 "ValveBiped.Bip01_R_Finger2" 29
37 "ValveBiped.Bip01_R_Finger21" 36
38 "ValveBiped.Bip01_R_Finger22" 37
39 "ValveBiped.Bip01_R_Finger1" 29
40 "ValveBiped.Bip01_R_Finger11" 39
41 "ValveBiped.Bip01_R_Finger12" 40
42 "ValveBiped.Bip01_R_Finger0" 29
43 "ValveBiped.Bip01_R_Finger01" 42
44 "ValveBiped.Bip01_R_Finger02" 43
45 "ValveBiped.Bip01_R_Ulna" 28
46 "ValveBiped.Bip01_R_Wrist" 28
47 "rig_r_upperarm" 26
48 "rig_r_forearm" 47
49 "rig_d_r_forearm" 48
50 "rig_d_r_upperarm" 47
51 "rig_r_hand" -1
52 "rig_d_r_hand" 51
53 "rig_d_r_wrist" 52
54 "rig_l_hand" -1
55 "rig_d_l_hand" 54
56 "rig_d_l_wrist" 54
57 "rig_l_pole" -1
58 "rig_r_pole" -1
59 "rig_l_clavicle" -1
60 "rig_d_l_clavicle" 59
61 "rig_r_clavicle" -1
62 "rig_d_r_clavicle" 61
63 "Camera" -1
64 "body" -1
65 "trigger" 64
66 "barrel" 64
67 "bulletdoor" 64
68 "pump" 64
69 "bolt" 68
70 "tac" 68
71 "bullet2" 64
72 "catch" 64
73 "hookontop" 64
74 "bullet1" -1
end
skeleton
time 0
0  0.000006 0.000000 0.000000  -1.570800 -1.391899 -1.570792
1  2.033349 1.000767 1.937657  -1.544956 -1.855077 -0.198630
2  6.027514 -0.000325 0.000203  -1.578134 0.019585 -0.589035
3  11.692119 0.000651 -0.000739  -0.000006 -0.000000 -0.007115
4  11.999127 0.001590 -0.000766  1.595761 -0.165077 0.023306
5  3.859509 -0.142880 -1.192049  -0.468164 0.151540 -0.880272
6  1.312589 0.000013 0.000008  -0.000026 0.000045 -0.439738
7  0.729353 0.000057 0.000050  0.000017 0.000021 -0.244318
8  3.942147 0.046273 -0.431512  -0.151810 0.073212 -0.811101
9  1.539113 0.000082 0.000005  -0.000007 0.000021 -0.247841
10  1.196333 0.000144 0.000029  0.000011 0.000019 -0.430771
11  3.883508 -0.047271 0.431381  0.085898 0.021851 -0.587925
12  1.719573 -0.000027 0.000015  0.000015 0.005519 -0.366533
13  1.209179 0.000092 0.000012  0.000004 0.003092 -0.216437
14  3.859665 -0.138476 1.332410  0.354468 -0.042725 -0.531804
15  1.719447 -0.000013 0.000021  0.000029 0.004070 -0.363021
16  1.099675 0.000050 0.000006  0.000003 0.002579 -0.244381
17  0.805995 -0.349051 1.321254  -1.222687 -0.679194 -0.788886
18  1.789824 -0.000000 -0.000020  0.000012 -0.000024 0.228522
19  1.207013 -0.000009 -0.000043  0.000002 -0.000008 0.362858
20  5.740632 0.000410 -0.000703  0.003178 0.000003 0.000071
21  11.584835 0.000527 -0.000812  0.009109 -0.011370 -0.004794
22  6.027524 -0.000330 0.000203  0.025560 -2.447253 -2.176251
23  -0.000000 11.692099 -0.000007  -0.005466 -0.000058 -0.004620
24  0.000005 0.000008 -0.000000  0.868996 -0.000031 1.570738
25  -0.000001 -0.000011 -0.000001  0.868957 0.000002 1.570712
26  2.033355 1.000772 -1.937609  1.473120 1.855075 -0.198639
27  6.027509 -0.000258 -0.000243  1.392296 -0.308158 -0.716045
28  11.691988 0.000245 0.000856  -0.000051 -0.000000 -0.007106
29  15.731141 0.011821 0.001120  -1.322590 0.229004 -0.243062
30  3.859436 -0.132788 1.193061  0.466291 -0.158048 -0.878829
31  1.312555 0.000029 -0.000000  0.000011 -0.000044 -0.439710
32  0.729342 0.000063 -0.000027  -0.000023 -0.000019 -0.244285
33  3.942044 0.050108 0.430997  0.150090 -0.079180 -0.810199
34  1.539097 0.000009 -0.000001  0.000010 -0.000008 -0.247820
35  1.196300 0.000072 -0.000004  -0.000007 -0.000009 -0.430783
36  3.883408 -0.050500 -0.431087  -0.085915 -0.026391 -0.587671
37  1.719566 -0.000079 -0.000003  -0.000006 -0.007962 -0.366483
38  1.209195 0.000035 0.000010  0.000002 -0.004460 -0.216413
39  3.859584 -0.149111 -1.331324  -0.354446 0.038580 -0.531962
40  1.719412 -0.000100 -0.000035  -0.000028 -0.006585 -0.363032
41  1.099674 0.000024 0.000006  0.000004 -0.004187 -0.244346
42  0.805979 -0.359854 -1.318339  1.221444 0.673631 -0.793566
43  1.789779 -0.000009 -0.000042  -0.000028 0.000031 0.228552
44  1.206998 -0.000003 0.000006  -0.000017 0.000020 0.362911
45  5.740571 0.000055 0.000724  0.133437 -0.000014 0.000021
46  12.331173 0.002399 0.000973  0.049549 0.021152 -0.066099
47  6.027514 -0.000273 -0.000237  0.463503 -0.825111 -2.638807
48  -0.000001 11.691972 -0.000005  -0.005438 0.000036 0.004597
49  0.000004 -0.000000 0.000000  2.272569 -0.000041 1.570856
50  -0.000007 -0.000015 0.000005  2.272644 -0.000030 1.570865
51  -22.082058 8.060896 -21.238316  -1.641353 2.327627 -0.082580
52  -0.000001 0.000001 -0.000000  0.008153 -0.000259 0.000009
53  -0.000002 0.000001 -0.000001  1.565115 0.043565 -0.106862
54  22.941027 -1.017549 -18.021313  1.632296 0.707372 0.045120
55  0.000001 0.000000 0.000000  0.000000 -0.000000 -0.000002
56  0.000032 0.000030 0.000001  -1.571901 -0.044449 -0.106509
57  15.265023 8.339654 -8.787539  1.570796 -0.000000 0.000000
58  -15.265000 8.339654 -8.787539  1.570796 -0.000000 0.000000
59  1.941978 -1.346989 1.821586  1.570796 -0.000000 0.000000
60  -0.004311 0.001230 -0.000371  0.006898 -0.005534 -0.284229
61  -1.937603 -1.346625 1.822824  1.570796 -0.000000 0.000000
62  0.000000 0.000000 0.000000  -0.078727 -3.136056 0.284226
63  0.000000 0.000000 0.000000  1.570796 -0.000000 0.000000
64  -3.258810 -12.631968 -3.682181  1.570796 -0.000000 0.000000
65  -0.109379 -1.951951 -1.519205  0.000000 -0.000000 0.000000
66  -0.109379 0.057027 25.399252  0.000000 -0.000000 0.000000
67  -0.109379 -1.856732 0.287230  0.000000 -0.000000 0.000000
68  -0.104048 -4.495923 7.879276  0.000000 -0.000000 0.000000
69  -0.195264 4.332630 -6.347187  0.000000 -0.000000 0.000000
70  -1.290112 3.693283 8.579668  0.000000 -0.000000 0.000000
71  -0.104049 -1.582848 2.554636  0.000000 -0.000000 0.000000
72  -1.107528 -1.063453 4.061647  0.000000 -0.000000 0.000000
73  0.003659 1.612363 10.733982  0.000000 -0.000000 0.000000
74  -3.362859 -12.987121 -5.265029  1.570796 -0.000000 0.000000
end
triangles
lowpoly_plastic
0  -4.499949 -21.149067 -4.037740  -1.000000 0.000000 0.000000  0.006095 0.737837 1 68 1.000000
0  -4.499949 -21.368694 -3.357715  -1.000000 0.000000 0.000000  0.006039 0.737661 1 68 1.000000
0  -4.499949 -21.149067 -3.357715  -1.000000 0.000000 0.000000  0.006095 0.737661 1 68 1.000000
lowpoly_plastic
0  -4.499949 -22.674171 -4.037740  0.000000 1.000000 0.000002  0.008525 0.763528 1 68 1.000000
0  -4.402589 -22.674171 -3.272635  0.000000 1.000000 0.000002  0.008550 0.763330 1 68 1.000000
0  -4.402589 -22.674171 -4.122821  0.000000 1.000000 0.000002  0.008550 0.763550 1 68 1.000000
lowpoly_plastic
0  -4.318085 -20.487629 -3.425592  0.000000 -0.000000 1.000000  0.006951 0.736196 1 68 1.000000
0  -4.043483 -23.169743 -3.425593  0.000000 -0.000000 1.000000  0.006978 0.735504 1 68 1.000000
0  -4.043483 -20.487629 -3.425592  0.000000 -0.000000 1.000000  0.006978 0.736196 1 68 1.000000
lowpoly_plastic
0  -4.318085 -20.487629 -3.425592  0.000000 1.000000 0.000000  0.007133 0.737192 1 68 1.000000
0  -4.402589 -20.487629 -4.122820  0.000000 1.000000 0.000000  0.007111 0.737372 1 68 1.000000
0  -4.402589 -20.487629 -3.272634  0.000000 1.000000 0.000000  0.007111 0.737153 1 68 1.000000
lowpoly_plastic
0  -4.402589 -20.487629 -3.272634  -0.658020 -0.000002 0.753000  0.006973 0.737938 1 68 1.000000
0  -4.499949 -20.976942 -3.357714  -0.658020 -0.000002 0.753000  0.006948 0.737811 1 68 1.000000
0  -4.402589 -20.976942 -3.272634  -0.658020 -0.000002 0.753000  0.006973 0.737811 1 68 1.000000
lowpoly_plastic
0  -4.499949 -23.003799 -4.037740  -0.658021 0.000000 -0.753000  0.006884 0.737896 1 68 1.000000
0  -4.402589 -22.674171 -4.122821  -0.658021 0.000000 -0.753000  0.006910 0.737811 1 68 1.000000
0  -4.402589 -23.169743 -4.122821  -0.658021 0.000000 -0.753000  0.006910 0.737938 1 68 1.000000
lowpoly_plastic
0  -4.318085 -23.169743 -3.425593  0.000000 -1.000000 0.000000  0.004280 0.737809 1 68 1.000000
0  -4.043483 -23.169743 -3.969863  0.000000 -1.000000 0.000000  0.004307 0.737668 1 68 1.000000
0  -4.043483 -23.169743 -3.425593  0.000000 -1.000000 0.000000  0.004307 0.737809 1 68 1.000000
lowpoly_plastic
0  -4.402589 -23.169743 -3.272635  0.000000 -1.000000 0.000000  0.004259 0.737848 1 68 1.000000
0  -4.318085 -23.169743 -3.969863  0.000000 -1.000000 0.000000  0.004280 0.737668 1 68 1.000000
0  -4.318085 -23.169743 -3.425593  0.000000 -1.000000 0.000000  0.004280 0.737809 1 68 1.000000
lowpoly_plastic
0  -4.318085 -23.169743 -3.969863  0.875304 0.000000 -0.483572  0.006843 0.737090 1 68 1.000000
0  -4.402589 -22.674171 -4.122821  0.875304 0.000000 -0.483572  0.006804 0.736962 1 68 1.000000
0  -4.318085 -20.487629 -3.969862  0.875304 0.000000 -0.483572  0.006843 0.736397 1 68 1.000000
lowpoly_plastic
0  -4.499949 -20.976942 -4.037739  -0.658028 -0.000001 -0.752993  0.005546 0.737939 1 68 1.000000
0  -4.402589 -20.487629 -4.122820  -0.658028 -0.000001 -0.752993  0.005572 0.737813 1 68 1.000000
0  -4.402588 -20.976942 -4.122820  -0.658028 -0.000001 -0.752993  0.005572 0.737939 1 68 1.000000
lowpoly_plastic
0  -4.402589 -21.368694 -3.272635  0.000000 -1.000000 0.000000  0.008575 0.763330 1 68 1.000000
0  -4.499949 -21.368694 -4.037740  0.000000 -1.000000 0.000000  0.008600 0.763528 1 68 1.000000
0  -4.402589 -21.368694 -4.122821  0.000000 -1.000000 0.000000  0.008575 0.763550 1 68 1.000000
lowpoly_plastic
0  -4.499949 -23.003799 -3.357716  -1.000000 0.000000 0.000000  0.006382 0.737764 1 68 1.000000
0  -4.499949 -22.674171 -4.037740  -1.000000 0.000000 0.000000  0.006297 0.737588 1 68 1.000000
0  -4.499949 -23.003799 -4.037740  -1.000000 0.000000 0.000000  0.006382 0.737588 1 68 1.000000
lowpoly_plastic
0  -4.402589 -21.368694 -4.122821  -1.000000 0.000000 0.000000  0.008012 0.765324 1 68 1.000000
0  -4.402589 -22.674171 -3.272635  -1.000000 0.000000 0.000000  0.007793 0.765661 1 68 1.000000
0  -4.402589 -21.368694 -3.272635  -1.000000 0.000000 0.000000  0.007793 0.765324 1 68 1.000000
lowpoly_plastic
0  -4.402589 -21.149067 -3.272635  -0.658025 0.000000 0.752996  0.007064 0.734999 1 68 1.000000
0  -4.499949 -21.368694 -3.357715  -0.658025 0.000000 0.752996  0.007039 0.734942 1 68 1.000000
0  -4.402589 -21.368694 -3.272635  -0.658025 0.000000 0.752996  0.007064 0.734943 1 68 1.000000
lowpoly_plastic
0  -4.499949 -21.368694 -4.037740  -0.658028 0.000000 -0.752994  0.007048 0.737912 1 68 1.000000
0  -4.402589 -21.149067 -4.122821  -0.658028 0.000000 -0.752994  0.007073 0.737855 1 68 1.000000
0  -4.402589 -21.368694 -4.122821  -0.658028 0.000000 -0.752994  0.007073 0.737911 1 68 1.000000
lowpoly_plastic
0  -4.499949 -21.149067 -3.357715  0.000000 1.000000 0.000000  0.008526 0.763955 1 68 1.000000
0  -4.402589 -21.149067 -4.122821  0.000000 1.000000 0.000000  0.008551 0.764153 1 68 1.000000
0  -4.499949 -21.149067 -4.037740  0.000000 1.000000 0.000000  0.008526 0.764131 1 68 1.000000
lowpoly_plastic
0  -4.318085 -20.487629 -3.425592  0.875304 -0.000000 0.483572  0.006764 0.736397 1 68 1.000000
0  -4.402589 -20.487629 -3.272634  0.875304 -0.000000 0.483572  0.006804 0.736397 1 68 1.000000
0  -4.402589 -22.674171 -3.272635  0.875304 -0.000000 0.483572  0.006804 0.736962 1 68 1.000000
lowpoly_plastic
0  -4.499949 -20.976942 -3.357714  0.000000 -1.000000 0.000000  0.005678 0.766147 1 68 1.000000
0  -4.402588 -20.976942 -4.122820  0.000000 -1.000000 0.000000  0.005653 0.766344 1 68 1.000000
0  -4.402589 -20.976942 -3.272634  0.000000 -1.000000 0.000000  0.005653 0.766125 1 68 1.000000
lowpoly_plastic
0  -4.499949 -23.003799 -3.357716  -0.862508 -0.506043 0.000002  0.006382 0.737764 1 68 1.000000
0  -4.402589 -23.169743 -4.122821  -0.862508 -0.506043 0.000002  0.006425 0.737567 1 68 1.000000
0  -4.402589 -23.169743 -3.272635  -0.862508 -0.506043 0.000002  0.006425 0.737786 1 68 1.000000
lowpoly_plastic
0  -4.402589 -22.674171 -3.272635  -0.658031 -0.000001 0.752990  0.006941 0.737938 1 68 1.000000
0  -4.499949 -23.003799 -3.357716  -0.658031 -0.000001 0.752990  0.006916 0.737853 1 68 1.000000
0  -4.402589 -23.169743 -3.272635  -0.658031 -0.000001 0.752990  0.006941 0.737811 1 68 1.000000
lowpoly_plastic
0  -4.499949 -20.976942 -3.357714  -1.000000 -0.000002 -0.000001  0.005352 0.737641 1 68 1.000000
0  -4.499949 -20.603312 -4.037739  -1.000000 -0.000002 -0.000001  0.005449 0.737816 1 68 1.000000
0  -4.499949 -20.976942 -4.037739  -1.000000 -0.000002 -0.000001  0.005352 0.737816 1 68 1.000000
lowpoly_plastic
0  -4.499949 -20.603312 -4.037739  -0.765094 0.643918 0.000000  0.005449 0.737816 1 68 1.000000
0  -4.402589 -20.487629 -3.272634  -0.765094 0.643918 0.000000  0.005478 0.737619 1 68 1.000000
0  -4.402589 -20.487629 -4.122820  -0.765094 0.643918 0.000000  0.005478 0.737838 1 68 1.000000
lowpoly_plastic
0  -4.043483 -23.169743 -3.969863  0.000000 0.000000 -1.000000  0.006916 0.736888 1 68 1.000000
0  -4.318085 -20.487629 -3.969862  0.000000 0.000000 -1.000000  0.006889 0.736196 1 68 1.000000
0  -4.043483 -20.487629 -3.969862  0.000000 0.000000 -1.000000  0.006916 0.736196 1 68 1.000000
lowpoly_plastic
0  -4.318085 -20.487629 -3.969862  0.000000 1.000000 0.000000  0.007004 0.735778 1 68 1.000000
0  -4.043483 -20.487629 -3.425592  0.000000 1.000000 0.000000  0.006978 0.735918 1 68 1.000000
0  -4.043483 -20.487629 -3.969862  0.000000 1.000000 0.000000  0.006978 0.735778 1 68 1.000000
lowpoly_plastic
0  -4.402589 -21.149067 -4.122821  -1.000000 0.000000 -0.000001  0.005819 0.765837 1 68 1.000000
0  -4.402589 -20.976942 -3.272634  -1.000000 0.000000 -0.000001  0.005775 0.766057 1 68 1.000000
0  -4.402588 -20.976942 -4.122820  -1.000000 0.000000 -0.000001  0.005775 0.765837 1 68 1.000000
lowpoly_plastic
0  -4.499949 -21.524059 -4.037740  -1.000000 0.000000 -0.000001  0.006013 0.737837 1 68 1.000000
0  -4.499949 -21.743687 -3.357715  -1.000000 0.000000 -0.000001  0.005956 0.737661 1 68 1.000000
0  -4.499949 -21.524059 -3.357715  -1.000000 0.000000 -0.000001  0.006013 0.737661 1 68 1.000000
lowpoly_plastic
0  -4.402589 -21.743687 -3.272635  0.000000 -1.000000 0.000000  0.006771 0.766121 1 68 1.000000
0  -4.499949 -21.743687 -4.037740  0.000000 -1.000000 0.000000  0.006796 0.766318 1 68 1.000000
0  -4.402589 -21.743687 -4.122821  0.000000 -1.000000 0.000000  0.006771 0.766340 1 68 1.000000
lowpoly_plastic
0  -4.402589 -21.524059 -3.272635  -0.658025 0.000000 0.752996  0.005720 0.737953 1 68 1.000000
0  -4.499949 -21.743687 -3.357715  -0.658025 0.000000 0.752996  0.005695 0.737896 1 68 1.000000
0  -4.402589 -21.743687 -3.272635  -0.658025 0.000000 0.752996  0.005720 0.737897 1 68 1.000000
lowpoly_plastic
0  -4.499949 -21.743687 -4.037740  -0.658026 0.000000 -0.752996  0.006530 0.737962 1 68 1.000000
0  -4.402589 -21.524059 -4.122821  -0.658026 0.000000 -0.752996  0.006555 0.737905 1 68 1.000000
0  -4.402589 -21.743687 -4.122821  -0.658026 0.000000 -0.752996  0.006555 0.737962 1 68 1.000000
lowpoly_plastic
0  -4.499949 -21.524059 -3.357715  0.000000 1.000000 0.000000  0.008526 0.764175 1 68 1.000000
0  -4.402589 -21.524059 -4.122821  0.000000 1.000000 0.000000  0.008551 0.764372 1 68 1.000000
0  -4.499949 -21.524059 -4.037740  0.000000 1.000000 0.000000  0.008526 0.764350 1 68 1.000000
lowpoly_plastic
0  -4.499949 -21.899050 -4.037740  -1.000000 0.000000 -0.000001  0.005956 0.737837 1 68 1.000000
0  -4.499949 -22.118681 -3.357715  -1.000000 0.000000 -0.000001  0.005900 0.737661 1 68 1.000000
0  -4.499949 -21.899050 -3.357715  -1.000000 0.000000 -0.000001  0.005956 0.737661 1 68 1.000000
lowpoly_plastic
0  -4.402589 -22.118681 -3.272635  0.000000 -1.000000 0.000000  0.006720 0.766121 1 68 1.000000
0  -4.499949 -22.118681 -4.037740  0.000000 -1.000000 0.000000  0.006746 0.766318 1 68 1.000000
0  -4.402589 -22.118681 -4.122821  0.000000 -1.000000 0.000000  0.006720 0.766340 1 68 1.000000
lowpoly_plastic
0  -4.402589 -21.899050 -3.272635  -0.658022 0.000000 0.752999  0.004631 0.737954 1 68 1.000000
0  -4.499949 -22.118681 -3.357715  -0.658022 0.000000 0.752999  0.004606 0.737897 1 68 1.000000
0  -4.402589 -22.118681 -3.272635  -0.658022 0.000000 0.752999  0.004631 0.737897 1 68 1.000000
lowpoly_plastic
0  -4.499949 -22.118681 -4.037740  -0.658027 0.000000 -0.752995  0.004895 0.737956 1 68 1.000000
0  -4.402589 -21.899050 -4.122821  -0.658027 0.000000 -0.752995  0.004920 0.737899 1 68 1.000000
0  -4.402589 -22.118681 -4.122821  -0.658027 0.000000 -0.752995  0.004920 0.737956 1 68 1.000000
lowpoly_plastic
0  -4.499949 -21.899050 -3.357715  0.000000 1.000000 0.000000  0.008525 0.763572 1 68 1.000000
0  -4.402589 -21.899050 -4.122821  0.000000 1.000000 0.000000  0.008550 0.763769 1 68 1.000000
0  -4.499949 -21.899050 -4.037740  0.000000 1.000000 0.000000  0.008525 0.763747 1 68 1.000000
lowpoly_plastic
0  -4.499949 -22.274040 -4.037740  -1.000000 0.000000 -0.000001  0.006941 0.737811 1 68 1.000000
0  -4.499949 -22.493671 -3.357715  -1.000000 0.000000 -0.000001  0.006884 0.737635 1 68 1.000000
0  -4.499949 -22.274040 -3.357715  -1.000000 0.000000 -0.000001  0.006941 0.737635 1 68 1.000000
lowpoly_plastic
0  -4.402589 -22.493671 -3.272635  0.000000 -1.000000 0.000000  0.006746 0.766121 1 68 1.000000
0  -4.499949 -22.493671 -4.037740  0.000000 -1.000000 0.000000  0.006771 0.766318 1 68 1.000000
0  -4.402589 -22.493671 -4.122821  0.000000 -1.000000 0.000000  0.006746 0.766340 1 68 1.000000
lowpoly_plastic
0  -4.402589 -22.274040 -3.272635  -0.658022 0.000000 0.752999  0.007062 0.736250 1 68 1.000000
0  -4.499949 -22.493671 -3.357715  -0.658022 0.000000 0.752999  0.007037 0.736193 1 68 1.000000
0  -4.402589 -22.493671 -3.272635  -0.658022 0.000000 0.752999  0.007062 0.736194 1 68 1.000000
lowpoly_plastic
0  -4.499949 -22.493671 -4.037740  -0.658027 0.000000 -0.752995  0.004870 0.737956 1 68 1.000000
0  -4.402589 -22.274040 -4.122821  -0.658027 0.000000 -0.752995  0.004895 0.737899 1 68 1.000000
0  -4.402589 -22.493671 -4.122821  -0.658027 0.000000 -0.752995  0.004895 0.737956 1 68 1.000000
lowpoly_plastic
0  -4.499949 -22.274040 -3.357715  0.000000 1.000000 -0.000007  0.008526 0.765495 1 68 1.000000
0  -4.402589 -22.274040 -4.122821  0.000000 1.000000 -0.000007  0.008551 0.765692 1 68 1.000000
0  -4.499949 -22.274040 -4.037740  0.000000 1.000000 -0.000007  0.008526 0.765670 1 68 1.000000
lowpoly_metal
0  -4.350106 -20.699360 -3.697726  0.000000 0.866028 0.499995  0.072761 0.805737 1 68 1.000000
0  -4.531638 -20.744743 -3.619121  0.000000 0.866028 0.499995  0.071294 0.810139 1 68 1.000000
0  -4.350106 -20.744743 -3.619121  0.000000 0.866028 0.499995  0.071294 0.805737 1 68 1.000000
lowpoly_metal
0  -4.350106 -20.744743 -3.619121  0.000000 0.000000 1.000000  0.071294 0.805737 1 68 1.000000
0  -4.531638 -20.835510 -3.619121  0.000000 0.000000 1.000000  0.069827 0.810139 1 68 1.000000
0  -4.350106 -20.835510 -3.619121  0.000000 0.000000 1.000000  0.069827 0.805737 1 68 1.000000
lowpoly_metal
0  -4.350106 -20.835510 -3.619121  0.000000 -0.866028 0.499995  0.069827 0.805737 1 68 1.000000
0  -4.531638 -20.880892 -3.697726  0.000000 -0.866028 0.499995  0.068359 0.810139 1 68 1.000000
0  -4.350106 -20.880892 -3.697726  0.000000 -0.866028 0.499995  0.068359 0.805737 1 68 1.000000
lowpoly_metal
0  -4.350106 -20.880892 -3.697726  0.000000 -0.866040 -0.499974  0.068359 0.805737 1 68 1.000000
0  -4.531638 -20.835510 -3.776332  0.000000 -0.866040 -0.499974  0.066892 0.810139 1 68 1.000000
0  -4.350106 -20.835510 -3.776332  0.000000 -0.866040 -0.499974  0.066892 0.805737 1 68 1.000000
lowpoly_metal
0  -4.531638 -20.880892 -3.697726  -1.000000 0.000000 0.000000  0.066159 0.801424 1 68 1.000000
0  -4.531638 -20.744743 -3.619121  -1.000000 0.000000 0.000000  0.067988 0.804593 1 68 1.000000
0  -4.531638 -20.744743 -3.776332  -1.000000 0.000000 0.000000  0.064329 0.804593 1 68 1.000000
lowpoly_metal
0  -4.350106 -20.835510 -3.776332  0.000000 0.000000 -1.000000  0.066892 0.805737 1 68 1.000000
0  -4.531638 -20.744743 -3.776332  0.000000 0.000000 -1.000000  0.065425 0.810139 1 68 1.000000
0  -4.350106 -20.744743 -3.776332  0.000000 0.000000 -1.000000  0.065425 0.805737 1 68 1.000000
lowpoly_metal
0  -4.350106 -20.744743 -3.776332  0.000000 0.866015 -0.500017  0.065425 0.805737 1 68 1.000000
0  -4.531638 -20.699360 -3.697726  0.000000 0.866015 -0.500017  0.063958 0.810139 1 68 1.000000
0  -4.350106 -20.699360 -3.697726  0.000000 0.866015 -0.500017  0.063958 0.805737 1 68 1.000000
lowpoly_metal
0  -4.350106 -20.835510 -3.619121  1.000000 0.000000 0.000000  0.072390 0.802480 1 68 1.000000
0  -4.350106 -20.880892 -3.697726  1.000000 0.000000 0.000000  0.070560 0.801424 1 68 1.000000
0  -4.350106 -20.835510 -3.776332  1.000000 0.000000 0.000000  0.068730 0.802480 1 68 1.000000
lowpoly_metal
0  -4.350106 -22.757627 -3.697726  0.000000 0.866040 0.499974  0.072761 0.805737 1 68 1.000000
0  -4.531638 -22.803009 -3.619121  0.000000 0.866040 0.499974  0.071294 0.810139 1 68 1.000000
0  -4.350106 -22.803009 -3.619121  0.000000 0.866040 0.499974  0.071294 0.805737 1 68 1.000000
lowpoly_metal
0  -4.350106 -22.803009 -3.619121  0.000000 0.000000 1.000000  0.071294 0.805737 1 68 1.000000
0  -4.531638 -22.893776 -3.619121  0.000000 0.000000 1.000000  0.069827 0.810139 1 68 1.000000
0  -4.350106 -22.893776 -3.619121  0.000000 0.000000 1.000000  0.069827 0.805737 1 68 1.000000
lowpoly_metal
0  -4.350106 -22.893776 -3.619121  0.000000 -0.866015 0.500017  0.069827 0.805737 1 68 1.000000
0  -4.531638 -22.939159 -3.697726  0.000000 -0.866015 0.500017  0.068359 0.810139 1 68 1.000000
0  -4.350106 -22.939159 -3.697726  0.000000 -0.866015 0.500017  0.068359 0.805737 1 68 1.000000
lowpoly_metal
0  -4.350106 -22.939159 -3.697726  0.000000 -0.866040 -0.499974  0.068359 0.805737 1 68 1.000000
0  -4.531638 -22.893776 -3.776332  0.000000 -0.866040 -0.499974  0.066892 0.810139 1 68 1.000000
0  -4.350106 -22.893776 -3.776332  0.000000 -0.866040 -0.499974  0.066892 0.805737 1 68 1.000000
lowpoly_metal
0  -4.531638 -22.803009 -3.619121  -1.000000 0.000000 0.000000  0.067988 0.804593 1 68 1.000000
0  -4.531638 -22.757627 -3.697726  -1.000000 0.000000 0.000000  0.066159 0.805649 1 68 1.000000
0  -4.531638 -22.803009 -3.776332  -1.000000 0.000000 0.000000  0.064329 0.804593 1 68 1.000000
lowpoly_metal
0  -4.350106 -22.893776 -3.776332  0.000000 0.000000 -1.000000  0.066892 0.805737 1 68 1.000000
0  -4.531638 -22.803009 -3.776332  0.000000 0.000000 -1.000000  0.065425 0.810139 1 68 1.000000
0  -4.350106 -22.803009 -3.776332  0.000000 0.000000 -1.000000  0.065425 0.805737 1 68 1.000000
lowpoly_metal
0  -4.350106 -22.803009 -3.776332  0.000000 0.866015 -0.500017  0.065425 0.805737 1 68 1.000000
0  -4.531638 -22.757627 -3.697726  0.000000 0.866015 -0.500017  0.063958 0.810139 1 68 1.000000
0  -4.350106 -22.757627 -3.697726  0.000000 0.866015 -0.500017  0.063958 0.805737 1 68 1.000000
lowpoly_metal
0  -4.350106 -22.757627 -3.697726  1.000000 0.000000 0.000000  0.070560 0.805649 1 68 1.000000
0  -4.350106 -22.893776 -3.619121  1.000000 0.000000 0.000000  0.072390 0.802480 1 68 1.000000
0  -4.350106 -22.893776 -3.776332  1.000000 0.000000 0.000000  0.068730 0.802480 1 68 1.000000
lowpoly_plastic
0  -4.499949 -21.149067 -4.037740  -1.000000 0.000000 0.000000  0.006095 0.737837 1 68 1.000000
0  -4.499949 -21.368694 -4.037740  -1.000000 0.000000 0.000000  0.006039 0.737837 1 68 1.000000
0  -4.499949 -21.368694 -3.357715  -1.000000 0.000000 0.000000  0.006039 0.737661 1 68 1.000000
lowpoly_plastic
0  -4.499949 -22.674171 -4.037740  0.000000 1.000000 0.000000  0.008525 0.763528 1 68 1.000000
0  -4.499949 -22.674171 -3.357716  0.000000 1.000000 0.000000  0.008525 0.763352 1 68 1.000000
0  -4.402589 -22.674171 -3.272635  0.000000 1.000000 0.000000  0.008550 0.763330 1 68 1.000000
lowpoly_plastic
0  -4.318085 -20.487629 -3.425592  0.000000 -0.000000 1.000000  0.006951 0.736196 1 68 1.000000
0  -4.318085 -23.169743 -3.425593  0.000000 -0.000000 1.000000  0.006951 0.735504 1 68 1.000000
0  -4.043483 -23.169743 -3.425593  0.000000 -0.000000 1.000000  0.006978 0.735504 1 68 1.000000
lowpoly_plastic
0  -4.318085 -20.487629 -3.425592  0.000000 1.000000 0.000000  0.007133 0.737192 1 68 1.000000
0  -4.318085 -20.487629 -3.969862  0.000000 1.000000 0.000000  0.007133 0.737333 1 68 1.000000
0  -4.402589 -20.487629 -4.122820  0.000000 1.000000 0.000000  0.007111 0.737372 1 68 1.000000
lowpoly_plastic
0  -4.402589 -20.487629 -3.272634  -0.658033 0.000000 0.752989  0.006973 0.737938 1 68 1.000000
0  -4.499949 -20.603312 -3.357714  -0.658033 0.000000 0.752989  0.006948 0.737907 1 68 1.000000
0  -4.499949 -20.976942 -3.357714  -0.658033 0.000000 0.752989  0.006948 0.737811 1 68 1.000000
lowpoly_plastic
0  -4.499949 -23.003799 -4.037740  -0.658028 0.000000 -0.752993  0.006884 0.737896 1 68 1.000000
0  -4.499949 -22.674171 -4.037740  -0.658028 0.000000 -0.752993  0.006884 0.737811 1 68 1.000000
0  -4.402589 -22.674171 -4.122821  -0.658028 0.000000 -0.752993  0.006910 0.737811 1 68 1.000000
lowpoly_plastic
0  -4.318085 -23.169743 -3.425593  0.000000 -1.000000 0.000000  0.004280 0.737809 1 68 1.000000
0  -4.318085 -23.169743 -3.969863  0.000000 -1.000000 0.000000  0.004280 0.737668 1 68 1.000000
0  -4.043483 -23.169743 -3.969863  0.000000 -1.000000 0.000000  0.004307 0.737668 1 68 1.000000
lowpoly_plastic
0  -4.402589 -23.169743 -3.272635  0.000000 -1.000000 0.000000  0.004259 0.737848 1 68 1.000000
0  -4.402589 -23.169743 -4.122821  0.000000 -1.000000 0.000000  0.004259 0.737629 1 68 1.000000
0  -4.318085 -23.169743 -3.969863  0.000000 -1.000000 0.000000  0.004280 0.737668 1 68 1.000000
lowpoly_plastic
0  -4.402589 -23.169743 -4.122821  0.875304 0.000000 -0.483574  0.006804 0.737090 1 68 1.000000
0  -4.402589 -22.674171 -4.122821  0.875304 0.000000 -0.483574  0.006804 0.736962 1 68 1.000000
0  -4.318085 -23.169743 -3.969863  0.875304 0.000000 -0.483574  0.006843 0.737090 1 68 1.000000
lowpoly_plastic
0  -4.402589 -22.674171 -4.122821  0.875303 0.000000 -0.483575  0.006804 0.736962 1 68 1.000000
0  -4.402589 -20.487629 -4.122820  0.875303 0.000000 -0.483575  0.006804 0.736397 1 68 1.000000
0  -4.318085 -20.487629 -3.969862  0.875303 0.000000 -0.483575  0.006843 0.736397 1 68 1.000000
lowpoly_plastic
0  -4.499949 -20.976942 -4.037739  -0.658025 -0.000002 -0.752996  0.005546 0.737939 1 68 1.000000
0  -4.499949 -20.603312 -4.037739  -0.658025 -0.000002 -0.752996  0.005546 0.737843 1 68 1.000000
0  -4.402589 -20.487629 -4.122820  -0.658025 -0.000002 -0.752996  0.005572 0.737813 1 68 1.000000
lowpoly_plastic
0  -4.402589 -21.368694 -3.272635  0.000000 -1.000000 0.000000  0.008575 0.763330 1 68 1.000000
0  -4.499949 -21.368694 -3.357715  0.000000 -1.000000 0.000000  0.008600 0.763352 1 68 1.000000
0  -4.499949 -21.368694 -4.037740  0.000000 -1.000000 0.000000  0.008600 0.763528 1 68 1.000000
lowpoly_plastic
0  -4.499949 -23.003799 -3.357716  -1.000000 -0.000002 -0.000001  0.006382 0.737764 1 68 1.000000
0  -4.499949 -22.674171 -3.357716  -1.000000 -0.000002 -0.000001  0.006297 0.737764 1 68 1.000000
0  -4.499949 -22.674171 -4.037740  -1.000000 -0.000002 -0.000001  0.006297 0.737588 1 68 1.000000
lowpoly_plastic
0  -4.402589 -21.368694 -4.122821  -1.000000 -0.000001 -0.000001  0.008012 0.765324 1 68 1.000000
0  -4.402589 -22.674171 -4.122821  -1.000000 -0.000001 -0.000001  0.008012 0.765661 1 68 1.000000
0  -4.402589 -22.674171 -3.272635  -1.000000 -0.000001 -0.000001  0.007793 0.765661 1 68 1.000000
lowpoly_plastic
0  -4.402589 -21.149067 -3.272635  -0.658025 0.000000 0.752996  0.007064 0.734999 1 68 1.000000
0  -4.499949 -21.149067 -3.357715  -0.658025 0.000000 0.752996  0.007039 0.734999 1 68 1.000000
0  -4.499949 -21.368694 -3.357715  -0.658025 0.000000 0.752996  0.007039 0.734942 1 68 1.000000
lowpoly_plastic
0  -4.499949 -21.368694 -4.037740  -0.658030 0.000000 -0.752992  0.007048 0.737912 1 68 1.000000
0  -4.499949 -21.149067 -4.037740  -0.658030 0.000000 -0.752992  0.007048 0.737855 1 68 1.000000
0  -4.402589 -21.149067 -4.122821  -0.658030 0.000000 -0.752992  0.007073 0.737855 1 68 1.000000
lowpoly_plastic
0  -4.499949 -21.149067 -3.357715  0.000000 1.000000 0.000000  0.008526 0.763955 1 68 1.000000
0  -4.402589 -21.149067 -3.272635  0.000000 1.000000 0.000000  0.008551 0.763933 1 68 1.000000
0  -4.402589 -21.149067 -4.122821  0.000000 1.000000 0.000000  0.008551 0.764153 1 68 1.000000
lowpoly_plastic
0  -4.402589 -22.674171 -3.272635  0.875303 0.000000 0.483576  0.006804 0.736962 1 68 1.000000
0  -4.402589 -23.169743 -3.272635  0.875303 0.000000 0.483576  0.006804 0.737090 1 68 1.000000
0  -4.318085 -23.169743 -3.425593  0.875303 0.000000 0.483576  0.006764 0.737090 1 68 1.000000
lowpoly_plastic
0  -4.318085 -23.169743 -3.425593  0.875302 0.000000 0.483576  0.006764 0.737090 1 68 1.000000
0  -4.318085 -20.487629 -3.425592  0.875302 0.000000 0.483576  0.006764 0.736397 1 68 1.000000
0  -4.402589 -22.674171 -3.272635  0.875302 0.000000 0.483576  0.006804 0.736962 1 68 1.000000
lowpoly_plastic
0  -4.499949 -20.976942 -3.357714  0.000000 -1.000000 0.000000  0.005678 0.766147 1 68 1.000000
0  -4.499949 -20.976942 -4.037739  0.000000 -1.000000 0.000000  0.005678 0.766322 1 68 1.000000
0  -4.402588 -20.976942 -4.122820  0.000000 -1.000000 0.000000  0.005653 0.766344 1 68 1.000000
lowpoly_plastic
0  -4.499949 -23.003799 -3.357716  -0.862510 -0.506039 0.000000  0.006382 0.737764 1 68 1.000000
0  -4.499949 -23.003799 -4.037740  -0.862510 -0.506039 0.000000  0.006382 0.737588 1 68 1.000000
0  -4.402589 -23.169743 -4.122821  -0.862510 -0.506039 0.000000  0.006425 0.737567 1 68 1.000000
lowpoly_plastic
0  -4.402589 -22.674171 -3.272635  -0.658022 0.000000 0.752999  0.006941 0.737938 1 68 1.000000
0  -4.499949 -22.674171 -3.357716  -0.658022 0.000000 0.752999  0.006916 0.737938 1 68 1.000000
0  -4.499949 -23.003799 -3.357716  -0.658022 0.000000 0.752999  0.006916 0.737853 1 68 1.000000
lowpoly_plastic
0  -4.499949 -20.976942 -3.357714  -1.000000 0.000000 0.000000  0.005352 0.737641 1 68 1.000000
0  -4.499949 -20.603312 -3.357714  -1.000000 0.000000 0.000000  0.005449 0.737641 1 68 1.000000
0  -4.499949 -20.603312 -4.037739  -1.000000 0.000000 0.000000  0.005449 0.737816 1 68 1.000000
lowpoly_plastic
0  -4.499949 -20.603312 -4.037739  -0.765097 0.643914 0.000000  0.005449 0.737816 1 68 1.000000
0  -4.499949 -20.603312 -3.357714  -0.765097 0.643914 0.000000  0.005449 0.737641 1 68 1.000000
0  -4.402589 -20.487629 -3.272634  -0.765097 0.643914 0.000000  0.005478 0.737619 1 68 1.000000
lowpoly_plastic
0  -4.043483 -23.169743 -3.969863  0.000000 0.000000 -1.000000  0.006916 0.736888 1 68 1.000000
0  -4.318085 -23.169743 -3.969863  0.000000 0.000000 -1.000000  0.006889 0.736888 1 68 1.000000
0  -4.318085 -20.487629 -3.969862  0.000000 0.000000 -1.000000  0.006889 0.736196 1 68 1.000000
lowpoly_plastic
0  -4.318085 -20.487629 -3.969862  0.000000 1.000000 0.000000  0.007004 0.735778 1 68 1.000000
0  -4.318085 -20.487629 -3.425592  0.000000 1.000000 0.000000  0.007004 0.735918 1 68 1.000000
0  -4.043483 -20.487629 -3.425592  0.000000 1.000000 0.000000  0.006978 0.735918 1 68 1.000000
lowpoly_plastic
0  -4.402589 -21.149067 -4.122821  -1.000000 0.000006 0.000000  0.005819 0.765837 1 68 1.000000
0  -4.402589 -21.149067 -3.272635  -1.000000 0.000006 0.000000  0.005819 0.766057 1 68 1.000000
0  -4.402589 -20.976942 -3.272634  -1.000000 0.000006 0.000000  0.005775 0.766057 1 68 1.000000
lowpoly_plastic
0  -4.499949 -21.524059 -4.037740  -1.000000 0.000000 0.000000  0.006013 0.737837 1 68 1.000000
0  -4.499949 -21.743687 -4.037740  -1.000000 0.000000 0.000000  0.005956 0.737837 1 68 1.000000
0  -4.499949 -21.743687 -3.357715  -1.000000 0.000000 0.000000  0.005956 0.737661 1 68 1.000000
lowpoly_plastic
0  -4.402589 -21.743687 -3.272635  0.000000 -1.000000 0.000000  0.006771 0.766121 1 68 1.000000
0  -4.499949 -21.743687 -3.357715  0.000000 -1.000000 0.000000  0.006796 0.766143 1 68 1.000000
0  -4.499949 -21.743687 -4.037740  0.000000 -1.000000 0.000000  0.006796 0.766318 1 68 1.000000
lowpoly_plastic
0  -4.402589 -21.524059 -3.272635  -0.658025 0.000000 0.752996  0.005720 0.737953 1 68 1.000000
0  -4.499949 -21.524059 -3.357715  -0.658025 0.000000 0.752996  0.005695 0.737953 1 68 1.000000
0  -4.499949 -21.743687 -3.357715  -0.658025 0.000000 0.752996  0.005695 0.737896 1 68 1.000000
lowpoly_plastic
0  -4.499949 -21.743687 -4.037740  -0.658030 0.000000 -0.752992  0.006530 0.737962 1 68 1.000000
0  -4.499949 -21.524059 -4.037740  -0.658030 0.000000 -0.752992  0.006530 0.737906 1 68 1.000000
0  -4.402589 -21.524059 -4.122821  -0.658030 0.000000 -0.752992  0.006555 0.737905 1 68 1.000000
lowpoly_plastic
0  -4.499949 -21.524059 -3.357715  0.000000 1.000000 0.000000  0.008526 0.764175 1 68 1.000000
0  -4.402589 -21.524059 -3.272635  0.000000 1.000000 0.000000  0.008551 0.764153 1 68 1.000000
0  -4.402589 -21.524059 -4.122821  0.000000 1.000000 0.000000  0.008551 0.764372 1 68 1.000000
lowpoly_plastic
0  -4.499949 -21.899050 -4.037740  -1.000000 0.000000 -0.000001  0.005956 0.737837 1 68 1.000000
0  -4.499949 -22.118681 -4.037740  -1.000000 0.000000 -0.000001  0.005900 0.737837 1 68 1.000000
0  -4.499949 -22.118681 -3.357715  -1.000000 0.000000 -0.000001  0.005900 0.737661 1 68 1.000000
lowpoly_plastic
0  -4.402589 -22.118681 -3.272635  0.000000 -1.000000 0.000002  0.006720 0.766121 1 68 1.000000
0  -4.499949 -22.118681 -3.357715  0.000000 -1.000000 0.000002  0.006746 0.766143 1 68 1.000000
0  -4.499949 -22.118681 -4.037740  0.000000 -1.000000 0.000002  0.006746 0.766318 1 68 1.000000
lowpoly_plastic
0  -4.402589 -21.899050 -3.272635  -0.658024 0.000000 0.752997  0.004631 0.737954 1 68 1.000000
0  -4.499949 -21.899050 -3.357715  -0.658024 0.000000 0.752997  0.004606 0.737953 1 68 1.000000
0  -4.499949 -22.118681 -3.357715  -0.658024 0.000000 0.752997  0.004606 0.737897 1 68 1.000000
lowpoly_plastic
0  -4.499949 -22.118681 -4.037740  -0.658029 0.000000 -0.752993  0.004895 0.737956 1 68 1.000000
0  -4.499949 -21.899050 -4.037740  -0.658029 0.000000 -0.752993  0.004895 0.737900 1 68 1.000000
0  -4.402589 -21.899050 -4.122821  -0.658029 0.000000 -0.752993  0.004920 0.737899 1 68 1.000000
lowpoly_plastic
0  -4.499949 -21.899050 -3.357715  0.000000 1.000000 -0.000001  0.008525 0.763572 1 68 1.000000
0  -4.402589 -21.899050 -3.272635  0.000000 1.000000 -0.000001  0.008550 0.763550 1 68 1.000000
0  -4.402589 -21.899050 -4.122821  0.000000 1.000000 -0.000001  0.008550 0.763769 1 68 1.000000
lowpoly_plastic
0  -4.499949 -22.274040 -4.037740  -1.000000 0.000000 -0.000001  0.006941 0.737811 1 68 1.000000
0  -4.499949 -22.493671 -4.037740  -1.000000 0.000000 -0.000001  0.006884 0.737811 1 68 1.000000
0  -4.499949 -22.493671 -3.357715  -1.000000 0.000000 -0.000001  0.006884 0.737635 1 68 1.000000
lowpoly_plastic
0  -4.402589 -22.493671 -3.272635  0.000000 -1.000000 -0.000000  0.006746 0.766121 1 68 1.000000
0  -4.499949 -22.493671 -3.357715  0.000000 -1.000000 -0.000000  0.006771 0.766143 1 68 1.000000
0  -4.499949 -22.493671 -4.037740  0.000000 -1.000000 -0.000000  0.006771 0.766318 1 68 1.000000
lowpoly_plastic
0  -4.402589 -22.274040 -3.272635  -0.658024 0.000000 0.752997  0.007062 0.736250 1 68 1.000000
0  -4.499949 -22.274040 -3.357715  -0.658024 0.000000 0.752997  0.007037 0.736250 1 68 1.000000
0  -4.499949 -22.493671 -3.357715  -0.658024 0.000000 0.752997  0.007037 0.736193 1 68 1.000000
lowpoly_plastic
0  -4.499949 -22.493671 -4.037740  -0.658029 0.000000 -0.752993  0.004870 0.737956 1 68 1.000000
0  -4.499949 -22.274040 -4.037740  -0.658029 0.000000 -0.752993  0.004870 0.737900 1 68 1.000000
0  -4.402589 -22.274040 -4.122821  -0.658029 0.000000 -0.752993  0.004895 0.737899 1 68 1.000000
lowpoly_plastic
0  -4.499949 -22.274040 -3.357715  0.000000 1.000000 0.000003  0.008526 0.765495 1 68 1.000000
0  -4.402589 -22.274040 -3.272635  0.000000 1.000000 0.000003  0.008551 0.765473 1 68 1.000000
0  -4.402589 -22.274040 -4.122821  0.000000 1.000000 0.000003  0.008551 0.765692 1 68 1.000000
lowpoly_metal
0  -4.350106 -20.699360 -3.697726  0.000000 0.866015 0.500019  0.072761 0.805737 1 68 1.000000
0  -4.531638 -20.699360 -3.697726  0.000000 0.866015 0.500019  0.072761 0.810139 1 68 1.000000
0  -4.531638 -20.744743 -3.619121  0.000000 0.866015 0.500019  0.071294 0.810139 1 68 1.000000
lowpoly_metal
0  -4.350106 -20.744743 -3.619121  0.000000 0.000000 1.000000  0.071294 0.805737 1 68 1.000000
0  -4.531638 -20.744743 -3.619121  0.000000 0.000000 1.000000  0.071294 0.810139 1 68 1.000000
0  -4.531638 -20.835510 -3.619121  0.000000 0.000000 1.000000  0.069827 0.810139 1 68 1.000000
lowpoly_metal
0  -4.350106 -20.835510 -3.619121  0.000000 -0.866040 0.499975  0.069827 0.805737 1 68 1.000000
0  -4.531638 -20.835510 -3.619121  0.000000 -0.866040 0.499975  0.069827 0.810139 1 68 1.000000
0  -4.531638 -20.880892 -3.697726  0.000000 -0.866040 0.499975  0.068359 0.810139 1 68 1.000000
lowpoly_metal
0  -4.350106 -20.880892 -3.697726  0.000000 -0.866027 -0.499997  0.068359 0.805737 1 68 1.000000
0  -4.531638 -20.880892 -3.697726  0.000000 -0.866027 -0.499997  0.068359 0.810139 1 68 1.000000
0  -4.531638 -20.835510 -3.776332  0.000000 -0.866027 -0.499997  0.066892 0.810139 1 68 1.000000
lowpoly_metal
0  -4.531638 -20.744743 -3.776332  -1.000000 0.000000 0.000000  0.064329 0.804593 1 68 1.000000
0  -4.531638 -20.835510 -3.776332  -1.000000 0.000000 0.000000  0.064329 0.802480 1 68 1.000000
0  -4.531638 -20.880892 -3.697726  -1.000000 0.000000 0.000000  0.066159 0.801424 1 68 1.000000
lowpoly_metal
0  -4.531638 -20.880892 -3.697726  -1.000000 0.000000 0.000000  0.066159 0.801424 1 68 1.000000
0  -4.531638 -20.835510 -3.619121  -1.000000 0.000000 0.000000  0.067988 0.802480 1 68 1.000000
0  -4.531638 -20.744743 -3.619121  -1.000000 0.000000 0.000000  0.067988 0.804593 1 68 1.000000
lowpoly_metal
0  -4.531638 -20.744743 -3.619121  -1.000000 0.000000 0.000000  0.067988 0.804593 1 68 1.000000
0  -4.531638 -20.699360 -3.697726  -1.000000 0.000000 0.000000  0.066159 0.805649 1 68 1.000000
0  -4.531638 -20.744743 -3.776332  -1.000000 0.000000 0.000000  0.064329 0.804593 1 68 1.000000
lowpoly_metal
0  -4.350106 -20.835510 -3.776332  0.000000 0.000000 -1.000000  0.066892 0.805737 1 68 1.000000
0  -4.531638 -20.835510 -3.776332  0.000000 0.000000 -1.000000  0.066892 0.810139 1 68 1.000000
0  -4.531638 -20.744743 -3.776332  0.000000 0.000000 -1.000000  0.065425 0.810139 1 68 1.000000
lowpoly_metal
0  -4.350106 -20.744743 -3.776332  0.000000 0.866027 -0.499997  0.065425 0.805737 1 68 1.000000
0  -4.531638 -20.744743 -3.776332  0.000000 0.866027 -0.499997  0.065425 0.810139 1 68 1.000000
0  -4.531638 -20.699360 -3.697726  0.000000 0.866027 -0.499997  0.063958 0.810139 1 68 1.000000
lowpoly_metal
0  -4.350106 -20.835510 -3.776332  1.000000 0.000000 0.000000  0.068730 0.802480 1 68 1.000000
0  -4.350106 -20.744743 -3.776332  1.000000 0.000000 0.000000  0.068730 0.804593 1 68 1.000000
0  -4.350106 -20.835510 -3.619121  1.000000 0.000000 0.000000  0.072390 0.802480 1 68 1.000000
lowpoly_metal
0  -4.350106 -20.744743 -3.776332  1.000000 0.000000 0.000000  0.068730 0.804593 1 68 1.000000
0  -4.350106 -20.699360 -3.697726  1.000000 0.000000 0.000000  0.070560 0.805649 1 68 1.000000
0  -4.350106 -20.835510 -3.619121  1.000000 0.000000 0.000000  0.072390 0.802480 1 68 1.000000
lowpoly_metal
0  -4.350106 -20.699360 -3.697726  1.000000 0.000000 0.000000  0.070560 0.805649 1 68 1.000000
0  -4.350106 -20.744743 -3.619121  1.000000 0.000000 0.000000  0.072390 0.804593 1 68 1.000000
0  -4.350106 -20.835510 -3.619121  1.000000 0.000000 0.000000  0.072390 0.802480 1 68 1.000000
lowpoly_metal
0  -4.350106 -22.757627 -3.697726  0.000000 0.866015 0.500019  0.072761 0.805737 1 68 1.000000
0  -4.531638 -22.757627 -3.697726  0.000000 0.866015 0.500019  0.072761 0.810139 1 68 1.000000
0  -4.531638 -22.803009 -3.619121  0.000000 0.866015 0.500019  0.071294 0.810139 1 68 1.000000
lowpoly_metal
0  -4.350106 -22.803009 -3.619121  0.000000 0.000000 1.000000  0.071294 0.805737 1 68 1.000000
0  -4.531638 -22.803009 -3.619121  0.000000 0.000000 1.000000  0.071294 0.810139 1 68 1.000000
0  -4.531638 -22.893776 -3.619121  0.000000 0.000000 1.000000  0.069827 0.810139 1 68 1.000000
lowpoly_metal
0  -4.350106 -22.893776 -3.619121  0.000000 -0.866040 0.499975  0.069827 0.805737 1 68 1.000000
0  -4.531638 -22.893776 -3.619121  0.000000 -0.866040 0.499975  0.069827 0.810139 1 68 1.000000
0  -4.531638 -22.939159 -3.697726  0.000000 -0.866040 0.499975  0.068359 0.810139 1 68 1.000000
lowpoly_metal
0  -4.350106 -22.939159 -3.697726  0.000000 -0.866015 -0.500019  0.068359 0.805737 1 68 1.000000
0  -4.531638 -22.939159 -3.697726  0.000000 -0.866015 -0.500019  0.068359 0.810139 1 68 1.000000
0  -4.531638 -22.893776 -3.776332  0.000000 -0.866015 -0.500019  0.066892 0.810139 1 68 1.000000
lowpoly_metal
0  -4.531638 -22.803009 -3.776332  -1.000000 0.000000 0.000000  0.064329 0.804593 1 68 1.000000
0  -4.531638 -22.893776 -3.776332  -1.000000 0.000000 0.000000  0.064329 0.802480 1 68 1.000000
0  -4.531638 -22.803009 -3.619121  -1.000000 0.000000 0.000000  0.067988 0.804593 1 68 1.000000
lowpoly_metal
0  -4.531638 -22.893776 -3.776332  -1.000000 0.000000 0.000000  0.064329 0.802480 1 68 1.000000
0  -4.531638 -22.939159 -3.697726  -1.000000 0.000000 0.000000  0.066159 0.801424 1 68 1.000000
0  -4.531638 -22.803009 -3.619121  -1.000000 0.000000 0.000000  0.067988 0.804593 1 68 1.000000
lowpoly_metal
0  -4.531638 -22.939159 -3.697726  -1.000000 0.000000 0.000000  0.066159 0.801424 1 68 1.000000
0  -4.531638 -22.893776 -3.619121  -1.000000 0.000000 0.000000  0.067988 0.802480 1 68 1.000000
0  -4.531638 -22.803009 -3.619121  -1.000000 0.000000 0.000000  0.067988 0.804593 1 68 1.000000
lowpoly_metal
0  -4.350106 -22.893776 -3.776332  0.000000 0.000000 -1.000000  0.066892 0.805737 1 68 1.000000
0  -4.531638 -22.893776 -3.776332  0.000000 0.000000 -1.000000  0.066892 0.810139 1 68 1.000000
0  -4.531638 -22.803009 -3.776332  0.000000 0.000000 -1.000000  0.065425 0.810139 1 68 1.000000
lowpoly_metal
0  -4.350106 -22.803009 -3.776332  0.000000 0.866040 -0.499975  0.065425 0.805737 1 68 1.000000
0  -4.531638 -22.803009 -3.776332  0.000000 0.866040 -0.499975  0.065425 0.810139 1 68 1.000000
0  -4.531638 -22.757627 -3.697726  0.000000 0.866040 -0.499975  0.063958 0.810139 1 68 1.000000
lowpoly_metal
0  -4.350106 -22.893776 -3.776332  1.000000 0.000000 0.000000  0.068730 0.802480 1 68 1.000000
0  -4.350106 -22.803009 -3.776332  1.000000 0.000000 0.000000  0.068730 0.804593 1 68 1.000000
0  -4.350106 -22.757627 -3.697726  1.000000 0.000000 0.000000  0.070560 0.805649 1 68 1.000000
lowpoly_metal
0  -4.350106 -22.757627 -3.697726  1.000000 0.000000 0.000000  0.070560 0.805649 1 68 1.000000
0  -4.350106 -22.803009 -3.619121  1.000000 0.000000 0.000000  0.072390 0.804593 1 68 1.000000
0  -4.350106 -22.893776 -3.619121  1.000000 0.000000 0.000000  0.072390 0.802480 1 68 1.000000
lowpoly_metal
0  -4.350106 -22.893776 -3.619121  1.000000 0.000000 0.000000  0.072390 0.802480 1 68 1.000000
0  -4.350106 -22.939159 -3.697726  1.000000 0.000000 0.000000  0.070560 0.801424 1 68 1.000000
0  -4.350106 -22.893776 -3.776332  1.000000 0.000000 0.000000  0.068730 0.802480 1 68 1.000000
end
