version 1
nodes
0 "ValveBiped.Bip01_Spine4" -1
1 "ValveBiped.Bip01_L_Clavicle" 0
2 "ValveBiped.Bip01_L_UpperArm" 1
3 "ValveBiped.Bip01_L_Forearm" 2
4 "ValveBiped.Bip01_L_Hand" 3
5 "ValveBiped.Bip01_L_Finger4" 4
6 "ValveBiped.Bip01_L_Finger41" 5
7 "ValveBiped.Bip01_L_Finger42" 6
8 "ValveBiped.Bip01_L_Finger3" 4
9 "ValveBiped.Bip01_L_Finger31" 8
10 "ValveBiped.Bip01_L_Finger32" 9
11 "ValveBiped.Bip01_L_Finger2" 4
12 "ValveBiped.Bip01_L_Finger21" 11
13 "ValveBiped.Bip01_L_Finger22" 12
14 "ValveBiped.Bip01_L_Finger1" 4
15 "ValveBiped.Bip01_L_Finger11" 14
16 "ValveBiped.Bip01_L_Finger12" 15
17 "ValveBiped.Bip01_L_Finger0" 4
18 "ValveBiped.Bip01_L_Finger01" 17
19 "ValveBiped.Bip01_L_Finger02" 18
20 "ValveBiped.Bip01_L_Ulna" 3
21 "ValveBiped.Bip01_L_Wrist" 3
22 "rig_l_upperarm" 1
23 "rig_l_forearm" 22
24 "rig_d_l_forearm" 23
25 "rig_d_l_upperarm" 22
26 "ValveBiped.Bip01_R_Clavicle" 0
27 "ValveBiped.Bip01_R_UpperArm" 26
28 "ValveBiped.Bip01_R_Forearm" 27
29 "ValveBiped.Bip01_R_Hand" 28
30 "ValveBiped.Bip01_R_Finger4" 29
31 "ValveBiped.Bip01_R_Finger41" 30
32 "ValveBiped.Bip01_R_Finger42" 31
33 "ValveBiped.Bip01_R_Finger3" 29
34 "ValveBiped.Bip01_R_Finger31" 33
35 "ValveBiped.Bip01_R_Finger32" 34
36 "ValveBiped.Bip01_R_Finger2" 29
37 "ValveBiped.Bip01_R_Finger21" 36
38 "ValveBiped.Bip01_R_Finger22" 37
39 "ValveBiped.Bip01_R_Finger1" 29
40 "ValveBiped.Bip01_R_Finger11" 39
41 "ValveBiped.Bip01_R_Finger12" 40
42 "ValveBiped.Bip01_R_Finger0" 29
43 "ValveBiped.Bip01_R_Finger01" 42
44 "ValveBiped.Bip01_R_Finger02" 43
45 "ValveBiped.Bip01_R_Ulna" 28
46 "ValveBiped.Bip01_R_Wrist" 28
47 "rig_r_upperarm" 26
48 "rig_r_forearm" 47
49 "rig_d_r_forearm" 48
50 "rig_d_r_upperarm" 47
51 "rig_r_hand" -1
52 "rig_d_r_hand" 51
53 "rig_d_r_wrist" 52
54 "rig_l_hand" -1
55 "rig_d_l_hand" 54
56 "rig_d_l_wrist" 54
57 "rig_l_pole" -1
58 "rig_r_pole" -1
59 "rig_l_clavicle" -1
60 "rig_d_l_clavicle" 59
61 "rig_r_clavicle" -1
62 "rig_d_r_clavicle" 61
63 "Camera" -1
64 "body" -1
65 "trigger" 64
66 "barrel" 64
67 "bulletdoor" 64
68 "pump" 64
69 "bolt" 68
70 "tac" 68
71 "bullet2" 64
72 "catch" 64
73 "hookontop" 64
74 "bullet1" -1
end
skeleton
time 0
0  0.000006 0.000000 0.000000  -1.570800 -1.391899 -1.570792
1  2.033349 1.000767 1.937657  -1.544960 -1.855077 -0.198626
2  6.027515 -0.000326 0.000204  -1.583281 0.045956 -0.585171
3  11.692120 0.000528 -0.000741  -0.000018 -0.000000 -0.056697
4  11.481219 0.000216 -0.000752  1.576890 -0.106581 0.041970
5  3.859509 -0.142883 -1.192049  -0.468164 0.151540 -0.880272
6  1.312589 0.000013 0.000007  -0.000026 0.000045 -0.439738
7  0.729353 0.000051 0.000049  0.000017 0.000021 -0.244318
8  3.942146 0.046269 -0.431512  -0.151810 0.073212 -0.811101
9  1.539109 0.000083 0.000005  -0.000007 0.000021 -0.247841
10  1.196331 0.000143 0.000029  0.000012 0.000019 -0.430771
11  3.883508 -0.047272 0.431381  0.085898 0.021851 -0.587925
12  1.719575 -0.000028 0.000015  0.000015 0.005519 -0.366533
13  1.209179 0.000091 0.000012  0.000004 0.003092 -0.216437
14  3.859662 -0.138478 1.332410  0.354468 -0.042725 -0.531804
15  1.719453 -0.000009 0.000021  0.000029 0.004070 -0.363021
16  1.099675 0.000047 0.000006  0.000003 0.002579 -0.244381
17  0.805995 -0.349054 1.321254  -1.222687 -0.679194 -0.788886
18  1.789818 -0.000004 -0.000018  0.000012 -0.000024 0.228522
19  1.207011 -0.000013 -0.000045  0.000002 -0.000008 0.362858
20  5.740637 0.000410 -0.000702  0.003119 0.000003 0.000071
21  11.481257 0.000262 -0.000831  0.004951 0.000185 -0.001480
22  6.027524 -0.000330 0.000203  0.059584 -2.453119 -2.193916
23  0.000001 11.692101 -0.000006  -0.043310 -0.000838 -0.036607
24  0.000003 0.000009 0.000001  0.868996 -0.000031 1.570739
25  -0.000000 -0.000012 -0.000001  0.868957 0.000002 1.570712
26  2.033355 1.000772 -1.937609  1.473131 1.855076 -0.198627
27  6.027508 -0.000258 -0.000237  1.639678 -0.005938 -0.586605
28  11.691988 0.000145 0.000867  -0.000046 -0.000001 -0.056062
29  11.481175 0.000050 0.000829  -1.565092 0.106516 0.042004
30  3.859437 -0.132786 1.193062  0.466291 -0.158048 -0.878829
31  1.312561 0.000025 -0.000001  0.000011 -0.000044 -0.439710
32  0.729343 0.000065 -0.000028  -0.000023 -0.000019 -0.244285
33  3.942049 0.050108 0.430997  0.150090 -0.079180 -0.810199
34  1.539095 0.000009 -0.000000  0.000010 -0.000008 -0.247820
35  1.196298 0.000074 -0.000003  -0.000007 -0.000009 -0.430783
36  3.883413 -0.050504 -0.431087  -0.085915 -0.026391 -0.587671
37  1.719565 -0.000079 -0.000003  -0.000006 -0.007962 -0.366483
38  1.209196 0.000035 0.000011  0.000002 -0.004460 -0.216413
39  3.859587 -0.149112 -1.331323  -0.354446 0.038580 -0.531963
40  1.719414 -0.000101 -0.000035  -0.000028 -0.006585 -0.363032
41  1.099673 0.000024 0.000006  0.000004 -0.004187 -0.244346
42  0.805980 -0.359856 -1.318338  1.221444 0.673631 -0.793566
43  1.789782 -0.000009 -0.000044  -0.000028 0.000031 0.228552
44  1.206996 -0.000006 0.000005  -0.000017 0.000020 0.362911
45  5.740572 0.000055 0.000723  0.002082 -0.000014 0.000021
46  11.481179 0.000045 0.000935  -0.000025 -0.000087 -0.001749
47  6.027515 -0.000273 -0.000237  0.007374 -0.632955 -2.161837
48  -0.000000 11.691975 -0.000006  -0.042810 0.000798 0.036188
49  0.000003 -0.000003 -0.000000  2.272569 -0.000041 1.570856
50  -0.000007 -0.000015 0.000005  2.272644 -0.000030 1.570865
51  -22.676567 -0.984331 -17.554111  -1.605366 2.379717 -0.041994
52  0.000001 0.000002 -0.000000  0.008153 -0.000259 0.000009
53  -0.000000 -0.000001 0.000000  1.565115 0.043565 -0.106862
54  22.676517 -0.984221 -17.554199  1.605712 0.761853 0.042358
55  0.000001 -0.000003 -0.000000  0.000000 -0.000000 -0.000002
56  0.000032 0.000027 0.000001  -1.571901 -0.044449 -0.106509
57  15.265023 8.339654 -8.787539  1.570796 -0.000000 0.000000
58  -15.265000 8.339654 -8.787539  1.570796 -0.000000 0.000000
59  1.941978 -1.346989 1.821586  1.570796 -0.000000 0.000000
60  -0.004311 0.001230 -0.000371  0.006898 -0.005534 -0.284229
61  -1.937603 -1.346625 1.822824  1.570796 -0.000000 0.000000
62  0.000000 0.000000 0.000000  -0.078727 -3.136056 0.284226
63  0.000000 0.000000 0.000000  1.570796 -0.000000 0.000000
64  -3.258810 -12.631968 -3.682181  1.570796 -0.000000 0.000000
65  -0.109379 -1.951951 -1.519205  0.000000 -0.000000 0.000000
66  -0.109379 0.057027 25.399252  0.000000 -0.000000 0.000000
67  -0.109379 -1.856732 0.287230  0.000000 -0.000000 0.000000
68  -0.104048 -4.495923 7.879276  0.000000 -0.000000 0.000000
69  -0.195264 4.332630 -6.347187  0.000000 -0.000000 0.000000
70  -1.052893 4.470086 6.958893  0.000000 -0.000000 0.000000
71  -0.104049 -1.582848 2.554636  0.000000 -0.000000 0.000000
72  -1.107528 -1.063453 4.061647  0.000000 -0.000000 0.000000
73  0.003659 1.612363 10.733982  0.000000 -0.000000 0.000000
74  -3.362859 -12.987121 -5.265029  1.570796 -0.000000 0.000000
end
triangles
lowpoly_plastic
0  -2.918215 -3.327178 -4.352928  -0.000013 0.999994 -0.003513  0.058582 0.625847 1 64 1.000000
0  -2.871062 -3.328613 -4.761422  -0.000003 0.999994 -0.003513  0.058531 0.626019 1 64 1.000000
0  -3.016143 -3.327494 -4.442184  -0.000018 0.999994 -0.003513  0.058531 0.625868 1 64 1.000000
lowpoly_plastic
0  -2.858696 -4.100749 -5.221458  0.910397 -0.001453 -0.413733  0.006455 0.738269 1 64 1.000000
0  -2.648399 -4.441193 -4.757514  0.910397 -0.001453 -0.413733  0.006543 0.737922 1 64 1.000000
0  -2.858696 -4.442818 -5.220257  0.910397 -0.001452 -0.413732  0.006543 0.738269 1 64 1.000000
lowpoly_plastic
0  -3.861735 -3.122375 -4.762146  -0.000003 -0.999994 0.003503  0.060118 0.623429 1 64 1.000000
0  -3.749070 -3.123597 -5.110930  -0.000053 -0.999994 0.003488  0.060277 0.623412 1 64 1.000000
0  -3.716654 -3.123496 -5.081384  -0.000059 -0.999994 0.003486  0.060270 0.623429 1 64 1.000000
lowpoly_plastic
0  -2.918215 -3.330048 -5.169916  0.000002 0.999994 -0.003513  0.058445 0.626177 1 64 1.000000
0  -2.871062 -3.328613 -4.761422  0.000000 0.999994 -0.003513  0.058531 0.626019 1 64 1.000000
0  -2.732570 -3.328613 -4.761422  0.000000 0.999994 -0.003513  0.058582 0.626040 1 64 1.000000
lowpoly_plastic
0  -3.366399 -3.120786 -4.310675  0.000001 -0.999994 0.003519  0.060011 0.623688 1 64 1.000000
0  -3.749070 -3.121147 -4.413363  -0.000001 -0.999994 0.003516  0.059994 0.623529 1 64 1.000000
0  -3.716654 -3.121251 -4.442908  -0.000001 -0.999994 0.003516  0.060011 0.623536 1 64 1.000000
lowpoly_plastic
0  -3.716654 -3.123496 -5.081384  -0.000022 -0.999994 0.003461  0.060270 0.623429 1 64 1.000000
0  -3.366399 -3.124104 -5.255400  -0.000000 -0.999994 0.003484  0.060394 0.623529 1 64 1.000000
0  -3.366399 -3.123958 -5.213618  0.000002 -0.999994 0.003486  0.060377 0.623536 1 64 1.000000
lowpoly_plastic
0  -3.366398 -3.330642 -5.339120  0.000001 0.999994 -0.003515  0.058251 0.626177 1 64 1.000000
0  -3.016143 -3.329734 -5.080660  0.000001 0.999994 -0.003512  0.058424 0.626126 1 64 1.000000
0  -2.918215 -3.330048 -5.169916  0.000001 0.999994 -0.003512  0.058445 0.626177 1 64 1.000000
lowpoly_plastic
0  -3.366399 -3.326584 -4.183723  0.000005 0.999994 -0.003511  0.058445 0.625709 1 64 1.000000
0  -3.016143 -3.327494 -4.442184  -0.000004 0.999994 -0.003528  0.058531 0.625868 1 64 1.000000
0  -3.366399 -3.327027 -4.309951  0.000009 0.999994 -0.003505  0.058424 0.625761 1 64 1.000000
lowpoly_plastic
0  -3.749071 2.274605 -4.432314  -0.000000 0.999994 -0.003511  0.058472 0.626169 1 64 1.000000
0  -3.366400 2.275113 -4.287843  -0.000000 0.999994 -0.003511  0.058472 0.625776 1 64 1.000000
0  -3.366400 2.271648 -5.274351  -0.000000 0.999994 -0.003511  0.059420 0.626169 1 64 1.000000
lowpoly_plastic
0  -3.907578 -3.122375 -4.762146  -0.910397 0.001453 0.413733  0.073420 0.539586 1 64 1.000000
0  -3.749071 2.274605 -4.432314  -0.910397 0.001453 0.413734  0.073056 0.533975 1 64 1.000000
0  -3.907578 2.273380 -4.781097  -0.910397 0.001453 0.413734  0.073420 0.533975 1 64 1.000000
lowpoly_plastic
0  -3.814583 -3.788867 -4.351305  -0.910397 0.001453 0.413733  0.068619 0.538737 1 64 1.000000
0  -4.000226 -3.328613 -4.761422  -0.910397 0.001453 0.413733  0.069100 0.539164 1 64 1.000000
0  -4.000227 -3.790301 -4.759801  -0.910397 0.001453 0.413732  0.068619 0.539164 1 64 1.000000
lowpoly_plastic
0  -3.716654 -3.329734 -5.080660  -0.353203 -0.003285 -0.935541  0.058301 0.624770 1 64 1.000000
0  -3.366399 -3.123958 -5.213618  -0.353201 -0.003286 -0.935542  0.058211 0.624630 1 64 1.000000
0  -3.366399 -3.330199 -5.212893  -0.353200 -0.003288 -0.935542  0.058301 0.624630 1 64 1.000000
lowpoly_plastic
0  -3.907578 -3.122375 -4.762146  -0.910397 -0.001453 -0.413733  0.073420 0.539586 1 64 1.000000
0  -3.749071 2.272155 -5.129880  -0.910398 -0.001453 -0.413732  0.073781 0.533975 1 64 1.000000
0  -3.749070 -3.123597 -5.110930  -0.910397 -0.001453 -0.413733  0.073781 0.539586 1 64 1.000000
lowpoly_plastic
0  -3.749070 -3.121147 -4.413363  -0.353200 0.003286 0.935542  0.074506 0.533975 1 64 1.000000
0  -3.366400 2.275113 -4.287843  -0.353202 0.003286 0.935541  0.074869 0.539586 1 64 1.000000
0  -3.749071 2.274605 -4.432314  -0.353202 0.003286 0.935541  0.074506 0.539586 1 64 1.000000
lowpoly_plastic
0  -2.825220 -3.122375 -4.762146  0.910397 0.001453 0.413732  0.072695 0.533975 1 64 1.000000
0  -2.983728 2.274605 -4.432314  0.910397 0.001453 0.413734  0.072330 0.539586 1 64 1.000000
0  -2.983727 -3.121147 -4.413363  0.910397 0.001453 0.413732  0.072330 0.533975 1 64 1.000000
lowpoly_plastic
0  -3.128425 -1.861491 -5.585657  0.000000 -0.003512 -0.999994  0.088441 0.640740 1 64 1.000000
0  -3.604374 2.113483 -5.599617  0.000000 -0.003512 -0.999994  0.088688 0.643008 1 64 1.000000
0  -3.128426 2.113483 -5.599617  0.000000 -0.003512 -0.999994  0.088441 0.643008 1 64 1.000000
lowpoly_plastic
0  -3.366399 -4.103693 -4.180994  -0.353202 0.003286 0.935541  0.008696 0.736221 1 64 1.000000
0  -3.814583 -3.788867 -4.351305  -0.353202 0.003285 0.935541  0.008520 0.735993 1 64 1.000000
0  -3.814583 -4.104287 -4.350198  -0.353202 0.003284 0.935541  0.008696 0.735993 1 64 1.000000
lowpoly_plastic
0  -3.366398 -3.792330 -5.337499  -0.000001 0.999994 -0.003514  0.007165 0.737242 1 64 1.000000
0  -3.016143 -3.791423 -5.079039  -0.000001 0.999994 -0.003509  0.007205 0.736873 1 64 1.000000
0  -2.918214 -3.791736 -5.168295  -0.000001 0.999994 -0.003507  0.007316 0.737011 1 64 1.000000
lowpoly_plastic
0  -3.604374 2.113483 -5.599617  0.000000 0.999994 -0.003513  0.088193 0.641176 1 64 1.000000
0  -3.128426 2.115541 -5.013837  0.000000 0.999994 -0.003513  0.088441 0.640842 1 64 1.000000
0  -3.128426 2.113483 -5.599617  0.000000 0.999994 -0.003513  0.088441 0.641176 1 64 1.000000
lowpoly_plastic
0  -3.128426 2.115541 -5.013837  1.000000 0.000000 0.000000  0.089604 0.640557 1 64 1.000000
0  -3.128425 -1.861491 -5.585657  1.000000 0.000000 0.000000  0.089270 0.642825 1 64 1.000000
0  -3.128426 2.113483 -5.599617  1.000000 0.000000 -0.000000  0.089270 0.640557 1 64 1.000000
lowpoly_plastic
0  -3.749070 -3.123597 -5.110930  -0.353198 -0.003286 -0.935543  0.074506 0.533975 1 64 1.000000
0  -3.366400 2.271648 -5.274351  -0.353200 -0.003286 -0.935542  0.074144 0.539586 1 64 1.000000
0  -3.366399 -3.124104 -5.255400  -0.353198 -0.003286 -0.935543  0.074144 0.533975 1 64 1.000000
lowpoly_plastic
0  -2.983727 -3.121147 -4.413363  0.353200 0.003286 0.935542  0.075232 0.533975 1 64 1.000000
0  -3.366400 2.275113 -4.287843  0.353202 0.003286 0.935541  0.074869 0.539586 1 64 1.000000
0  -3.366399 -3.120639 -4.268893  0.353200 0.003286 0.935542  0.074869 0.533975 1 64 1.000000
lowpoly_plastic
0  -3.366399 -3.330199 -5.212893  0.353202 -0.003287 -0.935541  0.058301 0.624630 1 64 1.000000
0  -3.016143 -3.123496 -5.081384  0.353201 -0.003285 -0.935542  0.058211 0.624490 1 64 1.000000
0  -3.016143 -3.329734 -5.080660  0.353200 -0.003283 -0.935542  0.058301 0.624490 1 64 1.000000
lowpoly_plastic
0  -3.604373 -1.861491 -5.585657  -1.000000 -0.000000 -0.000000  0.089270 0.642825 1 64 1.000000
0  -3.604374 2.115541 -5.013837  -1.000000 -0.000000 -0.000000  0.088936 0.640557 1 64 1.000000
0  -3.604374 2.113483 -5.599617  -1.000000 -0.000000 0.000000  0.089270 0.640557 1 64 1.000000
lowpoly_plastic
0  -2.871062 -3.328613 -4.761422  0.910397 0.001453 0.413733  0.058121 0.624631 1 64 1.000000
0  -3.016143 -3.121251 -4.442908  0.910397 0.001453 0.413733  0.058030 0.624490 1 64 1.000000
0  -3.016143 -3.327494 -4.442184  0.910397 0.001452 0.413733  0.058121 0.624490 1 64 1.000000
lowpoly_plastic
0  -3.366399 -3.327027 -4.309951  -0.353202 0.003284 0.935542  0.058392 0.624630 1 64 1.000000
0  -3.716654 -3.121251 -4.442908  -0.353201 0.003283 0.935542  0.058301 0.624490 1 64 1.000000
0  -3.716654 -3.327494 -4.442184  -0.353201 0.003283 0.935542  0.058392 0.624490 1 64 1.000000
lowpoly_plastic
0  -3.366399 -3.124104 -5.255400  0.353198 -0.003286 -0.935543  0.074144 0.533975 1 64 1.000000
0  -2.983728 2.272155 -5.129880  0.353200 -0.003286 -0.935542  0.073781 0.539586 1 64 1.000000
0  -2.983727 -3.123597 -5.110930  0.353198 -0.003286 -0.935543  0.073781 0.533975 1 64 1.000000
lowpoly_plastic
0  -3.016143 -3.327494 -4.442184  0.353201 0.003283 0.935542  0.058392 0.624770 1 64 1.000000
0  -3.366399 -3.120786 -4.310675  0.353202 0.003284 0.935541  0.058301 0.624630 1 64 1.000000
0  -3.366399 -3.327027 -4.309951  0.353202 0.003284 0.935541  0.058392 0.624630 1 64 1.000000
lowpoly_plastic
0  -3.861735 -3.328613 -4.761422  -0.910397 0.001453 0.413733  0.058121 0.624631 1 64 1.000000
0  -3.716654 -3.121251 -4.442908  -0.910397 0.001453 0.413733  0.058211 0.624490 1 64 1.000000
0  -3.861735 -3.122375 -4.762146  -0.910397 0.001454 0.413732  0.058211 0.624631 1 64 1.000000
lowpoly_plastic
0  -3.814583 -3.330048 -5.169916  -0.353202 -0.003284 -0.935541  0.068620 0.538216 1 64 1.000000
0  -3.366399 -3.792330 -5.337499  -0.353202 -0.003284 -0.935541  0.069100 0.537791 1 64 1.000000
0  -3.814583 -3.791736 -5.168295  -0.353201 -0.003284 -0.935542  0.069100 0.538216 1 64 1.000000
lowpoly_plastic
0  -3.366398 -3.330642 -5.339120  0.353202 -0.003284 -0.935541  0.068620 0.537791 1 64 1.000000
0  -2.918214 -3.791736 -5.168295  0.353202 -0.003284 -0.935541  0.069100 0.537366 1 64 1.000000
0  -3.366399 -3.792330 -5.337499  0.353201 -0.003286 -0.935542  0.069100 0.537791 1 64 1.000000
lowpoly_plastic
0  -3.366399 -3.788272 -4.182102  -0.353202 0.003286 0.935541  0.072423 0.533550 1 64 1.000000
0  -3.814583 -3.327178 -4.352928  -0.353202 0.003286 0.935541  0.072903 0.533975 1 64 1.000000
0  -3.814583 -3.788867 -4.351305  -0.353202 0.003287 0.935541  0.072423 0.533975 1 64 1.000000
lowpoly_plastic
0  -3.366399 -4.101421 -5.413131  0.353201 -0.003284 -0.935542  0.009682 0.736221 1 64 1.000000
0  -2.858696 -4.442818 -5.220257  0.353201 -0.003284 -0.935542  0.009770 0.735993 1 64 1.000000
0  -3.366399 -4.443491 -5.411931  0.353200 -0.003284 -0.935542  0.009770 0.736221 1 64 1.000000
lowpoly_plastic
0  -2.648399 -4.099123 -4.758716  0.910397 0.001453 0.413733  0.006455 0.737922 1 64 1.000000
0  -2.858696 -4.439567 -4.294773  0.910397 0.001453 0.413733  0.006543 0.737693 1 64 1.000000
0  -2.648399 -4.441193 -4.757514  0.910397 0.001454 0.413733  0.006543 0.737922 1 64 1.000000
lowpoly_plastic
0  -2.918215 -3.330048 -5.169916  0.910397 -0.001452 -0.413734  0.072330 0.532848 1 64 1.000000
0  -2.732570 -3.790301 -4.759801  0.910397 -0.001452 -0.413734  0.071850 0.533270 1 64 1.000000
0  -2.918214 -3.791736 -5.168295  0.910397 -0.001450 -0.413733  0.071850 0.532848 1 64 1.000000
lowpoly_plastic
0  -2.732570 -3.328613 -4.761422  0.910397 0.001452 0.413733  0.072330 0.533270 1 64 1.000000
0  -2.918214 -3.788867 -4.351305  0.910397 0.001452 0.413733  0.071850 0.533697 1 64 1.000000
0  -2.732570 -3.790301 -4.759801  0.910398 0.001451 0.413732  0.071850 0.533270 1 64 1.000000
lowpoly_plastic
0  -3.366399 -3.326584 -4.183723  -0.000005 0.999994 -0.003511  0.058445 0.625709 1 64 1.000000
0  -3.716654 -3.327494 -4.442184  0.000004 0.999994 -0.003526  0.058272 0.625761 1 64 1.000000
0  -3.814583 -3.327178 -4.352928  0.000006 0.999994 -0.003529  0.058251 0.625709 1 64 1.000000
lowpoly_plastic
0  -4.000227 -3.790301 -4.759801  -0.910397 -0.001451 -0.413734  0.068619 0.539164 1 64 1.000000
0  -3.814583 -3.330048 -5.169916  -0.910397 -0.001451 -0.413734  0.069100 0.539586 1 64 1.000000
0  -3.814583 -3.791736 -5.168295  -0.910397 -0.001451 -0.413733  0.068619 0.539586 1 64 1.000000
lowpoly_plastic
0  -2.983727 -3.123597 -5.110930  0.910398 -0.001453 -0.413732  0.073056 0.533975 1 64 1.000000
0  -2.825221 2.273380 -4.781097  0.910397 -0.001453 -0.413732  0.072695 0.539586 1 64 1.000000
0  -2.825220 -3.122375 -4.762146  0.910398 -0.001453 -0.413732  0.072695 0.533975 1 64 1.000000
lowpoly_plastic
0  -2.858696 -4.442818 -5.220257  0.000000 -0.999994 0.003513  0.007570 0.736832 1 64 1.000000
0  -3.874101 -4.439567 -4.294773  0.000000 -0.999994 0.003513  0.008212 0.736474 1 64 1.000000
0  -3.874101 -4.442818 -5.220257  0.000000 -0.999994 0.003513  0.007992 0.737007 1 64 1.000000
lowpoly_plastic
0  -3.016143 -3.121251 -4.442908  -0.000001 -0.999994 0.003519  0.060118 0.623795 1 64 1.000000
0  -2.825220 -3.122375 -4.762146  -0.000000 -0.999994 0.003521  0.060277 0.623812 1 64 1.000000
0  -2.983727 -3.121147 -4.413363  -0.000001 -0.999994 0.003519  0.060111 0.623812 1 64 1.000000
lowpoly_plastic
0  -4.000226 -3.328613 -4.761422  -0.000000 0.999994 -0.003512  0.058114 0.625847 1 64 1.000000
0  -3.716654 -3.329734 -5.080660  -0.000002 0.999994 -0.003513  0.058165 0.626019 1 64 1.000000
0  -3.814583 -3.330048 -5.169916  -0.000002 0.999994 -0.003513  0.058114 0.626040 1 64 1.000000
lowpoly_plastic
0  -3.814583 -3.327178 -4.352928  0.000013 0.999994 -0.003513  0.058251 0.625709 1 64 1.000000
0  -3.861735 -3.328613 -4.761422  0.000003 0.999994 -0.003514  0.058165 0.625868 1 64 1.000000
0  -4.000226 -3.328613 -4.761422  0.000000 0.999994 -0.003514  0.058114 0.625847 1 64 1.000000
lowpoly_plastic
0  -3.366399 -3.788272 -4.182102  -0.000003 0.999994 -0.003514  0.006848 0.736479 1 64 1.000000
0  -3.716654 -3.789182 -4.440562  0.000004 0.999994 -0.003525  0.006739 0.736680 1 64 1.000000
0  -3.814583 -3.788867 -4.351305  0.000006 0.999994 -0.003527  0.006674 0.736653 1 64 1.000000
lowpoly_plastic
0  -3.016143 -3.121251 -4.442908  0.000002 -0.999994 0.003519  0.060118 0.623795 1 64 1.000000
0  -3.366399 -3.120639 -4.268893  -0.000001 -0.999994 0.003519  0.059994 0.623694 1 64 1.000000
0  -3.366399 -3.120786 -4.310675  -0.000002 -0.999994 0.003519  0.060011 0.623688 1 64 1.000000
lowpoly_plastic
0  -2.918214 -3.788867 -4.351305  -0.000014 0.999994 -0.003513  0.007095 0.736479 1 64 1.000000
0  -2.871062 -3.790301 -4.759800  -0.000003 0.999994 -0.003511  0.007205 0.736680 1 64 1.000000
0  -3.016143 -3.789182 -4.440562  -0.000019 0.999994 -0.003513  0.007068 0.736544 1 64 1.000000
lowpoly_plastic
0  -3.814583 -3.330048 -5.169916  -0.000001 0.999994 -0.003515  0.058114 0.626040 1 64 1.000000
0  -3.366399 -3.330199 -5.212893  -0.000001 0.999994 -0.003513  0.058272 0.626126 1 64 1.000000
0  -3.366398 -3.330642 -5.339120  -0.000001 0.999994 -0.003512  0.058251 0.626177 1 64 1.000000
lowpoly_plastic
0  -3.366400 2.275113 -4.287843  0.000000 0.999994 -0.003511  0.058472 0.625776 1 64 1.000000
0  -2.983728 2.274605 -4.432314  0.000000 0.999994 -0.003511  0.058750 0.625499 1 64 1.000000
0  -3.366400 2.271648 -5.274351  0.000000 0.999994 -0.003511  0.059420 0.626169 1 64 1.000000
lowpoly_plastic
0  -2.983728 2.274605 -4.432314  0.000001 0.999994 -0.003512  0.058750 0.625499 1 64 1.000000
0  -2.825221 2.273380 -4.781097  0.000001 0.999994 -0.003512  0.059142 0.625499 1 64 1.000000
0  -3.366400 2.271648 -5.274351  0.000001 0.999994 -0.003512  0.059420 0.626169 1 64 1.000000
lowpoly_plastic
0  -2.825221 2.273380 -4.781097  0.000004 0.999994 -0.003516  0.059142 0.625499 1 64 1.000000
0  -2.983728 2.272155 -5.129880  0.000004 0.999994 -0.003516  0.059420 0.625776 1 64 1.000000
0  -3.366400 2.271648 -5.274351  0.000004 0.999994 -0.003516  0.059420 0.626169 1 64 1.000000
lowpoly_plastic
0  -3.366400 2.271648 -5.274351  -0.000004 0.999994 -0.003516  0.061881 0.624938 1 64 1.000000
0  -3.749071 2.272155 -5.129880  -0.000004 0.999994 -0.003516  0.061603 0.625216 1 64 1.000000
0  -3.907578 2.273380 -4.781097  -0.000004 0.999994 -0.003516  0.061210 0.625216 1 64 1.000000
lowpoly_plastic
0  -3.907578 2.273380 -4.781097  -0.000001 0.999994 -0.003512  0.058750 0.626446 1 64 1.000000
0  -3.749071 2.274605 -4.432314  -0.000001 0.999994 -0.003512  0.058472 0.626169 1 64 1.000000
0  -3.366400 2.271648 -5.274351  -0.000001 0.999994 -0.003512  0.059420 0.626169 1 64 1.000000
lowpoly_plastic
0  -2.918214 -3.791736 -5.168295  -0.000001 -0.999994 0.003512  0.069885 0.538476 1 64 1.000000
0  -2.732570 -3.790301 -4.759801  -0.000001 -0.999994 0.003512  0.069425 0.538476 1 64 1.000000
0  -2.918214 -3.788867 -4.351305  -0.000001 -0.999994 0.003512  0.069100 0.538151 1 64 1.000000
lowpoly_plastic
0  -2.918214 -3.788867 -4.351305  0.000000 -0.999994 0.003512  0.069100 0.538151 1 64 1.000000
0  -3.366399 -3.788272 -4.182102  0.000000 -0.999994 0.003512  0.069100 0.537691 1 64 1.000000
0  -3.814583 -3.788867 -4.351305  0.000000 -0.999994 0.003512  0.069425 0.537366 1 64 1.000000
lowpoly_plastic
0  -3.814583 -3.788867 -4.351305  0.000001 -0.999994 0.003512  0.069425 0.537366 1 64 1.000000
0  -4.000227 -3.790301 -4.759801  0.000001 -0.999994 0.003512  0.069885 0.537366 1 64 1.000000
0  -3.814583 -3.791736 -5.168295  0.000001 -0.999994 0.003512  0.070210 0.537691 1 64 1.000000
lowpoly_plastic
0  -3.814583 -3.791736 -5.168295  0.000000 -0.999994 0.003509  0.070210 0.537691 1 64 1.000000
0  -3.366399 -3.792330 -5.337499  0.000000 -0.999994 0.003509  0.070210 0.538151 1 64 1.000000
0  -2.918214 -3.791736 -5.168295  0.000000 -0.999994 0.003509  0.069885 0.538476 1 64 1.000000
lowpoly_plastic
0  -4.000226 -4.105721 -4.758693  -0.910397 -0.001453 -0.413733  0.006498 0.736895 1 64 1.000000
0  -3.814582 -3.791736 -5.168295  -0.910397 -0.001453 -0.413733  0.006674 0.737242 1 64 1.000000
0  -3.814583 -4.107156 -5.167187  -0.910397 -0.001453 -0.413733  0.006498 0.737242 1 64 1.000000
lowpoly_plastic
0  -3.128425 -1.861491 -5.585657  0.000000 -0.878802 -0.477186  0.088688 0.640557 1 64 1.000000
0  -3.604373 -2.180179 -4.998750  0.000000 -0.878802 -0.477187  0.088936 0.640217 1 64 1.000000
0  -3.604373 -1.861491 -5.585657  0.000000 -0.878802 -0.477186  0.088936 0.640557 1 64 1.000000
lowpoly_plastic
0  -3.128426 2.115541 -5.013837  0.000000 0.003512 0.999994  0.088936 0.643008 1 64 1.000000
0  -3.604373 -2.180179 -4.998750  0.000000 0.003512 0.999994  0.088688 0.640557 1 64 1.000000
0  -3.128425 -2.180179 -4.998750  0.000000 0.003512 0.999994  0.088936 0.640557 1 64 1.000000
lowpoly_plastic
0  -2.918215 -3.327178 -4.352928  0.353202 0.003286 0.935541  0.072903 0.533125 1 64 1.000000
0  -3.366399 -3.788272 -4.182102  0.353202 0.003286 0.935541  0.072423 0.533550 1 64 1.000000
0  -2.918214 -3.788867 -4.351305  0.353201 0.003287 0.935542  0.072423 0.533125 1 64 1.000000
lowpoly_plastic
0  -3.874101 -4.100749 -5.221458  -0.353201 -0.003284 -0.935542  0.009682 0.736449 1 64 1.000000
0  -3.366399 -4.443491 -5.411931  -0.353201 -0.003284 -0.935542  0.009770 0.736221 1 64 1.000000
0  -3.874101 -4.442818 -5.220257  -0.353200 -0.003284 -0.935542  0.009770 0.736449 1 64 1.000000
lowpoly_plastic
0  -3.716654 -3.329734 -5.080660  -0.910397 -0.001452 -0.413732  0.058121 0.624770 1 64 1.000000
0  -3.861735 -3.122375 -4.762146  -0.910397 -0.001453 -0.413733  0.058211 0.624631 1 64 1.000000
0  -3.716654 -3.123496 -5.081384  -0.910397 -0.001451 -0.413732  0.058211 0.624770 1 64 1.000000
lowpoly_plastic
0  -3.366399 -3.123958 -5.213618  0.000005 -0.999994 0.003501  0.060377 0.623536 1 64 1.000000
0  -2.983727 -3.123597 -5.110930  0.000018 -0.999994 0.003443  0.060394 0.623695 1 64 1.000000
0  -3.016143 -3.123496 -5.081384  0.000019 -0.999994 0.003437  0.060377 0.623688 1 64 1.000000
lowpoly_plastic
0  -3.016143 -3.329734 -5.080660  0.910397 -0.001453 -0.413732  0.058121 0.624770 1 64 1.000000
0  -2.871062 -3.122375 -4.762146  0.910397 -0.001453 -0.413732  0.058030 0.624631 1 64 1.000000
0  -2.871062 -3.328613 -4.761422  0.910397 -0.001454 -0.413732  0.058121 0.624631 1 64 1.000000
lowpoly_plastic
0  -3.814583 -4.104287 -4.350198  -0.910398 0.001452 0.413732  0.006498 0.736665 1 64 1.000000
0  -4.000226 -3.790301 -4.759800  -0.910398 0.001452 0.413732  0.006674 0.736895 1 64 1.000000
0  -4.000226 -4.105721 -4.758693  -0.910397 0.001452 0.413732  0.006498 0.736895 1 64 1.000000
lowpoly_plastic
0  -2.858696 -4.097497 -4.295974  0.353202 0.003287 0.935541  0.008784 0.736449 1 64 1.000000
0  -3.366399 -4.438895 -4.103098  0.353202 0.003286 0.935541  0.008872 0.736221 1 64 1.000000
0  -2.858696 -4.439567 -4.294773  0.353203 0.003287 0.935541  0.008872 0.736449 1 64 1.000000
lowpoly_plastic
0  -4.000226 -3.790301 -4.759800  0.000003 0.999994 -0.003513  0.006674 0.736900 1 64 1.000000
0  -3.716654 -3.791423 -5.079039  0.000003 0.999994 -0.003513  0.006875 0.737009 1 64 1.000000
0  -3.814582 -3.791736 -5.168295  0.000003 0.999994 -0.003513  0.006895 0.737186 1 64 1.000000
lowpoly_plastic
0  -2.918214 -3.791736 -5.168295  0.000000 0.999994 -0.003513  0.007316 0.737011 1 64 1.000000
0  -2.871062 -3.790301 -4.759800  0.000000 0.999994 -0.003513  0.007205 0.736680 1 64 1.000000
0  -2.732570 -3.790301 -4.759800  0.000000 0.999994 -0.003513  0.007270 0.736653 1 64 1.000000
lowpoly_plastic
0  -3.814583 -3.788867 -4.351305  0.000014 0.999994 -0.003513  0.006674 0.736653 1 64 1.000000
0  -3.861735 -3.790301 -4.759800  0.000003 0.999994 -0.003511  0.006739 0.736873 1 64 1.000000
0  -4.000226 -3.790301 -4.759800  0.000000 0.999994 -0.003511  0.006674 0.736900 1 64 1.000000
lowpoly_plastic
0  -3.366399 -3.788272 -4.182102  0.000003 0.999994 -0.003514  0.006848 0.736479 1 64 1.000000
0  -3.016143 -3.789182 -4.440562  -0.000004 0.999994 -0.003525  0.007068 0.736544 1 64 1.000000
0  -3.366399 -3.788716 -4.308330  0.000006 0.999994 -0.003511  0.006875 0.736544 1 64 1.000000
lowpoly_plastic
0  -3.861735 -3.122375 -4.762146  0.000000 -0.999994 0.003522  0.060118 0.623429 1 64 1.000000
0  -3.749070 -3.121147 -4.413363  0.000001 -0.999994 0.003518  0.059994 0.623529 1 64 1.000000
0  -3.907578 -3.122375 -4.762146  0.000000 -0.999994 0.003523  0.060111 0.623412 1 64 1.000000
lowpoly_plastic
0  -2.871062 -3.122375 -4.762146  0.000003 -0.999994 0.003503  0.060270 0.623795 1 64 1.000000
0  -2.983727 -3.123597 -5.110930  0.000053 -0.999994 0.003488  0.060394 0.623695 1 64 1.000000
0  -2.825220 -3.122375 -4.762146  0.000000 -0.999994 0.003504  0.060277 0.623812 1 64 1.000000
lowpoly_plastic
0  -3.814582 -3.791736 -5.168295  0.000001 0.999994 -0.003510  0.006895 0.737186 1 64 1.000000
0  -3.366399 -3.791887 -5.211271  0.000001 0.999994 -0.003508  0.007068 0.737009 1 64 1.000000
0  -3.366398 -3.792330 -5.337499  0.000001 0.999994 -0.003508  0.007165 0.737242 1 64 1.000000
lowpoly_plastic
0  -2.858696 -4.442818 -5.220257  -0.000002 -0.999994 0.003513  0.007570 0.736832 1 64 1.000000
0  -2.648399 -4.441193 -4.757514  -0.000002 -0.999994 0.003513  0.007616 0.736474 1 64 1.000000
0  -2.858696 -4.439567 -4.294773  -0.000002 -0.999994 0.003513  0.007791 0.736300 1 64 1.000000
lowpoly_plastic
0  -2.858696 -4.439567 -4.294773  0.000000 -0.999994 0.003508  0.007791 0.736300 1 64 1.000000
0  -3.366399 -4.438895 -4.103098  0.000000 -0.999994 0.003508  0.008038 0.736300 1 64 1.000000
0  -3.874101 -4.439567 -4.294773  0.000000 -0.999994 0.003508  0.008212 0.736474 1 64 1.000000
lowpoly_plastic
0  -3.874101 -4.439567 -4.294773  0.000002 -0.999994 0.003513  0.008212 0.736474 1 64 1.000000
0  -4.084398 -4.441193 -4.757514  0.000002 -0.999994 0.003513  0.008212 0.736721 1 64 1.000000
0  -3.874101 -4.442818 -5.220257  0.000002 -0.999994 0.003513  0.007992 0.737007 1 64 1.000000
lowpoly_plastic
0  -3.874101 -4.442818 -5.220257  0.000000 -0.999994 0.003513  0.007992 0.737007 1 64 1.000000
0  -3.366399 -4.443491 -5.411931  0.000000 -0.999994 0.003513  0.007722 0.737063 1 64 1.000000
0  -2.858696 -4.442818 -5.220257  0.000000 -0.999994 0.003513  0.007570 0.736832 1 64 1.000000
lowpoly_plastic
0  -4.000226 -3.790301 -4.759800  0.000000 0.999994 -0.003513  0.006674 0.736900 1 64 1.000000
0  -3.861735 -3.790301 -4.759800  0.000000 0.999994 -0.003513  0.006739 0.736873 1 64 1.000000
0  -3.716654 -3.791423 -5.079039  0.000000 0.999994 -0.003513  0.006875 0.737009 1 64 1.000000
lowpoly_plastic
0  -2.918214 -3.791736 -5.168295  -0.000004 0.999994 -0.003513  0.007316 0.737011 1 64 1.000000
0  -3.016143 -3.791423 -5.079039  -0.000004 0.999994 -0.003513  0.007205 0.736873 1 64 1.000000
0  -2.871062 -3.790301 -4.759800  -0.000004 0.999994 -0.003513  0.007205 0.736680 1 64 1.000000
lowpoly_plastic
0  -2.918214 -3.791736 -5.168295  0.000000 -0.999994 0.003512  0.069885 0.538476 1 64 1.000000
0  -3.814583 -3.788867 -4.351305  0.000000 -0.999994 0.003512  0.069425 0.537366 1 64 1.000000
0  -3.814583 -3.791736 -5.168295  0.000000 -0.999994 0.003512  0.070210 0.537691 1 64 1.000000
lowpoly_plastic
0  -2.918214 -3.788867 -4.351305  0.353202 0.003285 0.935541  0.008520 0.736449 1 64 1.000000
0  -3.366399 -4.103693 -4.180994  0.353202 0.003286 0.935541  0.008696 0.736221 1 64 1.000000
0  -2.918214 -4.104287 -4.350198  0.353203 0.003283 0.935541  0.008696 0.736449 1 64 1.000000
lowpoly_plastic
0  -3.874101 -4.097497 -4.295974  0.078112 0.996181 -0.039001  0.006410 0.736665 1 64 1.000000
0  -4.000226 -4.105721 -4.758693  0.078110 0.996182 -0.038996  0.006498 0.736895 1 64 1.000000
0  -4.084398 -4.099123 -4.758716  0.078110 0.996182 -0.038996  0.006410 0.736895 1 64 1.000000
lowpoly_plastic
0  -3.814582 -3.791736 -5.168295  -0.353201 -0.003287 -0.935542  0.009418 0.736449 1 64 1.000000
0  -3.366398 -4.107750 -5.336391  -0.353200 -0.003287 -0.935542  0.009594 0.736221 1 64 1.000000
0  -3.814583 -4.107156 -5.167187  -0.353202 -0.003287 -0.935541  0.009594 0.736449 1 64 1.000000
lowpoly_plastic
0  -4.084398 -4.099123 -4.758716  0.078109 0.996431 0.031996  0.006410 0.736895 1 64 1.000000
0  -3.814583 -4.107156 -5.167187  0.078104 0.996432 0.031991  0.006498 0.737242 1 64 1.000000
0  -3.874101 -4.100749 -5.221458  0.078104 0.996432 0.031990  0.006410 0.737242 1 64 1.000000
lowpoly_plastic
0  -2.732570 -3.790301 -4.759800  0.910397 0.001453 0.413734  0.006191 0.737922 1 64 1.000000
0  -2.918214 -4.104287 -4.350198  0.910397 0.001453 0.413734  0.006367 0.737693 1 64 1.000000
0  -2.732570 -4.105721 -4.758692  0.910396 0.001454 0.413734  0.006367 0.737922 1 64 1.000000
lowpoly_plastic
0  -3.366398 -3.792330 -5.337499  0.353201 -0.003287 -0.935542  0.009418 0.736221 1 64 1.000000
0  -2.918214 -4.107156 -5.167187  0.353201 -0.003287 -0.935542  0.009594 0.735993 1 64 1.000000
0  -3.366398 -4.107750 -5.336391  0.353201 -0.003287 -0.935542  0.009594 0.736221 1 64 1.000000
lowpoly_plastic
0  -3.366399 -4.096825 -4.104300  0.032336 0.995493 -0.089156  0.008784 0.736221 1 64 1.000000
0  -3.814583 -4.104287 -4.350198  0.032340 0.995493 -0.089147  0.008696 0.735993 1 64 1.000000
0  -3.874101 -4.097497 -4.295974  0.032340 0.995493 -0.089147  0.008784 0.735993 1 64 1.000000
lowpoly_plastic
0  -2.918214 -3.791736 -5.168295  0.910397 -0.001454 -0.413733  0.006191 0.738269 1 64 1.000000
0  -2.732570 -4.105721 -4.758692  0.910397 -0.001454 -0.413733  0.006367 0.737922 1 64 1.000000
0  -2.918214 -4.107156 -5.167187  0.910397 -0.001454 -0.413733  0.006367 0.738269 1 64 1.000000
lowpoly_plastic
0  -3.366399 -4.438895 -4.103098  -0.353202 0.003286 0.935542  0.008872 0.736221 1 64 1.000000
0  -3.874101 -4.097497 -4.295974  -0.353202 0.003286 0.935541  0.008784 0.735993 1 64 1.000000
0  -3.874101 -4.439567 -4.294773  -0.353203 0.003286 0.935541  0.008872 0.735993 1 64 1.000000
lowpoly_plastic
0  -4.084398 -4.441193 -4.757514  -0.910397 -0.001453 -0.413733  0.006322 0.736895 1 64 1.000000
0  -3.874101 -4.100749 -5.221458  -0.910397 -0.001452 -0.413732  0.006410 0.737242 1 64 1.000000
0  -3.874101 -4.442818 -5.220257  -0.910398 -0.001451 -0.413732  0.006322 0.737242 1 64 1.000000
lowpoly_plastic
0  -3.874101 -4.439567 -4.294773  -0.910397 0.001453 0.413733  0.006322 0.736665 1 64 1.000000
0  -4.084398 -4.099123 -4.758716  -0.910397 0.001453 0.413733  0.006410 0.736895 1 64 1.000000
0  -4.084398 -4.441193 -4.757514  -0.910397 0.001453 0.413733  0.006322 0.736895 1 64 1.000000
lowpoly_plastic
0  -2.918214 -4.104287 -4.350198  -0.032340 0.995494 -0.089142  0.008696 0.736449 1 64 1.000000
0  -3.366399 -4.096825 -4.104300  -0.032336 0.995493 -0.089155  0.008784 0.736221 1 64 1.000000
0  -2.858696 -4.097497 -4.295974  -0.032340 0.995494 -0.089140  0.008784 0.736449 1 64 1.000000
lowpoly_plastic
0  -3.814583 -4.107156 -5.167187  0.032333 0.996096 0.082143  0.009594 0.736449 1 64 1.000000
0  -3.366399 -4.101421 -5.413131  0.032337 0.996095 0.082152  0.009682 0.736221 1 64 1.000000
0  -3.874101 -4.100749 -5.221458  0.032333 0.996096 0.082142  0.009682 0.736449 1 64 1.000000
lowpoly_plastic
0  -2.732570 -4.105721 -4.758692  -0.078111 0.996181 -0.039001  0.006367 0.737922 1 64 1.000000
0  -2.858696 -4.097497 -4.295974  -0.078113 0.996181 -0.039000  0.006455 0.737693 1 64 1.000000
0  -2.648399 -4.099123 -4.758716  -0.078111 0.996182 -0.039001  0.006455 0.737922 1 64 1.000000
lowpoly_plastic
0  -3.366398 -4.107750 -5.336391  -0.032336 0.996095 0.082154  0.009594 0.736221 1 64 1.000000
0  -2.858696 -4.100749 -5.221458  -0.032334 0.996096 0.082147  0.009682 0.735993 1 64 1.000000
0  -3.366399 -4.101421 -5.413131  -0.032336 0.996095 0.082155  0.009682 0.736221 1 64 1.000000
lowpoly_plastic
0  -2.918214 -4.107156 -5.167187  -0.078104 0.996432 0.031991  0.006367 0.738269 1 64 1.000000
0  -2.648399 -4.099123 -4.758716  -0.078109 0.996431 0.031996  0.006455 0.737922 1 64 1.000000
0  -2.858696 -4.100749 -5.221458  -0.078103 0.996432 0.031990  0.006455 0.738269 1 64 1.000000
lowpoly_plastic
0  -2.918215 -3.327178 -4.352928  -0.000013 0.999994 -0.003513  0.058582 0.625847 1 64 1.000000
0  -2.732570 -3.328613 -4.761422  0.000000 0.999994 -0.003513  0.058582 0.626040 1 64 1.000000
0  -2.871062 -3.328613 -4.761422  -0.000003 0.999994 -0.003513  0.058531 0.626019 1 64 1.000000
lowpoly_plastic
0  -2.858696 -4.100749 -5.221458  0.910397 -0.001453 -0.413733  0.006455 0.738269 1 64 1.000000
0  -2.648399 -4.099123 -4.758716  0.910397 -0.001454 -0.413733  0.006455 0.737922 1 64 1.000000
0  -2.648399 -4.441193 -4.757514  0.910397 -0.001453 -0.413733  0.006543 0.737922 1 64 1.000000
lowpoly_plastic
0  -3.861735 -3.122375 -4.762146  -0.000003 -0.999994 0.003503  0.060118 0.623429 1 64 1.000000
0  -3.907578 -3.122375 -4.762146  0.000000 -0.999994 0.003504  0.060111 0.623412 1 64 1.000000
0  -3.749070 -3.123597 -5.110930  -0.000053 -0.999994 0.003488  0.060277 0.623412 1 64 1.000000
lowpoly_plastic
0  -2.918215 -3.330048 -5.169916  0.000002 0.999994 -0.003513  0.058445 0.626177 1 64 1.000000
0  -3.016143 -3.329734 -5.080660  0.000002 0.999994 -0.003513  0.058424 0.626126 1 64 1.000000
0  -2.871062 -3.328613 -4.761422  0.000000 0.999994 -0.003513  0.058531 0.626019 1 64 1.000000
lowpoly_plastic
0  -3.366399 -3.120786 -4.310675  0.000001 -0.999994 0.003519  0.060011 0.623688 1 64 1.000000
0  -3.366399 -3.120639 -4.268893  0.000001 -0.999994 0.003519  0.059994 0.623694 1 64 1.000000
0  -3.749070 -3.121147 -4.413363  -0.000001 -0.999994 0.003516  0.059994 0.623529 1 64 1.000000
lowpoly_plastic
0  -3.716654 -3.123496 -5.081384  -0.000022 -0.999994 0.003461  0.060270 0.623429 1 64 1.000000
0  -3.749070 -3.123597 -5.110930  -0.000023 -0.999994 0.003459  0.060277 0.623412 1 64 1.000000
0  -3.366399 -3.124104 -5.255400  -0.000000 -0.999994 0.003484  0.060394 0.623529 1 64 1.000000
lowpoly_plastic
0  -3.366398 -3.330642 -5.339120  0.000001 0.999994 -0.003515  0.058251 0.626177 1 64 1.000000
0  -3.366399 -3.330199 -5.212893  0.000001 0.999994 -0.003516  0.058272 0.626126 1 64 1.000000
0  -3.016143 -3.329734 -5.080660  0.000001 0.999994 -0.003512  0.058424 0.626126 1 64 1.000000
lowpoly_plastic
0  -3.366399 -3.326584 -4.183723  0.000005 0.999994 -0.003511  0.058445 0.625709 1 64 1.000000
0  -2.918215 -3.327178 -4.352928  -0.000006 0.999994 -0.003532  0.058582 0.625847 1 64 1.000000
0  -3.016143 -3.327494 -4.442184  -0.000004 0.999994 -0.003528  0.058531 0.625868 1 64 1.000000
lowpoly_plastic
0  -3.907578 -3.122375 -4.762146  -0.910397 0.001453 0.413733  0.073420 0.539586 1 64 1.000000
0  -3.749070 -3.121147 -4.413363  -0.910397 0.001453 0.413733  0.073056 0.539586 1 64 1.000000
0  -3.749071 2.274605 -4.432314  -0.910397 0.001453 0.413734  0.073056 0.533975 1 64 1.000000
lowpoly_plastic
0  -3.814583 -3.788867 -4.351305  -0.910397 0.001453 0.413733  0.068619 0.538737 1 64 1.000000
0  -3.814583 -3.327178 -4.352928  -0.910397 0.001454 0.413733  0.069100 0.538737 1 64 1.000000
0  -4.000226 -3.328613 -4.761422  -0.910397 0.001453 0.413733  0.069100 0.539164 1 64 1.000000
lowpoly_plastic
0  -3.716654 -3.329734 -5.080660  -0.353203 -0.003285 -0.935541  0.058301 0.624770 1 64 1.000000
0  -3.716654 -3.123496 -5.081384  -0.353205 -0.003283 -0.935540  0.058211 0.624770 1 64 1.000000
0  -3.366399 -3.123958 -5.213618  -0.353201 -0.003286 -0.935542  0.058211 0.624630 1 64 1.000000
lowpoly_plastic
0  -3.907578 -3.122375 -4.762146  -0.910397 -0.001453 -0.413733  0.073420 0.539586 1 64 1.000000
0  -3.907578 2.273380 -4.781097  -0.910398 -0.001453 -0.413732  0.073420 0.533975 1 64 1.000000
0  -3.749071 2.272155 -5.129880  -0.910398 -0.001453 -0.413732  0.073781 0.533975 1 64 1.000000
lowpoly_plastic
0  -3.749070 -3.121147 -4.413363  -0.353200 0.003286 0.935542  0.074506 0.533975 1 64 1.000000
0  -3.366399 -3.120639 -4.268893  -0.353199 0.003286 0.935542  0.074869 0.533975 1 64 1.000000
0  -3.366400 2.275113 -4.287843  -0.353202 0.003286 0.935541  0.074869 0.539586 1 64 1.000000
lowpoly_plastic
0  -2.825220 -3.122375 -4.762146  0.910397 0.001453 0.413732  0.072695 0.533975 1 64 1.000000
0  -2.825221 2.273380 -4.781097  0.910397 0.001453 0.413734  0.072695 0.539586 1 64 1.000000
0  -2.983728 2.274605 -4.432314  0.910397 0.001453 0.413734  0.072330 0.539586 1 64 1.000000
lowpoly_plastic
0  -3.128425 -1.861491 -5.585657  0.000000 -0.003512 -0.999994  0.088441 0.640740 1 64 1.000000
0  -3.604373 -1.861491 -5.585657  0.000000 -0.003512 -0.999994  0.088688 0.640740 1 64 1.000000
0  -3.604374 2.113483 -5.599617  0.000000 -0.003512 -0.999994  0.088688 0.643008 1 64 1.000000
lowpoly_plastic
0  -3.366399 -4.103693 -4.180994  -0.353202 0.003286 0.935541  0.008696 0.736221 1 64 1.000000
0  -3.366399 -3.788272 -4.182102  -0.353202 0.003287 0.935541  0.008520 0.736221 1 64 1.000000
0  -3.814583 -3.788867 -4.351305  -0.353202 0.003285 0.935541  0.008520 0.735993 1 64 1.000000
lowpoly_plastic
0  -3.366398 -3.792330 -5.337499  -0.000001 0.999994 -0.003514  0.007165 0.737242 1 64 1.000000
0  -3.366399 -3.791887 -5.211271  -0.000000 0.999994 -0.003516  0.007068 0.737009 1 64 1.000000
0  -3.016143 -3.791423 -5.079039  -0.000001 0.999994 -0.003509  0.007205 0.736873 1 64 1.000000
lowpoly_plastic
0  -3.604374 2.113483 -5.599617  0.000000 0.999994 -0.003513  0.088193 0.641176 1 64 1.000000
0  -3.604374 2.115541 -5.013837  0.000000 0.999994 -0.003513  0.088193 0.640842 1 64 1.000000
0  -3.128426 2.115541 -5.013837  0.000000 0.999994 -0.003513  0.088441 0.640842 1 64 1.000000
lowpoly_plastic
0  -3.128426 2.115541 -5.013837  1.000000 0.000000 0.000000  0.089604 0.640557 1 64 1.000000
0  -3.128425 -2.180179 -4.998750  1.000000 0.000000 0.000000  0.089604 0.643008 1 64 1.000000
0  -3.128425 -1.861491 -5.585657  1.000000 0.000000 0.000000  0.089270 0.642825 1 64 1.000000
lowpoly_plastic
0  -3.749070 -3.123597 -5.110930  -0.353198 -0.003286 -0.935543  0.074506 0.533975 1 64 1.000000
0  -3.749071 2.272155 -5.129880  -0.353200 -0.003286 -0.935542  0.074506 0.539586 1 64 1.000000
0  -3.366400 2.271648 -5.274351  -0.353200 -0.003286 -0.935542  0.074144 0.539586 1 64 1.000000
lowpoly_plastic
0  -2.983727 -3.121147 -4.413363  0.353200 0.003286 0.935542  0.075232 0.533975 1 64 1.000000
0  -2.983728 2.274605 -4.432314  0.353202 0.003286 0.935541  0.075232 0.539586 1 64 1.000000
0  -3.366400 2.275113 -4.287843  0.353202 0.003286 0.935541  0.074869 0.539586 1 64 1.000000
lowpoly_plastic
0  -3.366399 -3.330199 -5.212893  0.353202 -0.003287 -0.935541  0.058301 0.624630 1 64 1.000000
0  -3.366399 -3.123958 -5.213618  0.353204 -0.003288 -0.935541  0.058211 0.624630 1 64 1.000000
0  -3.016143 -3.123496 -5.081384  0.353201 -0.003285 -0.935542  0.058211 0.624490 1 64 1.000000
lowpoly_plastic
0  -3.604373 -1.861491 -5.585657  -1.000000 -0.000000 -0.000000  0.089270 0.642825 1 64 1.000000
0  -3.604373 -2.180179 -4.998750  -1.000000 -0.000000 -0.000000  0.088936 0.643008 1 64 1.000000
0  -3.604374 2.115541 -5.013837  -1.000000 -0.000000 -0.000000  0.088936 0.640557 1 64 1.000000
lowpoly_plastic
0  -2.871062 -3.328613 -4.761422  0.910397 0.001453 0.413733  0.058121 0.624631 1 64 1.000000
0  -2.871062 -3.122375 -4.762146  0.910397 0.001454 0.413732  0.058030 0.624631 1 64 1.000000
0  -3.016143 -3.121251 -4.442908  0.910397 0.001453 0.413733  0.058030 0.624490 1 64 1.000000
lowpoly_plastic
0  -3.366399 -3.327027 -4.309951  -0.353202 0.003284 0.935542  0.058392 0.624630 1 64 1.000000
0  -3.366399 -3.120786 -4.310675  -0.353202 0.003284 0.935541  0.058301 0.624630 1 64 1.000000
0  -3.716654 -3.121251 -4.442908  -0.353201 0.003283 0.935542  0.058301 0.624490 1 64 1.000000
lowpoly_plastic
0  -3.366399 -3.124104 -5.255400  0.353198 -0.003286 -0.935543  0.074144 0.533975 1 64 1.000000
0  -3.366400 2.271648 -5.274351  0.353200 -0.003286 -0.935542  0.074144 0.539586 1 64 1.000000
0  -2.983728 2.272155 -5.129880  0.353200 -0.003286 -0.935542  0.073781 0.539586 1 64 1.000000
lowpoly_plastic
0  -3.016143 -3.327494 -4.442184  0.353201 0.003283 0.935542  0.058392 0.624770 1 64 1.000000
0  -3.016143 -3.121251 -4.442908  0.353200 0.003283 0.935542  0.058301 0.624770 1 64 1.000000
0  -3.366399 -3.120786 -4.310675  0.353202 0.003284 0.935541  0.058301 0.624630 1 64 1.000000
lowpoly_plastic
0  -3.861735 -3.328613 -4.761422  -0.910397 0.001453 0.413733  0.058121 0.624631 1 64 1.000000
0  -3.716654 -3.327494 -4.442184  -0.910397 0.001452 0.413733  0.058121 0.624490 1 64 1.000000
0  -3.716654 -3.121251 -4.442908  -0.910397 0.001453 0.413733  0.058211 0.624490 1 64 1.000000
lowpoly_plastic
0  -3.814583 -3.330048 -5.169916  -0.353202 -0.003284 -0.935541  0.068620 0.538216 1 64 1.000000
0  -3.366398 -3.330642 -5.339120  -0.353203 -0.003284 -0.935541  0.068620 0.537791 1 64 1.000000
0  -3.366399 -3.792330 -5.337499  -0.353202 -0.003284 -0.935541  0.069100 0.537791 1 64 1.000000
lowpoly_plastic
0  -3.366398 -3.330642 -5.339120  0.353202 -0.003284 -0.935541  0.068620 0.537791 1 64 1.000000
0  -2.918215 -3.330048 -5.169916  0.353203 -0.003283 -0.935541  0.068620 0.537366 1 64 1.000000
0  -2.918214 -3.791736 -5.168295  0.353202 -0.003284 -0.935541  0.069100 0.537366 1 64 1.000000
lowpoly_plastic
0  -3.366399 -3.788272 -4.182102  -0.353202 0.003286 0.935541  0.072423 0.533550 1 64 1.000000
0  -3.366399 -3.326584 -4.183723  -0.353203 0.003285 0.935541  0.072903 0.533550 1 64 1.000000
0  -3.814583 -3.327178 -4.352928  -0.353202 0.003286 0.935541  0.072903 0.533975 1 64 1.000000
lowpoly_plastic
0  -3.366399 -4.101421 -5.413131  0.353201 -0.003284 -0.935542  0.009682 0.736221 1 64 1.000000
0  -2.858696 -4.100749 -5.221458  0.353201 -0.003284 -0.935542  0.009682 0.735993 1 64 1.000000
0  -2.858696 -4.442818 -5.220257  0.353201 -0.003284 -0.935542  0.009770 0.735993 1 64 1.000000
lowpoly_plastic
0  -2.648399 -4.099123 -4.758716  0.910397 0.001453 0.413733  0.006455 0.737922 1 64 1.000000
0  -2.858696 -4.097497 -4.295974  0.910397 0.001453 0.413734  0.006455 0.737693 1 64 1.000000
0  -2.858696 -4.439567 -4.294773  0.910397 0.001453 0.413733  0.006543 0.737693 1 64 1.000000
lowpoly_plastic
0  -2.918215 -3.330048 -5.169916  0.910397 -0.001452 -0.413734  0.072330 0.532848 1 64 1.000000
0  -2.732570 -3.328613 -4.761422  0.910396 -0.001453 -0.413735  0.072330 0.533270 1 64 1.000000
0  -2.732570 -3.790301 -4.759801  0.910397 -0.001452 -0.413734  0.071850 0.533270 1 64 1.000000
lowpoly_plastic
0  -2.732570 -3.328613 -4.761422  0.910397 0.001452 0.413733  0.072330 0.533270 1 64 1.000000
0  -2.918215 -3.327178 -4.352928  0.910397 0.001454 0.413734  0.072330 0.533697 1 64 1.000000
0  -2.918214 -3.788867 -4.351305  0.910397 0.001452 0.413733  0.071850 0.533697 1 64 1.000000
lowpoly_plastic
0  -3.366399 -3.326584 -4.183723  -0.000005 0.999994 -0.003511  0.058445 0.625709 1 64 1.000000
0  -3.366399 -3.327027 -4.309951  -0.000009 0.999994 -0.003505  0.058424 0.625761 1 64 1.000000
0  -3.716654 -3.327494 -4.442184  0.000004 0.999994 -0.003526  0.058272 0.625761 1 64 1.000000
lowpoly_plastic
0  -4.000227 -3.790301 -4.759801  -0.910397 -0.001451 -0.413734  0.068619 0.539164 1 64 1.000000
0  -4.000226 -3.328613 -4.761422  -0.910397 -0.001451 -0.413734  0.069100 0.539164 1 64 1.000000
0  -3.814583 -3.330048 -5.169916  -0.910397 -0.001451 -0.413734  0.069100 0.539586 1 64 1.000000
lowpoly_plastic
0  -2.983727 -3.123597 -5.110930  0.910398 -0.001453 -0.413732  0.073056 0.533975 1 64 1.000000
0  -2.983728 2.272155 -5.129880  0.910397 -0.001453 -0.413732  0.073056 0.539586 1 64 1.000000
0  -2.825221 2.273380 -4.781097  0.910397 -0.001453 -0.413732  0.072695 0.539586 1 64 1.000000
lowpoly_plastic
0  -2.858696 -4.442818 -5.220257  0.000000 -0.999994 0.003513  0.007570 0.736832 1 64 1.000000
0  -2.858696 -4.439567 -4.294773  0.000000 -0.999994 0.003512  0.007791 0.736300 1 64 1.000000
0  -3.874101 -4.439567 -4.294773  0.000000 -0.999994 0.003513  0.008212 0.736474 1 64 1.000000
lowpoly_plastic
0  -3.016143 -3.121251 -4.442908  -0.000001 -0.999994 0.003519  0.060118 0.623795 1 64 1.000000
0  -2.871062 -3.122375 -4.762146  0.000000 -0.999994 0.003521  0.060270 0.623795 1 64 1.000000
0  -2.825220 -3.122375 -4.762146  -0.000000 -0.999994 0.003521  0.060277 0.623812 1 64 1.000000
lowpoly_plastic
0  -4.000226 -3.328613 -4.761422  -0.000000 0.999994 -0.003512  0.058114 0.625847 1 64 1.000000
0  -3.861735 -3.328613 -4.761422  0.000000 0.999994 -0.003512  0.058165 0.625868 1 64 1.000000
0  -3.716654 -3.329734 -5.080660  -0.000002 0.999994 -0.003513  0.058165 0.626019 1 64 1.000000
lowpoly_plastic
0  -3.814583 -3.327178 -4.352928  0.000013 0.999994 -0.003513  0.058251 0.625709 1 64 1.000000
0  -3.716654 -3.327494 -4.442184  0.000018 0.999994 -0.003513  0.058272 0.625761 1 64 1.000000
0  -3.861735 -3.328613 -4.761422  0.000003 0.999994 -0.003514  0.058165 0.625868 1 64 1.000000
lowpoly_plastic
0  -3.366399 -3.788272 -4.182102  -0.000003 0.999994 -0.003514  0.006848 0.736479 1 64 1.000000
0  -3.366399 -3.788716 -4.308330  -0.000006 0.999994 -0.003511  0.006875 0.736544 1 64 1.000000
0  -3.716654 -3.789182 -4.440562  0.000004 0.999994 -0.003525  0.006739 0.736680 1 64 1.000000
lowpoly_plastic
0  -3.016143 -3.121251 -4.442908  0.000002 -0.999994 0.003519  0.060118 0.623795 1 64 1.000000
0  -2.983727 -3.121147 -4.413363  0.000002 -0.999994 0.003519  0.060111 0.623812 1 64 1.000000
0  -3.366399 -3.120639 -4.268893  -0.000001 -0.999994 0.003519  0.059994 0.623694 1 64 1.000000
lowpoly_plastic
0  -2.918214 -3.788867 -4.351305  -0.000014 0.999994 -0.003513  0.007095 0.736479 1 64 1.000000
0  -2.732570 -3.790301 -4.759800  0.000000 0.999994 -0.003511  0.007270 0.736653 1 64 1.000000
0  -2.871062 -3.790301 -4.759800  -0.000003 0.999994 -0.003511  0.007205 0.736680 1 64 1.000000
lowpoly_plastic
0  -3.814583 -3.330048 -5.169916  -0.000001 0.999994 -0.003515  0.058114 0.626040 1 64 1.000000
0  -3.716654 -3.329734 -5.080660  -0.000001 0.999994 -0.003516  0.058165 0.626019 1 64 1.000000
0  -3.366399 -3.330199 -5.212893  -0.000001 0.999994 -0.003513  0.058272 0.626126 1 64 1.000000
lowpoly_plastic
0  -4.000226 -4.105721 -4.758693  -0.910397 -0.001453 -0.413733  0.006498 0.736895 1 64 1.000000
0  -4.000226 -3.790301 -4.759800  -0.910397 -0.001452 -0.413733  0.006674 0.736895 1 64 1.000000
0  -3.814582 -3.791736 -5.168295  -0.910397 -0.001453 -0.413733  0.006674 0.737242 1 64 1.000000
lowpoly_plastic
0  -3.128425 -1.861491 -5.585657  0.000000 -0.878802 -0.477186  0.088688 0.640557 1 64 1.000000
0  -3.128425 -2.180179 -4.998750  0.000000 -0.878802 -0.477187  0.088688 0.640217 1 64 1.000000
0  -3.604373 -2.180179 -4.998750  0.000000 -0.878802 -0.477187  0.088936 0.640217 1 64 1.000000
lowpoly_plastic
0  -3.128426 2.115541 -5.013837  0.000000 0.003512 0.999994  0.088936 0.643008 1 64 1.000000
0  -3.604374 2.115541 -5.013837  0.000000 0.003512 0.999994  0.088688 0.643008 1 64 1.000000
0  -3.604373 -2.180179 -4.998750  0.000000 0.003512 0.999994  0.088688 0.640557 1 64 1.000000
lowpoly_plastic
0  -2.918215 -3.327178 -4.352928  0.353202 0.003286 0.935541  0.072903 0.533125 1 64 1.000000
0  -3.366399 -3.326584 -4.183723  0.353202 0.003286 0.935541  0.072903 0.533550 1 64 1.000000
0  -3.366399 -3.788272 -4.182102  0.353202 0.003286 0.935541  0.072423 0.533550 1 64 1.000000
lowpoly_plastic
0  -3.874101 -4.100749 -5.221458  -0.353201 -0.003284 -0.935542  0.009682 0.736449 1 64 1.000000
0  -3.366399 -4.101421 -5.413131  -0.353202 -0.003284 -0.935542  0.009682 0.736221 1 64 1.000000
0  -3.366399 -4.443491 -5.411931  -0.353201 -0.003284 -0.935542  0.009770 0.736221 1 64 1.000000
lowpoly_plastic
0  -3.716654 -3.329734 -5.080660  -0.910397 -0.001452 -0.413732  0.058121 0.624770 1 64 1.000000
0  -3.861735 -3.328613 -4.761422  -0.910397 -0.001455 -0.413733  0.058121 0.624631 1 64 1.000000
0  -3.861735 -3.122375 -4.762146  -0.910397 -0.001453 -0.413733  0.058211 0.624631 1 64 1.000000
lowpoly_plastic
0  -3.366399 -3.123958 -5.213618  0.000005 -0.999994 0.003501  0.060377 0.623536 1 64 1.000000
0  -3.366399 -3.124104 -5.255400  0.000004 -0.999994 0.003504  0.060394 0.623529 1 64 1.000000
0  -2.983727 -3.123597 -5.110930  0.000018 -0.999994 0.003443  0.060394 0.623695 1 64 1.000000
lowpoly_plastic
0  -3.016143 -3.329734 -5.080660  0.910397 -0.001453 -0.413732  0.058121 0.624770 1 64 1.000000
0  -3.016143 -3.123496 -5.081384  0.910397 -0.001452 -0.413732  0.058030 0.624770 1 64 1.000000
0  -2.871062 -3.122375 -4.762146  0.910397 -0.001453 -0.413732  0.058030 0.624631 1 64 1.000000
lowpoly_plastic
0  -3.814583 -4.104287 -4.350198  -0.910398 0.001452 0.413732  0.006498 0.736665 1 64 1.000000
0  -3.814583 -3.788867 -4.351305  -0.910398 0.001452 0.413732  0.006674 0.736665 1 64 1.000000
0  -4.000226 -3.790301 -4.759800  -0.910398 0.001452 0.413732  0.006674 0.736895 1 64 1.000000
lowpoly_plastic
0  -2.858696 -4.097497 -4.295974  0.353202 0.003287 0.935541  0.008784 0.736449 1 64 1.000000
0  -3.366399 -4.096825 -4.104300  0.353202 0.003286 0.935542  0.008784 0.736221 1 64 1.000000
0  -3.366399 -4.438895 -4.103098  0.353202 0.003286 0.935541  0.008872 0.736221 1 64 1.000000
lowpoly_plastic
0  -3.814583 -3.788867 -4.351305  0.000014 0.999994 -0.003513  0.006674 0.736653 1 64 1.000000
0  -3.716654 -3.789182 -4.440562  0.000019 0.999994 -0.003513  0.006739 0.736680 1 64 1.000000
0  -3.861735 -3.790301 -4.759800  0.000003 0.999994 -0.003511  0.006739 0.736873 1 64 1.000000
lowpoly_plastic
0  -3.366399 -3.788272 -4.182102  0.000003 0.999994 -0.003514  0.006848 0.736479 1 64 1.000000
0  -2.918214 -3.788867 -4.351305  -0.000006 0.999994 -0.003527  0.007095 0.736479 1 64 1.000000
0  -3.016143 -3.789182 -4.440562  -0.000004 0.999994 -0.003525  0.007068 0.736544 1 64 1.000000
lowpoly_plastic
0  -3.861735 -3.122375 -4.762146  0.000000 -0.999994 0.003522  0.060118 0.623429 1 64 1.000000
0  -3.716654 -3.121251 -4.442908  0.000001 -0.999994 0.003518  0.060011 0.623536 1 64 1.000000
0  -3.749070 -3.121147 -4.413363  0.000001 -0.999994 0.003518  0.059994 0.623529 1 64 1.000000
lowpoly_plastic
0  -2.871062 -3.122375 -4.762146  0.000003 -0.999994 0.003503  0.060270 0.623795 1 64 1.000000
0  -3.016143 -3.123496 -5.081384  0.000059 -0.999994 0.003486  0.060377 0.623688 1 64 1.000000
0  -2.983727 -3.123597 -5.110930  0.000053 -0.999994 0.003488  0.060394 0.623695 1 64 1.000000
lowpoly_plastic
0  -3.814582 -3.791736 -5.168295  0.000001 0.999994 -0.003510  0.006895 0.737186 1 64 1.000000
0  -3.716654 -3.791423 -5.079039  0.000001 0.999994 -0.003511  0.006875 0.737009 1 64 1.000000
0  -3.366399 -3.791887 -5.211271  0.000001 0.999994 -0.003508  0.007068 0.737009 1 64 1.000000
lowpoly_plastic
0  -2.918214 -3.791736 -5.168295  0.000000 -0.999994 0.003512  0.069885 0.538476 1 64 1.000000
0  -2.918214 -3.788867 -4.351305  0.000000 -0.999994 0.003512  0.069100 0.538151 1 64 1.000000
0  -3.814583 -3.788867 -4.351305  0.000000 -0.999994 0.003512  0.069425 0.537366 1 64 1.000000
lowpoly_plastic
0  -2.918214 -3.788867 -4.351305  0.353202 0.003285 0.935541  0.008520 0.736449 1 64 1.000000
0  -3.366399 -3.788272 -4.182102  0.353201 0.003287 0.935542  0.008520 0.736221 1 64 1.000000
0  -3.366399 -4.103693 -4.180994  0.353202 0.003286 0.935541  0.008696 0.736221 1 64 1.000000
lowpoly_plastic
0  -3.874101 -4.097497 -4.295974  0.078112 0.996181 -0.039001  0.006410 0.736665 1 64 1.000000
0  -3.814583 -4.104287 -4.350198  0.078113 0.996181 -0.039002  0.006498 0.736665 1 64 1.000000
0  -4.000226 -4.105721 -4.758693  0.078110 0.996182 -0.038996  0.006498 0.736895 1 64 1.000000
lowpoly_plastic
0  -3.814582 -3.791736 -5.168295  -0.353201 -0.003287 -0.935542  0.009418 0.736449 1 64 1.000000
0  -3.366398 -3.792330 -5.337499  -0.353199 -0.003287 -0.935542  0.009418 0.736221 1 64 1.000000
0  -3.366398 -4.107750 -5.336391  -0.353200 -0.003287 -0.935542  0.009594 0.736221 1 64 1.000000
lowpoly_plastic
0  -4.084398 -4.099123 -4.758716  0.078109 0.996431 0.031996  0.006410 0.736895 1 64 1.000000
0  -4.000226 -4.105721 -4.758693  0.078110 0.996431 0.031996  0.006498 0.736895 1 64 1.000000
0  -3.814583 -4.107156 -5.167187  0.078104 0.996432 0.031991  0.006498 0.737242 1 64 1.000000
lowpoly_plastic
0  -2.732570 -3.790301 -4.759800  0.910397 0.001453 0.413734  0.006191 0.737922 1 64 1.000000
0  -2.918214 -3.788867 -4.351305  0.910397 0.001453 0.413734  0.006191 0.737693 1 64 1.000000
0  -2.918214 -4.104287 -4.350198  0.910397 0.001453 0.413734  0.006367 0.737693 1 64 1.000000
lowpoly_plastic
0  -3.366398 -3.792330 -5.337499  0.353201 -0.003287 -0.935542  0.009418 0.736221 1 64 1.000000
0  -2.918214 -3.791736 -5.168295  0.353201 -0.003286 -0.935542  0.009418 0.735993 1 64 1.000000
0  -2.918214 -4.107156 -5.167187  0.353201 -0.003287 -0.935542  0.009594 0.735993 1 64 1.000000
lowpoly_plastic
0  -3.366399 -4.096825 -4.104300  0.032336 0.995493 -0.089156  0.008784 0.736221 1 64 1.000000
0  -3.366399 -4.103693 -4.180994  0.032336 0.995493 -0.089157  0.008696 0.736221 1 64 1.000000
0  -3.814583 -4.104287 -4.350198  0.032340 0.995493 -0.089147  0.008696 0.735993 1 64 1.000000
lowpoly_plastic
0  -2.918214 -3.791736 -5.168295  0.910397 -0.001454 -0.413733  0.006191 0.738269 1 64 1.000000
0  -2.732570 -3.790301 -4.759800  0.910397 -0.001454 -0.413733  0.006191 0.737922 1 64 1.000000
0  -2.732570 -4.105721 -4.758692  0.910397 -0.001454 -0.413733  0.006367 0.737922 1 64 1.000000
lowpoly_plastic
0  -3.366399 -4.438895 -4.103098  -0.353202 0.003286 0.935542  0.008872 0.736221 1 64 1.000000
0  -3.366399 -4.096825 -4.104300  -0.353200 0.003287 0.935542  0.008784 0.736221 1 64 1.000000
0  -3.874101 -4.097497 -4.295974  -0.353202 0.003286 0.935541  0.008784 0.735993 1 64 1.000000
lowpoly_plastic
0  -4.084398 -4.441193 -4.757514  -0.910397 -0.001453 -0.413733  0.006322 0.736895 1 64 1.000000
0  -4.084398 -4.099123 -4.758716  -0.910397 -0.001454 -0.413733  0.006410 0.736895 1 64 1.000000
0  -3.874101 -4.100749 -5.221458  -0.910397 -0.001452 -0.413732  0.006410 0.737242 1 64 1.000000
lowpoly_plastic
0  -3.874101 -4.439567 -4.294773  -0.910397 0.001453 0.413733  0.006322 0.736665 1 64 1.000000
0  -3.874101 -4.097497 -4.295974  -0.910397 0.001454 0.413733  0.006410 0.736665 1 64 1.000000
0  -4.084398 -4.099123 -4.758716  -0.910397 0.001453 0.413733  0.006410 0.736895 1 64 1.000000
lowpoly_plastic
0  -2.918214 -4.104287 -4.350198  -0.032340 0.995494 -0.089142  0.008696 0.736449 1 64 1.000000
0  -3.366399 -4.103693 -4.180994  -0.032336 0.995493 -0.089157  0.008696 0.736221 1 64 1.000000
0  -3.366399 -4.096825 -4.104300  -0.032336 0.995493 -0.089155  0.008784 0.736221 1 64 1.000000
lowpoly_plastic
0  -3.814583 -4.107156 -5.167187  0.032333 0.996096 0.082143  0.009594 0.736449 1 64 1.000000
0  -3.366398 -4.107750 -5.336391  0.032338 0.996095 0.082154  0.009594 0.736221 1 64 1.000000
0  -3.366399 -4.101421 -5.413131  0.032337 0.996095 0.082152  0.009682 0.736221 1 64 1.000000
lowpoly_plastic
0  -2.732570 -4.105721 -4.758692  -0.078111 0.996181 -0.039001  0.006367 0.737922 1 64 1.000000
0  -2.918214 -4.104287 -4.350198  -0.078113 0.996181 -0.039000  0.006367 0.737693 1 64 1.000000
0  -2.858696 -4.097497 -4.295974  -0.078113 0.996181 -0.039000  0.006455 0.737693 1 64 1.000000
lowpoly_plastic
0  -3.366398 -4.107750 -5.336391  -0.032336 0.996095 0.082154  0.009594 0.736221 1 64 1.000000
0  -2.918214 -4.107156 -5.167187  -0.032334 0.996096 0.082146  0.009594 0.735993 1 64 1.000000
0  -2.858696 -4.100749 -5.221458  -0.032334 0.996096 0.082147  0.009682 0.735993 1 64 1.000000
lowpoly_plastic
0  -2.918214 -4.107156 -5.167187  -0.078104 0.996432 0.031991  0.006367 0.738269 1 64 1.000000
0  -2.732570 -4.105721 -4.758692  -0.078110 0.996431 0.031996  0.006367 0.737922 1 64 1.000000
0  -2.648399 -4.099123 -4.758716  -0.078109 0.996431 0.031996  0.006455 0.737922 1 64 1.000000
end
