version 1
nodes
0 "ValveBiped.Bip01_Spine4" -1
1 "ValveBiped.Bip01_L_Clavicle" 0
2 "ValveBiped.Bip01_L_UpperArm" 1
3 "ValveBiped.Bip01_L_Forearm" 2
4 "ValveBiped.Bip01_L_Hand" 3
5 "ValveBiped.Bip01_L_Finger4" 4
6 "ValveBiped.Bip01_L_Finger41" 5
7 "ValveBiped.Bip01_L_Finger42" 6
8 "ValveBiped.Bip01_L_Finger3" 4
9 "ValveBiped.Bip01_L_Finger31" 8
10 "ValveBiped.Bip01_L_Finger32" 9
11 "ValveBiped.Bip01_L_Finger2" 4
12 "ValveBiped.Bip01_L_Finger21" 11
13 "ValveBiped.Bip01_L_Finger22" 12
14 "ValveBiped.Bip01_L_Finger1" 4
15 "ValveBiped.Bip01_L_Finger11" 14
16 "ValveBiped.Bip01_L_Finger12" 15
17 "ValveBiped.Bip01_L_Finger0" 4
18 "ValveBiped.Bip01_L_Finger01" 17
19 "ValveBiped.Bip01_L_Finger02" 18
20 "ValveBiped.Bip01_L_Ulna" 3
21 "ValveBiped.Bip01_L_Wrist" 3
22 "rig_l_upperarm" 1
23 "rig_l_forearm" 22
24 "rig_d_l_forearm" 23
25 "rig_d_l_upperarm" 22
26 "ValveBiped.Bip01_R_Clavicle" 0
27 "ValveBiped.Bip01_R_UpperArm" 26
28 "ValveBiped.Bip01_R_Forearm" 27
29 "ValveBiped.Bip01_R_Hand" 28
30 "ValveBiped.Bip01_R_Finger4" 29
31 "ValveBiped.Bip01_R_Finger41" 30
32 "ValveBiped.Bip01_R_Finger42" 31
33 "ValveBiped.Bip01_R_Finger3" 29
34 "ValveBiped.Bip01_R_Finger31" 33
35 "ValveBiped.Bip01_R_Finger32" 34
36 "ValveBiped.Bip01_R_Finger2" 29
37 "ValveBiped.Bip01_R_Finger21" 36
38 "ValveBiped.Bip01_R_Finger22" 37
39 "ValveBiped.Bip01_R_Finger1" 29
40 "ValveBiped.Bip01_R_Finger11" 39
41 "ValveBiped.Bip01_R_Finger12" 40
42 "ValveBiped.Bip01_R_Finger0" 29
43 "ValveBiped.Bip01_R_Finger01" 42
44 "ValveBiped.Bip01_R_Finger02" 43
45 "ValveBiped.Bip01_R_Ulna" 28
46 "ValveBiped.Bip01_R_Wrist" 28
47 "rig_r_upperarm" 26
48 "rig_r_forearm" 47
49 "rig_d_r_forearm" 48
50 "rig_d_r_upperarm" 47
51 "rig_r_hand" -1
52 "rig_d_r_hand" 51
53 "rig_d_r_wrist" 52
54 "rig_l_hand" -1
55 "rig_d_l_hand" 54
56 "rig_d_l_wrist" 54
57 "rig_l_pole" -1
58 "rig_r_pole" -1
59 "rig_l_clavicle" -1
60 "rig_d_l_clavicle" 59
61 "rig_r_clavicle" -1
62 "rig_d_r_clavicle" 61
63 "Camera" -1
64 "body" -1
65 "trigger" 64
66 "barrel" 64
67 "bulletdoor" 64
68 "pump" 64
69 "bolt" 68
70 "bullet2" 64
71 "bullet1" -1
end
skeleton
time 0
0  0.000006 0.000000 0.000000  -1.570800 -1.391899 -1.570792
1  2.033349 1.000767 1.937657  -1.544956 -1.855077 -0.198630
2  6.027514 -0.000325 0.000203  -1.578134 0.019585 -0.589035
3  11.692119 0.000651 -0.000739  -0.000006 -0.000000 -0.007115
4  11.999127 0.001590 -0.000766  1.595761 -0.165077 0.023306
5  3.859509 -0.142880 -1.192049  -0.468164 0.151540 -0.880272
6  1.312589 0.000013 0.000008  -0.000026 0.000045 -0.439738
7  0.729353 0.000057 0.000050  0.000017 0.000021 -0.244318
8  3.942147 0.046273 -0.431512  -0.151810 0.073212 -0.811101
9  1.539113 0.000082 0.000005  -0.000007 0.000021 -0.247841
10  1.196333 0.000144 0.000029  0.000011 0.000019 -0.430771
11  3.883508 -0.047271 0.431381  0.085898 0.021851 -0.587925
12  1.719573 -0.000027 0.000015  0.000015 0.005519 -0.366533
13  1.209179 0.000092 0.000012  0.000004 0.003092 -0.216437
14  3.859665 -0.138476 1.332410  0.354468 -0.042725 -0.531804
15  1.719447 -0.000013 0.000021  0.000029 0.004070 -0.363021
16  1.099675 0.000050 0.000006  0.000003 0.002579 -0.244381
17  0.805995 -0.349051 1.321254  -1.222687 -0.679194 -0.788886
18  1.789824 -0.000000 -0.000020  0.000012 -0.000024 0.228522
19  1.207013 -0.000009 -0.000043  0.000002 -0.000008 0.362858
20  5.740632 0.000410 -0.000703  0.003178 0.000003 0.000071
21  11.584835 0.000527 -0.000812  0.009109 -0.011370 -0.004794
22  6.027524 -0.000330 0.000203  0.025560 -2.447253 -2.176251
23  -0.000000 11.692099 -0.000007  -0.005466 -0.000058 -0.004620
24  0.000005 0.000008 -0.000000  0.868996 -0.000031 1.570738
25  -0.000001 -0.000011 -0.000001  0.868957 0.000002 1.570712
26  2.033355 1.000772 -1.937609  1.473120 1.855075 -0.198639
27  6.027507 -0.000258 -0.000239  1.605887 -0.127588 -0.616799
28  11.691988 0.000244 0.000858  -0.000051 -0.000000 -0.007062
29  12.156216 0.001914 0.000861  -1.530946 0.132850 -0.125985
30  3.859435 -0.132787 1.193062  0.466291 -0.158048 -0.878829
31  1.312557 0.000025 0.000001  0.000011 -0.000044 -0.439710
32  0.729346 0.000067 -0.000027  -0.000023 -0.000019 -0.244286
33  3.942044 0.050109 0.430997  0.150090 -0.079180 -0.810199
34  1.539095 0.000011 -0.000001  0.000010 -0.000008 -0.247820
35  1.196297 0.000077 -0.000004  -0.000007 -0.000009 -0.430782
36  3.883409 -0.050504 -0.431087  -0.085915 -0.026391 -0.587671
37  1.719563 -0.000079 -0.000003  -0.000006 -0.007962 -0.366483
38  1.209197 0.000036 0.000011  0.000002 -0.004460 -0.216413
39  3.859584 -0.149113 -1.331323  -0.354446 0.038580 -0.531963
40  1.719410 -0.000100 -0.000034  -0.000028 -0.006585 -0.363032
41  1.099674 0.000023 0.000007  0.000004 -0.004187 -0.244346
42  0.805977 -0.359856 -1.318338  1.221444 0.673631 -0.793566
43  1.789779 -0.000009 -0.000041  -0.000028 0.000031 0.228552
44  1.206999 -0.000007 0.000010  -0.000017 0.000020 0.362911
45  5.740573 0.000055 0.000723  0.050820 -0.000014 0.000021
46  11.616188 0.000419 0.000922  0.006887 0.005027 -0.036224
47  6.027514 -0.000273 -0.000237  0.161842 -0.660365 -2.287484
48  0.000000 11.691974 -0.000006  -0.005404 0.000036 0.004568
49  0.000003 -0.000000 -0.000000  2.272569 -0.000041 1.570856
50  -0.000006 -0.000015 0.000005  2.272644 -0.000030 1.570865
51  -22.513350 2.531578 -18.161785  -1.605366 2.379717 -0.041994
52  0.000002 0.000001 0.000000  0.008153 -0.000259 0.000009
53  -0.000002 -0.000000 0.000000  1.565115 0.043565 -0.106862
54  22.941027 -1.017549 -18.021313  1.632296 0.707372 0.045120
55  0.000001 0.000000 0.000000  0.000000 -0.000000 -0.000002
56  0.000032 0.000030 0.000001  -1.571901 -0.044449 -0.106509
57  15.265023 8.339654 -8.787539  1.570796 -0.000000 0.000000
58  -15.265000 8.339654 -8.787539  1.570796 -0.000000 0.000000
59  1.941978 -1.346989 1.821586  1.570796 -0.000000 0.000000
60  -0.004311 0.001230 -0.000371  0.006898 -0.005534 -0.284229
61  -1.937603 -1.346625 1.822824  1.570796 -0.000000 0.000000
62  0.000000 0.000000 0.000000  -0.078727 -3.136056 0.284226
63  0.000000 0.000000 0.000000  1.570796 -0.000000 0.000000
64  -3.258810 -12.631968 -3.682181  1.570796 -0.000000 0.000000
65  -0.219072 -1.337187 -0.135917  0.000000 -0.000000 0.000000
66  -0.219078 0.187971 19.478251  0.000000 -0.000000 0.000000
67  -0.245097 -1.134826 1.111317  0.000000 -0.000000 0.000000
68  -0.104048 -4.495923 7.879276  0.000000 -0.000000 0.000000
69  -0.195264 4.332630 -6.347187  0.000000 -0.000000 0.000000
70  -0.194973 -1.428963 2.513276  0.000000 -0.000000 0.000000
71  -3.453783 -12.793627 -5.111145  1.570796 -0.000000 0.000000
end
triangles
lowpoly_plastic
0  -3.935179 -0.348025 -6.237995  -0.723043 0.690803 0.000000  0.005204 0.735637 1 64 1.000000
0  -3.845112 -0.253754 -7.472151  -0.723061 0.690784 -0.000003  0.005204 0.735637 1 64 1.000000
0  -3.935177 -0.348028 -7.674775  -0.723062 0.690783 -0.000003  0.005204 0.735637 1 64 1.000000
lowpoly_plastic
0  -4.063711 -0.348024 -5.763108  -0.678863 0.734264 0.000000  0.005204 0.735637 1 64 1.000000
0  -3.961747 -0.253755 -4.294747  -0.678860 0.734268 0.000000  0.005204 0.735637 1 64 1.000000
0  -3.961748 -0.253755 -5.737429  -0.678864 0.734264 0.000000  0.005204 0.735637 1 64 1.000000
lowpoly_plastic
0  -3.845112 -0.253754 -6.168358  0.000009 1.000000 0.000002  0.004465 0.740067 1 64 1.000000
0  -3.479289 -0.253757 -7.472151  0.000001 1.000000 0.000001  0.004465 0.740067 1 64 1.000000
0  -3.845112 -0.253754 -7.472151  0.000009 1.000000 0.000000  0.004465 0.740067 1 64 1.000000
lowpoly_plastic
0  -3.961748 -0.253755 -5.737429  0.000004 1.000000 -0.000001  0.004465 0.740067 1 64 1.000000
0  -3.479292 -0.253753 -3.989480  -0.000001 1.000000 0.000002  0.004465 0.740067 1 64 1.000000
0  -3.479289 -0.253757 -6.168358  0.000003 1.000000 -0.000000  0.004465 0.740067 1 64 1.000000
lowpoly_plastic
0  -4.063711 -0.348024 -5.763108  -0.644412 0.744522 -0.174416  0.005204 0.735637 1 64 1.000000
0  -3.845112 -0.253754 -6.168358  -0.644413 0.744520 -0.174416  0.005204 0.735637 1 64 1.000000
0  -3.935179 -0.348025 -6.237995  -0.644413 0.744520 -0.174417  0.005204 0.735637 1 64 1.000000
lowpoly_plastic
0  -4.063710 -0.348024 -4.173271  -0.424329 0.852467 0.305360  0.005204 0.735637 1 64 1.000000
0  -3.806416 -0.253758 -4.078892  -0.424329 0.852469 0.305355  0.005204 0.735637 1 64 1.000000
0  -3.961747 -0.253755 -4.294747  -0.424330 0.852464 0.305366  0.005204 0.735637 1 64 1.000000
lowpoly_plastic
0  -3.479290 -0.348026 -7.674775  -0.000002 0.906676 -0.421828  0.005204 0.735637 1 64 1.000000
0  -3.845112 -0.253754 -7.472151  -0.000002 0.906672 -0.421837  0.005204 0.735637 1 64 1.000000
0  -3.479289 -0.253757 -7.472151  -0.000001 0.906679 -0.421822  0.005204 0.735637 1 64 1.000000
lowpoly_plastic
0  -3.479290 -0.348027 -3.836868  -0.117972 0.860963 0.494798  0.005204 0.735637 1 64 1.000000
0  -3.806416 -0.253758 -4.078892  -0.117972 0.860963 0.494798  0.005204 0.735637 1 64 1.000000
0  -3.892540 -0.348027 -3.935397  -0.117972 0.860963 0.494798  0.005204 0.735637 1 64 1.000000
lowpoly_plastic
0  -3.113470 -0.253754 -7.472152  0.723042 0.690804 0.000002  0.005204 0.735637 1 64 1.000000
0  -3.023405 -0.348027 -6.237995  0.723040 0.690806 0.000003  0.005204 0.735637 1 64 1.000000
0  -3.023402 -0.348025 -7.674775  0.723042 0.690804 0.000002  0.005204 0.735637 1 64 1.000000
lowpoly_plastic
0  -2.894873 -0.348027 -5.763107  0.678867 0.734261 0.000000  0.005204 0.735637 1 64 1.000000
0  -2.996835 -0.253757 -4.294747  0.678865 0.734263 0.000000  0.005204 0.735637 1 64 1.000000
0  -2.894873 -0.348027 -4.173271  0.678865 0.734264 0.000000  0.005204 0.735637 1 64 1.000000
lowpoly_plastic
0  -3.113472 -0.253757 -6.168358  -0.000002 1.000000 0.000001  0.004465 0.740067 1 64 1.000000
0  -3.479289 -0.253757 -7.472151  0.000001 1.000000 0.000001  0.004465 0.740067 1 64 1.000000
0  -3.479289 -0.253757 -6.168358  0.000003 1.000000 -0.000000  0.004465 0.740067 1 64 1.000000
lowpoly_plastic
0  -3.479292 -0.253753 -3.989480  -0.000001 1.000000 0.000002  0.004465 0.740067 1 64 1.000000
0  -2.996835 -0.253757 -4.294747  0.000008 1.000000 -0.000002  0.004465 0.740067 1 64 1.000000
0  -2.996836 -0.253757 -5.737428  0.000001 1.000000 -0.000001  0.004465 0.740067 1 64 1.000000
lowpoly_plastic
0  -3.113472 -0.253757 -6.168358  0.644414 0.744519 -0.174416  0.005204 0.735637 1 64 1.000000
0  -2.894873 -0.348027 -5.763107  0.644418 0.744516 -0.174419  0.005204 0.735637 1 64 1.000000
0  -3.023405 -0.348027 -6.237995  0.644414 0.744520 -0.174415  0.005204 0.735637 1 64 1.000000
lowpoly_plastic
0  -2.894873 -0.348027 -4.173271  0.424350 0.852458 0.305356  0.005204 0.735637 1 64 1.000000
0  -3.152167 -0.253754 -4.078892  0.424349 0.852458 0.305356  0.005204 0.735637 1 64 1.000000
0  -3.066046 -0.348026 -3.935397  0.424349 0.852459 0.305356  0.005204 0.735637 1 64 1.000000
lowpoly_plastic
0  -3.479290 -0.348026 -7.674775  -0.000002 0.906676 -0.421828  0.005204 0.735637 1 64 1.000000
0  -3.113470 -0.253754 -7.472152  -0.000003 0.906675 -0.421830  0.005204 0.735637 1 64 1.000000
0  -3.023402 -0.348025 -7.674775  -0.000001 0.906674 -0.421832  0.005204 0.735637 1 64 1.000000
lowpoly_plastic
0  -3.152167 -0.253754 -4.078892  0.117976 0.860954 0.494813  0.005204 0.735637 1 64 1.000000
0  -3.479290 -0.348027 -3.836868  0.117976 0.860954 0.494813  0.005204 0.735637 1 64 1.000000
0  -3.066046 -0.348026 -3.935397  0.117976 0.860954 0.494813  0.005204 0.735637 1 64 1.000000
lowpoly_metal
0  -4.110372 -0.879818 -4.143231  -0.000025 1.000000 -0.000000  0.028340 0.414408 1 64 1.000000
0  -3.995229 -0.879815 -4.697670  -0.000005 1.000000 -0.000000  0.028340 0.414408 1 64 1.000000
0  -4.110372 -0.879818 -4.697670  -0.000025 1.000000 0.000000  0.028340 0.414408 1 64 1.000000
lowpoly_metal
0  -3.995225 -1.659049 -4.143232  1.000000 -0.000001 -0.000000  0.028340 0.414408 1 64 1.000000
0  -3.995230 -10.150728 -4.697671  1.000000 0.000000 -0.000000  0.028340 0.414408 1 64 1.000000
0  -3.995225 -1.659049 -4.697670  1.000000 -0.000001 -0.000000  0.028340 0.414408 1 64 1.000000
lowpoly_metal
0  -4.110375 -10.150730 -4.697671  -1.000000 0.000004 0.000000  0.028340 0.414408 1 64 1.000000
0  -4.110377 -10.366909 -4.197411  -1.000000 -0.000001 0.000000  0.028340 0.414408 1 64 1.000000
0  -4.110375 -10.150730 -4.143230  -1.000000 0.000004 0.000000  0.028340 0.414408 1 64 1.000000
lowpoly_metal
0  -4.110372 -1.659046 -4.143231  -1.000000 0.000000 0.000000  0.028340 0.414408 1 64 1.000000
0  -4.110372 -0.879818 -4.697670  -1.000000 0.000000 0.000000  0.028340 0.414408 1 64 1.000000
0  -4.110372 -1.659046 -4.697670  -1.000000 0.000000 0.000000  0.028340 0.414408 1 64 1.000000
lowpoly_metal
0  -3.995230 -10.150728 -4.697671  -0.000000 0.000000 -1.000000  0.028340 0.414408 1 64 1.000000
0  -4.110372 -1.659046 -4.697670  -0.000007 0.000000 -1.000000  0.028340 0.414408 1 64 1.000000
0  -3.995225 -1.659049 -4.697670  -0.000007 0.000000 -1.000000  0.028340 0.414408 1 64 1.000000
lowpoly_metal
0  -3.995228 -0.879815 -4.143231  0.000001 -0.000000 1.000000  0.028340 0.414408 1 64 1.000000
0  -4.110372 -1.659046 -4.143231  0.000011 -0.000000 1.000000  0.028340 0.414408 1 64 1.000000
0  -3.995225 -1.659049 -4.143232  0.000012 -0.000001 1.000000  0.028340 0.414408 1 64 1.000000
lowpoly_metal
0  -4.110377 -10.366909 -4.197411  -1.000000 -0.000001 0.000000  0.028340 0.414408 1 64 1.000000
0  -4.110374 -10.450062 -4.543972  -1.000000 -0.000034 0.000000  0.028340 0.414408 1 64 1.000000
0  -4.110374 -10.450062 -4.296929  -1.000000 -0.000023 0.000000  0.028340 0.414408 1 64 1.000000
lowpoly_metal
0  -4.110375 -10.150730 -4.697671  0.000002 -0.243110 -0.969999  0.028340 0.414408 1 64 1.000000
0  -3.995230 -10.366912 -4.643489  -0.000007 -0.243115 -0.969997  0.028340 0.414408 1 64 1.000000
0  -4.110377 -10.366909 -4.643488  -0.000014 -0.243120 -0.969996  0.028340 0.414408 1 64 1.000000
lowpoly_metal
0  -3.995230 -10.150728 -4.143230  0.000002 -0.243113 0.969998  0.028340 0.414408 1 64 1.000000
0  -4.110377 -10.366909 -4.197411  -0.000001 -0.243111 0.969998  0.028340 0.414408 1 64 1.000000
0  -3.995229 -10.366913 -4.197412  -0.000003 -0.243110 0.969999  0.028340 0.414408 1 64 1.000000
lowpoly_metal
0  -3.995230 -10.150728 -4.143230  1.000000 0.000001 -0.000000  0.028340 0.414408 1 64 1.000000
0  -3.995230 -10.366912 -4.643489  1.000000 -0.000000 -0.000000  0.028340 0.414408 1 64 1.000000
0  -3.995230 -10.150728 -4.697671  1.000000 0.000000 -0.000000  0.028340 0.414408 1 64 1.000000
lowpoly_metal
0  -3.995230 -10.450058 -4.296929  0.000033 -1.000000 0.000000  0.028340 0.414408 1 64 1.000000
0  -4.110374 -10.450062 -4.543972  0.000033 -1.000000 0.000000  0.028340 0.414408 1 64 1.000000
0  -3.995230 -10.450058 -4.543972  0.000033 -1.000000 0.000000  0.028340 0.414408 1 64 1.000000
lowpoly_metal
0  -4.110377 -10.366909 -4.643488  0.000001 -0.767394 -0.641176  0.028340 0.414408 1 64 1.000000
0  -3.995230 -10.450058 -4.543972  0.000005 -0.767392 -0.641178  0.028340 0.414408 1 64 1.000000
0  -4.110374 -10.450062 -4.543972  0.000029 -0.767380 -0.641192  0.028340 0.414408 1 64 1.000000
lowpoly_metal
0  -4.110377 -10.366909 -4.197411  -0.000002 -0.767397 0.641172  0.028340 0.414408 1 64 1.000000
0  -3.995230 -10.450058 -4.296929  0.000002 -0.767394 0.641175  0.028340 0.414408 1 64 1.000000
0  -3.995229 -10.366913 -4.197412  -0.000028 -0.767414 0.641152  0.028340 0.414408 1 64 1.000000
lowpoly_metal
0  -3.995229 -10.366913 -4.197412  1.000000 0.000000 -0.000001  0.028340 0.414408 1 64 1.000000
0  -3.995230 -10.450058 -4.543972  1.000000 -0.000006 -0.000001  0.028340 0.414408 1 64 1.000000
0  -3.995230 -10.366912 -4.643489  1.000000 -0.000000 -0.000000  0.028340 0.414408 1 64 1.000000
lowpoly_metal
0  -3.995225 -1.659049 -4.143232  0.000012 -0.000001 1.000000  0.028340 0.414408 1 64 1.000000
0  -4.110375 -10.150730 -4.143230  0.000001 0.000000 1.000000  0.028340 0.414408 1 64 1.000000
0  -3.995230 -10.150728 -4.143230  0.000001 0.000000 1.000000  0.028340 0.414408 1 64 1.000000
lowpoly_metal
0  -3.995225 -1.659049 -4.697670  -0.000007 0.000000 -1.000000  0.028340 0.414408 1 64 1.000000
0  -4.110372 -0.879818 -4.697670  0.000001 0.000001 -1.000000  0.028340 0.414408 1 64 1.000000
0  -3.995229 -0.879815 -4.697670  0.000002 0.000001 -1.000000  0.028340 0.414408 1 64 1.000000
lowpoly_metal
0  -4.110375 -10.150730 -4.143230  -1.000000 0.000004 0.000000  0.028340 0.414408 1 64 1.000000
0  -4.110372 -1.659046 -4.697670  -1.000000 0.000000 0.000000  0.028340 0.414408 1 64 1.000000
0  -4.110375 -10.150730 -4.697671  -1.000000 0.000004 0.000000  0.028340 0.414408 1 64 1.000000
lowpoly_metal
0  -3.995229 -0.879815 -4.697670  0.468132 0.000002 -0.883658  0.028340 0.414408 1 64 1.000000
0  -3.844148 -1.659048 -4.617634  0.468135 0.000002 -0.883657  0.028340 0.414408 1 64 1.000000
0  -3.995225 -1.659049 -4.697670  0.468135 0.000003 -0.883657  0.028340 0.414408 1 64 1.000000
lowpoly_metal
0  -3.844148 -1.659048 -4.223268  -0.000011 -1.000000 0.000000  0.028340 0.414408 1 64 1.000000
0  -3.753291 -1.659051 -4.617634  -0.000029 -1.000000 -0.000001  0.028340 0.414408 1 64 1.000000
0  -3.753291 -1.659051 -4.223268  -0.000029 -1.000000 0.000000  0.028340 0.414408 1 64 1.000000
lowpoly_metal
0  -3.995225 -1.659049 -4.143232  0.000003 -1.000000 0.000000  0.028340 0.414408 1 64 1.000000
0  -3.844148 -1.659048 -4.617634  -0.000011 -1.000000 -0.000000  0.028340 0.414408 1 64 1.000000
0  -3.844148 -1.659048 -4.223268  -0.000011 -1.000000 0.000000  0.028340 0.414408 1 64 1.000000
lowpoly_metal
0  -3.995225 -1.659049 -4.143232  0.468130 -0.000000 0.883660  0.028340 0.414408 1 64 1.000000
0  -3.844149 -0.879819 -4.223267  0.468129 0.000001 0.883660  0.028340 0.414408 1 64 1.000000
0  -3.995228 -0.879815 -4.143231  0.468129 0.000001 0.883660  0.028340 0.414408 1 64 1.000000
lowpoly_metal
0  -3.995229 -0.879815 -4.697670  -0.000005 1.000000 -0.000000  0.028340 0.414408 1 64 1.000000
0  -3.844149 -0.879819 -4.223267  0.000007 1.000000 -0.000000  0.028340 0.414408 1 64 1.000000
0  -3.844149 -0.879819 -4.617633  0.000007 1.000000 -0.000000  0.028340 0.414408 1 64 1.000000
lowpoly_metal
0  -3.753294 -0.879817 -4.223267  -0.000001 -0.000001 1.000000  0.028340 0.414408 1 64 1.000000
0  -3.619070 -1.572361 -4.223268  0.000000 -0.000001 1.000000  0.028340 0.414408 1 64 1.000000
0  -3.619067 -0.793131 -4.223267  0.000000 -0.000001 1.000000  0.028340 0.414408 1 64 1.000000
lowpoly_metal
0  -3.844149 -0.879819 -4.617633  0.000006 0.000001 -1.000000  0.028340 0.414408 1 64 1.000000
0  -3.753291 -1.659051 -4.617634  -0.000001 0.000001 -1.000000  0.028340 0.414408 1 64 1.000000
0  -3.844148 -1.659048 -4.617634  -0.000001 0.000001 -1.000000  0.028340 0.414408 1 64 1.000000
lowpoly_metal
0  -3.844148 -1.659048 -4.223268  0.000006 -0.000001 1.000000  0.028340 0.414408 1 64 1.000000
0  -3.753294 -0.879817 -4.223267  -0.000001 -0.000001 1.000000  0.028340 0.414408 1 64 1.000000
0  -3.844149 -0.879819 -4.223267  -0.000002 -0.000001 1.000000  0.028340 0.414408 1 64 1.000000
lowpoly_metal
0  -3.844149 -0.879819 -4.223267  0.000007 1.000000 -0.000000  0.028340 0.414408 1 64 1.000000
0  -3.753294 -0.879817 -4.617633  -0.000016 1.000000 -0.000000  0.028340 0.414408 1 64 1.000000
0  -3.844149 -0.879819 -4.617633  0.000007 1.000000 -0.000000  0.028340 0.414408 1 64 1.000000
lowpoly_metal
0  -3.619067 -0.793131 -4.223267  1.000000 -0.000004 -0.000001  0.028340 0.414408 1 64 1.000000
0  -3.619070 -1.572361 -4.617634  1.000000 -0.000004 -0.000001  0.028340 0.414408 1 64 1.000000
0  -3.619067 -0.793131 -4.617633  1.000000 -0.000004 -0.000001  0.028340 0.414408 1 64 1.000000
lowpoly_metal
0  -3.753294 -0.879817 -4.223267  -0.542516 0.840046 0.000000  0.028340 0.414408 1 64 1.000000
0  -3.619067 -0.793131 -4.617633  -0.542516 0.840046 0.000000  0.028340 0.414408 1 64 1.000000
0  -3.753294 -0.879817 -4.617633  -0.542515 0.840046 0.000000  0.028340 0.414408 1 64 1.000000
lowpoly_metal
0  -3.753291 -1.659051 -4.617634  0.542550 -0.840023 -0.000000  0.028340 0.414408 1 64 1.000000
0  -3.619070 -1.572361 -4.223268  0.542551 -0.840023 -0.000000  0.028340 0.414408 1 64 1.000000
0  -3.753291 -1.659051 -4.223268  0.542551 -0.840023 0.000000  0.028340 0.414408 1 64 1.000000
lowpoly_metal
0  -3.753294 -0.879817 -4.617633  0.000003 0.000001 -1.000000  0.028340 0.414408 1 64 1.000000
0  -3.619070 -1.572361 -4.617634  -0.000001 0.000001 -1.000000  0.028340 0.414408 1 64 1.000000
0  -3.753291 -1.659051 -4.617634  -0.000001 0.000001 -1.000000  0.028340 0.414408 1 64 1.000000
lowpoly_metal
0  -2.963356 -0.879819 -4.697670  0.000004 1.000000 -0.000000  0.028340 0.414408 1 64 1.000000
0  -2.848213 -0.879819 -4.143230  -0.000004 1.000000 -0.000000  0.028340 0.414408 1 64 1.000000
0  -2.848213 -0.879819 -4.697670  -0.000004 1.000000 0.000000  0.028340 0.414408 1 64 1.000000
lowpoly_metal
0  -2.963358 -10.150730 -4.697670  -1.000000 0.000002 0.000000  0.028340 0.414408 1 64 1.000000
0  -2.963354 -1.659048 -4.143230  -1.000000 0.000000 0.000000  0.028340 0.414408 1 64 1.000000
0  -2.963355 -1.659048 -4.697670  -1.000000 0.000000 0.000000  0.028340 0.414408 1 64 1.000000
lowpoly_metal
0  -2.848214 -10.366910 -4.197412  1.000000 0.000010 -0.000002  0.028340 0.414408 1 64 1.000000
0  -2.848216 -10.150730 -4.697670  1.000000 0.000003 0.000000  0.028340 0.414408 1 64 1.000000
0  -2.848216 -10.150731 -4.143231  1.000000 0.000002 -0.000000  0.028340 0.414408 1 64 1.000000
lowpoly_metal
0  -2.848214 -1.659047 -4.697670  1.000000 -0.000001 -0.000000  0.028340 0.414408 1 64 1.000000
0  -2.848213 -0.879819 -4.143230  1.000000 -0.000001 -0.000000  0.028340 0.414408 1 64 1.000000
0  -2.848213 -1.659047 -4.143230  1.000000 -0.000001 -0.000000  0.028340 0.414408 1 64 1.000000
lowpoly_metal
0  -2.848214 -1.659047 -4.697670  -0.000000 0.000000 -1.000000  0.028340 0.414408 1 64 1.000000
0  -2.963358 -10.150730 -4.697670  0.000000 0.000000 -1.000000  0.028340 0.414408 1 64 1.000000
0  -2.963355 -1.659048 -4.697670  -0.000000 0.000000 -1.000000  0.028340 0.414408 1 64 1.000000
lowpoly_metal
0  -2.848213 -1.659047 -4.143230  -0.000003 0.000001 1.000000  0.028340 0.414408 1 64 1.000000
0  -2.963355 -0.879819 -4.143232  -0.000016 0.000000 1.000000  0.028340 0.414408 1 64 1.000000
0  -2.963354 -1.659048 -4.143230  -0.000002 0.000001 1.000000  0.028340 0.414408 1 64 1.000000
lowpoly_metal
0  -2.848214 -10.366910 -4.197412  1.000000 0.000010 -0.000002  0.028340 0.414408 1 64 1.000000
0  -2.848215 -10.450062 -4.543972  1.000000 -0.000003 -0.000001  0.028340 0.414408 1 64 1.000000
0  -2.848214 -10.366909 -4.643489  1.000000 0.000004 0.000000  0.028340 0.414408 1 64 1.000000
lowpoly_metal
0  -2.848214 -10.366909 -4.643489  0.000006 -0.243108 -0.969999  0.028340 0.414408 1 64 1.000000
0  -2.963358 -10.150730 -4.697670  0.000003 -0.243109 -0.969999  0.028340 0.414408 1 64 1.000000
0  -2.848216 -10.150730 -4.697670  0.000000 -0.243111 -0.969999  0.028340 0.414408 1 64 1.000000
lowpoly_metal
0  -2.963359 -10.366912 -4.197412  0.000003 -0.243111 0.969998  0.028340 0.414408 1 64 1.000000
0  -2.848216 -10.150731 -4.143231  0.000001 -0.243110 0.969999  0.028340 0.414408 1 64 1.000000
0  -2.963358 -10.150731 -4.143231  0.000000 -0.243109 0.969999  0.028340 0.414408 1 64 1.000000
lowpoly_metal
0  -2.963359 -10.366911 -4.643489  -1.000000 0.000006 0.000000  0.028340 0.414408 1 64 1.000000
0  -2.963358 -10.150731 -4.143231  -1.000000 0.000002 0.000000  0.028340 0.414408 1 64 1.000000
0  -2.963358 -10.150730 -4.697670  -1.000000 0.000002 0.000000  0.028340 0.414408 1 64 1.000000
lowpoly_metal
0  -2.848215 -10.450062 -4.543972  -0.000031 -1.000000 0.000002  0.028340 0.414408 1 64 1.000000
0  -2.963360 -10.450058 -4.296929  -0.000027 -1.000000 0.000006  0.028340 0.414408 1 64 1.000000
0  -2.963360 -10.450058 -4.543972  -0.000033 -1.000000 0.000000  0.028340 0.414408 1 64 1.000000
lowpoly_metal
0  -2.848215 -10.450062 -4.543972  -0.000007 -0.767390 -0.641181  0.028340 0.414408 1 64 1.000000
0  -2.963359 -10.366911 -4.643489  -0.000004 -0.767388 -0.641183  0.028340 0.414408 1 64 1.000000
0  -2.848214 -10.366909 -4.643489  0.000013 -0.767379 -0.641193  0.028340 0.414408 1 64 1.000000
lowpoly_metal
0  -2.963360 -10.450058 -4.296929  -0.000007 -0.767395 0.641175  0.028340 0.414408 1 64 1.000000
0  -2.848214 -10.366910 -4.197412  -0.000004 -0.767397 0.641172  0.028340 0.414408 1 64 1.000000
0  -2.963359 -10.366912 -4.197412  0.000013 -0.767411 0.641156  0.028340 0.414408 1 64 1.000000
lowpoly_metal
0  -2.963360 -10.450058 -4.543972  -1.000000 0.000013 0.000000  0.028340 0.414408 1 64 1.000000
0  -2.963359 -10.366912 -4.197412  -1.000000 0.000006 0.000000  0.028340 0.414408 1 64 1.000000
0  -2.963359 -10.366911 -4.643489  -1.000000 0.000006 0.000000  0.028340 0.414408 1 64 1.000000
lowpoly_metal
0  -2.848216 -10.150731 -4.143231  -0.000000 -0.000000 1.000000  0.028340 0.414408 1 64 1.000000
0  -2.963354 -1.659048 -4.143230  -0.000002 0.000001 1.000000  0.028340 0.414408 1 64 1.000000
0  -2.963358 -10.150731 -4.143231  0.000000 -0.000000 1.000000  0.028340 0.414408 1 64 1.000000
lowpoly_metal
0  -2.848213 -0.879819 -4.697670  -0.000000 0.000000 -1.000000  0.028340 0.414408 1 64 1.000000
0  -2.963355 -1.659048 -4.697670  -0.000000 0.000000 -1.000000  0.028340 0.414408 1 64 1.000000
0  -2.963356 -0.879819 -4.697670  0.000000 0.000000 -1.000000  0.028340 0.414408 1 64 1.000000
lowpoly_metal
0  -2.848214 -1.659047 -4.697670  1.000000 -0.000001 -0.000000  0.028340 0.414408 1 64 1.000000
0  -2.848216 -10.150731 -4.143231  1.000000 0.000002 -0.000000  0.028340 0.414408 1 64 1.000000
0  -2.848216 -10.150730 -4.697670  1.000000 0.000003 0.000000  0.028340 0.414408 1 64 1.000000
lowpoly_metal
0  -3.114437 -1.659046 -4.617634  -0.468123 -0.000000 -0.883663  0.028340 0.414408 1 64 1.000000
0  -2.963356 -0.879819 -4.697670  -0.468123 -0.000001 -0.883663  0.028340 0.414408 1 64 1.000000
0  -2.963355 -1.659048 -4.697670  -0.468123 -0.000000 -0.883663  0.028340 0.414408 1 64 1.000000
lowpoly_metal
0  -3.205292 -1.659048 -4.223268  0.000021 -1.000000 -0.000000  0.028340 0.414408 1 64 1.000000
0  -3.114437 -1.659046 -4.617634  0.000000 -1.000000 0.000001  0.028340 0.414408 1 64 1.000000
0  -3.114436 -1.659046 -4.223268  0.000000 -1.000000 -0.000000  0.028340 0.414408 1 64 1.000000
lowpoly_metal
0  -3.114436 -1.659046 -4.223268  0.000000 -1.000000 -0.000000  0.028340 0.414408 1 64 1.000000
0  -2.963355 -1.659048 -4.697670  -0.000016 -1.000000 0.000001  0.028340 0.414408 1 64 1.000000
0  -2.963354 -1.659048 -4.143230  -0.000016 -1.000000 -0.000001  0.028340 0.414408 1 64 1.000000
lowpoly_metal
0  -3.114437 -0.879817 -4.223268  -0.468120 0.000001 0.883665  0.028340 0.414408 1 64 1.000000
0  -2.963354 -1.659048 -4.143230  -0.468129 0.000000 0.883660  0.028340 0.414408 1 64 1.000000
0  -2.963355 -0.879819 -4.143232  -0.468118 0.000001 0.883666  0.028340 0.414408 1 64 1.000000
lowpoly_metal
0  -2.963356 -0.879819 -4.697670  0.000004 1.000000 -0.000000  0.028340 0.414408 1 64 1.000000
0  -3.114437 -0.879817 -4.223268  0.000002 1.000000 0.000000  0.028340 0.414408 1 64 1.000000
0  -2.963355 -0.879819 -4.143232  0.000004 1.000000 -0.000000  0.028340 0.414408 1 64 1.000000
lowpoly_metal
0  -3.205292 -0.879818 -4.223268  0.000002 -0.000001 1.000000  0.028340 0.414408 1 64 1.000000
0  -3.339514 -1.572363 -4.223268  0.000001 -0.000000 1.000000  0.028340 0.414408 1 64 1.000000
0  -3.205292 -1.659048 -4.223268  -0.000001 0.000000 1.000000  0.028340 0.414408 1 64 1.000000
lowpoly_metal
0  -3.205292 -1.659048 -4.617634  -0.000000 0.000000 -1.000000  0.028340 0.414408 1 64 1.000000
0  -3.114437 -0.879817 -4.617634  -0.000002 0.000000 -1.000000  0.028340 0.414408 1 64 1.000000
0  -3.114437 -1.659046 -4.617634  0.000000 0.000000 -1.000000  0.028340 0.414408 1 64 1.000000
lowpoly_metal
0  -3.205292 -0.879818 -4.223268  0.000002 -0.000001 1.000000  0.028340 0.414408 1 64 1.000000
0  -3.114436 -1.659046 -4.223268  -0.000001 0.000000 1.000000  0.028340 0.414408 1 64 1.000000
0  -3.114437 -0.879817 -4.223268  0.000000 0.000000 1.000000  0.028340 0.414408 1 64 1.000000
lowpoly_metal
0  -3.114437 -0.879817 -4.617634  0.000002 1.000000 0.000000  0.028340 0.414408 1 64 1.000000
0  -3.205292 -0.879818 -4.223268  -0.000016 1.000000 0.000000  0.028340 0.414408 1 64 1.000000
0  -3.114437 -0.879817 -4.223268  0.000002 1.000000 0.000000  0.028340 0.414408 1 64 1.000000
lowpoly_metal
0  -3.339514 -1.572363 -4.617634  -1.000000 0.000001 0.000000  0.028340 0.414408 1 64 1.000000
0  -3.339513 -0.793133 -4.223267  -1.000000 0.000001 0.000000  0.028340 0.414408 1 64 1.000000
0  -3.339513 -0.793133 -4.617633  -1.000000 0.000002 0.000001  0.028340 0.414408 1 64 1.000000
lowpoly_metal
0  -3.339513 -0.793133 -4.617633  0.542528 0.840038 -0.000000  0.028340 0.414408 1 64 1.000000
0  -3.205292 -0.879818 -4.223268  0.542528 0.840038 -0.000000  0.028340 0.414408 1 64 1.000000
0  -3.205292 -0.879818 -4.617634  0.542529 0.840037 -0.000000  0.028340 0.414408 1 64 1.000000
lowpoly_metal
0  -3.339514 -1.572363 -4.223268  -0.542520 -0.840043 0.000000  0.028340 0.414408 1 64 1.000000
0  -3.205292 -1.659048 -4.617634  -0.542520 -0.840043 0.000000  0.028340 0.414408 1 64 1.000000
0  -3.205292 -1.659048 -4.223268  -0.542520 -0.840043 0.000000  0.028340 0.414408 1 64 1.000000
lowpoly_metal
0  -3.339514 -1.572363 -4.617634  -0.000001 0.000000 -1.000000  0.028340 0.414408 1 64 1.000000
0  -3.205292 -0.879818 -4.617634  -0.000005 0.000001 -1.000000  0.028340 0.414408 1 64 1.000000
0  -3.205292 -1.659048 -4.617634  -0.000000 0.000000 -1.000000  0.028340 0.414408 1 64 1.000000
lowpoly_plastic
0  -3.665095 -0.784229 -4.716140  0.000000 1.000000 0.000000  0.005518 0.736972 1 64 1.000000
0  -3.293486 -0.784229 -5.322077  0.000001 1.000000 0.000000  0.005518 0.736972 1 64 1.000000
0  -3.665095 -0.784229 -5.322077  0.000001 1.000000 0.000001  0.005518 0.736972 1 64 1.000000
lowpoly_plastic
0  -3.293486 -0.784229 -4.716140  1.000000 -0.000002 -0.000000  0.005518 0.736972 1 64 1.000000
0  -3.293487 -1.390163 -5.322078  1.000000 -0.000001 -0.000001  0.005518 0.736972 1 64 1.000000
0  -3.293486 -0.784229 -5.322077  1.000000 -0.000002 -0.000001  0.005518 0.736972 1 64 1.000000
lowpoly_plastic
0  -3.293487 -1.390163 -4.716141  -0.000003 -1.000000 -0.000001  0.005518 0.736972 1 64 1.000000
0  -3.665094 -1.390162 -5.322078  -0.000003 -1.000000 -0.000000  0.005518 0.736972 1 64 1.000000
0  -3.293487 -1.390163 -5.322078  -0.000003 -1.000000 0.000000  0.005518 0.736972 1 64 1.000000
lowpoly_plastic
0  -3.665093 -1.390162 -4.716141  -1.000000 -0.000002 0.000000  0.005518 0.736972 1 64 1.000000
0  -3.665095 -0.784229 -5.322077  -1.000000 -0.000002 -0.000000  0.005518 0.736972 1 64 1.000000
0  -3.665094 -1.390162 -5.322078  -1.000000 -0.000002 -0.000000  0.005518 0.736972 1 64 1.000000
lowpoly_plastic
0  -3.293486 -0.784229 -5.322077  1.000000 -0.000002 -0.000001  0.005518 0.736972 1 64 1.000000
0  -3.293488 -0.851369 -6.150221  1.000000 -0.000012 -0.000001  0.005518 0.736972 1 64 1.000000
0  -3.293486 -0.784229 -6.150221  1.000000 -0.000017 -0.000000  0.005518 0.736972 1 64 1.000000
lowpoly_plastic
0  -3.293487 -1.390163 -4.716141  -0.000001 -0.000001 1.000000  0.005518 0.736972 1 64 1.000000
0  -3.665095 -0.784229 -4.716140  -0.000001 -0.000001 1.000000  0.005518 0.736972 1 64 1.000000
0  -3.665093 -1.390162 -4.716141  -0.000002 -0.000001 1.000000  0.005518 0.736972 1 64 1.000000
lowpoly_plastic
0  -3.293488 -0.851369 -6.150221  0.000001 0.000000 -1.000000  0.005518 0.736972 1 64 1.000000
0  -3.665092 -0.784227 -6.150221  0.000000 0.000000 -1.000000  0.005518 0.736972 1 64 1.000000
0  -3.293486 -0.784229 -6.150221  0.000001 0.000000 -1.000000  0.005518 0.736972 1 64 1.000000
lowpoly_plastic
0  -3.665095 -0.784229 -5.322077  0.000001 1.000000 0.000001  0.005518 0.736972 1 64 1.000000
0  -3.293486 -0.784229 -6.150221  0.000004 1.000000 0.000002  0.005518 0.736972 1 64 1.000000
0  -3.665092 -0.784227 -6.150221  0.000005 1.000000 0.000002  0.005518 0.736972 1 64 1.000000
lowpoly_plastic
0  -3.665094 -1.390162 -5.322078  -0.000002 -0.838212 -0.545344  0.005518 0.736972 1 64 1.000000
0  -3.293488 -0.851369 -6.150221  0.000001 -0.838212 -0.545344  0.005518 0.736972 1 64 1.000000
0  -3.293487 -1.390163 -5.322078  -0.000003 -0.838212 -0.545345  0.005518 0.736972 1 64 1.000000
lowpoly_plastic
0  -3.665095 -0.784229 -5.322077  -1.000000 -0.000002 -0.000000  0.005518 0.736972 1 64 1.000000
0  -3.665094 -0.851369 -6.150221  -1.000000 0.000011 -0.000002  0.005518 0.736972 1 64 1.000000
0  -3.665094 -1.390162 -5.322078  -1.000000 -0.000002 -0.000000  0.005518 0.736972 1 64 1.000000
lowpoly_plastic
0  -3.935179 -0.348025 -6.237995  -1.000000 0.000005 -0.000001  0.005204 0.735637 1 64 1.000000
0  -3.935179 -0.646861 -7.674775  -1.000000 0.000006 -0.000001  0.005204 0.735637 1 64 1.000000
0  -3.935182 -0.926236 -6.237995  -1.000000 0.000005 -0.000001  0.005204 0.735637 1 64 1.000000
lowpoly_plastic
0  -3.479291 -0.926240 -3.836868  -0.000000 -1.000000 0.000001  0.005204 0.735637 1 64 1.000000
0  -4.063711 -0.926235 -5.763107  -0.000007 -1.000000 -0.000000  0.005204 0.735637 1 64 1.000000
0  -3.479292 -0.926239 -6.237995  -0.000001 -1.000000 -0.000000  0.005204 0.735637 1 64 1.000000
lowpoly_plastic
0  -3.479293 -0.646859 -7.674775  -0.000001 0.000000 -1.000000  0.005204 0.735637 1 64 1.000000
0  -3.935177 -0.348028 -7.674775  -0.000001 0.000000 -1.000000  0.005204 0.735637 1 64 1.000000
0  -3.479290 -0.348026 -7.674775  -0.000001 0.000000 -1.000000  0.005204 0.735637 1 64 1.000000
lowpoly_plastic
0  -3.935182 -0.926236 -6.237995  -0.000005 -0.981615 -0.190874  0.005204 0.735637 1 64 1.000000
0  -3.479293 -0.646859 -7.674775  0.000003 -0.981615 -0.190873  0.005204 0.735637 1 64 1.000000
0  -3.479292 -0.926239 -6.237995  -0.000001 -0.981615 -0.190874  0.005204 0.735637 1 64 1.000000
lowpoly_plastic
0  -4.063713 -0.926237 -4.173271  -1.000000 0.000005 -0.000000  0.005204 0.735637 1 64 1.000000
0  -4.063711 -0.348024 -5.763108  -1.000000 0.000002 -0.000001  0.005204 0.735637 1 64 1.000000
0  -4.063711 -0.926235 -5.763107  -1.000000 0.000000 -0.000001  0.005204 0.735637 1 64 1.000000
lowpoly_plastic
0  -3.479290 -0.348027 -3.836868  -0.231924 0.000000 0.972734  0.005204 0.735637 1 64 1.000000
0  -3.892540 -0.926237 -3.935397  -0.231924 0.000000 0.972734  0.005204 0.735637 1 64 1.000000
0  -3.479291 -0.926240 -3.836868  -0.231925 0.000001 0.972734  0.005204 0.735637 1 64 1.000000
lowpoly_plastic
0  -3.892540 -0.348027 -3.935397  -0.811693 0.000003 0.584084  0.005204 0.735637 1 64 1.000000
0  -4.063713 -0.926237 -4.173271  -0.811691 0.000001 0.584087  0.005204 0.735637 1 64 1.000000
0  -3.892540 -0.926237 -3.935397  -0.811690 0.000000 0.584089  0.005204 0.735637 1 64 1.000000
lowpoly_plastic
0  -3.935182 -0.926236 -6.237995  -0.965270 0.000002 -0.261253  0.005204 0.735637 1 64 1.000000
0  -4.063711 -0.348024 -5.763108  -0.965270 0.000002 -0.261254  0.005204 0.735637 1 64 1.000000
0  -3.935179 -0.348025 -6.237995  -0.965269 0.000005 -0.261257  0.005204 0.735637 1 64 1.000000
lowpoly_plastic
0  -3.023406 -0.646858 -7.674775  1.000000 -0.000009 0.000001  0.005204 0.735637 1 64 1.000000
0  -3.023405 -0.348027 -6.237995  1.000000 -0.000001 0.000000  0.005204 0.735637 1 64 1.000000
0  -3.023405 -0.926237 -6.237996  1.000000 -0.000000 -0.000000  0.005204 0.735637 1 64 1.000000
lowpoly_plastic
0  -3.479292 -0.926239 -6.237995  -0.000001 -1.000000 -0.000000  0.005204 0.735637 1 64 1.000000
0  -2.894874 -0.926236 -5.763108  0.000005 -1.000000 -0.000000  0.005204 0.735637 1 64 1.000000
0  -3.479291 -0.926240 -3.836868  -0.000000 -1.000000 0.000001  0.005204 0.735637 1 64 1.000000
lowpoly_plastic
0  -3.023402 -0.348025 -7.674775  -0.000001 0.000000 -1.000000  0.005204 0.735637 1 64 1.000000
0  -3.479293 -0.646859 -7.674775  -0.000001 0.000000 -1.000000  0.005204 0.735637 1 64 1.000000
0  -3.479290 -0.348026 -7.674775  -0.000001 0.000000 -1.000000  0.005204 0.735637 1 64 1.000000
lowpoly_plastic
0  -3.479293 -0.646859 -7.674775  0.000003 -0.981615 -0.190873  0.005204 0.735637 1 64 1.000000
0  -3.023405 -0.926237 -6.237996  0.000005 -0.981615 -0.190874  0.005204 0.735637 1 64 1.000000
0  -3.479292 -0.926239 -6.237995  -0.000001 -0.981615 -0.190874  0.005204 0.735637 1 64 1.000000
lowpoly_plastic
0  -2.894874 -0.926236 -5.763108  1.000000 -0.000001 -0.000000  0.005204 0.735637 1 64 1.000000
0  -2.894873 -0.348027 -4.173271  1.000000 -0.000001 -0.000000  0.005204 0.735637 1 64 1.000000
0  -2.894874 -0.926237 -4.173272  1.000000 -0.000001 -0.000000  0.005204 0.735637 1 64 1.000000
lowpoly_plastic
0  -3.066046 -0.926238 -3.935398  0.231928 -0.000001 0.972733  0.005204 0.735637 1 64 1.000000
0  -3.479290 -0.348027 -3.836868  0.231928 -0.000001 0.972733  0.005204 0.735637 1 64 1.000000
0  -3.479291 -0.926240 -3.836868  0.231928 -0.000001 0.972733  0.005204 0.735637 1 64 1.000000
lowpoly_plastic
0  -2.894874 -0.926237 -4.173272  0.811691 -0.000001 0.584088  0.005204 0.735637 1 64 1.000000
0  -3.066046 -0.348026 -3.935397  0.811690 -0.000002 0.584088  0.005204 0.735637 1 64 1.000000
0  -3.066046 -0.926238 -3.935398  0.811691 -0.000000 0.584087  0.005204 0.735637 1 64 1.000000
lowpoly_plastic
0  -3.023405 -0.926237 -6.237996  0.965269 0.000000 -0.261256  0.005204 0.735637 1 64 1.000000
0  -2.894873 -0.348027 -5.763107  0.965269 0.000000 -0.261257  0.005204 0.735637 1 64 1.000000
0  -2.894874 -0.926236 -5.763108  0.965270 -0.000000 -0.261256  0.005204 0.735637 1 64 1.000000
lowpoly_plastic
0  -2.913694 -0.875233 -4.440368  0.923878 0.000002 0.382687  0.005518 0.736972 1 64 1.000000
0  -3.079353 -1.623287 -4.040431  0.923878 0.000002 0.382686  0.005518 0.736972 1 64 1.000000
0  -2.913692 -1.623289 -4.440368  0.923879 0.000001 0.382685  0.005518 0.736972 1 64 1.000000
lowpoly_plastic
0  -3.079355 -0.875237 -4.040430  0.382685 -0.000000 0.923879  0.005518 0.736972 1 64 1.000000
0  -3.479292 -1.623289 -3.874770  0.382686 -0.000000 0.923878  0.005518 0.736972 1 64 1.000000
0  -3.079353 -1.623287 -4.040431  0.382687 -0.000000 0.923878  0.005518 0.736972 1 64 1.000000
lowpoly_plastic
0  -3.479293 -0.875233 -3.874769  -0.382686 -0.000001 0.923878  0.005518 0.736972 1 64 1.000000
0  -3.879229 -1.623293 -4.040431  -0.382687 -0.000001 0.923878  0.005518 0.736972 1 64 1.000000
0  -3.479292 -1.623289 -3.874770  -0.382687 -0.000001 0.923878  0.005518 0.736972 1 64 1.000000
lowpoly_plastic
0  -3.879231 -0.875236 -4.040431  -0.923879 -0.000002 0.382684  0.005518 0.736972 1 64 1.000000
0  -4.044889 -1.623290 -4.440369  -0.923879 -0.000002 0.382684  0.005518 0.736972 1 64 1.000000
0  -3.879229 -1.623293 -4.040431  -0.923880 -0.000001 0.382683  0.005518 0.736972 1 64 1.000000
lowpoly_plastic
0  -4.044891 -0.875233 -4.440369  -0.923880 -0.000001 -0.382683  0.005518 0.736972 1 64 1.000000
0  -3.879230 -1.623293 -4.840308  -0.923880 -0.000002 -0.382683  0.005518 0.736972 1 64 1.000000
0  -4.044889 -1.623290 -4.440369  -0.923880 -0.000002 -0.382683  0.005518 0.736972 1 64 1.000000
lowpoly_plastic
0  -3.879231 -0.875236 -4.840307  -0.382685 0.000000 -0.923879  0.005518 0.736972 1 64 1.000000
0  -3.479292 -1.623289 -5.005968  -0.382686 0.000000 -0.923879  0.005518 0.736972 1 64 1.000000
0  -3.879230 -1.623293 -4.840308  -0.382687 0.000000 -0.923878  0.005518 0.736972 1 64 1.000000
lowpoly_plastic
0  -3.479294 -0.875232 -5.005967  0.000000 1.000000 -0.000004  0.005518 0.736972 1 64 1.000000
0  -4.044891 -0.875233 -4.440369  -0.000006 1.000000 0.000000  0.005518 0.736972 1 64 1.000000
0  -3.479293 -0.875233 -3.874769  0.000000 1.000000 0.000005  0.005518 0.736972 1 64 1.000000
lowpoly_plastic
0  -3.479294 -0.875232 -5.005967  0.382683 0.000001 -0.923880  0.005518 0.736972 1 64 1.000000
0  -3.079353 -1.623287 -4.840308  0.382683 0.000002 -0.923880  0.005518 0.736972 1 64 1.000000
0  -3.479292 -1.623289 -5.005968  0.382683 0.000002 -0.923880  0.005518 0.736972 1 64 1.000000
lowpoly_plastic
0  -3.079355 -0.875236 -4.840308  0.923879 0.000002 -0.382684  0.005518 0.736972 1 64 1.000000
0  -2.913692 -1.623289 -4.440368  0.923879 0.000002 -0.382684  0.005518 0.736972 1 64 1.000000
0  -3.079353 -1.623287 -4.840308  0.923880 0.000002 -0.382684  0.005518 0.736972 1 64 1.000000
lowpoly_plastic
0  -3.479292 -1.623289 -3.874770  0.000005 -1.000000 -0.000007  0.005518 0.736972 1 64 1.000000
0  -3.257863 -1.623286 -4.218938  -0.000008 -1.000000 0.000007  0.005518 0.736972 1 64 1.000000
0  -3.079353 -1.623287 -4.040431  -0.000001 -1.000000 0.000004  0.005518 0.736972 1 64 1.000000
lowpoly_plastic
0  -3.479292 -1.623289 -4.127219  0.382682 0.000002 -0.923880  0.005518 0.736972 1 64 1.000000
0  -3.700723 -1.409876 -4.218938  0.382682 0.000002 -0.923880  0.005518 0.736972 1 64 1.000000
0  -3.479294 -1.409873 -4.127219  0.382684 0.000003 -0.923879  0.005518 0.736972 1 64 1.000000
lowpoly_plastic
0  -3.879230 -1.623293 -4.840308  0.000019 -1.000000 0.000015  0.005518 0.736972 1 64 1.000000
0  -3.792441 -1.623287 -4.440368  0.000015 -1.000000 0.000005  0.005518 0.736972 1 64 1.000000
0  -4.044889 -1.623290 -4.440369  0.000015 -1.000000 0.000002  0.005518 0.736972 1 64 1.000000
lowpoly_plastic
0  -3.079353 -1.623287 -4.840308  -0.000001 -1.000000 -0.000004  0.005518 0.736972 1 64 1.000000
0  -3.166141 -1.623292 -4.440368  0.000001 -1.000000 0.000000  0.005518 0.736972 1 64 1.000000
0  -3.257864 -1.623286 -4.661799  -0.000008 -1.000000 -0.000007  0.005518 0.736972 1 64 1.000000
lowpoly_plastic
0  -3.079353 -1.623287 -4.040431  -0.000001 -1.000000 0.000004  0.005518 0.736972 1 64 1.000000
0  -3.166141 -1.623292 -4.440368  0.000001 -1.000000 0.000000  0.005518 0.736972 1 64 1.000000
0  -2.913692 -1.623289 -4.440368  0.000012 -1.000000 0.000000  0.005518 0.736972 1 64 1.000000
lowpoly_plastic
0  -3.479292 -1.623289 -3.874770  0.000005 -1.000000 -0.000007  0.005518 0.736972 1 64 1.000000
0  -3.700723 -1.623286 -4.218938  0.000013 -1.000000 -0.000012  0.005518 0.736972 1 64 1.000000
0  -3.479292 -1.623289 -4.127219  -0.000001 -1.000000 0.000000  0.005518 0.736972 1 64 1.000000
lowpoly_plastic
0  -3.479292 -1.623289 -5.005968  0.000005 -1.000000 0.000007  0.005518 0.736972 1 64 1.000000
0  -3.700723 -1.623286 -4.661799  0.000018 -1.000000 0.000011  0.005518 0.736972 1 64 1.000000
0  -3.879230 -1.623293 -4.840308  0.000019 -1.000000 0.000015  0.005518 0.736972 1 64 1.000000
lowpoly_plastic
0  -4.044889 -1.623290 -4.440369  0.000015 -1.000000 0.000002  0.005518 0.736972 1 64 1.000000
0  -3.700723 -1.623286 -4.218938  0.000013 -1.000000 -0.000012  0.005518 0.736972 1 64 1.000000
0  -3.879229 -1.623293 -4.040431  0.000019 -1.000000 -0.000018  0.005518 0.736972 1 64 1.000000
lowpoly_plastic
0  -3.479292 -1.623289 -5.005968  0.000005 -1.000000 0.000007  0.005518 0.736972 1 64 1.000000
0  -3.257864 -1.623286 -4.661799  -0.000008 -1.000000 -0.000007  0.005518 0.736972 1 64 1.000000
0  -3.479292 -1.623289 -4.753519  -0.000001 -1.000000 0.000000  0.005518 0.736972 1 64 1.000000
lowpoly_plastic
0  -3.700723 -1.409876 -4.218938  0.000008 -1.000000 0.000002  0.005518 0.736972 1 64 1.000000
0  -3.479294 -1.409873 -4.753519  0.000002 -1.000000 -0.000004  0.005518 0.736972 1 64 1.000000
0  -3.257860 -1.409874 -4.661799  -0.000001 -1.000000 -0.000002  0.005518 0.736972 1 64 1.000000
lowpoly_plastic
0  -3.257863 -1.623286 -4.218938  -0.923878 0.000005 -0.382687  0.005518 0.736972 1 64 1.000000
0  -3.166142 -1.409875 -4.440368  -0.923878 0.000004 -0.382688  0.005518 0.736972 1 64 1.000000
0  -3.166141 -1.623292 -4.440368  -0.923876 -0.000002 -0.382693  0.005518 0.736972 1 64 1.000000
lowpoly_plastic
0  -3.166141 -1.623292 -4.440368  -0.923879 0.000004 0.382684  0.005518 0.736972 1 64 1.000000
0  -3.257860 -1.409874 -4.661799  -0.923879 0.000005 0.382685  0.005518 0.736972 1 64 1.000000
0  -3.257864 -1.623286 -4.661799  -0.923876 0.000012 0.382691  0.005518 0.736972 1 64 1.000000
lowpoly_plastic
0  -3.479292 -1.623289 -4.753519  0.382682 0.000003 0.923880  0.005518 0.736972 1 64 1.000000
0  -3.700723 -1.409876 -4.661799  0.382682 0.000002 0.923880  0.005518 0.736972 1 64 1.000000
0  -3.700723 -1.623286 -4.661799  0.382679 0.000000 0.923881  0.005518 0.736972 1 64 1.000000
lowpoly_plastic
0  -3.700723 -1.623286 -4.218938  0.923882 -0.000002 -0.382678  0.005518 0.736972 1 64 1.000000
0  -3.792441 -1.409877 -4.440369  0.923882 -0.000003 -0.382678  0.005518 0.736972 1 64 1.000000
0  -3.700723 -1.409876 -4.218938  0.923883 0.000000 -0.382676  0.005518 0.736972 1 64 1.000000
lowpoly_plastic
0  -3.257863 -1.623286 -4.218938  -0.382679 0.000000 -0.923882  0.005518 0.736972 1 64 1.000000
0  -3.479294 -1.409873 -4.127219  -0.382679 -0.000000 -0.923881  0.005518 0.736972 1 64 1.000000
0  -3.257860 -1.409874 -4.218938  -0.382674 0.000006 -0.923883  0.005518 0.736972 1 64 1.000000
lowpoly_plastic
0  -3.257864 -1.623286 -4.661799  -0.382681 0.000001 0.923880  0.005518 0.736972 1 64 1.000000
0  -3.479294 -1.409873 -4.753519  -0.382682 0.000000 0.923880  0.005518 0.736972 1 64 1.000000
0  -3.479292 -1.623289 -4.753519  -0.382686 -0.000005 0.923878  0.005518 0.736972 1 64 1.000000
lowpoly_plastic
0  -3.700723 -1.623286 -4.661799  0.923882 0.000000 0.382677  0.005518 0.736972 1 64 1.000000
0  -3.792441 -1.409877 -4.440369  0.923882 0.000000 0.382677  0.005518 0.736972 1 64 1.000000
0  -3.792441 -1.623287 -4.440368  0.923883 0.000000 0.382676  0.005518 0.736972 1 64 1.000000
lowpoly_plastic
0  -3.935179 -0.348025 -6.237995  -0.723043 0.690803 0.000000  0.005204 0.735637 1 64 1.000000
0  -3.845112 -0.253754 -6.168358  -0.723042 0.690804 0.000000  0.005204 0.735637 1 64 1.000000
0  -3.845112 -0.253754 -7.472151  -0.723061 0.690784 -0.000003  0.005204 0.735637 1 64 1.000000
lowpoly_plastic
0  -4.063711 -0.348024 -5.763108  -0.678863 0.734264 0.000000  0.005204 0.735637 1 64 1.000000
0  -4.063710 -0.348024 -4.173271  -0.678860 0.734268 0.000000  0.005204 0.735637 1 64 1.000000
0  -3.961747 -0.253755 -4.294747  -0.678860 0.734268 0.000000  0.005204 0.735637 1 64 1.000000
lowpoly_plastic
0  -3.845112 -0.253754 -6.168358  0.000009 1.000000 0.000002  0.004465 0.740067 1 64 1.000000
0  -3.479289 -0.253757 -6.168358  0.000003 1.000000 -0.000000  0.004465 0.740067 1 64 1.000000
0  -3.479289 -0.253757 -7.472151  0.000001 1.000000 0.000001  0.004465 0.740067 1 64 1.000000
lowpoly_plastic
0  -3.479289 -0.253757 -6.168358  0.000003 1.000000 -0.000000  0.004465 0.740067 1 64 1.000000
0  -3.845112 -0.253754 -6.168358  0.000009 1.000000 0.000002  0.004465 0.740067 1 64 1.000000
0  -3.961748 -0.253755 -5.737429  0.000004 1.000000 -0.000001  0.004465 0.740067 1 64 1.000000
lowpoly_plastic
0  -3.961748 -0.253755 -5.737429  0.000004 1.000000 -0.000001  0.004465 0.740067 1 64 1.000000
0  -3.961747 -0.253755 -4.294747  -0.000008 1.000000 0.000005  0.004465 0.740067 1 64 1.000000
0  -3.479292 -0.253753 -3.989480  -0.000001 1.000000 0.000002  0.004465 0.740067 1 64 1.000000
lowpoly_plastic
0  -3.961747 -0.253755 -4.294747  -0.000008 1.000000 0.000005  0.004465 0.740067 1 64 1.000000
0  -3.806416 -0.253758 -4.078892  -0.000027 1.000000 0.000035  0.004465 0.740067 1 64 1.000000
0  -3.479292 -0.253753 -3.989480  -0.000001 1.000000 0.000002  0.004465 0.740067 1 64 1.000000
lowpoly_plastic
0  -4.063711 -0.348024 -5.763108  -0.644412 0.744522 -0.174416  0.005204 0.735637 1 64 1.000000
0  -3.961748 -0.253755 -5.737429  -0.644411 0.744522 -0.174416  0.005204 0.735637 1 64 1.000000
0  -3.845112 -0.253754 -6.168358  -0.644413 0.744520 -0.174416  0.005204 0.735637 1 64 1.000000
lowpoly_plastic
0  -4.063710 -0.348024 -4.173271  -0.424329 0.852467 0.305360  0.005204 0.735637 1 64 1.000000
0  -3.892540 -0.348027 -3.935397  -0.424328 0.852472 0.305349  0.005204 0.735637 1 64 1.000000
0  -3.806416 -0.253758 -4.078892  -0.424329 0.852469 0.305355  0.005204 0.735637 1 64 1.000000
lowpoly_plastic
0  -3.479290 -0.348026 -7.674775  -0.000002 0.906676 -0.421828  0.005204 0.735637 1 64 1.000000
0  -3.935177 -0.348028 -7.674775  -0.000006 0.906669 -0.421843  0.005204 0.735637 1 64 1.000000
0  -3.845112 -0.253754 -7.472151  -0.000002 0.906672 -0.421837  0.005204 0.735637 1 64 1.000000
lowpoly_plastic
0  -3.479290 -0.348027 -3.836868  -0.142202 0.842117 0.520209  0.005204 0.735637 1 64 1.000000
0  -3.479292 -0.253753 -3.989480  -0.142202 0.842117 0.520209  0.005204 0.735637 1 64 1.000000
0  -3.806416 -0.253758 -4.078892  -0.142202 0.842117 0.520209  0.005204 0.735637 1 64 1.000000
lowpoly_plastic
0  -3.113470 -0.253754 -7.472152  0.723042 0.690804 0.000002  0.005204 0.735637 1 64 1.000000
0  -3.113472 -0.253757 -6.168358  0.723040 0.690806 0.000003  0.005204 0.735637 1 64 1.000000
0  -3.023405 -0.348027 -6.237995  0.723040 0.690806 0.000003  0.005204 0.735637 1 64 1.000000
lowpoly_plastic
0  -2.894873 -0.348027 -5.763107  0.678867 0.734261 0.000000  0.005204 0.735637 1 64 1.000000
0  -2.996836 -0.253757 -5.737428  0.678867 0.734261 0.000000  0.005204 0.735637 1 64 1.000000
0  -2.996835 -0.253757 -4.294747  0.678865 0.734263 0.000000  0.005204 0.735637 1 64 1.000000
lowpoly_plastic
0  -3.113472 -0.253757 -6.168358  -0.000002 1.000000 0.000001  0.004465 0.740067 1 64 1.000000
0  -3.113470 -0.253754 -7.472152  -0.000008 1.000000 0.000002  0.004465 0.740067 1 64 1.000000
0  -3.479289 -0.253757 -7.472151  0.000001 1.000000 0.000001  0.004465 0.740067 1 64 1.000000
lowpoly_plastic
0  -2.996836 -0.253757 -5.737428  0.000001 1.000000 -0.000001  0.004465 0.740067 1 64 1.000000
0  -3.113472 -0.253757 -6.168358  -0.000002 1.000000 0.000001  0.004465 0.740067 1 64 1.000000
0  -3.479289 -0.253757 -6.168358  0.000003 1.000000 -0.000000  0.004465 0.740067 1 64 1.000000
lowpoly_plastic
0  -2.996836 -0.253757 -5.737428  0.000001 1.000000 -0.000001  0.004465 0.740067 1 64 1.000000
0  -3.479289 -0.253757 -6.168358  0.000003 1.000000 -0.000000  0.004465 0.740067 1 64 1.000000
0  -3.479292 -0.253753 -3.989480  -0.000001 1.000000 0.000002  0.004465 0.740067 1 64 1.000000
lowpoly_plastic
0  -3.152167 -0.253754 -4.078892  0.000002 1.000000 -0.000012  0.004465 0.740067 1 64 1.000000
0  -2.996835 -0.253757 -4.294747  0.000008 1.000000 -0.000002  0.004465 0.740067 1 64 1.000000
0  -3.479292 -0.253753 -3.989480  -0.000001 1.000000 0.000002  0.004465 0.740067 1 64 1.000000
lowpoly_plastic
0  -3.113472 -0.253757 -6.168358  0.644414 0.744519 -0.174416  0.005204 0.735637 1 64 1.000000
0  -2.996836 -0.253757 -5.737428  0.644419 0.744515 -0.174419  0.005204 0.735637 1 64 1.000000
0  -2.894873 -0.348027 -5.763107  0.644418 0.744516 -0.174419  0.005204 0.735637 1 64 1.000000
lowpoly_plastic
0  -2.894873 -0.348027 -4.173271  0.424350 0.852458 0.305356  0.005204 0.735637 1 64 1.000000
0  -2.996835 -0.253757 -4.294747  0.424351 0.852458 0.305356  0.005204 0.735637 1 64 1.000000
0  -3.152167 -0.253754 -4.078892  0.424349 0.852458 0.305356  0.005204 0.735637 1 64 1.000000
lowpoly_plastic
0  -3.479290 -0.348026 -7.674775  -0.000002 0.906676 -0.421828  0.005204 0.735637 1 64 1.000000
0  -3.479289 -0.253757 -7.472151  -0.000001 0.906679 -0.421822  0.005204 0.735637 1 64 1.000000
0  -3.113470 -0.253754 -7.472152  -0.000003 0.906675 -0.421830  0.005204 0.735637 1 64 1.000000
lowpoly_plastic
0  -3.152167 -0.253754 -4.078892  0.142190 0.842121 0.520206  0.005204 0.735637 1 64 1.000000
0  -3.479292 -0.253753 -3.989480  0.142190 0.842121 0.520206  0.005204 0.735637 1 64 1.000000
0  -3.479290 -0.348027 -3.836868  0.142190 0.842121 0.520206  0.005204 0.735637 1 64 1.000000
lowpoly_metal
0  -4.110372 -0.879818 -4.143231  -0.000025 1.000000 -0.000000  0.028340 0.414408 1 64 1.000000
0  -3.995228 -0.879815 -4.143231  -0.000005 1.000000 -0.000000  0.028340 0.414408 1 64 1.000000
0  -3.995229 -0.879815 -4.697670  -0.000005 1.000000 -0.000000  0.028340 0.414408 1 64 1.000000
lowpoly_metal
0  -3.995225 -1.659049 -4.143232  1.000000 -0.000001 -0.000000  0.028340 0.414408 1 64 1.000000
0  -3.995230 -10.150728 -4.143230  1.000000 0.000001 -0.000000  0.028340 0.414408 1 64 1.000000
0  -3.995230 -10.150728 -4.697671  1.000000 0.000000 -0.000000  0.028340 0.414408 1 64 1.000000
lowpoly_metal
0  -4.110375 -10.150730 -4.697671  -1.000000 0.000004 0.000000  0.028340 0.414408 1 64 1.000000
0  -4.110377 -10.366909 -4.643488  -1.000000 -0.000004 0.000000  0.028340 0.414408 1 64 1.000000
0  -4.110377 -10.366909 -4.197411  -1.000000 -0.000001 0.000000  0.028340 0.414408 1 64 1.000000
lowpoly_metal
0  -4.110372 -1.659046 -4.143231  -1.000000 0.000000 0.000000  0.028340 0.414408 1 64 1.000000
0  -4.110372 -0.879818 -4.143231  -1.000000 0.000000 0.000000  0.028340 0.414408 1 64 1.000000
0  -4.110372 -0.879818 -4.697670  -1.000000 0.000000 0.000000  0.028340 0.414408 1 64 1.000000
lowpoly_metal
0  -3.995230 -10.150728 -4.697671  -0.000000 0.000000 -1.000000  0.028340 0.414408 1 64 1.000000
0  -4.110375 -10.150730 -4.697671  0.000000 0.000000 -1.000000  0.028340 0.414408 1 64 1.000000
0  -4.110372 -1.659046 -4.697670  -0.000007 0.000000 -1.000000  0.028340 0.414408 1 64 1.000000
lowpoly_metal
0  -3.995228 -0.879815 -4.143231  0.000001 -0.000000 1.000000  0.028340 0.414408 1 64 1.000000
0  -4.110372 -0.879818 -4.143231  0.000000 0.000000 1.000000  0.028340 0.414408 1 64 1.000000
0  -4.110372 -1.659046 -4.143231  0.000011 -0.000000 1.000000  0.028340 0.414408 1 64 1.000000
lowpoly_metal
0  -4.110377 -10.366909 -4.197411  -1.000000 -0.000001 0.000000  0.028340 0.414408 1 64 1.000000
0  -4.110377 -10.366909 -4.643488  -1.000000 -0.000004 0.000000  0.028340 0.414408 1 64 1.000000
0  -4.110374 -10.450062 -4.543972  -1.000000 -0.000034 0.000000  0.028340 0.414408 1 64 1.000000
lowpoly_metal
0  -4.110375 -10.150730 -4.697671  0.000002 -0.243110 -0.969999  0.028340 0.414408 1 64 1.000000
0  -3.995230 -10.150728 -4.697671  0.000009 -0.243105 -0.970000  0.028340 0.414408 1 64 1.000000
0  -3.995230 -10.366912 -4.643489  -0.000007 -0.243115 -0.969997  0.028340 0.414408 1 64 1.000000
lowpoly_metal
0  -3.995230 -10.150728 -4.143230  0.000002 -0.243113 0.969998  0.028340 0.414408 1 64 1.000000
0  -4.110375 -10.150730 -4.143230  0.000005 -0.243114 0.969998  0.028340 0.414408 1 64 1.000000
0  -4.110377 -10.366909 -4.197411  -0.000001 -0.243111 0.969998  0.028340 0.414408 1 64 1.000000
lowpoly_metal
0  -3.995230 -10.150728 -4.143230  1.000000 0.000001 -0.000000  0.028340 0.414408 1 64 1.000000
0  -3.995229 -10.366913 -4.197412  1.000000 0.000000 -0.000001  0.028340 0.414408 1 64 1.000000
0  -3.995230 -10.366912 -4.643489  1.000000 -0.000000 -0.000000  0.028340 0.414408 1 64 1.000000
lowpoly_metal
0  -3.995230 -10.450058 -4.296929  0.000033 -1.000000 0.000000  0.028340 0.414408 1 64 1.000000
0  -4.110374 -10.450062 -4.296929  0.000033 -1.000000 0.000000  0.028340 0.414408 1 64 1.000000
0  -4.110374 -10.450062 -4.543972  0.000033 -1.000000 0.000000  0.028340 0.414408 1 64 1.000000
lowpoly_metal
0  -4.110377 -10.366909 -4.643488  0.000001 -0.767394 -0.641176  0.028340 0.414408 1 64 1.000000
0  -3.995230 -10.366912 -4.643489  -0.000024 -0.767406 -0.641161  0.028340 0.414408 1 64 1.000000
0  -3.995230 -10.450058 -4.543972  0.000005 -0.767392 -0.641178  0.028340 0.414408 1 64 1.000000
lowpoly_metal
0  -4.110377 -10.366909 -4.197411  -0.000002 -0.767397 0.641172  0.028340 0.414408 1 64 1.000000
0  -4.110374 -10.450062 -4.296929  0.000028 -0.767378 0.641195  0.028340 0.414408 1 64 1.000000
0  -3.995230 -10.450058 -4.296929  0.000002 -0.767394 0.641175  0.028340 0.414408 1 64 1.000000
lowpoly_metal
0  -3.995229 -10.366913 -4.197412  1.000000 0.000000 -0.000001  0.028340 0.414408 1 64 1.000000
0  -3.995230 -10.450058 -4.296929  1.000000 -0.000006 -0.000001  0.028340 0.414408 1 64 1.000000
0  -3.995230 -10.450058 -4.543972  1.000000 -0.000006 -0.000001  0.028340 0.414408 1 64 1.000000
lowpoly_metal
0  -3.995225 -1.659049 -4.143232  0.000012 -0.000001 1.000000  0.028340 0.414408 1 64 1.000000
0  -4.110372 -1.659046 -4.143231  0.000011 -0.000000 1.000000  0.028340 0.414408 1 64 1.000000
0  -4.110375 -10.150730 -4.143230  0.000001 0.000000 1.000000  0.028340 0.414408 1 64 1.000000
lowpoly_metal
0  -3.995225 -1.659049 -4.697670  -0.000007 0.000000 -1.000000  0.028340 0.414408 1 64 1.000000
0  -4.110372 -1.659046 -4.697670  -0.000007 0.000000 -1.000000  0.028340 0.414408 1 64 1.000000
0  -4.110372 -0.879818 -4.697670  0.000001 0.000001 -1.000000  0.028340 0.414408 1 64 1.000000
lowpoly_metal
0  -4.110375 -10.150730 -4.143230  -1.000000 0.000004 0.000000  0.028340 0.414408 1 64 1.000000
0  -4.110372 -1.659046 -4.143231  -1.000000 0.000000 0.000000  0.028340 0.414408 1 64 1.000000
0  -4.110372 -1.659046 -4.697670  -1.000000 0.000000 0.000000  0.028340 0.414408 1 64 1.000000
lowpoly_metal
0  -3.995229 -0.879815 -4.697670  0.468132 0.000002 -0.883658  0.028340 0.414408 1 64 1.000000
0  -3.844149 -0.879819 -4.617633  0.468132 0.000001 -0.883659  0.028340 0.414408 1 64 1.000000
0  -3.844148 -1.659048 -4.617634  0.468135 0.000002 -0.883657  0.028340 0.414408 1 64 1.000000
lowpoly_metal
0  -3.844148 -1.659048 -4.223268  -0.000011 -1.000000 0.000000  0.028340 0.414408 1 64 1.000000
0  -3.844148 -1.659048 -4.617634  -0.000011 -1.000000 -0.000000  0.028340 0.414408 1 64 1.000000
0  -3.753291 -1.659051 -4.617634  -0.000029 -1.000000 -0.000001  0.028340 0.414408 1 64 1.000000
lowpoly_metal
0  -3.995225 -1.659049 -4.143232  0.000003 -1.000000 0.000000  0.028340 0.414408 1 64 1.000000
0  -3.995225 -1.659049 -4.697670  0.000003 -1.000000 0.000000  0.028340 0.414408 1 64 1.000000
0  -3.844148 -1.659048 -4.617634  -0.000011 -1.000000 -0.000000  0.028340 0.414408 1 64 1.000000
lowpoly_metal
0  -3.995225 -1.659049 -4.143232  0.468130 -0.000000 0.883660  0.028340 0.414408 1 64 1.000000
0  -3.844148 -1.659048 -4.223268  0.468130 -0.000000 0.883660  0.028340 0.414408 1 64 1.000000
0  -3.844149 -0.879819 -4.223267  0.468129 0.000001 0.883660  0.028340 0.414408 1 64 1.000000
lowpoly_metal
0  -3.995229 -0.879815 -4.697670  -0.000005 1.000000 -0.000000  0.028340 0.414408 1 64 1.000000
0  -3.995228 -0.879815 -4.143231  -0.000005 1.000000 -0.000000  0.028340 0.414408 1 64 1.000000
0  -3.844149 -0.879819 -4.223267  0.000007 1.000000 -0.000000  0.028340 0.414408 1 64 1.000000
lowpoly_metal
0  -3.753294 -0.879817 -4.223267  -0.000001 -0.000001 1.000000  0.028340 0.414408 1 64 1.000000
0  -3.753291 -1.659051 -4.223268  0.000004 -0.000001 1.000000  0.028340 0.414408 1 64 1.000000
0  -3.619070 -1.572361 -4.223268  0.000000 -0.000001 1.000000  0.028340 0.414408 1 64 1.000000
lowpoly_metal
0  -3.844149 -0.879819 -4.617633  0.000006 0.000001 -1.000000  0.028340 0.414408 1 64 1.000000
0  -3.753294 -0.879817 -4.617633  0.000003 0.000001 -1.000000  0.028340 0.414408 1 64 1.000000
0  -3.753291 -1.659051 -4.617634  -0.000001 0.000001 -1.000000  0.028340 0.414408 1 64 1.000000
lowpoly_metal
0  -3.844148 -1.659048 -4.223268  0.000006 -0.000001 1.000000  0.028340 0.414408 1 64 1.000000
0  -3.753291 -1.659051 -4.223268  0.000004 -0.000001 1.000000  0.028340 0.414408 1 64 1.000000
0  -3.753294 -0.879817 -4.223267  -0.000001 -0.000001 1.000000  0.028340 0.414408 1 64 1.000000
lowpoly_metal
0  -3.844149 -0.879819 -4.223267  0.000007 1.000000 -0.000000  0.028340 0.414408 1 64 1.000000
0  -3.753294 -0.879817 -4.223267  -0.000016 1.000000 0.000000  0.028340 0.414408 1 64 1.000000
0  -3.753294 -0.879817 -4.617633  -0.000016 1.000000 -0.000000  0.028340 0.414408 1 64 1.000000
lowpoly_metal
0  -3.619067 -0.793131 -4.223267  1.000000 -0.000004 -0.000001  0.028340 0.414408 1 64 1.000000
0  -3.619070 -1.572361 -4.223268  1.000000 -0.000004 -0.000001  0.028340 0.414408 1 64 1.000000
0  -3.619070 -1.572361 -4.617634  1.000000 -0.000004 -0.000001  0.028340 0.414408 1 64 1.000000
lowpoly_metal
0  -3.753294 -0.879817 -4.223267  -0.542516 0.840046 0.000000  0.028340 0.414408 1 64 1.000000
0  -3.619067 -0.793131 -4.223267  -0.542516 0.840045 0.000000  0.028340 0.414408 1 64 1.000000
0  -3.619067 -0.793131 -4.617633  -0.542516 0.840046 0.000000  0.028340 0.414408 1 64 1.000000
lowpoly_metal
0  -3.753291 -1.659051 -4.617634  0.542550 -0.840023 -0.000000  0.028340 0.414408 1 64 1.000000
0  -3.619070 -1.572361 -4.617634  0.542550 -0.840023 -0.000000  0.028340 0.414408 1 64 1.000000
0  -3.619070 -1.572361 -4.223268  0.542551 -0.840023 -0.000000  0.028340 0.414408 1 64 1.000000
lowpoly_metal
0  -3.753294 -0.879817 -4.617633  0.000003 0.000001 -1.000000  0.028340 0.414408 1 64 1.000000
0  -3.619067 -0.793131 -4.617633  0.000000 0.000001 -1.000000  0.028340 0.414408 1 64 1.000000
0  -3.619070 -1.572361 -4.617634  -0.000001 0.000001 -1.000000  0.028340 0.414408 1 64 1.000000
lowpoly_metal
0  -2.963356 -0.879819 -4.697670  0.000004 1.000000 -0.000000  0.028340 0.414408 1 64 1.000000
0  -2.963355 -0.879819 -4.143232  0.000004 1.000000 -0.000000  0.028340 0.414408 1 64 1.000000
0  -2.848213 -0.879819 -4.143230  -0.000004 1.000000 -0.000000  0.028340 0.414408 1 64 1.000000
lowpoly_metal
0  -2.963358 -10.150730 -4.697670  -1.000000 0.000002 0.000000  0.028340 0.414408 1 64 1.000000
0  -2.963358 -10.150731 -4.143231  -1.000000 0.000002 0.000000  0.028340 0.414408 1 64 1.000000
0  -2.963354 -1.659048 -4.143230  -1.000000 0.000000 0.000000  0.028340 0.414408 1 64 1.000000
lowpoly_metal
0  -2.848214 -10.366910 -4.197412  1.000000 0.000010 -0.000002  0.028340 0.414408 1 64 1.000000
0  -2.848214 -10.366909 -4.643489  1.000000 0.000004 0.000000  0.028340 0.414408 1 64 1.000000
0  -2.848216 -10.150730 -4.697670  1.000000 0.000003 0.000000  0.028340 0.414408 1 64 1.000000
lowpoly_metal
0  -2.848214 -1.659047 -4.697670  1.000000 -0.000001 -0.000000  0.028340 0.414408 1 64 1.000000
0  -2.848213 -0.879819 -4.697670  1.000000 -0.000002 0.000000  0.028340 0.414408 1 64 1.000000
0  -2.848213 -0.879819 -4.143230  1.000000 -0.000001 -0.000000  0.028340 0.414408 1 64 1.000000
lowpoly_metal
0  -2.848214 -1.659047 -4.697670  -0.000000 0.000000 -1.000000  0.028340 0.414408 1 64 1.000000
0  -2.848216 -10.150730 -4.697670  0.000000 0.000000 -1.000000  0.028340 0.414408 1 64 1.000000
0  -2.963358 -10.150730 -4.697670  0.000000 0.000000 -1.000000  0.028340 0.414408 1 64 1.000000
lowpoly_metal
0  -2.848213 -1.659047 -4.143230  -0.000003 0.000001 1.000000  0.028340 0.414408 1 64 1.000000
0  -2.848213 -0.879819 -4.143230  -0.000017 0.000000 1.000000  0.028340 0.414408 1 64 1.000000
0  -2.963355 -0.879819 -4.143232  -0.000016 0.000000 1.000000  0.028340 0.414408 1 64 1.000000
lowpoly_metal
0  -2.848214 -10.366910 -4.197412  1.000000 0.000010 -0.000002  0.028340 0.414408 1 64 1.000000
0  -2.848212 -10.450061 -4.296929  1.000000 0.000041 -0.000011  0.028340 0.414408 1 64 1.000000
0  -2.848215 -10.450062 -4.543972  1.000000 -0.000003 -0.000001  0.028340 0.414408 1 64 1.000000
lowpoly_metal
0  -2.848214 -10.366909 -4.643489  0.000006 -0.243108 -0.969999  0.028340 0.414408 1 64 1.000000
0  -2.963359 -10.366911 -4.643489  0.000009 -0.243106 -0.970000  0.028340 0.414408 1 64 1.000000
0  -2.963358 -10.150730 -4.697670  0.000003 -0.243109 -0.969999  0.028340 0.414408 1 64 1.000000
lowpoly_metal
0  -2.963359 -10.366912 -4.197412  0.000003 -0.243111 0.969998  0.028340 0.414408 1 64 1.000000
0  -2.848214 -10.366910 -4.197412  0.000005 -0.243112 0.969998  0.028340 0.414408 1 64 1.000000
0  -2.848216 -10.150731 -4.143231  0.000001 -0.243110 0.969999  0.028340 0.414408 1 64 1.000000
lowpoly_metal
0  -2.963359 -10.366911 -4.643489  -1.000000 0.000006 0.000000  0.028340 0.414408 1 64 1.000000
0  -2.963359 -10.366912 -4.197412  -1.000000 0.000006 0.000000  0.028340 0.414408 1 64 1.000000
0  -2.963358 -10.150731 -4.143231  -1.000000 0.000002 0.000000  0.028340 0.414408 1 64 1.000000
lowpoly_metal
0  -2.848215 -10.450062 -4.543972  -0.000031 -1.000000 0.000002  0.028340 0.414408 1 64 1.000000
0  -2.848212 -10.450061 -4.296929  -0.000025 -1.000000 0.000008  0.028340 0.414408 1 64 1.000000
0  -2.963360 -10.450058 -4.296929  -0.000027 -1.000000 0.000006  0.028340 0.414408 1 64 1.000000
lowpoly_metal
0  -2.848215 -10.450062 -4.543972  -0.000007 -0.767390 -0.641181  0.028340 0.414408 1 64 1.000000
0  -2.963360 -10.450058 -4.543972  -0.000024 -0.767399 -0.641170  0.028340 0.414408 1 64 1.000000
0  -2.963359 -10.366911 -4.643489  -0.000004 -0.767388 -0.641183  0.028340 0.414408 1 64 1.000000
lowpoly_metal
0  -2.963360 -10.450058 -4.296929  -0.000007 -0.767395 0.641175  0.028340 0.414408 1 64 1.000000
0  -2.848212 -10.450061 -4.296929  -0.000024 -0.767381 0.641192  0.028340 0.414408 1 64 1.000000
0  -2.848214 -10.366910 -4.197412  -0.000004 -0.767397 0.641172  0.028340 0.414408 1 64 1.000000
lowpoly_metal
0  -2.963360 -10.450058 -4.543972  -1.000000 0.000013 0.000000  0.028340 0.414408 1 64 1.000000
0  -2.963360 -10.450058 -4.296929  -1.000000 0.000012 0.000000  0.028340 0.414408 1 64 1.000000
0  -2.963359 -10.366912 -4.197412  -1.000000 0.000006 0.000000  0.028340 0.414408 1 64 1.000000
lowpoly_metal
0  -2.848216 -10.150731 -4.143231  -0.000000 -0.000000 1.000000  0.028340 0.414408 1 64 1.000000
0  -2.848213 -1.659047 -4.143230  -0.000003 0.000001 1.000000  0.028340 0.414408 1 64 1.000000
0  -2.963354 -1.659048 -4.143230  -0.000002 0.000001 1.000000  0.028340 0.414408 1 64 1.000000
lowpoly_metal
0  -2.848213 -0.879819 -4.697670  -0.000000 0.000000 -1.000000  0.028340 0.414408 1 64 1.000000
0  -2.848214 -1.659047 -4.697670  -0.000000 0.000000 -1.000000  0.028340 0.414408 1 64 1.000000
0  -2.963355 -1.659048 -4.697670  -0.000000 0.000000 -1.000000  0.028340 0.414408 1 64 1.000000
lowpoly_metal
0  -2.848214 -1.659047 -4.697670  1.000000 -0.000001 -0.000000  0.028340 0.414408 1 64 1.000000
0  -2.848213 -1.659047 -4.143230  1.000000 -0.000001 -0.000000  0.028340 0.414408 1 64 1.000000
0  -2.848216 -10.150731 -4.143231  1.000000 0.000002 -0.000000  0.028340 0.414408 1 64 1.000000
lowpoly_metal
0  -3.114437 -1.659046 -4.617634  -0.468123 -0.000000 -0.883663  0.028340 0.414408 1 64 1.000000
0  -3.114437 -0.879817 -4.617634  -0.468123 -0.000001 -0.883664  0.028340 0.414408 1 64 1.000000
0  -2.963356 -0.879819 -4.697670  -0.468123 -0.000001 -0.883663  0.028340 0.414408 1 64 1.000000
lowpoly_metal
0  -3.205292 -1.659048 -4.223268  0.000021 -1.000000 -0.000000  0.028340 0.414408 1 64 1.000000
0  -3.205292 -1.659048 -4.617634  0.000021 -1.000000 0.000000  0.028340 0.414408 1 64 1.000000
0  -3.114437 -1.659046 -4.617634  0.000000 -1.000000 0.000001  0.028340 0.414408 1 64 1.000000
lowpoly_metal
0  -3.114436 -1.659046 -4.223268  0.000000 -1.000000 -0.000000  0.028340 0.414408 1 64 1.000000
0  -3.114437 -1.659046 -4.617634  0.000000 -1.000000 0.000001  0.028340 0.414408 1 64 1.000000
0  -2.963355 -1.659048 -4.697670  -0.000016 -1.000000 0.000001  0.028340 0.414408 1 64 1.000000
lowpoly_metal
0  -3.114437 -0.879817 -4.223268  -0.468120 0.000001 0.883665  0.028340 0.414408 1 64 1.000000
0  -3.114436 -1.659046 -4.223268  -0.468131 -0.000000 0.883659  0.028340 0.414408 1 64 1.000000
0  -2.963354 -1.659048 -4.143230  -0.468129 0.000000 0.883660  0.028340 0.414408 1 64 1.000000
lowpoly_metal
0  -2.963356 -0.879819 -4.697670  0.000004 1.000000 -0.000000  0.028340 0.414408 1 64 1.000000
0  -3.114437 -0.879817 -4.617634  0.000002 1.000000 0.000000  0.028340 0.414408 1 64 1.000000
0  -3.114437 -0.879817 -4.223268  0.000002 1.000000 0.000000  0.028340 0.414408 1 64 1.000000
lowpoly_metal
0  -3.205292 -0.879818 -4.223268  0.000002 -0.000001 1.000000  0.028340 0.414408 1 64 1.000000
0  -3.339513 -0.793133 -4.223267  0.000005 -0.000001 1.000000  0.028340 0.414408 1 64 1.000000
0  -3.339514 -1.572363 -4.223268  0.000001 -0.000000 1.000000  0.028340 0.414408 1 64 1.000000
lowpoly_metal
0  -3.205292 -1.659048 -4.617634  -0.000000 0.000000 -1.000000  0.028340 0.414408 1 64 1.000000
0  -3.205292 -0.879818 -4.617634  -0.000005 0.000001 -1.000000  0.028340 0.414408 1 64 1.000000
0  -3.114437 -0.879817 -4.617634  -0.000002 0.000000 -1.000000  0.028340 0.414408 1 64 1.000000
lowpoly_metal
0  -3.205292 -0.879818 -4.223268  0.000002 -0.000001 1.000000  0.028340 0.414408 1 64 1.000000
0  -3.205292 -1.659048 -4.223268  -0.000001 0.000000 1.000000  0.028340 0.414408 1 64 1.000000
0  -3.114436 -1.659046 -4.223268  -0.000001 0.000000 1.000000  0.028340 0.414408 1 64 1.000000
lowpoly_metal
0  -3.114437 -0.879817 -4.617634  0.000002 1.000000 0.000000  0.028340 0.414408 1 64 1.000000
0  -3.205292 -0.879818 -4.617634  -0.000016 1.000000 0.000000  0.028340 0.414408 1 64 1.000000
0  -3.205292 -0.879818 -4.223268  -0.000016 1.000000 0.000000  0.028340 0.414408 1 64 1.000000
lowpoly_metal
0  -3.339514 -1.572363 -4.617634  -1.000000 0.000001 0.000000  0.028340 0.414408 1 64 1.000000
0  -3.339514 -1.572363 -4.223268  -1.000000 0.000001 0.000000  0.028340 0.414408 1 64 1.000000
0  -3.339513 -0.793133 -4.223267  -1.000000 0.000001 0.000000  0.028340 0.414408 1 64 1.000000
lowpoly_metal
0  -3.339513 -0.793133 -4.617633  0.542528 0.840038 -0.000000  0.028340 0.414408 1 64 1.000000
0  -3.339513 -0.793133 -4.223267  0.542527 0.840038 -0.000000  0.028340 0.414408 1 64 1.000000
0  -3.205292 -0.879818 -4.223268  0.542528 0.840038 -0.000000  0.028340 0.414408 1 64 1.000000
lowpoly_metal
0  -3.339514 -1.572363 -4.223268  -0.542520 -0.840043 0.000000  0.028340 0.414408 1 64 1.000000
0  -3.339514 -1.572363 -4.617634  -0.542520 -0.840043 0.000000  0.028340 0.414408 1 64 1.000000
0  -3.205292 -1.659048 -4.617634  -0.542520 -0.840043 0.000000  0.028340 0.414408 1 64 1.000000
lowpoly_metal
0  -3.339514 -1.572363 -4.617634  -0.000001 0.000000 -1.000000  0.028340 0.414408 1 64 1.000000
0  -3.339513 -0.793133 -4.617633  -0.000007 0.000001 -1.000000  0.028340 0.414408 1 64 1.000000
0  -3.205292 -0.879818 -4.617634  -0.000005 0.000001 -1.000000  0.028340 0.414408 1 64 1.000000
lowpoly_plastic
0  -3.665095 -0.784229 -4.716140  0.000000 1.000000 0.000000  0.005518 0.736972 1 64 1.000000
0  -3.293486 -0.784229 -4.716140  0.000000 1.000000 0.000000  0.005518 0.736972 1 64 1.000000
0  -3.293486 -0.784229 -5.322077  0.000001 1.000000 0.000000  0.005518 0.736972 1 64 1.000000
lowpoly_plastic
0  -3.293486 -0.784229 -4.716140  1.000000 -0.000002 -0.000000  0.005518 0.736972 1 64 1.000000
0  -3.293487 -1.390163 -4.716141  1.000000 -0.000001 -0.000000  0.005518 0.736972 1 64 1.000000
0  -3.293487 -1.390163 -5.322078  1.000000 -0.000001 -0.000001  0.005518 0.736972 1 64 1.000000
lowpoly_plastic
0  -3.293487 -1.390163 -4.716141  -0.000003 -1.000000 -0.000001  0.005518 0.736972 1 64 1.000000
0  -3.665093 -1.390162 -4.716141  -0.000003 -1.000000 -0.000001  0.005518 0.736972 1 64 1.000000
0  -3.665094 -1.390162 -5.322078  -0.000003 -1.000000 -0.000000  0.005518 0.736972 1 64 1.000000
lowpoly_plastic
0  -3.665093 -1.390162 -4.716141  -1.000000 -0.000002 0.000000  0.005518 0.736972 1 64 1.000000
0  -3.665095 -0.784229 -4.716140  -1.000000 -0.000003 0.000000  0.005518 0.736972 1 64 1.000000
0  -3.665095 -0.784229 -5.322077  -1.000000 -0.000002 -0.000000  0.005518 0.736972 1 64 1.000000
lowpoly_plastic
0  -3.293486 -0.784229 -5.322077  1.000000 -0.000002 -0.000001  0.005518 0.736972 1 64 1.000000
0  -3.293487 -1.390163 -5.322078  1.000000 -0.000001 -0.000001  0.005518 0.736972 1 64 1.000000
0  -3.293488 -0.851369 -6.150221  1.000000 -0.000012 -0.000001  0.005518 0.736972 1 64 1.000000
lowpoly_plastic
0  -3.293487 -1.390163 -4.716141  -0.000001 -0.000001 1.000000  0.005518 0.736972 1 64 1.000000
0  -3.293486 -0.784229 -4.716140  0.000000 -0.000001 1.000000  0.005518 0.736972 1 64 1.000000
0  -3.665095 -0.784229 -4.716140  -0.000001 -0.000001 1.000000  0.005518 0.736972 1 64 1.000000
lowpoly_plastic
0  -3.293488 -0.851369 -6.150221  0.000001 0.000000 -1.000000  0.005518 0.736972 1 64 1.000000
0  -3.665094 -0.851369 -6.150221  0.000000 0.000000 -1.000000  0.005518 0.736972 1 64 1.000000
0  -3.665092 -0.784227 -6.150221  0.000000 0.000000 -1.000000  0.005518 0.736972 1 64 1.000000
lowpoly_plastic
0  -3.665095 -0.784229 -5.322077  0.000001 1.000000 0.000001  0.005518 0.736972 1 64 1.000000
0  -3.293486 -0.784229 -5.322077  0.000001 1.000000 0.000000  0.005518 0.736972 1 64 1.000000
0  -3.293486 -0.784229 -6.150221  0.000004 1.000000 0.000002  0.005518 0.736972 1 64 1.000000
lowpoly_plastic
0  -3.665094 -1.390162 -5.322078  -0.000002 -0.838212 -0.545344  0.005518 0.736972 1 64 1.000000
0  -3.665094 -0.851369 -6.150221  0.000001 -0.838212 -0.545344  0.005518 0.736972 1 64 1.000000
0  -3.293488 -0.851369 -6.150221  0.000001 -0.838212 -0.545344  0.005518 0.736972 1 64 1.000000
lowpoly_plastic
0  -3.665095 -0.784229 -5.322077  -1.000000 -0.000002 -0.000000  0.005518 0.736972 1 64 1.000000
0  -3.665092 -0.784227 -6.150221  -1.000000 0.000017 -0.000003  0.005518 0.736972 1 64 1.000000
0  -3.665094 -0.851369 -6.150221  -1.000000 0.000011 -0.000002  0.005518 0.736972 1 64 1.000000
lowpoly_plastic
0  -3.935179 -0.348025 -6.237995  -1.000000 0.000005 -0.000001  0.005204 0.735637 1 64 1.000000
0  -3.935177 -0.348028 -7.674775  -1.000000 0.000007 -0.000001  0.005204 0.735637 1 64 1.000000
0  -3.935179 -0.646861 -7.674775  -1.000000 0.000006 -0.000001  0.005204 0.735637 1 64 1.000000
lowpoly_plastic
0  -3.479291 -0.926240 -3.836868  -0.000000 -1.000000 0.000001  0.005204 0.735637 1 64 1.000000
0  -3.892540 -0.926237 -3.935397  -0.000011 -1.000000 0.000010  0.005204 0.735637 1 64 1.000000
0  -4.063713 -0.926237 -4.173271  -0.000005 -1.000000 0.000001  0.005204 0.735637 1 64 1.000000
lowpoly_plastic
0  -4.063713 -0.926237 -4.173271  -0.000005 -1.000000 0.000001  0.005204 0.735637 1 64 1.000000
0  -4.063711 -0.926235 -5.763107  -0.000007 -1.000000 -0.000000  0.005204 0.735637 1 64 1.000000
0  -3.479291 -0.926240 -3.836868  -0.000000 -1.000000 0.000001  0.005204 0.735637 1 64 1.000000
lowpoly_plastic
0  -3.935182 -0.926236 -6.237995  -0.000007 -1.000000 0.000000  0.005204 0.735637 1 64 1.000000
0  -3.479292 -0.926239 -6.237995  -0.000001 -1.000000 -0.000000  0.005204 0.735637 1 64 1.000000
0  -4.063711 -0.926235 -5.763107  -0.000007 -1.000000 -0.000000  0.005204 0.735637 1 64 1.000000
lowpoly_plastic
0  -3.479293 -0.646859 -7.674775  -0.000001 0.000000 -1.000000  0.005204 0.735637 1 64 1.000000
0  -3.935179 -0.646861 -7.674775  0.000000 0.000000 -1.000000  0.005204 0.735637 1 64 1.000000
0  -3.935177 -0.348028 -7.674775  -0.000001 0.000000 -1.000000  0.005204 0.735637 1 64 1.000000
lowpoly_plastic
0  -3.935182 -0.926236 -6.237995  -0.000005 -0.981615 -0.190874  0.005204 0.735637 1 64 1.000000
0  -3.935179 -0.646861 -7.674775  0.000004 -0.981615 -0.190871  0.005204 0.735637 1 64 1.000000
0  -3.479293 -0.646859 -7.674775  0.000003 -0.981615 -0.190873  0.005204 0.735637 1 64 1.000000
lowpoly_plastic
0  -4.063713 -0.926237 -4.173271  -1.000000 0.000005 -0.000000  0.005204 0.735637 1 64 1.000000
0  -4.063710 -0.348024 -4.173271  -1.000000 0.000006 0.000000  0.005204 0.735637 1 64 1.000000
0  -4.063711 -0.348024 -5.763108  -1.000000 0.000002 -0.000001  0.005204 0.735637 1 64 1.000000
lowpoly_plastic
0  -3.479290 -0.348027 -3.836868  -0.231924 0.000000 0.972734  0.005204 0.735637 1 64 1.000000
0  -3.892540 -0.348027 -3.935397  -0.231924 -0.000000 0.972734  0.005204 0.735637 1 64 1.000000
0  -3.892540 -0.926237 -3.935397  -0.231924 0.000000 0.972734  0.005204 0.735637 1 64 1.000000
lowpoly_plastic
0  -3.892540 -0.348027 -3.935397  -0.811693 0.000003 0.584084  0.005204 0.735637 1 64 1.000000
0  -4.063710 -0.348024 -4.173271  -0.811694 0.000004 0.584082  0.005204 0.735637 1 64 1.000000
0  -4.063713 -0.926237 -4.173271  -0.811691 0.000001 0.584087  0.005204 0.735637 1 64 1.000000
lowpoly_plastic
0  -3.935182 -0.926236 -6.237995  -0.965270 0.000002 -0.261253  0.005204 0.735637 1 64 1.000000
0  -4.063711 -0.926235 -5.763107  -0.965271 -0.000001 -0.261251  0.005204 0.735637 1 64 1.000000
0  -4.063711 -0.348024 -5.763108  -0.965270 0.000002 -0.261254  0.005204 0.735637 1 64 1.000000
lowpoly_plastic
0  -3.023406 -0.646858 -7.674775  1.000000 -0.000009 0.000001  0.005204 0.735637 1 64 1.000000
0  -3.023402 -0.348025 -7.674775  1.000000 -0.000011 0.000002  0.005204 0.735637 1 64 1.000000
0  -3.023405 -0.348027 -6.237995  1.000000 -0.000001 0.000000  0.005204 0.735637 1 64 1.000000
lowpoly_plastic
0  -3.479292 -0.926239 -6.237995  -0.000001 -1.000000 -0.000000  0.005204 0.735637 1 64 1.000000
0  -3.023405 -0.926237 -6.237996  0.000006 -1.000000 -0.000000  0.005204 0.735637 1 64 1.000000
0  -2.894874 -0.926236 -5.763108  0.000005 -1.000000 -0.000000  0.005204 0.735637 1 64 1.000000
lowpoly_plastic
0  -2.894874 -0.926236 -5.763108  0.000005 -1.000000 -0.000000  0.005204 0.735637 1 64 1.000000
0  -2.894874 -0.926237 -4.173272  0.000005 -1.000000 -0.000000  0.005204 0.735637 1 64 1.000000
0  -3.479291 -0.926240 -3.836868  -0.000000 -1.000000 0.000001  0.005204 0.735637 1 64 1.000000
lowpoly_plastic
0  -2.894874 -0.926237 -4.173272  0.000005 -1.000000 -0.000000  0.005204 0.735637 1 64 1.000000
0  -3.066046 -0.926238 -3.935398  0.000005 -1.000000 -0.000001  0.005204 0.735637 1 64 1.000000
0  -3.479291 -0.926240 -3.836868  -0.000000 -1.000000 0.000001  0.005204 0.735637 1 64 1.000000
lowpoly_plastic
0  -3.023402 -0.348025 -7.674775  -0.000001 0.000000 -1.000000  0.005204 0.735637 1 64 1.000000
0  -3.023406 -0.646858 -7.674775  -0.000001 0.000000 -1.000000  0.005204 0.735637 1 64 1.000000
0  -3.479293 -0.646859 -7.674775  -0.000001 0.000000 -1.000000  0.005204 0.735637 1 64 1.000000
lowpoly_plastic
0  -3.479293 -0.646859 -7.674775  0.000003 -0.981615 -0.190873  0.005204 0.735637 1 64 1.000000
0  -3.023406 -0.646858 -7.674775  0.000003 -0.981615 -0.190874  0.005204 0.735637 1 64 1.000000
0  -3.023405 -0.926237 -6.237996  0.000005 -0.981615 -0.190874  0.005204 0.735637 1 64 1.000000
lowpoly_plastic
0  -2.894874 -0.926236 -5.763108  1.000000 -0.000001 -0.000000  0.005204 0.735637 1 64 1.000000
0  -2.894873 -0.348027 -5.763107  1.000000 -0.000001 -0.000000  0.005204 0.735637 1 64 1.000000
0  -2.894873 -0.348027 -4.173271  1.000000 -0.000001 -0.000000  0.005204 0.735637 1 64 1.000000
lowpoly_plastic
0  -3.066046 -0.926238 -3.935398  0.231928 -0.000001 0.972733  0.005204 0.735637 1 64 1.000000
0  -3.066046 -0.348026 -3.935397  0.231928 -0.000001 0.972733  0.005204 0.735637 1 64 1.000000
0  -3.479290 -0.348027 -3.836868  0.231928 -0.000001 0.972733  0.005204 0.735637 1 64 1.000000
lowpoly_plastic
0  -2.894874 -0.926237 -4.173272  0.811691 -0.000001 0.584088  0.005204 0.735637 1 64 1.000000
0  -2.894873 -0.348027 -4.173271  0.811690 -0.000002 0.584089  0.005204 0.735637 1 64 1.000000
0  -3.066046 -0.348026 -3.935397  0.811690 -0.000002 0.584088  0.005204 0.735637 1 64 1.000000
lowpoly_plastic
0  -3.023405 -0.926237 -6.237996  0.965269 0.000000 -0.261256  0.005204 0.735637 1 64 1.000000
0  -3.023405 -0.348027 -6.237995  0.965269 0.000001 -0.261258  0.005204 0.735637 1 64 1.000000
0  -2.894873 -0.348027 -5.763107  0.965269 0.000000 -0.261257  0.005204 0.735637 1 64 1.000000
lowpoly_plastic
0  -2.913694 -0.875233 -4.440368  0.923878 0.000002 0.382687  0.005518 0.736972 1 64 1.000000
0  -3.079355 -0.875237 -4.040430  0.923878 0.000002 0.382687  0.005518 0.736972 1 64 1.000000
0  -3.079353 -1.623287 -4.040431  0.923878 0.000002 0.382686  0.005518 0.736972 1 64 1.000000
lowpoly_plastic
0  -3.079355 -0.875237 -4.040430  0.382685 -0.000000 0.923879  0.005518 0.736972 1 64 1.000000
0  -3.479293 -0.875233 -3.874769  0.382684 0.000000 0.923879  0.005518 0.736972 1 64 1.000000
0  -3.479292 -1.623289 -3.874770  0.382686 -0.000000 0.923878  0.005518 0.736972 1 64 1.000000
lowpoly_plastic
0  -3.479293 -0.875233 -3.874769  -0.382686 -0.000001 0.923878  0.005518 0.736972 1 64 1.000000
0  -3.879231 -0.875236 -4.040431  -0.382686 -0.000001 0.923878  0.005518 0.736972 1 64 1.000000
0  -3.879229 -1.623293 -4.040431  -0.382687 -0.000001 0.923878  0.005518 0.736972 1 64 1.000000
lowpoly_plastic
0  -3.879231 -0.875236 -4.040431  -0.923879 -0.000002 0.382684  0.005518 0.736972 1 64 1.000000
0  -4.044891 -0.875233 -4.440369  -0.923879 -0.000002 0.382685  0.005518 0.736972 1 64 1.000000
0  -4.044889 -1.623290 -4.440369  -0.923879 -0.000002 0.382684  0.005518 0.736972 1 64 1.000000
lowpoly_plastic
0  -4.044891 -0.875233 -4.440369  -0.923880 -0.000001 -0.382683  0.005518 0.736972 1 64 1.000000
0  -3.879231 -0.875236 -4.840307  -0.923880 -0.000001 -0.382683  0.005518 0.736972 1 64 1.000000
0  -3.879230 -1.623293 -4.840308  -0.923880 -0.000002 -0.382683  0.005518 0.736972 1 64 1.000000
lowpoly_plastic
0  -3.879231 -0.875236 -4.840307  -0.382685 0.000000 -0.923879  0.005518 0.736972 1 64 1.000000
0  -3.479294 -0.875232 -5.005967  -0.382683 0.000000 -0.923880  0.005518 0.736972 1 64 1.000000
0  -3.479292 -1.623289 -5.005968  -0.382686 0.000000 -0.923879  0.005518 0.736972 1 64 1.000000
lowpoly_plastic
0  -3.479293 -0.875233 -3.874769  0.000000 1.000000 0.000005  0.005518 0.736972 1 64 1.000000
0  -3.079355 -0.875237 -4.040430  0.000016 1.000000 0.000016  0.005518 0.736972 1 64 1.000000
0  -2.913694 -0.875233 -4.440368  0.000006 1.000000 0.000000  0.005518 0.736972 1 64 1.000000
lowpoly_plastic
0  -2.913694 -0.875233 -4.440368  0.000006 1.000000 0.000000  0.005518 0.736972 1 64 1.000000
0  -3.079355 -0.875236 -4.840308  0.000017 1.000000 -0.000016  0.005518 0.736972 1 64 1.000000
0  -3.479294 -0.875232 -5.005967  0.000000 1.000000 -0.000004  0.005518 0.736972 1 64 1.000000
lowpoly_plastic
0  -3.479294 -0.875232 -5.005967  0.000000 1.000000 -0.000004  0.005518 0.736972 1 64 1.000000
0  -3.879231 -0.875236 -4.840307  -0.000014 1.000000 -0.000012  0.005518 0.736972 1 64 1.000000
0  -4.044891 -0.875233 -4.440369  -0.000006 1.000000 0.000000  0.005518 0.736972 1 64 1.000000
lowpoly_plastic
0  -4.044891 -0.875233 -4.440369  -0.000006 1.000000 0.000000  0.005518 0.736972 1 64 1.000000
0  -3.879231 -0.875236 -4.040431  -0.000013 1.000000 0.000012  0.005518 0.736972 1 64 1.000000
0  -3.479293 -0.875233 -3.874769  0.000000 1.000000 0.000005  0.005518 0.736972 1 64 1.000000
lowpoly_plastic
0  -3.479293 -0.875233 -3.874769  0.000000 1.000000 0.000005  0.005518 0.736972 1 64 1.000000
0  -2.913694 -0.875233 -4.440368  0.000006 1.000000 0.000000  0.005518 0.736972 1 64 1.000000
0  -3.479294 -0.875232 -5.005967  0.000000 1.000000 -0.000004  0.005518 0.736972 1 64 1.000000
lowpoly_plastic
0  -3.479294 -0.875232 -5.005967  0.382683 0.000001 -0.923880  0.005518 0.736972 1 64 1.000000
0  -3.079355 -0.875236 -4.840308  0.382683 0.000001 -0.923880  0.005518 0.736972 1 64 1.000000
0  -3.079353 -1.623287 -4.840308  0.382683 0.000002 -0.923880  0.005518 0.736972 1 64 1.000000
lowpoly_plastic
0  -3.079355 -0.875236 -4.840308  0.923879 0.000002 -0.382684  0.005518 0.736972 1 64 1.000000
0  -2.913694 -0.875233 -4.440368  0.923879 0.000002 -0.382684  0.005518 0.736972 1 64 1.000000
0  -2.913692 -1.623289 -4.440368  0.923879 0.000002 -0.382684  0.005518 0.736972 1 64 1.000000
lowpoly_plastic
0  -3.479292 -1.623289 -3.874770  0.000005 -1.000000 -0.000007  0.005518 0.736972 1 64 1.000000
0  -3.479292 -1.623289 -4.127219  -0.000001 -1.000000 0.000000  0.005518 0.736972 1 64 1.000000
0  -3.257863 -1.623286 -4.218938  -0.000008 -1.000000 0.000007  0.005518 0.736972 1 64 1.000000
lowpoly_plastic
0  -3.479292 -1.623289 -4.127219  0.382682 0.000002 -0.923880  0.005518 0.736972 1 64 1.000000
0  -3.700723 -1.623286 -4.218938  0.382680 0.000000 -0.923881  0.005518 0.736972 1 64 1.000000
0  -3.700723 -1.409876 -4.218938  0.382682 0.000002 -0.923880  0.005518 0.736972 1 64 1.000000
lowpoly_plastic
0  -3.879230 -1.623293 -4.840308  0.000019 -1.000000 0.000015  0.005518 0.736972 1 64 1.000000
0  -3.700723 -1.623286 -4.661799  0.000018 -1.000000 0.000011  0.005518 0.736972 1 64 1.000000
0  -3.792441 -1.623287 -4.440368  0.000015 -1.000000 0.000005  0.005518 0.736972 1 64 1.000000
lowpoly_plastic
0  -3.079353 -1.623287 -4.840308  -0.000001 -1.000000 -0.000004  0.005518 0.736972 1 64 1.000000
0  -2.913692 -1.623289 -4.440368  0.000012 -1.000000 0.000000  0.005518 0.736972 1 64 1.000000
0  -3.166141 -1.623292 -4.440368  0.000001 -1.000000 0.000000  0.005518 0.736972 1 64 1.000000
lowpoly_plastic
0  -3.079353 -1.623287 -4.040431  -0.000001 -1.000000 0.000004  0.005518 0.736972 1 64 1.000000
0  -3.257863 -1.623286 -4.218938  -0.000008 -1.000000 0.000007  0.005518 0.736972 1 64 1.000000
0  -3.166141 -1.623292 -4.440368  0.000001 -1.000000 0.000000  0.005518 0.736972 1 64 1.000000
lowpoly_plastic
0  -3.479292 -1.623289 -3.874770  0.000005 -1.000000 -0.000007  0.005518 0.736972 1 64 1.000000
0  -3.879229 -1.623293 -4.040431  0.000019 -1.000000 -0.000018  0.005518 0.736972 1 64 1.000000
0  -3.700723 -1.623286 -4.218938  0.000013 -1.000000 -0.000012  0.005518 0.736972 1 64 1.000000
lowpoly_plastic
0  -3.479292 -1.623289 -5.005968  0.000005 -1.000000 0.000007  0.005518 0.736972 1 64 1.000000
0  -3.479292 -1.623289 -4.753519  -0.000001 -1.000000 0.000000  0.005518 0.736972 1 64 1.000000
0  -3.700723 -1.623286 -4.661799  0.000018 -1.000000 0.000011  0.005518 0.736972 1 64 1.000000
lowpoly_plastic
0  -4.044889 -1.623290 -4.440369  0.000015 -1.000000 0.000002  0.005518 0.736972 1 64 1.000000
0  -3.792441 -1.623287 -4.440368  0.000015 -1.000000 0.000005  0.005518 0.736972 1 64 1.000000
0  -3.700723 -1.623286 -4.218938  0.000013 -1.000000 -0.000012  0.005518 0.736972 1 64 1.000000
lowpoly_plastic
0  -3.479292 -1.623289 -5.005968  0.000005 -1.000000 0.000007  0.005518 0.736972 1 64 1.000000
0  -3.079353 -1.623287 -4.840308  -0.000001 -1.000000 -0.000004  0.005518 0.736972 1 64 1.000000
0  -3.257864 -1.623286 -4.661799  -0.000008 -1.000000 -0.000007  0.005518 0.736972 1 64 1.000000
lowpoly_plastic
0  -3.257860 -1.409874 -4.661799  -0.000001 -1.000000 -0.000002  0.005518 0.736972 1 64 1.000000
0  -3.166142 -1.409875 -4.440368  -0.000003 -1.000000 0.000000  0.005518 0.736972 1 64 1.000000
0  -3.257860 -1.409874 -4.218938  -0.000005 -1.000000 0.000000  0.005518 0.736972 1 64 1.000000
lowpoly_plastic
0  -3.257860 -1.409874 -4.218938  -0.000005 -1.000000 0.000000  0.005518 0.736972 1 64 1.000000
0  -3.479294 -1.409873 -4.127219  0.000004 -1.000000 0.000004  0.005518 0.736972 1 64 1.000000
0  -3.257860 -1.409874 -4.661799  -0.000001 -1.000000 -0.000002  0.005518 0.736972 1 64 1.000000
lowpoly_plastic
0  -3.700723 -1.409876 -4.218938  0.000008 -1.000000 0.000002  0.005518 0.736972 1 64 1.000000
0  -3.792441 -1.409877 -4.440369  0.000016 -1.000000 0.000000  0.005518 0.736972 1 64 1.000000
0  -3.700723 -1.409876 -4.661799  0.000012 -1.000000 0.000000  0.005518 0.736972 1 64 1.000000
lowpoly_plastic
0  -3.700723 -1.409876 -4.661799  0.000012 -1.000000 0.000000  0.005518 0.736972 1 64 1.000000
0  -3.479294 -1.409873 -4.753519  0.000002 -1.000000 -0.000004  0.005518 0.736972 1 64 1.000000
0  -3.700723 -1.409876 -4.218938  0.000008 -1.000000 0.000002  0.005518 0.736972 1 64 1.000000
lowpoly_plastic
0  -3.257860 -1.409874 -4.661799  -0.000001 -1.000000 -0.000002  0.005518 0.736972 1 64 1.000000
0  -3.479294 -1.409873 -4.127219  0.000004 -1.000000 0.000004  0.005518 0.736972 1 64 1.000000
0  -3.700723 -1.409876 -4.218938  0.000008 -1.000000 0.000002  0.005518 0.736972 1 64 1.000000
lowpoly_plastic
0  -3.257863 -1.623286 -4.218938  -0.923878 0.000005 -0.382687  0.005518 0.736972 1 64 1.000000
0  -3.257860 -1.409874 -4.218938  -0.923881 0.000012 -0.382681  0.005518 0.736972 1 64 1.000000
0  -3.166142 -1.409875 -4.440368  -0.923878 0.000004 -0.382688  0.005518 0.736972 1 64 1.000000
lowpoly_plastic
0  -3.166141 -1.623292 -4.440368  -0.923879 0.000004 0.382684  0.005518 0.736972 1 64 1.000000
0  -3.166142 -1.409875 -4.440368  -0.923882 -0.000002 0.382678  0.005518 0.736972 1 64 1.000000
0  -3.257860 -1.409874 -4.661799  -0.923879 0.000005 0.382685  0.005518 0.736972 1 64 1.000000
lowpoly_plastic
0  -3.479292 -1.623289 -4.753519  0.382682 0.000003 0.923880  0.005518 0.736972 1 64 1.000000
0  -3.479294 -1.409873 -4.753519  0.382685 0.000005 0.923879  0.005518 0.736972 1 64 1.000000
0  -3.700723 -1.409876 -4.661799  0.382682 0.000002 0.923880  0.005518 0.736972 1 64 1.000000
lowpoly_plastic
0  -3.700723 -1.623286 -4.218938  0.923882 -0.000002 -0.382678  0.005518 0.736972 1 64 1.000000
0  -3.792441 -1.623287 -4.440368  0.923881 -0.000005 -0.382680  0.005518 0.736972 1 64 1.000000
0  -3.792441 -1.409877 -4.440369  0.923882 -0.000003 -0.382678  0.005518 0.736972 1 64 1.000000
lowpoly_plastic
0  -3.257863 -1.623286 -4.218938  -0.382679 0.000000 -0.923882  0.005518 0.736972 1 64 1.000000
0  -3.479292 -1.623289 -4.127219  -0.382684 -0.000006 -0.923879  0.005518 0.736972 1 64 1.000000
0  -3.479294 -1.409873 -4.127219  -0.382679 -0.000000 -0.923881  0.005518 0.736972 1 64 1.000000
lowpoly_plastic
0  -3.257864 -1.623286 -4.661799  -0.382681 0.000001 0.923880  0.005518 0.736972 1 64 1.000000
0  -3.257860 -1.409874 -4.661799  -0.382677 0.000006 0.923882  0.005518 0.736972 1 64 1.000000
0  -3.479294 -1.409873 -4.753519  -0.382682 0.000000 0.923880  0.005518 0.736972 1 64 1.000000
lowpoly_plastic
0  -3.700723 -1.623286 -4.661799  0.923882 0.000000 0.382677  0.005518 0.736972 1 64 1.000000
0  -3.700723 -1.409876 -4.661799  0.923882 0.000000 0.382678  0.005518 0.736972 1 64 1.000000
0  -3.792441 -1.409877 -4.440369  0.923882 0.000000 0.382677  0.005518 0.736972 1 64 1.000000
end
