version 1
nodes
0 "root" -1
end
skeleton
time 0
0 0 0 0 0 0 0
end
triangles
lowpoly_metal.006
0  0.418952 -2.402177 0.241435  -0.000087 -0.999999 -0.001621  0.049683 0.585822 0
0  0.411346 -2.401418 -0.226408  0.000086 -0.999999 -0.001623  0.050206 0.585933 0
0  0.418953 -2.401410 -0.230694  0.000088 -0.999999 -0.001623  0.050206 0.585953 0
lowpoly_plastic.004
0  0.411346 -2.396195 -0.226399  0.470610 0.285913 -0.834733  0.089708 0.407095 0
0  0.000001 -2.403902 -0.460944  0.470639 0.285701 -0.834790  0.087769 0.406036 0
0  0.000000 -2.395818 -0.458177  0.470639 0.285698 -0.834790  0.089720 0.406036 0
lowpoly_plastic.004
0  -0.411345 -2.396947 0.237157  -1.000000 -0.000056 -0.000000  0.091994 0.408881 0
0  -0.411344 -2.404276 -0.229167  -1.000000 -0.000057 -0.000000  0.091465 0.406929 0
0  -0.411344 -2.405027 0.234389  -1.000000 -0.000056 -0.000000  0.091994 0.406929 0
lowpoly_plastic.004
0  0.000000 -2.397321 0.468935  0.470625 -0.285762 0.834777  0.085631 0.408260 0
0  0.411346 -2.405027 0.234389  0.470596 -0.285976 0.834720  0.087570 0.409319 0
0  0.411346 -2.396947 0.237157  0.470596 -0.285978 0.834719  0.085620 0.409319 0
lowpoly_metal.006
0  0.124807 -0.007921 -0.063829  0.000007 0.999999 0.001622  0.203712 0.284742 0
0  0.000000 -0.008263 0.147142  0.000009 0.999999 0.001624  0.203953 0.284421 0
0  0.124807 -0.008150 0.076818  0.000015 0.999999 0.001627  0.203872 0.284742 0
lowpoly_plastic.004
0  0.000001 -2.444944 0.340308  -0.490897 0.001405 -0.871217  0.056830 0.550273 0
0  0.299719 -2.382570 0.171528  -0.490898 0.001405 -0.871216  0.056910 0.551045 0
0  0.299719 -2.444674 0.171428  -0.490898 0.001405 -0.871216  0.056839 0.551045 0
lowpoly_metal.006
0  0.138890 0.000313 0.084768  -1.000000 -0.000000 0.000000  0.201972 0.279613 0
0  0.138890 -0.059975 -0.071849  -1.000000 -0.000000 0.000000  0.201903 0.279792 0
0  0.138890 -0.060228 0.084670  -1.000000 0.000000 0.000000  0.201903 0.279613 0
lowpoly_metal.006
0  0.000000 -0.059874 -0.134238  0.490900 0.001420 -0.871215  0.198025 0.283213 0
0  0.124807 -0.007921 -0.063829  0.490900 0.001420 -0.871215  0.198081 0.283534 0
0  0.124807 -0.059986 -0.063914  0.490900 0.001420 -0.871215  0.198022 0.283534 0
lowpoly_metal.006
0  -0.452225 -0.073669 -0.248425  -0.490900 0.001416 -0.871215  0.049390 0.583729 0
0  0.000000 0.001266 -0.503117  -0.490900 0.001416 -0.871215  0.049488 0.584893 0
0  0.000000 -0.073257 -0.503238  -0.490900 0.001416 -0.871215  0.049403 0.584893 0
lowpoly_metal.006
0  -0.418952 -2.401410 -0.230694  -1.000000 0.000000 0.000000  0.049099 0.587512 0
0  -0.418952 -0.074465 0.242451  -1.000000 0.000000 0.000000  0.049639 0.588230 0
0  -0.418952 -0.073700 -0.229677  -1.000000 0.000000 0.000000  0.049099 0.588230 0
lowpoly_metal.006
0  0.000000 -2.401029 -0.466758  -0.490899 0.000381 -0.871217  0.053795 0.584808 0
0  -0.418952 -0.073700 -0.229677  -0.490900 0.000381 -0.871216  0.054500 0.583729 0
0  0.000000 -0.073318 -0.465742  -0.490900 0.000380 -0.871216  0.054511 0.584808 0
lowpoly_plastic.004
0  0.411346 -2.396947 0.237157  1.000000 0.000032 0.000000  0.090682 0.404600 0
0  0.411346 -2.404276 -0.229167  1.000000 0.000036 0.000000  0.091211 0.402648 0
0  0.411346 -2.396195 -0.226399  1.000000 0.000036 0.000000  0.091211 0.404600 0
lowpoly_metal.006
0  -0.138889 0.000568 -0.071751  0.490896 -0.001414 0.871217  0.198081 0.282891 0
0  0.000000 -0.059847 -0.150108  0.490896 -0.001414 0.871217  0.198016 0.282534 0
0  0.000000 0.000694 -0.150010  0.490896 -0.001414 0.871217  0.198085 0.282534 0
lowpoly_metal.006
0  0.000000 -0.007807 -0.134153  -0.000006 0.999999 0.001624  0.203632 0.284421 0
0  -0.124806 -0.008150 0.076818  -0.000009 0.999999 0.001622  0.203872 0.284100 0
0  0.000000 -0.008263 0.147142  -0.000011 0.999999 0.001621  0.203953 0.284421 0
lowpoly_metal.006
0  0.452226 -0.074495 0.261199  1.000000 0.000001 0.000000  0.053688 0.587966 0
0  0.452226 0.000853 -0.248304  1.000000 -0.000000 0.000000  0.053602 0.588548 0
0  0.452226 0.000029 0.261321  1.000000 0.000001 0.000000  0.053602 0.587966 0
lowpoly_plastic.004
0  0.000001 -2.443850 -0.335213  -0.490899 -0.001405 0.871215  0.056980 0.550273 0
0  0.299719 -2.382021 -0.166233  -0.490900 -0.001405 0.871215  0.056918 0.551045 0
0  0.000001 -2.381750 -0.335113  -0.490899 -0.001405 0.871216  0.056910 0.550273 0
lowpoly_metal.006
0  0.000000 0.000694 -0.150010  -0.490895 -0.001414 0.871217  0.198085 0.282534 0
0  0.138890 -0.059975 -0.071849  -0.490895 -0.001414 0.871217  0.198012 0.282176 0
0  0.138890 0.000568 -0.071751  -0.490895 -0.001414 0.871217  0.198081 0.282176 0
lowpoly_plastic.004
0  0.000001 -2.382845 0.340408  -0.000005 -0.999999 -0.001624  0.063387 0.554036 0
0  -0.299718 -2.382021 -0.166233  -0.000007 -0.999999 -0.001622  0.064136 0.553427 0
0  0.000001 -2.381750 -0.335113  -0.000010 -0.999999 -0.001621  0.064136 0.554223 0
lowpoly_metal.006
0  0.418952 -0.073700 -0.229677  0.490900 0.000381 -0.871216  0.054500 0.585887 0
0  0.000000 -2.401029 -0.466758  0.490899 0.000381 -0.871217  0.053795 0.584808 0
0  0.000000 -0.073318 -0.465742  0.490900 0.000381 -0.871216  0.054511 0.584808 0
lowpoly_metal.006
0  0.000000 0.000187 0.163026  -0.490895 0.001414 -0.871217  0.200834 0.282405 0
0  0.138890 -0.060228 0.084670  -0.490895 0.001414 -0.871217  0.200769 0.282763 0
0  0.000000 -0.060354 0.162928  -0.490895 0.001414 -0.871217  0.200765 0.282405 0
lowpoly_metal.006
0  -0.418952 -2.402177 0.241435  0.000087 -0.999999 -0.001622  0.050206 0.583729 0
0  -0.411345 -2.401418 -0.226408  -0.000086 -0.999999 -0.001623  0.050720 0.583878 0
0  -0.411345 -2.402169 0.237149  0.000090 -0.999999 -0.001622  0.050206 0.583749 0
lowpoly_plastic.004
0  0.411346 -2.404276 -0.229167  0.759665 -0.650314 -0.001051  0.090671 0.407135 0
0  0.377319 -2.444742 0.215151  0.759646 -0.650336 -0.001054  0.091176 0.407222 0
0  0.377319 -2.444056 -0.210059  0.759667 -0.650312 -0.001050  0.090691 0.407222 0
lowpoly_plastic.004
0  -0.411345 -2.396947 0.237157  -0.470599 -0.286016 0.834705  0.085620 0.407201 0
0  0.000000 -2.405405 0.466167  -0.470613 -0.285786 0.834775  0.087581 0.408260 0
0  0.000000 -2.397321 0.468935  -0.470614 -0.285784 0.834776  0.085631 0.408260 0
lowpoly_plastic.004
0  0.000001 -2.443850 -0.335213  0.490899 -0.001405 0.871215  0.056980 0.550273 0
0  -0.299718 -2.382021 -0.166233  0.490900 -0.001405 0.871215  0.056918 0.549501 0
0  -0.299718 -2.444124 -0.166333  0.490900 -0.001405 0.871215  0.056989 0.549501 0
lowpoly_plastic.004
0  0.000001 -2.443708 -0.422663  0.000018 -0.999999 -0.001604  0.090448 0.408194 0
0  -0.299718 -2.444124 -0.166333  0.000018 -0.999999 -0.001604  0.090741 0.408965 0
0  -0.377318 -2.444056 -0.210059  0.000018 -0.999999 -0.001604  0.090691 0.409165 0
lowpoly_plastic.004
0  0.000001 -2.403902 -0.460944  0.375779 -0.642356 -0.667959  0.087769 0.406036 0
0  0.377319 -2.444056 -0.210059  0.375779 -0.642356 -0.667959  0.087712 0.407008 0
0  0.000001 -2.443708 -0.422663  0.375779 -0.642356 -0.667959  0.087722 0.406036 0
lowpoly_plastic.004
0  0.000000 -2.405405 0.466167  -0.375799 -0.644495 0.665884  0.091465 0.408194 0
0  -0.377318 -2.444742 0.215151  -0.375799 -0.644495 0.665884  0.091176 0.409165 0
0  0.000001 -2.445089 0.427758  -0.375799 -0.644495 0.665884  0.091419 0.408194 0
lowpoly_plastic.004
0  0.000001 -2.403902 -0.460944  -0.375802 -0.642315 -0.667985  0.087769 0.406036 0
0  -0.377318 -2.444056 -0.210059  -0.375802 -0.642315 -0.667985  0.087712 0.405065 0
0  -0.411344 -2.404276 -0.229167  -0.375802 -0.642315 -0.667985  0.087758 0.404977 0
lowpoly_plastic.004
0  0.000000 -2.405405 0.466167  0.375788 -0.644512 0.665874  0.091465 0.408194 0
0  0.377319 -2.444742 0.215151  0.375788 -0.644512 0.665874  0.091176 0.407222 0
0  0.411346 -2.405027 0.234389  0.375788 -0.644512 0.665874  0.091200 0.407135 0
lowpoly_metal.006
0  0.000000 -2.402558 0.477499  0.490899 -0.000381 0.871217  0.048892 0.587037 0
0  0.418952 -0.074465 0.242451  0.490900 -0.000381 0.871216  0.048163 0.588116 0
0  0.000000 -0.074848 0.478516  0.490900 -0.000381 0.871216  0.048175 0.587037 0
lowpoly_metal.006
0  -0.452225 0.000027 0.261321  -0.000002 0.999999 0.001624  0.050747 0.583729 0
0  -0.138889 0.000568 -0.071751  -0.000001 0.999999 0.001625  0.051127 0.582922 0
0  -0.452225 0.000853 -0.248304  -0.000006 0.999999 0.001621  0.051329 0.583729 0
lowpoly_plastic.004
0  0.000001 -2.445089 0.427758  0.000018 -0.999999 -0.001599  0.091419 0.408194 0
0  0.299719 -2.444674 0.171428  0.000018 -0.999999 -0.001599  0.091126 0.407422 0
0  0.377319 -2.444742 0.215151  0.000018 -0.999999 -0.001599  0.091176 0.407222 0
lowpoly_plastic.004
0  0.000001 -2.443708 -0.422663  -0.000007 -0.999999 -0.001610  0.090448 0.408194 0
0  0.299719 -2.444124 -0.166333  -0.000007 -0.999999 -0.001610  0.090741 0.407422 0
0  0.000001 -2.443850 -0.335213  -0.000007 -0.999999 -0.001610  0.090548 0.408194 0
lowpoly_plastic.004
0  0.000001 -2.445089 0.427758  0.000030 -0.999999 -0.001660  0.091419 0.408194 0
0  -0.299718 -2.444674 0.171428  0.000030 -0.999999 -0.001660  0.091126 0.408965 0
0  0.000001 -2.444944 0.340308  0.000030 -0.999999 -0.001660  0.091319 0.408194 0
lowpoly_metal.006
0  0.452226 0.000853 -0.248304  0.000001 0.999999 0.001621  0.051329 0.581400 0
0  0.138890 0.000313 0.084768  0.000002 0.999999 0.001623  0.050948 0.582207 0
0  0.452226 0.000029 0.261321  -0.000004 0.999999 0.001617  0.050747 0.581400 0
lowpoly_metal.006
0  0.000000 0.000187 0.163026  0.490896 0.001414 -0.871217  0.200834 0.282405 0
0  -0.138889 -0.060228 0.084670  0.490896 0.001414 -0.871217  0.200769 0.282048 0
0  -0.138889 0.000313 0.084768  0.490896 0.001414 -0.871217  0.200838 0.282048 0
lowpoly_metal.006
0  0.000000 -0.074909 0.516013  0.490899 -0.001406 0.871216  0.049585 0.584893 0
0  0.452226 0.000029 0.261321  0.490900 -0.001415 0.871215  0.049488 0.586058 0
0  0.000000 -0.000385 0.516133  0.490898 -0.001405 0.871216  0.049500 0.584893 0
lowpoly_metal.006
0  0.124807 -0.059986 -0.063914  1.000000 0.000000 0.000000  0.202299 0.279774 0
0  0.124807 -0.008150 0.076818  1.000000 0.000000 0.000000  0.202240 0.279613 0
0  0.124807 -0.060215 0.076734  1.000000 0.000000 0.000000  0.202299 0.279613 0
lowpoly_metal.006
0  0.000000 -0.074909 0.516013  -0.490899 -0.001406 0.871216  0.049585 0.584893 0
0  -0.452225 0.000027 0.261321  -0.490900 -0.001415 0.871215  0.049488 0.583729 0
0  -0.452225 -0.074495 0.261199  -0.490900 -0.001416 0.871215  0.049573 0.583729 0
lowpoly_plastic.004
0  0.299719 -2.444124 -0.166333  -1.000000 -0.000000 0.000000  0.056753 0.553526 0
0  0.299719 -2.382570 0.171528  -1.000000 -0.000000 0.000000  0.056824 0.553140 0
0  0.299719 -2.382021 -0.166233  -1.000000 0.000000 0.000000  0.056824 0.553526 0
lowpoly_metal.006
0  0.000000 -0.060329 0.147057  0.490899 -0.001417 0.871216  0.198148 0.283160 0
0  0.124807 -0.008150 0.076818  0.490896 -0.001408 0.871217  0.198211 0.282839 0
0  0.000000 -0.008263 0.147142  0.490900 -0.001420 0.871215  0.198207 0.283160 0
lowpoly_metal.006
0  0.000000 -0.060329 0.147057  -0.490899 -0.001417 0.871215  0.198148 0.283160 0
0  -0.124806 -0.008150 0.076818  -0.490897 -0.001408 0.871217  0.198211 0.283481 0
0  -0.124806 -0.060215 0.076734  -0.490895 -0.001404 0.871217  0.198151 0.283481 0
lowpoly_metal.006
0  -0.124806 -0.060215 0.076734  -1.000000 -0.000000 0.000000  0.202180 0.279613 0
0  -0.124806 -0.007921 -0.063829  -1.000000 0.000000 0.000000  0.202240 0.279774 0
0  -0.124806 -0.059986 -0.063914  -1.000000 0.000000 0.000000  0.202180 0.279774 0
lowpoly_plastic.004
0  -0.411344 -2.404276 -0.229167  -0.759667 -0.650312 -0.001051  0.090671 0.409253 0
0  -0.377318 -2.444742 0.215151  -0.759648 -0.650333 -0.001054  0.091176 0.409165 0
0  -0.411344 -2.405027 0.234389  -0.759647 -0.650335 -0.001054  0.091200 0.409253 0
lowpoly_plastic.004
0  0.000000 -2.395818 -0.458177  -0.470635 0.285671 -0.834802  0.089720 0.406036 0
0  -0.411344 -2.404276 -0.229167  -0.470617 0.285873 -0.834743  0.087758 0.404977 0
0  -0.411345 -2.396195 -0.226399  -0.470617 0.285876 -0.834742  0.089708 0.404977 0
lowpoly_plastic.004
0  -0.299718 -2.444674 0.171428  0.490898 0.001405 -0.871216  0.056839 0.549501 0
0  0.000001 -2.382845 0.340408  0.490897 0.001405 -0.871217  0.056901 0.550273 0
0  0.000001 -2.444944 0.340308  0.490897 0.001405 -0.871217  0.056830 0.550273 0
lowpoly_metal.006
0  -0.418952 -0.074465 0.242451  0.000001 -0.999999 -0.001626  0.052471 0.583643 0
0  0.000000 -0.074909 0.516013  0.000001 -0.999999 -0.001626  0.052783 0.582565 0
0  -0.452225 -0.074495 0.261199  0.000001 -0.999999 -0.001626  0.052492 0.583729 0
lowpoly_metal.006
0  0.418952 -2.402177 0.241435  1.000000 0.000000 0.000000  0.053063 0.587966 0
0  0.418952 -0.073700 -0.229677  1.000000 0.000000 0.000000  0.053602 0.588683 0
0  0.418952 -0.074465 0.242451  1.000000 0.000000 0.000000  0.053063 0.588683 0
lowpoly_metal.006
0  -0.138889 -0.059975 -0.071849  -0.000098 0.999999 0.001627  0.198586 0.282890 0
0  -0.124806 -0.060215 0.076734  -0.000038 0.999999 0.001621  0.198430 0.282814 0
0  -0.124806 -0.059986 -0.063914  -0.000104 0.999999 0.001627  0.198586 0.282853 0
lowpoly_metal.006
0  -0.418952 -0.073700 -0.229677  -0.000007 -0.999999 -0.001628  0.051932 0.583643 0
0  0.000000 -0.073257 -0.503238  -0.000007 -0.999999 -0.001628  0.051620 0.582565 0
0  0.000000 -0.073318 -0.465742  -0.000007 -0.999999 -0.001628  0.051662 0.582565 0
lowpoly_metal.006
0  0.418952 -0.074465 0.242451  -0.000002 -0.999999 -0.001628  0.052471 0.581486 0
0  0.000000 -0.074909 0.516013  -0.000002 -0.999999 -0.001628  0.052783 0.582565 0
0  0.000000 -0.074848 0.478516  -0.000002 -0.999999 -0.001628  0.052740 0.582565 0
lowpoly_metal.006
0  0.418952 -0.074465 0.242451  -0.000004 -0.999999 -0.001621  0.052471 0.581486 0
0  0.452226 -0.073669 -0.248425  0.000004 -0.999999 -0.001620  0.051910 0.581400 0
0  0.452226 -0.074495 0.261199  -0.000004 -0.999999 -0.001621  0.052492 0.581400 0
lowpoly_metal.006
0  0.418952 -0.073700 -0.229677  0.000003 -0.999999 -0.001622  0.051932 0.581486 0
0  0.000000 -0.073257 -0.503238  0.000003 -0.999999 -0.001622  0.051620 0.582565 0
0  0.452226 -0.073669 -0.248425  0.000003 -0.999999 -0.001622  0.051910 0.581400 0
lowpoly_metal.006
0  0.000000 -0.000385 0.516133  0.000007 0.999999 0.001620  0.050456 0.582565 0
0  0.138890 0.000313 0.084768  0.000007 0.999999 0.001620  0.050948 0.582207 0
0  0.000000 0.000187 0.163026  0.000007 0.999999 0.001620  0.050859 0.582565 0
lowpoly_plastic.004
0  -0.299718 -2.444124 -0.166333  1.000000 -0.000000 0.000000  0.056824 0.553912 0
0  -0.299718 -2.382570 0.171528  1.000000 -0.000000 0.000000  0.056753 0.553526 0
0  -0.299718 -2.444674 0.171428  1.000000 -0.000000 0.000000  0.056824 0.553526 0
lowpoly_metal.006
0  0.000000 -0.073257 -0.503238  0.490900 0.001416 -0.871215  0.049403 0.584893 0
0  0.452226 0.000853 -0.248304  0.490900 0.001416 -0.871215  0.049475 0.586058 0
0  0.452226 -0.073669 -0.248425  0.490900 0.001416 -0.871215  0.049390 0.586058 0
lowpoly_metal.006
0  -0.452225 -0.074495 0.261199  -1.000000 0.000000 0.000000  0.051655 0.587893 0
0  -0.452225 0.000853 -0.248304  -1.000000 0.000000 0.000000  0.051740 0.588476 0
0  -0.452225 -0.073669 -0.248425  -1.000000 0.000000 0.000000  0.051655 0.588476 0
lowpoly_metal.006
0  0.000000 -2.401029 -0.466758  0.000094 -0.999999 -0.001758  0.050729 0.584972 0
0  0.411346 -2.401418 -0.226408  0.000094 -0.999999 -0.001758  0.050206 0.585933 0
0  0.000000 -2.401044 -0.458186  0.000094 -0.999999 -0.001758  0.050720 0.584969 0
lowpoly_metal.006
0  0.000000 -2.402558 0.477499  -0.000166 -0.999999 -0.001352  0.049683 0.584710 0
0  -0.411345 -2.402169 0.237149  -0.000166 -0.999999 -0.001352  0.050206 0.583749 0
0  0.000000 -2.402547 0.468926  -0.000166 -0.999999 -0.001352  0.049693 0.584713 0
lowpoly_metal.006
0  -0.418952 -0.074465 0.242451  0.000004 -0.999999 -0.001621  0.052471 0.583643 0
0  -0.452225 -0.073669 -0.248425  -0.000004 -0.999999 -0.001620  0.051910 0.583729 0
0  -0.418952 -0.073700 -0.229677  -0.000004 -0.999999 -0.001620  0.051932 0.583643 0
lowpoly_metal.006
0  0.000000 -2.401029 -0.466758  -0.000046 -0.999999 -0.001695  0.050729 0.584972 0
0  -0.411345 -2.401418 -0.226408  -0.000046 -0.999999 -0.001695  0.050720 0.583878 0
0  -0.418952 -2.401410 -0.230694  -0.000046 -0.999999 -0.001695  0.050729 0.583860 0
lowpoly_metal.006
0  0.000000 -2.402558 0.477499  -0.000046 -0.999999 -0.001683  0.049683 0.584710 0
0  0.411346 -2.402169 0.237149  -0.000046 -0.999999 -0.001683  0.049693 0.585804 0
0  0.418952 -2.402177 0.241435  -0.000046 -0.999999 -0.001683  0.049683 0.585822 0
lowpoly_metal.006
0  -0.124806 -0.059986 -0.063914  -0.490900 0.001420 -0.871214  0.198022 0.282891 0
0  0.000000 -0.007807 -0.134153  -0.490900 0.001420 -0.871215  0.198085 0.283213 0
0  0.000000 -0.059874 -0.134238  -0.490900 0.001420 -0.871215  0.198025 0.283213 0
lowpoly_metal.006
0  0.000000 0.001266 -0.503117  0.000004 0.999999 0.001617  0.051620 0.582565 0
0  0.138890 0.000568 -0.071751  0.000004 0.999999 0.001617  0.051127 0.582207 0
0  0.452226 0.000853 -0.248304  0.000004 0.999999 0.001617  0.051329 0.581400 0
lowpoly_metal.006
0  0.000000 -0.000385 0.516133  -0.000001 0.999999 0.001619  0.050456 0.582565 0
0  -0.138889 0.000313 0.084768  -0.000001 0.999999 0.001619  0.050948 0.582922 0
0  -0.452225 0.000027 0.261321  -0.000001 0.999999 0.001619  0.050747 0.583729 0
lowpoly_metal.006
0  0.000000 0.001266 -0.503117  0.000007 0.999999 0.001620  0.051620 0.582565 0
0  -0.138889 0.000568 -0.071751  0.000007 0.999999 0.001620  0.051127 0.582922 0
0  0.000000 0.000694 -0.150010  0.000007 0.999999 0.001620  0.051216 0.582565 0
lowpoly_metal.006
0  0.000000 -0.059847 -0.150108  0.000046 0.999999 0.001683  0.198759 0.282565 0
0  -0.124806 -0.059986 -0.063914  0.000046 0.999999 0.001683  0.198586 0.282853 0
0  0.000000 -0.059874 -0.134238  0.000046 0.999999 0.001683  0.198741 0.282560 0
lowpoly_metal.006
0  -0.138889 0.000313 0.084768  1.000000 0.000000 0.000000  0.201972 0.279613 0
0  -0.138889 -0.059975 -0.071849  1.000000 -0.000000 0.000000  0.202042 0.279792 0
0  -0.138889 0.000568 -0.071751  1.000000 -0.000000 0.000000  0.201972 0.279792 0
lowpoly_plastic.004
0  0.377319 -2.444742 0.215151  0.000021 -0.999999 -0.001624  0.091176 0.407222 0
0  0.299719 -2.444124 -0.166333  -0.000020 -0.999999 -0.001616  0.090741 0.407422 0
0  0.377319 -2.444056 -0.210059  -0.000025 -0.999999 -0.001615  0.090691 0.407222 0
lowpoly_metal.006
0  0.000000 -0.060354 0.162928  -0.000037 0.999999 0.001562  0.198412 0.282478 0
0  0.124807 -0.060215 0.076734  -0.000037 0.999999 0.001562  0.198586 0.282190 0
0  0.000000 -0.060329 0.147057  -0.000037 0.999999 0.001562  0.198430 0.282482 0
lowpoly_metal.006
0  0.138890 -0.060228 0.084670  0.000037 0.999999 0.001627  0.198586 0.282153 0
0  0.124807 -0.059986 -0.063914  0.000097 0.999999 0.001621  0.198741 0.282229 0
0  0.124807 -0.060215 0.076734  0.000031 0.999999 0.001627  0.198586 0.282190 0
lowpoly_metal.006
0  0.000000 -0.059847 -0.150108  0.000054 0.999999 0.001538  0.198759 0.282565 0
0  0.124807 -0.059986 -0.063914  0.000054 0.999999 0.001538  0.198741 0.282229 0
0  0.138890 -0.059975 -0.071849  0.000054 0.999999 0.001538  0.198759 0.282196 0
lowpoly_metal.006
0  0.000000 -0.060354 0.162928  -0.000021 0.999999 0.001646  0.198412 0.282478 0
0  -0.124806 -0.060215 0.076734  -0.000021 0.999999 0.001646  0.198430 0.282814 0
0  -0.138889 -0.060228 0.084670  -0.000021 0.999999 0.001646  0.198412 0.282847 0
lowpoly_plastic.004
0  0.299719 -2.382570 0.171528  0.000006 -0.999999 -0.001622  0.063387 0.554831 0
0  0.000001 -2.381750 -0.335113  0.000008 -0.999999 -0.001624  0.064136 0.554223 0
0  0.299719 -2.382021 -0.166233  0.000013 -0.999999 -0.001627  0.063762 0.554925 0
lowpoly_plastic.004
0  0.000001 -2.443708 -0.422663  0.000007 -0.999999 -0.001610  0.090448 0.408194 0
0  0.000001 -2.443850 -0.335213  0.000007 -0.999999 -0.001610  0.090548 0.408194 0
0  -0.299718 -2.444124 -0.166333  0.000007 -0.999999 -0.001610  0.090741 0.408965 0
lowpoly_plastic.004
0  0.000001 -2.403902 -0.460944  0.375801 -0.642315 -0.667986  0.087769 0.406036 0
0  0.411346 -2.404276 -0.229167  0.375801 -0.642315 -0.667986  0.087758 0.407095 0
0  0.377319 -2.444056 -0.210059  0.375801 -0.642315 -0.667986  0.087712 0.407008 0
lowpoly_plastic.004
0  0.000000 -2.405405 0.466167  -0.375788 -0.644509 0.665876  0.091465 0.408194 0
0  -0.411344 -2.405027 0.234389  -0.375788 -0.644509 0.665876  0.091200 0.409253 0
0  -0.377318 -2.444742 0.215151  -0.375788 -0.644509 0.665876  0.091176 0.409165 0
lowpoly_plastic.004
0  0.000001 -2.403902 -0.460944  -0.375779 -0.642355 -0.667959  0.087769 0.406036 0
0  0.000001 -2.443708 -0.422663  -0.375779 -0.642355 -0.667959  0.087722 0.406036 0
0  -0.377318 -2.444056 -0.210059  -0.375779 -0.642355 -0.667959  0.087712 0.405065 0
lowpoly_plastic.004
0  0.000000 -2.405405 0.466167  0.375799 -0.644490 0.665889  0.091465 0.408194 0
0  0.000001 -2.445089 0.427758  0.375799 -0.644490 0.665889  0.091419 0.408194 0
0  0.377319 -2.444742 0.215151  0.375799 -0.644490 0.665889  0.091176 0.407222 0
lowpoly_plastic.004
0  0.000001 -2.445089 0.427758  -0.000030 -0.999999 -0.001660  0.091419 0.408194 0
0  0.000001 -2.444944 0.340308  -0.000030 -0.999999 -0.001660  0.091319 0.408194 0
0  0.299719 -2.444674 0.171428  -0.000030 -0.999999 -0.001660  0.091126 0.407422 0
lowpoly_plastic.004
0  0.000001 -2.443708 -0.422663  -0.000018 -0.999999 -0.001604  0.090448 0.408194 0
0  0.377319 -2.444056 -0.210059  -0.000018 -0.999999 -0.001604  0.090691 0.407222 0
0  0.299719 -2.444124 -0.166333  -0.000018 -0.999999 -0.001604  0.090741 0.407422 0
lowpoly_plastic.004
0  0.000001 -2.445089 0.427758  -0.000018 -0.999999 -0.001599  0.091419 0.408194 0
0  -0.377318 -2.444742 0.215151  -0.000018 -0.999999 -0.001599  0.091176 0.409165 0
0  -0.299718 -2.444674 0.171428  -0.000018 -0.999999 -0.001599  0.091126 0.408965 0
lowpoly_plastic.004
0  -0.377318 -2.444056 -0.210059  0.000021 -0.999999 -0.001624  0.090691 0.409165 0
0  -0.299718 -2.444674 0.171428  -0.000020 -0.999999 -0.001616  0.091126 0.408965 0
0  -0.377318 -2.444742 0.215151  -0.000025 -0.999999 -0.001615  0.091176 0.409165 0
lowpoly_metal.006
0  -0.418952 -0.074465 0.242451  0.000002 -0.999999 -0.001628  0.052471 0.583643 0
0  0.000000 -0.074848 0.478516  0.000002 -0.999999 -0.001628  0.052740 0.582565 0
0  0.000000 -0.074909 0.516013  0.000002 -0.999999 -0.001628  0.052783 0.582565 0
lowpoly_metal.006
0  -0.418952 -0.073700 -0.229677  -0.000003 -0.999999 -0.001622  0.051932 0.583643 0
0  -0.452225 -0.073669 -0.248425  -0.000003 -0.999999 -0.001622  0.051910 0.583729 0
0  0.000000 -0.073257 -0.503238  -0.000003 -0.999999 -0.001622  0.051620 0.582565 0
lowpoly_metal.006
0  0.418952 -0.074465 0.242451  -0.000001 -0.999999 -0.001626  0.052471 0.581486 0
0  0.452226 -0.074495 0.261199  -0.000001 -0.999999 -0.001626  0.052492 0.581400 0
0  0.000000 -0.074909 0.516013  -0.000001 -0.999999 -0.001626  0.052783 0.582565 0
lowpoly_metal.006
0  0.418952 -0.073700 -0.229677  0.000007 -0.999999 -0.001628  0.051932 0.581486 0
0  0.000000 -0.073318 -0.465742  0.000007 -0.999999 -0.001628  0.051662 0.582565 0
0  0.000000 -0.073257 -0.503238  0.000007 -0.999999 -0.001628  0.051620 0.582565 0
lowpoly_metal.006
0  0.000000 -0.000385 0.516133  -0.000004 0.999999 0.001617  0.050456 0.582565 0
0  0.452226 0.000029 0.261321  -0.000004 0.999999 0.001617  0.050747 0.581400 0
0  0.138890 0.000313 0.084768  -0.000004 0.999999 0.001617  0.050948 0.582207 0
lowpoly_metal.006
0  0.000000 -2.401029 -0.466758  0.000046 -0.999999 -0.001695  0.050729 0.584972 0
0  0.418953 -2.401410 -0.230694  0.000046 -0.999999 -0.001695  0.050206 0.585953 0
0  0.411346 -2.401418 -0.226408  0.000046 -0.999999 -0.001695  0.050206 0.585933 0
lowpoly_metal.006
0  0.000000 -2.402558 0.477499  0.000046 -0.999999 -0.001662  0.049683 0.584710 0
0  -0.418952 -2.402177 0.241435  0.000046 -0.999999 -0.001662  0.050206 0.583729 0
0  -0.411345 -2.402169 0.237149  0.000046 -0.999999 -0.001662  0.050206 0.583749 0
lowpoly_metal.006
0  0.000000 -2.401029 -0.466758  -0.000094 -0.999998 -0.001758  0.050729 0.584972 0
0  0.000000 -2.401044 -0.458186  -0.000094 -0.999998 -0.001758  0.050720 0.584969 0
0  -0.411345 -2.401418 -0.226408  -0.000094 -0.999998 -0.001758  0.050720 0.583878 0
lowpoly_metal.006
0  0.000000 -2.402558 0.477499  0.000166 -0.999999 -0.001352  0.049683 0.584710 0
0  0.000000 -2.402547 0.468926  0.000166 -0.999999 -0.001352  0.049693 0.584713 0
0  0.411346 -2.402169 0.237149  0.000166 -0.999999 -0.001352  0.049693 0.585804 0
lowpoly_metal.006
0  0.000000 0.001266 -0.503117  -0.000007 0.999999 0.001620  0.051620 0.582565 0
0  0.000000 0.000694 -0.150010  -0.000007 0.999999 0.001620  0.051216 0.582565 0
0  0.138890 0.000568 -0.071751  -0.000007 0.999999 0.001620  0.051127 0.582207 0
lowpoly_metal.006
0  0.000000 -0.000385 0.516133  -0.000007 0.999999 0.001620  0.050456 0.582565 0
0  0.000000 0.000187 0.163026  -0.000007 0.999999 0.001620  0.050859 0.582565 0
0  -0.138889 0.000313 0.084768  -0.000007 0.999999 0.001620  0.050948 0.582922 0
lowpoly_metal.006
0  0.000000 0.001266 -0.503117  -0.000004 0.999999 0.001617  0.051620 0.582565 0
0  -0.452225 0.000853 -0.248304  -0.000004 0.999999 0.001617  0.051329 0.583729 0
0  -0.138889 0.000568 -0.071751  -0.000004 0.999999 0.001617  0.051127 0.582922 0
lowpoly_metal.006
0  0.000000 -0.059847 -0.150108  -0.000054 0.999999 0.001537  0.198759 0.282565 0
0  -0.138889 -0.059975 -0.071849  -0.000054 0.999999 0.001537  0.198586 0.282890 0
0  -0.124806 -0.059986 -0.063914  -0.000054 0.999999 0.001537  0.198586 0.282853 0
lowpoly_metal.006
0  0.000000 -0.060354 0.162928  0.000021 0.999999 0.001645  0.198412 0.282478 0
0  0.138890 -0.060228 0.084670  0.000021 0.999999 0.001645  0.198586 0.282153 0
0  0.124807 -0.060215 0.076734  0.000021 0.999999 0.001645  0.198586 0.282190 0
lowpoly_metal.006
0  0.000000 -0.059847 -0.150108  -0.000046 0.999999 0.001683  0.198759 0.282565 0
0  0.000000 -0.059874 -0.134238  -0.000046 0.999999 0.001683  0.198741 0.282560 0
0  0.124807 -0.059986 -0.063914  -0.000046 0.999999 0.001683  0.198741 0.282229 0
lowpoly_metal.006
0  0.000000 -0.060354 0.162928  0.000037 0.999999 0.001562  0.198412 0.282478 0
0  0.000000 -0.060329 0.147057  0.000037 0.999999 0.001562  0.198430 0.282482 0
0  -0.124806 -0.060215 0.076734  0.000037 0.999999 0.001562  0.198430 0.282814 0
lowpoly_metal.006
0  -0.418952 -2.402177 0.241435  -0.490899 -0.000381 0.871217  0.048880 0.585958 0
0  0.000000 -0.074848 0.478516  -0.490900 -0.000381 0.871216  0.048175 0.587037 0
0  -0.418952 -0.074465 0.242451  -0.490900 -0.000380 0.871216  0.048163 0.585958 0
lowpoly_metal.006
0  0.418952 -2.402177 0.241435  -0.000087 -0.999999 -0.001621  0.049683 0.585822 0
0  0.411346 -2.402169 0.237149  -0.000090 -0.999999 -0.001621  0.049693 0.585804 0
0  0.411346 -2.401418 -0.226408  0.000086 -0.999999 -0.001623  0.050206 0.585933 0
lowpoly_plastic.004
0  0.411346 -2.396195 -0.226399  0.470610 0.285913 -0.834733  0.089708 0.407095 0
0  0.411346 -2.404276 -0.229167  0.470610 0.285916 -0.834733  0.087758 0.407095 0
0  0.000001 -2.403902 -0.460944  0.470639 0.285701 -0.834790  0.087769 0.406036 0
lowpoly_plastic.004
0  -0.411345 -2.396947 0.237157  -1.000000 -0.000056 -0.000000  0.091994 0.408881 0
0  -0.411345 -2.396195 -0.226399  -1.000000 -0.000057 -0.000000  0.091465 0.408881 0
0  -0.411344 -2.404276 -0.229167  -1.000000 -0.000057 -0.000000  0.091465 0.406929 0
lowpoly_plastic.004
0  0.000000 -2.397321 0.468935  0.470625 -0.285762 0.834777  0.085631 0.408260 0
0  0.000000 -2.405405 0.466167  0.470626 -0.285760 0.834777  0.087581 0.408260 0
0  0.411346 -2.405027 0.234389  0.470596 -0.285976 0.834720  0.087570 0.409319 0
lowpoly_metal.006
0  0.124807 -0.007921 -0.063829  0.000007 0.999999 0.001622  0.203712 0.284742 0
0  0.000000 -0.007807 -0.134153  0.000004 0.999999 0.001621  0.203632 0.284421 0
0  0.000000 -0.008263 0.147142  0.000009 0.999999 0.001624  0.203953 0.284421 0
lowpoly_plastic.004
0  0.000001 -2.444944 0.340308  -0.490897 0.001405 -0.871217  0.056830 0.550273 0
0  0.000001 -2.382845 0.340408  -0.490897 0.001405 -0.871217  0.056901 0.550273 0
0  0.299719 -2.382570 0.171528  -0.490898 0.001405 -0.871216  0.056910 0.551045 0
lowpoly_metal.006
0  0.138890 0.000313 0.084768  -1.000000 -0.000000 0.000000  0.201972 0.279613 0
0  0.138890 0.000568 -0.071751  -1.000000 -0.000000 0.000000  0.201972 0.279792 0
0  0.138890 -0.059975 -0.071849  -1.000000 -0.000000 0.000000  0.201903 0.279792 0
lowpoly_metal.006
0  0.000000 -0.059874 -0.134238  0.490900 0.001420 -0.871215  0.198025 0.283213 0
0  0.000000 -0.007807 -0.134153  0.490900 0.001420 -0.871215  0.198085 0.283213 0
0  0.124807 -0.007921 -0.063829  0.490900 0.001420 -0.871215  0.198081 0.283534 0
lowpoly_metal.006
0  -0.452225 -0.073669 -0.248425  -0.490900 0.001416 -0.871215  0.049390 0.583729 0
0  -0.452225 0.000853 -0.248304  -0.490900 0.001416 -0.871215  0.049475 0.583729 0
0  0.000000 0.001266 -0.503117  -0.490900 0.001416 -0.871215  0.049488 0.584893 0
lowpoly_metal.006
0  -0.418952 -2.401410 -0.230694  -1.000000 0.000000 0.000000  0.049099 0.587512 0
0  -0.418952 -2.402177 0.241435  -1.000000 0.000000 0.000000  0.049639 0.587512 0
0  -0.418952 -0.074465 0.242451  -1.000000 0.000000 0.000000  0.049639 0.588230 0
lowpoly_metal.006
0  0.000000 -2.401029 -0.466758  -0.490899 0.000381 -0.871217  0.053795 0.584808 0
0  -0.418952 -2.401410 -0.230694  -0.490898 0.000381 -0.871217  0.053783 0.583729 0
0  -0.418952 -0.073700 -0.229677  -0.490900 0.000381 -0.871216  0.054500 0.583729 0
lowpoly_plastic.004
0  0.411346 -2.396947 0.237157  1.000000 0.000032 0.000000  0.090682 0.404600 0
0  0.411346 -2.405027 0.234389  1.000000 0.000032 0.000000  0.090682 0.402648 0
0  0.411346 -2.404276 -0.229167  1.000000 0.000036 0.000000  0.091211 0.402648 0
lowpoly_metal.006
0  -0.138889 0.000568 -0.071751  0.490896 -0.001414 0.871217  0.198081 0.282891 0
0  -0.138889 -0.059975 -0.071849  0.490896 -0.001414 0.871217  0.198012 0.282891 0
0  0.000000 -0.059847 -0.150108  0.490896 -0.001414 0.871217  0.198016 0.282534 0
lowpoly_metal.006
0  0.000000 -0.007807 -0.134153  -0.000006 0.999999 0.001624  0.203632 0.284421 0
0  -0.124806 -0.007921 -0.063829  0.000000 0.999999 0.001627  0.203712 0.284100 0
0  -0.124806 -0.008150 0.076818  -0.000009 0.999999 0.001622  0.203872 0.284100 0
lowpoly_metal.006
0  0.452226 -0.074495 0.261199  1.000000 0.000001 0.000000  0.053688 0.587966 0
0  0.452226 -0.073669 -0.248425  1.000000 -0.000001 0.000000  0.053688 0.588548 0
0  0.452226 0.000853 -0.248304  1.000000 -0.000000 0.000000  0.053602 0.588548 0
lowpoly_plastic.004
0  0.000001 -2.443850 -0.335213  -0.490899 -0.001405 0.871215  0.056980 0.550273 0
0  0.299719 -2.444124 -0.166333  -0.490900 -0.001405 0.871215  0.056989 0.551045 0
0  0.299719 -2.382021 -0.166233  -0.490900 -0.001405 0.871215  0.056918 0.551045 0
lowpoly_metal.006
0  0.000000 0.000694 -0.150010  -0.490895 -0.001414 0.871217  0.198085 0.282534 0
0  0.000000 -0.059847 -0.150108  -0.490895 -0.001414 0.871217  0.198016 0.282534 0
0  0.138890 -0.059975 -0.071849  -0.490895 -0.001414 0.871217  0.198012 0.282176 0
lowpoly_plastic.004
0  0.000001 -2.382845 0.340408  -0.000005 -0.999999 -0.001624  0.063387 0.554036 0
0  -0.299718 -2.382570 0.171528  -0.000000 -0.999999 -0.001626  0.063762 0.553334 0
0  -0.299718 -2.382021 -0.166233  -0.000007 -0.999999 -0.001622  0.064136 0.553427 0
lowpoly_metal.006
0  0.418952 -0.073700 -0.229677  0.490900 0.000381 -0.871216  0.054500 0.585887 0
0  0.418953 -2.401410 -0.230694  0.490898 0.000381 -0.871217  0.053783 0.585887 0
0  0.000000 -2.401029 -0.466758  0.490899 0.000381 -0.871217  0.053795 0.584808 0
lowpoly_metal.006
0  0.000000 0.000187 0.163026  -0.490895 0.001414 -0.871217  0.200834 0.282405 0
0  0.138890 0.000313 0.084768  -0.490895 0.001414 -0.871217  0.200838 0.282763 0
0  0.138890 -0.060228 0.084670  -0.490895 0.001414 -0.871217  0.200769 0.282763 0
lowpoly_metal.006
0  -0.418952 -2.402177 0.241435  0.000087 -0.999999 -0.001622  0.050206 0.583729 0
0  -0.418952 -2.401410 -0.230694  -0.000088 -0.999999 -0.001623  0.050729 0.583860 0
0  -0.411345 -2.401418 -0.226408  -0.000086 -0.999999 -0.001623  0.050720 0.583878 0
lowpoly_plastic.004
0  0.411346 -2.404276 -0.229167  0.759665 -0.650314 -0.001051  0.090671 0.407135 0
0  0.411346 -2.405027 0.234389  0.759644 -0.650338 -0.001054  0.091200 0.407135 0
0  0.377319 -2.444742 0.215151  0.759646 -0.650336 -0.001054  0.091176 0.407222 0
lowpoly_plastic.004
0  -0.411345 -2.396947 0.237157  -0.470599 -0.286016 0.834705  0.085620 0.407201 0
0  -0.411344 -2.405027 0.234389  -0.470598 -0.286018 0.834704  0.087570 0.407201 0
0  0.000000 -2.405405 0.466167  -0.470613 -0.285786 0.834775  0.087581 0.408260 0
lowpoly_plastic.004
0  0.000001 -2.443850 -0.335213  0.490899 -0.001405 0.871215  0.056980 0.550273 0
0  0.000001 -2.381750 -0.335113  0.490899 -0.001405 0.871216  0.056910 0.550273 0
0  -0.299718 -2.382021 -0.166233  0.490900 -0.001405 0.871215  0.056918 0.549501 0
lowpoly_metal.006
0  0.000000 -2.402558 0.477499  0.490899 -0.000381 0.871217  0.048892 0.587037 0
0  0.418952 -2.402177 0.241435  0.490898 -0.000381 0.871217  0.048880 0.588116 0
0  0.418952 -0.074465 0.242451  0.490900 -0.000381 0.871216  0.048163 0.588116 0
lowpoly_metal.006
0  -0.452225 0.000027 0.261321  -0.000002 0.999999 0.001624  0.050747 0.583729 0
0  -0.138889 0.000313 0.084768  0.000007 0.999999 0.001633  0.050948 0.582922 0
0  -0.138889 0.000568 -0.071751  -0.000001 0.999999 0.001625  0.051127 0.582922 0
lowpoly_metal.006
0  0.452226 0.000853 -0.248304  0.000001 0.999999 0.001621  0.051329 0.581400 0
0  0.138890 0.000568 -0.071751  0.000013 0.999999 0.001633  0.051127 0.582207 0
0  0.138890 0.000313 0.084768  0.000002 0.999999 0.001623  0.050948 0.582207 0
lowpoly_metal.006
0  0.000000 0.000187 0.163026  0.490896 0.001414 -0.871217  0.200834 0.282405 0
0  0.000000 -0.060354 0.162928  0.490896 0.001414 -0.871217  0.200765 0.282405 0
0  -0.138889 -0.060228 0.084670  0.490896 0.001414 -0.871217  0.200769 0.282048 0
lowpoly_metal.006
0  0.000000 -0.074909 0.516013  0.490899 -0.001406 0.871216  0.049585 0.584893 0
0  0.452226 -0.074495 0.261199  0.490900 -0.001416 0.871215  0.049573 0.586058 0
0  0.452226 0.000029 0.261321  0.490900 -0.001415 0.871215  0.049488 0.586058 0
lowpoly_metal.006
0  0.124807 -0.059986 -0.063914  1.000000 0.000000 0.000000  0.202299 0.279774 0
0  0.124807 -0.007921 -0.063829  1.000000 0.000000 0.000000  0.202240 0.279774 0
0  0.124807 -0.008150 0.076818  1.000000 0.000000 0.000000  0.202240 0.279613 0
lowpoly_metal.006
0  0.000000 -0.074909 0.516013  -0.490899 -0.001406 0.871216  0.049585 0.584893 0
0  0.000000 -0.000385 0.516133  -0.490899 -0.001405 0.871216  0.049500 0.584893 0
0  -0.452225 0.000027 0.261321  -0.490900 -0.001415 0.871215  0.049488 0.583729 0
lowpoly_plastic.004
0  0.299719 -2.444124 -0.166333  -1.000000 -0.000000 0.000000  0.056753 0.553526 0
0  0.299719 -2.444674 0.171428  -1.000000 -0.000000 0.000000  0.056753 0.553140 0
0  0.299719 -2.382570 0.171528  -1.000000 -0.000000 0.000000  0.056824 0.553140 0
lowpoly_metal.006
0  0.000000 -0.060329 0.147057  0.490899 -0.001417 0.871216  0.198148 0.283160 0
0  0.124807 -0.060215 0.076734  0.490895 -0.001404 0.871218  0.198151 0.282839 0
0  0.124807 -0.008150 0.076818  0.490896 -0.001408 0.871217  0.198211 0.282839 0
lowpoly_metal.006
0  0.000000 -0.060329 0.147057  -0.490899 -0.001417 0.871215  0.198148 0.283160 0
0  0.000000 -0.008263 0.147142  -0.490900 -0.001420 0.871215  0.198207 0.283160 0
0  -0.124806 -0.008150 0.076818  -0.490897 -0.001408 0.871217  0.198211 0.283481 0
lowpoly_metal.006
0  -0.124806 -0.060215 0.076734  -1.000000 -0.000000 0.000000  0.202180 0.279613 0
0  -0.124806 -0.008150 0.076818  -1.000000 -0.000001 0.000000  0.202240 0.279613 0
0  -0.124806 -0.007921 -0.063829  -1.000000 0.000000 0.000000  0.202240 0.279774 0
lowpoly_plastic.004
0  -0.411344 -2.404276 -0.229167  -0.759667 -0.650312 -0.001051  0.090671 0.409253 0
0  -0.377318 -2.444056 -0.210059  -0.759669 -0.650309 -0.001050  0.090691 0.409165 0
0  -0.377318 -2.444742 0.215151  -0.759648 -0.650333 -0.001054  0.091176 0.409165 0
lowpoly_plastic.004
0  0.000000 -2.395818 -0.458177  -0.470635 0.285671 -0.834802  0.089720 0.406036 0
0  0.000001 -2.403902 -0.460944  -0.470635 0.285669 -0.834803  0.087769 0.406036 0
0  -0.411344 -2.404276 -0.229167  -0.470617 0.285873 -0.834743  0.087758 0.404977 0
lowpoly_plastic.004
0  -0.299718 -2.444674 0.171428  0.490898 0.001405 -0.871216  0.056839 0.549501 0
0  -0.299718 -2.382570 0.171528  0.490898 0.001405 -0.871216  0.056910 0.549501 0
0  0.000001 -2.382845 0.340408  0.490897 0.001405 -0.871217  0.056901 0.550273 0
lowpoly_metal.006
0  0.418952 -2.402177 0.241435  1.000000 0.000000 0.000000  0.053063 0.587966 0
0  0.418953 -2.401410 -0.230694  1.000000 0.000000 0.000001  0.053602 0.587966 0
0  0.418952 -0.073700 -0.229677  1.000000 0.000000 0.000000  0.053602 0.588683 0
lowpoly_metal.006
0  -0.138889 -0.059975 -0.071849  -0.000098 0.999999 0.001627  0.198586 0.282890 0
0  -0.138889 -0.060228 0.084670  -0.000035 0.999999 0.001621  0.198412 0.282847 0
0  -0.124806 -0.060215 0.076734  -0.000038 0.999999 0.001621  0.198430 0.282814 0
lowpoly_metal.006
0  0.418952 -0.074465 0.242451  -0.000004 -0.999999 -0.001621  0.052471 0.581486 0
0  0.418952 -0.073700 -0.229677  0.000004 -0.999999 -0.001620  0.051932 0.581486 0
0  0.452226 -0.073669 -0.248425  0.000004 -0.999999 -0.001620  0.051910 0.581400 0
lowpoly_plastic.004
0  -0.299718 -2.444124 -0.166333  1.000000 -0.000000 0.000000  0.056824 0.553912 0
0  -0.299718 -2.382021 -0.166233  1.000000 0.000000 0.000000  0.056753 0.553912 0
0  -0.299718 -2.382570 0.171528  1.000000 -0.000000 0.000000  0.056753 0.553526 0
lowpoly_metal.006
0  0.000000 -0.073257 -0.503238  0.490900 0.001416 -0.871215  0.049403 0.584893 0
0  0.000000 0.001266 -0.503117  0.490900 0.001416 -0.871215  0.049488 0.584893 0
0  0.452226 0.000853 -0.248304  0.490900 0.001416 -0.871215  0.049475 0.586058 0
lowpoly_metal.006
0  -0.452225 -0.074495 0.261199  -1.000000 0.000000 0.000000  0.051655 0.587893 0
0  -0.452225 0.000027 0.261321  -1.000000 0.000000 0.000000  0.051740 0.587893 0
0  -0.452225 0.000853 -0.248304  -1.000000 0.000000 0.000000  0.051740 0.588476 0
lowpoly_metal.006
0  -0.418952 -0.074465 0.242451  0.000004 -0.999999 -0.001621  0.052471 0.583643 0
0  -0.452225 -0.074495 0.261199  0.000004 -0.999999 -0.001621  0.052492 0.583729 0
0  -0.452225 -0.073669 -0.248425  -0.000004 -0.999999 -0.001620  0.051910 0.583729 0
lowpoly_metal.006
0  -0.124806 -0.059986 -0.063914  -0.490900 0.001420 -0.871214  0.198022 0.282891 0
0  -0.124806 -0.007921 -0.063829  -0.490901 0.001420 -0.871215  0.198081 0.282891 0
0  0.000000 -0.007807 -0.134153  -0.490900 0.001420 -0.871215  0.198085 0.283213 0
lowpoly_metal.006
0  -0.138889 0.000313 0.084768  1.000000 0.000000 0.000000  0.201972 0.279613 0
0  -0.138889 -0.060228 0.084670  1.000000 0.000000 0.000000  0.202042 0.279613 0
0  -0.138889 -0.059975 -0.071849  1.000000 -0.000000 0.000000  0.202042 0.279792 0
lowpoly_plastic.004
0  0.377319 -2.444742 0.215151  0.000021 -0.999999 -0.001624  0.091176 0.407222 0
0  0.299719 -2.444674 0.171428  0.000031 -0.999999 -0.001626  0.091126 0.407422 0
0  0.299719 -2.444124 -0.166333  -0.000020 -0.999999 -0.001616  0.090741 0.407422 0
lowpoly_metal.006
0  0.138890 -0.060228 0.084670  0.000037 0.999999 0.001627  0.198586 0.282153 0
0  0.138890 -0.059975 -0.071849  0.000101 0.999999 0.001621  0.198759 0.282196 0
0  0.124807 -0.059986 -0.063914  0.000097 0.999999 0.001621  0.198741 0.282229 0
lowpoly_plastic.004
0  0.299719 -2.382570 0.171528  0.000006 -0.999999 -0.001622  0.063387 0.554831 0
0  0.000001 -2.382845 0.340408  0.000003 -0.999999 -0.001620  0.063387 0.554036 0
0  0.000001 -2.381750 -0.335113  0.000008 -0.999999 -0.001624  0.064136 0.554223 0
lowpoly_plastic.004
0  -0.377318 -2.444056 -0.210059  0.000021 -0.999999 -0.001624  0.090691 0.409165 0
0  -0.299718 -2.444124 -0.166333  0.000032 -0.999999 -0.001626  0.090741 0.408965 0
0  -0.299718 -2.444674 0.171428  -0.000020 -0.999999 -0.001616  0.091126 0.408965 0
lowpoly_metal.006
0  -0.418952 -2.402177 0.241435  -0.490899 -0.000381 0.871217  0.048880 0.585958 0
0  0.000000 -2.402558 0.477499  -0.490899 -0.000381 0.871217  0.048892 0.587037 0
0  0.000000 -0.074848 0.478516  -0.490900 -0.000381 0.871216  0.048175 0.587037 0
end
