version 1
nodes
0 "root" -1
end
skeleton
time 0
0 0 0 0 0 0 0
end
triangles
lowpoly_metal.006
0  0.418952 -2.402177 0.241435  -0.000087 -0.999999 -0.001621  0.186816 0.094295 0
0  0.411346 -2.401418 -0.226408  0.000086 -0.999999 -0.001623  0.187339 0.094405 0
0  0.418953 -2.401410 -0.230694  0.000088 -0.999999 -0.001623  0.187339 0.094426 0
lowpoly_plastic.004
0  0.411346 -2.396195 -0.226399  0.470610 0.285913 -0.834733  0.089708 0.407095 0
0  0.000001 -2.403902 -0.460944  0.470639 0.285701 -0.834790  0.087769 0.406036 0
0  0.000000 -2.395818 -0.458177  0.470639 0.285698 -0.834790  0.089720 0.406036 0
lowpoly_plastic.004
0  -0.411345 -2.396947 0.237157  -1.000000 -0.000056 -0.000000  0.091994 0.408881 0
0  -0.411344 -2.404276 -0.229167  -1.000000 -0.000057 -0.000000  0.091465 0.406929 0
0  -0.411344 -2.405027 0.234389  -1.000000 -0.000056 -0.000000  0.091994 0.406929 0
lowpoly_plastic.004
0  0.000000 -2.397321 0.468935  0.470625 -0.285762 0.834777  0.085631 0.408260 0
0  0.411346 -2.405027 0.234389  0.470596 -0.285976 0.834720  0.087570 0.409319 0
0  0.411346 -2.396947 0.237157  0.470596 -0.285978 0.834719  0.085620 0.409319 0
lowpoly_metal.006
0  0.124807 -0.007921 -0.063829  0.000007 0.999999 0.001622  0.203712 0.284742 0
0  0.000000 -0.008263 0.147142  0.000009 0.999999 0.001624  0.203953 0.284421 0
0  0.124807 -0.008150 0.076818  0.000015 0.999999 0.001627  0.203872 0.284742 0
lowpoly_plastic.004
0  0.000001 -2.444944 0.340308  -0.490897 0.001405 -0.871217  0.023497 0.511059 0
0  0.299719 -2.382570 0.171528  -0.490898 0.001405 -0.871216  0.023576 0.511831 0
0  0.299719 -2.444674 0.171428  -0.490898 0.001405 -0.871216  0.023505 0.511831 0
lowpoly_metal.006
0  0.138890 0.000313 0.084768  -1.000000 -0.000000 0.000000  0.201972 0.279613 0
0  0.138890 -0.059975 -0.071849  -1.000000 -0.000000 0.000000  0.201903 0.279792 0
0  0.138890 -0.060228 0.084670  -1.000000 0.000000 0.000000  0.201903 0.279613 0
lowpoly_metal.006
0  0.000000 -0.059874 -0.134238  0.490900 0.001420 -0.871215  0.198025 0.283213 0
0  0.124807 -0.007921 -0.063829  0.490900 0.001420 -0.871215  0.198081 0.283534 0
0  0.124807 -0.059986 -0.063914  0.490900 0.001420 -0.871215  0.198022 0.283534 0
lowpoly_metal.006
0  -0.452225 -0.073669 -0.248425  -0.490900 0.001416 -0.871215  0.186523 0.092202 0
0  0.000000 0.001266 -0.503117  -0.490900 0.001416 -0.871215  0.186620 0.093366 0
0  0.000000 -0.073257 -0.503238  -0.490900 0.001416 -0.871215  0.186535 0.093366 0
lowpoly_metal.006
0  -0.418952 -2.401410 -0.230694  -1.000000 0.000000 0.000000  0.186232 0.095985 0
0  -0.418952 -0.074465 0.242451  -1.000000 0.000000 0.000000  0.186772 0.096703 0
0  -0.418952 -0.073700 -0.229677  -1.000000 0.000000 0.000000  0.186232 0.096703 0
lowpoly_metal.006
0  0.000000 -2.401029 -0.466758  -0.490899 0.000381 -0.871217  0.190927 0.093280 0
0  -0.418952 -0.073700 -0.229677  -0.490900 0.000381 -0.871216  0.191632 0.092202 0
0  0.000000 -0.073318 -0.465742  -0.490900 0.000380 -0.871216  0.191644 0.093280 0
lowpoly_plastic.004
0  0.411346 -2.396947 0.237157  1.000000 0.000032 0.000000  0.090682 0.404600 0
0  0.411346 -2.404276 -0.229167  1.000000 0.000036 0.000000  0.091211 0.402648 0
0  0.411346 -2.396195 -0.226399  1.000000 0.000036 0.000000  0.091211 0.404600 0
lowpoly_metal.006
0  -0.138889 0.000568 -0.071751  0.490896 -0.001414 0.871217  0.198081 0.282891 0
0  0.000000 -0.059847 -0.150108  0.490896 -0.001414 0.871217  0.198016 0.282534 0
0  0.000000 0.000694 -0.150010  0.490896 -0.001414 0.871217  0.198085 0.282534 0
lowpoly_metal.006
0  0.000000 -0.007807 -0.134153  -0.000006 0.999999 0.001624  0.203632 0.284421 0
0  -0.124806 -0.008150 0.076818  -0.000009 0.999999 0.001622  0.203872 0.284100 0
0  0.000000 -0.008263 0.147142  -0.000011 0.999999 0.001621  0.203953 0.284421 0
lowpoly_metal.006
0  0.452226 -0.074495 0.261199  1.000000 0.000001 0.000000  0.190820 0.096438 0
0  0.452226 0.000853 -0.248304  1.000000 -0.000000 0.000000  0.190735 0.097021 0
0  0.452226 0.000029 0.261321  1.000000 0.000001 0.000000  0.190735 0.096438 0
lowpoly_plastic.004
0  0.000001 -2.443850 -0.335213  -0.490899 -0.001405 0.871215  0.023647 0.511059 0
0  0.299719 -2.382021 -0.166233  -0.490900 -0.001405 0.871215  0.023584 0.511831 0
0  0.000001 -2.381750 -0.335113  -0.490899 -0.001405 0.871216  0.023576 0.511059 0
lowpoly_metal.006
0  0.000000 0.000694 -0.150010  -0.490895 -0.001414 0.871217  0.198085 0.282534 0
0  0.138890 -0.059975 -0.071849  -0.490895 -0.001414 0.871217  0.198012 0.282176 0
0  0.138890 0.000568 -0.071751  -0.490895 -0.001414 0.871217  0.198081 0.282176 0
lowpoly_plastic.004
0  0.000001 -2.382845 0.340408  -0.000005 -0.999999 -0.001624  0.030054 0.514822 0
0  -0.299718 -2.382021 -0.166233  -0.000007 -0.999999 -0.001622  0.030802 0.514213 0
0  0.000001 -2.381750 -0.335113  -0.000010 -0.999999 -0.001621  0.030802 0.515008 0
lowpoly_metal.006
0  0.418952 -0.073700 -0.229677  0.490900 0.000381 -0.871216  0.191632 0.094359 0
0  0.000000 -2.401029 -0.466758  0.490899 0.000381 -0.871217  0.190927 0.093280 0
0  0.000000 -0.073318 -0.465742  0.490900 0.000381 -0.871216  0.191644 0.093280 0
lowpoly_metal.006
0  0.000000 0.000187 0.163026  -0.490895 0.001414 -0.871217  0.200834 0.282405 0
0  0.138890 -0.060228 0.084670  -0.490895 0.001414 -0.871217  0.200769 0.282763 0
0  0.000000 -0.060354 0.162928  -0.490895 0.001414 -0.871217  0.200765 0.282405 0
lowpoly_metal.006
0  -0.418952 -2.402177 0.241435  0.000087 -0.999999 -0.001622  0.187339 0.092202 0
0  -0.411345 -2.401418 -0.226408  -0.000086 -0.999999 -0.001623  0.187852 0.092350 0
0  -0.411345 -2.402169 0.237149  0.000090 -0.999999 -0.001622  0.187339 0.092222 0
lowpoly_plastic.004
0  0.411346 -2.404276 -0.229167  0.759665 -0.650314 -0.001051  0.090671 0.407135 0
0  0.377319 -2.444742 0.215151  0.759646 -0.650336 -0.001054  0.091176 0.407222 0
0  0.377319 -2.444056 -0.210059  0.759667 -0.650312 -0.001050  0.090691 0.407222 0
lowpoly_plastic.004
0  -0.411345 -2.396947 0.237157  -0.470599 -0.286016 0.834705  0.085620 0.407201 0
0  0.000000 -2.405405 0.466167  -0.470613 -0.285786 0.834775  0.087581 0.408260 0
0  0.000000 -2.397321 0.468935  -0.470614 -0.285784 0.834776  0.085631 0.408260 0
lowpoly_plastic.004
0  0.000001 -2.443850 -0.335213  0.490899 -0.001405 0.871215  0.023647 0.511059 0
0  -0.299718 -2.382021 -0.166233  0.490900 -0.001405 0.871215  0.023584 0.510287 0
0  -0.299718 -2.444124 -0.166333  0.490900 -0.001405 0.871215  0.023655 0.510287 0
lowpoly_plastic.004
0  0.000001 -2.443708 -0.422663  0.000018 -0.999999 -0.001604  0.090448 0.408194 0
0  -0.299718 -2.444124 -0.166333  0.000018 -0.999999 -0.001604  0.090741 0.408965 0
0  -0.377318 -2.444056 -0.210059  0.000018 -0.999999 -0.001604  0.090691 0.409165 0
lowpoly_plastic.004
0  0.000001 -2.403902 -0.460944  0.375779 -0.642356 -0.667959  0.087769 0.406036 0
0  0.377319 -2.444056 -0.210059  0.375779 -0.642356 -0.667959  0.087712 0.407008 0
0  0.000001 -2.443708 -0.422663  0.375779 -0.642356 -0.667959  0.087722 0.406036 0
lowpoly_plastic.004
0  0.000000 -2.405405 0.466167  -0.375799 -0.644495 0.665884  0.091465 0.408194 0
0  -0.377318 -2.444742 0.215151  -0.375799 -0.644495 0.665884  0.091176 0.409165 0
0  0.000001 -2.445089 0.427758  -0.375799 -0.644495 0.665884  0.091419 0.408194 0
lowpoly_plastic.004
0  0.000001 -2.403902 -0.460944  -0.375802 -0.642315 -0.667985  0.087769 0.406036 0
0  -0.377318 -2.444056 -0.210059  -0.375802 -0.642315 -0.667985  0.087712 0.405065 0
0  -0.411344 -2.404276 -0.229167  -0.375802 -0.642315 -0.667985  0.087758 0.404977 0
lowpoly_plastic.004
0  0.000000 -2.405405 0.466167  0.375788 -0.644512 0.665874  0.091465 0.408194 0
0  0.377319 -2.444742 0.215151  0.375788 -0.644512 0.665874  0.091176 0.407222 0
0  0.411346 -2.405027 0.234389  0.375788 -0.644512 0.665874  0.091200 0.407135 0
lowpoly_metal.006
0  0.000000 -2.402558 0.477499  0.490899 -0.000381 0.871217  0.186024 0.095510 0
0  0.418952 -0.074465 0.242451  0.490900 -0.000381 0.871216  0.185296 0.096588 0
0  0.000000 -0.074848 0.478516  0.490900 -0.000381 0.871216  0.185308 0.095510 0
lowpoly_metal.006
0  -0.452225 0.000027 0.261321  -0.000002 0.999999 0.001624  0.187879 0.092202 0
0  -0.138889 0.000568 -0.071751  -0.000001 0.999999 0.001625  0.188260 0.091395 0
0  -0.452225 0.000853 -0.248304  -0.000006 0.999999 0.001621  0.188461 0.092202 0
lowpoly_plastic.004
0  0.000001 -2.445089 0.427758  0.000018 -0.999999 -0.001599  0.091419 0.408194 0
0  0.299719 -2.444674 0.171428  0.000018 -0.999999 -0.001599  0.091126 0.407422 0
0  0.377319 -2.444742 0.215151  0.000018 -0.999999 -0.001599  0.091176 0.407222 0
lowpoly_plastic.004
0  0.000001 -2.443708 -0.422663  -0.000007 -0.999999 -0.001610  0.090448 0.408194 0
0  0.299719 -2.444124 -0.166333  -0.000007 -0.999999 -0.001610  0.090741 0.407422 0
0  0.000001 -2.443850 -0.335213  -0.000007 -0.999999 -0.001610  0.090548 0.408194 0
lowpoly_plastic.004
0  0.000001 -2.445089 0.427758  0.000030 -0.999999 -0.001660  0.091419 0.408194 0
0  -0.299718 -2.444674 0.171428  0.000030 -0.999999 -0.001660  0.091126 0.408965 0
0  0.000001 -2.444944 0.340308  0.000030 -0.999999 -0.001660  0.091319 0.408194 0
lowpoly_metal.006
0  0.452226 0.000853 -0.248304  0.000001 0.999999 0.001621  0.188461 0.089873 0
0  0.138890 0.000313 0.084768  0.000002 0.999999 0.001623  0.188081 0.090680 0
0  0.452226 0.000029 0.261321  -0.000004 0.999999 0.001617  0.187879 0.089873 0
lowpoly_metal.006
0  0.000000 0.000187 0.163026  0.490896 0.001414 -0.871217  0.200834 0.282405 0
0  -0.138889 -0.060228 0.084670  0.490896 0.001414 -0.871217  0.200769 0.282048 0
0  -0.138889 0.000313 0.084768  0.490896 0.001414 -0.871217  0.200838 0.282048 0
lowpoly_metal.006
0  0.000000 -0.074909 0.516013  0.490899 -0.001406 0.871216  0.186718 0.093366 0
0  0.452226 0.000029 0.261321  0.490900 -0.001415 0.871215  0.186620 0.094531 0
0  0.000000 -0.000385 0.516133  0.490898 -0.001405 0.871216  0.186633 0.093366 0
lowpoly_metal.006
0  0.124807 -0.059986 -0.063914  1.000000 0.000000 0.000000  0.202299 0.279774 0
0  0.124807 -0.008150 0.076818  1.000000 0.000000 0.000000  0.202240 0.279613 0
0  0.124807 -0.060215 0.076734  1.000000 0.000000 0.000000  0.202299 0.279613 0
lowpoly_metal.006
0  0.000000 -0.074909 0.516013  -0.490899 -0.001406 0.871216  0.186718 0.093366 0
0  -0.452225 0.000027 0.261321  -0.490900 -0.001415 0.871215  0.186620 0.092202 0
0  -0.452225 -0.074495 0.261199  -0.490900 -0.001416 0.871215  0.186705 0.092202 0
lowpoly_plastic.004
0  0.299719 -2.444124 -0.166333  -1.000000 -0.000000 0.000000  0.023420 0.514312 0
0  0.299719 -2.382570 0.171528  -1.000000 -0.000000 0.000000  0.023491 0.513926 0
0  0.299719 -2.382021 -0.166233  -1.000000 0.000000 0.000000  0.023491 0.514312 0
lowpoly_metal.006
0  0.000000 -0.060329 0.147057  0.490899 -0.001417 0.871216  0.198148 0.283160 0
0  0.124807 -0.008150 0.076818  0.490896 -0.001408 0.871217  0.198211 0.282839 0
0  0.000000 -0.008263 0.147142  0.490900 -0.001420 0.871215  0.198207 0.283160 0
lowpoly_metal.006
0  0.000000 -0.060329 0.147057  -0.490899 -0.001417 0.871215  0.198148 0.283160 0
0  -0.124806 -0.008150 0.076818  -0.490897 -0.001408 0.871217  0.198211 0.283481 0
0  -0.124806 -0.060215 0.076734  -0.490895 -0.001404 0.871217  0.198151 0.283481 0
lowpoly_metal.006
0  -0.124806 -0.060215 0.076734  -1.000000 -0.000000 0.000000  0.202180 0.279613 0
0  -0.124806 -0.007921 -0.063829  -1.000000 0.000000 0.000000  0.202240 0.279774 0
0  -0.124806 -0.059986 -0.063914  -1.000000 0.000000 0.000000  0.202180 0.279774 0
lowpoly_plastic.004
0  -0.411344 -2.404276 -0.229167  -0.759667 -0.650312 -0.001051  0.090671 0.409253 0
0  -0.377318 -2.444742 0.215151  -0.759648 -0.650333 -0.001054  0.091176 0.409165 0
0  -0.411344 -2.405027 0.234389  -0.759647 -0.650335 -0.001054  0.091200 0.409253 0
lowpoly_plastic.004
0  0.000000 -2.395818 -0.458177  -0.470635 0.285671 -0.834802  0.089720 0.406036 0
0  -0.411344 -2.404276 -0.229167  -0.470617 0.285873 -0.834743  0.087758 0.404977 0
0  -0.411345 -2.396195 -0.226399  -0.470617 0.285876 -0.834742  0.089708 0.404977 0
lowpoly_plastic.004
0  -0.299718 -2.444674 0.171428  0.490898 0.001405 -0.871216  0.023505 0.510287 0
0  0.000001 -2.382845 0.340408  0.490897 0.001405 -0.871217  0.023568 0.511059 0
0  0.000001 -2.444944 0.340308  0.490897 0.001405 -0.871217  0.023497 0.511059 0
lowpoly_metal.006
0  -0.418952 -0.074465 0.242451  0.000001 -0.999999 -0.001626  0.189604 0.092116 0
0  0.000000 -0.074909 0.516013  0.000001 -0.999999 -0.001626  0.189916 0.091037 0
0  -0.452225 -0.074495 0.261199  0.000001 -0.999999 -0.001626  0.189625 0.092202 0
lowpoly_metal.006
0  0.418952 -2.402177 0.241435  1.000000 0.000000 0.000000  0.190195 0.096438 0
0  0.418952 -0.073700 -0.229677  1.000000 0.000000 0.000000  0.190735 0.097156 0
0  0.418952 -0.074465 0.242451  1.000000 0.000000 0.000000  0.190195 0.097156 0
lowpoly_metal.006
0  -0.138889 -0.059975 -0.071849  -0.000098 0.999999 0.001627  0.198586 0.282890 0
0  -0.124806 -0.060215 0.076734  -0.000038 0.999999 0.001621  0.198430 0.282814 0
0  -0.124806 -0.059986 -0.063914  -0.000104 0.999999 0.001627  0.198586 0.282853 0
lowpoly_metal.006
0  -0.418952 -0.073700 -0.229677  -0.000007 -0.999999 -0.001628  0.189065 0.092116 0
0  0.000000 -0.073257 -0.503238  -0.000007 -0.999999 -0.001628  0.188752 0.091037 0
0  0.000000 -0.073318 -0.465742  -0.000007 -0.999999 -0.001628  0.188795 0.091037 0
lowpoly_metal.006
0  0.418952 -0.074465 0.242451  -0.000002 -0.999999 -0.001628  0.189604 0.089959 0
0  0.000000 -0.074909 0.516013  -0.000002 -0.999999 -0.001628  0.189916 0.091037 0
0  0.000000 -0.074848 0.478516  -0.000002 -0.999999 -0.001628  0.189873 0.091037 0
lowpoly_metal.006
0  0.418952 -0.074465 0.242451  -0.000004 -0.999999 -0.001621  0.189604 0.089959 0
0  0.452226 -0.073669 -0.248425  0.000004 -0.999999 -0.001620  0.189043 0.089873 0
0  0.452226 -0.074495 0.261199  -0.000004 -0.999999 -0.001621  0.189625 0.089873 0
lowpoly_metal.006
0  0.418952 -0.073700 -0.229677  0.000003 -0.999999 -0.001622  0.189065 0.089959 0
0  0.000000 -0.073257 -0.503238  0.000003 -0.999999 -0.001622  0.188752 0.091037 0
0  0.452226 -0.073669 -0.248425  0.000003 -0.999999 -0.001622  0.189043 0.089873 0
lowpoly_metal.006
0  0.000000 -0.000385 0.516133  0.000007 0.999999 0.001620  0.187589 0.091037 0
0  0.138890 0.000313 0.084768  0.000007 0.999999 0.001620  0.188081 0.090680 0
0  0.000000 0.000187 0.163026  0.000007 0.999999 0.001620  0.187992 0.091037 0
lowpoly_plastic.004
0  -0.299718 -2.444124 -0.166333  1.000000 -0.000000 0.000000  0.023491 0.514698 0
0  -0.299718 -2.382570 0.171528  1.000000 -0.000000 0.000000  0.023420 0.514312 0
0  -0.299718 -2.444674 0.171428  1.000000 -0.000000 0.000000  0.023491 0.514312 0
lowpoly_metal.006
0  0.000000 -0.073257 -0.503238  0.490900 0.001416 -0.871215  0.186535 0.093366 0
0  0.452226 0.000853 -0.248304  0.490900 0.001416 -0.871215  0.186608 0.094531 0
0  0.452226 -0.073669 -0.248425  0.490900 0.001416 -0.871215  0.186523 0.094531 0
lowpoly_metal.006
0  -0.452225 -0.074495 0.261199  -1.000000 0.000000 0.000000  0.188788 0.096366 0
0  -0.452225 0.000853 -0.248304  -1.000000 0.000000 0.000000  0.188873 0.096948 0
0  -0.452225 -0.073669 -0.248425  -1.000000 0.000000 0.000000  0.188788 0.096948 0
lowpoly_metal.006
0  0.000000 -2.401029 -0.466758  0.000094 -0.999999 -0.001758  0.187862 0.093444 0
0  0.411346 -2.401418 -0.226408  0.000094 -0.999999 -0.001758  0.187339 0.094405 0
0  0.000000 -2.401044 -0.458186  0.000094 -0.999999 -0.001758  0.187852 0.093442 0
lowpoly_metal.006
0  0.000000 -2.402558 0.477499  -0.000166 -0.999999 -0.001352  0.186816 0.093183 0
0  -0.411345 -2.402169 0.237149  -0.000166 -0.999999 -0.001352  0.187339 0.092222 0
0  0.000000 -2.402547 0.468926  -0.000166 -0.999999 -0.001352  0.186825 0.093185 0
lowpoly_metal.006
0  -0.418952 -0.074465 0.242451  0.000004 -0.999999 -0.001621  0.189604 0.092116 0
0  -0.452225 -0.073669 -0.248425  -0.000004 -0.999999 -0.001620  0.189043 0.092202 0
0  -0.418952 -0.073700 -0.229677  -0.000004 -0.999999 -0.001620  0.189065 0.092116 0
lowpoly_metal.006
0  0.000000 -2.401029 -0.466758  -0.000046 -0.999999 -0.001695  0.187862 0.093444 0
0  -0.411345 -2.401418 -0.226408  -0.000046 -0.999999 -0.001695  0.187852 0.092350 0
0  -0.418952 -2.401410 -0.230694  -0.000046 -0.999999 -0.001695  0.187862 0.092332 0
lowpoly_metal.006
0  0.000000 -2.402558 0.477499  -0.000046 -0.999999 -0.001683  0.186816 0.093183 0
0  0.411346 -2.402169 0.237149  -0.000046 -0.999999 -0.001683  0.186825 0.094277 0
0  0.418952 -2.402177 0.241435  -0.000046 -0.999999 -0.001683  0.186816 0.094295 0
lowpoly_metal.006
0  -0.124806 -0.059986 -0.063914  -0.490900 0.001420 -0.871214  0.198022 0.282891 0
0  0.000000 -0.007807 -0.134153  -0.490900 0.001420 -0.871215  0.198085 0.283213 0
0  0.000000 -0.059874 -0.134238  -0.490900 0.001420 -0.871215  0.198025 0.283213 0
lowpoly_metal.006
0  0.000000 0.001266 -0.503117  0.000004 0.999999 0.001617  0.188752 0.091037 0
0  0.138890 0.000568 -0.071751  0.000004 0.999999 0.001617  0.188260 0.090680 0
0  0.452226 0.000853 -0.248304  0.000004 0.999999 0.001617  0.188461 0.089873 0
lowpoly_metal.006
0  0.000000 -0.000385 0.516133  -0.000001 0.999999 0.001619  0.187589 0.091037 0
0  -0.138889 0.000313 0.084768  -0.000001 0.999999 0.001619  0.188081 0.091395 0
0  -0.452225 0.000027 0.261321  -0.000001 0.999999 0.001619  0.187879 0.092202 0
lowpoly_metal.006
0  0.000000 0.001266 -0.503117  0.000007 0.999999 0.001620  0.188752 0.091037 0
0  -0.138889 0.000568 -0.071751  0.000007 0.999999 0.001620  0.188260 0.091395 0
0  0.000000 0.000694 -0.150010  0.000007 0.999999 0.001620  0.188349 0.091037 0
lowpoly_metal.006
0  0.000000 -0.059847 -0.150108  0.000046 0.999999 0.001683  0.198759 0.282565 0
0  -0.124806 -0.059986 -0.063914  0.000046 0.999999 0.001683  0.198586 0.282853 0
0  0.000000 -0.059874 -0.134238  0.000046 0.999999 0.001683  0.198741 0.282560 0
lowpoly_metal.006
0  -0.138889 0.000313 0.084768  1.000000 0.000000 0.000000  0.201972 0.279613 0
0  -0.138889 -0.059975 -0.071849  1.000000 -0.000000 0.000000  0.202042 0.279792 0
0  -0.138889 0.000568 -0.071751  1.000000 -0.000000 0.000000  0.201972 0.279792 0
lowpoly_plastic.004
0  0.377319 -2.444742 0.215151  0.000021 -0.999999 -0.001624  0.091176 0.407222 0
0  0.299719 -2.444124 -0.166333  -0.000020 -0.999999 -0.001616  0.090741 0.407422 0
0  0.377319 -2.444056 -0.210059  -0.000025 -0.999999 -0.001615  0.090691 0.407222 0
lowpoly_metal.006
0  0.000000 -0.060354 0.162928  -0.000037 0.999999 0.001562  0.198412 0.282478 0
0  0.124807 -0.060215 0.076734  -0.000037 0.999999 0.001562  0.198586 0.282190 0
0  0.000000 -0.060329 0.147057  -0.000037 0.999999 0.001562  0.198430 0.282482 0
lowpoly_metal.006
0  0.138890 -0.060228 0.084670  0.000037 0.999999 0.001627  0.198586 0.282153 0
0  0.124807 -0.059986 -0.063914  0.000097 0.999999 0.001621  0.198741 0.282229 0
0  0.124807 -0.060215 0.076734  0.000031 0.999999 0.001627  0.198586 0.282190 0
lowpoly_metal.006
0  0.000000 -0.059847 -0.150108  0.000054 0.999999 0.001538  0.198759 0.282565 0
0  0.124807 -0.059986 -0.063914  0.000054 0.999999 0.001538  0.198741 0.282229 0
0  0.138890 -0.059975 -0.071849  0.000054 0.999999 0.001538  0.198759 0.282196 0
lowpoly_metal.006
0  0.000000 -0.060354 0.162928  -0.000021 0.999999 0.001646  0.198412 0.282478 0
0  -0.124806 -0.060215 0.076734  -0.000021 0.999999 0.001646  0.198430 0.282814 0
0  -0.138889 -0.060228 0.084670  -0.000021 0.999999 0.001646  0.198412 0.282847 0
lowpoly_plastic.004
0  0.299719 -2.382570 0.171528  0.000006 -0.999999 -0.001622  0.030054 0.515617 0
0  0.000001 -2.381750 -0.335113  0.000008 -0.999999 -0.001624  0.030802 0.515008 0
0  0.299719 -2.382021 -0.166233  0.000013 -0.999999 -0.001627  0.030428 0.515710 0
lowpoly_plastic.004
0  0.000001 -2.443708 -0.422663  0.000007 -0.999999 -0.001610  0.090448 0.408194 0
0  0.000001 -2.443850 -0.335213  0.000007 -0.999999 -0.001610  0.090548 0.408194 0
0  -0.299718 -2.444124 -0.166333  0.000007 -0.999999 -0.001610  0.090741 0.408965 0
lowpoly_plastic.004
0  0.000001 -2.403902 -0.460944  0.375801 -0.642315 -0.667986  0.087769 0.406036 0
0  0.411346 -2.404276 -0.229167  0.375801 -0.642315 -0.667986  0.087758 0.407095 0
0  0.377319 -2.444056 -0.210059  0.375801 -0.642315 -0.667986  0.087712 0.407008 0
lowpoly_plastic.004
0  0.000000 -2.405405 0.466167  -0.375788 -0.644509 0.665876  0.091465 0.408194 0
0  -0.411344 -2.405027 0.234389  -0.375788 -0.644509 0.665876  0.091200 0.409253 0
0  -0.377318 -2.444742 0.215151  -0.375788 -0.644509 0.665876  0.091176 0.409165 0
lowpoly_plastic.004
0  0.000001 -2.403902 -0.460944  -0.375779 -0.642355 -0.667959  0.087769 0.406036 0
0  0.000001 -2.443708 -0.422663  -0.375779 -0.642355 -0.667959  0.087722 0.406036 0
0  -0.377318 -2.444056 -0.210059  -0.375779 -0.642355 -0.667959  0.087712 0.405065 0
lowpoly_plastic.004
0  0.000000 -2.405405 0.466167  0.375799 -0.644490 0.665889  0.091465 0.408194 0
0  0.000001 -2.445089 0.427758  0.375799 -0.644490 0.665889  0.091419 0.408194 0
0  0.377319 -2.444742 0.215151  0.375799 -0.644490 0.665889  0.091176 0.407222 0
lowpoly_plastic.004
0  0.000001 -2.445089 0.427758  -0.000030 -0.999999 -0.001660  0.091419 0.408194 0
0  0.000001 -2.444944 0.340308  -0.000030 -0.999999 -0.001660  0.091319 0.408194 0
0  0.299719 -2.444674 0.171428  -0.000030 -0.999999 -0.001660  0.091126 0.407422 0
lowpoly_plastic.004
0  0.000001 -2.443708 -0.422663  -0.000018 -0.999999 -0.001604  0.090448 0.408194 0
0  0.377319 -2.444056 -0.210059  -0.000018 -0.999999 -0.001604  0.090691 0.407222 0
0  0.299719 -2.444124 -0.166333  -0.000018 -0.999999 -0.001604  0.090741 0.407422 0
lowpoly_plastic.004
0  0.000001 -2.445089 0.427758  -0.000018 -0.999999 -0.001599  0.091419 0.408194 0
0  -0.377318 -2.444742 0.215151  -0.000018 -0.999999 -0.001599  0.091176 0.409165 0
0  -0.299718 -2.444674 0.171428  -0.000018 -0.999999 -0.001599  0.091126 0.408965 0
lowpoly_plastic.004
0  -0.377318 -2.444056 -0.210059  0.000021 -0.999999 -0.001624  0.090691 0.409165 0
0  -0.299718 -2.444674 0.171428  -0.000020 -0.999999 -0.001616  0.091126 0.408965 0
0  -0.377318 -2.444742 0.215151  -0.000025 -0.999999 -0.001615  0.091176 0.409165 0
lowpoly_metal.006
0  -0.418952 -0.074465 0.242451  0.000002 -0.999999 -0.001628  0.189604 0.092116 0
0  0.000000 -0.074848 0.478516  0.000002 -0.999999 -0.001628  0.189873 0.091037 0
0  0.000000 -0.074909 0.516013  0.000002 -0.999999 -0.001628  0.189916 0.091037 0
lowpoly_metal.006
0  -0.418952 -0.073700 -0.229677  -0.000003 -0.999999 -0.001622  0.189065 0.092116 0
0  -0.452225 -0.073669 -0.248425  -0.000003 -0.999999 -0.001622  0.189043 0.092202 0
0  0.000000 -0.073257 -0.503238  -0.000003 -0.999999 -0.001622  0.188752 0.091037 0
lowpoly_metal.006
0  0.418952 -0.074465 0.242451  -0.000001 -0.999999 -0.001626  0.189604 0.089959 0
0  0.452226 -0.074495 0.261199  -0.000001 -0.999999 -0.001626  0.189625 0.089873 0
0  0.000000 -0.074909 0.516013  -0.000001 -0.999999 -0.001626  0.189916 0.091037 0
lowpoly_metal.006
0  0.418952 -0.073700 -0.229677  0.000007 -0.999999 -0.001628  0.189065 0.089959 0
0  0.000000 -0.073318 -0.465742  0.000007 -0.999999 -0.001628  0.188795 0.091037 0
0  0.000000 -0.073257 -0.503238  0.000007 -0.999999 -0.001628  0.188752 0.091037 0
lowpoly_metal.006
0  0.000000 -0.000385 0.516133  -0.000004 0.999999 0.001617  0.187589 0.091037 0
0  0.452226 0.000029 0.261321  -0.000004 0.999999 0.001617  0.187879 0.089873 0
0  0.138890 0.000313 0.084768  -0.000004 0.999999 0.001617  0.188081 0.090680 0
lowpoly_metal.006
0  0.000000 -2.401029 -0.466758  0.000046 -0.999999 -0.001695  0.187862 0.093444 0
0  0.418953 -2.401410 -0.230694  0.000046 -0.999999 -0.001695  0.187339 0.094426 0
0  0.411346 -2.401418 -0.226408  0.000046 -0.999999 -0.001695  0.187339 0.094405 0
lowpoly_metal.006
0  0.000000 -2.402558 0.477499  0.000046 -0.999999 -0.001662  0.186816 0.093183 0
0  -0.418952 -2.402177 0.241435  0.000046 -0.999999 -0.001662  0.187339 0.092202 0
0  -0.411345 -2.402169 0.237149  0.000046 -0.999999 -0.001662  0.187339 0.092222 0
lowpoly_metal.006
0  0.000000 -2.401029 -0.466758  -0.000094 -0.999998 -0.001758  0.187862 0.093444 0
0  0.000000 -2.401044 -0.458186  -0.000094 -0.999998 -0.001758  0.187852 0.093442 0
0  -0.411345 -2.401418 -0.226408  -0.000094 -0.999998 -0.001758  0.187852 0.092350 0
lowpoly_metal.006
0  0.000000 -2.402558 0.477499  0.000166 -0.999999 -0.001352  0.186816 0.093183 0
0  0.000000 -2.402547 0.468926  0.000166 -0.999999 -0.001352  0.186825 0.093185 0
0  0.411346 -2.402169 0.237149  0.000166 -0.999999 -0.001352  0.186825 0.094277 0
lowpoly_metal.006
0  0.000000 0.001266 -0.503117  -0.000007 0.999999 0.001620  0.188752 0.091037 0
0  0.000000 0.000694 -0.150010  -0.000007 0.999999 0.001620  0.188349 0.091037 0
0  0.138890 0.000568 -0.071751  -0.000007 0.999999 0.001620  0.188260 0.090680 0
lowpoly_metal.006
0  0.000000 -0.000385 0.516133  -0.000007 0.999999 0.001620  0.187589 0.091037 0
0  0.000000 0.000187 0.163026  -0.000007 0.999999 0.001620  0.187992 0.091037 0
0  -0.138889 0.000313 0.084768  -0.000007 0.999999 0.001620  0.188081 0.091395 0
lowpoly_metal.006
0  0.000000 0.001266 -0.503117  -0.000004 0.999999 0.001617  0.188752 0.091037 0
0  -0.452225 0.000853 -0.248304  -0.000004 0.999999 0.001617  0.188461 0.092202 0
0  -0.138889 0.000568 -0.071751  -0.000004 0.999999 0.001617  0.188260 0.091395 0
lowpoly_metal.006
0  0.000000 -0.059847 -0.150108  -0.000054 0.999999 0.001537  0.198759 0.282565 0
0  -0.138889 -0.059975 -0.071849  -0.000054 0.999999 0.001537  0.198586 0.282890 0
0  -0.124806 -0.059986 -0.063914  -0.000054 0.999999 0.001537  0.198586 0.282853 0
lowpoly_metal.006
0  0.000000 -0.060354 0.162928  0.000021 0.999999 0.001645  0.198412 0.282478 0
0  0.138890 -0.060228 0.084670  0.000021 0.999999 0.001645  0.198586 0.282153 0
0  0.124807 -0.060215 0.076734  0.000021 0.999999 0.001645  0.198586 0.282190 0
lowpoly_metal.006
0  0.000000 -0.059847 -0.150108  -0.000046 0.999999 0.001683  0.198759 0.282565 0
0  0.000000 -0.059874 -0.134238  -0.000046 0.999999 0.001683  0.198741 0.282560 0
0  0.124807 -0.059986 -0.063914  -0.000046 0.999999 0.001683  0.198741 0.282229 0
lowpoly_metal.006
0  0.000000 -0.060354 0.162928  0.000037 0.999999 0.001562  0.198412 0.282478 0
0  0.000000 -0.060329 0.147057  0.000037 0.999999 0.001562  0.198430 0.282482 0
0  -0.124806 -0.060215 0.076734  0.000037 0.999999 0.001562  0.198430 0.282814 0
lowpoly_metal.006
0  -0.418952 -2.402177 0.241435  -0.490899 -0.000381 0.871217  0.186013 0.094431 0
0  0.000000 -0.074848 0.478516  -0.490900 -0.000381 0.871216  0.185308 0.095510 0
0  -0.418952 -0.074465 0.242451  -0.490900 -0.000380 0.871216  0.185296 0.094431 0
lowpoly_metal.006
0  0.418952 -2.402177 0.241435  -0.000087 -0.999999 -0.001621  0.186816 0.094295 0
0  0.411346 -2.402169 0.237149  -0.000090 -0.999999 -0.001621  0.186825 0.094277 0
0  0.411346 -2.401418 -0.226408  0.000086 -0.999999 -0.001623  0.187339 0.094405 0
lowpoly_plastic.004
0  0.411346 -2.396195 -0.226399  0.470610 0.285913 -0.834733  0.089708 0.407095 0
0  0.411346 -2.404276 -0.229167  0.470610 0.285916 -0.834733  0.087758 0.407095 0
0  0.000001 -2.403902 -0.460944  0.470639 0.285701 -0.834790  0.087769 0.406036 0
lowpoly_plastic.004
0  -0.411345 -2.396947 0.237157  -1.000000 -0.000056 -0.000000  0.091994 0.408881 0
0  -0.411345 -2.396195 -0.226399  -1.000000 -0.000057 -0.000000  0.091465 0.408881 0
0  -0.411344 -2.404276 -0.229167  -1.000000 -0.000057 -0.000000  0.091465 0.406929 0
lowpoly_plastic.004
0  0.000000 -2.397321 0.468935  0.470625 -0.285762 0.834777  0.085631 0.408260 0
0  0.000000 -2.405405 0.466167  0.470626 -0.285760 0.834777  0.087581 0.408260 0
0  0.411346 -2.405027 0.234389  0.470596 -0.285976 0.834720  0.087570 0.409319 0
lowpoly_metal.006
0  0.124807 -0.007921 -0.063829  0.000007 0.999999 0.001622  0.203712 0.284742 0
0  0.000000 -0.007807 -0.134153  0.000004 0.999999 0.001621  0.203632 0.284421 0
0  0.000000 -0.008263 0.147142  0.000009 0.999999 0.001624  0.203953 0.284421 0
lowpoly_plastic.004
0  0.000001 -2.444944 0.340308  -0.490897 0.001405 -0.871217  0.023497 0.511059 0
0  0.000001 -2.382845 0.340408  -0.490897 0.001405 -0.871217  0.023568 0.511059 0
0  0.299719 -2.382570 0.171528  -0.490898 0.001405 -0.871216  0.023576 0.511831 0
lowpoly_metal.006
0  0.138890 0.000313 0.084768  -1.000000 -0.000000 0.000000  0.201972 0.279613 0
0  0.138890 0.000568 -0.071751  -1.000000 -0.000000 0.000000  0.201972 0.279792 0
0  0.138890 -0.059975 -0.071849  -1.000000 -0.000000 0.000000  0.201903 0.279792 0
lowpoly_metal.006
0  0.000000 -0.059874 -0.134238  0.490900 0.001420 -0.871215  0.198025 0.283213 0
0  0.000000 -0.007807 -0.134153  0.490900 0.001420 -0.871215  0.198085 0.283213 0
0  0.124807 -0.007921 -0.063829  0.490900 0.001420 -0.871215  0.198081 0.283534 0
lowpoly_metal.006
0  -0.452225 -0.073669 -0.248425  -0.490900 0.001416 -0.871215  0.186523 0.092202 0
0  -0.452225 0.000853 -0.248304  -0.490900 0.001416 -0.871215  0.186608 0.092202 0
0  0.000000 0.001266 -0.503117  -0.490900 0.001416 -0.871215  0.186620 0.093366 0
lowpoly_metal.006
0  -0.418952 -2.401410 -0.230694  -1.000000 0.000000 0.000000  0.186232 0.095985 0
0  -0.418952 -2.402177 0.241435  -1.000000 0.000000 0.000000  0.186772 0.095985 0
0  -0.418952 -0.074465 0.242451  -1.000000 0.000000 0.000000  0.186772 0.096703 0
lowpoly_metal.006
0  0.000000 -2.401029 -0.466758  -0.490899 0.000381 -0.871217  0.190927 0.093280 0
0  -0.418952 -2.401410 -0.230694  -0.490898 0.000381 -0.871217  0.190916 0.092202 0
0  -0.418952 -0.073700 -0.229677  -0.490900 0.000381 -0.871216  0.191632 0.092202 0
lowpoly_plastic.004
0  0.411346 -2.396947 0.237157  1.000000 0.000032 0.000000  0.090682 0.404600 0
0  0.411346 -2.405027 0.234389  1.000000 0.000032 0.000000  0.090682 0.402648 0
0  0.411346 -2.404276 -0.229167  1.000000 0.000036 0.000000  0.091211 0.402648 0
lowpoly_metal.006
0  -0.138889 0.000568 -0.071751  0.490896 -0.001414 0.871217  0.198081 0.282891 0
0  -0.138889 -0.059975 -0.071849  0.490896 -0.001414 0.871217  0.198012 0.282891 0
0  0.000000 -0.059847 -0.150108  0.490896 -0.001414 0.871217  0.198016 0.282534 0
lowpoly_metal.006
0  0.000000 -0.007807 -0.134153  -0.000006 0.999999 0.001624  0.203632 0.284421 0
0  -0.124806 -0.007921 -0.063829  0.000000 0.999999 0.001627  0.203712 0.284100 0
0  -0.124806 -0.008150 0.076818  -0.000009 0.999999 0.001622  0.203872 0.284100 0
lowpoly_metal.006
0  0.452226 -0.074495 0.261199  1.000000 0.000001 0.000000  0.190820 0.096438 0
0  0.452226 -0.073669 -0.248425  1.000000 -0.000001 0.000000  0.190820 0.097021 0
0  0.452226 0.000853 -0.248304  1.000000 -0.000000 0.000000  0.190735 0.097021 0
lowpoly_plastic.004
0  0.000001 -2.443850 -0.335213  -0.490899 -0.001405 0.871215  0.023647 0.511059 0
0  0.299719 -2.444124 -0.166333  -0.490900 -0.001405 0.871215  0.023655 0.511831 0
0  0.299719 -2.382021 -0.166233  -0.490900 -0.001405 0.871215  0.023584 0.511831 0
lowpoly_metal.006
0  0.000000 0.000694 -0.150010  -0.490895 -0.001414 0.871217  0.198085 0.282534 0
0  0.000000 -0.059847 -0.150108  -0.490895 -0.001414 0.871217  0.198016 0.282534 0
0  0.138890 -0.059975 -0.071849  -0.490895 -0.001414 0.871217  0.198012 0.282176 0
lowpoly_plastic.004
0  0.000001 -2.382845 0.340408  -0.000005 -0.999999 -0.001624  0.030054 0.514822 0
0  -0.299718 -2.382570 0.171528  -0.000000 -0.999999 -0.001626  0.030428 0.514120 0
0  -0.299718 -2.382021 -0.166233  -0.000007 -0.999999 -0.001622  0.030802 0.514213 0
lowpoly_metal.006
0  0.418952 -0.073700 -0.229677  0.490900 0.000381 -0.871216  0.191632 0.094359 0
0  0.418953 -2.401410 -0.230694  0.490898 0.000381 -0.871217  0.190916 0.094359 0
0  0.000000 -2.401029 -0.466758  0.490899 0.000381 -0.871217  0.190927 0.093280 0
lowpoly_metal.006
0  0.000000 0.000187 0.163026  -0.490895 0.001414 -0.871217  0.200834 0.282405 0
0  0.138890 0.000313 0.084768  -0.490895 0.001414 -0.871217  0.200838 0.282763 0
0  0.138890 -0.060228 0.084670  -0.490895 0.001414 -0.871217  0.200769 0.282763 0
lowpoly_metal.006
0  -0.418952 -2.402177 0.241435  0.000087 -0.999999 -0.001622  0.187339 0.092202 0
0  -0.418952 -2.401410 -0.230694  -0.000088 -0.999999 -0.001623  0.187862 0.092332 0
0  -0.411345 -2.401418 -0.226408  -0.000086 -0.999999 -0.001623  0.187852 0.092350 0
lowpoly_plastic.004
0  0.411346 -2.404276 -0.229167  0.759665 -0.650314 -0.001051  0.090671 0.407135 0
0  0.411346 -2.405027 0.234389  0.759644 -0.650338 -0.001054  0.091200 0.407135 0
0  0.377319 -2.444742 0.215151  0.759646 -0.650336 -0.001054  0.091176 0.407222 0
lowpoly_plastic.004
0  -0.411345 -2.396947 0.237157  -0.470599 -0.286016 0.834705  0.085620 0.407201 0
0  -0.411344 -2.405027 0.234389  -0.470598 -0.286018 0.834704  0.087570 0.407201 0
0  0.000000 -2.405405 0.466167  -0.470613 -0.285786 0.834775  0.087581 0.408260 0
lowpoly_plastic.004
0  0.000001 -2.443850 -0.335213  0.490899 -0.001405 0.871215  0.023647 0.511059 0
0  0.000001 -2.381750 -0.335113  0.490899 -0.001405 0.871216  0.023576 0.511059 0
0  -0.299718 -2.382021 -0.166233  0.490900 -0.001405 0.871215  0.023584 0.510287 0
lowpoly_metal.006
0  0.000000 -2.402558 0.477499  0.490899 -0.000381 0.871217  0.186024 0.095510 0
0  0.418952 -2.402177 0.241435  0.490898 -0.000381 0.871217  0.186013 0.096588 0
0  0.418952 -0.074465 0.242451  0.490900 -0.000381 0.871216  0.185296 0.096588 0
lowpoly_metal.006
0  -0.452225 0.000027 0.261321  -0.000002 0.999999 0.001624  0.187879 0.092202 0
0  -0.138889 0.000313 0.084768  0.000007 0.999999 0.001633  0.188081 0.091395 0
0  -0.138889 0.000568 -0.071751  -0.000001 0.999999 0.001625  0.188260 0.091395 0
lowpoly_metal.006
0  0.452226 0.000853 -0.248304  0.000001 0.999999 0.001621  0.188461 0.089873 0
0  0.138890 0.000568 -0.071751  0.000013 0.999999 0.001633  0.188260 0.090680 0
0  0.138890 0.000313 0.084768  0.000002 0.999999 0.001623  0.188081 0.090680 0
lowpoly_metal.006
0  0.000000 0.000187 0.163026  0.490896 0.001414 -0.871217  0.200834 0.282405 0
0  0.000000 -0.060354 0.162928  0.490896 0.001414 -0.871217  0.200765 0.282405 0
0  -0.138889 -0.060228 0.084670  0.490896 0.001414 -0.871217  0.200769 0.282048 0
lowpoly_metal.006
0  0.000000 -0.074909 0.516013  0.490899 -0.001406 0.871216  0.186718 0.093366 0
0  0.452226 -0.074495 0.261199  0.490900 -0.001416 0.871215  0.186705 0.094531 0
0  0.452226 0.000029 0.261321  0.490900 -0.001415 0.871215  0.186620 0.094531 0
lowpoly_metal.006
0  0.124807 -0.059986 -0.063914  1.000000 0.000000 0.000000  0.202299 0.279774 0
0  0.124807 -0.007921 -0.063829  1.000000 0.000000 0.000000  0.202240 0.279774 0
0  0.124807 -0.008150 0.076818  1.000000 0.000000 0.000000  0.202240 0.279613 0
lowpoly_metal.006
0  0.000000 -0.074909 0.516013  -0.490899 -0.001406 0.871216  0.186718 0.093366 0
0  0.000000 -0.000385 0.516133  -0.490899 -0.001405 0.871216  0.186633 0.093366 0
0  -0.452225 0.000027 0.261321  -0.490900 -0.001415 0.871215  0.186620 0.092202 0
lowpoly_plastic.004
0  0.299719 -2.444124 -0.166333  -1.000000 -0.000000 0.000000  0.023420 0.514312 0
0  0.299719 -2.444674 0.171428  -1.000000 -0.000000 0.000000  0.023420 0.513926 0
0  0.299719 -2.382570 0.171528  -1.000000 -0.000000 0.000000  0.023491 0.513926 0
lowpoly_metal.006
0  0.000000 -0.060329 0.147057  0.490899 -0.001417 0.871216  0.198148 0.283160 0
0  0.124807 -0.060215 0.076734  0.490895 -0.001404 0.871218  0.198151 0.282839 0
0  0.124807 -0.008150 0.076818  0.490896 -0.001408 0.871217  0.198211 0.282839 0
lowpoly_metal.006
0  0.000000 -0.060329 0.147057  -0.490899 -0.001417 0.871215  0.198148 0.283160 0
0  0.000000 -0.008263 0.147142  -0.490900 -0.001420 0.871215  0.198207 0.283160 0
0  -0.124806 -0.008150 0.076818  -0.490897 -0.001408 0.871217  0.198211 0.283481 0
lowpoly_metal.006
0  -0.124806 -0.060215 0.076734  -1.000000 -0.000000 0.000000  0.202180 0.279613 0
0  -0.124806 -0.008150 0.076818  -1.000000 -0.000001 0.000000  0.202240 0.279613 0
0  -0.124806 -0.007921 -0.063829  -1.000000 0.000000 0.000000  0.202240 0.279774 0
lowpoly_plastic.004
0  -0.411344 -2.404276 -0.229167  -0.759667 -0.650312 -0.001051  0.090671 0.409253 0
0  -0.377318 -2.444056 -0.210059  -0.759669 -0.650309 -0.001050  0.090691 0.409165 0
0  -0.377318 -2.444742 0.215151  -0.759648 -0.650333 -0.001054  0.091176 0.409165 0
lowpoly_plastic.004
0  0.000000 -2.395818 -0.458177  -0.470635 0.285671 -0.834802  0.089720 0.406036 0
0  0.000001 -2.403902 -0.460944  -0.470635 0.285669 -0.834803  0.087769 0.406036 0
0  -0.411344 -2.404276 -0.229167  -0.470617 0.285873 -0.834743  0.087758 0.404977 0
lowpoly_plastic.004
0  -0.299718 -2.444674 0.171428  0.490898 0.001405 -0.871216  0.023505 0.510287 0
0  -0.299718 -2.382570 0.171528  0.490898 0.001405 -0.871216  0.023576 0.510287 0
0  0.000001 -2.382845 0.340408  0.490897 0.001405 -0.871217  0.023568 0.511059 0
lowpoly_metal.006
0  0.418952 -2.402177 0.241435  1.000000 0.000000 0.000000  0.190195 0.096438 0
0  0.418953 -2.401410 -0.230694  1.000000 0.000000 0.000001  0.190735 0.096438 0
0  0.418952 -0.073700 -0.229677  1.000000 0.000000 0.000000  0.190735 0.097156 0
lowpoly_metal.006
0  -0.138889 -0.059975 -0.071849  -0.000098 0.999999 0.001627  0.198586 0.282890 0
0  -0.138889 -0.060228 0.084670  -0.000035 0.999999 0.001621  0.198412 0.282847 0
0  -0.124806 -0.060215 0.076734  -0.000038 0.999999 0.001621  0.198430 0.282814 0
lowpoly_metal.006
0  0.418952 -0.074465 0.242451  -0.000004 -0.999999 -0.001621  0.189604 0.089959 0
0  0.418952 -0.073700 -0.229677  0.000004 -0.999999 -0.001620  0.189065 0.089959 0
0  0.452226 -0.073669 -0.248425  0.000004 -0.999999 -0.001620  0.189043 0.089873 0
lowpoly_plastic.004
0  -0.299718 -2.444124 -0.166333  1.000000 -0.000000 0.000000  0.023491 0.514698 0
0  -0.299718 -2.382021 -0.166233  1.000000 0.000000 0.000000  0.023420 0.514698 0
0  -0.299718 -2.382570 0.171528  1.000000 -0.000000 0.000000  0.023420 0.514312 0
lowpoly_metal.006
0  0.000000 -0.073257 -0.503238  0.490900 0.001416 -0.871215  0.186535 0.093366 0
0  0.000000 0.001266 -0.503117  0.490900 0.001416 -0.871215  0.186620 0.093366 0
0  0.452226 0.000853 -0.248304  0.490900 0.001416 -0.871215  0.186608 0.094531 0
lowpoly_metal.006
0  -0.452225 -0.074495 0.261199  -1.000000 0.000000 0.000000  0.188788 0.096366 0
0  -0.452225 0.000027 0.261321  -1.000000 0.000000 0.000000  0.188873 0.096366 0
0  -0.452225 0.000853 -0.248304  -1.000000 0.000000 0.000000  0.188873 0.096948 0
lowpoly_metal.006
0  -0.418952 -0.074465 0.242451  0.000004 -0.999999 -0.001621  0.189604 0.092116 0
0  -0.452225 -0.074495 0.261199  0.000004 -0.999999 -0.001621  0.189625 0.092202 0
0  -0.452225 -0.073669 -0.248425  -0.000004 -0.999999 -0.001620  0.189043 0.092202 0
lowpoly_metal.006
0  -0.124806 -0.059986 -0.063914  -0.490900 0.001420 -0.871214  0.198022 0.282891 0
0  -0.124806 -0.007921 -0.063829  -0.490901 0.001420 -0.871215  0.198081 0.282891 0
0  0.000000 -0.007807 -0.134153  -0.490900 0.001420 -0.871215  0.198085 0.283213 0
lowpoly_metal.006
0  -0.138889 0.000313 0.084768  1.000000 0.000000 0.000000  0.201972 0.279613 0
0  -0.138889 -0.060228 0.084670  1.000000 0.000000 0.000000  0.202042 0.279613 0
0  -0.138889 -0.059975 -0.071849  1.000000 -0.000000 0.000000  0.202042 0.279792 0
lowpoly_plastic.004
0  0.377319 -2.444742 0.215151  0.000021 -0.999999 -0.001624  0.091176 0.407222 0
0  0.299719 -2.444674 0.171428  0.000031 -0.999999 -0.001626  0.091126 0.407422 0
0  0.299719 -2.444124 -0.166333  -0.000020 -0.999999 -0.001616  0.090741 0.407422 0
lowpoly_metal.006
0  0.138890 -0.060228 0.084670  0.000037 0.999999 0.001627  0.198586 0.282153 0
0  0.138890 -0.059975 -0.071849  0.000101 0.999999 0.001621  0.198759 0.282196 0
0  0.124807 -0.059986 -0.063914  0.000097 0.999999 0.001621  0.198741 0.282229 0
lowpoly_plastic.004
0  0.299719 -2.382570 0.171528  0.000006 -0.999999 -0.001622  0.030054 0.515617 0
0  0.000001 -2.382845 0.340408  0.000003 -0.999999 -0.001620  0.030054 0.514822 0
0  0.000001 -2.381750 -0.335113  0.000008 -0.999999 -0.001624  0.030802 0.515008 0
lowpoly_plastic.004
0  -0.377318 -2.444056 -0.210059  0.000021 -0.999999 -0.001624  0.090691 0.409165 0
0  -0.299718 -2.444124 -0.166333  0.000032 -0.999999 -0.001626  0.090741 0.408965 0
0  -0.299718 -2.444674 0.171428  -0.000020 -0.999999 -0.001616  0.091126 0.408965 0
lowpoly_metal.006
0  -0.418952 -2.402177 0.241435  -0.490899 -0.000381 0.871217  0.186013 0.094431 0
0  0.000000 -2.402558 0.477499  -0.490899 -0.000381 0.871217  0.186024 0.095510 0
0  0.000000 -0.074848 0.478516  -0.490900 -0.000381 0.871216  0.185308 0.095510 0
end
